<?xml version="1.0" standalone="no"?>
 <!DOCTYPE svg PUBLIC "-//W3C//DTD SVG 1.1//EN" 
 "http://www.w3.org/Graphics/SVG/1.1/DTD/svg11.dtd"> 
<svg xmlns="http://www.w3.org/2000/svg" version="1.1" 
    width="29.7002cm" height="21.0007cm" viewBox="0 0 116930 82680 ">
<title>SVG Picture created as Anti-Spark-F_Mask.svg date 2019/09/11 11:25:07 </title>
  <desc>Picture generated by PCBNEW </desc>
<g style="fill:#000000; fill-opacity:1;stroke:#000000; stroke-opacity:1;
stroke-linecap:round; stroke-linejoin:round; "
 transform="translate(0 0) scale(1 1)">
</g>
<g style="fill:#000000; fill-opacity:0.0; 
stroke:#000000; stroke-width:-0.000393701; stroke-opacity:1; 
stroke-linecap:round; stroke-linejoin:round;">
</g>
<g style="fill:#000000; fill-opacity:0.0; 
stroke:#000000; stroke-width:39.3701; stroke-opacity:1; 
stroke-linecap:round; stroke-linejoin:round;">
</g>
<g style="fill:#000000; fill-opacity:0.0; 
stroke:#000000; stroke-width:59.0551; stroke-opacity:1; 
stroke-linecap:round; stroke-linejoin:round;">
<rect x="69685.9" y="65357.2" width="42519.7" height="12598.4" rx="0" />
</g>
<g style="fill:#000000; fill-opacity:0.0; 
stroke:#000000; stroke-width:39.3701; stroke-opacity:1; 
stroke-linecap:round; stroke-linejoin:round;">
</g>
<g style="fill:#000000; fill-opacity:0.0; 
stroke:#000000; stroke-width:59.0551; stroke-opacity:1; 
stroke-linecap:round; stroke-linejoin:round;">
<rect x="3937.01" y="3937.01" width="109056" height="74806" rx="0" />
</g>
<g style="fill:#000000; fill-opacity:0.0; 
stroke:#000000; stroke-width:39.3701; stroke-opacity:1; 
stroke-linecap:round; stroke-linejoin:round;">
</g>
<g style="fill:#000000; fill-opacity:0.0; 
stroke:#000000; stroke-width:59.0551; stroke-opacity:1; 
stroke-linecap:round; stroke-linejoin:round;">
<rect x="4724.41" y="4724.41" width="107481" height="73231.2" rx="0" />
</g>
<g style="fill:#000000; fill-opacity:0.0; 
stroke:#000000; stroke-width:39.3701; stroke-opacity:1; 
stroke-linecap:round; stroke-linejoin:round;">
</g>
<g style="fill:#000000; fill-opacity:0.0; 
stroke:#000000; stroke-width:59.0551; stroke-opacity:1; 
stroke-linecap:round; stroke-linejoin:round;">
<path d="M23622 4724
L23622 3937
" />
</g>
<g style="fill:#000000; fill-opacity:0.0; 
stroke:#000000; stroke-width:39.3701; stroke-opacity:1; 
stroke-linecap:round; stroke-linejoin:round;">
</g>
<g style="fill:#000000; fill-opacity:0.0; 
stroke:#000000; stroke-width:59.0551; stroke-opacity:1; 
stroke-linecap:round; stroke-linejoin:round;">
<path d="M43307 4724
L43307 3937
" />
</g>
<g style="fill:#000000; fill-opacity:0.0; 
stroke:#000000; stroke-width:39.3701; stroke-opacity:1; 
stroke-linecap:round; stroke-linejoin:round;">
</g>
<g style="fill:#000000; fill-opacity:0.0; 
stroke:#000000; stroke-width:59.0551; stroke-opacity:1; 
stroke-linecap:round; stroke-linejoin:round;">
<path d="M62992 4724
L62992 3937
" />
</g>
<g style="fill:#000000; fill-opacity:0.0; 
stroke:#000000; stroke-width:39.3701; stroke-opacity:1; 
stroke-linecap:round; stroke-linejoin:round;">
</g>
<g style="fill:#000000; fill-opacity:0.0; 
stroke:#000000; stroke-width:59.0551; stroke-opacity:1; 
stroke-linecap:round; stroke-linejoin:round;">
<path d="M82677 4724
L82677 3937
" />
</g>
<g style="fill:#000000; fill-opacity:0.0; 
stroke:#000000; stroke-width:39.3701; stroke-opacity:1; 
stroke-linecap:round; stroke-linejoin:round;">
</g>
<g style="fill:#000000; fill-opacity:0.0; 
stroke:#000000; stroke-width:59.0551; stroke-opacity:1; 
stroke-linecap:round; stroke-linejoin:round;">
<path d="M102362 4724
L102362 3937
" />
</g>
<g style="fill:#000000; fill-opacity:0.0; 
stroke:#000000; stroke-width:39.3701; stroke-opacity:1; 
stroke-linecap:round; stroke-linejoin:round;">
</g>
<g style="fill:#000000; fill-opacity:0.0; 
stroke:#000000; stroke-width:59.0551; stroke-opacity:1; 
stroke-linecap:round; stroke-linejoin:round;">
<path d="M14199 4562
L13906 4562
" />
<path d="M14052 4562
L14052 4050
L14004 4123
L13955 4172
L13906 4196
" />
</g>
<g style="fill:#000000; fill-opacity:0.0; 
stroke:#000000; stroke-width:39.3701; stroke-opacity:1; 
stroke-linecap:round; stroke-linejoin:round;">
</g>
<g style="fill:#000000; fill-opacity:0.0; 
stroke:#000000; stroke-width:59.0551; stroke-opacity:1; 
stroke-linecap:round; stroke-linejoin:round;">
<path d="M33591 4099
L33615 4074
L33664 4050
L33786 4050
L33835 4074
L33859 4099
L33884 4147
L33884 4196
L33859 4269
L33567 4562
L33884 4562
" />
</g>
<g style="fill:#000000; fill-opacity:0.0; 
stroke:#000000; stroke-width:39.3701; stroke-opacity:1; 
stroke-linecap:round; stroke-linejoin:round;">
</g>
<g style="fill:#000000; fill-opacity:0.0; 
stroke:#000000; stroke-width:59.0551; stroke-opacity:1; 
stroke-linecap:round; stroke-linejoin:round;">
<path d="M53252 4050
L53569 4050
L53398 4245
L53471 4245
L53520 4269
L53544 4294
L53569 4342
L53569 4464
L53544 4513
L53520 4537
L53471 4562
L53325 4562
L53276 4537
L53252 4513
" />
</g>
<g style="fill:#000000; fill-opacity:0.0; 
stroke:#000000; stroke-width:39.3701; stroke-opacity:1; 
stroke-linecap:round; stroke-linejoin:round;">
</g>
<g style="fill:#000000; fill-opacity:0.0; 
stroke:#000000; stroke-width:59.0551; stroke-opacity:1; 
stroke-linecap:round; stroke-linejoin:round;">
<path d="M73205 4221
L73205 4562
" />
<path d="M73083 4026
L72961 4391
L73278 4391
" />
</g>
<g style="fill:#000000; fill-opacity:0.0; 
stroke:#000000; stroke-width:39.3701; stroke-opacity:1; 
stroke-linecap:round; stroke-linejoin:round;">
</g>
<g style="fill:#000000; fill-opacity:0.0; 
stroke:#000000; stroke-width:59.0551; stroke-opacity:1; 
stroke-linecap:round; stroke-linejoin:round;">
<path d="M92914 4050
L92671 4050
L92646 4294
L92671 4269
L92719 4245
L92841 4245
L92890 4269
L92914 4294
L92939 4342
L92939 4464
L92914 4513
L92890 4537
L92841 4562
L92719 4562
L92671 4537
L92646 4513
" />
</g>
<g style="fill:#000000; fill-opacity:0.0; 
stroke:#000000; stroke-width:39.3701; stroke-opacity:1; 
stroke-linecap:round; stroke-linejoin:round;">
</g>
<g style="fill:#000000; fill-opacity:0.0; 
stroke:#000000; stroke-width:59.0551; stroke-opacity:1; 
stroke-linecap:round; stroke-linejoin:round;">
<path d="M112575 4050
L112477 4050
L112429 4074
L112404 4099
L112356 4172
L112331 4269
L112331 4464
L112356 4513
L112380 4537
L112429 4562
L112526 4562
L112575 4537
L112599 4513
L112624 4464
L112624 4342
L112599 4294
L112575 4269
L112526 4245
L112429 4245
L112380 4269
L112356 4294
L112331 4342
" />
</g>
<g style="fill:#000000; fill-opacity:0.0; 
stroke:#000000; stroke-width:39.3701; stroke-opacity:1; 
stroke-linecap:round; stroke-linejoin:round;">
</g>
<g style="fill:#000000; fill-opacity:0.0; 
stroke:#000000; stroke-width:59.0551; stroke-opacity:1; 
stroke-linecap:round; stroke-linejoin:round;">
<path d="M23622 77955
L23622 78742
" />
</g>
<g style="fill:#000000; fill-opacity:0.0; 
stroke:#000000; stroke-width:39.3701; stroke-opacity:1; 
stroke-linecap:round; stroke-linejoin:round;">
</g>
<g style="fill:#000000; fill-opacity:0.0; 
stroke:#000000; stroke-width:59.0551; stroke-opacity:1; 
stroke-linecap:round; stroke-linejoin:round;">
<path d="M43307 77955
L43307 78742
" />
</g>
<g style="fill:#000000; fill-opacity:0.0; 
stroke:#000000; stroke-width:39.3701; stroke-opacity:1; 
stroke-linecap:round; stroke-linejoin:round;">
</g>
<g style="fill:#000000; fill-opacity:0.0; 
stroke:#000000; stroke-width:59.0551; stroke-opacity:1; 
stroke-linecap:round; stroke-linejoin:round;">
<path d="M62992 77955
L62992 78742
" />
</g>
<g style="fill:#000000; fill-opacity:0.0; 
stroke:#000000; stroke-width:39.3701; stroke-opacity:1; 
stroke-linecap:round; stroke-linejoin:round;">
</g>
<g style="fill:#000000; fill-opacity:0.0; 
stroke:#000000; stroke-width:59.0551; stroke-opacity:1; 
stroke-linecap:round; stroke-linejoin:round;">
<path d="M82677 77955
L82677 78742
" />
</g>
<g style="fill:#000000; fill-opacity:0.0; 
stroke:#000000; stroke-width:39.3701; stroke-opacity:1; 
stroke-linecap:round; stroke-linejoin:round;">
</g>
<g style="fill:#000000; fill-opacity:0.0; 
stroke:#000000; stroke-width:59.0551; stroke-opacity:1; 
stroke-linecap:round; stroke-linejoin:round;">
<path d="M102362 77955
L102362 78742
" />
</g>
<g style="fill:#000000; fill-opacity:0.0; 
stroke:#000000; stroke-width:39.3701; stroke-opacity:1; 
stroke-linecap:round; stroke-linejoin:round;">
</g>
<g style="fill:#000000; fill-opacity:0.0; 
stroke:#000000; stroke-width:59.0551; stroke-opacity:1; 
stroke-linecap:round; stroke-linejoin:round;">
<path d="M14199 78580
L13906 78580
" />
<path d="M14052 78580
L14052 78069
L14004 78142
L13955 78190
L13906 78215
" />
</g>
<g style="fill:#000000; fill-opacity:0.0; 
stroke:#000000; stroke-width:39.3701; stroke-opacity:1; 
stroke-linecap:round; stroke-linejoin:round;">
</g>
<g style="fill:#000000; fill-opacity:0.0; 
stroke:#000000; stroke-width:59.0551; stroke-opacity:1; 
stroke-linecap:round; stroke-linejoin:round;">
<path d="M33591 78117
L33615 78093
L33664 78069
L33786 78069
L33835 78093
L33859 78117
L33884 78166
L33884 78215
L33859 78288
L33567 78580
L33884 78580
" />
</g>
<g style="fill:#000000; fill-opacity:0.0; 
stroke:#000000; stroke-width:39.3701; stroke-opacity:1; 
stroke-linecap:round; stroke-linejoin:round;">
</g>
<g style="fill:#000000; fill-opacity:0.0; 
stroke:#000000; stroke-width:59.0551; stroke-opacity:1; 
stroke-linecap:round; stroke-linejoin:round;">
<path d="M53252 78069
L53569 78069
L53398 78263
L53471 78263
L53520 78288
L53544 78312
L53569 78361
L53569 78483
L53544 78532
L53520 78556
L53471 78580
L53325 78580
L53276 78556
L53252 78532
" />
</g>
<g style="fill:#000000; fill-opacity:0.0; 
stroke:#000000; stroke-width:39.3701; stroke-opacity:1; 
stroke-linecap:round; stroke-linejoin:round;">
</g>
<g style="fill:#000000; fill-opacity:0.0; 
stroke:#000000; stroke-width:59.0551; stroke-opacity:1; 
stroke-linecap:round; stroke-linejoin:round;">
<path d="M73205 78239
L73205 78580
" />
<path d="M73083 78044
L72961 78410
L73278 78410
" />
</g>
<g style="fill:#000000; fill-opacity:0.0; 
stroke:#000000; stroke-width:39.3701; stroke-opacity:1; 
stroke-linecap:round; stroke-linejoin:round;">
</g>
<g style="fill:#000000; fill-opacity:0.0; 
stroke:#000000; stroke-width:59.0551; stroke-opacity:1; 
stroke-linecap:round; stroke-linejoin:round;">
<path d="M92914 78069
L92671 78069
L92646 78312
L92671 78288
L92719 78263
L92841 78263
L92890 78288
L92914 78312
L92939 78361
L92939 78483
L92914 78532
L92890 78556
L92841 78580
L92719 78580
L92671 78556
L92646 78532
" />
</g>
<g style="fill:#000000; fill-opacity:0.0; 
stroke:#000000; stroke-width:39.3701; stroke-opacity:1; 
stroke-linecap:round; stroke-linejoin:round;">
</g>
<g style="fill:#000000; fill-opacity:0.0; 
stroke:#000000; stroke-width:59.0551; stroke-opacity:1; 
stroke-linecap:round; stroke-linejoin:round;">
<path d="M112575 78069
L112477 78069
L112429 78093
L112404 78117
L112356 78190
L112331 78288
L112331 78483
L112356 78532
L112380 78556
L112429 78580
L112526 78580
L112575 78556
L112599 78532
L112624 78483
L112624 78361
L112599 78312
L112575 78288
L112526 78263
L112429 78263
L112380 78288
L112356 78312
L112331 78361
" />
</g>
<g style="fill:#000000; fill-opacity:0.0; 
stroke:#000000; stroke-width:39.3701; stroke-opacity:1; 
stroke-linecap:round; stroke-linejoin:round;">
</g>
<g style="fill:#000000; fill-opacity:0.0; 
stroke:#000000; stroke-width:59.0551; stroke-opacity:1; 
stroke-linecap:round; stroke-linejoin:round;">
<path d="M3937 23622
L4724 23622
" />
</g>
<g style="fill:#000000; fill-opacity:0.0; 
stroke:#000000; stroke-width:39.3701; stroke-opacity:1; 
stroke-linecap:round; stroke-linejoin:round;">
</g>
<g style="fill:#000000; fill-opacity:0.0; 
stroke:#000000; stroke-width:59.0551; stroke-opacity:1; 
stroke-linecap:round; stroke-linejoin:round;">
<path d="M3937 43307
L4724 43307
" />
</g>
<g style="fill:#000000; fill-opacity:0.0; 
stroke:#000000; stroke-width:39.3701; stroke-opacity:1; 
stroke-linecap:round; stroke-linejoin:round;">
</g>
<g style="fill:#000000; fill-opacity:0.0; 
stroke:#000000; stroke-width:59.0551; stroke-opacity:1; 
stroke-linecap:round; stroke-linejoin:round;">
<path d="M3937 62992
L4724 62992
" />
</g>
<g style="fill:#000000; fill-opacity:0.0; 
stroke:#000000; stroke-width:39.3701; stroke-opacity:1; 
stroke-linecap:round; stroke-linejoin:round;">
</g>
<g style="fill:#000000; fill-opacity:0.0; 
stroke:#000000; stroke-width:59.0551; stroke-opacity:1; 
stroke-linecap:round; stroke-linejoin:round;">
<path d="M4208 13864
L4452 13864
" />
<path d="M4160 14011
L4330 13499
L4501 14011
" />
</g>
<g style="fill:#000000; fill-opacity:0.0; 
stroke:#000000; stroke-width:39.3701; stroke-opacity:1; 
stroke-linecap:round; stroke-linejoin:round;">
</g>
<g style="fill:#000000; fill-opacity:0.0; 
stroke:#000000; stroke-width:59.0551; stroke-opacity:1; 
stroke-linecap:round; stroke-linejoin:round;">
<path d="M4367 33428
L4440 33452
L4464 33476
L4489 33525
L4489 33598
L4464 33647
L4440 33671
L4391 33696
L4196 33696
L4196 33184
L4367 33184
L4416 33208
L4440 33233
L4464 33281
L4464 33330
L4440 33379
L4416 33403
L4367 33428
L4196 33428
" />
</g>
<g style="fill:#000000; fill-opacity:0.0; 
stroke:#000000; stroke-width:39.3701; stroke-opacity:1; 
stroke-linecap:round; stroke-linejoin:round;">
</g>
<g style="fill:#000000; fill-opacity:0.0; 
stroke:#000000; stroke-width:59.0551; stroke-opacity:1; 
stroke-linecap:round; stroke-linejoin:round;">
<path d="M4489 53332
L4464 53356
L4391 53381
L4342 53381
L4269 53356
L4221 53308
L4196 53259
L4172 53161
L4172 53088
L4196 52991
L4221 52942
L4269 52893
L4342 52869
L4391 52869
L4464 52893
L4489 52918
" />
</g>
<g style="fill:#000000; fill-opacity:0.0; 
stroke:#000000; stroke-width:39.3701; stroke-opacity:1; 
stroke-linecap:round; stroke-linejoin:round;">
</g>
<g style="fill:#000000; fill-opacity:0.0; 
stroke:#000000; stroke-width:59.0551; stroke-opacity:1; 
stroke-linecap:round; stroke-linejoin:round;">
<path d="M4196 73066
L4196 72554
L4318 72554
L4391 72578
L4440 72627
L4464 72676
L4489 72773
L4489 72846
L4464 72944
L4440 72993
L4391 73041
L4318 73066
L4196 73066
" />
</g>
<g style="fill:#000000; fill-opacity:0.0; 
stroke:#000000; stroke-width:39.3701; stroke-opacity:1; 
stroke-linecap:round; stroke-linejoin:round;">
</g>
<g style="fill:#000000; fill-opacity:0.0; 
stroke:#000000; stroke-width:59.0551; stroke-opacity:1; 
stroke-linecap:round; stroke-linejoin:round;">
<path d="M112992 23622
L112205 23622
" />
</g>
<g style="fill:#000000; fill-opacity:0.0; 
stroke:#000000; stroke-width:39.3701; stroke-opacity:1; 
stroke-linecap:round; stroke-linejoin:round;">
</g>
<g style="fill:#000000; fill-opacity:0.0; 
stroke:#000000; stroke-width:59.0551; stroke-opacity:1; 
stroke-linecap:round; stroke-linejoin:round;">
<path d="M112992 43307
L112205 43307
" />
</g>
<g style="fill:#000000; fill-opacity:0.0; 
stroke:#000000; stroke-width:39.3701; stroke-opacity:1; 
stroke-linecap:round; stroke-linejoin:round;">
</g>
<g style="fill:#000000; fill-opacity:0.0; 
stroke:#000000; stroke-width:59.0551; stroke-opacity:1; 
stroke-linecap:round; stroke-linejoin:round;">
<path d="M112992 62992
L112205 62992
" />
</g>
<g style="fill:#000000; fill-opacity:0.0; 
stroke:#000000; stroke-width:39.3701; stroke-opacity:1; 
stroke-linecap:round; stroke-linejoin:round;">
</g>
<g style="fill:#000000; fill-opacity:0.0; 
stroke:#000000; stroke-width:59.0551; stroke-opacity:1; 
stroke-linecap:round; stroke-linejoin:round;">
<path d="M112477 13864
L112721 13864
" />
<path d="M112428 14011
L112599 13499
L112769 14011
" />
</g>
<g style="fill:#000000; fill-opacity:0.0; 
stroke:#000000; stroke-width:39.3701; stroke-opacity:1; 
stroke-linecap:round; stroke-linejoin:round;">
</g>
<g style="fill:#000000; fill-opacity:0.0; 
stroke:#000000; stroke-width:59.0551; stroke-opacity:1; 
stroke-linecap:round; stroke-linejoin:round;">
<path d="M112635 33428
L112708 33452
L112733 33476
L112757 33525
L112757 33598
L112733 33647
L112708 33671
L112660 33696
L112465 33696
L112465 33184
L112635 33184
L112684 33208
L112708 33233
L112733 33281
L112733 33330
L112708 33379
L112684 33403
L112635 33428
L112465 33428
" />
</g>
<g style="fill:#000000; fill-opacity:0.0; 
stroke:#000000; stroke-width:39.3701; stroke-opacity:1; 
stroke-linecap:round; stroke-linejoin:round;">
</g>
<g style="fill:#000000; fill-opacity:0.0; 
stroke:#000000; stroke-width:59.0551; stroke-opacity:1; 
stroke-linecap:round; stroke-linejoin:round;">
<path d="M112757 53332
L112733 53356
L112660 53381
L112611 53381
L112538 53356
L112489 53308
L112465 53259
L112440 53161
L112440 53088
L112465 52991
L112489 52942
L112538 52893
L112611 52869
L112660 52869
L112733 52893
L112757 52918
" />
</g>
<g style="fill:#000000; fill-opacity:0.0; 
stroke:#000000; stroke-width:39.3701; stroke-opacity:1; 
stroke-linecap:round; stroke-linejoin:round;">
</g>
<g style="fill:#000000; fill-opacity:0.0; 
stroke:#000000; stroke-width:59.0551; stroke-opacity:1; 
stroke-linecap:round; stroke-linejoin:round;">
<path d="M112465 73066
L112465 72554
L112587 72554
L112660 72578
L112708 72627
L112733 72676
L112757 72773
L112757 72846
L112733 72944
L112708 72993
L112660 73041
L112587 73066
L112465 73066
" />
</g>
<g style="fill:#000000; fill-opacity:0.0; 
stroke:#000000; stroke-width:39.3701; stroke-opacity:1; 
stroke-linecap:round; stroke-linejoin:round;">
</g>
<g style="fill:#000000; fill-opacity:0.0; 
stroke:#000000; stroke-width:59.0551; stroke-opacity:1; 
stroke-linecap:round; stroke-linejoin:round;">
<path d="M78911 76293
L78911 75703
L79051 75703
L79136 75731
L79192 75787
L79220 75843
L79248 75956
L79248 76040
L79220 76153
L79192 76209
L79136 76265
L79051 76293
L78911 76293
" />
<path d="M79754 76293
L79754 75984
L79726 75928
L79670 75899
L79557 75899
L79501 75928
" />
<path d="M79754 76265
L79698 76293
L79557 76293
L79501 76265
L79473 76209
L79473 76153
L79501 76096
L79557 76068
L79698 76068
L79754 76040
" />
<path d="M79951 75899
L80176 75899
" />
<path d="M80036 75703
L80036 76209
L80064 76265
L80120 76293
L80176 76293
" />
<path d="M80598 76265
L80542 76293
L80429 76293
L80373 76265
L80345 76209
L80345 75984
L80373 75928
L80429 75899
L80542 75899
L80598 75928
L80626 75984
L80626 76040
L80345 76096
" />
<path d="M80879 76237
L80907 76265
L80879 76293
L80851 76265
L80879 76237
L80879 76293
" />
<path d="M80879 75928
L80907 75956
L80879 75984
L80851 75956
L80879 75928
L80879 75984
" />
</g>
<g style="fill:#000000; fill-opacity:0.0; 
stroke:#000000; stroke-width:39.3701; stroke-opacity:1; 
stroke-linecap:round; stroke-linejoin:round;">
</g>
<g style="fill:#000000; fill-opacity:0.0; 
stroke:#000000; stroke-width:59.0551; stroke-opacity:1; 
stroke-linecap:round; stroke-linejoin:round;">
<path d="M69685 76577
L112205 76577
" />
</g>
<g style="fill:#000000; fill-opacity:0.0; 
stroke:#000000; stroke-width:39.3701; stroke-opacity:1; 
stroke-linecap:round; stroke-linejoin:round;">
</g>
<g style="fill:#000000; fill-opacity:0.0; 
stroke:#000000; stroke-width:59.0551; stroke-opacity:1; 
stroke-linecap:round; stroke-linejoin:round;">
<path d="M70249 77395
L70249 76805
" />
<path d="M70587 77395
L70334 77058
" />
<path d="M70587 76805
L70249 77142
" />
<path d="M70840 77395
L70840 77002
" />
<path d="M70840 76805
L70812 76833
L70840 76861
L70868 76833
L70840 76805
L70840 76861
" />
<path d="M71458 77339
L71430 77367
L71346 77395
L71290 77395
L71205 77367
L71149 77311
L71121 77255
L71093 77142
L71093 77058
L71121 76946
L71149 76889
L71205 76833
L71290 76805
L71346 76805
L71430 76833
L71458 76861
" />
<path d="M71965 77395
L71965 77086
L71937 77030
L71880 77002
L71768 77002
L71712 77030
" />
<path d="M71965 77367
L71908 77395
L71768 77395
L71712 77367
L71683 77311
L71683 77255
L71712 77199
L71768 77171
L71908 77171
L71965 77142
" />
<path d="M72499 77395
L72499 76805
" />
<path d="M72499 77367
L72443 77395
L72330 77395
L72274 77367
L72246 77339
L72218 77283
L72218 77114
L72246 77058
L72274 77030
L72330 77002
L72443 77002
L72499 77030
" />
<path d="M73230 77086
L73427 77086
" />
<path d="M73511 77395
L73230 77395
L73230 76805
L73511 76805
" />
<path d="M73764 77339
L73793 77367
L73764 77395
L73736 77367
L73764 77339
L73764 77395
" />
<path d="M74046 77395
L74046 76805
L74186 76805
L74271 76833
L74327 76889
L74355 76946
L74383 77058
L74383 77142
L74355 77255
L74327 77311
L74271 77367
L74186 77395
L74046 77395
" />
<path d="M74636 77339
L74664 77367
L74636 77395
L74608 77367
L74636 77339
L74636 77395
" />
<path d="M74889 77227
L75171 77227
" />
<path d="M74833 77395
L75030 76805
L75227 77395
" />
<path d="M75424 77339
L75452 77367
L75424 77395
L75395 77367
L75424 77339
L75424 77395
" />
<path d="M76605 77395
L76605 76805
" />
<path d="M76661 77171
L76830 77395
" />
<path d="M76830 77002
L76605 77227
" />
<path d="M77083 77395
L77083 77002
" />
<path d="M77083 76805
L77055 76833
L77083 76861
L77111 76833
L77083 76805
L77083 76861
" />
<path d="M77617 77367
L77561 77395
L77448 77395
L77392 77367
L77364 77339
L77336 77283
L77336 77114
L77364 77058
L77392 77030
L77448 77002
L77561 77002
L77617 77030
" />
<path d="M78123 77395
L78123 77086
L78095 77030
L78039 77002
L77926 77002
L77870 77030
" />
<path d="M78123 77367
L78067 77395
L77926 77395
L77870 77367
L77842 77311
L77842 77255
L77870 77199
L77926 77171
L78067 77171
L78123 77142
" />
<path d="M78658 77395
L78658 76805
" />
<path d="M78658 77367
L78601 77395
L78489 77395
L78433 77367
L78404 77339
L78376 77283
L78376 77114
L78404 77058
L78433 77030
L78489 77002
L78601 77002
L78658 77030
" />
<path d="M79557 77620
L79529 77592
L79473 77508
L79445 77452
L79417 77367
L79389 77227
L79389 77114
L79417 76974
L79445 76889
L79473 76833
L79529 76749
L79557 76721
" />
<path d="M80064 76805
L79782 76805
L79754 77086
L79782 77058
L79839 77030
L79979 77030
L80036 77058
L80064 77086
L80092 77142
L80092 77283
L80064 77339
L80036 77367
L79979 77395
L79839 77395
L79782 77367
L79754 77339
" />
<path d="M80345 77339
L80373 77367
L80345 77395
L80317 77367
L80345 77339
L80345 77395
" />
<path d="M80935 77395
L80598 77395
" />
<path d="M80767 77395
L80767 76805
L80710 76889
L80654 76946
L80598 76974
" />
<path d="M81188 77339
L81217 77367
L81188 77395
L81160 77367
L81188 77339
L81188 77395
" />
<path d="M81442 76861
L81470 76833
L81526 76805
L81667 76805
L81723 76833
L81751 76861
L81779 76917
L81779 76974
L81751 77058
L81413 77395
L81779 77395
" />
<path d="M81976 77620
L82004 77592
L82060 77508
L82088 77452
L82117 77367
L82145 77227
L82145 77114
L82117 76974
L82088 76889
L82060 76833
L82004 76749
L81976 76721
" />
<path d="M82426 77171
L82876 77171
" />
<path d="M83466 77395
L83129 77395
" />
<path d="M83298 77395
L83298 76805
L83241 76889
L83185 76946
L83129 76974
" />
</g>
<g style="fill:#000000; fill-opacity:0.0; 
stroke:#000000; stroke-width:39.3701; stroke-opacity:1; 
stroke-linecap:round; stroke-linejoin:round;">
</g>
<g style="fill:#000000; fill-opacity:0.0; 
stroke:#000000; stroke-width:59.0551; stroke-opacity:1; 
stroke-linecap:round; stroke-linejoin:round;">
<path d="M69685 75396
L112205 75396
" />
</g>
<g style="fill:#000000; fill-opacity:0.0; 
stroke:#000000; stroke-width:39.3701; stroke-opacity:1; 
stroke-linecap:round; stroke-linejoin:round;">
</g>
<g style="fill:#000000; fill-opacity:0.0; 
stroke:#000000; stroke-width:118.11; stroke-opacity:1; 
stroke-linecap:round; stroke-linejoin:round;">
<path d="M104099 76293
L103902 76012
" />
<path d="M103761 76293
L103761 75703
L103986 75703
L104042 75731
L104070 75759
L104099 75815
L104099 75899
L104070 75956
L104042 75984
L103986 76012
L103761 76012
" />
<path d="M104577 76265
L104520 76293
L104408 76293
L104352 76265
L104323 76209
L104323 75984
L104352 75928
L104408 75899
L104520 75899
L104577 75928
L104605 75984
L104605 76040
L104323 76096
" />
<path d="M104802 75899
L104942 76293
L105083 75899
" />
<path d="M105308 76237
L105336 76265
L105308 76293
L105280 76265
L105308 76237
L105308 76293
" />
<path d="M105308 75928
L105336 75956
L105308 75984
L105280 75956
L105308 75928
L105308 75984
" />
</g>
<g style="fill:#000000; fill-opacity:0.0; 
stroke:#000000; stroke-width:39.3701; stroke-opacity:1; 
stroke-linecap:round; stroke-linejoin:round;">
</g>
<g style="fill:#000000; fill-opacity:0.0; 
stroke:#000000; stroke-width:59.0551; stroke-opacity:1; 
stroke-linecap:round; stroke-linejoin:round;">
<path d="M70221 76265
L70305 76293
L70446 76293
L70502 76265
L70530 76237
L70559 76181
L70559 76124
L70530 76068
L70502 76040
L70446 76012
L70334 75984
L70277 75956
L70249 75928
L70221 75871
L70221 75815
L70249 75759
L70277 75731
L70334 75703
L70474 75703
L70559 75731
" />
<path d="M70812 76293
L70812 75899
" />
<path d="M70812 75703
L70784 75731
L70812 75759
L70840 75731
L70812 75703
L70812 75759
" />
<path d="M71037 75899
L71346 75899
L71037 76293
L71346 76293
" />
<path d="M71796 76265
L71740 76293
L71627 76293
L71571 76265
L71543 76209
L71543 75984
L71571 75928
L71627 75899
L71740 75899
L71796 75928
L71824 75984
L71824 76040
L71543 76096
" />
<path d="M72077 76237
L72105 76265
L72077 76293
L72049 76265
L72077 76237
L72077 76293
" />
<path d="M72077 75928
L72105 75956
L72077 75984
L72049 75956
L72077 75928
L72077 75984
" />
<path d="M72780 76124
L73061 76124
" />
<path d="M72724 76293
L72921 75703
L73118 76293
" />
<path d="M73568 75899
L73568 76293
" />
<path d="M73427 75674
L73286 76096
L73652 76096
" />
</g>
<g style="fill:#000000; fill-opacity:0.0; 
stroke:#000000; stroke-width:39.3701; stroke-opacity:1; 
stroke-linecap:round; stroke-linejoin:round;">
</g>
<g style="fill:#000000; fill-opacity:0.0; 
stroke:#000000; stroke-width:59.0551; stroke-opacity:1; 
stroke-linecap:round; stroke-linejoin:round;">
<path d="M103714 77395
L103714 76805
" />
<path d="M104248 77395
L104248 76805
" />
<path d="M104248 77367
L104192 77395
L104079 77395
L104023 77367
L103995 77339
L103967 77283
L103967 77114
L103995 77058
L104023 77030
L104079 77002
L104192 77002
L104248 77030
" />
<path d="M104529 77339
L104557 77367
L104529 77395
L104501 77367
L104529 77339
L104529 77395
" />
<path d="M104529 77030
L104557 77058
L104529 77086
L104501 77058
L104529 77030
L104529 77086
" />
<path d="M105570 77395
L105232 77395
" />
<path d="M105401 77395
L105401 76805
L105345 76889
L105289 76946
L105232 76974
" />
<path d="M106245 76777
L105739 77536
" />
<path d="M106751 77395
L106413 77395
" />
<path d="M106582 77395
L106582 76805
L106526 76889
L106470 76946
L106413 76974
" />
</g>
<g style="fill:#000000; fill-opacity:0.0; 
stroke:#000000; stroke-width:39.3701; stroke-opacity:1; 
stroke-linecap:round; stroke-linejoin:round;">
</g>
<g style="fill:#000000; fill-opacity:0.0; 
stroke:#000000; stroke-width:59.0551; stroke-opacity:1; 
stroke-linecap:round; stroke-linejoin:round;">
<path d="M69685 73821
L112205 73821
" />
</g>
<g style="fill:#000000; fill-opacity:0.0; 
stroke:#000000; stroke-width:39.3701; stroke-opacity:1; 
stroke-linecap:round; stroke-linejoin:round;">
</g>
<g style="fill:#000000; fill-opacity:0.0; 
stroke:#000000; stroke-width:157.48; stroke-opacity:1; 
stroke-linecap:round; stroke-linejoin:round;">
<path d="M70360 74099
L70810 74099
" />
<path d="M70486 74886
L70585 74099
" />
<path d="M70974 74886
L71039 74361
" />
<path d="M71072 74099
L71030 74136
L71063 74174
L71105 74136
L71072 74099
L71063 74174
" />
<path d="M71302 74361
L71602 74361
" />
<path d="M71447 74099
L71363 74774
L71391 74849
L71461 74886
L71536 74886
" />
<path d="M71911 74886
L71841 74849
L71813 74774
L71897 74099
" />
<path d="M72516 74849
L72436 74886
L72286 74886
L72216 74849
L72187 74774
L72225 74474
L72272 74399
L72352 74361
L72501 74361
L72572 74399
L72600 74474
L72591 74549
L72206 74624
" />
<path d="M72895 74811
L72928 74849
L72886 74886
L72853 74849
L72895 74811
L72886 74886
" />
<path d="M72947 74399
L72980 74436
L72937 74474
L72905 74436
L72947 74399
L72937 74474
" />
</g>
<g style="fill:#000000; fill-opacity:0.0; 
stroke:#000000; stroke-width:39.3701; stroke-opacity:1; 
stroke-linecap:round; stroke-linejoin:round;">
</g>
<g style="fill:#000000; fill-opacity:0.0; 
stroke:#000000; stroke-width:59.0551; stroke-opacity:1; 
stroke-linecap:round; stroke-linejoin:round;">
<path d="M70446 73070
L70249 73070
" />
<path d="M70249 73380
L70249 72789
L70530 72789
" />
<path d="M70755 73380
L70755 72986
" />
<path d="M70755 72789
L70727 72817
L70755 72845
L70784 72817
L70755 72789
L70755 72845
" />
<path d="M71121 73380
L71065 73352
L71037 73295
L71037 72789
" />
<path d="M71571 73352
L71515 73380
L71402 73380
L71346 73352
L71318 73295
L71318 73070
L71346 73014
L71402 72986
L71515 72986
L71571 73014
L71599 73070
L71599 73127
L71318 73183
" />
<path d="M71852 73323
L71880 73352
L71852 73380
L71824 73352
L71852 73323
L71852 73380
" />
<path d="M71852 73014
L71880 73042
L71852 73070
L71824 73042
L71852 73014
L71852 73070
" />
<path d="M72555 73211
L72836 73211
" />
<path d="M72499 73380
L72696 72789
L72893 73380
" />
<path d="M73090 72986
L73090 73380
" />
<path d="M73090 73042
L73118 73014
L73174 72986
L73258 72986
L73314 73014
L73343 73070
L73343 73380
" />
<path d="M73539 72986
L73764 72986
" />
<path d="M73624 72789
L73624 73295
L73652 73352
L73708 73380
L73764 73380
" />
<path d="M73961 73380
L73961 72986
" />
<path d="M73961 72789
L73933 72817
L73961 72845
L73989 72817
L73961 72789
L73961 72845
" />
<path d="M74242 73155
L74692 73155
" />
<path d="M74946 73352
L75030 73380
L75171 73380
L75227 73352
L75255 73323
L75283 73267
L75283 73211
L75255 73155
L75227 73127
L75171 73099
L75058 73070
L75002 73042
L74974 73014
L74946 72958
L74946 72902
L74974 72845
L75002 72817
L75058 72789
L75199 72789
L75283 72817
" />
<path d="M75536 72986
L75536 73577
" />
<path d="M75536 73014
L75592 72986
L75705 72986
L75761 73014
L75789 73042
L75817 73099
L75817 73267
L75789 73323
L75761 73352
L75705 73380
L75592 73380
L75536 73352
" />
<path d="M76323 73380
L76323 73070
L76295 73014
L76239 72986
L76127 72986
L76070 73014
" />
<path d="M76323 73352
L76267 73380
L76127 73380
L76070 73352
L76042 73295
L76042 73239
L76070 73183
L76127 73155
L76267 73155
L76323 73127
" />
<path d="M76605 73380
L76605 72986
" />
<path d="M76605 73099
L76633 73042
L76661 73014
L76717 72986
L76773 72986
" />
<path d="M76970 73380
L76970 72789
" />
<path d="M77027 73155
L77195 73380
" />
<path d="M77195 72986
L76970 73211
" />
<path d="M77448 73323
L77476 73352
L77448 73380
L77420 73352
L77448 73323
L77448 73380
" />
<path d="M77730 73380
L77730 72789
" />
<path d="M77786 73155
L77955 73380
" />
<path d="M77955 72986
L77730 73211
" />
<path d="M78208 73380
L78208 72986
" />
<path d="M78208 72789
L78180 72817
L78208 72845
L78236 72817
L78208 72789
L78208 72845
" />
<path d="M78742 73352
L78686 73380
L78573 73380
L78517 73352
L78489 73323
L78461 73267
L78461 73099
L78489 73042
L78517 73014
L78573 72986
L78686 72986
L78742 73014
" />
<path d="M79248 73380
L79248 73070
L79220 73014
L79164 72986
L79051 72986
L78995 73014
" />
<path d="M79248 73352
L79192 73380
L79051 73380
L78995 73352
L78967 73295
L78967 73239
L78995 73183
L79051 73155
L79192 73155
L79248 73127
" />
<path d="M79782 73380
L79782 72789
" />
<path d="M79782 73352
L79726 73380
L79614 73380
L79557 73352
L79529 73323
L79501 73267
L79501 73099
L79529 73042
L79557 73014
L79614 72986
L79726 72986
L79782 73014
" />
<path d="M79923 73436
L80373 73436
" />
<path d="M80514 72986
L80514 73577
" />
<path d="M80514 73014
L80570 72986
L80682 72986
L80739 73014
L80767 73042
L80795 73099
L80795 73267
L80767 73323
L80739 73352
L80682 73380
L80570 73380
L80514 73352
" />
<path d="M81301 73352
L81245 73380
L81132 73380
L81076 73352
L81048 73323
L81020 73267
L81020 73099
L81048 73042
L81076 73014
L81132 72986
L81245 72986
L81301 73014
" />
<path d="M81554 73380
L81554 72789
" />
<path d="M81554 73014
L81610 72986
L81723 72986
L81779 73014
L81807 73042
L81835 73099
L81835 73267
L81807 73323
L81779 73352
L81723 73380
L81610 73380
L81554 73352
" />
</g>
<g style="fill:#000000; fill-opacity:0.0; 
stroke:#000000; stroke-width:39.3701; stroke-opacity:1; 
stroke-linecap:round; stroke-linejoin:round;">
</g>
<g style="fill:#000000; fill-opacity:0.0; 
stroke:#000000; stroke-width:59.0551; stroke-opacity:1; 
stroke-linecap:round; stroke-linejoin:round;">
<path d="M69685 71459
L112205 71459
" />
</g>
<g style="fill:#000000; fill-opacity:0.0; 
stroke:#000000; stroke-width:39.3701; stroke-opacity:1; 
stroke-linecap:round; stroke-linejoin:round;">
</g>
<g style="fill:#000000; fill-opacity:0.0; 
stroke:#000000; stroke-width:59.0551; stroke-opacity:1; 
stroke-linecap:round; stroke-linejoin:round;">
<path d="M70221 72289
L70305 72317
L70446 72317
L70502 72289
L70530 72260
L70559 72204
L70559 72148
L70530 72092
L70502 72064
L70446 72036
L70334 72007
L70277 71979
L70249 71951
L70221 71895
L70221 71839
L70249 71782
L70277 71754
L70334 71726
L70474 71726
L70559 71754
" />
<path d="M70812 72317
L70812 71726
" />
<path d="M71065 72317
L71065 72007
L71037 71951
L70980 71923
L70896 71923
L70840 71951
L70812 71979
" />
<path d="M71571 72289
L71515 72317
L71402 72317
L71346 72289
L71318 72232
L71318 72007
L71346 71951
L71402 71923
L71515 71923
L71571 71951
L71599 72007
L71599 72064
L71318 72120
" />
<path d="M72077 72289
L72021 72317
L71908 72317
L71852 72289
L71824 72232
L71824 72007
L71852 71951
L71908 71923
L72021 71923
L72077 71951
L72105 72007
L72105 72064
L71824 72120
" />
<path d="M72274 71923
L72499 71923
" />
<path d="M72358 71726
L72358 72232
L72386 72289
L72443 72317
L72499 72317
" />
<path d="M72696 72260
L72724 72289
L72696 72317
L72668 72289
L72696 72260
L72696 72317
" />
<path d="M72696 71951
L72724 71979
L72696 72007
L72668 71979
L72696 71951
L72696 72007
" />
</g>
<g style="fill:#000000; fill-opacity:0.0; 
stroke:#000000; stroke-width:39.3701; stroke-opacity:1; 
stroke-linecap:round; stroke-linejoin:round;">
</g>
<g style="fill:#000000; fill-opacity:0.0; 
stroke:#000000; stroke-width:59.0551; stroke-opacity:1; 
stroke-linecap:round; stroke-linejoin:round;">
<path d="M77559 75396
L77559 76577
" />
</g>
<g style="fill:#000000; fill-opacity:0.0; 
stroke:#000000; stroke-width:39.3701; stroke-opacity:1; 
stroke-linecap:round; stroke-linejoin:round;">
</g>
<g style="fill:#000000; fill-opacity:0.0; 
stroke:#000000; stroke-width:59.0551; stroke-opacity:1; 
stroke-linecap:round; stroke-linejoin:round;">
<path d="M102756 75396
L102756 77955
" />
</g>
<g style="fill:#840084; fill-opacity:0.0; 
stroke:#840084; stroke-width:59.0551; stroke-opacity:1; 
stroke-linecap:round; stroke-linejoin:round;">
</g>
<g style="fill:#840084; fill-opacity:0.0; 
stroke:#840084; stroke-width:39.3701; stroke-opacity:1; 
stroke-linecap:round; stroke-linejoin:round;">
</g>
<g style="fill:#840084; fill-opacity:1.0; 
stroke:#840084; stroke-width:39.3701; stroke-opacity:1; 
stroke-linecap:round; stroke-linejoin:round;">
<path style="fill:#840084; fill-opacity:1.0; 
stroke:#840084; stroke-width:39.3701; stroke-opacity:1; 
stroke-linecap:round; stroke-linejoin:round;fill-rule:evenodd;"
d="M 34173,22992
28818,22992
28818,14330
34173,14330
Z" /> 
</g>
<g style="fill:#840084; fill-opacity:1.0; 
stroke:#840084; stroke-width:0; stroke-opacity:1; 
stroke-linecap:round; stroke-linejoin:round;">
<path style="fill:#840084; fill-opacity:1.0; 
stroke:#840084; stroke-width:0; stroke-opacity:1; 
stroke-linecap:round; stroke-linejoin:round;fill-rule:evenodd;"
d="M 57834,29409
28818,29409
28818,24803
57834,24803
Z" /> 
<path style="fill:#840084; fill-opacity:1.0; 
stroke:#840084; stroke-width:0; stroke-opacity:1; 
stroke-linecap:round; stroke-linejoin:round;fill-rule:evenodd;"
d="M 57834,24330
52637,24330
52637,22874
53307,22874
53307,22322
52637,22322
52637,20866
53307,20866
53307,20314
52637,20314
52637,18858
53307,18858
53307,18307
52637,18307
52637,16850
53307,16850
53307,16299
52637,16299
52637,14842
53307,14842
53307,14330
57834,14330
Z" /> 
<path style="fill:#840084; fill-opacity:1.0; 
stroke:#840084; stroke-width:0; stroke-opacity:1; 
stroke-linecap:round; stroke-linejoin:round;fill-rule:evenodd;"
d="M 52401,24291
46456,24291
46456,19488
40826,19488
40826,14330
52401,14330
Z" /> 
<path style="fill:#840084; fill-opacity:1.0; 
stroke:#840084; stroke-width:0; stroke-opacity:1; 
stroke-linecap:round; stroke-linejoin:round;fill-rule:evenodd;"
d="M 56825,29758
56825,29758
56825,29758
57079,29863
57308,30016
57503,30211
57656,30440
57656,30440
57761,30694
57815,30964
57815,31240
57761,31510
57761,31510
57656,31764
57503,31993
57308,32188
57079,32341
56899,32415
56825,32446
56555,32500
56279,32500
56009,32446
55935,32415
55755,32341
55526,32188
55331,31993
55178,31764
55073,31510
55073,31510
55019,31240
55019,30964
55073,30694
55178,30440
55178,30440
55331,30211
55526,30016
55755,29863
56009,29758
56009,29758
56009,29758
56279,29704
56555,29704
56825,29758
Z" /> 
<path style="fill:#840084; fill-opacity:1.0; 
stroke:#840084; stroke-width:0; stroke-opacity:1; 
stroke-linecap:round; stroke-linejoin:round;fill-rule:evenodd;"
d="M 30644,29758
30644,29758
30644,29758
30898,29863
31127,30016
31322,30211
31475,30440
31475,30440
31580,30694
31634,30964
31634,31240
31580,31510
31580,31510
31475,31764
31322,31993
31127,32188
30898,32341
30718,32415
30644,32446
30373,32500
30098,32500
29828,32446
29753,32415
29574,32341
29345,32188
29150,31993
28997,31764
28891,31510
28891,31510
28838,31240
28838,30964
28891,30694
28997,30440
28997,30440
29150,30211
29345,30016
29574,29863
29828,29758
29828,29758
29828,29758
30098,29704
30373,29704
30644,29758
Z" /> 
<path style="fill:#840084; fill-opacity:1.0; 
stroke:#840084; stroke-width:0; stroke-opacity:1; 
stroke-linecap:round; stroke-linejoin:round;fill-rule:evenodd;"
d="M 43819,24409
43188,24409
43188,23385
43819,23385
43819,24409
Z" /> 
<path style="fill:#840084; fill-opacity:1.0; 
stroke:#840084; stroke-width:0; stroke-opacity:1; 
stroke-linecap:round; stroke-linejoin:round;fill-rule:evenodd;"
d="M 52392,24291
50462,24291
50462,23916
50826,23916
50835,23915
50845,23913
50853,23908
50861,23902
50867,23895
50871,23886
50874,23877
50875,23867
50875,23833
50874,23823
50871,23814
50867,23805
50861,23798
50853,23792
50845,23787
50835,23784
50826,23783
50462,23783
50462,23409
50826,23409
50835,23408
50845,23405
50853,23400
50861,23394
50867,23387
50871,23378
50874,23369
50875,23359
50875,23333
50874,23323
50871,23314
50867,23305
50861,23298
50853,23292
50845,23287
50835,23284
50826,23283
50462,23283
50462,22909
50826,22909
50835,22908
50845,22905
50853,22900
50861,22894
50867,22887
50871,22878
50874,22869
50875,22859
50875,22825
50874,22815
50871,22806
50867,22797
50861,22790
50853,22784
50845,22779
50835,22776
50826,22775
50462,22775
50462,22401
52392,22401
52392,24291
Z" /> 
<path style="fill:#840084; fill-opacity:1.0; 
stroke:#840084; stroke-width:0; stroke-opacity:1; 
stroke-linecap:round; stroke-linejoin:round;fill-rule:evenodd;"
d="M 53238,24283
52627,24283
52627,23909
53238,23909
53238,24283
Z" /> 
<path style="fill:#840084; fill-opacity:1.0; 
stroke:#840084; stroke-width:0; stroke-opacity:1; 
stroke-linecap:round; stroke-linejoin:round;fill-rule:evenodd;"
d="M 53238,23783
52627,23783
52627,23409
53238,23409
53238,23783
Z" /> 
<path style="fill:#840084; fill-opacity:1.0; 
stroke:#840084; stroke-width:0; stroke-opacity:1; 
stroke-linecap:round; stroke-linejoin:round;fill-rule:evenodd;"
d="M 41934,23131
41949,23135
41963,23143
41975,23152
41984,23164
41992,23178
41996,23193
41998,23211
41998,23639
41996,23656
41992,23671
41984,23685
41975,23697
41963,23707
41949,23714
41934,23719
41916,23720
41587,23720
41569,23719
41554,23714
41540,23707
41528,23697
41519,23685
41511,23671
41507,23656
41505,23639
41505,23211
41507,23193
41511,23178
41519,23164
41528,23152
41540,23143
41554,23135
41569,23131
41587,23129
41916,23129
41934,23131
Z" /> 
<path style="fill:#840084; fill-opacity:1.0; 
stroke:#840084; stroke-width:0; stroke-opacity:1; 
stroke-linecap:round; stroke-linejoin:round;fill-rule:evenodd;"
d="M 41127,23131
41142,23135
41155,23143
41167,23152
41177,23164
41185,23178
41189,23193
41191,23211
41191,23639
41189,23656
41185,23671
41177,23685
41167,23697
41155,23707
41142,23714
41127,23719
41109,23720
40780,23720
40762,23719
40747,23714
40733,23707
40721,23697
40711,23685
40704,23671
40700,23656
40698,23639
40698,23211
40700,23193
40704,23178
40711,23164
40721,23152
40733,23143
40747,23135
40762,23131
40780,23129
41109,23129
41127,23131
Z" /> 
<path style="fill:#840084; fill-opacity:1.0; 
stroke:#840084; stroke-width:0; stroke-opacity:1; 
stroke-linecap:round; stroke-linejoin:round;fill-rule:evenodd;"
d="M 44523,23200
44537,23204
44551,23211
44563,23221
44573,23233
44580,23247
44585,23262
44587,23280
44587,23609
44585,23627
44580,23642
44573,23655
44563,23667
44551,23677
44537,23685
44523,23689
44505,23691
44077,23691
44059,23689
44044,23685
44031,23677
44019,23667
44009,23655
44001,23642
43997,23627
43995,23609
43995,23280
43997,23262
44001,23247
44009,23233
44019,23221
44031,23211
44044,23204
44059,23200
44077,23198
44505,23198
44523,23200
Z" /> 
<path style="fill:#840084; fill-opacity:1.0; 
stroke:#840084; stroke-width:0; stroke-opacity:1; 
stroke-linecap:round; stroke-linejoin:round;fill-rule:evenodd;"
d="M 38219,22750
38286,22771
38347,22804
38361,22815
38401,22848
38426,22878
38445,22902
38478,22963
38499,23030
38504,23082
38504,23216
38499,23268
38478,23335
38445,23396
38439,23405
38401,23450
38347,23495
38286,23528
38286,23528
38219,23548
38149,23555
38080,23548
38013,23528
37951,23495
37928,23476
37897,23450
37853,23396
37820,23335
37816,23323
37800,23268
37794,23216
37794,23082
37800,23030
37820,22963
37853,22902
37897,22848
37951,22804
38013,22771
38080,22750
38149,22743
38219,22750
Z" /> 
<path style="fill:#840084; fill-opacity:1.0; 
stroke:#840084; stroke-width:0; stroke-opacity:1; 
stroke-linecap:round; stroke-linejoin:round;fill-rule:evenodd;"
d="M 37234,22750
37301,22771
37363,22804
37377,22815
37417,22848
37442,22878
37461,22902
37494,22963
37514,23030
37520,23082
37520,23216
37514,23268
37494,23335
37461,23396
37454,23405
37417,23450
37363,23495
37301,23528
37301,23528
37234,23548
37165,23555
37095,23548
37028,23528
36967,23495
36944,23476
36913,23450
36868,23396
36836,23335
36832,23323
36815,23268
36810,23216
36810,23082
36815,23030
36836,22963
36868,22902
36913,22848
36967,22804
37028,22771
37095,22750
37165,22743
37234,22750
Z" /> 
<path style="fill:#840084; fill-opacity:1.0; 
stroke:#840084; stroke-width:0; stroke-opacity:1; 
stroke-linecap:round; stroke-linejoin:round;fill-rule:evenodd;"
d="M 36250,22750
36317,22771
36379,22804
36393,22815
36433,22848
36458,22878
36477,22902
36510,22963
36530,23030
36535,23082
36535,23216
36530,23268
36510,23335
36477,23396
36470,23405
36433,23450
36379,23495
36317,23528
36317,23528
36250,23548
36181,23555
36111,23548
36044,23528
35983,23495
35960,23476
35929,23450
35884,23396
35851,23335
35848,23323
35831,23268
35826,23216
35826,23082
35831,23030
35851,22963
35884,22902
35929,22848
35983,22804
36044,22771
36111,22750
36181,22743
36250,22750
Z" /> 
<path style="fill:#840084; fill-opacity:1.0; 
stroke:#840084; stroke-width:0; stroke-opacity:1; 
stroke-linecap:round; stroke-linejoin:round;fill-rule:evenodd;"
d="M 39432,22747
39445,22751
39457,22757
39468,22766
39476,22776
39483,22788
39487,22801
39488,22817
39488,23481
39487,23497
39483,23510
39476,23522
39468,23532
39457,23541
39445,23548
39432,23551
39416,23553
38851,23553
38835,23551
38822,23548
38810,23541
38799,23532
38791,23522
38784,23510
38780,23497
38779,23481
38779,22817
38780,22801
38784,22788
38791,22776
38799,22766
38810,22757
38822,22751
38835,22747
38851,22745
39416,22745
39432,22747
Z" /> 
<path style="fill:#840084; fill-opacity:1.0; 
stroke:#840084; stroke-width:0; stroke-opacity:1; 
stroke-linecap:round; stroke-linejoin:round;fill-rule:evenodd;"
d="M 45241,22934
45256,22938
45270,22946
45282,22956
45291,22968
45299,22981
45303,22996
45305,23014
45305,23442
45303,23460
45299,23474
45291,23488
45282,23500
45270,23510
45256,23517
45241,23522
45223,23524
44894,23524
44876,23522
44861,23517
44847,23510
44836,23500
44826,23488
44818,23474
44814,23460
44812,23442
44812,23014
44814,22996
44818,22981
44826,22968
44836,22956
44847,22946
44861,22938
44876,22934
44894,22932
45223,22932
45241,22934
Z" /> 
<path style="fill:#840084; fill-opacity:1.0; 
stroke:#840084; stroke-width:0; stroke-opacity:1; 
stroke-linecap:round; stroke-linejoin:round;fill-rule:evenodd;"
d="M 46048,22934
46063,22938
46077,22946
46089,22956
46099,22968
46106,22981
46110,22996
46112,23014
46112,23442
46110,23460
46106,23474
46099,23488
46089,23500
46077,23510
46063,23517
46048,23522
46030,23524
45701,23524
45683,23522
45668,23517
45655,23510
45643,23500
45633,23488
45625,23474
45621,23460
45619,23442
45619,23014
45621,22996
45625,22981
45633,22968
45643,22956
45655,22946
45668,22938
45683,22934
45701,22932
46030,22932
46048,22934
Z" /> 
<path style="fill:#840084; fill-opacity:1.0; 
stroke:#840084; stroke-width:0; stroke-opacity:1; 
stroke-linecap:round; stroke-linejoin:round;fill-rule:evenodd;"
d="M 53238,23283
52627,23283
52627,22909
53238,22909
53238,23283
Z" /> 
<path style="fill:#840084; fill-opacity:1.0; 
stroke:#840084; stroke-width:0; stroke-opacity:1; 
stroke-linecap:round; stroke-linejoin:round;fill-rule:evenodd;"
d="M 44523,22393
44537,22397
44551,22404
44563,22414
44573,22426
44580,22440
44585,22455
44587,22473
44587,22802
44585,22820
44580,22835
44573,22848
44563,22860
44551,22870
44537,22877
44523,22882
44505,22884
44077,22884
44059,22882
44044,22877
44031,22870
44019,22860
44009,22848
44001,22835
43997,22820
43995,22802
43995,22473
43997,22455
44001,22440
44009,22426
44019,22414
44031,22404
44044,22397
44059,22393
44077,22391
44505,22391
44523,22393
Z" /> 
<path style="fill:#840084; fill-opacity:1.0; 
stroke:#840084; stroke-width:0; stroke-opacity:1; 
stroke-linecap:round; stroke-linejoin:round;fill-rule:evenodd;"
d="M 53238,22783
52627,22783
52627,22409
53238,22409
53238,22783
Z" /> 
<path style="fill:#840084; fill-opacity:1.0; 
stroke:#840084; stroke-width:0; stroke-opacity:1; 
stroke-linecap:round; stroke-linejoin:round;fill-rule:evenodd;"
d="M 41924,22147
41939,22151
41953,22158
41965,22168
41975,22180
41982,22194
41986,22209
41988,22227
41988,22654
41986,22672
41982,22687
41975,22701
41965,22713
41953,22723
41939,22730
41924,22734
41906,22736
41577,22736
41559,22734
41544,22730
41531,22723
41519,22713
41509,22701
41501,22687
41497,22672
41495,22654
41495,22227
41497,22209
41501,22194
41509,22180
41519,22168
41531,22158
41544,22151
41559,22147
41577,22145
41906,22145
41924,22147
Z" /> 
<path style="fill:#840084; fill-opacity:1.0; 
stroke:#840084; stroke-width:0; stroke-opacity:1; 
stroke-linecap:round; stroke-linejoin:round;fill-rule:evenodd;"
d="M 41117,22147
41132,22151
41146,22158
41158,22168
41167,22180
41175,22194
41179,22209
41181,22227
41181,22654
41179,22672
41175,22687
41167,22701
41158,22713
41146,22723
41132,22730
41117,22734
41099,22736
40770,22736
40752,22734
40737,22730
40723,22723
40711,22713
40702,22701
40694,22687
40690,22672
40688,22654
40688,22227
40690,22209
40694,22194
40702,22180
40711,22168
40723,22158
40737,22151
40752,22147
40770,22145
41099,22145
41117,22147
Z" /> 
<path style="fill:#840084; fill-opacity:1.0; 
stroke:#840084; stroke-width:0; stroke-opacity:1; 
stroke-linecap:round; stroke-linejoin:round;fill-rule:evenodd;"
d="M 43489,22134
43504,22138
43518,22146
43530,22156
43539,22168
43547,22181
43551,22196
43553,22214
43553,22642
43551,22660
43547,22674
43539,22688
43530,22700
43518,22710
43504,22717
43489,22722
43471,22724
43142,22724
43124,22722
43109,22717
43096,22710
43084,22700
43074,22688
43066,22674
43062,22660
43060,22642
43060,22214
43062,22196
43066,22181
43074,22168
43084,22156
43096,22146
43109,22138
43124,22134
43142,22132
43471,22132
43489,22134
Z" /> 
<path style="fill:#840084; fill-opacity:1.0; 
stroke:#840084; stroke-width:0; stroke-opacity:1; 
stroke-linecap:round; stroke-linejoin:round;fill-rule:evenodd;"
d="M 42682,22134
42697,22138
42711,22146
42723,22156
42732,22168
42740,22181
42744,22196
42746,22214
42746,22642
42744,22660
42740,22674
42732,22688
42723,22700
42711,22710
42697,22717
42682,22722
42664,22724
42335,22724
42317,22722
42302,22717
42288,22710
42276,22700
42267,22688
42259,22674
42255,22660
42253,22642
42253,22214
42255,22196
42259,22181
42267,22168
42276,22156
42288,22146
42302,22138
42317,22134
42335,22132
42664,22132
42682,22134
Z" /> 
<path style="fill:#840084; fill-opacity:1.0; 
stroke:#840084; stroke-width:0; stroke-opacity:1; 
stroke-linecap:round; stroke-linejoin:round;fill-rule:evenodd;"
d="M 45886,22559
45452,22559
45452,22125
45886,22125
45886,22559
Z" /> 
<path style="fill:#840084; fill-opacity:1.0; 
stroke:#840084; stroke-width:0; stroke-opacity:1; 
stroke-linecap:round; stroke-linejoin:round;fill-rule:evenodd;"
d="M 52392,22283
50462,22283
50462,21909
50826,21909
50835,21908
50845,21905
50853,21900
50861,21894
50867,21887
50871,21878
50874,21869
50875,21859
50875,21825
50874,21815
50871,21806
50867,21797
50861,21790
50853,21784
50845,21779
50835,21776
50826,21775
50462,21775
50462,21401
50826,21401
50835,21400
50845,21397
50853,21392
50861,21386
50867,21379
50871,21370
50874,21361
50875,21351
50875,21325
50874,21315
50871,21306
50867,21297
50861,21290
50853,21284
50845,21279
50835,21276
50826,21275
50462,21275
50462,20901
50826,20901
50835,20900
50845,20897
50853,20892
50861,20886
50867,20879
50871,20870
50874,20861
50875,20851
50875,20817
50874,20807
50871,20798
50867,20789
50861,20782
50853,20776
50845,20771
50835,20769
50826,20768
50462,20768
50462,20393
52392,20393
52392,22283
Z" /> 
<path style="fill:#840084; fill-opacity:1.0; 
stroke:#840084; stroke-width:0; stroke-opacity:1; 
stroke-linecap:round; stroke-linejoin:round;fill-rule:evenodd;"
d="M 53238,22275
52627,22275
52627,21901
53238,21901
53238,22275
Z" /> 
<path style="fill:#840084; fill-opacity:1.0; 
stroke:#840084; stroke-width:0; stroke-opacity:1; 
stroke-linecap:round; stroke-linejoin:round;fill-rule:evenodd;"
d="M 44719,21625
44734,21629
44748,21637
44760,21647
44770,21659
44777,21672
44782,21687
44783,21705
44783,22034
44782,22052
44777,22067
44770,22081
44760,22093
44748,22102
44734,22110
44719,22114
44702,22116
44274,22116
44256,22114
44241,22110
44227,22102
44215,22093
44206,22081
44198,22067
44194,22052
44192,22034
44192,21705
44194,21687
44198,21672
44206,21659
44215,21647
44227,21637
44241,21629
44256,21625
44274,21623
44702,21623
44719,21625
Z" /> 
<path style="fill:#840084; fill-opacity:1.0; 
stroke:#840084; stroke-width:0; stroke-opacity:1; 
stroke-linecap:round; stroke-linejoin:round;fill-rule:evenodd;"
d="M 43765,21804
43144,21804
43144,19796
43765,19796
43765,21804
Z" /> 
<path style="fill:#840084; fill-opacity:1.0; 
stroke:#840084; stroke-width:0; stroke-opacity:1; 
stroke-linecap:round; stroke-linejoin:round;fill-rule:evenodd;"
d="M 41452,21804
40831,21804
40831,19796
41452,19796
41452,21804
Z" /> 
<path style="fill:#840084; fill-opacity:1.0; 
stroke:#840084; stroke-width:0; stroke-opacity:1; 
stroke-linecap:round; stroke-linejoin:round;fill-rule:evenodd;"
d="M 53238,21775
52627,21775
52627,21401
53238,21401
53238,21775
Z" /> 
<path style="fill:#840084; fill-opacity:1.0; 
stroke:#840084; stroke-width:0; stroke-opacity:1; 
stroke-linecap:round; stroke-linejoin:round;fill-rule:evenodd;"
d="M 45886,21575
45452,21575
45452,21141
45886,21141
45886,21575
Z" /> 
<path style="fill:#840084; fill-opacity:1.0; 
stroke:#840084; stroke-width:0; stroke-opacity:1; 
stroke-linecap:round; stroke-linejoin:round;fill-rule:evenodd;"
d="M 44719,20818
44734,20822
44748,20830
44760,20839
44770,20851
44777,20865
44782,20880
44783,20898
44783,21227
44782,21245
44777,21260
44770,21274
44760,21286
44748,21295
44734,21303
44719,21307
44702,21309
44274,21309
44256,21307
44241,21303
44227,21295
44215,21286
44206,21274
44198,21260
44194,21245
44192,21227
44192,20898
44194,20880
44198,20865
44206,20851
44215,20839
44227,20830
44241,20822
44256,20818
44274,20816
44702,20816
44719,20818
Z" /> 
<path style="fill:#840084; fill-opacity:1.0; 
stroke:#840084; stroke-width:0; stroke-opacity:1; 
stroke-linecap:round; stroke-linejoin:round;fill-rule:evenodd;"
d="M 53238,21275
52627,21275
52627,20901
53238,20901
53238,21275
Z" /> 
<path style="fill:#840084; fill-opacity:1.0; 
stroke:#840084; stroke-width:0; stroke-opacity:1; 
stroke-linecap:round; stroke-linejoin:round;fill-rule:evenodd;"
d="M 37800,20650
37815,20655
37829,20662
37841,20672
37850,20684
37858,20698
37862,20713
37864,20730
37864,21158
37862,21176
37858,21191
37850,21205
37841,21217
37829,21226
37815,21234
37800,21238
37782,21240
37453,21240
37435,21238
37420,21234
37407,21226
37395,21217
37385,21205
37377,21191
37373,21176
37371,21158
37371,20730
37373,20713
37377,20698
37385,20684
37395,20672
37407,20662
37420,20655
37435,20650
37453,20649
37782,20649
37800,20650
Z" /> 
<path style="fill:#840084; fill-opacity:1.0; 
stroke:#840084; stroke-width:0; stroke-opacity:1; 
stroke-linecap:round; stroke-linejoin:round;fill-rule:evenodd;"
d="M 38607,20650
38622,20655
38636,20662
38648,20672
38658,20684
38665,20698
38669,20713
38671,20730
38671,21158
38669,21176
38665,21191
38658,21205
38648,21217
38636,21226
38622,21234
38607,21238
38589,21240
38260,21240
38242,21238
38227,21234
38214,21226
38202,21217
38192,21205
38184,21191
38180,21176
38178,21158
38178,20730
38180,20713
38184,20698
38192,20684
38202,20672
38214,20662
38227,20655
38242,20650
38260,20649
38589,20649
38607,20650
Z" /> 
<path style="fill:#840084; fill-opacity:1.0; 
stroke:#840084; stroke-width:0; stroke-opacity:1; 
stroke-linecap:round; stroke-linejoin:round;fill-rule:evenodd;"
d="M 40113,20650
40128,20655
40142,20662
40154,20672
40163,20684
40171,20698
40175,20713
40177,20730
40177,21158
40175,21176
40171,21191
40163,21205
40154,21217
40142,21226
40128,21234
40113,21238
40095,21240
39766,21240
39748,21238
39733,21234
39720,21226
39708,21217
39698,21205
39690,21191
39686,21176
39684,21158
39684,20730
39686,20713
39690,20698
39698,20684
39708,20672
39720,20662
39733,20655
39748,20650
39766,20649
40095,20649
40113,20650
Z" /> 
<path style="fill:#840084; fill-opacity:1.0; 
stroke:#840084; stroke-width:0; stroke-opacity:1; 
stroke-linecap:round; stroke-linejoin:round;fill-rule:evenodd;"
d="M 39306,20650
39321,20655
39335,20662
39347,20672
39356,20684
39364,20698
39368,20713
39370,20730
39370,21158
39368,21176
39364,21191
39356,21205
39347,21217
39335,21226
39321,21234
39306,21238
39288,21240
38959,21240
38941,21238
38926,21234
38912,21226
38900,21217
38891,21205
38883,21191
38879,21176
38877,21158
38877,20730
38879,20713
38883,20698
38891,20684
38900,20672
38912,20662
38926,20655
38941,20650
38959,20649
39288,20649
39306,20650
Z" /> 
<path style="fill:#840084; fill-opacity:1.0; 
stroke:#840084; stroke-width:0; stroke-opacity:1; 
stroke-linecap:round; stroke-linejoin:round;fill-rule:evenodd;"
d="M 35374,21043
34783,21043
34783,20058
35374,20058
35374,21043
Z" /> 
<path style="fill:#840084; fill-opacity:1.0; 
stroke:#840084; stroke-width:0; stroke-opacity:1; 
stroke-linecap:round; stroke-linejoin:round;fill-rule:evenodd;"
d="M 37106,21043
36515,21043
36515,20058
37106,20058
37106,21043
Z" /> 
<path style="fill:#840084; fill-opacity:1.0; 
stroke:#840084; stroke-width:0; stroke-opacity:1; 
stroke-linecap:round; stroke-linejoin:round;fill-rule:evenodd;"
d="M 36354,20941
35535,20941
35535,20161
36354,20161
36354,20941
Z" /> 
<path style="fill:#840084; fill-opacity:1.0; 
stroke:#840084; stroke-width:0; stroke-opacity:1; 
stroke-linecap:round; stroke-linejoin:round;fill-rule:evenodd;"
d="M 53238,20775
52627,20775
52627,20401
53238,20401
53238,20775
Z" /> 
<path style="fill:#840084; fill-opacity:1.0; 
stroke:#840084; stroke-width:0; stroke-opacity:1; 
stroke-linecap:round; stroke-linejoin:round;fill-rule:evenodd;"
d="M 40123,19902
40138,19907
40152,19914
40163,19924
40173,19936
40181,19950
40185,19965
40187,19982
40187,20410
40185,20428
40181,20443
40173,20457
40163,20469
40152,20478
40138,20486
40123,20490
40105,20492
39776,20492
39758,20490
39743,20486
39729,20478
39717,20469
39708,20457
39700,20443
39696,20428
39694,20410
39694,19982
39696,19965
39700,19950
39708,19936
39717,19924
39729,19914
39743,19907
39758,19902
39776,19901
40105,19901
40123,19902
Z" /> 
<path style="fill:#840084; fill-opacity:1.0; 
stroke:#840084; stroke-width:0; stroke-opacity:1; 
stroke-linecap:round; stroke-linejoin:round;fill-rule:evenodd;"
d="M 39316,19902
39331,19907
39344,19914
39356,19924
39366,19936
39374,19950
39378,19965
39380,19982
39380,20410
39378,20428
39374,20443
39366,20457
39356,20469
39344,20478
39331,20486
39316,20490
39298,20492
38969,20492
38951,20490
38936,20486
38922,20478
38910,20469
38900,20457
38893,20443
38889,20428
38887,20410
38887,19982
38889,19965
38893,19950
38900,19936
38910,19924
38922,19914
38936,19907
38951,19902
38969,19901
39298,19901
39316,19902
Z" /> 
<path style="fill:#840084; fill-opacity:1.0; 
stroke:#840084; stroke-width:0; stroke-opacity:1; 
stroke-linecap:round; stroke-linejoin:round;fill-rule:evenodd;"
d="M 38588,19902
38602,19907
38616,19914
38628,19924
38638,19936
38645,19950
38650,19965
38651,19982
38651,20410
38650,20428
38645,20443
38638,20457
38628,20469
38616,20478
38602,20486
38588,20490
38570,20492
38240,20492
38222,20490
38208,20486
38194,20478
38182,20469
38172,20457
38165,20443
38160,20428
38159,20410
38159,19982
38160,19965
38165,19950
38172,19936
38182,19924
38194,19914
38208,19907
38222,19902
38240,19901
38570,19901
38588,19902
Z" /> 
<path style="fill:#840084; fill-opacity:1.0; 
stroke:#840084; stroke-width:0; stroke-opacity:1; 
stroke-linecap:round; stroke-linejoin:round;fill-rule:evenodd;"
d="M 37780,19902
37795,19907
37809,19914
37821,19924
37831,19936
37838,19950
37843,19965
37844,19982
37844,20410
37843,20428
37838,20443
37831,20457
37821,20469
37809,20478
37795,20486
37780,20490
37763,20492
37433,20492
37415,20490
37401,20486
37387,20478
37375,20469
37365,20457
37358,20443
37353,20428
37351,20410
37351,19982
37353,19965
37358,19950
37365,19936
37375,19924
37387,19914
37401,19907
37415,19902
37433,19901
37763,19901
37780,19902
Z" /> 
<path style="fill:#840084; fill-opacity:1.0; 
stroke:#840084; stroke-width:0; stroke-opacity:1; 
stroke-linecap:round; stroke-linejoin:round;fill-rule:evenodd;"
d="M 45467,19784
45482,19789
45496,19796
45508,19806
45518,19818
45525,19832
45530,19846
45531,19864
45531,20292
45530,20310
45525,20325
45518,20339
45508,20351
45496,20360
45482,20368
45467,20372
45450,20374
45120,20374
45102,20372
45088,20368
45074,20360
45062,20351
45052,20339
45045,20325
45040,20310
45038,20292
45038,19864
45040,19846
45045,19832
45052,19818
45062,19806
45074,19796
45088,19789
45102,19784
45120,19783
45450,19783
45467,19784
Z" /> 
<path style="fill:#840084; fill-opacity:1.0; 
stroke:#840084; stroke-width:0; stroke-opacity:1; 
stroke-linecap:round; stroke-linejoin:round;fill-rule:evenodd;"
d="M 44660,19784
44675,19789
44689,19796
44701,19806
44711,19818
44718,19832
44723,19846
44724,19864
44724,20292
44723,20310
44718,20325
44711,20339
44701,20351
44689,20360
44675,20368
44660,20372
44643,20374
44313,20374
44295,20372
44280,20368
44267,20360
44255,20351
44245,20339
44238,20325
44233,20310
44231,20292
44231,19864
44233,19846
44238,19832
44245,19818
44255,19806
44267,19796
44280,19789
44295,19784
44313,19783
44643,19783
44660,19784
Z" /> 
<path style="fill:#840084; fill-opacity:1.0; 
stroke:#840084; stroke-width:0; stroke-opacity:1; 
stroke-linecap:round; stroke-linejoin:round;fill-rule:evenodd;"
d="M 52392,20275
50462,20275
50462,19901
50826,19901
50835,19900
50845,19897
50853,19892
50861,19886
50867,19879
50871,19870
50874,19861
50875,19851
50875,19817
50874,19807
50871,19798
50867,19789
50861,19782
50853,19776
50845,19771
50835,19769
50826,19768
50462,19768
50462,19393
50826,19393
50835,19392
50845,19389
50853,19385
50861,19378
50867,19371
50871,19362
50874,19353
50875,19344
50875,19317
50874,19307
50871,19298
50867,19289
50861,19282
50853,19276
50845,19271
50835,19269
50826,19268
50462,19268
50462,18893
50826,18893
50835,18892
50845,18889
50853,18885
50861,18878
50867,18871
50871,18862
50874,18853
50875,18844
50875,18809
50874,18799
50871,18790
50867,18782
50861,18774
50853,18768
50845,18763
50835,18761
50826,18760
50462,18760
50462,18385
52392,18385
52392,20275
Z" /> 
<path style="fill:#840084; fill-opacity:1.0; 
stroke:#840084; stroke-width:0; stroke-opacity:1; 
stroke-linecap:round; stroke-linejoin:round;fill-rule:evenodd;"
d="M 53238,20268
52627,20268
52627,19893
53238,19893
53238,20268
Z" /> 
<path style="fill:#840084; fill-opacity:1.0; 
stroke:#840084; stroke-width:0; stroke-opacity:1; 
stroke-linecap:round; stroke-linejoin:round;fill-rule:evenodd;"
d="M 53238,19768
52627,19768
52627,19393
53238,19393
53238,19768
Z" /> 
<path style="fill:#840084; fill-opacity:1.0; 
stroke:#840084; stroke-width:0; stroke-opacity:1; 
stroke-linecap:round; stroke-linejoin:round;fill-rule:evenodd;"
d="M 45996,19494
40838,19494
40838,14336
45996,14336
45996,19494
Z" /> 
<path style="fill:#840084; fill-opacity:1.0; 
stroke:#840084; stroke-width:0; stroke-opacity:1; 
stroke-linecap:round; stroke-linejoin:round;fill-rule:evenodd;"
d="M 34185,19494
29027,19494
29027,14336
34185,14336
34185,19494
Z" /> 
<path style="fill:#840084; fill-opacity:1.0; 
stroke:#840084; stroke-width:0; stroke-opacity:1; 
stroke-linecap:round; stroke-linejoin:round;fill-rule:evenodd;"
d="M 53238,19268
52627,19268
52627,18893
53238,18893
53238,19268
Z" /> 
<path style="fill:#840084; fill-opacity:1.0; 
stroke:#840084; stroke-width:0; stroke-opacity:1; 
stroke-linecap:round; stroke-linejoin:round;fill-rule:evenodd;"
d="M 53238,18768
52627,18768
52627,18393
53238,18393
53238,18768
Z" /> 
<path style="fill:#840084; fill-opacity:1.0; 
stroke:#840084; stroke-width:0; stroke-opacity:1; 
stroke-linecap:round; stroke-linejoin:round;fill-rule:evenodd;"
d="M 52392,18268
50462,18268
50462,17893
50826,17893
50835,17892
50845,17889
50853,17885
50861,17878
50867,17871
50871,17862
50874,17853
50875,17844
50875,17809
50874,17799
50871,17790
50867,17782
50861,17774
50853,17768
50845,17763
50835,17761
50826,17760
50462,17760
50462,17385
50826,17385
50835,17384
50845,17381
50853,17377
50861,17371
50867,17363
50871,17355
50874,17345
50875,17336
50875,17309
50874,17299
50871,17290
50867,17282
50861,17274
50853,17268
50845,17263
50835,17261
50826,17260
50462,17260
50462,16885
50826,16885
50835,16884
50845,16881
50853,16877
50861,16871
50867,16863
50871,16855
50874,16845
50875,16836
50875,16801
50874,16791
50871,16782
50867,16774
50861,16766
50853,16760
50845,16756
50835,16753
50826,16752
50462,16752
50462,16377
52392,16377
52392,18268
Z" /> 
<path style="fill:#840084; fill-opacity:1.0; 
stroke:#840084; stroke-width:0; stroke-opacity:1; 
stroke-linecap:round; stroke-linejoin:round;fill-rule:evenodd;"
d="M 53238,18260
52627,18260
52627,17885
53238,17885
53238,18260
Z" /> 
<path style="fill:#840084; fill-opacity:1.0; 
stroke:#840084; stroke-width:0; stroke-opacity:1; 
stroke-linecap:round; stroke-linejoin:round;fill-rule:evenodd;"
d="M 53238,17760
52627,17760
52627,17385
53238,17385
53238,17760
Z" /> 
<path style="fill:#840084; fill-opacity:1.0; 
stroke:#840084; stroke-width:0; stroke-opacity:1; 
stroke-linecap:round; stroke-linejoin:round;fill-rule:evenodd;"
d="M 53238,17260
52627,17260
52627,16885
53238,16885
53238,17260
Z" /> 
<path style="fill:#840084; fill-opacity:1.0; 
stroke:#840084; stroke-width:0; stroke-opacity:1; 
stroke-linecap:round; stroke-linejoin:round;fill-rule:evenodd;"
d="M 53238,16760
52627,16760
52627,16385
53238,16385
53238,16760
Z" /> 
<path style="fill:#840084; fill-opacity:1.0; 
stroke:#840084; stroke-width:0; stroke-opacity:1; 
stroke-linecap:round; stroke-linejoin:round;fill-rule:evenodd;"
d="M 52392,16260
50462,16260
50462,15885
50826,15885
50835,15884
50845,15881
50853,15877
50861,15871
50867,15863
50871,15855
50874,15845
50875,15836
50875,15801
50874,15791
50871,15782
50867,15774
50861,15766
50853,15760
50845,15756
50835,15753
50826,15752
50462,15752
50462,15377
50826,15377
50835,15376
50845,15373
50853,15369
50861,15363
50867,15355
50871,15347
50874,15337
50875,15328
50875,15301
50874,15291
50871,15282
50867,15274
50861,15266
50853,15260
50845,15256
50835,15253
50826,15252
50462,15252
50462,14877
50826,14877
50835,14876
50845,14873
50853,14869
50861,14863
50867,14855
50871,14847
50874,14837
50875,14828
50875,14793
50874,14784
50871,14774
50867,14766
50861,14758
50853,14752
50845,14748
50835,14745
50826,14744
50462,14744
50462,14369
52392,14369
52392,16260
Z" /> 
<path style="fill:#840084; fill-opacity:1.0; 
stroke:#840084; stroke-width:0; stroke-opacity:1; 
stroke-linecap:round; stroke-linejoin:round;fill-rule:evenodd;"
d="M 53238,16252
52627,16252
52627,15877
53238,15877
53238,16252
Z" /> 
<path style="fill:#840084; fill-opacity:1.0; 
stroke:#840084; stroke-width:0; stroke-opacity:1; 
stroke-linecap:round; stroke-linejoin:round;fill-rule:evenodd;"
d="M 53238,15752
52627,15752
52627,15377
53238,15377
53238,15752
Z" /> 
<path style="fill:#840084; fill-opacity:1.0; 
stroke:#840084; stroke-width:0; stroke-opacity:1; 
stroke-linecap:round; stroke-linejoin:round;fill-rule:evenodd;"
d="M 53238,15252
52627,15252
52627,14877
53238,14877
53238,15252
Z" /> 
<path style="fill:#840084; fill-opacity:1.0; 
stroke:#840084; stroke-width:0; stroke-opacity:1; 
stroke-linecap:round; stroke-linejoin:round;fill-rule:evenodd;"
d="M 53238,14752
52627,14752
52627,14377
53238,14377
53238,14752
Z" /> 
<path style="fill:#840084; fill-opacity:1.0; 
stroke:#840084; stroke-width:0; stroke-opacity:1; 
stroke-linecap:round; stroke-linejoin:round;fill-rule:evenodd;"
d="M 30644,11254
30644,11254
30644,11254
30898,11359
31127,11512
31322,11707
31475,11936
31475,11936
31580,12190
31634,12460
31634,12736
31580,13006
31580,13006
31475,13260
31322,13489
31127,13684
30898,13837
30718,13911
30644,13942
30373,13996
30098,13996
29828,13942
29753,13911
29574,13837
29345,13684
29150,13489
28997,13260
28891,13006
28891,13006
28838,12736
28838,12460
28891,12190
28997,11936
28997,11936
29150,11707
29345,11512
29574,11359
29828,11254
29828,11254
29828,11254
30098,11200
30373,11200
30644,11254
Z" /> 
<path style="fill:#840084; fill-opacity:1.0; 
stroke:#840084; stroke-width:0; stroke-opacity:1; 
stroke-linecap:round; stroke-linejoin:round;fill-rule:evenodd;"
d="M 56825,11254
56825,11254
56825,11254
57079,11359
57308,11512
57503,11707
57656,11936
57656,11936
57761,12190
57815,12460
57815,12736
57761,13006
57761,13006
57656,13260
57503,13489
57308,13684
57079,13837
56899,13911
56825,13942
56555,13996
56279,13996
56009,13942
55935,13911
55755,13837
55526,13684
55331,13489
55178,13260
55073,13006
55073,13006
55019,12736
55019,12460
55073,12190
55178,11936
55178,11936
55331,11707
55526,11512
55755,11359
56009,11254
56009,11254
56009,11254
56279,11200
56555,11200
56825,11254
Z" /> 
</g>
<g style="fill:#000000; fill-opacity:1.0; 
stroke:#000000; stroke-width:0; stroke-opacity:1; 
stroke-linecap:round; stroke-linejoin:round;">
</g>
<g style="fill:#C2C200; fill-opacity:1.0; 
stroke:#C2C200; stroke-width:0; stroke-opacity:1; 
stroke-linecap:round; stroke-linejoin:round;">
</g>
<g style="fill:#C2C200; fill-opacity:0.0; 
stroke:#C2C200; stroke-width:39.3701; stroke-opacity:1; 
stroke-linecap:round; stroke-linejoin:round;">
<path d="M34330.7 14527.6 A393.701 393.701 0.0 0 0 33937 14133.9 " />
<path d="M41063 14133.9 A393.701 393.701 0.0 0 0 40669.3 14527.6 " />
<path d="M53661 14133
L41062 14133
" />
<path d="M33937 14133
L32992 14133
" />
<path d="M54842 12952
L54842 12598
" />
<path d="M57992 12598
L57992 14133
" />
<path d="M57992.1 12598.4 A1574.8 1574.8 0.0 0 0 54842.5 12598.4 " />
<circle cx="56417.3" cy="12598.4" r="629.921" /> 
<path d="M53661.4 14133.9 A1181.1 1181.1 0.0 0 0 54842.5 12952.8 " />
<path d="M31811 12952.8 A1181.1 1181.1 0.0 0 0 32992.1 14133.9 " />
<path d="M31811 12952
L31811 12598
" />
<path d="M28661 12598
L28661 14133
" />
<path d="M31811 12598.4 A1574.8 1574.8 0.0 0 0 28661.4 12598.4 " />
<circle cx="30236.2" cy="12598.4" r="629.921" /> 
<path d="M32992 29566
L53661 29566
" />
<path d="M32992.1 29566.9 A1181.1 1181.1 0.0 0 0 31811 30748 " />
<path d="M31811 30748
L31811 31102
" />
<path d="M28661 31102
L28661 29330
" />
<path d="M28661.4 31102.4 A1574.8 1574.8 0.0 0 0 31811 31102.4 " />
<circle cx="30236.2" cy="31102.4" r="629.921" /> 
<path d="M54842 30748
L54842 31102
" />
<path d="M54842.5 30748 A1181.1 1181.1 0.0 0 0 53661.4 29566.9 " />
<circle cx="56417.3" cy="31102.4" r="629.921" /> 
<path d="M54842.5 31102.4 A1574.8 1574.8 0.0 0 0 57992.1 31102.4 " />
<path d="M57992 31102
L57992 29330
" />
<path d="M57992 14173
L57992 14133
" />
<path d="M57992 29330
L57992 14173
" />
<path d="M28661 14133
L28661 29330
" />
<path d="M40669 19566
L40669 14527
" />
<path d="M34330 19566
L40669 19566
" />
<path d="M34330 14527
L34330 19566
" />
<g >
</g>
<g >
</g>
<g >
</g>
<g >
</g>
<g >
</g>
<g >
</g>
<g >
</g>
<g >
</g>
<g >
</g>
<g >
</g>
<g >
</g>
<g >
</g>
<g >
</g>
<g >
</g>
<g >
</g>
<g >
</g>
<g >
</g>
<g >
</g>
<g >
</g>
<g >
</g>
<g >
</g>
<g >
</g>
<g >
</g>
<g >
</g>
<g >
</g>
<g >
</g>
<g >
</g>
<g >
</g>
<g >
</g>
<g >
</g>
<g >
</g>
<g >
</g>
</g> 
</svg>
