<?xml version="1.0" standalone="no"?>
 <!DOCTYPE svg PUBLIC "-//W3C//DTD SVG 1.1//EN" 
 "http://www.w3.org/Graphics/SVG/1.1/DTD/svg11.dtd"> 
<svg xmlns="http://www.w3.org/2000/svg" version="1.1" 
    width="29.7002cm" height="21.0007cm" viewBox="0 0 116930 82680 ">
<title>SVG Picture created as Anti-Spark-F_SilkS.svg date 2019/09/11 11:25:07 </title>
  <desc>Picture generated by PCBNEW </desc>
<g style="fill:#000000; fill-opacity:1;stroke:#000000; stroke-opacity:1;
stroke-linecap:round; stroke-linejoin:round; "
 transform="translate(0 0) scale(1 1)">
</g>
<g style="fill:#000000; fill-opacity:0.0; 
stroke:#000000; stroke-width:-0.000393701; stroke-opacity:1; 
stroke-linecap:round; stroke-linejoin:round;">
</g>
<g style="fill:#000000; fill-opacity:0.0; 
stroke:#000000; stroke-width:39.3701; stroke-opacity:1; 
stroke-linecap:round; stroke-linejoin:round;">
</g>
<g style="fill:#000000; fill-opacity:0.0; 
stroke:#000000; stroke-width:59.0551; stroke-opacity:1; 
stroke-linecap:round; stroke-linejoin:round;">
<rect x="69685.9" y="65357.2" width="42519.7" height="12598.4" rx="0" />
</g>
<g style="fill:#000000; fill-opacity:0.0; 
stroke:#000000; stroke-width:39.3701; stroke-opacity:1; 
stroke-linecap:round; stroke-linejoin:round;">
</g>
<g style="fill:#000000; fill-opacity:0.0; 
stroke:#000000; stroke-width:59.0551; stroke-opacity:1; 
stroke-linecap:round; stroke-linejoin:round;">
<rect x="3937.01" y="3937.01" width="109056" height="74806" rx="0" />
</g>
<g style="fill:#000000; fill-opacity:0.0; 
stroke:#000000; stroke-width:39.3701; stroke-opacity:1; 
stroke-linecap:round; stroke-linejoin:round;">
</g>
<g style="fill:#000000; fill-opacity:0.0; 
stroke:#000000; stroke-width:59.0551; stroke-opacity:1; 
stroke-linecap:round; stroke-linejoin:round;">
<rect x="4724.41" y="4724.41" width="107481" height="73231.2" rx="0" />
</g>
<g style="fill:#000000; fill-opacity:0.0; 
stroke:#000000; stroke-width:39.3701; stroke-opacity:1; 
stroke-linecap:round; stroke-linejoin:round;">
</g>
<g style="fill:#000000; fill-opacity:0.0; 
stroke:#000000; stroke-width:59.0551; stroke-opacity:1; 
stroke-linecap:round; stroke-linejoin:round;">
<path d="M23622 4724
L23622 3937
" />
</g>
<g style="fill:#000000; fill-opacity:0.0; 
stroke:#000000; stroke-width:39.3701; stroke-opacity:1; 
stroke-linecap:round; stroke-linejoin:round;">
</g>
<g style="fill:#000000; fill-opacity:0.0; 
stroke:#000000; stroke-width:59.0551; stroke-opacity:1; 
stroke-linecap:round; stroke-linejoin:round;">
<path d="M43307 4724
L43307 3937
" />
</g>
<g style="fill:#000000; fill-opacity:0.0; 
stroke:#000000; stroke-width:39.3701; stroke-opacity:1; 
stroke-linecap:round; stroke-linejoin:round;">
</g>
<g style="fill:#000000; fill-opacity:0.0; 
stroke:#000000; stroke-width:59.0551; stroke-opacity:1; 
stroke-linecap:round; stroke-linejoin:round;">
<path d="M62992 4724
L62992 3937
" />
</g>
<g style="fill:#000000; fill-opacity:0.0; 
stroke:#000000; stroke-width:39.3701; stroke-opacity:1; 
stroke-linecap:round; stroke-linejoin:round;">
</g>
<g style="fill:#000000; fill-opacity:0.0; 
stroke:#000000; stroke-width:59.0551; stroke-opacity:1; 
stroke-linecap:round; stroke-linejoin:round;">
<path d="M82677 4724
L82677 3937
" />
</g>
<g style="fill:#000000; fill-opacity:0.0; 
stroke:#000000; stroke-width:39.3701; stroke-opacity:1; 
stroke-linecap:round; stroke-linejoin:round;">
</g>
<g style="fill:#000000; fill-opacity:0.0; 
stroke:#000000; stroke-width:59.0551; stroke-opacity:1; 
stroke-linecap:round; stroke-linejoin:round;">
<path d="M102362 4724
L102362 3937
" />
</g>
<g style="fill:#000000; fill-opacity:0.0; 
stroke:#000000; stroke-width:39.3701; stroke-opacity:1; 
stroke-linecap:round; stroke-linejoin:round;">
</g>
<g style="fill:#000000; fill-opacity:0.0; 
stroke:#000000; stroke-width:59.0551; stroke-opacity:1; 
stroke-linecap:round; stroke-linejoin:round;">
<path d="M14199 4562
L13906 4562
" />
<path d="M14052 4562
L14052 4050
L14004 4123
L13955 4172
L13906 4196
" />
</g>
<g style="fill:#000000; fill-opacity:0.0; 
stroke:#000000; stroke-width:39.3701; stroke-opacity:1; 
stroke-linecap:round; stroke-linejoin:round;">
</g>
<g style="fill:#000000; fill-opacity:0.0; 
stroke:#000000; stroke-width:59.0551; stroke-opacity:1; 
stroke-linecap:round; stroke-linejoin:round;">
<path d="M33591 4099
L33615 4074
L33664 4050
L33786 4050
L33835 4074
L33859 4099
L33884 4147
L33884 4196
L33859 4269
L33567 4562
L33884 4562
" />
</g>
<g style="fill:#000000; fill-opacity:0.0; 
stroke:#000000; stroke-width:39.3701; stroke-opacity:1; 
stroke-linecap:round; stroke-linejoin:round;">
</g>
<g style="fill:#000000; fill-opacity:0.0; 
stroke:#000000; stroke-width:59.0551; stroke-opacity:1; 
stroke-linecap:round; stroke-linejoin:round;">
<path d="M53252 4050
L53569 4050
L53398 4245
L53471 4245
L53520 4269
L53544 4294
L53569 4342
L53569 4464
L53544 4513
L53520 4537
L53471 4562
L53325 4562
L53276 4537
L53252 4513
" />
</g>
<g style="fill:#000000; fill-opacity:0.0; 
stroke:#000000; stroke-width:39.3701; stroke-opacity:1; 
stroke-linecap:round; stroke-linejoin:round;">
</g>
<g style="fill:#000000; fill-opacity:0.0; 
stroke:#000000; stroke-width:59.0551; stroke-opacity:1; 
stroke-linecap:round; stroke-linejoin:round;">
<path d="M73205 4221
L73205 4562
" />
<path d="M73083 4026
L72961 4391
L73278 4391
" />
</g>
<g style="fill:#000000; fill-opacity:0.0; 
stroke:#000000; stroke-width:39.3701; stroke-opacity:1; 
stroke-linecap:round; stroke-linejoin:round;">
</g>
<g style="fill:#000000; fill-opacity:0.0; 
stroke:#000000; stroke-width:59.0551; stroke-opacity:1; 
stroke-linecap:round; stroke-linejoin:round;">
<path d="M92914 4050
L92671 4050
L92646 4294
L92671 4269
L92719 4245
L92841 4245
L92890 4269
L92914 4294
L92939 4342
L92939 4464
L92914 4513
L92890 4537
L92841 4562
L92719 4562
L92671 4537
L92646 4513
" />
</g>
<g style="fill:#000000; fill-opacity:0.0; 
stroke:#000000; stroke-width:39.3701; stroke-opacity:1; 
stroke-linecap:round; stroke-linejoin:round;">
</g>
<g style="fill:#000000; fill-opacity:0.0; 
stroke:#000000; stroke-width:59.0551; stroke-opacity:1; 
stroke-linecap:round; stroke-linejoin:round;">
<path d="M112575 4050
L112477 4050
L112429 4074
L112404 4099
L112356 4172
L112331 4269
L112331 4464
L112356 4513
L112380 4537
L112429 4562
L112526 4562
L112575 4537
L112599 4513
L112624 4464
L112624 4342
L112599 4294
L112575 4269
L112526 4245
L112429 4245
L112380 4269
L112356 4294
L112331 4342
" />
</g>
<g style="fill:#000000; fill-opacity:0.0; 
stroke:#000000; stroke-width:39.3701; stroke-opacity:1; 
stroke-linecap:round; stroke-linejoin:round;">
</g>
<g style="fill:#000000; fill-opacity:0.0; 
stroke:#000000; stroke-width:59.0551; stroke-opacity:1; 
stroke-linecap:round; stroke-linejoin:round;">
<path d="M23622 77955
L23622 78742
" />
</g>
<g style="fill:#000000; fill-opacity:0.0; 
stroke:#000000; stroke-width:39.3701; stroke-opacity:1; 
stroke-linecap:round; stroke-linejoin:round;">
</g>
<g style="fill:#000000; fill-opacity:0.0; 
stroke:#000000; stroke-width:59.0551; stroke-opacity:1; 
stroke-linecap:round; stroke-linejoin:round;">
<path d="M43307 77955
L43307 78742
" />
</g>
<g style="fill:#000000; fill-opacity:0.0; 
stroke:#000000; stroke-width:39.3701; stroke-opacity:1; 
stroke-linecap:round; stroke-linejoin:round;">
</g>
<g style="fill:#000000; fill-opacity:0.0; 
stroke:#000000; stroke-width:59.0551; stroke-opacity:1; 
stroke-linecap:round; stroke-linejoin:round;">
<path d="M62992 77955
L62992 78742
" />
</g>
<g style="fill:#000000; fill-opacity:0.0; 
stroke:#000000; stroke-width:39.3701; stroke-opacity:1; 
stroke-linecap:round; stroke-linejoin:round;">
</g>
<g style="fill:#000000; fill-opacity:0.0; 
stroke:#000000; stroke-width:59.0551; stroke-opacity:1; 
stroke-linecap:round; stroke-linejoin:round;">
<path d="M82677 77955
L82677 78742
" />
</g>
<g style="fill:#000000; fill-opacity:0.0; 
stroke:#000000; stroke-width:39.3701; stroke-opacity:1; 
stroke-linecap:round; stroke-linejoin:round;">
</g>
<g style="fill:#000000; fill-opacity:0.0; 
stroke:#000000; stroke-width:59.0551; stroke-opacity:1; 
stroke-linecap:round; stroke-linejoin:round;">
<path d="M102362 77955
L102362 78742
" />
</g>
<g style="fill:#000000; fill-opacity:0.0; 
stroke:#000000; stroke-width:39.3701; stroke-opacity:1; 
stroke-linecap:round; stroke-linejoin:round;">
</g>
<g style="fill:#000000; fill-opacity:0.0; 
stroke:#000000; stroke-width:59.0551; stroke-opacity:1; 
stroke-linecap:round; stroke-linejoin:round;">
<path d="M14199 78580
L13906 78580
" />
<path d="M14052 78580
L14052 78069
L14004 78142
L13955 78190
L13906 78215
" />
</g>
<g style="fill:#000000; fill-opacity:0.0; 
stroke:#000000; stroke-width:39.3701; stroke-opacity:1; 
stroke-linecap:round; stroke-linejoin:round;">
</g>
<g style="fill:#000000; fill-opacity:0.0; 
stroke:#000000; stroke-width:59.0551; stroke-opacity:1; 
stroke-linecap:round; stroke-linejoin:round;">
<path d="M33591 78117
L33615 78093
L33664 78069
L33786 78069
L33835 78093
L33859 78117
L33884 78166
L33884 78215
L33859 78288
L33567 78580
L33884 78580
" />
</g>
<g style="fill:#000000; fill-opacity:0.0; 
stroke:#000000; stroke-width:39.3701; stroke-opacity:1; 
stroke-linecap:round; stroke-linejoin:round;">
</g>
<g style="fill:#000000; fill-opacity:0.0; 
stroke:#000000; stroke-width:59.0551; stroke-opacity:1; 
stroke-linecap:round; stroke-linejoin:round;">
<path d="M53252 78069
L53569 78069
L53398 78263
L53471 78263
L53520 78288
L53544 78312
L53569 78361
L53569 78483
L53544 78532
L53520 78556
L53471 78580
L53325 78580
L53276 78556
L53252 78532
" />
</g>
<g style="fill:#000000; fill-opacity:0.0; 
stroke:#000000; stroke-width:39.3701; stroke-opacity:1; 
stroke-linecap:round; stroke-linejoin:round;">
</g>
<g style="fill:#000000; fill-opacity:0.0; 
stroke:#000000; stroke-width:59.0551; stroke-opacity:1; 
stroke-linecap:round; stroke-linejoin:round;">
<path d="M73205 78239
L73205 78580
" />
<path d="M73083 78044
L72961 78410
L73278 78410
" />
</g>
<g style="fill:#000000; fill-opacity:0.0; 
stroke:#000000; stroke-width:39.3701; stroke-opacity:1; 
stroke-linecap:round; stroke-linejoin:round;">
</g>
<g style="fill:#000000; fill-opacity:0.0; 
stroke:#000000; stroke-width:59.0551; stroke-opacity:1; 
stroke-linecap:round; stroke-linejoin:round;">
<path d="M92914 78069
L92671 78069
L92646 78312
L92671 78288
L92719 78263
L92841 78263
L92890 78288
L92914 78312
L92939 78361
L92939 78483
L92914 78532
L92890 78556
L92841 78580
L92719 78580
L92671 78556
L92646 78532
" />
</g>
<g style="fill:#000000; fill-opacity:0.0; 
stroke:#000000; stroke-width:39.3701; stroke-opacity:1; 
stroke-linecap:round; stroke-linejoin:round;">
</g>
<g style="fill:#000000; fill-opacity:0.0; 
stroke:#000000; stroke-width:59.0551; stroke-opacity:1; 
stroke-linecap:round; stroke-linejoin:round;">
<path d="M112575 78069
L112477 78069
L112429 78093
L112404 78117
L112356 78190
L112331 78288
L112331 78483
L112356 78532
L112380 78556
L112429 78580
L112526 78580
L112575 78556
L112599 78532
L112624 78483
L112624 78361
L112599 78312
L112575 78288
L112526 78263
L112429 78263
L112380 78288
L112356 78312
L112331 78361
" />
</g>
<g style="fill:#000000; fill-opacity:0.0; 
stroke:#000000; stroke-width:39.3701; stroke-opacity:1; 
stroke-linecap:round; stroke-linejoin:round;">
</g>
<g style="fill:#000000; fill-opacity:0.0; 
stroke:#000000; stroke-width:59.0551; stroke-opacity:1; 
stroke-linecap:round; stroke-linejoin:round;">
<path d="M3937 23622
L4724 23622
" />
</g>
<g style="fill:#000000; fill-opacity:0.0; 
stroke:#000000; stroke-width:39.3701; stroke-opacity:1; 
stroke-linecap:round; stroke-linejoin:round;">
</g>
<g style="fill:#000000; fill-opacity:0.0; 
stroke:#000000; stroke-width:59.0551; stroke-opacity:1; 
stroke-linecap:round; stroke-linejoin:round;">
<path d="M3937 43307
L4724 43307
" />
</g>
<g style="fill:#000000; fill-opacity:0.0; 
stroke:#000000; stroke-width:39.3701; stroke-opacity:1; 
stroke-linecap:round; stroke-linejoin:round;">
</g>
<g style="fill:#000000; fill-opacity:0.0; 
stroke:#000000; stroke-width:59.0551; stroke-opacity:1; 
stroke-linecap:round; stroke-linejoin:round;">
<path d="M3937 62992
L4724 62992
" />
</g>
<g style="fill:#000000; fill-opacity:0.0; 
stroke:#000000; stroke-width:39.3701; stroke-opacity:1; 
stroke-linecap:round; stroke-linejoin:round;">
</g>
<g style="fill:#000000; fill-opacity:0.0; 
stroke:#000000; stroke-width:59.0551; stroke-opacity:1; 
stroke-linecap:round; stroke-linejoin:round;">
<path d="M4208 13864
L4452 13864
" />
<path d="M4160 14011
L4330 13499
L4501 14011
" />
</g>
<g style="fill:#000000; fill-opacity:0.0; 
stroke:#000000; stroke-width:39.3701; stroke-opacity:1; 
stroke-linecap:round; stroke-linejoin:round;">
</g>
<g style="fill:#000000; fill-opacity:0.0; 
stroke:#000000; stroke-width:59.0551; stroke-opacity:1; 
stroke-linecap:round; stroke-linejoin:round;">
<path d="M4367 33428
L4440 33452
L4464 33476
L4489 33525
L4489 33598
L4464 33647
L4440 33671
L4391 33696
L4196 33696
L4196 33184
L4367 33184
L4416 33208
L4440 33233
L4464 33281
L4464 33330
L4440 33379
L4416 33403
L4367 33428
L4196 33428
" />
</g>
<g style="fill:#000000; fill-opacity:0.0; 
stroke:#000000; stroke-width:39.3701; stroke-opacity:1; 
stroke-linecap:round; stroke-linejoin:round;">
</g>
<g style="fill:#000000; fill-opacity:0.0; 
stroke:#000000; stroke-width:59.0551; stroke-opacity:1; 
stroke-linecap:round; stroke-linejoin:round;">
<path d="M4489 53332
L4464 53356
L4391 53381
L4342 53381
L4269 53356
L4221 53308
L4196 53259
L4172 53161
L4172 53088
L4196 52991
L4221 52942
L4269 52893
L4342 52869
L4391 52869
L4464 52893
L4489 52918
" />
</g>
<g style="fill:#000000; fill-opacity:0.0; 
stroke:#000000; stroke-width:39.3701; stroke-opacity:1; 
stroke-linecap:round; stroke-linejoin:round;">
</g>
<g style="fill:#000000; fill-opacity:0.0; 
stroke:#000000; stroke-width:59.0551; stroke-opacity:1; 
stroke-linecap:round; stroke-linejoin:round;">
<path d="M4196 73066
L4196 72554
L4318 72554
L4391 72578
L4440 72627
L4464 72676
L4489 72773
L4489 72846
L4464 72944
L4440 72993
L4391 73041
L4318 73066
L4196 73066
" />
</g>
<g style="fill:#000000; fill-opacity:0.0; 
stroke:#000000; stroke-width:39.3701; stroke-opacity:1; 
stroke-linecap:round; stroke-linejoin:round;">
</g>
<g style="fill:#000000; fill-opacity:0.0; 
stroke:#000000; stroke-width:59.0551; stroke-opacity:1; 
stroke-linecap:round; stroke-linejoin:round;">
<path d="M112992 23622
L112205 23622
" />
</g>
<g style="fill:#000000; fill-opacity:0.0; 
stroke:#000000; stroke-width:39.3701; stroke-opacity:1; 
stroke-linecap:round; stroke-linejoin:round;">
</g>
<g style="fill:#000000; fill-opacity:0.0; 
stroke:#000000; stroke-width:59.0551; stroke-opacity:1; 
stroke-linecap:round; stroke-linejoin:round;">
<path d="M112992 43307
L112205 43307
" />
</g>
<g style="fill:#000000; fill-opacity:0.0; 
stroke:#000000; stroke-width:39.3701; stroke-opacity:1; 
stroke-linecap:round; stroke-linejoin:round;">
</g>
<g style="fill:#000000; fill-opacity:0.0; 
stroke:#000000; stroke-width:59.0551; stroke-opacity:1; 
stroke-linecap:round; stroke-linejoin:round;">
<path d="M112992 62992
L112205 62992
" />
</g>
<g style="fill:#000000; fill-opacity:0.0; 
stroke:#000000; stroke-width:39.3701; stroke-opacity:1; 
stroke-linecap:round; stroke-linejoin:round;">
</g>
<g style="fill:#000000; fill-opacity:0.0; 
stroke:#000000; stroke-width:59.0551; stroke-opacity:1; 
stroke-linecap:round; stroke-linejoin:round;">
<path d="M112477 13864
L112721 13864
" />
<path d="M112428 14011
L112599 13499
L112769 14011
" />
</g>
<g style="fill:#000000; fill-opacity:0.0; 
stroke:#000000; stroke-width:39.3701; stroke-opacity:1; 
stroke-linecap:round; stroke-linejoin:round;">
</g>
<g style="fill:#000000; fill-opacity:0.0; 
stroke:#000000; stroke-width:59.0551; stroke-opacity:1; 
stroke-linecap:round; stroke-linejoin:round;">
<path d="M112635 33428
L112708 33452
L112733 33476
L112757 33525
L112757 33598
L112733 33647
L112708 33671
L112660 33696
L112465 33696
L112465 33184
L112635 33184
L112684 33208
L112708 33233
L112733 33281
L112733 33330
L112708 33379
L112684 33403
L112635 33428
L112465 33428
" />
</g>
<g style="fill:#000000; fill-opacity:0.0; 
stroke:#000000; stroke-width:39.3701; stroke-opacity:1; 
stroke-linecap:round; stroke-linejoin:round;">
</g>
<g style="fill:#000000; fill-opacity:0.0; 
stroke:#000000; stroke-width:59.0551; stroke-opacity:1; 
stroke-linecap:round; stroke-linejoin:round;">
<path d="M112757 53332
L112733 53356
L112660 53381
L112611 53381
L112538 53356
L112489 53308
L112465 53259
L112440 53161
L112440 53088
L112465 52991
L112489 52942
L112538 52893
L112611 52869
L112660 52869
L112733 52893
L112757 52918
" />
</g>
<g style="fill:#000000; fill-opacity:0.0; 
stroke:#000000; stroke-width:39.3701; stroke-opacity:1; 
stroke-linecap:round; stroke-linejoin:round;">
</g>
<g style="fill:#000000; fill-opacity:0.0; 
stroke:#000000; stroke-width:59.0551; stroke-opacity:1; 
stroke-linecap:round; stroke-linejoin:round;">
<path d="M112465 73066
L112465 72554
L112587 72554
L112660 72578
L112708 72627
L112733 72676
L112757 72773
L112757 72846
L112733 72944
L112708 72993
L112660 73041
L112587 73066
L112465 73066
" />
</g>
<g style="fill:#000000; fill-opacity:0.0; 
stroke:#000000; stroke-width:39.3701; stroke-opacity:1; 
stroke-linecap:round; stroke-linejoin:round;">
</g>
<g style="fill:#000000; fill-opacity:0.0; 
stroke:#000000; stroke-width:59.0551; stroke-opacity:1; 
stroke-linecap:round; stroke-linejoin:round;">
<path d="M78911 76293
L78911 75703
L79051 75703
L79136 75731
L79192 75787
L79220 75843
L79248 75956
L79248 76040
L79220 76153
L79192 76209
L79136 76265
L79051 76293
L78911 76293
" />
<path d="M79754 76293
L79754 75984
L79726 75928
L79670 75899
L79557 75899
L79501 75928
" />
<path d="M79754 76265
L79698 76293
L79557 76293
L79501 76265
L79473 76209
L79473 76153
L79501 76096
L79557 76068
L79698 76068
L79754 76040
" />
<path d="M79951 75899
L80176 75899
" />
<path d="M80036 75703
L80036 76209
L80064 76265
L80120 76293
L80176 76293
" />
<path d="M80598 76265
L80542 76293
L80429 76293
L80373 76265
L80345 76209
L80345 75984
L80373 75928
L80429 75899
L80542 75899
L80598 75928
L80626 75984
L80626 76040
L80345 76096
" />
<path d="M80879 76237
L80907 76265
L80879 76293
L80851 76265
L80879 76237
L80879 76293
" />
<path d="M80879 75928
L80907 75956
L80879 75984
L80851 75956
L80879 75928
L80879 75984
" />
</g>
<g style="fill:#000000; fill-opacity:0.0; 
stroke:#000000; stroke-width:39.3701; stroke-opacity:1; 
stroke-linecap:round; stroke-linejoin:round;">
</g>
<g style="fill:#000000; fill-opacity:0.0; 
stroke:#000000; stroke-width:59.0551; stroke-opacity:1; 
stroke-linecap:round; stroke-linejoin:round;">
<path d="M69685 76577
L112205 76577
" />
</g>
<g style="fill:#000000; fill-opacity:0.0; 
stroke:#000000; stroke-width:39.3701; stroke-opacity:1; 
stroke-linecap:round; stroke-linejoin:round;">
</g>
<g style="fill:#000000; fill-opacity:0.0; 
stroke:#000000; stroke-width:59.0551; stroke-opacity:1; 
stroke-linecap:round; stroke-linejoin:round;">
<path d="M70249 77395
L70249 76805
" />
<path d="M70587 77395
L70334 77058
" />
<path d="M70587 76805
L70249 77142
" />
<path d="M70840 77395
L70840 77002
" />
<path d="M70840 76805
L70812 76833
L70840 76861
L70868 76833
L70840 76805
L70840 76861
" />
<path d="M71458 77339
L71430 77367
L71346 77395
L71290 77395
L71205 77367
L71149 77311
L71121 77255
L71093 77142
L71093 77058
L71121 76946
L71149 76889
L71205 76833
L71290 76805
L71346 76805
L71430 76833
L71458 76861
" />
<path d="M71965 77395
L71965 77086
L71937 77030
L71880 77002
L71768 77002
L71712 77030
" />
<path d="M71965 77367
L71908 77395
L71768 77395
L71712 77367
L71683 77311
L71683 77255
L71712 77199
L71768 77171
L71908 77171
L71965 77142
" />
<path d="M72499 77395
L72499 76805
" />
<path d="M72499 77367
L72443 77395
L72330 77395
L72274 77367
L72246 77339
L72218 77283
L72218 77114
L72246 77058
L72274 77030
L72330 77002
L72443 77002
L72499 77030
" />
<path d="M73230 77086
L73427 77086
" />
<path d="M73511 77395
L73230 77395
L73230 76805
L73511 76805
" />
<path d="M73764 77339
L73793 77367
L73764 77395
L73736 77367
L73764 77339
L73764 77395
" />
<path d="M74046 77395
L74046 76805
L74186 76805
L74271 76833
L74327 76889
L74355 76946
L74383 77058
L74383 77142
L74355 77255
L74327 77311
L74271 77367
L74186 77395
L74046 77395
" />
<path d="M74636 77339
L74664 77367
L74636 77395
L74608 77367
L74636 77339
L74636 77395
" />
<path d="M74889 77227
L75171 77227
" />
<path d="M74833 77395
L75030 76805
L75227 77395
" />
<path d="M75424 77339
L75452 77367
L75424 77395
L75395 77367
L75424 77339
L75424 77395
" />
<path d="M76605 77395
L76605 76805
" />
<path d="M76661 77171
L76830 77395
" />
<path d="M76830 77002
L76605 77227
" />
<path d="M77083 77395
L77083 77002
" />
<path d="M77083 76805
L77055 76833
L77083 76861
L77111 76833
L77083 76805
L77083 76861
" />
<path d="M77617 77367
L77561 77395
L77448 77395
L77392 77367
L77364 77339
L77336 77283
L77336 77114
L77364 77058
L77392 77030
L77448 77002
L77561 77002
L77617 77030
" />
<path d="M78123 77395
L78123 77086
L78095 77030
L78039 77002
L77926 77002
L77870 77030
" />
<path d="M78123 77367
L78067 77395
L77926 77395
L77870 77367
L77842 77311
L77842 77255
L77870 77199
L77926 77171
L78067 77171
L78123 77142
" />
<path d="M78658 77395
L78658 76805
" />
<path d="M78658 77367
L78601 77395
L78489 77395
L78433 77367
L78404 77339
L78376 77283
L78376 77114
L78404 77058
L78433 77030
L78489 77002
L78601 77002
L78658 77030
" />
<path d="M79557 77620
L79529 77592
L79473 77508
L79445 77452
L79417 77367
L79389 77227
L79389 77114
L79417 76974
L79445 76889
L79473 76833
L79529 76749
L79557 76721
" />
<path d="M80064 76805
L79782 76805
L79754 77086
L79782 77058
L79839 77030
L79979 77030
L80036 77058
L80064 77086
L80092 77142
L80092 77283
L80064 77339
L80036 77367
L79979 77395
L79839 77395
L79782 77367
L79754 77339
" />
<path d="M80345 77339
L80373 77367
L80345 77395
L80317 77367
L80345 77339
L80345 77395
" />
<path d="M80935 77395
L80598 77395
" />
<path d="M80767 77395
L80767 76805
L80710 76889
L80654 76946
L80598 76974
" />
<path d="M81188 77339
L81217 77367
L81188 77395
L81160 77367
L81188 77339
L81188 77395
" />
<path d="M81442 76861
L81470 76833
L81526 76805
L81667 76805
L81723 76833
L81751 76861
L81779 76917
L81779 76974
L81751 77058
L81413 77395
L81779 77395
" />
<path d="M81976 77620
L82004 77592
L82060 77508
L82088 77452
L82117 77367
L82145 77227
L82145 77114
L82117 76974
L82088 76889
L82060 76833
L82004 76749
L81976 76721
" />
<path d="M82426 77171
L82876 77171
" />
<path d="M83466 77395
L83129 77395
" />
<path d="M83298 77395
L83298 76805
L83241 76889
L83185 76946
L83129 76974
" />
</g>
<g style="fill:#000000; fill-opacity:0.0; 
stroke:#000000; stroke-width:39.3701; stroke-opacity:1; 
stroke-linecap:round; stroke-linejoin:round;">
</g>
<g style="fill:#000000; fill-opacity:0.0; 
stroke:#000000; stroke-width:59.0551; stroke-opacity:1; 
stroke-linecap:round; stroke-linejoin:round;">
<path d="M69685 75396
L112205 75396
" />
</g>
<g style="fill:#000000; fill-opacity:0.0; 
stroke:#000000; stroke-width:39.3701; stroke-opacity:1; 
stroke-linecap:round; stroke-linejoin:round;">
</g>
<g style="fill:#000000; fill-opacity:0.0; 
stroke:#000000; stroke-width:118.11; stroke-opacity:1; 
stroke-linecap:round; stroke-linejoin:round;">
<path d="M104099 76293
L103902 76012
" />
<path d="M103761 76293
L103761 75703
L103986 75703
L104042 75731
L104070 75759
L104099 75815
L104099 75899
L104070 75956
L104042 75984
L103986 76012
L103761 76012
" />
<path d="M104577 76265
L104520 76293
L104408 76293
L104352 76265
L104323 76209
L104323 75984
L104352 75928
L104408 75899
L104520 75899
L104577 75928
L104605 75984
L104605 76040
L104323 76096
" />
<path d="M104802 75899
L104942 76293
L105083 75899
" />
<path d="M105308 76237
L105336 76265
L105308 76293
L105280 76265
L105308 76237
L105308 76293
" />
<path d="M105308 75928
L105336 75956
L105308 75984
L105280 75956
L105308 75928
L105308 75984
" />
</g>
<g style="fill:#000000; fill-opacity:0.0; 
stroke:#000000; stroke-width:39.3701; stroke-opacity:1; 
stroke-linecap:round; stroke-linejoin:round;">
</g>
<g style="fill:#000000; fill-opacity:0.0; 
stroke:#000000; stroke-width:59.0551; stroke-opacity:1; 
stroke-linecap:round; stroke-linejoin:round;">
<path d="M70221 76265
L70305 76293
L70446 76293
L70502 76265
L70530 76237
L70559 76181
L70559 76124
L70530 76068
L70502 76040
L70446 76012
L70334 75984
L70277 75956
L70249 75928
L70221 75871
L70221 75815
L70249 75759
L70277 75731
L70334 75703
L70474 75703
L70559 75731
" />
<path d="M70812 76293
L70812 75899
" />
<path d="M70812 75703
L70784 75731
L70812 75759
L70840 75731
L70812 75703
L70812 75759
" />
<path d="M71037 75899
L71346 75899
L71037 76293
L71346 76293
" />
<path d="M71796 76265
L71740 76293
L71627 76293
L71571 76265
L71543 76209
L71543 75984
L71571 75928
L71627 75899
L71740 75899
L71796 75928
L71824 75984
L71824 76040
L71543 76096
" />
<path d="M72077 76237
L72105 76265
L72077 76293
L72049 76265
L72077 76237
L72077 76293
" />
<path d="M72077 75928
L72105 75956
L72077 75984
L72049 75956
L72077 75928
L72077 75984
" />
<path d="M72780 76124
L73061 76124
" />
<path d="M72724 76293
L72921 75703
L73118 76293
" />
<path d="M73568 75899
L73568 76293
" />
<path d="M73427 75674
L73286 76096
L73652 76096
" />
</g>
<g style="fill:#000000; fill-opacity:0.0; 
stroke:#000000; stroke-width:39.3701; stroke-opacity:1; 
stroke-linecap:round; stroke-linejoin:round;">
</g>
<g style="fill:#000000; fill-opacity:0.0; 
stroke:#000000; stroke-width:59.0551; stroke-opacity:1; 
stroke-linecap:round; stroke-linejoin:round;">
<path d="M103714 77395
L103714 76805
" />
<path d="M104248 77395
L104248 76805
" />
<path d="M104248 77367
L104192 77395
L104079 77395
L104023 77367
L103995 77339
L103967 77283
L103967 77114
L103995 77058
L104023 77030
L104079 77002
L104192 77002
L104248 77030
" />
<path d="M104529 77339
L104557 77367
L104529 77395
L104501 77367
L104529 77339
L104529 77395
" />
<path d="M104529 77030
L104557 77058
L104529 77086
L104501 77058
L104529 77030
L104529 77086
" />
<path d="M105570 77395
L105232 77395
" />
<path d="M105401 77395
L105401 76805
L105345 76889
L105289 76946
L105232 76974
" />
<path d="M106245 76777
L105739 77536
" />
<path d="M106751 77395
L106413 77395
" />
<path d="M106582 77395
L106582 76805
L106526 76889
L106470 76946
L106413 76974
" />
</g>
<g style="fill:#000000; fill-opacity:0.0; 
stroke:#000000; stroke-width:39.3701; stroke-opacity:1; 
stroke-linecap:round; stroke-linejoin:round;">
</g>
<g style="fill:#000000; fill-opacity:0.0; 
stroke:#000000; stroke-width:59.0551; stroke-opacity:1; 
stroke-linecap:round; stroke-linejoin:round;">
<path d="M69685 73821
L112205 73821
" />
</g>
<g style="fill:#000000; fill-opacity:0.0; 
stroke:#000000; stroke-width:39.3701; stroke-opacity:1; 
stroke-linecap:round; stroke-linejoin:round;">
</g>
<g style="fill:#000000; fill-opacity:0.0; 
stroke:#000000; stroke-width:157.48; stroke-opacity:1; 
stroke-linecap:round; stroke-linejoin:round;">
<path d="M70360 74099
L70810 74099
" />
<path d="M70486 74886
L70585 74099
" />
<path d="M70974 74886
L71039 74361
" />
<path d="M71072 74099
L71030 74136
L71063 74174
L71105 74136
L71072 74099
L71063 74174
" />
<path d="M71302 74361
L71602 74361
" />
<path d="M71447 74099
L71363 74774
L71391 74849
L71461 74886
L71536 74886
" />
<path d="M71911 74886
L71841 74849
L71813 74774
L71897 74099
" />
<path d="M72516 74849
L72436 74886
L72286 74886
L72216 74849
L72187 74774
L72225 74474
L72272 74399
L72352 74361
L72501 74361
L72572 74399
L72600 74474
L72591 74549
L72206 74624
" />
<path d="M72895 74811
L72928 74849
L72886 74886
L72853 74849
L72895 74811
L72886 74886
" />
<path d="M72947 74399
L72980 74436
L72937 74474
L72905 74436
L72947 74399
L72937 74474
" />
</g>
<g style="fill:#000000; fill-opacity:0.0; 
stroke:#000000; stroke-width:39.3701; stroke-opacity:1; 
stroke-linecap:round; stroke-linejoin:round;">
</g>
<g style="fill:#000000; fill-opacity:0.0; 
stroke:#000000; stroke-width:59.0551; stroke-opacity:1; 
stroke-linecap:round; stroke-linejoin:round;">
<path d="M70446 73070
L70249 73070
" />
<path d="M70249 73380
L70249 72789
L70530 72789
" />
<path d="M70755 73380
L70755 72986
" />
<path d="M70755 72789
L70727 72817
L70755 72845
L70784 72817
L70755 72789
L70755 72845
" />
<path d="M71121 73380
L71065 73352
L71037 73295
L71037 72789
" />
<path d="M71571 73352
L71515 73380
L71402 73380
L71346 73352
L71318 73295
L71318 73070
L71346 73014
L71402 72986
L71515 72986
L71571 73014
L71599 73070
L71599 73127
L71318 73183
" />
<path d="M71852 73323
L71880 73352
L71852 73380
L71824 73352
L71852 73323
L71852 73380
" />
<path d="M71852 73014
L71880 73042
L71852 73070
L71824 73042
L71852 73014
L71852 73070
" />
<path d="M72555 73211
L72836 73211
" />
<path d="M72499 73380
L72696 72789
L72893 73380
" />
<path d="M73090 72986
L73090 73380
" />
<path d="M73090 73042
L73118 73014
L73174 72986
L73258 72986
L73314 73014
L73343 73070
L73343 73380
" />
<path d="M73539 72986
L73764 72986
" />
<path d="M73624 72789
L73624 73295
L73652 73352
L73708 73380
L73764 73380
" />
<path d="M73961 73380
L73961 72986
" />
<path d="M73961 72789
L73933 72817
L73961 72845
L73989 72817
L73961 72789
L73961 72845
" />
<path d="M74242 73155
L74692 73155
" />
<path d="M74946 73352
L75030 73380
L75171 73380
L75227 73352
L75255 73323
L75283 73267
L75283 73211
L75255 73155
L75227 73127
L75171 73099
L75058 73070
L75002 73042
L74974 73014
L74946 72958
L74946 72902
L74974 72845
L75002 72817
L75058 72789
L75199 72789
L75283 72817
" />
<path d="M75536 72986
L75536 73577
" />
<path d="M75536 73014
L75592 72986
L75705 72986
L75761 73014
L75789 73042
L75817 73099
L75817 73267
L75789 73323
L75761 73352
L75705 73380
L75592 73380
L75536 73352
" />
<path d="M76323 73380
L76323 73070
L76295 73014
L76239 72986
L76127 72986
L76070 73014
" />
<path d="M76323 73352
L76267 73380
L76127 73380
L76070 73352
L76042 73295
L76042 73239
L76070 73183
L76127 73155
L76267 73155
L76323 73127
" />
<path d="M76605 73380
L76605 72986
" />
<path d="M76605 73099
L76633 73042
L76661 73014
L76717 72986
L76773 72986
" />
<path d="M76970 73380
L76970 72789
" />
<path d="M77027 73155
L77195 73380
" />
<path d="M77195 72986
L76970 73211
" />
<path d="M77448 73323
L77476 73352
L77448 73380
L77420 73352
L77448 73323
L77448 73380
" />
<path d="M77730 73380
L77730 72789
" />
<path d="M77786 73155
L77955 73380
" />
<path d="M77955 72986
L77730 73211
" />
<path d="M78208 73380
L78208 72986
" />
<path d="M78208 72789
L78180 72817
L78208 72845
L78236 72817
L78208 72789
L78208 72845
" />
<path d="M78742 73352
L78686 73380
L78573 73380
L78517 73352
L78489 73323
L78461 73267
L78461 73099
L78489 73042
L78517 73014
L78573 72986
L78686 72986
L78742 73014
" />
<path d="M79248 73380
L79248 73070
L79220 73014
L79164 72986
L79051 72986
L78995 73014
" />
<path d="M79248 73352
L79192 73380
L79051 73380
L78995 73352
L78967 73295
L78967 73239
L78995 73183
L79051 73155
L79192 73155
L79248 73127
" />
<path d="M79782 73380
L79782 72789
" />
<path d="M79782 73352
L79726 73380
L79614 73380
L79557 73352
L79529 73323
L79501 73267
L79501 73099
L79529 73042
L79557 73014
L79614 72986
L79726 72986
L79782 73014
" />
<path d="M79923 73436
L80373 73436
" />
<path d="M80514 72986
L80514 73577
" />
<path d="M80514 73014
L80570 72986
L80682 72986
L80739 73014
L80767 73042
L80795 73099
L80795 73267
L80767 73323
L80739 73352
L80682 73380
L80570 73380
L80514 73352
" />
<path d="M81301 73352
L81245 73380
L81132 73380
L81076 73352
L81048 73323
L81020 73267
L81020 73099
L81048 73042
L81076 73014
L81132 72986
L81245 72986
L81301 73014
" />
<path d="M81554 73380
L81554 72789
" />
<path d="M81554 73014
L81610 72986
L81723 72986
L81779 73014
L81807 73042
L81835 73099
L81835 73267
L81807 73323
L81779 73352
L81723 73380
L81610 73380
L81554 73352
" />
</g>
<g style="fill:#000000; fill-opacity:0.0; 
stroke:#000000; stroke-width:39.3701; stroke-opacity:1; 
stroke-linecap:round; stroke-linejoin:round;">
</g>
<g style="fill:#000000; fill-opacity:0.0; 
stroke:#000000; stroke-width:59.0551; stroke-opacity:1; 
stroke-linecap:round; stroke-linejoin:round;">
<path d="M69685 71459
L112205 71459
" />
</g>
<g style="fill:#000000; fill-opacity:0.0; 
stroke:#000000; stroke-width:39.3701; stroke-opacity:1; 
stroke-linecap:round; stroke-linejoin:round;">
</g>
<g style="fill:#000000; fill-opacity:0.0; 
stroke:#000000; stroke-width:59.0551; stroke-opacity:1; 
stroke-linecap:round; stroke-linejoin:round;">
<path d="M70221 72289
L70305 72317
L70446 72317
L70502 72289
L70530 72260
L70559 72204
L70559 72148
L70530 72092
L70502 72064
L70446 72036
L70334 72007
L70277 71979
L70249 71951
L70221 71895
L70221 71839
L70249 71782
L70277 71754
L70334 71726
L70474 71726
L70559 71754
" />
<path d="M70812 72317
L70812 71726
" />
<path d="M71065 72317
L71065 72007
L71037 71951
L70980 71923
L70896 71923
L70840 71951
L70812 71979
" />
<path d="M71571 72289
L71515 72317
L71402 72317
L71346 72289
L71318 72232
L71318 72007
L71346 71951
L71402 71923
L71515 71923
L71571 71951
L71599 72007
L71599 72064
L71318 72120
" />
<path d="M72077 72289
L72021 72317
L71908 72317
L71852 72289
L71824 72232
L71824 72007
L71852 71951
L71908 71923
L72021 71923
L72077 71951
L72105 72007
L72105 72064
L71824 72120
" />
<path d="M72274 71923
L72499 71923
" />
<path d="M72358 71726
L72358 72232
L72386 72289
L72443 72317
L72499 72317
" />
<path d="M72696 72260
L72724 72289
L72696 72317
L72668 72289
L72696 72260
L72696 72317
" />
<path d="M72696 71951
L72724 71979
L72696 72007
L72668 71979
L72696 71951
L72696 72007
" />
</g>
<g style="fill:#000000; fill-opacity:0.0; 
stroke:#000000; stroke-width:39.3701; stroke-opacity:1; 
stroke-linecap:round; stroke-linejoin:round;">
</g>
<g style="fill:#000000; fill-opacity:0.0; 
stroke:#000000; stroke-width:59.0551; stroke-opacity:1; 
stroke-linecap:round; stroke-linejoin:round;">
<path d="M77559 75396
L77559 76577
" />
</g>
<g style="fill:#000000; fill-opacity:0.0; 
stroke:#000000; stroke-width:39.3701; stroke-opacity:1; 
stroke-linecap:round; stroke-linejoin:round;">
</g>
<g style="fill:#000000; fill-opacity:0.0; 
stroke:#000000; stroke-width:59.0551; stroke-opacity:1; 
stroke-linecap:round; stroke-linejoin:round;">
<path d="M102756 75396
L102756 77955
" />
</g>
<g style="fill:#008484; fill-opacity:0.0; 
stroke:#008484; stroke-width:59.0551; stroke-opacity:1; 
stroke-linecap:round; stroke-linejoin:round;">
<path d="M29484 23599
L29671 23599
" />
<path d="M29446 23711
L29578 23317
L29709 23711
" />
<path d="M29840 23449
L29840 23711
" />
<path d="M29840 23486
L29859 23467
L29896 23449
L29953 23449
L29990 23467
L30009 23505
L30009 23711
" />
<path d="M30140 23449
L30290 23449
" />
<path d="M30196 23317
L30196 23655
L30215 23692
L30253 23711
L30290 23711
" />
<path d="M30421 23711
L30421 23449
" />
<path d="M30421 23317
L30403 23336
L30421 23355
L30440 23336
L30421 23317
L30421 23355
" />
<path d="M30590 23692
L30646 23711
L30740 23711
L30778 23692
L30796 23674
L30815 23636
L30815 23599
L30796 23561
L30778 23542
L30740 23524
L30665 23505
L30628 23486
L30609 23467
L30590 23430
L30590 23392
L30609 23355
L30628 23336
L30665 23317
L30759 23317
L30815 23336
" />
<path d="M30984 23449
L30984 23842
" />
<path d="M30984 23467
L31021 23449
L31096 23449
L31134 23467
L31152 23486
L31171 23524
L31171 23636
L31152 23674
L31134 23692
L31096 23711
L31021 23711
L30984 23692
" />
<path d="M31509 23711
L31509 23505
L31490 23467
L31452 23449
L31377 23449
L31340 23467
" />
<path d="M31509 23692
L31471 23711
L31377 23711
L31340 23692
L31321 23655
L31321 23617
L31340 23580
L31377 23561
L31471 23561
L31509 23542
" />
<path d="M31696 23711
L31696 23449
" />
<path d="M31696 23524
L31715 23486
L31734 23467
L31771 23449
L31809 23449
" />
<path d="M31940 23711
L31940 23317
" />
<path d="M31977 23561
L32090 23711
" />
<path d="M32090 23449
L31940 23599
" />
<path d="M32502 23317
L32634 23711
L32765 23317
" />
<path d="M32971 23317
L33008 23317
L33046 23336
L33065 23355
L33083 23392
L33102 23467
L33102 23561
L33083 23636
L33065 23674
L33046 23692
L33008 23711
L32971 23711
L32934 23692
L32915 23674
L32896 23636
L32877 23561
L32877 23467
L32896 23392
L32915 23355
L32934 23336
L32971 23317
" />
<path d="M33271 23674
L33290 23692
L33271 23711
L33252 23692
L33271 23674
L33271 23711
" />
<path d="M33665 23711
L33440 23711
" />
<path d="M33552 23711
L33552 23317
L33515 23374
L33477 23411
L33440 23430
" />
<path d="M30431 23967
L30468 23967
L30506 23986
L30524 24004
L30543 24042
L30562 24117
L30562 24211
L30543 24286
L30524 24323
L30506 24342
L30468 24361
L30431 24361
L30393 24342
L30374 24323
L30356 24286
L30337 24211
L30337 24117
L30356 24042
L30374 24004
L30393 23986
L30431 23967
" />
<path d="M30749 24361
L30824 24361
L30862 24342
L30881 24323
L30918 24267
L30937 24192
L30937 24042
L30918 24004
L30899 23986
L30862 23967
L30787 23967
L30749 23986
L30731 24004
L30712 24042
L30712 24136
L30731 24173
L30749 24192
L30787 24211
L30862 24211
L30899 24192
L30918 24173
L30937 24136
" />
<path d="M31106 24323
L31124 24342
L31106 24361
L31087 24342
L31106 24323
L31106 24361
" />
<path d="M31368 23967
L31406 23967
L31443 23986
L31462 24004
L31481 24042
L31499 24117
L31499 24211
L31481 24286
L31462 24323
L31443 24342
L31406 24361
L31368 24361
L31331 24342
L31312 24323
L31293 24286
L31274 24211
L31274 24117
L31293 24042
L31312 24004
L31331 23986
L31368 23967
" />
<path d="M31687 24361
L31762 24361
L31799 24342
L31818 24323
L31856 24267
L31874 24192
L31874 24042
L31856 24004
L31837 23986
L31799 23967
L31724 23967
L31687 23986
L31668 24004
L31649 24042
L31649 24136
L31668 24173
L31687 24192
L31724 24211
L31799 24211
L31837 24192
L31856 24173
L31874 24136
" />
<path d="M32043 24323
L32062 24342
L32043 24361
L32024 24342
L32043 24323
L32043 24361
" />
<path d="M32437 24361
L32212 24361
" />
<path d="M32324 24361
L32324 23967
L32287 24023
L32249 24061
L32212 24079
" />
<path d="M32624 24361
L32699 24361
L32737 24342
L32755 24323
L32793 24267
L32812 24192
L32812 24042
L32793 24004
L32774 23986
L32737 23967
L32662 23967
L32624 23986
L32605 24004
L32587 24042
L32587 24136
L32605 24173
L32624 24192
L32662 24211
L32737 24211
L32774 24192
L32793 24173
L32812 24136
" />
</g>
<g style="fill:#008484; fill-opacity:0.0; 
stroke:#008484; stroke-width:49.2126; stroke-opacity:1; 
stroke-linecap:round; stroke-linejoin:round;">
<path d="M38882 24410
L38910 24419
L38957 24419
L38976 24410
L38985 24401
L38995 24382
L38995 24363
L38985 24344
L38976 24335
L38957 24326
L38920 24316
L38901 24307
L38892 24297
L38882 24279
L38882 24260
L38892 24241
L38901 24232
L38920 24222
L38967 24222
L38995 24232
" />
<path d="M39060 24222
L39107 24419
L39145 24279
L39182 24419
L39229 24222
" />
<path d="M39304 24344
L39454 24344
" />
<path d="M38038 24232
L38020 24222
L37992 24222
L37964 24232
L37945 24251
L37935 24269
L37926 24307
L37926 24335
L37935 24372
L37945 24391
L37964 24410
L37992 24419
L38010 24419
L38038 24410
L38048 24401
L38048 24335
L38010 24335
" />
<path d="M38132 24419
L38132 24222
L38245 24419
L38245 24222
" />
<path d="M38338 24419
L38338 24222
L38385 24222
L38413 24232
L38432 24251
L38442 24269
L38451 24307
L38451 24335
L38442 24372
L38432 24391
L38413 24410
L38385 24419
L38338 24419
" />
<path d="M37082 24419
L36970 24419
" />
<path d="M37026 24419
L37026 24222
L37007 24251
L36989 24269
L36970 24279
" />
<path d="M37157 24241
L37167 24232
L37185 24222
L37232 24222
L37251 24232
L37260 24241
L37270 24260
L37270 24279
L37260 24307
L37148 24419
L37270 24419
" />
<path d="M37326 24222
L37392 24419
L37457 24222
" />
<path d="M35890 24410
L35918 24419
L35965 24419
L35984 24410
L35993 24401
L36002 24382
L36002 24363
L35993 24344
L35984 24335
L35965 24326
L35928 24316
L35909 24307
L35899 24297
L35890 24279
L35890 24260
L35899 24241
L35909 24232
L35928 24222
L35974 24222
L36002 24232
" />
<path d="M36068 24222
L36115 24419
L36152 24279
L36190 24419
L36237 24222
" />
<path d="M36312 24344
L36462 24344
" />
<path d="M36387 24419
L36387 24269
" />
</g>
<g style="fill:#008484; fill-opacity:0.0; 
stroke:#008484; stroke-width:78.7402; stroke-opacity:1; 
stroke-linecap:round; stroke-linejoin:round;">
</g>
<g style="fill:#008484; fill-opacity:1.0; 
stroke:#008484; stroke-width:0; stroke-opacity:1; 
stroke-linecap:round; stroke-linejoin:round;">
<circle cx="53379.5" cy="18091.7" r="55.9843" /> 
</g>
<g style="fill:#008484; fill-opacity:1.0; 
stroke:#008484; stroke-width:78.7402; stroke-opacity:1; 
stroke-linecap:round; stroke-linejoin:round;">
</g>
<g style="fill:#008484; fill-opacity:0.0; 
stroke:#008484; stroke-width:78.7402; stroke-opacity:1; 
stroke-linecap:round; stroke-linejoin:round;">
<path d="M52834 16338
L50866 16338
" />
<path d="M50866 18307
L52834 18307
" />
</g>
<g style="fill:#008484; fill-opacity:1.0; 
stroke:#008484; stroke-width:0; stroke-opacity:1; 
stroke-linecap:round; stroke-linejoin:round;">
<circle cx="53379.5" cy="20099.6" r="55.9843" /> 
</g>
<g style="fill:#008484; fill-opacity:1.0; 
stroke:#008484; stroke-width:78.7402; stroke-opacity:1; 
stroke-linecap:round; stroke-linejoin:round;">
</g>
<g style="fill:#008484; fill-opacity:0.0; 
stroke:#008484; stroke-width:78.7402; stroke-opacity:1; 
stroke-linecap:round; stroke-linejoin:round;">
<path d="M52834 18346
L50866 18346
" />
<path d="M50866 20314
L52834 20314
" />
</g>
<g style="fill:#008484; fill-opacity:1.0; 
stroke:#008484; stroke-width:0; stroke-opacity:1; 
stroke-linecap:round; stroke-linejoin:round;">
<circle cx="53379.5" cy="22107.5" r="55.9843" /> 
</g>
<g style="fill:#008484; fill-opacity:1.0; 
stroke:#008484; stroke-width:78.7402; stroke-opacity:1; 
stroke-linecap:round; stroke-linejoin:round;">
</g>
<g style="fill:#008484; fill-opacity:0.0; 
stroke:#008484; stroke-width:78.7402; stroke-opacity:1; 
stroke-linecap:round; stroke-linejoin:round;">
<path d="M52834 20354
L50866 20354
" />
<path d="M50866 22322
L52834 22322
" />
</g>
<g style="fill:#008484; fill-opacity:1.0; 
stroke:#008484; stroke-width:0; stroke-opacity:1; 
stroke-linecap:round; stroke-linejoin:round;">
<circle cx="53379.5" cy="24115.4" r="55.9843" /> 
</g>
<g style="fill:#008484; fill-opacity:1.0; 
stroke:#008484; stroke-width:78.7402; stroke-opacity:1; 
stroke-linecap:round; stroke-linejoin:round;">
</g>
<g style="fill:#008484; fill-opacity:0.0; 
stroke:#008484; stroke-width:78.7402; stroke-opacity:1; 
stroke-linecap:round; stroke-linejoin:round;">
<path d="M52834 22362
L50866 22362
" />
<path d="M50866 24330
L52834 24330
" />
</g>
<g style="fill:#008484; fill-opacity:1.0; 
stroke:#008484; stroke-width:0; stroke-opacity:1; 
stroke-linecap:round; stroke-linejoin:round;">
<circle cx="53379.5" cy="16083.9" r="55.9843" /> 
</g>
<g style="fill:#008484; fill-opacity:1.0; 
stroke:#008484; stroke-width:78.7402; stroke-opacity:1; 
stroke-linecap:round; stroke-linejoin:round;">
</g>
<g style="fill:#008484; fill-opacity:0.0; 
stroke:#008484; stroke-width:78.7402; stroke-opacity:1; 
stroke-linecap:round; stroke-linejoin:round;">
<path d="M52834 14330
L50866 14330
" />
<path d="M50866 16299
L52834 16299
" />
<path d="M34803 19940
L35354 19940
" />
</g>
<g style="fill:#008484; fill-opacity:0.0; 
stroke:#008484; stroke-width:47.2441; stroke-opacity:1; 
stroke-linecap:round; stroke-linejoin:round;">
<path d="M40255 24232
L40255 23740
" />
<path d="M39763 24232
L40255 24232
" />
<path d="M35472 22066
L37657 22066
" />
<path d="M35472 23228
L35472 22066
" />
<path d="M35177 23228
L35472 23228
" />
<path d="M39842 22066
L37657 22066
" />
<path d="M39842 23228
L39842 22066
" />
<path d="M40137 23228
L39842 23228
" />
<path d="M35177 24114
L35885 24114
" />
<path d="M35177 23818
L35177 24114
" />
<path d="M35885 23818
L35177 23818
" />
<path d="M35885 24114
L35885 23818
" />
<path d="M39429 24114
L40137 24114
" />
<path d="M39429 23818
L39429 24114
" />
<path d="M40137 23818
L39429 23818
" />
<path d="M40137 24114
L40137 23818
" />
<path d="M36476 24114
L38838 24114
" />
<path d="M36476 23818
L36476 24114
" />
<path d="M38838 23818
L36476 23818
" />
<path d="M38838 24114
L38838 23818
" />
<path d="M35173 24118
L40141 24118
" />
<path d="M35173 21767
L35173 24118
" />
<path d="M40141 21767
L35173 21767
" />
<path d="M40141 24118
L40141 21767
" />
<path d="M37511 14553
L40661 14553
" />
<path d="M40661 14553
L40661 19277
" />
<path d="M40661 19277
L34362 19277
" />
<path d="M34362 19277
L34362 14553
" />
<path d="M34362 14553
L37511 14553
" />
<path d="M39874 14553
L39874 19277
" />
<path d="M39874 19277
L39480 19277
" />
<path d="M39480 19277
L39480 14553
" />
<path d="M39480 14553
L35149 14553
" />
<path d="M35149 14553
L35149 19277
" />
<path d="M35149 19277
L35543 19277
" />
<path d="M35543 19277
L35543 14553
" />
<path d="M31606 19474
L31606 20104
" />
<path d="M43417 19474
L43417 20183
" />
<path d="M39424 20665
L39630 20665
" />
<path d="M39424 21224
L39630 21224
" />
<path d="M37899 19917
L38104 19917
" />
<path d="M37899 20476
L38104 20476
" />
<path d="M39640 20476
L39434 20476
" />
<path d="M39640 19917
L39434 19917
" />
<path d="M37918 20665
L38124 20665
" />
<path d="M37918 21224
L38124 21224
" />
</g>
<g style="fill:#008484; fill-opacity:0.0; 
stroke:#008484; stroke-width:78.7402; stroke-opacity:1; 
stroke-linecap:round; stroke-linejoin:round;">
<path d="M43026 21784
L41570 21784
" />
<path d="M41570 21784
L41570 19816
" />
<path d="M41570 19816
L43026 19816
" />
<path d="M43026 19816
L43026 21784
" />
<path d="M43745 21922
L43164 21922
" />
</g>
<g style="fill:#008484; fill-opacity:0.0; 
stroke:#008484; stroke-width:47.2441; stroke-opacity:1; 
stroke-linecap:round; stroke-linejoin:round;">
<path d="M41235 22161
L41441 22161
" />
<path d="M41235 22720
L41441 22720
" />
<path d="M44208 21363
L44208 21569
" />
<path d="M44767 21363
L44767 21569
" />
<path d="M45565 23507
L45359 23507
" />
<path d="M45565 22948
L45359 22948
" />
<path d="M45334 22598
L46003 22598
" />
<path d="M46003 22598
L46003 21358
" />
<path d="M45334 22598
L45334 21358
" />
<path d="M44984 20358
L44779 20358
" />
<path d="M44984 19799
L44779 19799
" />
<path d="M41451 23145
L41245 23145
" />
<path d="M41451 23704
L41245 23704
" />
<path d="M42800 22148
L43006 22148
" />
<path d="M42800 22707
L43006 22707
" />
<path d="M44011 22938
L44011 23144
" />
<path d="M44570 22938
L44570 23144
" />
</g>
<g style="fill:#008484; fill-opacity:0.0; 
stroke:#008484; stroke-width:59.0551; stroke-opacity:1; 
stroke-linecap:round; stroke-linejoin:round;">
<path d="M42182 24422
L41994 24553
" />
<path d="M42182 24647
L41788 24647
L41788 24497
L41807 24460
L41825 24441
L41863 24422
L41919 24422
L41957 24441
L41975 24460
L41994 24497
L41994 24647
" />
<path d="M41975 24253
L41975 24122
" />
<path d="M42182 24066
L42182 24253
L41788 24253
L41788 24066
" />
<path d="M41975 23766
L41975 23897
" />
<path d="M42182 23897
L41788 23897
L41788 23710
" />
<path d="M41788 23503
L41882 23503
" />
<path d="M41844 23597
L41882 23503
L41844 23410
" />
<path d="M41957 23560
L41882 23503
L41957 23447
" />
<path d="M41788 23203
L41882 23203
" />
<path d="M41844 23297
L41882 23203
L41844 23110
" />
<path d="M41957 23260
L41882 23203
L41957 23147
" />
</g>
<g style="fill:#008484; fill-opacity:0.0; 
stroke:#008484; stroke-width:100; stroke-opacity:1; 
stroke-linecap:round; stroke-linejoin:round;">
<path d="M52766 17529
L52742 17576
L52695 17624
L52623 17695
L52600 17743
L52600 17791
" />
<path d="M52719 17767
L52695 17814
L52647 17862
L52552 17886
L52385 17886
L52290 17862
L52242 17814
L52219 17767
L52219 17671
L52242 17624
L52290 17576
L52385 17552
L52552 17552
L52647 17576
L52695 17624
L52719 17671
L52719 17767
" />
<path d="M52219 17100
L52219 17338
L52457 17362
L52433 17338
L52409 17291
L52409 17171
L52433 17124
L52457 17100
L52504 17076
L52623 17076
L52671 17100
L52695 17124
L52719 17171
L52719 17291
L52695 17338
L52671 17362
" />
<path d="M52766 19536
L52742 19584
L52695 19632
L52623 19703
L52600 19751
L52600 19798
" />
<path d="M52719 19775
L52695 19822
L52647 19870
L52552 19894
L52385 19894
L52290 19870
L52242 19822
L52219 19775
L52219 19679
L52242 19632
L52290 19584
L52385 19560
L52552 19560
L52647 19584
L52695 19632
L52719 19679
L52719 19775
" />
<path d="M52385 19132
L52719 19132
" />
<path d="M52195 19251
L52552 19370
L52552 19060
" />
<path d="M52766 21544
L52742 21592
L52695 21640
L52623 21711
L52600 21759
L52600 21806
" />
<path d="M52719 21782
L52695 21830
L52647 21878
L52552 21902
L52385 21902
L52290 21878
L52242 21830
L52219 21782
L52219 21687
L52242 21640
L52290 21592
L52385 21568
L52552 21568
L52647 21592
L52695 21640
L52719 21687
L52719 21782
" />
<path d="M52219 21402
L52219 21092
L52409 21259
L52409 21187
L52433 21140
L52457 21116
L52504 21092
L52623 21092
L52671 21116
L52695 21140
L52719 21187
L52719 21330
L52695 21378
L52671 21402
" />
<path d="M52766 23552
L52742 23600
L52695 23647
L52623 23719
L52600 23767
L52600 23814
" />
<path d="M52719 23790
L52695 23838
L52647 23886
L52552 23909
L52385 23909
L52290 23886
L52242 23838
L52219 23790
L52219 23695
L52242 23647
L52290 23600
L52385 23576
L52552 23576
L52647 23600
L52695 23647
L52719 23695
L52719 23790
" />
<path d="M52266 23386
L52242 23362
L52219 23314
L52219 23195
L52242 23147
L52266 23124
L52314 23100
L52361 23100
L52433 23124
L52719 23409
L52719 23100
" />
<path d="M52766 15521
L52742 15568
L52695 15616
L52623 15687
L52600 15735
L52600 15783
" />
<path d="M52719 15759
L52695 15806
L52647 15854
L52552 15878
L52385 15878
L52290 15854
L52242 15806
L52219 15759
L52219 15664
L52242 15616
L52290 15568
L52385 15545
L52552 15545
L52647 15568
L52695 15616
L52719 15664
L52719 15759
" />
<path d="M52719 15068
L52719 15354
" />
<path d="M52719 15211
L52219 15211
L52290 15259
L52338 15306
L52361 15354
" />
<path d="M35456 20777
L35456 20277
" />
<path d="M35980 20729
L35956 20753
L35885 20777
L35837 20777
L35766 20753
L35718 20705
L35694 20658
L35671 20563
L35671 20491
L35694 20396
L35718 20348
L35766 20301
L35837 20277
L35885 20277
L35956 20301
L35980 20324
" />
<path d="M36171 20324
L36194 20301
L36242 20277
L36361 20277
L36409 20301
L36432 20324
L36456 20372
L36456 20420
L36432 20491
L36147 20777
L36456 20777
" />
</g>
<g style="fill:#008484; fill-opacity:0.0; 
stroke:#008484; stroke-width:59.0551; stroke-opacity:1; 
stroke-linecap:round; stroke-linejoin:round;">
<path d="M34475 23800
L34475 24081
L34456 24137
L34418 24175
L34362 24193
L34325 24193
" />
<path d="M34868 24193
L34643 24193
" />
<path d="M34756 24193
L34756 23800
L34718 23856
L34681 23893
L34643 23912
" />
<path d="M37459 16438
L37328 16438
" />
<path d="M37328 16645
L37328 16251
L37515 16251
" />
<path d="M37871 16645
L37646 16645
" />
<path d="M37759 16645
L37759 16251
L37721 16307
L37684 16345
L37646 16363
" />
<path d="M40652 20223
L40671 20241
L40689 20298
L40689 20335
L40671 20391
L40633 20429
L40596 20448
L40521 20466
L40464 20466
L40389 20448
L40352 20429
L40314 20391
L40296 20335
L40296 20298
L40314 20241
L40333 20223
" />
<path d="M40296 19866
L40296 20054
L40483 20073
L40464 20054
L40446 20016
L40446 19923
L40464 19885
L40483 19866
L40521 19848
L40614 19848
L40652 19866
L40671 19885
L40689 19923
L40689 20016
L40671 20054
L40652 20073
" />
</g>
<g style="fill:#008484; fill-opacity:0.0; 
stroke:#008484; stroke-width:47.2441; stroke-opacity:1; 
stroke-linecap:round; stroke-linejoin:round;">
<path d="M36922 19927
L36830 19796
" />
<path d="M36765 19927
L36765 19652
L36870 19652
L36896 19665
L36909 19678
L36922 19704
L36922 19744
L36909 19770
L36896 19783
L36870 19796
L36765 19796
" />
<path d="M37158 19652
L37106 19652
L37080 19665
L37066 19678
L37040 19717
L37027 19770
L37027 19875
L37040 19901
L37053 19914
L37080 19927
L37132 19927
L37158 19914
L37171 19901
L37185 19875
L37185 19809
L37171 19783
L37158 19770
L37132 19757
L37080 19757
L37053 19770
L37040 19783
L37027 19809
" />
</g>
<g style="fill:#008484; fill-opacity:0.0; 
stroke:#008484; stroke-width:59.0551; stroke-opacity:1; 
stroke-linecap:round; stroke-linejoin:round;">
<path d="M40689 21010
L40502 21141
" />
<path d="M40689 21235
L40296 21235
L40296 21085
L40314 21047
L40333 21029
L40371 21010
L40427 21010
L40464 21029
L40483 21047
L40502 21085
L40502 21235
" />
<path d="M40296 20654
L40296 20841
L40483 20860
L40464 20841
L40446 20804
L40446 20710
L40464 20673
L40483 20654
L40521 20635
L40614 20635
L40652 20654
L40671 20673
L40689 20710
L40689 20804
L40671 20841
L40652 20860
" />
<path d="M37926 21715
L37907 21734
L37851 21752
L37814 21752
L37757 21734
L37720 21696
L37701 21659
L37682 21584
L37682 21527
L37701 21452
L37720 21415
L37757 21377
L37814 21359
L37851 21359
L37907 21377
L37926 21396
" />
<path d="M38263 21490
L38263 21752
" />
<path d="M38170 21340
L38076 21621
L38320 21621
" />
</g>
<g style="fill:#008484; fill-opacity:0.0; 
stroke:#008484; stroke-width:100; stroke-opacity:1; 
stroke-linecap:round; stroke-linejoin:round;">
<path d="M41810 21026
L41810 20526
" />
<path d="M42334 20978
L42310 21002
L42238 21026
L42191 21026
L42119 21002
L42072 20955
L42048 20907
L42024 20812
L42024 20740
L42048 20645
L42072 20598
L42119 20550
L42191 20526
L42238 20526
L42310 20550
L42334 20574
" />
<path d="M42810 21026
L42524 21026
" />
<path d="M42667 21026
L42667 20526
L42619 20598
L42572 20645
L42524 20669
" />
</g>
<g style="fill:#008484; fill-opacity:0.0; 
stroke:#008484; stroke-width:59.0551; stroke-opacity:1; 
stroke-linecap:round; stroke-linejoin:round;">
<path d="M40485 22069
L40466 22088
L40410 22107
L40373 22107
L40316 22088
L40279 22050
L40260 22013
L40241 21938
L40241 21882
L40260 21807
L40279 21769
L40316 21732
L40373 21713
L40410 21713
L40466 21732
L40485 21751
" />
<path d="M40860 22107
L40635 22107
" />
<path d="M40748 22107
L40748 21713
L40710 21769
L40673 21807
L40635 21826
" />
<path d="M45219 21561
L45238 21580
L45256 21636
L45256 21674
L45238 21730
L45200 21767
L45163 21786
L45088 21805
L45031 21805
L44956 21786
L44919 21767
L44881 21730
L44863 21674
L44863 21636
L44881 21580
L44900 21561
" />
<path d="M44900 21411
L44881 21392
L44863 21355
L44863 21261
L44881 21224
L44900 21205
L44938 21186
L44975 21186
L45031 21205
L45256 21430
L45256 21186
" />
<path d="M45396 24018
L45378 24037
L45321 24056
L45284 24056
L45228 24037
L45190 23999
L45172 23962
L45153 23887
L45153 23831
L45172 23756
L45190 23718
L45228 23681
L45284 23662
L45321 23662
L45378 23681
L45396 23699
" />
<path d="M45528 23662
L45771 23662
L45640 23812
L45696 23812
L45734 23831
L45753 23849
L45771 23887
L45771 23981
L45753 24018
L45734 24037
L45696 24056
L45584 24056
L45546 24037
L45528 24018
" />
<path d="M46516 22101
L46122 22101
L46122 22007
L46141 21951
L46179 21914
L46216 21895
L46291 21876
L46347 21876
L46422 21895
L46460 21914
L46497 21951
L46516 22007
L46516 22101
" />
<path d="M46516 21501
L46516 21726
" />
<path d="M46516 21614
L46122 21614
L46179 21651
L46216 21689
L46235 21726
" />
<path d="M45918 20256
L45787 20069
" />
<path d="M45693 20256
L45693 19863
L45843 19863
L45881 19881
L45899 19900
L45918 19938
L45918 19994
L45899 20031
L45881 20050
L45843 20069
L45693 20069
" />
<path d="M46293 20256
L46068 20256
" />
<path d="M46181 20256
L46181 19863
L46143 19919
L46106 19956
L46068 19975
" />
<path d="M41272 24252
L41141 24065
" />
<path d="M41047 24252
L41047 23859
L41197 23859
L41235 23877
L41254 23896
L41272 23934
L41272 23990
L41254 24027
L41235 24046
L41197 24065
L41047 24065
" />
<path d="M41422 23896
L41441 23877
L41479 23859
L41572 23859
L41610 23877
L41629 23896
L41647 23934
L41647 23971
L41629 24027
L41404 24252
L41647 24252
" />
<path d="M42847 23209
L42716 23022
" />
<path d="M42622 23209
L42622 22815
L42772 22815
L42810 22834
L42829 22853
L42847 22890
L42847 22947
L42829 22984
L42810 23003
L42772 23022
L42622 23022
" />
<path d="M42979 22815
L43222 22815
L43091 22965
L43147 22965
L43185 22984
L43203 23003
L43222 23040
L43222 23134
L43203 23172
L43185 23190
L43147 23209
L43035 23209
L42997 23190
L42979 23172
" />
<path d="M44548 24199
L44360 24330
" />
<path d="M44548 24424
L44154 24424
L44154 24274
L44173 24236
L44191 24218
L44229 24199
L44285 24199
L44323 24218
L44341 24236
L44360 24274
L44360 24424
" />
<path d="M44285 23862
L44548 23862
" />
<path d="M44135 23955
L44416 24049
L44416 23805
" />
<g >
</g>
</g>
<g style="fill:#000000; fill-opacity:0.0; 
stroke:#000000; stroke-width:59.0551; stroke-opacity:1; 
stroke-linecap:round; stroke-linejoin:round;">
</g>
<g style="fill:#C2C200; fill-opacity:0.0; 
stroke:#C2C200; stroke-width:59.0551; stroke-opacity:1; 
stroke-linecap:round; stroke-linejoin:round;">
</g>
<g style="fill:#C2C200; fill-opacity:0.0; 
stroke:#C2C200; stroke-width:39.3701; stroke-opacity:1; 
stroke-linecap:round; stroke-linejoin:round;">
<path d="M34330.7 14527.6 A393.701 393.701 0.0 0 0 33937 14133.9 " />
<path d="M41063 14133.9 A393.701 393.701 0.0 0 0 40669.3 14527.6 " />
<path d="M53661 14133
L41062 14133
" />
<path d="M33937 14133
L32992 14133
" />
<path d="M54842 12952
L54842 12598
" />
<path d="M57992 12598
L57992 14133
" />
<path d="M57992.1 12598.4 A1574.8 1574.8 0.0 0 0 54842.5 12598.4 " />
<circle cx="56417.3" cy="12598.4" r="629.921" /> 
<path d="M53661.4 14133.9 A1181.1 1181.1 0.0 0 0 54842.5 12952.8 " />
<path d="M31811 12952.8 A1181.1 1181.1 0.0 0 0 32992.1 14133.9 " />
<path d="M31811 12952
L31811 12598
" />
<path d="M28661 12598
L28661 14133
" />
<path d="M31811 12598.4 A1574.8 1574.8 0.0 0 0 28661.4 12598.4 " />
<circle cx="30236.2" cy="12598.4" r="629.921" /> 
<path d="M32992 29566
L53661 29566
" />
<path d="M32992.1 29566.9 A1181.1 1181.1 0.0 0 0 31811 30748 " />
<path d="M31811 30748
L31811 31102
" />
<path d="M28661 31102
L28661 29330
" />
<path d="M28661.4 31102.4 A1574.8 1574.8 0.0 0 0 31811 31102.4 " />
<circle cx="30236.2" cy="31102.4" r="629.921" /> 
<path d="M54842 30748
L54842 31102
" />
<path d="M54842.5 30748 A1181.1 1181.1 0.0 0 0 53661.4 29566.9 " />
<circle cx="56417.3" cy="31102.4" r="629.921" /> 
<path d="M54842.5 31102.4 A1574.8 1574.8 0.0 0 0 57992.1 31102.4 " />
<path d="M57992 31102
L57992 29330
" />
<path d="M57992 14173
L57992 14133
" />
<path d="M57992 29330
L57992 14173
" />
<path d="M28661 14133
L28661 29330
" />
<path d="M40669 19566
L40669 14527
" />
<path d="M34330 19566
L40669 19566
" />
<path d="M34330 14527
L34330 19566
" />
<g >
</g>
<g >
</g>
<g >
</g>
<g >
</g>
<g >
</g>
<g >
</g>
<g >
</g>
<g >
</g>
<g >
</g>
<g >
</g>
<g >
</g>
<g >
</g>
<g >
</g>
<g >
</g>
<g >
</g>
<g >
</g>
<g >
</g>
<g >
</g>
<g >
</g>
<g >
</g>
<g >
</g>
<g >
</g>
<g >
</g>
<g >
</g>
<g >
</g>
<g >
</g>
<g >
</g>
<g >
</g>
<g >
</g>
<g >
</g>
<g >
</g>
<g >
</g>
</g> 
</svg>
