G04 #@! TF.GenerationSoftware,KiCad,Pcbnew,(5.1.2)-1*
G04 #@! TF.CreationDate,2019-09-07T09:30:14+02:00*
G04 #@! TF.ProjectId,Anti-Spark,416e7469-2d53-4706-9172-6b2e6b696361,rev?*
G04 #@! TF.SameCoordinates,Original*
G04 #@! TF.FileFunction,Soldermask,Bot*
G04 #@! TF.FilePolarity,Negative*
%FSLAX46Y46*%
G04 Gerber Fmt 4.6, Leading zero omitted, Abs format (unit mm)*
G04 Created by KiCad (PCBNEW (5.1.2)-1) date 2019-09-07 09:30:14*
%MOMM*%
%LPD*%
G04 APERTURE LIST*
%ADD10C,0.100000*%
G04 APERTURE END LIST*
D10*
G36*
X92076627Y-57787037D02*
G01*
X92246466Y-57838557D01*
X92402991Y-57922222D01*
X92438729Y-57951552D01*
X92540186Y-58034814D01*
X92623448Y-58136271D01*
X92652778Y-58172009D01*
X92736443Y-58328534D01*
X92787963Y-58498374D01*
X92801000Y-58630743D01*
X92801000Y-58969258D01*
X92787963Y-59101627D01*
X92736443Y-59271466D01*
X92652778Y-59427991D01*
X92623448Y-59463729D01*
X92540186Y-59565186D01*
X92402989Y-59677779D01*
X92246467Y-59761442D01*
X92246465Y-59761443D01*
X92076626Y-59812963D01*
X91900000Y-59830359D01*
X91723373Y-59812963D01*
X91553534Y-59761443D01*
X91397009Y-59677778D01*
X91354750Y-59643097D01*
X91259814Y-59565186D01*
X91147221Y-59427989D01*
X91063558Y-59271467D01*
X91063557Y-59271465D01*
X91012037Y-59101626D01*
X90999000Y-58969257D01*
X90999000Y-58630742D01*
X91012037Y-58498373D01*
X91063557Y-58328534D01*
X91147222Y-58172009D01*
X91259815Y-58034815D01*
X91397010Y-57922222D01*
X91553535Y-57838557D01*
X91723374Y-57787037D01*
X91900000Y-57769641D01*
X92076627Y-57787037D01*
X92076627Y-57787037D01*
G37*
G36*
X94576627Y-57787037D02*
G01*
X94746466Y-57838557D01*
X94902991Y-57922222D01*
X94938729Y-57951552D01*
X95040186Y-58034814D01*
X95123448Y-58136271D01*
X95152778Y-58172009D01*
X95236443Y-58328534D01*
X95287963Y-58498374D01*
X95301000Y-58630743D01*
X95301000Y-58969258D01*
X95287963Y-59101627D01*
X95236443Y-59271466D01*
X95152778Y-59427991D01*
X95123448Y-59463729D01*
X95040186Y-59565186D01*
X94902989Y-59677779D01*
X94746467Y-59761442D01*
X94746465Y-59761443D01*
X94576626Y-59812963D01*
X94400000Y-59830359D01*
X94223373Y-59812963D01*
X94053534Y-59761443D01*
X93897009Y-59677778D01*
X93854750Y-59643097D01*
X93759814Y-59565186D01*
X93647221Y-59427989D01*
X93563558Y-59271467D01*
X93563557Y-59271465D01*
X93512037Y-59101626D01*
X93499000Y-58969257D01*
X93499000Y-58630742D01*
X93512037Y-58498373D01*
X93563557Y-58328534D01*
X93647222Y-58172009D01*
X93759815Y-58034815D01*
X93897010Y-57922222D01*
X94053535Y-57838557D01*
X94223374Y-57787037D01*
X94400000Y-57769641D01*
X94576627Y-57787037D01*
X94576627Y-57787037D01*
G37*
G36*
X97076627Y-57787037D02*
G01*
X97246466Y-57838557D01*
X97402991Y-57922222D01*
X97438729Y-57951552D01*
X97540186Y-58034814D01*
X97623448Y-58136271D01*
X97652778Y-58172009D01*
X97736443Y-58328534D01*
X97787963Y-58498374D01*
X97801000Y-58630743D01*
X97801000Y-58969258D01*
X97787963Y-59101627D01*
X97736443Y-59271466D01*
X97652778Y-59427991D01*
X97623448Y-59463729D01*
X97540186Y-59565186D01*
X97402989Y-59677779D01*
X97246467Y-59761442D01*
X97246465Y-59761443D01*
X97076626Y-59812963D01*
X96900000Y-59830359D01*
X96723373Y-59812963D01*
X96553534Y-59761443D01*
X96397009Y-59677778D01*
X96354750Y-59643097D01*
X96259814Y-59565186D01*
X96147221Y-59427989D01*
X96063558Y-59271467D01*
X96063557Y-59271465D01*
X96012037Y-59101626D01*
X95999000Y-58969257D01*
X95999000Y-58630742D01*
X96012037Y-58498373D01*
X96063557Y-58328534D01*
X96147222Y-58172009D01*
X96259815Y-58034815D01*
X96397010Y-57922222D01*
X96553535Y-57838557D01*
X96723374Y-57787037D01*
X96900000Y-57769641D01*
X97076627Y-57787037D01*
X97076627Y-57787037D01*
G37*
G36*
X100158600Y-57777989D02*
G01*
X100191652Y-57788015D01*
X100222103Y-57804292D01*
X100248799Y-57826201D01*
X100270708Y-57852897D01*
X100286985Y-57883348D01*
X100297011Y-57916400D01*
X100301000Y-57956903D01*
X100301000Y-59643097D01*
X100297011Y-59683600D01*
X100286985Y-59716652D01*
X100270708Y-59747103D01*
X100248799Y-59773799D01*
X100222103Y-59795708D01*
X100191652Y-59811985D01*
X100158600Y-59822011D01*
X100118097Y-59826000D01*
X98681903Y-59826000D01*
X98641400Y-59822011D01*
X98608348Y-59811985D01*
X98577897Y-59795708D01*
X98551201Y-59773799D01*
X98529292Y-59747103D01*
X98513015Y-59716652D01*
X98502989Y-59683600D01*
X98499000Y-59643097D01*
X98499000Y-57956903D01*
X98502989Y-57916400D01*
X98513015Y-57883348D01*
X98529292Y-57852897D01*
X98551201Y-57826201D01*
X98577897Y-57804292D01*
X98608348Y-57788015D01*
X98641400Y-57777989D01*
X98681903Y-57774000D01*
X100118097Y-57774000D01*
X100158600Y-57777989D01*
X100158600Y-57777989D01*
G37*
G36*
X116831000Y-49517000D02*
G01*
X103729000Y-49517000D01*
X103729000Y-36415000D01*
X116831000Y-36415000D01*
X116831000Y-49517000D01*
X116831000Y-49517000D01*
G37*
G36*
X86831000Y-49517000D02*
G01*
X73729000Y-49517000D01*
X73729000Y-36415000D01*
X86831000Y-36415000D01*
X86831000Y-49517000D01*
X86831000Y-49517000D01*
G37*
M02*
