G04 #@! TF.GenerationSoftware,KiCad,Pcbnew,(5.1.2)-1*
G04 #@! TF.CreationDate,2019-09-07T09:30:14+02:00*
G04 #@! TF.ProjectId,Anti-Spark,416e7469-2d53-4706-9172-6b2e6b696361,rev?*
G04 #@! TF.SameCoordinates,Original*
G04 #@! TF.FileFunction,Legend,Top*
G04 #@! TF.FilePolarity,Positive*
%FSLAX46Y46*%
G04 Gerber Fmt 4.6, Leading zero omitted, Abs format (unit mm)*
G04 Created by KiCad (PCBNEW (5.1.2)-1) date 2019-09-07 09:30:14*
%MOMM*%
%LPD*%
G04 APERTURE LIST*
%ADD10C,0.300000*%
%ADD11C,0.120000*%
%ADD12C,0.200000*%
%ADD13C,0.150000*%
%ADD14C,0.254000*%
G04 APERTURE END LIST*
D10*
X141033333Y-47633333D02*
X140366666Y-47633333D01*
X140366666Y-46233333D01*
X141766666Y-46233333D02*
X142033333Y-46233333D01*
X142166666Y-46300000D01*
X142300000Y-46433333D01*
X142366666Y-46700000D01*
X142366666Y-47166666D01*
X142300000Y-47433333D01*
X142166666Y-47566666D01*
X142033333Y-47633333D01*
X141766666Y-47633333D01*
X141633333Y-47566666D01*
X141500000Y-47433333D01*
X141433333Y-47166666D01*
X141433333Y-46700000D01*
X141500000Y-46433333D01*
X141633333Y-46300000D01*
X141766666Y-46233333D01*
X142900000Y-47233333D02*
X143566666Y-47233333D01*
X142766666Y-47633333D02*
X143233333Y-46233333D01*
X143700000Y-47633333D01*
X144166666Y-47633333D02*
X144166666Y-46233333D01*
X144500000Y-46233333D01*
X144700000Y-46300000D01*
X144833333Y-46433333D01*
X144900000Y-46566666D01*
X144966666Y-46833333D01*
X144966666Y-47033333D01*
X144900000Y-47300000D01*
X144833333Y-47433333D01*
X144700000Y-47566666D01*
X144500000Y-47633333D01*
X144166666Y-47633333D01*
X145566666Y-47100000D02*
X146633333Y-47100000D01*
X146100000Y-47633333D02*
X146100000Y-46566666D01*
X74350000Y-60192857D02*
X74564285Y-60264285D01*
X74635714Y-60335714D01*
X74707142Y-60478571D01*
X74707142Y-60692857D01*
X74635714Y-60835714D01*
X74564285Y-60907142D01*
X74421428Y-60978571D01*
X73850000Y-60978571D01*
X73850000Y-59478571D01*
X74350000Y-59478571D01*
X74492857Y-59550000D01*
X74564285Y-59621428D01*
X74635714Y-59764285D01*
X74635714Y-59907142D01*
X74564285Y-60050000D01*
X74492857Y-60121428D01*
X74350000Y-60192857D01*
X73850000Y-60192857D01*
X75278571Y-60550000D02*
X75992857Y-60550000D01*
X75135714Y-60978571D02*
X75635714Y-59478571D01*
X76135714Y-60978571D01*
X76421428Y-59478571D02*
X77278571Y-59478571D01*
X76850000Y-60978571D02*
X76850000Y-59478571D01*
X77564285Y-59478571D02*
X78421428Y-59478571D01*
X77992857Y-60978571D02*
X77992857Y-59478571D01*
X78921428Y-60192857D02*
X79421428Y-60192857D01*
X79635714Y-60978571D02*
X78921428Y-60978571D01*
X78921428Y-59478571D01*
X79635714Y-59478571D01*
X81135714Y-60978571D02*
X80635714Y-60264285D01*
X80278571Y-60978571D02*
X80278571Y-59478571D01*
X80850000Y-59478571D01*
X80992857Y-59550000D01*
X81064285Y-59621428D01*
X81135714Y-59764285D01*
X81135714Y-59978571D01*
X81064285Y-60121428D01*
X80992857Y-60192857D01*
X80850000Y-60264285D01*
X80278571Y-60264285D01*
X82064285Y-60264285D02*
X82064285Y-60978571D01*
X81564285Y-59478571D02*
X82064285Y-60264285D01*
X82564285Y-59478571D01*
D11*
X148000000Y-66500000D02*
X148000000Y-54500000D01*
X158100000Y-40000000D02*
X158100000Y-52000000D01*
X95280000Y-36966000D02*
X103280000Y-36966000D01*
X103280000Y-36966000D02*
X103280000Y-48966000D01*
X103280000Y-48966000D02*
X87280000Y-48966000D01*
X87280000Y-48966000D02*
X87280000Y-36966000D01*
X87280000Y-36966000D02*
X95280000Y-36966000D01*
X101280000Y-36966000D02*
X101280000Y-48966000D01*
X101280000Y-48966000D02*
X100280000Y-48966000D01*
X100280000Y-48966000D02*
X100280000Y-36966000D01*
X100280000Y-36966000D02*
X89280000Y-36966000D01*
X89280000Y-36966000D02*
X89280000Y-48966000D01*
X89280000Y-48966000D02*
X90280000Y-48966000D01*
X90280000Y-48966000D02*
X90280000Y-36966000D01*
X80280000Y-49466000D02*
X80280000Y-51066000D01*
X110280000Y-49466000D02*
X110280000Y-51266000D01*
D12*
X88400000Y-50650000D02*
X89800000Y-50650000D01*
D11*
X100138748Y-52490000D02*
X100661252Y-52490000D01*
X100138748Y-53910000D02*
X100661252Y-53910000D01*
X96263748Y-50590000D02*
X96786252Y-50590000D01*
X96263748Y-52010000D02*
X96786252Y-52010000D01*
X100686252Y-52010000D02*
X100163748Y-52010000D01*
X100686252Y-50590000D02*
X100163748Y-50590000D01*
X96313748Y-52490000D02*
X96836252Y-52490000D01*
X96313748Y-53910000D02*
X96836252Y-53910000D01*
D12*
X109288000Y-55333000D02*
X105588000Y-55333000D01*
X105588000Y-55333000D02*
X105588000Y-50333000D01*
X105588000Y-50333000D02*
X109288000Y-50333000D01*
X109288000Y-50333000D02*
X109288000Y-55333000D01*
X111113000Y-55683000D02*
X109638000Y-55683000D01*
D11*
X102250000Y-61550000D02*
X102250000Y-60300000D01*
X101000000Y-61550000D02*
X102250000Y-61550000D01*
X90100000Y-56050000D02*
X95650000Y-56050000D01*
X90100000Y-59000000D02*
X90100000Y-56050000D01*
X89350000Y-59000000D02*
X90100000Y-59000000D01*
X101200000Y-56050000D02*
X95650000Y-56050000D01*
X101200000Y-59000000D02*
X101200000Y-56050000D01*
X101950000Y-59000000D02*
X101200000Y-59000000D01*
X89350000Y-61250000D02*
X91150000Y-61250000D01*
X89350000Y-60500000D02*
X89350000Y-61250000D01*
X91150000Y-60500000D02*
X89350000Y-60500000D01*
X91150000Y-61250000D02*
X91150000Y-60500000D01*
X100150000Y-61250000D02*
X101950000Y-61250000D01*
X100150000Y-60500000D02*
X100150000Y-61250000D01*
X101950000Y-60500000D02*
X100150000Y-60500000D01*
X101950000Y-61250000D02*
X101950000Y-60500000D01*
X92650000Y-61250000D02*
X98650000Y-61250000D01*
X92650000Y-60500000D02*
X92650000Y-61250000D01*
X98650000Y-60500000D02*
X92650000Y-60500000D01*
X98650000Y-61250000D02*
X98650000Y-60500000D01*
X89340000Y-61260000D02*
X101960000Y-61260000D01*
X89340000Y-55290000D02*
X89340000Y-61260000D01*
X101960000Y-55290000D02*
X89340000Y-55290000D01*
X101960000Y-61260000D02*
X101960000Y-55290000D01*
X128438000Y-47423000D02*
X129938000Y-47423000D01*
X129938000Y-47423000D02*
X129938000Y-46733000D01*
X129938000Y-46733000D02*
X135063000Y-46733000D01*
X128438000Y-37023000D02*
X129938000Y-37023000D01*
X129938000Y-37023000D02*
X129938000Y-37713000D01*
X129938000Y-37713000D02*
X131038000Y-37713000D01*
X128438000Y-60593000D02*
X129938000Y-60593000D01*
X129938000Y-60593000D02*
X129938000Y-59903000D01*
X129938000Y-59903000D02*
X135063000Y-59903000D01*
X128438000Y-50193000D02*
X129938000Y-50193000D01*
X129938000Y-50193000D02*
X129938000Y-50883000D01*
X129938000Y-50883000D02*
X131038000Y-50883000D01*
X104738748Y-56290000D02*
X105261252Y-56290000D01*
X104738748Y-57710000D02*
X105261252Y-57710000D01*
X112290000Y-54263748D02*
X112290000Y-54786252D01*
X113710000Y-54263748D02*
X113710000Y-54786252D01*
X115736252Y-59710000D02*
X115213748Y-59710000D01*
X115736252Y-58290000D02*
X115213748Y-58290000D01*
X115150000Y-57400000D02*
X116850000Y-57400000D01*
X116850000Y-57400000D02*
X116850000Y-54250000D01*
X115150000Y-57400000D02*
X115150000Y-54250000D01*
X114261252Y-51710000D02*
X113738748Y-51710000D01*
X114261252Y-50290000D02*
X113738748Y-50290000D01*
X105286252Y-58790000D02*
X104763748Y-58790000D01*
X105286252Y-60210000D02*
X104763748Y-60210000D01*
X108713748Y-56258000D02*
X109236252Y-56258000D01*
X108713748Y-57678000D02*
X109236252Y-57678000D01*
X111790000Y-58263748D02*
X111790000Y-58786252D01*
X113210000Y-58263748D02*
X113210000Y-58786252D01*
D13*
X95146666Y-41754571D02*
X94813333Y-41754571D01*
X94813333Y-42278380D02*
X94813333Y-41278380D01*
X95289523Y-41278380D01*
X96194285Y-42278380D02*
X95622857Y-42278380D01*
X95908571Y-42278380D02*
X95908571Y-41278380D01*
X95813333Y-41421238D01*
X95718095Y-41516476D01*
X95622857Y-41564095D01*
D14*
X90060238Y-52774523D02*
X90060238Y-51504523D01*
X91390714Y-52653571D02*
X91330238Y-52714047D01*
X91148809Y-52774523D01*
X91027857Y-52774523D01*
X90846428Y-52714047D01*
X90725476Y-52593095D01*
X90665000Y-52472142D01*
X90604523Y-52230238D01*
X90604523Y-52048809D01*
X90665000Y-51806904D01*
X90725476Y-51685952D01*
X90846428Y-51565000D01*
X91027857Y-51504523D01*
X91148809Y-51504523D01*
X91330238Y-51565000D01*
X91390714Y-51625476D01*
X91874523Y-51625476D02*
X91935000Y-51565000D01*
X92055952Y-51504523D01*
X92358333Y-51504523D01*
X92479285Y-51565000D01*
X92539761Y-51625476D01*
X92600238Y-51746428D01*
X92600238Y-51867380D01*
X92539761Y-52048809D01*
X91814047Y-52774523D01*
X92600238Y-52774523D01*
D13*
X103257142Y-51366666D02*
X103304761Y-51414285D01*
X103352380Y-51557142D01*
X103352380Y-51652380D01*
X103304761Y-51795238D01*
X103209523Y-51890476D01*
X103114285Y-51938095D01*
X102923809Y-51985714D01*
X102780952Y-51985714D01*
X102590476Y-51938095D01*
X102495238Y-51890476D01*
X102400000Y-51795238D01*
X102352380Y-51652380D01*
X102352380Y-51557142D01*
X102400000Y-51414285D01*
X102447619Y-51366666D01*
X102352380Y-50461904D02*
X102352380Y-50938095D01*
X102828571Y-50985714D01*
X102780952Y-50938095D01*
X102733333Y-50842857D01*
X102733333Y-50604761D01*
X102780952Y-50509523D01*
X102828571Y-50461904D01*
X102923809Y-50414285D01*
X103161904Y-50414285D01*
X103257142Y-50461904D01*
X103304761Y-50509523D01*
X103352380Y-50604761D01*
X103352380Y-50842857D01*
X103304761Y-50938095D01*
X103257142Y-50985714D01*
X93533333Y-55052380D02*
X93200000Y-54576190D01*
X92961904Y-55052380D02*
X92961904Y-54052380D01*
X93342857Y-54052380D01*
X93438095Y-54100000D01*
X93485714Y-54147619D01*
X93533333Y-54242857D01*
X93533333Y-54385714D01*
X93485714Y-54480952D01*
X93438095Y-54528571D01*
X93342857Y-54576190D01*
X92961904Y-54576190D01*
X94390476Y-54052380D02*
X94200000Y-54052380D01*
X94104761Y-54100000D01*
X94057142Y-54147619D01*
X93961904Y-54290476D01*
X93914285Y-54480952D01*
X93914285Y-54861904D01*
X93961904Y-54957142D01*
X94009523Y-55004761D01*
X94104761Y-55052380D01*
X94295238Y-55052380D01*
X94390476Y-55004761D01*
X94438095Y-54957142D01*
X94485714Y-54861904D01*
X94485714Y-54623809D01*
X94438095Y-54528571D01*
X94390476Y-54480952D01*
X94295238Y-54433333D01*
X94104761Y-54433333D01*
X94009523Y-54480952D01*
X93961904Y-54528571D01*
X93914285Y-54623809D01*
X103352380Y-53366666D02*
X102876190Y-53700000D01*
X103352380Y-53938095D02*
X102352380Y-53938095D01*
X102352380Y-53557142D01*
X102400000Y-53461904D01*
X102447619Y-53414285D01*
X102542857Y-53366666D01*
X102685714Y-53366666D01*
X102780952Y-53414285D01*
X102828571Y-53461904D01*
X102876190Y-53557142D01*
X102876190Y-53938095D01*
X102352380Y-52461904D02*
X102352380Y-52938095D01*
X102828571Y-52985714D01*
X102780952Y-52938095D01*
X102733333Y-52842857D01*
X102733333Y-52604761D01*
X102780952Y-52509523D01*
X102828571Y-52461904D01*
X102923809Y-52414285D01*
X103161904Y-52414285D01*
X103257142Y-52461904D01*
X103304761Y-52509523D01*
X103352380Y-52604761D01*
X103352380Y-52842857D01*
X103304761Y-52938095D01*
X103257142Y-52985714D01*
X96333333Y-55157142D02*
X96285714Y-55204761D01*
X96142857Y-55252380D01*
X96047619Y-55252380D01*
X95904761Y-55204761D01*
X95809523Y-55109523D01*
X95761904Y-55014285D01*
X95714285Y-54823809D01*
X95714285Y-54680952D01*
X95761904Y-54490476D01*
X95809523Y-54395238D01*
X95904761Y-54300000D01*
X96047619Y-54252380D01*
X96142857Y-54252380D01*
X96285714Y-54300000D01*
X96333333Y-54347619D01*
X97190476Y-54585714D02*
X97190476Y-55252380D01*
X96952380Y-54204761D02*
X96714285Y-54919047D01*
X97333333Y-54919047D01*
D14*
X106198238Y-53407523D02*
X106198238Y-52137523D01*
X107528714Y-53286571D02*
X107468238Y-53347047D01*
X107286809Y-53407523D01*
X107165857Y-53407523D01*
X106984428Y-53347047D01*
X106863476Y-53226095D01*
X106803000Y-53105142D01*
X106742523Y-52863238D01*
X106742523Y-52681809D01*
X106803000Y-52439904D01*
X106863476Y-52318952D01*
X106984428Y-52198000D01*
X107165857Y-52137523D01*
X107286809Y-52137523D01*
X107468238Y-52198000D01*
X107528714Y-52258476D01*
X108738238Y-53407523D02*
X108012523Y-53407523D01*
X108375380Y-53407523D02*
X108375380Y-52137523D01*
X108254428Y-52318952D01*
X108133476Y-52439904D01*
X108012523Y-52500380D01*
D13*
X87566666Y-60452380D02*
X87566666Y-61166666D01*
X87519047Y-61309523D01*
X87423809Y-61404761D01*
X87280952Y-61452380D01*
X87185714Y-61452380D01*
X88566666Y-61452380D02*
X87995238Y-61452380D01*
X88280952Y-61452380D02*
X88280952Y-60452380D01*
X88185714Y-60595238D01*
X88090476Y-60690476D01*
X87995238Y-60738095D01*
X130204761Y-48847619D02*
X130109523Y-48800000D01*
X130014285Y-48704761D01*
X129871428Y-48561904D01*
X129776190Y-48514285D01*
X129680952Y-48514285D01*
X129728571Y-48752380D02*
X129633333Y-48704761D01*
X129538095Y-48609523D01*
X129490476Y-48419047D01*
X129490476Y-48085714D01*
X129538095Y-47895238D01*
X129633333Y-47800000D01*
X129728571Y-47752380D01*
X129919047Y-47752380D01*
X130014285Y-47800000D01*
X130109523Y-47895238D01*
X130157142Y-48085714D01*
X130157142Y-48419047D01*
X130109523Y-48609523D01*
X130014285Y-48704761D01*
X129919047Y-48752380D01*
X129728571Y-48752380D01*
X130538095Y-47847619D02*
X130585714Y-47800000D01*
X130680952Y-47752380D01*
X130919047Y-47752380D01*
X131014285Y-47800000D01*
X131061904Y-47847619D01*
X131109523Y-47942857D01*
X131109523Y-48038095D01*
X131061904Y-48180952D01*
X130490476Y-48752380D01*
X131109523Y-48752380D01*
X130304761Y-62047619D02*
X130209523Y-62000000D01*
X130114285Y-61904761D01*
X129971428Y-61761904D01*
X129876190Y-61714285D01*
X129780952Y-61714285D01*
X129828571Y-61952380D02*
X129733333Y-61904761D01*
X129638095Y-61809523D01*
X129590476Y-61619047D01*
X129590476Y-61285714D01*
X129638095Y-61095238D01*
X129733333Y-61000000D01*
X129828571Y-60952380D01*
X130019047Y-60952380D01*
X130114285Y-61000000D01*
X130209523Y-61095238D01*
X130257142Y-61285714D01*
X130257142Y-61619047D01*
X130209523Y-61809523D01*
X130114285Y-61904761D01*
X130019047Y-61952380D01*
X129828571Y-61952380D01*
X131209523Y-61952380D02*
X130638095Y-61952380D01*
X130923809Y-61952380D02*
X130923809Y-60952380D01*
X130828571Y-61095238D01*
X130733333Y-61190476D01*
X130638095Y-61238095D01*
X104833333Y-55707142D02*
X104785714Y-55754761D01*
X104642857Y-55802380D01*
X104547619Y-55802380D01*
X104404761Y-55754761D01*
X104309523Y-55659523D01*
X104261904Y-55564285D01*
X104214285Y-55373809D01*
X104214285Y-55230952D01*
X104261904Y-55040476D01*
X104309523Y-54945238D01*
X104404761Y-54850000D01*
X104547619Y-54802380D01*
X104642857Y-54802380D01*
X104785714Y-54850000D01*
X104833333Y-54897619D01*
X105785714Y-55802380D02*
X105214285Y-55802380D01*
X105500000Y-55802380D02*
X105500000Y-54802380D01*
X105404761Y-54945238D01*
X105309523Y-55040476D01*
X105214285Y-55088095D01*
X115007142Y-54691666D02*
X115054761Y-54739285D01*
X115102380Y-54882142D01*
X115102380Y-54977380D01*
X115054761Y-55120238D01*
X114959523Y-55215476D01*
X114864285Y-55263095D01*
X114673809Y-55310714D01*
X114530952Y-55310714D01*
X114340476Y-55263095D01*
X114245238Y-55215476D01*
X114150000Y-55120238D01*
X114102380Y-54977380D01*
X114102380Y-54882142D01*
X114150000Y-54739285D01*
X114197619Y-54691666D01*
X114197619Y-54310714D02*
X114150000Y-54263095D01*
X114102380Y-54167857D01*
X114102380Y-53929761D01*
X114150000Y-53834523D01*
X114197619Y-53786904D01*
X114292857Y-53739285D01*
X114388095Y-53739285D01*
X114530952Y-53786904D01*
X115102380Y-54358333D01*
X115102380Y-53739285D01*
X115308333Y-61007142D02*
X115260714Y-61054761D01*
X115117857Y-61102380D01*
X115022619Y-61102380D01*
X114879761Y-61054761D01*
X114784523Y-60959523D01*
X114736904Y-60864285D01*
X114689285Y-60673809D01*
X114689285Y-60530952D01*
X114736904Y-60340476D01*
X114784523Y-60245238D01*
X114879761Y-60150000D01*
X115022619Y-60102380D01*
X115117857Y-60102380D01*
X115260714Y-60150000D01*
X115308333Y-60197619D01*
X115641666Y-60102380D02*
X116260714Y-60102380D01*
X115927380Y-60483333D01*
X116070238Y-60483333D01*
X116165476Y-60530952D01*
X116213095Y-60578571D01*
X116260714Y-60673809D01*
X116260714Y-60911904D01*
X116213095Y-61007142D01*
X116165476Y-61054761D01*
X116070238Y-61102380D01*
X115784523Y-61102380D01*
X115689285Y-61054761D01*
X115641666Y-61007142D01*
X114602380Y-56238095D02*
X113602380Y-56238095D01*
X113602380Y-56000000D01*
X113650000Y-55857142D01*
X113745238Y-55761904D01*
X113840476Y-55714285D01*
X114030952Y-55666666D01*
X114173809Y-55666666D01*
X114364285Y-55714285D01*
X114459523Y-55761904D01*
X114554761Y-55857142D01*
X114602380Y-56000000D01*
X114602380Y-56238095D01*
X114602380Y-54714285D02*
X114602380Y-55285714D01*
X114602380Y-55000000D02*
X113602380Y-55000000D01*
X113745238Y-55095238D01*
X113840476Y-55190476D01*
X113888095Y-55285714D01*
X115308333Y-53102380D02*
X114975000Y-52626190D01*
X114736904Y-53102380D02*
X114736904Y-52102380D01*
X115117857Y-52102380D01*
X115213095Y-52150000D01*
X115260714Y-52197619D01*
X115308333Y-52292857D01*
X115308333Y-52435714D01*
X115260714Y-52530952D01*
X115213095Y-52578571D01*
X115117857Y-52626190D01*
X114736904Y-52626190D01*
X116260714Y-53102380D02*
X115689285Y-53102380D01*
X115975000Y-53102380D02*
X115975000Y-52102380D01*
X115879761Y-52245238D01*
X115784523Y-52340476D01*
X115689285Y-52388095D01*
X104833333Y-61602380D02*
X104500000Y-61126190D01*
X104261904Y-61602380D02*
X104261904Y-60602380D01*
X104642857Y-60602380D01*
X104738095Y-60650000D01*
X104785714Y-60697619D01*
X104833333Y-60792857D01*
X104833333Y-60935714D01*
X104785714Y-61030952D01*
X104738095Y-61078571D01*
X104642857Y-61126190D01*
X104261904Y-61126190D01*
X105214285Y-60697619D02*
X105261904Y-60650000D01*
X105357142Y-60602380D01*
X105595238Y-60602380D01*
X105690476Y-60650000D01*
X105738095Y-60697619D01*
X105785714Y-60792857D01*
X105785714Y-60888095D01*
X105738095Y-61030952D01*
X105166666Y-61602380D01*
X105785714Y-61602380D01*
X110308333Y-58952380D02*
X109975000Y-58476190D01*
X109736904Y-58952380D02*
X109736904Y-57952380D01*
X110117857Y-57952380D01*
X110213095Y-58000000D01*
X110260714Y-58047619D01*
X110308333Y-58142857D01*
X110308333Y-58285714D01*
X110260714Y-58380952D01*
X110213095Y-58428571D01*
X110117857Y-58476190D01*
X109736904Y-58476190D01*
X110641666Y-57952380D02*
X111260714Y-57952380D01*
X110927380Y-58333333D01*
X111070238Y-58333333D01*
X111165476Y-58380952D01*
X111213095Y-58428571D01*
X111260714Y-58523809D01*
X111260714Y-58761904D01*
X111213095Y-58857142D01*
X111165476Y-58904761D01*
X111070238Y-58952380D01*
X110784523Y-58952380D01*
X110689285Y-58904761D01*
X110641666Y-58857142D01*
X111452380Y-58691666D02*
X110976190Y-59025000D01*
X111452380Y-59263095D02*
X110452380Y-59263095D01*
X110452380Y-58882142D01*
X110500000Y-58786904D01*
X110547619Y-58739285D01*
X110642857Y-58691666D01*
X110785714Y-58691666D01*
X110880952Y-58739285D01*
X110928571Y-58786904D01*
X110976190Y-58882142D01*
X110976190Y-59263095D01*
X110785714Y-57834523D02*
X111452380Y-57834523D01*
X110404761Y-58072619D02*
X111119047Y-58310714D01*
X111119047Y-57691666D01*
M02*
