G04 #@! TF.GenerationSoftware,KiCad,Pcbnew,(5.1.2)-1*
G04 #@! TF.CreationDate,2019-09-10T22:08:43+02:00*
G04 #@! TF.ProjectId,Anti-Spark,416e7469-2d53-4706-9172-6b2e6b696361,rev?*
G04 #@! TF.SameCoordinates,Original*
G04 #@! TF.FileFunction,Legend,Bot*
G04 #@! TF.FilePolarity,Positive*
%FSLAX46Y46*%
G04 Gerber Fmt 4.6, Leading zero omitted, Abs format (unit mm)*
G04 Created by KiCad (PCBNEW (5.1.2)-1) date 2019-09-10 22:08:43*
%MOMM*%
%LPD*%
G04 APERTURE LIST*
%ADD10C,0.200000*%
%ADD11C,0.254000*%
G04 APERTURE END LIST*
D10*
X135626200Y-52247000D02*
G75*
G03X135626200Y-52247000I-42200J0D01*
G01*
X134200000Y-56700000D02*
X129200000Y-56700000D01*
X129200000Y-51700000D02*
X134200000Y-51700000D01*
X135626200Y-57347000D02*
G75*
G03X135626200Y-57347000I-42200J0D01*
G01*
X134200000Y-61800000D02*
X129200000Y-61800000D01*
X129200000Y-56800000D02*
X134200000Y-56800000D01*
X135626200Y-42047000D02*
G75*
G03X135626200Y-42047000I-42200J0D01*
G01*
X134200000Y-46500000D02*
X129200000Y-46500000D01*
X129200000Y-41500000D02*
X134200000Y-41500000D01*
X135626200Y-47147000D02*
G75*
G03X135626200Y-47147000I-42200J0D01*
G01*
X134200000Y-51600000D02*
X129200000Y-51600000D01*
X129200000Y-46600000D02*
X134200000Y-46600000D01*
X135626200Y-36947000D02*
G75*
G03X135626200Y-36947000I-42200J0D01*
G01*
X134200000Y-41400000D02*
X129200000Y-41400000D01*
X129200000Y-36400000D02*
X134200000Y-36400000D01*
D11*
X134027476Y-53071285D02*
X133967000Y-52950333D01*
X133846047Y-52829380D01*
X133664619Y-52647952D01*
X133604142Y-52527000D01*
X133604142Y-52406047D01*
X133906523Y-52466523D02*
X133846047Y-52345571D01*
X133725095Y-52224619D01*
X133483190Y-52164142D01*
X133059857Y-52164142D01*
X132817952Y-52224619D01*
X132697000Y-52345571D01*
X132636523Y-52466523D01*
X132636523Y-52708428D01*
X132697000Y-52829380D01*
X132817952Y-52950333D01*
X133059857Y-53010809D01*
X133483190Y-53010809D01*
X133725095Y-52950333D01*
X133846047Y-52829380D01*
X133906523Y-52708428D01*
X133906523Y-52466523D01*
X133906523Y-54220333D02*
X133906523Y-53494619D01*
X133906523Y-53857476D02*
X132636523Y-53857476D01*
X132817952Y-53736523D01*
X132938904Y-53615571D01*
X132999380Y-53494619D01*
X132636523Y-55006523D02*
X132636523Y-55127476D01*
X132697000Y-55248428D01*
X132757476Y-55308904D01*
X132878428Y-55369380D01*
X133120333Y-55429857D01*
X133422714Y-55429857D01*
X133664619Y-55369380D01*
X133785571Y-55308904D01*
X133846047Y-55248428D01*
X133906523Y-55127476D01*
X133906523Y-55006523D01*
X133846047Y-54885571D01*
X133785571Y-54825095D01*
X133664619Y-54764619D01*
X133422714Y-54704142D01*
X133120333Y-54704142D01*
X132878428Y-54764619D01*
X132757476Y-54825095D01*
X132697000Y-54885571D01*
X132636523Y-55006523D01*
X134027476Y-58776047D02*
X133967000Y-58655095D01*
X133846047Y-58534142D01*
X133664619Y-58352714D01*
X133604142Y-58231761D01*
X133604142Y-58110809D01*
X133906523Y-58171285D02*
X133846047Y-58050333D01*
X133725095Y-57929380D01*
X133483190Y-57868904D01*
X133059857Y-57868904D01*
X132817952Y-57929380D01*
X132697000Y-58050333D01*
X132636523Y-58171285D01*
X132636523Y-58413190D01*
X132697000Y-58534142D01*
X132817952Y-58655095D01*
X133059857Y-58715571D01*
X133483190Y-58715571D01*
X133725095Y-58655095D01*
X133846047Y-58534142D01*
X133906523Y-58413190D01*
X133906523Y-58171285D01*
X133906523Y-59320333D02*
X133906523Y-59562238D01*
X133846047Y-59683190D01*
X133785571Y-59743666D01*
X133604142Y-59864619D01*
X133362238Y-59925095D01*
X132878428Y-59925095D01*
X132757476Y-59864619D01*
X132697000Y-59804142D01*
X132636523Y-59683190D01*
X132636523Y-59441285D01*
X132697000Y-59320333D01*
X132757476Y-59259857D01*
X132878428Y-59199380D01*
X133180809Y-59199380D01*
X133301761Y-59259857D01*
X133362238Y-59320333D01*
X133422714Y-59441285D01*
X133422714Y-59683190D01*
X133362238Y-59804142D01*
X133301761Y-59864619D01*
X133180809Y-59925095D01*
X134027476Y-43476047D02*
X133967000Y-43355095D01*
X133846047Y-43234142D01*
X133664619Y-43052714D01*
X133604142Y-42931761D01*
X133604142Y-42810809D01*
X133906523Y-42871285D02*
X133846047Y-42750333D01*
X133725095Y-42629380D01*
X133483190Y-42568904D01*
X133059857Y-42568904D01*
X132817952Y-42629380D01*
X132697000Y-42750333D01*
X132636523Y-42871285D01*
X132636523Y-43113190D01*
X132697000Y-43234142D01*
X132817952Y-43355095D01*
X133059857Y-43415571D01*
X133483190Y-43415571D01*
X133725095Y-43355095D01*
X133846047Y-43234142D01*
X133906523Y-43113190D01*
X133906523Y-42871285D01*
X133180809Y-44141285D02*
X133120333Y-44020333D01*
X133059857Y-43959857D01*
X132938904Y-43899380D01*
X132878428Y-43899380D01*
X132757476Y-43959857D01*
X132697000Y-44020333D01*
X132636523Y-44141285D01*
X132636523Y-44383190D01*
X132697000Y-44504142D01*
X132757476Y-44564619D01*
X132878428Y-44625095D01*
X132938904Y-44625095D01*
X133059857Y-44564619D01*
X133120333Y-44504142D01*
X133180809Y-44383190D01*
X133180809Y-44141285D01*
X133241285Y-44020333D01*
X133301761Y-43959857D01*
X133422714Y-43899380D01*
X133664619Y-43899380D01*
X133785571Y-43959857D01*
X133846047Y-44020333D01*
X133906523Y-44141285D01*
X133906523Y-44383190D01*
X133846047Y-44504142D01*
X133785571Y-44564619D01*
X133664619Y-44625095D01*
X133422714Y-44625095D01*
X133301761Y-44564619D01*
X133241285Y-44504142D01*
X133180809Y-44383190D01*
X134027476Y-48576047D02*
X133967000Y-48455095D01*
X133846047Y-48334142D01*
X133664619Y-48152714D01*
X133604142Y-48031761D01*
X133604142Y-47910809D01*
X133906523Y-47971285D02*
X133846047Y-47850333D01*
X133725095Y-47729380D01*
X133483190Y-47668904D01*
X133059857Y-47668904D01*
X132817952Y-47729380D01*
X132697000Y-47850333D01*
X132636523Y-47971285D01*
X132636523Y-48213190D01*
X132697000Y-48334142D01*
X132817952Y-48455095D01*
X133059857Y-48515571D01*
X133483190Y-48515571D01*
X133725095Y-48455095D01*
X133846047Y-48334142D01*
X133906523Y-48213190D01*
X133906523Y-47971285D01*
X132636523Y-48938904D02*
X132636523Y-49785571D01*
X133906523Y-49241285D01*
X134027476Y-38376047D02*
X133967000Y-38255095D01*
X133846047Y-38134142D01*
X133664619Y-37952714D01*
X133604142Y-37831761D01*
X133604142Y-37710809D01*
X133906523Y-37771285D02*
X133846047Y-37650333D01*
X133725095Y-37529380D01*
X133483190Y-37468904D01*
X133059857Y-37468904D01*
X132817952Y-37529380D01*
X132697000Y-37650333D01*
X132636523Y-37771285D01*
X132636523Y-38013190D01*
X132697000Y-38134142D01*
X132817952Y-38255095D01*
X133059857Y-38315571D01*
X133483190Y-38315571D01*
X133725095Y-38255095D01*
X133846047Y-38134142D01*
X133906523Y-38013190D01*
X133906523Y-37771285D01*
X132636523Y-39404142D02*
X132636523Y-39162238D01*
X132697000Y-39041285D01*
X132757476Y-38980809D01*
X132938904Y-38859857D01*
X133180809Y-38799380D01*
X133664619Y-38799380D01*
X133785571Y-38859857D01*
X133846047Y-38920333D01*
X133906523Y-39041285D01*
X133906523Y-39283190D01*
X133846047Y-39404142D01*
X133785571Y-39464619D01*
X133664619Y-39525095D01*
X133362238Y-39525095D01*
X133241285Y-39464619D01*
X133180809Y-39404142D01*
X133120333Y-39283190D01*
X133120333Y-39041285D01*
X133180809Y-38920333D01*
X133241285Y-38859857D01*
X133362238Y-38799380D01*
M02*
