G04 #@! TF.GenerationSoftware,KiCad,Pcbnew,(5.1.2)-1*
G04 #@! TF.CreationDate,2019-09-10T22:08:43+02:00*
G04 #@! TF.ProjectId,Anti-Spark,416e7469-2d53-4706-9172-6b2e6b696361,rev?*
G04 #@! TF.SameCoordinates,Original*
G04 #@! TF.FileFunction,Copper,L2,Bot*
G04 #@! TF.FilePolarity,Positive*
%FSLAX46Y46*%
G04 Gerber Fmt 4.6, Leading zero omitted, Abs format (unit mm)*
G04 Created by KiCad (PCBNEW (5.1.2)-1) date 2019-09-10 22:08:43*
%MOMM*%
%LPD*%
G04 APERTURE LIST*
%ADD10C,7.000000*%
%ADD11R,3.750000X4.700000*%
%ADD12R,1.050000X0.850000*%
%ADD13R,1.450000X0.850000*%
%ADD14O,1.700000X1.950000*%
%ADD15C,0.100000*%
%ADD16C,1.700000*%
%ADD17R,13.000000X13.000000*%
%ADD18C,0.800000*%
%ADD19C,0.250000*%
%ADD20C,0.200000*%
%ADD21C,0.254000*%
G04 APERTURE END LIST*
D10*
X143300000Y-32000000D03*
X76800000Y-32000000D03*
X76800000Y-79000000D03*
X143300000Y-79000000D03*
D11*
X131150000Y-54200000D03*
D12*
X128750000Y-52275000D03*
X128750000Y-53565000D03*
X128750000Y-54835000D03*
X128750000Y-56125000D03*
D13*
X134450000Y-56105000D03*
X134450000Y-54835000D03*
X134450000Y-53565000D03*
X134450000Y-52295000D03*
D11*
X131150000Y-59300000D03*
D12*
X128750000Y-57375000D03*
X128750000Y-58665000D03*
X128750000Y-59935000D03*
X128750000Y-61225000D03*
D13*
X134450000Y-61205000D03*
X134450000Y-59935000D03*
X134450000Y-58665000D03*
X134450000Y-57395000D03*
D11*
X131150000Y-44000000D03*
D12*
X128750000Y-42075000D03*
X128750000Y-43365000D03*
X128750000Y-44635000D03*
X128750000Y-45925000D03*
D13*
X134450000Y-45905000D03*
X134450000Y-44635000D03*
X134450000Y-43365000D03*
X134450000Y-42095000D03*
D11*
X131150000Y-49100000D03*
D12*
X128750000Y-47175000D03*
X128750000Y-48465000D03*
X128750000Y-49735000D03*
X128750000Y-51025000D03*
D13*
X134450000Y-51005000D03*
X134450000Y-49735000D03*
X134450000Y-48465000D03*
X134450000Y-47195000D03*
D11*
X131150000Y-38900000D03*
D12*
X128750000Y-36975000D03*
X128750000Y-38265000D03*
X128750000Y-39535000D03*
X128750000Y-40825000D03*
D13*
X134450000Y-40805000D03*
X134450000Y-39535000D03*
X134450000Y-38265000D03*
X134450000Y-36995000D03*
D14*
X91900000Y-58800000D03*
X94400000Y-58800000D03*
X96900000Y-58800000D03*
D15*
G36*
X100024504Y-57826204D02*
G01*
X100048773Y-57829804D01*
X100072571Y-57835765D01*
X100095671Y-57844030D01*
X100117849Y-57854520D01*
X100138893Y-57867133D01*
X100158598Y-57881747D01*
X100176777Y-57898223D01*
X100193253Y-57916402D01*
X100207867Y-57936107D01*
X100220480Y-57957151D01*
X100230970Y-57979329D01*
X100239235Y-58002429D01*
X100245196Y-58026227D01*
X100248796Y-58050496D01*
X100250000Y-58075000D01*
X100250000Y-59525000D01*
X100248796Y-59549504D01*
X100245196Y-59573773D01*
X100239235Y-59597571D01*
X100230970Y-59620671D01*
X100220480Y-59642849D01*
X100207867Y-59663893D01*
X100193253Y-59683598D01*
X100176777Y-59701777D01*
X100158598Y-59718253D01*
X100138893Y-59732867D01*
X100117849Y-59745480D01*
X100095671Y-59755970D01*
X100072571Y-59764235D01*
X100048773Y-59770196D01*
X100024504Y-59773796D01*
X100000000Y-59775000D01*
X98800000Y-59775000D01*
X98775496Y-59773796D01*
X98751227Y-59770196D01*
X98727429Y-59764235D01*
X98704329Y-59755970D01*
X98682151Y-59745480D01*
X98661107Y-59732867D01*
X98641402Y-59718253D01*
X98623223Y-59701777D01*
X98606747Y-59683598D01*
X98592133Y-59663893D01*
X98579520Y-59642849D01*
X98569030Y-59620671D01*
X98560765Y-59597571D01*
X98554804Y-59573773D01*
X98551204Y-59549504D01*
X98550000Y-59525000D01*
X98550000Y-58075000D01*
X98551204Y-58050496D01*
X98554804Y-58026227D01*
X98560765Y-58002429D01*
X98569030Y-57979329D01*
X98579520Y-57957151D01*
X98592133Y-57936107D01*
X98606747Y-57916402D01*
X98623223Y-57898223D01*
X98641402Y-57881747D01*
X98661107Y-57867133D01*
X98682151Y-57854520D01*
X98704329Y-57844030D01*
X98727429Y-57835765D01*
X98751227Y-57829804D01*
X98775496Y-57826204D01*
X98800000Y-57825000D01*
X100000000Y-57825000D01*
X100024504Y-57826204D01*
X100024504Y-57826204D01*
G37*
D16*
X99400000Y-58800000D03*
D17*
X110280000Y-42966000D03*
X80280000Y-42966000D03*
D18*
X78400000Y86100000D03*
X-86100000Y78400000D03*
X-78400000Y-86100000D03*
X76800000Y-81500000D03*
X78050000Y-81165064D03*
X78965064Y-80250000D03*
X79300000Y-79000000D03*
X78965064Y-77750000D03*
X78050000Y-76834936D03*
X76800000Y-76500000D03*
X75550000Y-76834936D03*
X74634936Y-77750000D03*
X74300000Y-79000000D03*
X74634936Y-80250000D03*
X75550000Y-81165064D03*
X76800000Y-34500000D03*
X75550000Y-29834936D03*
X79300000Y-32000000D03*
X78050000Y-34165064D03*
X75550000Y-34165064D03*
X78965064Y-30750000D03*
X76800000Y-29500000D03*
X74634936Y-30750000D03*
X74634936Y-33250000D03*
X78965064Y-33250000D03*
X74300000Y-32000000D03*
X78050000Y-29834936D03*
X143300000Y-34500000D03*
X142050000Y-29834936D03*
X145800000Y-32000000D03*
X144550000Y-34165064D03*
X142050000Y-34165064D03*
X145465064Y-30750000D03*
X143300000Y-29500000D03*
X141134936Y-30750000D03*
X141134936Y-33250000D03*
X145465064Y-33250000D03*
X140800000Y-32000000D03*
X144550000Y-29834936D03*
X143300000Y-81500000D03*
X142050000Y-76834936D03*
X145800000Y-79000000D03*
X144550000Y-81165064D03*
X142050000Y-81165064D03*
X145465064Y-77750000D03*
X143300000Y-76500000D03*
X141134936Y-77750000D03*
X141134936Y-80250000D03*
X145465064Y-80250000D03*
X140800000Y-79000000D03*
X144550000Y-76834936D03*
X106800000Y-55400000D03*
X108274990Y-54300000D03*
X114800000Y-53300000D03*
X109072100Y-59179518D03*
X91300000Y-53000000D03*
X92100000Y-53000000D03*
X90500000Y-53000000D03*
X90500000Y-51400000D03*
X91300000Y-51400000D03*
X92100000Y-51400000D03*
X92100000Y-52200000D03*
X90500000Y-52200000D03*
X75000000Y-72600000D03*
X78000000Y-71600000D03*
X78000000Y-73600000D03*
X76000000Y-73600000D03*
X81000000Y-72600000D03*
X83000000Y-72600000D03*
X81000000Y-73600000D03*
X88000000Y-72600000D03*
X74000000Y-72600000D03*
X77000000Y-73600000D03*
X119500000Y-51000000D03*
X120500000Y-50000000D03*
X118500000Y-57000000D03*
X120500000Y-49000000D03*
X121500000Y-57000000D03*
X118500000Y-52000000D03*
X119500000Y-50000000D03*
X119500000Y-55000000D03*
X121500000Y-54000000D03*
X119500000Y-52000000D03*
X121500000Y-52000000D03*
X119500000Y-53000000D03*
X121500000Y-59000000D03*
X120500000Y-60000000D03*
X118500000Y-56000000D03*
X121500000Y-56000000D03*
X120500000Y-59000000D03*
X120500000Y-57000000D03*
X118500000Y-60000000D03*
X121500000Y-55000000D03*
X119500000Y-54000000D03*
X118500000Y-59000000D03*
X121500000Y-60000000D03*
X120500000Y-55000000D03*
X120500000Y-56000000D03*
X118500000Y-55000000D03*
X120500000Y-58000000D03*
X121500000Y-58000000D03*
X119500000Y-60000000D03*
X119500000Y-56000000D03*
X119500000Y-57000000D03*
X119500000Y-61000000D03*
X120500000Y-61000000D03*
X118500000Y-61000000D03*
X121500000Y-61000000D03*
X119500000Y-58000000D03*
X119500000Y-59000000D03*
X118500000Y-58000000D03*
X118500000Y-43000000D03*
X121500000Y-47000000D03*
X119500000Y-44000000D03*
X119500000Y-48000000D03*
X121500000Y-48000000D03*
X118500000Y-44000000D03*
X119500000Y-47000000D03*
X121500000Y-46000000D03*
X120500000Y-46000000D03*
X120500000Y-45000000D03*
X119500000Y-45000000D03*
X120500000Y-48000000D03*
X120500000Y-47000000D03*
X118500000Y-45000000D03*
X118500000Y-46000000D03*
X118500000Y-47000000D03*
X121500000Y-43000000D03*
X121500000Y-45000000D03*
X120500000Y-43000000D03*
X119500000Y-49000000D03*
X120500000Y-44000000D03*
X118500000Y-48000000D03*
X119500000Y-46000000D03*
X121500000Y-44000000D03*
X118500000Y-53000000D03*
X120500000Y-51000000D03*
X118500000Y-49000000D03*
X121500000Y-49000000D03*
X118500000Y-50000000D03*
X121500000Y-53000000D03*
X120500000Y-52000000D03*
X118500000Y-51000000D03*
X118500000Y-54000000D03*
X121500000Y-51000000D03*
X120500000Y-53000000D03*
X120500000Y-54000000D03*
X121500000Y-50000000D03*
X119500000Y-37000000D03*
X118500000Y-41000000D03*
X119500000Y-38000000D03*
X121500000Y-42000000D03*
X118500000Y-39000000D03*
X118500000Y-38000000D03*
X120500000Y-37000000D03*
X119500000Y-39000000D03*
X120500000Y-38000000D03*
X119500000Y-42000000D03*
X120500000Y-41000000D03*
X119500000Y-40000000D03*
X120500000Y-40000000D03*
X120500000Y-42000000D03*
X119500000Y-41000000D03*
X118500000Y-40000000D03*
X121500000Y-41000000D03*
X121500000Y-40000000D03*
X118500000Y-42000000D03*
X118500000Y-37000000D03*
X119500000Y-43000000D03*
X121500000Y-39000000D03*
X121500000Y-37000000D03*
X121500000Y-38000000D03*
X120500000Y-39000000D03*
X74000000Y-67600000D03*
X80000000Y-72600000D03*
X88000000Y-73600000D03*
X81000000Y-71600000D03*
X75000000Y-71600000D03*
X75000000Y-67600000D03*
X76000000Y-72600000D03*
X87000000Y-72600000D03*
X82000000Y-73600000D03*
X79000000Y-72600000D03*
X78000000Y-72600000D03*
X79000000Y-69600000D03*
X84000000Y-72600000D03*
X83000000Y-73600000D03*
X87000000Y-71600000D03*
X88000000Y-63600000D03*
X86000000Y-71600000D03*
X85000000Y-73600000D03*
X76000000Y-63600000D03*
X86000000Y-73600000D03*
X74000000Y-63600000D03*
X75000000Y-73600000D03*
X77000000Y-67600000D03*
X77000000Y-71600000D03*
X79000000Y-73600000D03*
X74000000Y-71600000D03*
X80000000Y-73600000D03*
X85000000Y-72600000D03*
X88000000Y-67600000D03*
X79000000Y-71600000D03*
X85000000Y-67600000D03*
X80000000Y-63600000D03*
X85000000Y-71600000D03*
X82000000Y-71600000D03*
X85000000Y-63600000D03*
X82000000Y-72600000D03*
X76000000Y-67600000D03*
X84000000Y-73600000D03*
X77000000Y-63600000D03*
X84000000Y-67600000D03*
X78000000Y-67600000D03*
X75000000Y-63600000D03*
X86000000Y-63600000D03*
X83000000Y-71600000D03*
X81000000Y-63600000D03*
X87000000Y-63600000D03*
X79000000Y-63600000D03*
X80000000Y-67600000D03*
X76000000Y-71600000D03*
X87000000Y-73600000D03*
X84000000Y-71600000D03*
X83000000Y-63600000D03*
X80000000Y-71600000D03*
X87000000Y-67600000D03*
X79000000Y-67600000D03*
X81000000Y-67600000D03*
X82000000Y-67600000D03*
X84000000Y-63600000D03*
X78000000Y-63600000D03*
X86000000Y-67600000D03*
X86000000Y-72600000D03*
X83000000Y-67600000D03*
X74000000Y-73600000D03*
X82000000Y-63600000D03*
X77000000Y-69600000D03*
X85000000Y-70600000D03*
X84000000Y-70600000D03*
X76000000Y-69600000D03*
X78000000Y-66600000D03*
X87000000Y-68600000D03*
X74000000Y-66600000D03*
X86000000Y-68600000D03*
X83000000Y-66600000D03*
X87000000Y-65600000D03*
X85000000Y-65600000D03*
X77000000Y-68600000D03*
X84000000Y-68600000D03*
X81000000Y-65600000D03*
X74000000Y-69600000D03*
X78000000Y-69600000D03*
X80000000Y-69600000D03*
X82000000Y-70600000D03*
X83000000Y-70600000D03*
X86000000Y-65600000D03*
X86000000Y-70600000D03*
X78000000Y-70600000D03*
X76000000Y-65600000D03*
X81000000Y-70600000D03*
X77000000Y-70600000D03*
X79000000Y-68600000D03*
X79000000Y-70600000D03*
X74000000Y-70600000D03*
X82000000Y-69600000D03*
X75000000Y-69600000D03*
X75000000Y-68600000D03*
X74000000Y-65600000D03*
X77000000Y-65600000D03*
X84000000Y-69600000D03*
X88000000Y-70600000D03*
X85000000Y-68600000D03*
X86000000Y-69600000D03*
X80000000Y-65600000D03*
X88000000Y-69600000D03*
X84000000Y-65600000D03*
X80000000Y-68600000D03*
X81000000Y-69600000D03*
X76000000Y-70600000D03*
X83000000Y-69600000D03*
X78000000Y-65600000D03*
X88000000Y-68600000D03*
X85000000Y-69600000D03*
X87000000Y-69600000D03*
X82000000Y-65600000D03*
X88000000Y-66600000D03*
X78000000Y-68600000D03*
X83000000Y-68600000D03*
X82000000Y-68600000D03*
X74000000Y-68600000D03*
X75000000Y-70600000D03*
X79000000Y-65600000D03*
X83000000Y-65600000D03*
X81000000Y-68600000D03*
X76000000Y-68600000D03*
X82000000Y-66600000D03*
X80000000Y-70600000D03*
X75000000Y-65600000D03*
X87000000Y-70600000D03*
X88000000Y-65600000D03*
X75000000Y-64600000D03*
X85000000Y-64600000D03*
X82000000Y-64600000D03*
X81000000Y-66600000D03*
X76000000Y-66600000D03*
X88000000Y-64600000D03*
X77000000Y-64600000D03*
X86000000Y-66600000D03*
X74000000Y-64600000D03*
X76000000Y-64600000D03*
X87000000Y-64600000D03*
X78000000Y-64600000D03*
X84000000Y-64600000D03*
X83000000Y-64600000D03*
X77000000Y-66600000D03*
X79000000Y-66600000D03*
X75000000Y-66600000D03*
X80000000Y-66600000D03*
X87000000Y-66600000D03*
X84000000Y-66600000D03*
X86000000Y-64600000D03*
X85000000Y-66600000D03*
X79000000Y-64600000D03*
X81000000Y-64600000D03*
X80000000Y-64600000D03*
X88000000Y-71600000D03*
X77000000Y-72600000D03*
X141000000Y-63600000D03*
X132000000Y-72600000D03*
X139000000Y-63600000D03*
X146000000Y-63600000D03*
X144000000Y-71600000D03*
X144000000Y-63600000D03*
X134000000Y-63600000D03*
X145000000Y-63600000D03*
X135000000Y-63600000D03*
X138000000Y-63600000D03*
X140000000Y-63600000D03*
X145000000Y-72600000D03*
X143000000Y-63600000D03*
X136000000Y-63600000D03*
X141000000Y-71600000D03*
X142000000Y-63600000D03*
X132000000Y-63600000D03*
X133000000Y-63600000D03*
X137000000Y-63600000D03*
X135000000Y-65600000D03*
X146000000Y-66600000D03*
X139000000Y-65600000D03*
X132000000Y-66600000D03*
X141000000Y-65600000D03*
X140000000Y-64600000D03*
X133000000Y-65600000D03*
X144000000Y-65600000D03*
X134000000Y-66600000D03*
X146000000Y-65600000D03*
X146000000Y-64600000D03*
X138000000Y-65600000D03*
X136000000Y-64600000D03*
X141000000Y-64600000D03*
X140000000Y-65600000D03*
X142000000Y-66600000D03*
X139000000Y-64600000D03*
X133000000Y-64600000D03*
X138000000Y-64600000D03*
X145000000Y-64600000D03*
X145000000Y-66600000D03*
X144000000Y-64600000D03*
X133000000Y-66600000D03*
X138000000Y-66600000D03*
X143000000Y-65600000D03*
X143000000Y-66600000D03*
X144000000Y-66600000D03*
X134000000Y-65600000D03*
X142000000Y-65600000D03*
X132000000Y-64600000D03*
X137000000Y-66600000D03*
X143000000Y-64600000D03*
X134000000Y-64600000D03*
X135000000Y-64600000D03*
X137000000Y-64600000D03*
X145000000Y-65600000D03*
X142000000Y-64600000D03*
X143000000Y-72600000D03*
X146000000Y-73600000D03*
X136000000Y-73600000D03*
X135000000Y-73600000D03*
X132000000Y-71600000D03*
X134000000Y-71600000D03*
X143000000Y-73600000D03*
X135000000Y-72600000D03*
X133000000Y-71600000D03*
X137000000Y-71600000D03*
X132000000Y-73600000D03*
X138000000Y-73600000D03*
X146000000Y-71600000D03*
X142000000Y-73600000D03*
X136000000Y-71600000D03*
X144000000Y-73600000D03*
X140000000Y-71600000D03*
X138000000Y-71600000D03*
X136000000Y-67600000D03*
X139000000Y-70600000D03*
X139000000Y-73600000D03*
X133000000Y-72600000D03*
X137000000Y-73600000D03*
X134000000Y-73600000D03*
X146000000Y-68600000D03*
X140000000Y-72600000D03*
X144000000Y-72600000D03*
X141000000Y-72600000D03*
X146000000Y-72600000D03*
X138000000Y-72600000D03*
X141000000Y-73600000D03*
X136000000Y-72600000D03*
X145000000Y-71600000D03*
X135000000Y-69600000D03*
X134000000Y-72600000D03*
X142000000Y-71600000D03*
X137000000Y-72600000D03*
X145000000Y-73600000D03*
X135000000Y-71600000D03*
X140000000Y-73600000D03*
X143000000Y-71600000D03*
X142000000Y-72600000D03*
X139000000Y-71600000D03*
X133000000Y-73600000D03*
X139000000Y-69600000D03*
X136000000Y-68600000D03*
X133000000Y-69600000D03*
X136000000Y-70600000D03*
X146000000Y-67600000D03*
X137000000Y-67600000D03*
X134000000Y-70600000D03*
X134000000Y-67600000D03*
X141000000Y-68600000D03*
X137000000Y-65600000D03*
X132000000Y-65600000D03*
X137000000Y-70600000D03*
X140000000Y-69600000D03*
X143000000Y-70600000D03*
X141000000Y-69600000D03*
X144000000Y-67600000D03*
X141000000Y-66600000D03*
X136000000Y-66600000D03*
X138000000Y-67600000D03*
X133000000Y-67600000D03*
X140000000Y-70600000D03*
X136000000Y-69600000D03*
X144000000Y-68600000D03*
X137000000Y-69600000D03*
X141000000Y-67600000D03*
X135000000Y-68600000D03*
X145000000Y-70600000D03*
X142000000Y-67600000D03*
X142000000Y-70600000D03*
X134000000Y-68600000D03*
X135000000Y-67600000D03*
X143000000Y-69600000D03*
X143000000Y-68600000D03*
X138000000Y-70600000D03*
X139000000Y-68600000D03*
X138000000Y-68600000D03*
X145000000Y-69600000D03*
X144000000Y-70600000D03*
X132000000Y-68600000D03*
X136000000Y-65600000D03*
X145000000Y-67600000D03*
X134000000Y-69600000D03*
X142000000Y-68600000D03*
X132000000Y-67600000D03*
X144000000Y-69600000D03*
X141000000Y-70600000D03*
X145000000Y-68600000D03*
X143000000Y-67600000D03*
X140000000Y-67600000D03*
X140000000Y-66600000D03*
X142000000Y-69600000D03*
X137000000Y-68600000D03*
X133000000Y-70600000D03*
X133000000Y-68600000D03*
X140000000Y-68600000D03*
X135000000Y-66600000D03*
X139000000Y-66600000D03*
X132000000Y-70600000D03*
X146000000Y-69600000D03*
X139000000Y-67600000D03*
X132000000Y-69600000D03*
X146000000Y-70600000D03*
X138000000Y-69600000D03*
X135000000Y-70600000D03*
X139000000Y-72600000D03*
X116500000Y-61100000D03*
X105000000Y-61225010D03*
X108700000Y-53300000D03*
X108310954Y-60674990D03*
X102300000Y-59574990D03*
X108800000Y-51900000D03*
X141000000Y-38200000D03*
X140000000Y-42200000D03*
X137000000Y-37200000D03*
X136000000Y-41200000D03*
X139000000Y-37200000D03*
X141000000Y-40200000D03*
X136000000Y-39200000D03*
X136000000Y-38200000D03*
X136000000Y-42200000D03*
X140000000Y-38200000D03*
X139000000Y-39200000D03*
X139000000Y-41200000D03*
X141000000Y-42200000D03*
X139000000Y-43200000D03*
X141000000Y-43200000D03*
X142000000Y-38200000D03*
X140000000Y-40200000D03*
X140000000Y-41200000D03*
X138000000Y-42200000D03*
X137000000Y-38200000D03*
X138000000Y-43200000D03*
X140000000Y-43200000D03*
X136000000Y-43200000D03*
X142000000Y-43200000D03*
X138000000Y-38200000D03*
X140000000Y-39200000D03*
X141000000Y-41200000D03*
X137000000Y-43200000D03*
X139000000Y-38200000D03*
X142000000Y-40200000D03*
X142000000Y-39200000D03*
X137000000Y-41200000D03*
X138000000Y-41200000D03*
X141000000Y-37200000D03*
X142000000Y-37200000D03*
X138000000Y-40200000D03*
X136000000Y-37200000D03*
X138000000Y-39200000D03*
X136000000Y-40200000D03*
X138000000Y-37200000D03*
X142000000Y-41200000D03*
X137000000Y-40200000D03*
X139000000Y-40200000D03*
X140000000Y-37200000D03*
X141000000Y-39200000D03*
X139000000Y-42200000D03*
X137000000Y-39200000D03*
X142000000Y-42200000D03*
X137000000Y-42200000D03*
X137000000Y-44200000D03*
X141000000Y-47200000D03*
X136000000Y-46200000D03*
X136000000Y-49200000D03*
X140000000Y-45200000D03*
X141000000Y-49200000D03*
X141000000Y-50200000D03*
X136000000Y-48200000D03*
X139000000Y-44200000D03*
X136000000Y-45200000D03*
X139000000Y-46200000D03*
X139000000Y-48200000D03*
X139000000Y-50200000D03*
X142000000Y-45200000D03*
X140000000Y-47200000D03*
X140000000Y-49200000D03*
X140000000Y-48200000D03*
X138000000Y-49200000D03*
X141000000Y-45200000D03*
X142000000Y-46200000D03*
X138000000Y-50200000D03*
X141000000Y-48200000D03*
X139000000Y-45200000D03*
X138000000Y-48200000D03*
X138000000Y-46200000D03*
X141000000Y-44200000D03*
X142000000Y-44200000D03*
X136000000Y-44200000D03*
X138000000Y-47200000D03*
X140000000Y-50200000D03*
X142000000Y-47200000D03*
X136000000Y-50200000D03*
X136000000Y-47200000D03*
X137000000Y-47200000D03*
X137000000Y-45200000D03*
X137000000Y-50200000D03*
X141000000Y-46200000D03*
X142000000Y-50200000D03*
X138000000Y-44200000D03*
X137000000Y-48200000D03*
X139000000Y-47200000D03*
X139000000Y-49200000D03*
X140000000Y-46200000D03*
X140000000Y-44200000D03*
X137000000Y-46200000D03*
X138000000Y-45200000D03*
X137000000Y-49200000D03*
X142000000Y-48200000D03*
X142000000Y-49200000D03*
X145000000Y-44200000D03*
X143000000Y-46200000D03*
X144000000Y-48200000D03*
X143000000Y-48200000D03*
X144000000Y-46200000D03*
X144000000Y-45200000D03*
X144000000Y-49200000D03*
X143000000Y-47200000D03*
X143000000Y-44200000D03*
X146000000Y-49200000D03*
X143000000Y-50200000D03*
X145000000Y-45200000D03*
X146000000Y-50200000D03*
X144000000Y-50200000D03*
X146000000Y-45200000D03*
X145000000Y-50200000D03*
X145000000Y-48200000D03*
X146000000Y-48200000D03*
X146000000Y-47200000D03*
X144000000Y-44200000D03*
X146000000Y-46200000D03*
X144000000Y-47200000D03*
X143000000Y-49200000D03*
X143000000Y-45200000D03*
X146000000Y-44200000D03*
X145000000Y-47200000D03*
X145000000Y-46200000D03*
X145000000Y-49200000D03*
X137000000Y-51200000D03*
X141000000Y-54200000D03*
X136000000Y-53200000D03*
X136000000Y-56200000D03*
X140000000Y-52200000D03*
X141000000Y-56200000D03*
X141000000Y-57200000D03*
X136000000Y-55200000D03*
X139000000Y-51200000D03*
X136000000Y-52200000D03*
X139000000Y-53200000D03*
X139000000Y-55200000D03*
X139000000Y-57200000D03*
X142000000Y-52200000D03*
X140000000Y-54200000D03*
X140000000Y-56200000D03*
X140000000Y-55200000D03*
X138000000Y-56200000D03*
X141000000Y-52200000D03*
X142000000Y-53200000D03*
X138000000Y-57200000D03*
X141000000Y-55200000D03*
X139000000Y-52200000D03*
X138000000Y-55200000D03*
X138000000Y-53200000D03*
X141000000Y-51200000D03*
X142000000Y-51200000D03*
X136000000Y-51200000D03*
X138000000Y-54200000D03*
X140000000Y-57200000D03*
X142000000Y-54200000D03*
X136000000Y-57200000D03*
X136000000Y-54200000D03*
X137000000Y-54200000D03*
X137000000Y-52200000D03*
X137000000Y-57200000D03*
X141000000Y-53200000D03*
X142000000Y-57200000D03*
X138000000Y-51200000D03*
X137000000Y-55200000D03*
X139000000Y-54200000D03*
X139000000Y-56200000D03*
X140000000Y-53200000D03*
X140000000Y-51200000D03*
X137000000Y-53200000D03*
X138000000Y-52200000D03*
X137000000Y-56200000D03*
X142000000Y-55200000D03*
X142000000Y-56200000D03*
X145000000Y-51200000D03*
X143000000Y-53200000D03*
X144000000Y-55200000D03*
X143000000Y-55200000D03*
X144000000Y-53200000D03*
X144000000Y-52200000D03*
X144000000Y-56200000D03*
X143000000Y-54200000D03*
X143000000Y-51200000D03*
X146000000Y-56200000D03*
X143000000Y-57200000D03*
X145000000Y-52200000D03*
X146000000Y-57200000D03*
X144000000Y-57200000D03*
X146000000Y-52200000D03*
X145000000Y-57200000D03*
X145000000Y-55200000D03*
X146000000Y-55200000D03*
X146000000Y-54200000D03*
X144000000Y-51200000D03*
X146000000Y-53200000D03*
X144000000Y-54200000D03*
X143000000Y-56200000D03*
X143000000Y-52200000D03*
X146000000Y-51200000D03*
X145000000Y-54200000D03*
X145000000Y-53200000D03*
X145000000Y-56200000D03*
X146000000Y-58200000D03*
X144000000Y-58200000D03*
X143000000Y-58200000D03*
X145000000Y-58200000D03*
X140000000Y-58200000D03*
X141000000Y-58200000D03*
X136000000Y-58200000D03*
X137000000Y-58200000D03*
X142000000Y-58200000D03*
X139000000Y-58200000D03*
X138000000Y-58200000D03*
X146000000Y-59200000D03*
X144000000Y-59200000D03*
X143000000Y-59200000D03*
X145000000Y-59200000D03*
X140000000Y-59200000D03*
X141000000Y-59200000D03*
X136000000Y-59200000D03*
X137000000Y-59200000D03*
X142000000Y-59200000D03*
X139000000Y-59200000D03*
X138000000Y-59200000D03*
X146000000Y-60200000D03*
X144000000Y-60200000D03*
X143000000Y-60200000D03*
X145000000Y-60200000D03*
X140000000Y-60200000D03*
X141000000Y-60200000D03*
X136000000Y-60200000D03*
X137000000Y-60200000D03*
X142000000Y-60200000D03*
X139000000Y-60200000D03*
X138000000Y-60200000D03*
X146000000Y-61200000D03*
X144000000Y-61200000D03*
X143000000Y-61200000D03*
X145000000Y-61200000D03*
X140000000Y-61200000D03*
X141000000Y-61200000D03*
X136000000Y-61200000D03*
X137000000Y-61200000D03*
X142000000Y-61200000D03*
X139000000Y-61200000D03*
X138000000Y-61200000D03*
X144000000Y-37200000D03*
X146000000Y-38200000D03*
X144000000Y-38200000D03*
X146000000Y-37200000D03*
X145000000Y-37200000D03*
X145000000Y-38200000D03*
X143000000Y-37200000D03*
X143000000Y-38200000D03*
X145000000Y-39200000D03*
X145000000Y-40200000D03*
X146000000Y-39200000D03*
X143000000Y-39200000D03*
X143000000Y-40200000D03*
X146000000Y-40200000D03*
X144000000Y-40200000D03*
X144000000Y-39200000D03*
X145000000Y-41200000D03*
X145000000Y-42200000D03*
X146000000Y-41200000D03*
X143000000Y-41200000D03*
X143000000Y-42200000D03*
X146000000Y-42200000D03*
X144000000Y-42200000D03*
X144000000Y-41200000D03*
X143000000Y-43200000D03*
X146000000Y-43200000D03*
X144000000Y-43200000D03*
X145000000Y-43200000D03*
X95500000Y-51300000D03*
X99400000Y-51300000D03*
X87700000Y-54700000D03*
X95600000Y-54700000D03*
X92674990Y-54700000D03*
X131500000Y-37000000D03*
X129500000Y-39000000D03*
X130500000Y-41000000D03*
X129500000Y-41000000D03*
X130500000Y-39000000D03*
X130500000Y-38000000D03*
X130500000Y-42000000D03*
X129500000Y-40000000D03*
X129500000Y-37000000D03*
X132500000Y-42000000D03*
X131500000Y-38000000D03*
X132500000Y-38000000D03*
X131500000Y-41000000D03*
X132500000Y-41000000D03*
X132500000Y-40000000D03*
X130500000Y-37000000D03*
X132500000Y-39000000D03*
X130500000Y-40000000D03*
X129500000Y-42000000D03*
X129500000Y-38000000D03*
X132500000Y-37000000D03*
X131500000Y-40000000D03*
X131500000Y-39000000D03*
X131500000Y-42000000D03*
X123500000Y-37000000D03*
X127500000Y-40000000D03*
X122500000Y-39000000D03*
X122500000Y-42000000D03*
X126500000Y-38000000D03*
X127500000Y-42000000D03*
X122500000Y-41000000D03*
X125500000Y-37000000D03*
X122500000Y-38000000D03*
X125500000Y-39000000D03*
X125500000Y-41000000D03*
X128500000Y-38000000D03*
X126500000Y-40000000D03*
X126500000Y-42000000D03*
X126500000Y-41000000D03*
X124500000Y-42000000D03*
X127500000Y-38000000D03*
X128500000Y-39000000D03*
X127500000Y-41000000D03*
X125500000Y-38000000D03*
X124500000Y-41000000D03*
X124500000Y-39000000D03*
X127500000Y-37000000D03*
X128500000Y-37000000D03*
X122500000Y-37000000D03*
X124500000Y-40000000D03*
X128500000Y-40000000D03*
X122500000Y-40000000D03*
X123500000Y-40000000D03*
X123500000Y-38000000D03*
X127500000Y-39000000D03*
X124500000Y-37000000D03*
X123500000Y-41000000D03*
X125500000Y-40000000D03*
X125500000Y-42000000D03*
X126500000Y-39000000D03*
X126500000Y-37000000D03*
X123500000Y-39000000D03*
X124500000Y-38000000D03*
X123500000Y-42000000D03*
X131500000Y-43000000D03*
X129500000Y-45000000D03*
X130500000Y-47000000D03*
X129500000Y-47000000D03*
X130500000Y-45000000D03*
X130500000Y-44000000D03*
X130500000Y-48000000D03*
X129500000Y-46000000D03*
X129500000Y-43000000D03*
X132500000Y-48000000D03*
X131500000Y-44000000D03*
X132500000Y-44000000D03*
X131500000Y-47000000D03*
X132500000Y-47000000D03*
X132500000Y-46000000D03*
X130500000Y-43000000D03*
X132500000Y-45000000D03*
X130500000Y-46000000D03*
X129500000Y-48000000D03*
X129500000Y-44000000D03*
X132500000Y-43000000D03*
X131500000Y-46000000D03*
X131500000Y-45000000D03*
X131500000Y-48000000D03*
X123500000Y-43000000D03*
X127500000Y-46000000D03*
X122500000Y-45000000D03*
X122500000Y-48000000D03*
X126500000Y-44000000D03*
X127500000Y-48000000D03*
X122500000Y-47000000D03*
X125500000Y-43000000D03*
X122500000Y-44000000D03*
X125500000Y-45000000D03*
X125500000Y-47000000D03*
X128500000Y-44000000D03*
X126500000Y-46000000D03*
X126500000Y-48000000D03*
X126500000Y-47000000D03*
X124500000Y-48000000D03*
X127500000Y-44000000D03*
X128500000Y-45000000D03*
X127500000Y-47000000D03*
X125500000Y-44000000D03*
X124500000Y-47000000D03*
X124500000Y-45000000D03*
X127500000Y-43000000D03*
X128500000Y-43000000D03*
X122500000Y-43000000D03*
X124500000Y-46000000D03*
X128500000Y-46000000D03*
X122500000Y-46000000D03*
X123500000Y-46000000D03*
X123500000Y-44000000D03*
X127500000Y-45000000D03*
X124500000Y-43000000D03*
X123500000Y-47000000D03*
X125500000Y-46000000D03*
X125500000Y-48000000D03*
X126500000Y-45000000D03*
X126500000Y-43000000D03*
X123500000Y-45000000D03*
X124500000Y-44000000D03*
X123500000Y-48000000D03*
X131500000Y-49000000D03*
X129500000Y-51000000D03*
X130500000Y-53000000D03*
X129500000Y-53000000D03*
X130500000Y-51000000D03*
X130500000Y-50000000D03*
X130500000Y-54000000D03*
X129500000Y-52000000D03*
X129500000Y-49000000D03*
X132500000Y-54000000D03*
X131500000Y-50000000D03*
X132500000Y-50000000D03*
X131500000Y-53000000D03*
X132500000Y-53000000D03*
X132500000Y-52000000D03*
X130500000Y-49000000D03*
X132500000Y-51000000D03*
X130500000Y-52000000D03*
X129500000Y-54000000D03*
X129500000Y-50000000D03*
X132500000Y-49000000D03*
X131500000Y-52000000D03*
X131500000Y-51000000D03*
X131500000Y-54000000D03*
X123500000Y-49000000D03*
X127500000Y-52000000D03*
X122500000Y-51000000D03*
X122500000Y-54000000D03*
X126500000Y-50000000D03*
X127500000Y-54000000D03*
X122500000Y-53000000D03*
X125500000Y-49000000D03*
X122500000Y-50000000D03*
X125500000Y-51000000D03*
X125500000Y-53000000D03*
X128500000Y-50000000D03*
X126500000Y-52000000D03*
X126500000Y-54000000D03*
X126500000Y-53000000D03*
X124500000Y-54000000D03*
X127500000Y-50000000D03*
X128500000Y-51000000D03*
X127500000Y-53000000D03*
X125500000Y-50000000D03*
X124500000Y-53000000D03*
X124500000Y-51000000D03*
X127500000Y-49000000D03*
X128500000Y-49000000D03*
X122500000Y-49000000D03*
X124500000Y-52000000D03*
X128500000Y-52000000D03*
X122500000Y-52000000D03*
X123500000Y-52000000D03*
X123500000Y-50000000D03*
X127500000Y-51000000D03*
X124500000Y-49000000D03*
X123500000Y-53000000D03*
X125500000Y-52000000D03*
X125500000Y-54000000D03*
X126500000Y-51000000D03*
X126500000Y-49000000D03*
X123500000Y-51000000D03*
X124500000Y-50000000D03*
X123500000Y-54000000D03*
X128500000Y-53000000D03*
X128500000Y-54000000D03*
X131500000Y-55000000D03*
X129500000Y-57000000D03*
X130500000Y-59000000D03*
X129500000Y-59000000D03*
X130500000Y-57000000D03*
X130500000Y-56000000D03*
X130500000Y-60000000D03*
X129500000Y-58000000D03*
X129500000Y-55000000D03*
X132500000Y-60000000D03*
X131500000Y-56000000D03*
X132500000Y-56000000D03*
X131500000Y-59000000D03*
X132500000Y-59000000D03*
X132500000Y-58000000D03*
X130500000Y-55000000D03*
X132500000Y-57000000D03*
X130500000Y-58000000D03*
X129500000Y-60000000D03*
X129500000Y-56000000D03*
X132500000Y-55000000D03*
X131500000Y-58000000D03*
X131500000Y-57000000D03*
X131500000Y-60000000D03*
X123500000Y-55000000D03*
X127500000Y-58000000D03*
X122500000Y-57000000D03*
X122500000Y-60000000D03*
X126500000Y-56000000D03*
X127500000Y-60000000D03*
X122500000Y-59000000D03*
X125500000Y-55000000D03*
X122500000Y-56000000D03*
X125500000Y-57000000D03*
X125500000Y-59000000D03*
X128500000Y-56000000D03*
X126500000Y-58000000D03*
X126500000Y-60000000D03*
X126500000Y-59000000D03*
X124500000Y-60000000D03*
X127500000Y-56000000D03*
X128500000Y-57000000D03*
X127500000Y-59000000D03*
X125500000Y-56000000D03*
X124500000Y-59000000D03*
X124500000Y-57000000D03*
X127500000Y-55000000D03*
X128500000Y-55000000D03*
X122500000Y-55000000D03*
X124500000Y-58000000D03*
X128500000Y-58000000D03*
X122500000Y-58000000D03*
X123500000Y-58000000D03*
X123500000Y-56000000D03*
X127500000Y-57000000D03*
X124500000Y-55000000D03*
X123500000Y-59000000D03*
X125500000Y-58000000D03*
X125500000Y-60000000D03*
X126500000Y-57000000D03*
X126500000Y-55000000D03*
X123500000Y-57000000D03*
X124500000Y-56000000D03*
X123500000Y-60000000D03*
X127500000Y-61000000D03*
X122500000Y-61000000D03*
X126500000Y-61000000D03*
X125500000Y-61000000D03*
X123500000Y-61000000D03*
X124500000Y-61000000D03*
X130500000Y-61000000D03*
X129500000Y-61000000D03*
X132500000Y-61000000D03*
X131500000Y-61000000D03*
X128500000Y-61000000D03*
X128500000Y-59000000D03*
X128500000Y-60000000D03*
X128500000Y-47000000D03*
X128500000Y-48000000D03*
X128500000Y-41000000D03*
X128500000Y-42000000D03*
X85000000Y-50400000D03*
X75000000Y-53400000D03*
X81000000Y-53400000D03*
X80000000Y-53400000D03*
X86000000Y-50400000D03*
X85000000Y-51400000D03*
X86000000Y-52400000D03*
X86000000Y-53400000D03*
X76000000Y-53400000D03*
X74000000Y-53400000D03*
X78000000Y-53400000D03*
X86000000Y-51400000D03*
X79000000Y-53400000D03*
X84000000Y-53400000D03*
X85000000Y-53400000D03*
X83000000Y-53400000D03*
X85000000Y-52400000D03*
X77000000Y-53400000D03*
X82000000Y-55400000D03*
X75000000Y-54400000D03*
X78000000Y-54400000D03*
X83000000Y-55400000D03*
X84000000Y-55400000D03*
X77000000Y-55400000D03*
X84000000Y-54400000D03*
X85000000Y-54400000D03*
X75000000Y-55400000D03*
X81000000Y-55400000D03*
X78000000Y-56400000D03*
X86000000Y-55400000D03*
X77000000Y-57400000D03*
X81000000Y-54400000D03*
X84000000Y-56400000D03*
X80000000Y-54400000D03*
X79000000Y-55400000D03*
X85000000Y-56400000D03*
X75000000Y-57400000D03*
X83000000Y-57400000D03*
X81000000Y-57400000D03*
X77000000Y-54400000D03*
X83000000Y-54400000D03*
X76000000Y-54400000D03*
X86000000Y-54400000D03*
X85000000Y-55400000D03*
X78000000Y-55400000D03*
X76000000Y-55400000D03*
X79000000Y-54400000D03*
X82000000Y-57400000D03*
X80000000Y-55400000D03*
X74000000Y-54400000D03*
X82000000Y-54400000D03*
X75000000Y-56400000D03*
X82000000Y-53400000D03*
X74000000Y-55400000D03*
X84000000Y-57400000D03*
X77000000Y-56400000D03*
X86000000Y-56400000D03*
X82000000Y-56400000D03*
X78000000Y-57400000D03*
X76000000Y-57400000D03*
X74000000Y-57400000D03*
X81000000Y-56400000D03*
X85000000Y-57400000D03*
X86000000Y-57400000D03*
X76000000Y-56400000D03*
X80000000Y-56400000D03*
X80000000Y-57400000D03*
X79000000Y-56400000D03*
X83000000Y-56400000D03*
X74000000Y-56400000D03*
X79000000Y-57400000D03*
X78000000Y-51400000D03*
X79000000Y-51400000D03*
X82000000Y-52400000D03*
X81000000Y-50400000D03*
X80000000Y-51400000D03*
X76000000Y-52400000D03*
X77000000Y-52400000D03*
X81000000Y-51400000D03*
X83000000Y-51400000D03*
X82000000Y-51400000D03*
X75000000Y-50400000D03*
X76000000Y-50400000D03*
X77000000Y-50400000D03*
X83000000Y-50400000D03*
X80000000Y-52400000D03*
X74000000Y-51400000D03*
X81000000Y-52400000D03*
X76000000Y-51400000D03*
X80000000Y-50400000D03*
X75000000Y-51400000D03*
X82000000Y-50400000D03*
X83000000Y-52400000D03*
X84000000Y-51400000D03*
X84000000Y-52400000D03*
X77000000Y-51400000D03*
X78000000Y-50400000D03*
X75000000Y-52400000D03*
X79000000Y-50400000D03*
X84000000Y-50400000D03*
X79000000Y-52400000D03*
X78000000Y-52400000D03*
X74000000Y-52400000D03*
X74000000Y-50400000D03*
D19*
X106800000Y-55400000D02*
X107900000Y-54300000D01*
X107900000Y-54300000D02*
X108274990Y-54300000D01*
X114800000Y-53300000D02*
X109072100Y-59027900D01*
X109072100Y-59027900D02*
X109072100Y-59179518D01*
D15*
X134450000Y-40805000D02*
X133405000Y-40805000D01*
X133405000Y-40805000D02*
X133405000Y-45895000D01*
X133415000Y-45905000D02*
X134450000Y-45905000D01*
X133405000Y-45895000D02*
X133415000Y-45905000D01*
X133405000Y-45895000D02*
X133405000Y-50995000D01*
X133415000Y-51005000D02*
X134450000Y-51005000D01*
X133405000Y-50995000D02*
X133415000Y-51005000D01*
X133405000Y-50995000D02*
X133405000Y-56095000D01*
X133415000Y-56105000D02*
X134450000Y-56105000D01*
X133405000Y-56095000D02*
X133415000Y-56105000D01*
X133405000Y-60460000D02*
X133400000Y-60465000D01*
X133405000Y-56095000D02*
X133405000Y-60460000D01*
X133415000Y-61205000D02*
X134450000Y-61205000D01*
X133405000Y-61195000D02*
X133415000Y-61205000D01*
X133405000Y-60460000D02*
X133405000Y-61105000D01*
X133405000Y-61105000D02*
X133405000Y-61195000D01*
X133405000Y-61195000D02*
X133405000Y-62100000D01*
X133405000Y-62100000D02*
X133400000Y-62100000D01*
X133400000Y-62100000D02*
X133100000Y-62400000D01*
X117800000Y-62400000D02*
X116500000Y-61100000D01*
X133100000Y-62400000D02*
X117800000Y-62400000D01*
D19*
X91900000Y-58925000D02*
X94600009Y-61625009D01*
X104600001Y-61625009D02*
X105000000Y-61225010D01*
X94600009Y-61625009D02*
X104600001Y-61625009D01*
X91900000Y-58800000D02*
X91900000Y-58925000D01*
X109099999Y-58000001D02*
X108310954Y-58789046D01*
X108310954Y-58789046D02*
X108310954Y-60109305D01*
X108310954Y-60109305D02*
X108310954Y-60674990D01*
X109099999Y-53699999D02*
X109099999Y-58000001D01*
X108700000Y-53300000D02*
X109099999Y-53699999D01*
X99400000Y-58800000D02*
X101900000Y-58800000D01*
X101900000Y-58800000D02*
X108800000Y-51900000D01*
X95500000Y-54600000D02*
X95600000Y-54700000D01*
X95500000Y-51300000D02*
X95500000Y-54600000D01*
X95500000Y-51300000D02*
X99400000Y-51300000D01*
X87700000Y-54700000D02*
X92674990Y-54700000D01*
D15*
X130515000Y-49735000D02*
X131150000Y-49100000D01*
X128750000Y-49735000D02*
X130515000Y-49735000D01*
X130515000Y-53565000D02*
X131150000Y-54200000D01*
X128750000Y-53565000D02*
X130515000Y-53565000D01*
X130515000Y-58665000D02*
X131150000Y-59300000D01*
X128750000Y-58665000D02*
X130515000Y-58665000D01*
X130515000Y-43365000D02*
X131150000Y-44000000D01*
X128750000Y-43365000D02*
X130515000Y-43365000D01*
X130515000Y-38265000D02*
X131150000Y-38900000D01*
X128750000Y-38265000D02*
X130515000Y-38265000D01*
D20*
G36*
X86700000Y-58300000D02*
G01*
X73300000Y-58300000D01*
X73300000Y-36500000D01*
X86700000Y-36500000D01*
X86700000Y-58300000D01*
X86700000Y-58300000D01*
G37*
X86700000Y-58300000D02*
X73300000Y-58300000D01*
X73300000Y-36500000D01*
X86700000Y-36500000D01*
X86700000Y-58300000D01*
D21*
G36*
X94473000Y-50412509D02*
G01*
X94473000Y-51157842D01*
X94465000Y-51198061D01*
X94465000Y-51401939D01*
X94473000Y-51442158D01*
X94473000Y-53587491D01*
X94465144Y-53626984D01*
X94449859Y-53649859D01*
X94426984Y-53665144D01*
X94387491Y-53673000D01*
X92817148Y-53673000D01*
X92776929Y-53665000D01*
X92573051Y-53665000D01*
X92532832Y-53673000D01*
X88212509Y-53673000D01*
X88173016Y-53665144D01*
X88150141Y-53649859D01*
X88134856Y-53626984D01*
X88127000Y-53587491D01*
X88127000Y-50412509D01*
X88132472Y-50385000D01*
X94467528Y-50385000D01*
X94473000Y-50412509D01*
X94473000Y-50412509D01*
G37*
X94473000Y-50412509D02*
X94473000Y-51157842D01*
X94465000Y-51198061D01*
X94465000Y-51401939D01*
X94473000Y-51442158D01*
X94473000Y-53587491D01*
X94465144Y-53626984D01*
X94449859Y-53649859D01*
X94426984Y-53665144D01*
X94387491Y-53673000D01*
X92817148Y-53673000D01*
X92776929Y-53665000D01*
X92573051Y-53665000D01*
X92532832Y-53673000D01*
X88212509Y-53673000D01*
X88173016Y-53665144D01*
X88150141Y-53649859D01*
X88134856Y-53626984D01*
X88127000Y-53587491D01*
X88127000Y-50412509D01*
X88132472Y-50385000D01*
X94467528Y-50385000D01*
X94473000Y-50412509D01*
D20*
G36*
X146800000Y-61700000D02*
G01*
X135500283Y-61700000D01*
X135500283Y-60500000D01*
X135498362Y-60480491D01*
X135492671Y-60461732D01*
X135483430Y-60444443D01*
X135470994Y-60429289D01*
X135455840Y-60416853D01*
X135438551Y-60407612D01*
X135419792Y-60401921D01*
X135400283Y-60400000D01*
X133800283Y-60400000D01*
X133800283Y-56900000D01*
X135400283Y-56900000D01*
X135419792Y-56898079D01*
X135438551Y-56892388D01*
X135455840Y-56883147D01*
X135470994Y-56870711D01*
X135483430Y-56855557D01*
X135492671Y-56838268D01*
X135498362Y-56819509D01*
X135500283Y-56800000D01*
X135500283Y-55400000D01*
X135498362Y-55380491D01*
X135492671Y-55361732D01*
X135483430Y-55344443D01*
X135470994Y-55329289D01*
X135455840Y-55316853D01*
X135438551Y-55307612D01*
X135419792Y-55301921D01*
X135400283Y-55300000D01*
X133800283Y-55300000D01*
X133800283Y-51800000D01*
X135400283Y-51800000D01*
X135419792Y-51798079D01*
X135438551Y-51792388D01*
X135455840Y-51783147D01*
X135470994Y-51770711D01*
X135483430Y-51755557D01*
X135492671Y-51738268D01*
X135498362Y-51719509D01*
X135500283Y-51700000D01*
X135500283Y-50300000D01*
X135498362Y-50280491D01*
X135492671Y-50261732D01*
X135483430Y-50244443D01*
X135470994Y-50229289D01*
X135455840Y-50216853D01*
X135438551Y-50207612D01*
X135419792Y-50201921D01*
X135400283Y-50200000D01*
X133800283Y-50200000D01*
X133800283Y-46700000D01*
X135400283Y-46700000D01*
X135419792Y-46698079D01*
X135438551Y-46692388D01*
X135455840Y-46683147D01*
X135470994Y-46670711D01*
X135483430Y-46655557D01*
X135492671Y-46638268D01*
X135498362Y-46619509D01*
X135500283Y-46600000D01*
X135500283Y-45200000D01*
X135498362Y-45180491D01*
X135492671Y-45161732D01*
X135483430Y-45144443D01*
X135470994Y-45129289D01*
X135455840Y-45116853D01*
X135438551Y-45107612D01*
X135419792Y-45101921D01*
X135400283Y-45100000D01*
X133800283Y-45100000D01*
X133800283Y-41600000D01*
X135400283Y-41600000D01*
X135419792Y-41598079D01*
X135438551Y-41592388D01*
X135455840Y-41583147D01*
X135470994Y-41570711D01*
X135483430Y-41555557D01*
X135492671Y-41538268D01*
X135498362Y-41519509D01*
X135500283Y-41500000D01*
X135500283Y-40100000D01*
X135498362Y-40080491D01*
X135492671Y-40061732D01*
X135483430Y-40044443D01*
X135470994Y-40029289D01*
X135455840Y-40016853D01*
X135438551Y-40007612D01*
X135419792Y-40001921D01*
X135400283Y-40000000D01*
X133800283Y-40000000D01*
X133800283Y-36500000D01*
X146800000Y-36500000D01*
X146800000Y-61700000D01*
X146800000Y-61700000D01*
G37*
X146800000Y-61700000D02*
X135500283Y-61700000D01*
X135500283Y-60500000D01*
X135498362Y-60480491D01*
X135492671Y-60461732D01*
X135483430Y-60444443D01*
X135470994Y-60429289D01*
X135455840Y-60416853D01*
X135438551Y-60407612D01*
X135419792Y-60401921D01*
X135400283Y-60400000D01*
X133800283Y-60400000D01*
X133800283Y-56900000D01*
X135400283Y-56900000D01*
X135419792Y-56898079D01*
X135438551Y-56892388D01*
X135455840Y-56883147D01*
X135470994Y-56870711D01*
X135483430Y-56855557D01*
X135492671Y-56838268D01*
X135498362Y-56819509D01*
X135500283Y-56800000D01*
X135500283Y-55400000D01*
X135498362Y-55380491D01*
X135492671Y-55361732D01*
X135483430Y-55344443D01*
X135470994Y-55329289D01*
X135455840Y-55316853D01*
X135438551Y-55307612D01*
X135419792Y-55301921D01*
X135400283Y-55300000D01*
X133800283Y-55300000D01*
X133800283Y-51800000D01*
X135400283Y-51800000D01*
X135419792Y-51798079D01*
X135438551Y-51792388D01*
X135455840Y-51783147D01*
X135470994Y-51770711D01*
X135483430Y-51755557D01*
X135492671Y-51738268D01*
X135498362Y-51719509D01*
X135500283Y-51700000D01*
X135500283Y-50300000D01*
X135498362Y-50280491D01*
X135492671Y-50261732D01*
X135483430Y-50244443D01*
X135470994Y-50229289D01*
X135455840Y-50216853D01*
X135438551Y-50207612D01*
X135419792Y-50201921D01*
X135400283Y-50200000D01*
X133800283Y-50200000D01*
X133800283Y-46700000D01*
X135400283Y-46700000D01*
X135419792Y-46698079D01*
X135438551Y-46692388D01*
X135455840Y-46683147D01*
X135470994Y-46670711D01*
X135483430Y-46655557D01*
X135492671Y-46638268D01*
X135498362Y-46619509D01*
X135500283Y-46600000D01*
X135500283Y-45200000D01*
X135498362Y-45180491D01*
X135492671Y-45161732D01*
X135483430Y-45144443D01*
X135470994Y-45129289D01*
X135455840Y-45116853D01*
X135438551Y-45107612D01*
X135419792Y-45101921D01*
X135400283Y-45100000D01*
X133800283Y-45100000D01*
X133800283Y-41600000D01*
X135400283Y-41600000D01*
X135419792Y-41598079D01*
X135438551Y-41592388D01*
X135455840Y-41583147D01*
X135470994Y-41570711D01*
X135483430Y-41555557D01*
X135492671Y-41538268D01*
X135498362Y-41519509D01*
X135500283Y-41500000D01*
X135500283Y-40100000D01*
X135498362Y-40080491D01*
X135492671Y-40061732D01*
X135483430Y-40044443D01*
X135470994Y-40029289D01*
X135455840Y-40016853D01*
X135438551Y-40007612D01*
X135419792Y-40001921D01*
X135400283Y-40000000D01*
X133800283Y-40000000D01*
X133800283Y-36500000D01*
X146800000Y-36500000D01*
X146800000Y-61700000D01*
G36*
X132900000Y-61600000D02*
G01*
X118100000Y-61600000D01*
X118100000Y-49500000D01*
X118098079Y-49480491D01*
X118092388Y-49461732D01*
X118083147Y-49444443D01*
X118070711Y-49429289D01*
X118055557Y-49416853D01*
X118038268Y-49407612D01*
X118019509Y-49401921D01*
X118000000Y-49400000D01*
X103800000Y-49400000D01*
X103800000Y-36500000D01*
X132900000Y-36500000D01*
X132900000Y-61600000D01*
X132900000Y-61600000D01*
G37*
X132900000Y-61600000D02*
X118100000Y-61600000D01*
X118100000Y-49500000D01*
X118098079Y-49480491D01*
X118092388Y-49461732D01*
X118083147Y-49444443D01*
X118070711Y-49429289D01*
X118055557Y-49416853D01*
X118038268Y-49407612D01*
X118019509Y-49401921D01*
X118000000Y-49400000D01*
X103800000Y-49400000D01*
X103800000Y-36500000D01*
X132900000Y-36500000D01*
X132900000Y-61600000D01*
G36*
X146800000Y-74600000D02*
G01*
X73300000Y-74600000D01*
X73300000Y-63100000D01*
X146800000Y-63100000D01*
X146800000Y-74600000D01*
X146800000Y-74600000D01*
G37*
X146800000Y-74600000D02*
X73300000Y-74600000D01*
X73300000Y-63100000D01*
X146800000Y-63100000D01*
X146800000Y-74600000D01*
M02*
