G04 #@! TF.GenerationSoftware,KiCad,Pcbnew,(5.1.2)-1*
G04 #@! TF.CreationDate,2019-09-10T22:08:44+02:00*
G04 #@! TF.ProjectId,Anti-Spark,416e7469-2d53-4706-9172-6b2e6b696361,rev?*
G04 #@! TF.SameCoordinates,Original*
G04 #@! TF.FileFunction,Profile,NP*
%FSLAX46Y46*%
G04 Gerber Fmt 4.6, Leading zero omitted, Abs format (unit mm)*
G04 Created by KiCad (PCBNEW (5.1.2)-1) date 2019-09-10 22:08:44*
%MOMM*%
%LPD*%
G04 APERTURE LIST*
%ADD10C,0.100000*%
G04 APERTURE END LIST*
D10*
X86200000Y-35900000D02*
G75*
G02X87200000Y-36900000I0J-1000000D01*
G01*
X103300000Y-36900000D02*
G75*
G02X104300000Y-35900000I1000000J0D01*
G01*
X136300000Y-35900000D02*
X104300000Y-35900000D01*
X86200000Y-35900000D02*
X83800000Y-35900000D01*
X139300000Y-32900000D02*
X139300000Y-32000000D01*
X147300000Y-32000000D02*
X147300000Y-35900000D01*
X147300000Y-32000000D02*
G75*
G03X139300000Y-32000000I-4000000J0D01*
G01*
X144900000Y-32000000D02*
G75*
G03X144900000Y-32000000I-1600000J0D01*
G01*
X136300000Y-35900000D02*
G75*
G03X139300000Y-32900000I0J3000000D01*
G01*
X83800000Y-35900000D02*
G75*
G02X80800000Y-32900000I0J3000000D01*
G01*
X80800000Y-32900000D02*
X80800000Y-32000000D01*
X72800000Y-32000000D02*
X72800000Y-35900000D01*
X72800000Y-32000000D02*
G75*
G02X80800000Y-32000000I4000000J0D01*
G01*
X78400000Y-32000000D02*
G75*
G03X78400000Y-32000000I-1600000J0D01*
G01*
X83800000Y-75100000D02*
X136300000Y-75100000D01*
X83800000Y-75100000D02*
G75*
G03X80800000Y-78100000I0J-3000000D01*
G01*
X80800000Y-78100000D02*
X80800000Y-79000000D01*
X72800000Y-79000000D02*
X72800000Y-74500000D01*
X72800000Y-79000000D02*
G75*
G03X80800000Y-79000000I4000000J0D01*
G01*
X78400000Y-79000000D02*
G75*
G03X78400000Y-79000000I-1600000J0D01*
G01*
X139300000Y-78100000D02*
X139300000Y-79000000D01*
X136300000Y-75100000D02*
G75*
G02X139300000Y-78100000I0J-3000000D01*
G01*
X144900000Y-79000000D02*
G75*
G03X144900000Y-79000000I-1600000J0D01*
G01*
X147300000Y-79000000D02*
G75*
G02X139300000Y-79000000I-4000000J0D01*
G01*
X147300000Y-79000000D02*
X147300000Y-74500000D01*
X147300000Y-36000000D02*
X147300000Y-35900000D01*
X147300000Y-74500000D02*
X147300000Y-36000000D01*
X72800000Y-35900000D02*
X72800000Y-74500000D01*
X103300000Y-49700000D02*
X103300000Y-36900000D01*
X87200000Y-49700000D02*
X103300000Y-49700000D01*
X87200000Y-36900000D02*
X87200000Y-49700000D01*
M02*
