G04 #@! TF.GenerationSoftware,KiCad,Pcbnew,(5.1.2)-1*
G04 #@! TF.CreationDate,2019-09-10T22:08:43+02:00*
G04 #@! TF.ProjectId,Anti-Spark,416e7469-2d53-4706-9172-6b2e6b696361,rev?*
G04 #@! TF.SameCoordinates,Original*
G04 #@! TF.FileFunction,Soldermask,Top*
G04 #@! TF.FilePolarity,Negative*
%FSLAX46Y46*%
G04 Gerber Fmt 4.6, Leading zero omitted, Abs format (unit mm)*
G04 Created by KiCad (PCBNEW (5.1.2)-1) date 2019-09-10 22:08:43*
%MOMM*%
%LPD*%
G04 APERTURE LIST*
%ADD10C,0.100000*%
G04 APERTURE END LIST*
D10*
G36*
X86800000Y-58400000D02*
G01*
X73200000Y-58400000D01*
X73200000Y-36400000D01*
X86800000Y-36400000D01*
X86800000Y-58400000D01*
G37*
X86800000Y-58400000D02*
X73200000Y-58400000D01*
X73200000Y-36400000D01*
X86800000Y-36400000D01*
X86800000Y-58400000D01*
G36*
X146900000Y-74700000D02*
G01*
X73200000Y-74700000D01*
X73200000Y-63000000D01*
X146900000Y-63000000D01*
X146900000Y-74700000D01*
G37*
G36*
X146900000Y-61800000D02*
G01*
X133700000Y-61800000D01*
X133700000Y-58100000D01*
X135400000Y-58100000D01*
X135400000Y-56700000D01*
X133700000Y-56700000D01*
X133700000Y-53000000D01*
X135400000Y-53000000D01*
X135400000Y-51600000D01*
X133700000Y-51600000D01*
X133700000Y-47900000D01*
X135400000Y-47900000D01*
X135400000Y-46500000D01*
X133700000Y-46500000D01*
X133700000Y-42800000D01*
X135400000Y-42800000D01*
X135400000Y-41400000D01*
X133700000Y-41400000D01*
X133700000Y-37700000D01*
X135400000Y-37700000D01*
X135400000Y-36400000D01*
X146900000Y-36400000D01*
X146900000Y-61800000D01*
G37*
G36*
X133100000Y-61700000D02*
G01*
X118000000Y-61700000D01*
X118000000Y-49500000D01*
X103700000Y-49500000D01*
X103700000Y-36400000D01*
X133100000Y-36400000D01*
X133100000Y-61700000D01*
G37*
G36*
X144335787Y-75585462D02*
G01*
X144335790Y-75585463D01*
X144335789Y-75585463D01*
X144982029Y-75853144D01*
X145563631Y-76241758D01*
X146058242Y-76736369D01*
X146446856Y-77317971D01*
X146446856Y-77317972D01*
X146714538Y-77964213D01*
X146851000Y-78650256D01*
X146851000Y-79349744D01*
X146714538Y-80035787D01*
X146714537Y-80035789D01*
X146446856Y-80682029D01*
X146058242Y-81263631D01*
X145563631Y-81758242D01*
X144982029Y-82146856D01*
X144525068Y-82336135D01*
X144335787Y-82414538D01*
X143649744Y-82551000D01*
X142950256Y-82551000D01*
X142264213Y-82414538D01*
X142074932Y-82336135D01*
X141617971Y-82146856D01*
X141036369Y-81758242D01*
X140541758Y-81263631D01*
X140153144Y-80682029D01*
X139885463Y-80035789D01*
X139885462Y-80035787D01*
X139749000Y-79349744D01*
X139749000Y-78650256D01*
X139885462Y-77964213D01*
X140153144Y-77317972D01*
X140153144Y-77317971D01*
X140541758Y-76736369D01*
X141036369Y-76241758D01*
X141617971Y-75853144D01*
X142264211Y-75585463D01*
X142264210Y-75585463D01*
X142264213Y-75585462D01*
X142950256Y-75449000D01*
X143649744Y-75449000D01*
X144335787Y-75585462D01*
X144335787Y-75585462D01*
G37*
G36*
X77835787Y-75585462D02*
G01*
X77835790Y-75585463D01*
X77835789Y-75585463D01*
X78482029Y-75853144D01*
X79063631Y-76241758D01*
X79558242Y-76736369D01*
X79946856Y-77317971D01*
X79946856Y-77317972D01*
X80214538Y-77964213D01*
X80351000Y-78650256D01*
X80351000Y-79349744D01*
X80214538Y-80035787D01*
X80214537Y-80035789D01*
X79946856Y-80682029D01*
X79558242Y-81263631D01*
X79063631Y-81758242D01*
X78482029Y-82146856D01*
X78025068Y-82336135D01*
X77835787Y-82414538D01*
X77149744Y-82551000D01*
X76450256Y-82551000D01*
X75764213Y-82414538D01*
X75574932Y-82336135D01*
X75117971Y-82146856D01*
X74536369Y-81758242D01*
X74041758Y-81263631D01*
X73653144Y-80682029D01*
X73385463Y-80035789D01*
X73385462Y-80035787D01*
X73249000Y-79349744D01*
X73249000Y-78650256D01*
X73385462Y-77964213D01*
X73653144Y-77317972D01*
X73653144Y-77317971D01*
X74041758Y-76736369D01*
X74536369Y-76241758D01*
X75117971Y-75853144D01*
X75764211Y-75585463D01*
X75764210Y-75585463D01*
X75764213Y-75585462D01*
X76450256Y-75449000D01*
X77149744Y-75449000D01*
X77835787Y-75585462D01*
X77835787Y-75585462D01*
G37*
G36*
X111301000Y-62001000D02*
G01*
X109699000Y-62001000D01*
X109699000Y-59399000D01*
X111301000Y-59399000D01*
X111301000Y-62001000D01*
X111301000Y-62001000D01*
G37*
G36*
X133076000Y-61701000D02*
G01*
X128174000Y-61701000D01*
X128174000Y-60749000D01*
X129099001Y-60749000D01*
X129123387Y-60746598D01*
X129146836Y-60739485D01*
X129168447Y-60727934D01*
X129187389Y-60712389D01*
X129202934Y-60693447D01*
X129214485Y-60671836D01*
X129221598Y-60648387D01*
X129224000Y-60624001D01*
X129224000Y-60535999D01*
X129221598Y-60511613D01*
X129214485Y-60488164D01*
X129202934Y-60466553D01*
X129187389Y-60447611D01*
X129168447Y-60432066D01*
X129146836Y-60420515D01*
X129123387Y-60413402D01*
X129099001Y-60411000D01*
X128174000Y-60411000D01*
X128174000Y-59459000D01*
X129099001Y-59459000D01*
X129123387Y-59456598D01*
X129146836Y-59449485D01*
X129168447Y-59437934D01*
X129187389Y-59422389D01*
X129202934Y-59403447D01*
X129214485Y-59381836D01*
X129221598Y-59358387D01*
X129224000Y-59334001D01*
X129224000Y-59265999D01*
X129221598Y-59241613D01*
X129214485Y-59218164D01*
X129202934Y-59196553D01*
X129187389Y-59177611D01*
X129168447Y-59162066D01*
X129146836Y-59150515D01*
X129123387Y-59143402D01*
X129099001Y-59141000D01*
X128174000Y-59141000D01*
X128174000Y-58189000D01*
X129099001Y-58189000D01*
X129123387Y-58186598D01*
X129146836Y-58179485D01*
X129168447Y-58167934D01*
X129187389Y-58152389D01*
X129202934Y-58133447D01*
X129214485Y-58111836D01*
X129221598Y-58088387D01*
X129224000Y-58064001D01*
X129224000Y-57975999D01*
X129221598Y-57951613D01*
X129214485Y-57928164D01*
X129202934Y-57906553D01*
X129187389Y-57887611D01*
X129168447Y-57872066D01*
X129146836Y-57860515D01*
X129123387Y-57853402D01*
X129099001Y-57851000D01*
X128174000Y-57851000D01*
X128174000Y-56899000D01*
X133076000Y-56899000D01*
X133076000Y-61701000D01*
X133076000Y-61701000D01*
G37*
G36*
X135226000Y-61681000D02*
G01*
X133674000Y-61681000D01*
X133674000Y-60729000D01*
X135226000Y-60729000D01*
X135226000Y-61681000D01*
X135226000Y-61681000D01*
G37*
G36*
X135226000Y-60411000D02*
G01*
X133674000Y-60411000D01*
X133674000Y-59459000D01*
X135226000Y-59459000D01*
X135226000Y-60411000D01*
X135226000Y-60411000D01*
G37*
G36*
X106513674Y-58753465D02*
G01*
X106551367Y-58764899D01*
X106586103Y-58783466D01*
X106616548Y-58808452D01*
X106641534Y-58838897D01*
X106660101Y-58873633D01*
X106671535Y-58911326D01*
X106676000Y-58956661D01*
X106676000Y-60043339D01*
X106671535Y-60088674D01*
X106660101Y-60126367D01*
X106641534Y-60161103D01*
X106616548Y-60191548D01*
X106586103Y-60216534D01*
X106551367Y-60235101D01*
X106513674Y-60246535D01*
X106468339Y-60251000D01*
X105631661Y-60251000D01*
X105586326Y-60246535D01*
X105548633Y-60235101D01*
X105513897Y-60216534D01*
X105483452Y-60191548D01*
X105458466Y-60161103D01*
X105439899Y-60126367D01*
X105428465Y-60088674D01*
X105424000Y-60043339D01*
X105424000Y-58956661D01*
X105428465Y-58911326D01*
X105439899Y-58873633D01*
X105458466Y-58838897D01*
X105483452Y-58808452D01*
X105513897Y-58783466D01*
X105548633Y-58764899D01*
X105586326Y-58753465D01*
X105631661Y-58749000D01*
X106468339Y-58749000D01*
X106513674Y-58753465D01*
X106513674Y-58753465D01*
G37*
G36*
X104463674Y-58753465D02*
G01*
X104501367Y-58764899D01*
X104536103Y-58783466D01*
X104566548Y-58808452D01*
X104591534Y-58838897D01*
X104610101Y-58873633D01*
X104621535Y-58911326D01*
X104626000Y-58956661D01*
X104626000Y-60043339D01*
X104621535Y-60088674D01*
X104610101Y-60126367D01*
X104591534Y-60161103D01*
X104566548Y-60191548D01*
X104536103Y-60216534D01*
X104501367Y-60235101D01*
X104463674Y-60246535D01*
X104418339Y-60251000D01*
X103581661Y-60251000D01*
X103536326Y-60246535D01*
X103498633Y-60235101D01*
X103463897Y-60216534D01*
X103433452Y-60191548D01*
X103408466Y-60161103D01*
X103389899Y-60126367D01*
X103378465Y-60088674D01*
X103374000Y-60043339D01*
X103374000Y-58956661D01*
X103378465Y-58911326D01*
X103389899Y-58873633D01*
X103408466Y-58838897D01*
X103433452Y-58808452D01*
X103463897Y-58783466D01*
X103498633Y-58764899D01*
X103536326Y-58753465D01*
X103581661Y-58749000D01*
X104418339Y-58749000D01*
X104463674Y-58753465D01*
X104463674Y-58753465D01*
G37*
G36*
X113088674Y-58928465D02*
G01*
X113126367Y-58939899D01*
X113161103Y-58958466D01*
X113191548Y-58983452D01*
X113216534Y-59013897D01*
X113235101Y-59048633D01*
X113246535Y-59086326D01*
X113251000Y-59131661D01*
X113251000Y-59968339D01*
X113246535Y-60013674D01*
X113235101Y-60051367D01*
X113216534Y-60086103D01*
X113191548Y-60116548D01*
X113161103Y-60141534D01*
X113126367Y-60160101D01*
X113088674Y-60171535D01*
X113043339Y-60176000D01*
X111956661Y-60176000D01*
X111911326Y-60171535D01*
X111873633Y-60160101D01*
X111838897Y-60141534D01*
X111808452Y-60116548D01*
X111783466Y-60086103D01*
X111764899Y-60051367D01*
X111753465Y-60013674D01*
X111749000Y-59968339D01*
X111749000Y-59131661D01*
X111753465Y-59086326D01*
X111764899Y-59048633D01*
X111783466Y-59013897D01*
X111808452Y-58983452D01*
X111838897Y-58958466D01*
X111873633Y-58939899D01*
X111911326Y-58928465D01*
X111956661Y-58924000D01*
X113043339Y-58924000D01*
X113088674Y-58928465D01*
X113088674Y-58928465D01*
G37*
G36*
X97076627Y-57787037D02*
G01*
X97246466Y-57838557D01*
X97402991Y-57922222D01*
X97438729Y-57951552D01*
X97540186Y-58034814D01*
X97603395Y-58111836D01*
X97652778Y-58172009D01*
X97736443Y-58328534D01*
X97787963Y-58498374D01*
X97801000Y-58630743D01*
X97801000Y-58969258D01*
X97787963Y-59101627D01*
X97736443Y-59271466D01*
X97652778Y-59427991D01*
X97635138Y-59449485D01*
X97540186Y-59565186D01*
X97402989Y-59677779D01*
X97246467Y-59761442D01*
X97246465Y-59761443D01*
X97076626Y-59812963D01*
X96900000Y-59830359D01*
X96723373Y-59812963D01*
X96553534Y-59761443D01*
X96397009Y-59677778D01*
X96338838Y-59630038D01*
X96259814Y-59565186D01*
X96147221Y-59427989D01*
X96063558Y-59271467D01*
X96054502Y-59241613D01*
X96012037Y-59101626D01*
X95999000Y-58969257D01*
X95999000Y-58630742D01*
X96012037Y-58498373D01*
X96063557Y-58328534D01*
X96147222Y-58172009D01*
X96259815Y-58034815D01*
X96397010Y-57922222D01*
X96553535Y-57838557D01*
X96723374Y-57787037D01*
X96900000Y-57769641D01*
X97076627Y-57787037D01*
X97076627Y-57787037D01*
G37*
G36*
X94576627Y-57787037D02*
G01*
X94746466Y-57838557D01*
X94902991Y-57922222D01*
X94938729Y-57951552D01*
X95040186Y-58034814D01*
X95103395Y-58111836D01*
X95152778Y-58172009D01*
X95236443Y-58328534D01*
X95287963Y-58498374D01*
X95301000Y-58630743D01*
X95301000Y-58969258D01*
X95287963Y-59101627D01*
X95236443Y-59271466D01*
X95152778Y-59427991D01*
X95135138Y-59449485D01*
X95040186Y-59565186D01*
X94902989Y-59677779D01*
X94746467Y-59761442D01*
X94746465Y-59761443D01*
X94576626Y-59812963D01*
X94400000Y-59830359D01*
X94223373Y-59812963D01*
X94053534Y-59761443D01*
X93897009Y-59677778D01*
X93838838Y-59630038D01*
X93759814Y-59565186D01*
X93647221Y-59427989D01*
X93563558Y-59271467D01*
X93554502Y-59241613D01*
X93512037Y-59101626D01*
X93499000Y-58969257D01*
X93499000Y-58630742D01*
X93512037Y-58498373D01*
X93563557Y-58328534D01*
X93647222Y-58172009D01*
X93759815Y-58034815D01*
X93897010Y-57922222D01*
X94053535Y-57838557D01*
X94223374Y-57787037D01*
X94400000Y-57769641D01*
X94576627Y-57787037D01*
X94576627Y-57787037D01*
G37*
G36*
X92076627Y-57787037D02*
G01*
X92246466Y-57838557D01*
X92402991Y-57922222D01*
X92438729Y-57951552D01*
X92540186Y-58034814D01*
X92603395Y-58111836D01*
X92652778Y-58172009D01*
X92736443Y-58328534D01*
X92787963Y-58498374D01*
X92801000Y-58630743D01*
X92801000Y-58969258D01*
X92787963Y-59101627D01*
X92736443Y-59271466D01*
X92652778Y-59427991D01*
X92635138Y-59449485D01*
X92540186Y-59565186D01*
X92402989Y-59677779D01*
X92246467Y-59761442D01*
X92246465Y-59761443D01*
X92076626Y-59812963D01*
X91900000Y-59830359D01*
X91723373Y-59812963D01*
X91553534Y-59761443D01*
X91397009Y-59677778D01*
X91338838Y-59630038D01*
X91259814Y-59565186D01*
X91147221Y-59427989D01*
X91063558Y-59271467D01*
X91054502Y-59241613D01*
X91012037Y-59101626D01*
X90999000Y-58969257D01*
X90999000Y-58630742D01*
X91012037Y-58498373D01*
X91063557Y-58328534D01*
X91147222Y-58172009D01*
X91259815Y-58034815D01*
X91397010Y-57922222D01*
X91553535Y-57838557D01*
X91723374Y-57787037D01*
X91900000Y-57769641D01*
X92076627Y-57787037D01*
X92076627Y-57787037D01*
G37*
G36*
X100158600Y-57777989D02*
G01*
X100191652Y-57788015D01*
X100222103Y-57804292D01*
X100248799Y-57826201D01*
X100270708Y-57852897D01*
X100286985Y-57883348D01*
X100297011Y-57916400D01*
X100301000Y-57956903D01*
X100301000Y-59643097D01*
X100297011Y-59683600D01*
X100286985Y-59716652D01*
X100270708Y-59747103D01*
X100248799Y-59773799D01*
X100222103Y-59795708D01*
X100191652Y-59811985D01*
X100158600Y-59822011D01*
X100118097Y-59826000D01*
X98681903Y-59826000D01*
X98641400Y-59822011D01*
X98608348Y-59811985D01*
X98577897Y-59795708D01*
X98551201Y-59773799D01*
X98529292Y-59747103D01*
X98513015Y-59716652D01*
X98502989Y-59683600D01*
X98499000Y-59643097D01*
X98499000Y-57956903D01*
X98502989Y-57916400D01*
X98513015Y-57883348D01*
X98529292Y-57852897D01*
X98551201Y-57826201D01*
X98577897Y-57804292D01*
X98608348Y-57788015D01*
X98641400Y-57777989D01*
X98681903Y-57774000D01*
X100118097Y-57774000D01*
X100158600Y-57777989D01*
X100158600Y-57777989D01*
G37*
G36*
X114913674Y-58253465D02*
G01*
X114951367Y-58264899D01*
X114986103Y-58283466D01*
X115016548Y-58308452D01*
X115041534Y-58338897D01*
X115060101Y-58373633D01*
X115071535Y-58411326D01*
X115076000Y-58456661D01*
X115076000Y-59543339D01*
X115071535Y-59588674D01*
X115060101Y-59626367D01*
X115041534Y-59661103D01*
X115016548Y-59691548D01*
X114986103Y-59716534D01*
X114951367Y-59735101D01*
X114913674Y-59746535D01*
X114868339Y-59751000D01*
X114031661Y-59751000D01*
X113986326Y-59746535D01*
X113948633Y-59735101D01*
X113913897Y-59716534D01*
X113883452Y-59691548D01*
X113858466Y-59661103D01*
X113839899Y-59626367D01*
X113828465Y-59588674D01*
X113824000Y-59543339D01*
X113824000Y-58456661D01*
X113828465Y-58411326D01*
X113839899Y-58373633D01*
X113858466Y-58338897D01*
X113883452Y-58308452D01*
X113913897Y-58283466D01*
X113948633Y-58264899D01*
X113986326Y-58253465D01*
X114031661Y-58249000D01*
X114868339Y-58249000D01*
X114913674Y-58253465D01*
X114913674Y-58253465D01*
G37*
G36*
X116963674Y-58253465D02*
G01*
X117001367Y-58264899D01*
X117036103Y-58283466D01*
X117066548Y-58308452D01*
X117091534Y-58338897D01*
X117110101Y-58373633D01*
X117121535Y-58411326D01*
X117126000Y-58456661D01*
X117126000Y-59543339D01*
X117121535Y-59588674D01*
X117110101Y-59626367D01*
X117091534Y-59661103D01*
X117066548Y-59691548D01*
X117036103Y-59716534D01*
X117001367Y-59735101D01*
X116963674Y-59746535D01*
X116918339Y-59751000D01*
X116081661Y-59751000D01*
X116036326Y-59746535D01*
X115998633Y-59735101D01*
X115963897Y-59716534D01*
X115933452Y-59691548D01*
X115908466Y-59661103D01*
X115889899Y-59626367D01*
X115878465Y-59588674D01*
X115874000Y-59543339D01*
X115874000Y-58456661D01*
X115878465Y-58411326D01*
X115889899Y-58373633D01*
X115908466Y-58338897D01*
X115933452Y-58308452D01*
X115963897Y-58283466D01*
X115998633Y-58264899D01*
X116036326Y-58253465D01*
X116081661Y-58249000D01*
X116918339Y-58249000D01*
X116963674Y-58253465D01*
X116963674Y-58253465D01*
G37*
G36*
X135226000Y-59141000D02*
G01*
X133674000Y-59141000D01*
X133674000Y-58189000D01*
X135226000Y-58189000D01*
X135226000Y-59141000D01*
X135226000Y-59141000D01*
G37*
G36*
X113088674Y-56878465D02*
G01*
X113126367Y-56889899D01*
X113161103Y-56908466D01*
X113191548Y-56933452D01*
X113216534Y-56963897D01*
X113235101Y-56998633D01*
X113246535Y-57036326D01*
X113251000Y-57081661D01*
X113251000Y-57918339D01*
X113246535Y-57963674D01*
X113235101Y-58001367D01*
X113216534Y-58036103D01*
X113191548Y-58066548D01*
X113161103Y-58091534D01*
X113126367Y-58110101D01*
X113088674Y-58121535D01*
X113043339Y-58126000D01*
X111956661Y-58126000D01*
X111911326Y-58121535D01*
X111873633Y-58110101D01*
X111838897Y-58091534D01*
X111808452Y-58066548D01*
X111783466Y-58036103D01*
X111764899Y-58001367D01*
X111753465Y-57963674D01*
X111749000Y-57918339D01*
X111749000Y-57081661D01*
X111753465Y-57036326D01*
X111764899Y-56998633D01*
X111783466Y-56963897D01*
X111808452Y-56933452D01*
X111838897Y-56908466D01*
X111873633Y-56889899D01*
X111911326Y-56878465D01*
X111956661Y-56874000D01*
X113043339Y-56874000D01*
X113088674Y-56878465D01*
X113088674Y-56878465D01*
G37*
G36*
X135226000Y-57871000D02*
G01*
X133674000Y-57871000D01*
X133674000Y-56919000D01*
X135226000Y-56919000D01*
X135226000Y-57871000D01*
X135226000Y-57871000D01*
G37*
G36*
X106488674Y-56253465D02*
G01*
X106526367Y-56264899D01*
X106561103Y-56283466D01*
X106591548Y-56308452D01*
X106616534Y-56338897D01*
X106635101Y-56373633D01*
X106646535Y-56411326D01*
X106651000Y-56456661D01*
X106651000Y-57543339D01*
X106646535Y-57588674D01*
X106635101Y-57626367D01*
X106616534Y-57661103D01*
X106591548Y-57691548D01*
X106561103Y-57716534D01*
X106526367Y-57735101D01*
X106488674Y-57746535D01*
X106443339Y-57751000D01*
X105606661Y-57751000D01*
X105561326Y-57746535D01*
X105523633Y-57735101D01*
X105488897Y-57716534D01*
X105458452Y-57691548D01*
X105433466Y-57661103D01*
X105414899Y-57626367D01*
X105403465Y-57588674D01*
X105399000Y-57543339D01*
X105399000Y-56456661D01*
X105403465Y-56411326D01*
X105414899Y-56373633D01*
X105433466Y-56338897D01*
X105458452Y-56308452D01*
X105488897Y-56283466D01*
X105523633Y-56264899D01*
X105561326Y-56253465D01*
X105606661Y-56249000D01*
X106443339Y-56249000D01*
X106488674Y-56253465D01*
X106488674Y-56253465D01*
G37*
G36*
X104438674Y-56253465D02*
G01*
X104476367Y-56264899D01*
X104511103Y-56283466D01*
X104541548Y-56308452D01*
X104566534Y-56338897D01*
X104585101Y-56373633D01*
X104596535Y-56411326D01*
X104601000Y-56456661D01*
X104601000Y-57543339D01*
X104596535Y-57588674D01*
X104585101Y-57626367D01*
X104566534Y-57661103D01*
X104541548Y-57691548D01*
X104511103Y-57716534D01*
X104476367Y-57735101D01*
X104438674Y-57746535D01*
X104393339Y-57751000D01*
X103556661Y-57751000D01*
X103511326Y-57746535D01*
X103473633Y-57735101D01*
X103438897Y-57716534D01*
X103408452Y-57691548D01*
X103383466Y-57661103D01*
X103364899Y-57626367D01*
X103353465Y-57588674D01*
X103349000Y-57543339D01*
X103349000Y-56456661D01*
X103353465Y-56411326D01*
X103364899Y-56373633D01*
X103383466Y-56338897D01*
X103408452Y-56308452D01*
X103438897Y-56283466D01*
X103473633Y-56264899D01*
X103511326Y-56253465D01*
X103556661Y-56249000D01*
X104393339Y-56249000D01*
X104438674Y-56253465D01*
X104438674Y-56253465D01*
G37*
G36*
X110463674Y-56221465D02*
G01*
X110501367Y-56232899D01*
X110536103Y-56251466D01*
X110566548Y-56276452D01*
X110591534Y-56306897D01*
X110610101Y-56341633D01*
X110621535Y-56379326D01*
X110626000Y-56424661D01*
X110626000Y-57511339D01*
X110621535Y-57556674D01*
X110610101Y-57594367D01*
X110591534Y-57629103D01*
X110566548Y-57659548D01*
X110536103Y-57684534D01*
X110501367Y-57703101D01*
X110463674Y-57714535D01*
X110418339Y-57719000D01*
X109581661Y-57719000D01*
X109536326Y-57714535D01*
X109498633Y-57703101D01*
X109463897Y-57684534D01*
X109433452Y-57659548D01*
X109408466Y-57629103D01*
X109389899Y-57594367D01*
X109378465Y-57556674D01*
X109374000Y-57511339D01*
X109374000Y-56424661D01*
X109378465Y-56379326D01*
X109389899Y-56341633D01*
X109408466Y-56306897D01*
X109433452Y-56276452D01*
X109463897Y-56251466D01*
X109498633Y-56232899D01*
X109536326Y-56221465D01*
X109581661Y-56217000D01*
X110418339Y-56217000D01*
X110463674Y-56221465D01*
X110463674Y-56221465D01*
G37*
G36*
X108413674Y-56221465D02*
G01*
X108451367Y-56232899D01*
X108486103Y-56251466D01*
X108516548Y-56276452D01*
X108541534Y-56306897D01*
X108560101Y-56341633D01*
X108571535Y-56379326D01*
X108576000Y-56424661D01*
X108576000Y-57511339D01*
X108571535Y-57556674D01*
X108560101Y-57594367D01*
X108541534Y-57629103D01*
X108516548Y-57659548D01*
X108486103Y-57684534D01*
X108451367Y-57703101D01*
X108413674Y-57714535D01*
X108368339Y-57719000D01*
X107531661Y-57719000D01*
X107486326Y-57714535D01*
X107448633Y-57703101D01*
X107413897Y-57684534D01*
X107383452Y-57659548D01*
X107358466Y-57629103D01*
X107339899Y-57594367D01*
X107328465Y-57556674D01*
X107324000Y-57511339D01*
X107324000Y-56424661D01*
X107328465Y-56379326D01*
X107339899Y-56341633D01*
X107358466Y-56306897D01*
X107383452Y-56276452D01*
X107413897Y-56251466D01*
X107448633Y-56232899D01*
X107486326Y-56221465D01*
X107531661Y-56217000D01*
X108368339Y-56217000D01*
X108413674Y-56221465D01*
X108413674Y-56221465D01*
G37*
G36*
X116551000Y-57301000D02*
G01*
X115449000Y-57301000D01*
X115449000Y-56199000D01*
X116551000Y-56199000D01*
X116551000Y-57301000D01*
X116551000Y-57301000D01*
G37*
G36*
X133076000Y-56601000D02*
G01*
X128174000Y-56601000D01*
X128174000Y-55649000D01*
X129099001Y-55649000D01*
X129123387Y-55646598D01*
X129146836Y-55639485D01*
X129168447Y-55627934D01*
X129187389Y-55612389D01*
X129202934Y-55593447D01*
X129214485Y-55571836D01*
X129221598Y-55548387D01*
X129224000Y-55524001D01*
X129224000Y-55435999D01*
X129221598Y-55411613D01*
X129214485Y-55388164D01*
X129202934Y-55366553D01*
X129187389Y-55347611D01*
X129168447Y-55332066D01*
X129146836Y-55320515D01*
X129123387Y-55313402D01*
X129099001Y-55311000D01*
X128174000Y-55311000D01*
X128174000Y-54359000D01*
X129099001Y-54359000D01*
X129123387Y-54356598D01*
X129146836Y-54349485D01*
X129168447Y-54337934D01*
X129187389Y-54322389D01*
X129202934Y-54303447D01*
X129214485Y-54281836D01*
X129221598Y-54258387D01*
X129224000Y-54234001D01*
X129224000Y-54165999D01*
X129221598Y-54141613D01*
X129214485Y-54118164D01*
X129202934Y-54096553D01*
X129187389Y-54077611D01*
X129168447Y-54062066D01*
X129146836Y-54050515D01*
X129123387Y-54043402D01*
X129099001Y-54041000D01*
X128174000Y-54041000D01*
X128174000Y-53089000D01*
X129099001Y-53089000D01*
X129123387Y-53086598D01*
X129146836Y-53079485D01*
X129168447Y-53067934D01*
X129187389Y-53052389D01*
X129202934Y-53033447D01*
X129214485Y-53011836D01*
X129221598Y-52988387D01*
X129224000Y-52964001D01*
X129224000Y-52875999D01*
X129221598Y-52851613D01*
X129214485Y-52828164D01*
X129202934Y-52806553D01*
X129187389Y-52787611D01*
X129168447Y-52772066D01*
X129146836Y-52760515D01*
X129123387Y-52753402D01*
X129099001Y-52751000D01*
X128174000Y-52751000D01*
X128174000Y-51799000D01*
X133076000Y-51799000D01*
X133076000Y-56601000D01*
X133076000Y-56601000D01*
G37*
G36*
X135226000Y-56581000D02*
G01*
X133674000Y-56581000D01*
X133674000Y-55629000D01*
X135226000Y-55629000D01*
X135226000Y-56581000D01*
X135226000Y-56581000D01*
G37*
G36*
X113588674Y-54928465D02*
G01*
X113626367Y-54939899D01*
X113661103Y-54958466D01*
X113691548Y-54983452D01*
X113716534Y-55013897D01*
X113735101Y-55048633D01*
X113746535Y-55086326D01*
X113751000Y-55131661D01*
X113751000Y-55968339D01*
X113746535Y-56013674D01*
X113735101Y-56051367D01*
X113716534Y-56086103D01*
X113691548Y-56116548D01*
X113661103Y-56141534D01*
X113626367Y-56160101D01*
X113588674Y-56171535D01*
X113543339Y-56176000D01*
X112456661Y-56176000D01*
X112411326Y-56171535D01*
X112373633Y-56160101D01*
X112338897Y-56141534D01*
X112308452Y-56116548D01*
X112283466Y-56086103D01*
X112264899Y-56051367D01*
X112253465Y-56013674D01*
X112249000Y-55968339D01*
X112249000Y-55131661D01*
X112253465Y-55086326D01*
X112264899Y-55048633D01*
X112283466Y-55013897D01*
X112308452Y-54983452D01*
X112338897Y-54958466D01*
X112373633Y-54939899D01*
X112411326Y-54928465D01*
X112456661Y-54924000D01*
X113543339Y-54924000D01*
X113588674Y-54928465D01*
X113588674Y-54928465D01*
G37*
G36*
X111164500Y-55384000D02*
G01*
X109587500Y-55384000D01*
X109587500Y-50282000D01*
X111164500Y-50282000D01*
X111164500Y-55384000D01*
X111164500Y-55384000D01*
G37*
G36*
X105288500Y-55384000D02*
G01*
X103711500Y-55384000D01*
X103711500Y-50282000D01*
X105288500Y-50282000D01*
X105288500Y-55384000D01*
X105288500Y-55384000D01*
G37*
G36*
X135226000Y-55311000D02*
G01*
X133674000Y-55311000D01*
X133674000Y-54359000D01*
X135226000Y-54359000D01*
X135226000Y-55311000D01*
X135226000Y-55311000D01*
G37*
G36*
X116551000Y-54801000D02*
G01*
X115449000Y-54801000D01*
X115449000Y-53699000D01*
X116551000Y-53699000D01*
X116551000Y-54801000D01*
X116551000Y-54801000D01*
G37*
G36*
X113588674Y-52878465D02*
G01*
X113626367Y-52889899D01*
X113661103Y-52908466D01*
X113691548Y-52933452D01*
X113716534Y-52963897D01*
X113735101Y-52998633D01*
X113746535Y-53036326D01*
X113751000Y-53081661D01*
X113751000Y-53918339D01*
X113746535Y-53963674D01*
X113735101Y-54001367D01*
X113716534Y-54036103D01*
X113691548Y-54066548D01*
X113661103Y-54091534D01*
X113626367Y-54110101D01*
X113588674Y-54121535D01*
X113543339Y-54126000D01*
X112456661Y-54126000D01*
X112411326Y-54121535D01*
X112373633Y-54110101D01*
X112338897Y-54091534D01*
X112308452Y-54066548D01*
X112283466Y-54036103D01*
X112264899Y-54001367D01*
X112253465Y-53963674D01*
X112249000Y-53918339D01*
X112249000Y-53081661D01*
X112253465Y-53036326D01*
X112264899Y-52998633D01*
X112283466Y-52963897D01*
X112308452Y-52933452D01*
X112338897Y-52908466D01*
X112373633Y-52889899D01*
X112411326Y-52878465D01*
X112456661Y-52874000D01*
X113543339Y-52874000D01*
X113588674Y-52878465D01*
X113588674Y-52878465D01*
G37*
G36*
X135226000Y-54041000D02*
G01*
X133674000Y-54041000D01*
X133674000Y-53089000D01*
X135226000Y-53089000D01*
X135226000Y-54041000D01*
X135226000Y-54041000D01*
G37*
G36*
X96013674Y-52453465D02*
G01*
X96051367Y-52464899D01*
X96086103Y-52483466D01*
X96116548Y-52508452D01*
X96141534Y-52538897D01*
X96160101Y-52573633D01*
X96171535Y-52611326D01*
X96176000Y-52656661D01*
X96176000Y-53743339D01*
X96171535Y-53788674D01*
X96160101Y-53826367D01*
X96141534Y-53861103D01*
X96116548Y-53891548D01*
X96086103Y-53916534D01*
X96051367Y-53935101D01*
X96013674Y-53946535D01*
X95968339Y-53951000D01*
X95131661Y-53951000D01*
X95086326Y-53946535D01*
X95048633Y-53935101D01*
X95013897Y-53916534D01*
X94983452Y-53891548D01*
X94958466Y-53861103D01*
X94939899Y-53826367D01*
X94928465Y-53788674D01*
X94924000Y-53743339D01*
X94924000Y-52656661D01*
X94928465Y-52611326D01*
X94939899Y-52573633D01*
X94958466Y-52538897D01*
X94983452Y-52508452D01*
X95013897Y-52483466D01*
X95048633Y-52464899D01*
X95086326Y-52453465D01*
X95131661Y-52449000D01*
X95968339Y-52449000D01*
X96013674Y-52453465D01*
X96013674Y-52453465D01*
G37*
G36*
X98063674Y-52453465D02*
G01*
X98101367Y-52464899D01*
X98136103Y-52483466D01*
X98166548Y-52508452D01*
X98191534Y-52538897D01*
X98210101Y-52573633D01*
X98221535Y-52611326D01*
X98226000Y-52656661D01*
X98226000Y-53743339D01*
X98221535Y-53788674D01*
X98210101Y-53826367D01*
X98191534Y-53861103D01*
X98166548Y-53891548D01*
X98136103Y-53916534D01*
X98101367Y-53935101D01*
X98063674Y-53946535D01*
X98018339Y-53951000D01*
X97181661Y-53951000D01*
X97136326Y-53946535D01*
X97098633Y-53935101D01*
X97063897Y-53916534D01*
X97033452Y-53891548D01*
X97008466Y-53861103D01*
X96989899Y-53826367D01*
X96978465Y-53788674D01*
X96974000Y-53743339D01*
X96974000Y-52656661D01*
X96978465Y-52611326D01*
X96989899Y-52573633D01*
X97008466Y-52538897D01*
X97033452Y-52508452D01*
X97063897Y-52483466D01*
X97098633Y-52464899D01*
X97136326Y-52453465D01*
X97181661Y-52449000D01*
X98018339Y-52449000D01*
X98063674Y-52453465D01*
X98063674Y-52453465D01*
G37*
G36*
X101888674Y-52453465D02*
G01*
X101926367Y-52464899D01*
X101961103Y-52483466D01*
X101991548Y-52508452D01*
X102016534Y-52538897D01*
X102035101Y-52573633D01*
X102046535Y-52611326D01*
X102051000Y-52656661D01*
X102051000Y-53743339D01*
X102046535Y-53788674D01*
X102035101Y-53826367D01*
X102016534Y-53861103D01*
X101991548Y-53891548D01*
X101961103Y-53916534D01*
X101926367Y-53935101D01*
X101888674Y-53946535D01*
X101843339Y-53951000D01*
X101006661Y-53951000D01*
X100961326Y-53946535D01*
X100923633Y-53935101D01*
X100888897Y-53916534D01*
X100858452Y-53891548D01*
X100833466Y-53861103D01*
X100814899Y-53826367D01*
X100803465Y-53788674D01*
X100799000Y-53743339D01*
X100799000Y-52656661D01*
X100803465Y-52611326D01*
X100814899Y-52573633D01*
X100833466Y-52538897D01*
X100858452Y-52508452D01*
X100888897Y-52483466D01*
X100923633Y-52464899D01*
X100961326Y-52453465D01*
X101006661Y-52449000D01*
X101843339Y-52449000D01*
X101888674Y-52453465D01*
X101888674Y-52453465D01*
G37*
G36*
X99838674Y-52453465D02*
G01*
X99876367Y-52464899D01*
X99911103Y-52483466D01*
X99941548Y-52508452D01*
X99966534Y-52538897D01*
X99985101Y-52573633D01*
X99996535Y-52611326D01*
X100001000Y-52656661D01*
X100001000Y-53743339D01*
X99996535Y-53788674D01*
X99985101Y-53826367D01*
X99966534Y-53861103D01*
X99941548Y-53891548D01*
X99911103Y-53916534D01*
X99876367Y-53935101D01*
X99838674Y-53946535D01*
X99793339Y-53951000D01*
X98956661Y-53951000D01*
X98911326Y-53946535D01*
X98873633Y-53935101D01*
X98838897Y-53916534D01*
X98808452Y-53891548D01*
X98783466Y-53861103D01*
X98764899Y-53826367D01*
X98753465Y-53788674D01*
X98749000Y-53743339D01*
X98749000Y-52656661D01*
X98753465Y-52611326D01*
X98764899Y-52573633D01*
X98783466Y-52538897D01*
X98808452Y-52508452D01*
X98838897Y-52483466D01*
X98873633Y-52464899D01*
X98911326Y-52453465D01*
X98956661Y-52449000D01*
X99793339Y-52449000D01*
X99838674Y-52453465D01*
X99838674Y-52453465D01*
G37*
G36*
X89851000Y-53451000D02*
G01*
X88349000Y-53451000D01*
X88349000Y-50949000D01*
X89851000Y-50949000D01*
X89851000Y-53451000D01*
X89851000Y-53451000D01*
G37*
G36*
X94251000Y-53451000D02*
G01*
X92749000Y-53451000D01*
X92749000Y-50949000D01*
X94251000Y-50949000D01*
X94251000Y-53451000D01*
X94251000Y-53451000D01*
G37*
G36*
X92341000Y-53191000D02*
G01*
X90259000Y-53191000D01*
X90259000Y-51209000D01*
X92341000Y-51209000D01*
X92341000Y-53191000D01*
X92341000Y-53191000D01*
G37*
G36*
X135226000Y-52771000D02*
G01*
X133674000Y-52771000D01*
X133674000Y-51819000D01*
X135226000Y-51819000D01*
X135226000Y-52771000D01*
X135226000Y-52771000D01*
G37*
G36*
X101913674Y-50553465D02*
G01*
X101951367Y-50564899D01*
X101986103Y-50583466D01*
X102016548Y-50608452D01*
X102041534Y-50638897D01*
X102060101Y-50673633D01*
X102071535Y-50711326D01*
X102076000Y-50756661D01*
X102076000Y-51843339D01*
X102071535Y-51888674D01*
X102060101Y-51926367D01*
X102041534Y-51961103D01*
X102016548Y-51991548D01*
X101986103Y-52016534D01*
X101951367Y-52035101D01*
X101913674Y-52046535D01*
X101868339Y-52051000D01*
X101031661Y-52051000D01*
X100986326Y-52046535D01*
X100948633Y-52035101D01*
X100913897Y-52016534D01*
X100883452Y-51991548D01*
X100858466Y-51961103D01*
X100839899Y-51926367D01*
X100828465Y-51888674D01*
X100824000Y-51843339D01*
X100824000Y-50756661D01*
X100828465Y-50711326D01*
X100839899Y-50673633D01*
X100858466Y-50638897D01*
X100883452Y-50608452D01*
X100913897Y-50583466D01*
X100948633Y-50564899D01*
X100986326Y-50553465D01*
X101031661Y-50549000D01*
X101868339Y-50549000D01*
X101913674Y-50553465D01*
X101913674Y-50553465D01*
G37*
G36*
X99863674Y-50553465D02*
G01*
X99901367Y-50564899D01*
X99936103Y-50583466D01*
X99966548Y-50608452D01*
X99991534Y-50638897D01*
X100010101Y-50673633D01*
X100021535Y-50711326D01*
X100026000Y-50756661D01*
X100026000Y-51843339D01*
X100021535Y-51888674D01*
X100010101Y-51926367D01*
X99991534Y-51961103D01*
X99966548Y-51991548D01*
X99936103Y-52016534D01*
X99901367Y-52035101D01*
X99863674Y-52046535D01*
X99818339Y-52051000D01*
X98981661Y-52051000D01*
X98936326Y-52046535D01*
X98898633Y-52035101D01*
X98863897Y-52016534D01*
X98833452Y-51991548D01*
X98808466Y-51961103D01*
X98789899Y-51926367D01*
X98778465Y-51888674D01*
X98774000Y-51843339D01*
X98774000Y-50756661D01*
X98778465Y-50711326D01*
X98789899Y-50673633D01*
X98808466Y-50638897D01*
X98833452Y-50608452D01*
X98863897Y-50583466D01*
X98898633Y-50564899D01*
X98936326Y-50553465D01*
X98981661Y-50549000D01*
X99818339Y-50549000D01*
X99863674Y-50553465D01*
X99863674Y-50553465D01*
G37*
G36*
X98013674Y-50553465D02*
G01*
X98051367Y-50564899D01*
X98086103Y-50583466D01*
X98116548Y-50608452D01*
X98141534Y-50638897D01*
X98160101Y-50673633D01*
X98171535Y-50711326D01*
X98176000Y-50756661D01*
X98176000Y-51843339D01*
X98171535Y-51888674D01*
X98160101Y-51926367D01*
X98141534Y-51961103D01*
X98116548Y-51991548D01*
X98086103Y-52016534D01*
X98051367Y-52035101D01*
X98013674Y-52046535D01*
X97968339Y-52051000D01*
X97131661Y-52051000D01*
X97086326Y-52046535D01*
X97048633Y-52035101D01*
X97013897Y-52016534D01*
X96983452Y-51991548D01*
X96958466Y-51961103D01*
X96939899Y-51926367D01*
X96928465Y-51888674D01*
X96924000Y-51843339D01*
X96924000Y-50756661D01*
X96928465Y-50711326D01*
X96939899Y-50673633D01*
X96958466Y-50638897D01*
X96983452Y-50608452D01*
X97013897Y-50583466D01*
X97048633Y-50564899D01*
X97086326Y-50553465D01*
X97131661Y-50549000D01*
X97968339Y-50549000D01*
X98013674Y-50553465D01*
X98013674Y-50553465D01*
G37*
G36*
X95963674Y-50553465D02*
G01*
X96001367Y-50564899D01*
X96036103Y-50583466D01*
X96066548Y-50608452D01*
X96091534Y-50638897D01*
X96110101Y-50673633D01*
X96121535Y-50711326D01*
X96126000Y-50756661D01*
X96126000Y-51843339D01*
X96121535Y-51888674D01*
X96110101Y-51926367D01*
X96091534Y-51961103D01*
X96066548Y-51991548D01*
X96036103Y-52016534D01*
X96001367Y-52035101D01*
X95963674Y-52046535D01*
X95918339Y-52051000D01*
X95081661Y-52051000D01*
X95036326Y-52046535D01*
X94998633Y-52035101D01*
X94963897Y-52016534D01*
X94933452Y-51991548D01*
X94908466Y-51961103D01*
X94889899Y-51926367D01*
X94878465Y-51888674D01*
X94874000Y-51843339D01*
X94874000Y-50756661D01*
X94878465Y-50711326D01*
X94889899Y-50673633D01*
X94908466Y-50638897D01*
X94933452Y-50608452D01*
X94963897Y-50583466D01*
X94998633Y-50564899D01*
X95036326Y-50553465D01*
X95081661Y-50549000D01*
X95918339Y-50549000D01*
X95963674Y-50553465D01*
X95963674Y-50553465D01*
G37*
G36*
X115488674Y-50253465D02*
G01*
X115526367Y-50264899D01*
X115561103Y-50283466D01*
X115591548Y-50308452D01*
X115616534Y-50338897D01*
X115635101Y-50373633D01*
X115646535Y-50411326D01*
X115651000Y-50456661D01*
X115651000Y-51543339D01*
X115646535Y-51588674D01*
X115635101Y-51626367D01*
X115616534Y-51661103D01*
X115591548Y-51691548D01*
X115561103Y-51716534D01*
X115526367Y-51735101D01*
X115488674Y-51746535D01*
X115443339Y-51751000D01*
X114606661Y-51751000D01*
X114561326Y-51746535D01*
X114523633Y-51735101D01*
X114488897Y-51716534D01*
X114458452Y-51691548D01*
X114433466Y-51661103D01*
X114414899Y-51626367D01*
X114403465Y-51588674D01*
X114399000Y-51543339D01*
X114399000Y-50456661D01*
X114403465Y-50411326D01*
X114414899Y-50373633D01*
X114433466Y-50338897D01*
X114458452Y-50308452D01*
X114488897Y-50283466D01*
X114523633Y-50264899D01*
X114561326Y-50253465D01*
X114606661Y-50249000D01*
X115443339Y-50249000D01*
X115488674Y-50253465D01*
X115488674Y-50253465D01*
G37*
G36*
X113438674Y-50253465D02*
G01*
X113476367Y-50264899D01*
X113511103Y-50283466D01*
X113541548Y-50308452D01*
X113566534Y-50338897D01*
X113585101Y-50373633D01*
X113596535Y-50411326D01*
X113601000Y-50456661D01*
X113601000Y-51543339D01*
X113596535Y-51588674D01*
X113585101Y-51626367D01*
X113566534Y-51661103D01*
X113541548Y-51691548D01*
X113511103Y-51716534D01*
X113476367Y-51735101D01*
X113438674Y-51746535D01*
X113393339Y-51751000D01*
X112556661Y-51751000D01*
X112511326Y-51746535D01*
X112473633Y-51735101D01*
X112438897Y-51716534D01*
X112408452Y-51691548D01*
X112383466Y-51661103D01*
X112364899Y-51626367D01*
X112353465Y-51588674D01*
X112349000Y-51543339D01*
X112349000Y-50456661D01*
X112353465Y-50411326D01*
X112364899Y-50373633D01*
X112383466Y-50338897D01*
X112408452Y-50308452D01*
X112438897Y-50283466D01*
X112473633Y-50264899D01*
X112511326Y-50253465D01*
X112556661Y-50249000D01*
X113393339Y-50249000D01*
X113438674Y-50253465D01*
X113438674Y-50253465D01*
G37*
G36*
X133076000Y-51501000D02*
G01*
X128174000Y-51501000D01*
X128174000Y-50549000D01*
X129099001Y-50549000D01*
X129123387Y-50546598D01*
X129146836Y-50539485D01*
X129168447Y-50527934D01*
X129187389Y-50512389D01*
X129202934Y-50493447D01*
X129214485Y-50471836D01*
X129221598Y-50448387D01*
X129224000Y-50424001D01*
X129224000Y-50335999D01*
X129221598Y-50311613D01*
X129214485Y-50288164D01*
X129202934Y-50266553D01*
X129187389Y-50247611D01*
X129168447Y-50232066D01*
X129146836Y-50220515D01*
X129123387Y-50213402D01*
X129099001Y-50211000D01*
X128174000Y-50211000D01*
X128174000Y-49259000D01*
X129099001Y-49259000D01*
X129123387Y-49256598D01*
X129146836Y-49249485D01*
X129168447Y-49237934D01*
X129187389Y-49222389D01*
X129202934Y-49203447D01*
X129214485Y-49181836D01*
X129221598Y-49158387D01*
X129224000Y-49134001D01*
X129224000Y-49065999D01*
X129221598Y-49041613D01*
X129214485Y-49018164D01*
X129202934Y-48996553D01*
X129187389Y-48977611D01*
X129168447Y-48962066D01*
X129146836Y-48950515D01*
X129123387Y-48943402D01*
X129099001Y-48941000D01*
X128174000Y-48941000D01*
X128174000Y-47989000D01*
X129099001Y-47989000D01*
X129123387Y-47986598D01*
X129146836Y-47979485D01*
X129168447Y-47967934D01*
X129187389Y-47952389D01*
X129202934Y-47933447D01*
X129214485Y-47911836D01*
X129221598Y-47888387D01*
X129224000Y-47864001D01*
X129224000Y-47775999D01*
X129221598Y-47751613D01*
X129214485Y-47728164D01*
X129202934Y-47706553D01*
X129187389Y-47687611D01*
X129168447Y-47672066D01*
X129146836Y-47660515D01*
X129123387Y-47653402D01*
X129099001Y-47651000D01*
X128174000Y-47651000D01*
X128174000Y-46699000D01*
X133076000Y-46699000D01*
X133076000Y-51501000D01*
X133076000Y-51501000D01*
G37*
G36*
X135226000Y-51481000D02*
G01*
X133674000Y-51481000D01*
X133674000Y-50529000D01*
X135226000Y-50529000D01*
X135226000Y-51481000D01*
X135226000Y-51481000D01*
G37*
G36*
X135226000Y-50211000D02*
G01*
X133674000Y-50211000D01*
X133674000Y-49259000D01*
X135226000Y-49259000D01*
X135226000Y-50211000D01*
X135226000Y-50211000D01*
G37*
G36*
X116831000Y-49517000D02*
G01*
X103729000Y-49517000D01*
X103729000Y-36415000D01*
X116831000Y-36415000D01*
X116831000Y-49517000D01*
X116831000Y-49517000D01*
G37*
G36*
X86831000Y-49517000D02*
G01*
X73729000Y-49517000D01*
X73729000Y-36415000D01*
X86831000Y-36415000D01*
X86831000Y-49517000D01*
X86831000Y-49517000D01*
G37*
G36*
X135226000Y-48941000D02*
G01*
X133674000Y-48941000D01*
X133674000Y-47989000D01*
X135226000Y-47989000D01*
X135226000Y-48941000D01*
X135226000Y-48941000D01*
G37*
G36*
X135226000Y-47671000D02*
G01*
X133674000Y-47671000D01*
X133674000Y-46719000D01*
X135226000Y-46719000D01*
X135226000Y-47671000D01*
X135226000Y-47671000D01*
G37*
G36*
X133076000Y-46401000D02*
G01*
X128174000Y-46401000D01*
X128174000Y-45449000D01*
X129099001Y-45449000D01*
X129123387Y-45446598D01*
X129146836Y-45439485D01*
X129168447Y-45427934D01*
X129187389Y-45412389D01*
X129202934Y-45393447D01*
X129214485Y-45371836D01*
X129221598Y-45348387D01*
X129224000Y-45324001D01*
X129224000Y-45235999D01*
X129221598Y-45211613D01*
X129214485Y-45188164D01*
X129202934Y-45166553D01*
X129187389Y-45147611D01*
X129168447Y-45132066D01*
X129146836Y-45120515D01*
X129123387Y-45113402D01*
X129099001Y-45111000D01*
X128174000Y-45111000D01*
X128174000Y-44159000D01*
X129099001Y-44159000D01*
X129123387Y-44156598D01*
X129146836Y-44149485D01*
X129168447Y-44137934D01*
X129187389Y-44122389D01*
X129202934Y-44103447D01*
X129214485Y-44081836D01*
X129221598Y-44058387D01*
X129224000Y-44034001D01*
X129224000Y-43965999D01*
X129221598Y-43941613D01*
X129214485Y-43918164D01*
X129202934Y-43896553D01*
X129187389Y-43877611D01*
X129168447Y-43862066D01*
X129146836Y-43850515D01*
X129123387Y-43843402D01*
X129099001Y-43841000D01*
X128174000Y-43841000D01*
X128174000Y-42889000D01*
X129099001Y-42889000D01*
X129123387Y-42886598D01*
X129146836Y-42879485D01*
X129168447Y-42867934D01*
X129187389Y-42852389D01*
X129202934Y-42833447D01*
X129214485Y-42811836D01*
X129221598Y-42788387D01*
X129224000Y-42764001D01*
X129224000Y-42675999D01*
X129221598Y-42651613D01*
X129214485Y-42628164D01*
X129202934Y-42606553D01*
X129187389Y-42587611D01*
X129168447Y-42572066D01*
X129146836Y-42560515D01*
X129123387Y-42553402D01*
X129099001Y-42551000D01*
X128174000Y-42551000D01*
X128174000Y-41599000D01*
X133076000Y-41599000D01*
X133076000Y-46401000D01*
X133076000Y-46401000D01*
G37*
G36*
X135226000Y-46381000D02*
G01*
X133674000Y-46381000D01*
X133674000Y-45429000D01*
X135226000Y-45429000D01*
X135226000Y-46381000D01*
X135226000Y-46381000D01*
G37*
G36*
X135226000Y-45111000D02*
G01*
X133674000Y-45111000D01*
X133674000Y-44159000D01*
X135226000Y-44159000D01*
X135226000Y-45111000D01*
X135226000Y-45111000D01*
G37*
G36*
X135226000Y-43841000D02*
G01*
X133674000Y-43841000D01*
X133674000Y-42889000D01*
X135226000Y-42889000D01*
X135226000Y-43841000D01*
X135226000Y-43841000D01*
G37*
G36*
X135226000Y-42571000D02*
G01*
X133674000Y-42571000D01*
X133674000Y-41619000D01*
X135226000Y-41619000D01*
X135226000Y-42571000D01*
X135226000Y-42571000D01*
G37*
G36*
X133076000Y-41301000D02*
G01*
X128174000Y-41301000D01*
X128174000Y-40349000D01*
X129099001Y-40349000D01*
X129123387Y-40346598D01*
X129146836Y-40339485D01*
X129168447Y-40327934D01*
X129187389Y-40312389D01*
X129202934Y-40293447D01*
X129214485Y-40271836D01*
X129221598Y-40248387D01*
X129224000Y-40224001D01*
X129224000Y-40135999D01*
X129221598Y-40111613D01*
X129214485Y-40088164D01*
X129202934Y-40066553D01*
X129187389Y-40047611D01*
X129168447Y-40032066D01*
X129146836Y-40020515D01*
X129123387Y-40013402D01*
X129099001Y-40011000D01*
X128174000Y-40011000D01*
X128174000Y-39059000D01*
X129099001Y-39059000D01*
X129123387Y-39056598D01*
X129146836Y-39049485D01*
X129168447Y-39037934D01*
X129187389Y-39022389D01*
X129202934Y-39003447D01*
X129214485Y-38981836D01*
X129221598Y-38958387D01*
X129224000Y-38934001D01*
X129224000Y-38865999D01*
X129221598Y-38841613D01*
X129214485Y-38818164D01*
X129202934Y-38796553D01*
X129187389Y-38777611D01*
X129168447Y-38762066D01*
X129146836Y-38750515D01*
X129123387Y-38743402D01*
X129099001Y-38741000D01*
X128174000Y-38741000D01*
X128174000Y-37789000D01*
X129099001Y-37789000D01*
X129123387Y-37786598D01*
X129146836Y-37779485D01*
X129168447Y-37767934D01*
X129187389Y-37752389D01*
X129202934Y-37733447D01*
X129214485Y-37711836D01*
X129221598Y-37688387D01*
X129224000Y-37664001D01*
X129224000Y-37575999D01*
X129221598Y-37551613D01*
X129214485Y-37528164D01*
X129202934Y-37506553D01*
X129187389Y-37487611D01*
X129168447Y-37472066D01*
X129146836Y-37460515D01*
X129123387Y-37453402D01*
X129099001Y-37451000D01*
X128174000Y-37451000D01*
X128174000Y-36499000D01*
X133076000Y-36499000D01*
X133076000Y-41301000D01*
X133076000Y-41301000D01*
G37*
G36*
X135226000Y-41281000D02*
G01*
X133674000Y-41281000D01*
X133674000Y-40329000D01*
X135226000Y-40329000D01*
X135226000Y-41281000D01*
X135226000Y-41281000D01*
G37*
G36*
X135226000Y-40011000D02*
G01*
X133674000Y-40011000D01*
X133674000Y-39059000D01*
X135226000Y-39059000D01*
X135226000Y-40011000D01*
X135226000Y-40011000D01*
G37*
G36*
X135226000Y-38741000D02*
G01*
X133674000Y-38741000D01*
X133674000Y-37789000D01*
X135226000Y-37789000D01*
X135226000Y-38741000D01*
X135226000Y-38741000D01*
G37*
G36*
X135226000Y-37471000D02*
G01*
X133674000Y-37471000D01*
X133674000Y-36519000D01*
X135226000Y-36519000D01*
X135226000Y-37471000D01*
X135226000Y-37471000D01*
G37*
G36*
X77835787Y-28585462D02*
G01*
X77835790Y-28585463D01*
X77835789Y-28585463D01*
X78482029Y-28853144D01*
X79063631Y-29241758D01*
X79558242Y-29736369D01*
X79946856Y-30317971D01*
X79946856Y-30317972D01*
X80214538Y-30964213D01*
X80351000Y-31650256D01*
X80351000Y-32349744D01*
X80214538Y-33035787D01*
X80214537Y-33035789D01*
X79946856Y-33682029D01*
X79558242Y-34263631D01*
X79063631Y-34758242D01*
X78482029Y-35146856D01*
X78025068Y-35336135D01*
X77835787Y-35414538D01*
X77149744Y-35551000D01*
X76450256Y-35551000D01*
X75764213Y-35414538D01*
X75574932Y-35336135D01*
X75117971Y-35146856D01*
X74536369Y-34758242D01*
X74041758Y-34263631D01*
X73653144Y-33682029D01*
X73385463Y-33035789D01*
X73385462Y-33035787D01*
X73249000Y-32349744D01*
X73249000Y-31650256D01*
X73385462Y-30964213D01*
X73653144Y-30317972D01*
X73653144Y-30317971D01*
X74041758Y-29736369D01*
X74536369Y-29241758D01*
X75117971Y-28853144D01*
X75764211Y-28585463D01*
X75764210Y-28585463D01*
X75764213Y-28585462D01*
X76450256Y-28449000D01*
X77149744Y-28449000D01*
X77835787Y-28585462D01*
X77835787Y-28585462D01*
G37*
G36*
X144335787Y-28585462D02*
G01*
X144335790Y-28585463D01*
X144335789Y-28585463D01*
X144982029Y-28853144D01*
X145563631Y-29241758D01*
X146058242Y-29736369D01*
X146446856Y-30317971D01*
X146446856Y-30317972D01*
X146714538Y-30964213D01*
X146851000Y-31650256D01*
X146851000Y-32349744D01*
X146714538Y-33035787D01*
X146714537Y-33035789D01*
X146446856Y-33682029D01*
X146058242Y-34263631D01*
X145563631Y-34758242D01*
X144982029Y-35146856D01*
X144525068Y-35336135D01*
X144335787Y-35414538D01*
X143649744Y-35551000D01*
X142950256Y-35551000D01*
X142264213Y-35414538D01*
X142074932Y-35336135D01*
X141617971Y-35146856D01*
X141036369Y-34758242D01*
X140541758Y-34263631D01*
X140153144Y-33682029D01*
X139885463Y-33035789D01*
X139885462Y-33035787D01*
X139749000Y-32349744D01*
X139749000Y-31650256D01*
X139885462Y-30964213D01*
X140153144Y-30317972D01*
X140153144Y-30317971D01*
X140541758Y-29736369D01*
X141036369Y-29241758D01*
X141617971Y-28853144D01*
X142264211Y-28585463D01*
X142264210Y-28585463D01*
X142264213Y-28585462D01*
X142950256Y-28449000D01*
X143649744Y-28449000D01*
X144335787Y-28585462D01*
X144335787Y-28585462D01*
G37*
M02*
