G04 #@! TF.GenerationSoftware,KiCad,Pcbnew,(5.1.2)-1*
G04 #@! TF.CreationDate,2019-09-07T09:30:14+02:00*
G04 #@! TF.ProjectId,Anti-Spark,416e7469-2d53-4706-9172-6b2e6b696361,rev?*
G04 #@! TF.SameCoordinates,Original*
G04 #@! TF.FileFunction,Copper,L2,Bot*
G04 #@! TF.FilePolarity,Positive*
%FSLAX46Y46*%
G04 Gerber Fmt 4.6, Leading zero omitted, Abs format (unit mm)*
G04 Created by KiCad (PCBNEW (5.1.2)-1) date 2019-09-07 09:30:14*
%MOMM*%
%LPD*%
G04 APERTURE LIST*
%ADD10R,13.000000X13.000000*%
%ADD11O,1.700000X1.950000*%
%ADD12C,0.100000*%
%ADD13C,1.700000*%
%ADD14C,0.800000*%
%ADD15C,0.250000*%
%ADD16C,0.254000*%
G04 APERTURE END LIST*
D10*
X110280000Y-42966000D03*
X80280000Y-42966000D03*
D11*
X91900000Y-58800000D03*
X94400000Y-58800000D03*
X96900000Y-58800000D03*
D12*
G36*
X100024504Y-57826204D02*
G01*
X100048773Y-57829804D01*
X100072571Y-57835765D01*
X100095671Y-57844030D01*
X100117849Y-57854520D01*
X100138893Y-57867133D01*
X100158598Y-57881747D01*
X100176777Y-57898223D01*
X100193253Y-57916402D01*
X100207867Y-57936107D01*
X100220480Y-57957151D01*
X100230970Y-57979329D01*
X100239235Y-58002429D01*
X100245196Y-58026227D01*
X100248796Y-58050496D01*
X100250000Y-58075000D01*
X100250000Y-59525000D01*
X100248796Y-59549504D01*
X100245196Y-59573773D01*
X100239235Y-59597571D01*
X100230970Y-59620671D01*
X100220480Y-59642849D01*
X100207867Y-59663893D01*
X100193253Y-59683598D01*
X100176777Y-59701777D01*
X100158598Y-59718253D01*
X100138893Y-59732867D01*
X100117849Y-59745480D01*
X100095671Y-59755970D01*
X100072571Y-59764235D01*
X100048773Y-59770196D01*
X100024504Y-59773796D01*
X100000000Y-59775000D01*
X98800000Y-59775000D01*
X98775496Y-59773796D01*
X98751227Y-59770196D01*
X98727429Y-59764235D01*
X98704329Y-59755970D01*
X98682151Y-59745480D01*
X98661107Y-59732867D01*
X98641402Y-59718253D01*
X98623223Y-59701777D01*
X98606747Y-59683598D01*
X98592133Y-59663893D01*
X98579520Y-59642849D01*
X98569030Y-59620671D01*
X98560765Y-59597571D01*
X98554804Y-59573773D01*
X98551204Y-59549504D01*
X98550000Y-59525000D01*
X98550000Y-58075000D01*
X98551204Y-58050496D01*
X98554804Y-58026227D01*
X98560765Y-58002429D01*
X98569030Y-57979329D01*
X98579520Y-57957151D01*
X98592133Y-57936107D01*
X98606747Y-57916402D01*
X98623223Y-57898223D01*
X98641402Y-57881747D01*
X98661107Y-57867133D01*
X98682151Y-57854520D01*
X98704329Y-57844030D01*
X98727429Y-57835765D01*
X98751227Y-57829804D01*
X98775496Y-57826204D01*
X98800000Y-57825000D01*
X100000000Y-57825000D01*
X100024504Y-57826204D01*
X100024504Y-57826204D01*
G37*
D13*
X99400000Y-58800000D03*
D14*
X106800000Y-55400000D03*
X108274990Y-54300000D03*
X114800000Y-53300000D03*
X109072100Y-59179518D03*
X91300000Y-53000000D03*
X92100000Y-53000000D03*
X90500000Y-53000000D03*
X90500000Y-51400000D03*
X91300000Y-51400000D03*
X92100000Y-51400000D03*
X92100000Y-52200000D03*
X90500000Y-52200000D03*
X82000000Y-64000000D03*
X84000000Y-64000000D03*
X85000000Y-64000000D03*
X87000000Y-64000000D03*
X77000000Y-64000000D03*
X76000000Y-64000000D03*
X88000000Y-64000000D03*
X83000000Y-64000000D03*
X75000000Y-64000000D03*
X78000000Y-64000000D03*
X80000000Y-64000000D03*
X81000000Y-64000000D03*
X79000000Y-64000000D03*
X86000000Y-64000000D03*
X74000000Y-64000000D03*
X86000000Y-66000000D03*
X84000000Y-66000000D03*
X85000000Y-66000000D03*
X87000000Y-66000000D03*
X80000000Y-66000000D03*
X75000000Y-66000000D03*
X79000000Y-66000000D03*
X77000000Y-66000000D03*
X76000000Y-66000000D03*
X81000000Y-66000000D03*
X74000000Y-66000000D03*
X82000000Y-66000000D03*
X83000000Y-66000000D03*
X78000000Y-66000000D03*
X88000000Y-66000000D03*
X82000000Y-65000000D03*
X84000000Y-65000000D03*
X85000000Y-65000000D03*
X87000000Y-65000000D03*
X77000000Y-65000000D03*
X76000000Y-65000000D03*
X88000000Y-65000000D03*
X83000000Y-65000000D03*
X75000000Y-65000000D03*
X78000000Y-65000000D03*
X80000000Y-65000000D03*
X81000000Y-65000000D03*
X79000000Y-65000000D03*
X86000000Y-65000000D03*
X74000000Y-65000000D03*
X86000000Y-68000000D03*
X87000000Y-70000000D03*
X84000000Y-68000000D03*
X85000000Y-68000000D03*
X80000000Y-70000000D03*
X75000000Y-70000000D03*
X87000000Y-68000000D03*
X79000000Y-70000000D03*
X84000000Y-69000000D03*
X85000000Y-69000000D03*
X87000000Y-69000000D03*
X80000000Y-68000000D03*
X76000000Y-69000000D03*
X75000000Y-68000000D03*
X79000000Y-68000000D03*
X77000000Y-68000000D03*
X76000000Y-68000000D03*
X81000000Y-68000000D03*
X74000000Y-68000000D03*
X86000000Y-70000000D03*
X84000000Y-70000000D03*
X85000000Y-70000000D03*
X82000000Y-69000000D03*
X82000000Y-68000000D03*
X83000000Y-68000000D03*
X78000000Y-68000000D03*
X88000000Y-68000000D03*
X77000000Y-69000000D03*
X83000000Y-69000000D03*
X76000000Y-70000000D03*
X80000000Y-69000000D03*
X81000000Y-69000000D03*
X88000000Y-69000000D03*
X86000000Y-69000000D03*
X88000000Y-70000000D03*
X75000000Y-69000000D03*
X74000000Y-70000000D03*
X78000000Y-70000000D03*
X83000000Y-70000000D03*
X77000000Y-70000000D03*
X81000000Y-70000000D03*
X82000000Y-70000000D03*
X78000000Y-69000000D03*
X74000000Y-69000000D03*
X79000000Y-69000000D03*
X82000000Y-67000000D03*
X84000000Y-67000000D03*
X85000000Y-67000000D03*
X87000000Y-67000000D03*
X77000000Y-67000000D03*
X76000000Y-67000000D03*
X88000000Y-67000000D03*
X83000000Y-67000000D03*
X75000000Y-67000000D03*
X78000000Y-67000000D03*
X80000000Y-67000000D03*
X81000000Y-67000000D03*
X79000000Y-67000000D03*
X86000000Y-67000000D03*
X74000000Y-67000000D03*
X74000000Y-63000000D03*
X75000000Y-63000000D03*
X76000000Y-63000000D03*
X77000000Y-63000000D03*
X78000000Y-63000000D03*
X79000000Y-63000000D03*
X80000000Y-63000000D03*
X81000000Y-63000000D03*
X82000000Y-63000000D03*
X83000000Y-63000000D03*
X84000000Y-63000000D03*
X85000000Y-63000000D03*
X86000000Y-63000000D03*
X87000000Y-63000000D03*
X88000000Y-63000000D03*
X74000000Y-71000000D03*
X75000000Y-73000000D03*
X86000000Y-73000000D03*
X84000000Y-73000000D03*
X85000000Y-73000000D03*
X87000000Y-72000000D03*
X82000000Y-72000000D03*
X82000000Y-71000000D03*
X83000000Y-71000000D03*
X85000000Y-71000000D03*
X79000000Y-71000000D03*
X80000000Y-71000000D03*
X84000000Y-72000000D03*
X85000000Y-72000000D03*
X86000000Y-71000000D03*
X76000000Y-72000000D03*
X84000000Y-71000000D03*
X80000000Y-73000000D03*
X87000000Y-71000000D03*
X76000000Y-71000000D03*
X87000000Y-73000000D03*
X79000000Y-73000000D03*
X75000000Y-71000000D03*
X81000000Y-71000000D03*
X77000000Y-71000000D03*
X83000000Y-73000000D03*
X78000000Y-72000000D03*
X79000000Y-72000000D03*
X82000000Y-73000000D03*
X88000000Y-73000000D03*
X80000000Y-72000000D03*
X74000000Y-73000000D03*
X86000000Y-72000000D03*
X76000000Y-73000000D03*
X78000000Y-73000000D03*
X83000000Y-72000000D03*
X75000000Y-72000000D03*
X78000000Y-71000000D03*
X81000000Y-72000000D03*
X77000000Y-73000000D03*
X74000000Y-72000000D03*
X88000000Y-72000000D03*
X81000000Y-73000000D03*
X88000000Y-71000000D03*
X77000000Y-72000000D03*
X144000000Y-64000000D03*
X145000000Y-66000000D03*
X142000000Y-64000000D03*
X143000000Y-64000000D03*
X138000000Y-66000000D03*
X133000000Y-66000000D03*
X145000000Y-64000000D03*
X137000000Y-66000000D03*
X142000000Y-65000000D03*
X143000000Y-65000000D03*
X145000000Y-65000000D03*
X138000000Y-64000000D03*
X134000000Y-65000000D03*
X133000000Y-64000000D03*
X137000000Y-64000000D03*
X135000000Y-64000000D03*
X134000000Y-64000000D03*
X139000000Y-64000000D03*
X132000000Y-64000000D03*
X144000000Y-66000000D03*
X142000000Y-66000000D03*
X143000000Y-66000000D03*
X140000000Y-65000000D03*
X140000000Y-64000000D03*
X141000000Y-64000000D03*
X136000000Y-64000000D03*
X146000000Y-64000000D03*
X135000000Y-65000000D03*
X141000000Y-65000000D03*
X134000000Y-66000000D03*
X138000000Y-65000000D03*
X139000000Y-65000000D03*
X146000000Y-65000000D03*
X144000000Y-65000000D03*
X146000000Y-66000000D03*
X133000000Y-65000000D03*
X132000000Y-66000000D03*
X136000000Y-66000000D03*
X141000000Y-66000000D03*
X135000000Y-66000000D03*
X139000000Y-66000000D03*
X140000000Y-66000000D03*
X136000000Y-65000000D03*
X132000000Y-65000000D03*
X137000000Y-65000000D03*
X132000000Y-68000000D03*
X133000000Y-70000000D03*
X144000000Y-70000000D03*
X141000000Y-67000000D03*
X142000000Y-70000000D03*
X143000000Y-70000000D03*
X145000000Y-69000000D03*
X140000000Y-69000000D03*
X140000000Y-68000000D03*
X141000000Y-68000000D03*
X143000000Y-68000000D03*
X142000000Y-67000000D03*
X137000000Y-68000000D03*
X138000000Y-68000000D03*
X142000000Y-69000000D03*
X143000000Y-69000000D03*
X135000000Y-67000000D03*
X144000000Y-68000000D03*
X134000000Y-69000000D03*
X140000000Y-67000000D03*
X134000000Y-67000000D03*
X142000000Y-68000000D03*
X138000000Y-70000000D03*
X145000000Y-68000000D03*
X143000000Y-67000000D03*
X145000000Y-67000000D03*
X146000000Y-67000000D03*
X134000000Y-68000000D03*
X145000000Y-70000000D03*
X137000000Y-70000000D03*
X133000000Y-68000000D03*
X139000000Y-68000000D03*
X135000000Y-68000000D03*
X141000000Y-70000000D03*
X136000000Y-69000000D03*
X137000000Y-69000000D03*
X140000000Y-70000000D03*
X146000000Y-70000000D03*
X138000000Y-69000000D03*
X132000000Y-70000000D03*
X144000000Y-69000000D03*
X133000000Y-67000000D03*
X134000000Y-70000000D03*
X139000000Y-67000000D03*
X137000000Y-67000000D03*
X136000000Y-70000000D03*
X132000000Y-67000000D03*
X138000000Y-67000000D03*
X144000000Y-67000000D03*
X141000000Y-69000000D03*
X133000000Y-69000000D03*
X136000000Y-68000000D03*
X139000000Y-69000000D03*
X135000000Y-70000000D03*
X132000000Y-69000000D03*
X146000000Y-69000000D03*
X139000000Y-70000000D03*
X146000000Y-68000000D03*
X136000000Y-67000000D03*
X135000000Y-69000000D03*
X133000000Y-71000000D03*
X136000000Y-72000000D03*
X133000000Y-73000000D03*
X139000000Y-71000000D03*
X141000000Y-72000000D03*
X143000000Y-71000000D03*
X146000000Y-72000000D03*
X139000000Y-73000000D03*
X140000000Y-73000000D03*
X144000000Y-73000000D03*
X140000000Y-72000000D03*
X138000000Y-71000000D03*
X140000000Y-71000000D03*
X142000000Y-72000000D03*
X135000000Y-71000000D03*
X145000000Y-73000000D03*
X132000000Y-71000000D03*
X137000000Y-72000000D03*
X137000000Y-71000000D03*
X138000000Y-73000000D03*
X142000000Y-71000000D03*
X134000000Y-72000000D03*
X145000000Y-71000000D03*
X142000000Y-73000000D03*
X143000000Y-73000000D03*
X141000000Y-73000000D03*
X138000000Y-72000000D03*
X132000000Y-73000000D03*
X144000000Y-72000000D03*
X134000000Y-73000000D03*
X133000000Y-72000000D03*
X134000000Y-71000000D03*
X137000000Y-73000000D03*
X136000000Y-71000000D03*
X135000000Y-73000000D03*
X146000000Y-71000000D03*
X135000000Y-72000000D03*
X136000000Y-73000000D03*
X146000000Y-73000000D03*
X143000000Y-72000000D03*
X139000000Y-72000000D03*
X145000000Y-72000000D03*
X132000000Y-72000000D03*
X141000000Y-71000000D03*
X144000000Y-71000000D03*
X140000000Y-63000000D03*
X142000000Y-63000000D03*
X143000000Y-63000000D03*
X145000000Y-63000000D03*
X135000000Y-63000000D03*
X134000000Y-63000000D03*
X146000000Y-63000000D03*
X141000000Y-63000000D03*
X133000000Y-63000000D03*
X136000000Y-63000000D03*
X138000000Y-63000000D03*
X139000000Y-63000000D03*
X137000000Y-63000000D03*
X144000000Y-63000000D03*
X132000000Y-63000000D03*
X91300000Y-52200000D03*
X115800000Y-60800000D03*
X110800000Y-58700000D03*
X117200000Y-60500000D03*
X133100000Y-60800000D03*
X131800000Y-47700000D03*
X85000000Y-50400000D03*
X75000000Y-53400000D03*
X81000000Y-53400000D03*
X80000000Y-53400000D03*
X86000000Y-50400000D03*
X85000000Y-51400000D03*
X86000000Y-52400000D03*
X86000000Y-53400000D03*
X76000000Y-53400000D03*
X74000000Y-53400000D03*
X78000000Y-53400000D03*
X86000000Y-51400000D03*
X79000000Y-53400000D03*
X84000000Y-53400000D03*
X85000000Y-53400000D03*
X83000000Y-53400000D03*
X85000000Y-52400000D03*
X77000000Y-53400000D03*
X82000000Y-55400000D03*
X75000000Y-54400000D03*
X78000000Y-54400000D03*
X83000000Y-55400000D03*
X84000000Y-55400000D03*
X77000000Y-55400000D03*
X84000000Y-54400000D03*
X85000000Y-54400000D03*
X75000000Y-55400000D03*
X81000000Y-55400000D03*
X78000000Y-56400000D03*
X86000000Y-55400000D03*
X77000000Y-57400000D03*
X81000000Y-54400000D03*
X84000000Y-56400000D03*
X80000000Y-54400000D03*
X79000000Y-55400000D03*
X85000000Y-56400000D03*
X75000000Y-57400000D03*
X83000000Y-57400000D03*
X81000000Y-57400000D03*
X77000000Y-54400000D03*
X83000000Y-54400000D03*
X76000000Y-54400000D03*
X86000000Y-54400000D03*
X85000000Y-55400000D03*
X78000000Y-55400000D03*
X76000000Y-55400000D03*
X79000000Y-54400000D03*
X82000000Y-57400000D03*
X80000000Y-55400000D03*
X74000000Y-54400000D03*
X82000000Y-54400000D03*
X75000000Y-56400000D03*
X82000000Y-53400000D03*
X74000000Y-55400000D03*
X84000000Y-57400000D03*
X77000000Y-56400000D03*
X86000000Y-56400000D03*
X82000000Y-56400000D03*
X78000000Y-57400000D03*
X76000000Y-57400000D03*
X74000000Y-57400000D03*
X81000000Y-56400000D03*
X85000000Y-57400000D03*
X86000000Y-57400000D03*
X76000000Y-56400000D03*
X80000000Y-56400000D03*
X80000000Y-57400000D03*
X79000000Y-56400000D03*
X83000000Y-56400000D03*
X74000000Y-56400000D03*
X79000000Y-57400000D03*
X78000000Y-51400000D03*
X79000000Y-51400000D03*
X82000000Y-52400000D03*
X81000000Y-50400000D03*
X80000000Y-51400000D03*
X76000000Y-52400000D03*
X77000000Y-52400000D03*
X81000000Y-51400000D03*
X83000000Y-51400000D03*
X82000000Y-51400000D03*
X75000000Y-50400000D03*
X76000000Y-50400000D03*
X77000000Y-50400000D03*
X83000000Y-50400000D03*
X80000000Y-52400000D03*
X74000000Y-51400000D03*
X81000000Y-52400000D03*
X76000000Y-51400000D03*
X80000000Y-50400000D03*
X75000000Y-51400000D03*
X82000000Y-50400000D03*
X83000000Y-52400000D03*
X84000000Y-51400000D03*
X84000000Y-52400000D03*
X77000000Y-51400000D03*
X78000000Y-50400000D03*
X75000000Y-52400000D03*
X79000000Y-50400000D03*
X84000000Y-50400000D03*
X79000000Y-52400000D03*
X78000000Y-52400000D03*
X74000000Y-52400000D03*
X74000000Y-50400000D03*
X119500000Y-50700000D03*
X122500000Y-50700000D03*
X120500000Y-50700000D03*
X121500000Y-50700000D03*
X127000000Y-51500000D03*
X126000000Y-51500000D03*
X123500000Y-50700000D03*
X125000000Y-51500000D03*
X127500000Y-52300000D03*
X126500000Y-50700000D03*
X121000000Y-51500000D03*
X122000000Y-51500000D03*
X124500000Y-50700000D03*
X123000000Y-51500000D03*
X125500000Y-50700000D03*
X128000000Y-53100000D03*
X119000000Y-53100000D03*
X127500000Y-50700000D03*
X128000000Y-51500000D03*
X124000000Y-51500000D03*
X120000000Y-51500000D03*
X126500000Y-53900000D03*
X119000000Y-56300000D03*
X121500000Y-53900000D03*
X122500000Y-53900000D03*
X123500000Y-53900000D03*
X122000000Y-54700000D03*
X125500000Y-53900000D03*
X127500000Y-53900000D03*
X124000000Y-54700000D03*
X119500000Y-55500000D03*
X125000000Y-56300000D03*
X127000000Y-56300000D03*
X121000000Y-56300000D03*
X121500000Y-55500000D03*
X123000000Y-56300000D03*
X121000000Y-54700000D03*
X124500000Y-53900000D03*
X128000000Y-54700000D03*
X120000000Y-54700000D03*
X122000000Y-56300000D03*
X119000000Y-54700000D03*
X128000000Y-56300000D03*
X126000000Y-56300000D03*
X120500000Y-55500000D03*
X124500000Y-55500000D03*
X122500000Y-55500000D03*
X120000000Y-56300000D03*
X120500000Y-53900000D03*
X127000000Y-54700000D03*
X126500000Y-55500000D03*
X124000000Y-56300000D03*
X119500000Y-53900000D03*
X126000000Y-54700000D03*
X123000000Y-54700000D03*
X125500000Y-55500000D03*
X127500000Y-55500000D03*
X123500000Y-55500000D03*
X125000000Y-54700000D03*
X126000000Y-57900000D03*
X128000000Y-57900000D03*
X125000000Y-59500000D03*
X119000000Y-59500000D03*
X125000000Y-57900000D03*
X126500000Y-57100000D03*
X123500000Y-57100000D03*
X121000000Y-59500000D03*
X124000000Y-57900000D03*
X120500000Y-58700000D03*
X122500000Y-57100000D03*
X127500000Y-57100000D03*
X121500000Y-58700000D03*
X122000000Y-59500000D03*
X121500000Y-57100000D03*
X122000000Y-57900000D03*
X120000000Y-57900000D03*
X119000000Y-57900000D03*
X127000000Y-57900000D03*
X119500000Y-58700000D03*
X126500000Y-58700000D03*
X124000000Y-59500000D03*
X123000000Y-59500000D03*
X125500000Y-58700000D03*
X119500000Y-57100000D03*
X124500000Y-57100000D03*
X125500000Y-57100000D03*
X124500000Y-58700000D03*
X120000000Y-59500000D03*
X126000000Y-59500000D03*
X123000000Y-57900000D03*
X128000000Y-59500000D03*
X122500000Y-58700000D03*
X121000000Y-57900000D03*
X120500000Y-57100000D03*
X127000000Y-59500000D03*
X123500000Y-58700000D03*
X127500000Y-58700000D03*
X127000000Y-53100000D03*
X119500000Y-52300000D03*
X123000000Y-53100000D03*
X126500000Y-52300000D03*
X126000000Y-53100000D03*
X125000000Y-53100000D03*
X121000000Y-53100000D03*
X121500000Y-52300000D03*
X122000000Y-53100000D03*
X119000000Y-51500000D03*
X120500000Y-52300000D03*
X124500000Y-52300000D03*
X122500000Y-52300000D03*
X120000000Y-53100000D03*
X124000000Y-53100000D03*
X125500000Y-52300000D03*
X123500000Y-52300000D03*
X120500000Y-47100000D03*
X121500000Y-47100000D03*
X119500000Y-47100000D03*
X126500000Y-47100000D03*
X125500000Y-47100000D03*
X124500000Y-47100000D03*
X122500000Y-47100000D03*
X123500000Y-47100000D03*
X127500000Y-47100000D03*
X119500000Y-43900000D03*
X122500000Y-43900000D03*
X120500000Y-43900000D03*
X121500000Y-43900000D03*
X127000000Y-44700000D03*
X126000000Y-44700000D03*
X123500000Y-43900000D03*
X125000000Y-44700000D03*
X127500000Y-45500000D03*
X126500000Y-43900000D03*
X121000000Y-44700000D03*
X122000000Y-44700000D03*
X124500000Y-43900000D03*
X123000000Y-44700000D03*
X125500000Y-43900000D03*
X128000000Y-46300000D03*
X119000000Y-46300000D03*
X127500000Y-43900000D03*
X128000000Y-44700000D03*
X124000000Y-44700000D03*
X120000000Y-44700000D03*
X127000000Y-46300000D03*
X119500000Y-45500000D03*
X123000000Y-46300000D03*
X126500000Y-45500000D03*
X126000000Y-46300000D03*
X125000000Y-46300000D03*
X121000000Y-46300000D03*
X121500000Y-45500000D03*
X122000000Y-46300000D03*
X119000000Y-44700000D03*
X120500000Y-45500000D03*
X124500000Y-45500000D03*
X122500000Y-45500000D03*
X120000000Y-46300000D03*
X124000000Y-46300000D03*
X125500000Y-45500000D03*
X123500000Y-45500000D03*
X119500000Y-40700000D03*
X122500000Y-40700000D03*
X120500000Y-40700000D03*
X121500000Y-40700000D03*
X127000000Y-41500000D03*
X126000000Y-41500000D03*
X123500000Y-40700000D03*
X125000000Y-41500000D03*
X127500000Y-42300000D03*
X126500000Y-40700000D03*
X121000000Y-41500000D03*
X122000000Y-41500000D03*
X124500000Y-40700000D03*
X123000000Y-41500000D03*
X125500000Y-40700000D03*
X128000000Y-43100000D03*
X119000000Y-43100000D03*
X127500000Y-40700000D03*
X128000000Y-41500000D03*
X124000000Y-41500000D03*
X120000000Y-41500000D03*
X127000000Y-43100000D03*
X119500000Y-42300000D03*
X123000000Y-43100000D03*
X126500000Y-42300000D03*
X126000000Y-43100000D03*
X125000000Y-43100000D03*
X121000000Y-43100000D03*
X121500000Y-42300000D03*
X122000000Y-43100000D03*
X119000000Y-41500000D03*
X120500000Y-42300000D03*
X124500000Y-42300000D03*
X122500000Y-42300000D03*
X120000000Y-43100000D03*
X124000000Y-43100000D03*
X125500000Y-42300000D03*
X123500000Y-42300000D03*
X128000000Y-39900000D03*
X128000000Y-38300000D03*
X127500000Y-39100000D03*
X119000000Y-39900000D03*
X127000000Y-39900000D03*
X124000000Y-39900000D03*
X126000000Y-39900000D03*
X125000000Y-39900000D03*
X119500000Y-39100000D03*
X120500000Y-39100000D03*
X123000000Y-39900000D03*
X121500000Y-39100000D03*
X120000000Y-39900000D03*
X125500000Y-39100000D03*
X124500000Y-39100000D03*
X122000000Y-39900000D03*
X123500000Y-39100000D03*
X121000000Y-39900000D03*
X119000000Y-38300000D03*
X122500000Y-39100000D03*
X126500000Y-39100000D03*
X120000000Y-38300000D03*
X121000000Y-38300000D03*
X122000000Y-38300000D03*
X123000000Y-38300000D03*
X124000000Y-38300000D03*
X125000000Y-38300000D03*
X126000000Y-38300000D03*
X127000000Y-38300000D03*
X127500000Y-37500000D03*
X126500000Y-37500000D03*
X125500000Y-37500000D03*
X124500000Y-37500000D03*
X123500000Y-37500000D03*
X122500000Y-37500000D03*
X121500000Y-37500000D03*
X120500000Y-37500000D03*
X119500000Y-37500000D03*
X113500000Y-61300000D03*
X110400000Y-60700000D03*
X105000000Y-61225010D03*
X108700000Y-53300000D03*
X108310954Y-60674990D03*
X102300000Y-59574990D03*
X108800000Y-51900000D03*
X141100000Y-55400000D03*
X142100000Y-55400000D03*
X144100000Y-55400000D03*
X139100000Y-55400000D03*
X143100000Y-56400000D03*
X145100000Y-56400000D03*
X139100000Y-56400000D03*
X142100000Y-56400000D03*
X145100000Y-55400000D03*
X144100000Y-56400000D03*
X140100000Y-56400000D03*
X143100000Y-55400000D03*
X146100000Y-56400000D03*
X141100000Y-56400000D03*
X146100000Y-55400000D03*
X140100000Y-55400000D03*
X146100000Y-57400000D03*
X144100000Y-53400000D03*
X145100000Y-57400000D03*
X139100000Y-57400000D03*
X142100000Y-57400000D03*
X140100000Y-57400000D03*
X143100000Y-54400000D03*
X141100000Y-57400000D03*
X143100000Y-53400000D03*
X142100000Y-53400000D03*
X139100000Y-54400000D03*
X143100000Y-57400000D03*
X141100000Y-53400000D03*
X141100000Y-54400000D03*
X139100000Y-53400000D03*
X145100000Y-53400000D03*
X142100000Y-54400000D03*
X146100000Y-53400000D03*
X146100000Y-54400000D03*
X140100000Y-53400000D03*
X144100000Y-57400000D03*
X145100000Y-54400000D03*
X140100000Y-54400000D03*
X144100000Y-54400000D03*
X143100000Y-51400000D03*
X146100000Y-52400000D03*
X143100000Y-52400000D03*
X141100000Y-51400000D03*
X141100000Y-52400000D03*
X142100000Y-51400000D03*
X145100000Y-52400000D03*
X144100000Y-51400000D03*
X139100000Y-51400000D03*
X139100000Y-52400000D03*
X142100000Y-52400000D03*
X140100000Y-52400000D03*
X140100000Y-51400000D03*
X146100000Y-51400000D03*
X145100000Y-51400000D03*
X144100000Y-52400000D03*
X140100000Y-37000000D03*
X143100000Y-37000000D03*
X142100000Y-38000000D03*
X140100000Y-38000000D03*
X146100000Y-38000000D03*
X146100000Y-37000000D03*
X145100000Y-37000000D03*
X144100000Y-38000000D03*
X142100000Y-37000000D03*
X141100000Y-37000000D03*
X143100000Y-38000000D03*
X141100000Y-38000000D03*
X144100000Y-37000000D03*
X145100000Y-38000000D03*
X139100000Y-37000000D03*
X139100000Y-38000000D03*
X143100000Y-39000000D03*
X146100000Y-40000000D03*
X143100000Y-40000000D03*
X141100000Y-39000000D03*
X141100000Y-40000000D03*
X142100000Y-39000000D03*
X145100000Y-40000000D03*
X144100000Y-39000000D03*
X139100000Y-39000000D03*
X139100000Y-40000000D03*
X142100000Y-40000000D03*
X140100000Y-40000000D03*
X140100000Y-39000000D03*
X146100000Y-39000000D03*
X145100000Y-39000000D03*
X144100000Y-40000000D03*
X143100000Y-41000000D03*
X146100000Y-42000000D03*
X143100000Y-42000000D03*
X141100000Y-41000000D03*
X141100000Y-42000000D03*
X142100000Y-41000000D03*
X145100000Y-42000000D03*
X144100000Y-41000000D03*
X139100000Y-41000000D03*
X139100000Y-42000000D03*
X142100000Y-42000000D03*
X140100000Y-42000000D03*
X140100000Y-41000000D03*
X146100000Y-41000000D03*
X145100000Y-41000000D03*
X144100000Y-42000000D03*
X143100000Y-43000000D03*
X145100000Y-43000000D03*
X139100000Y-43000000D03*
X142100000Y-43000000D03*
X144100000Y-43000000D03*
X140100000Y-43000000D03*
X146100000Y-43000000D03*
X141100000Y-43000000D03*
X95500000Y-51300000D03*
X99400000Y-51300000D03*
X87700000Y-54700000D03*
X95600000Y-54700000D03*
X92674990Y-54700000D03*
D15*
X106800000Y-55400000D02*
X107900000Y-54300000D01*
X107900000Y-54300000D02*
X108274990Y-54300000D01*
X114800000Y-53300000D02*
X109072100Y-59027900D01*
X109072100Y-59027900D02*
X109072100Y-59179518D01*
X96900000Y-60025000D02*
X97175000Y-60300000D01*
X96900000Y-58800000D02*
X96900000Y-60025000D01*
X97175000Y-60300000D02*
X106200000Y-60300000D01*
X106200000Y-60300000D02*
X108200000Y-62300000D01*
X108200000Y-62300000D02*
X108200000Y-64500000D01*
X96900000Y-58675000D02*
X93400000Y-55175000D01*
X96900000Y-58800000D02*
X96900000Y-58675000D01*
X93400000Y-55175000D02*
X93400000Y-52400000D01*
X115800000Y-60800000D02*
X113700000Y-58700000D01*
X113700000Y-58700000D02*
X110800000Y-58700000D01*
X133100000Y-49000000D02*
X133100000Y-60800000D01*
X131800000Y-47700000D02*
X133100000Y-49000000D01*
X133100000Y-60800000D02*
X132500000Y-61400000D01*
X118100000Y-61400000D02*
X117200000Y-60500000D01*
X132500000Y-61400000D02*
X118100000Y-61400000D01*
X113500000Y-61300000D02*
X112900000Y-60700000D01*
X112900000Y-60700000D02*
X110400000Y-60700000D01*
X91900000Y-58925000D02*
X94600009Y-61625009D01*
X104600001Y-61625009D02*
X105000000Y-61225010D01*
X94600009Y-61625009D02*
X104600001Y-61625009D01*
X91900000Y-58800000D02*
X91900000Y-58925000D01*
X109099999Y-58000001D02*
X108310954Y-58789046D01*
X108310954Y-58789046D02*
X108310954Y-60109305D01*
X108310954Y-60109305D02*
X108310954Y-60674990D01*
X109099999Y-53699999D02*
X109099999Y-58000001D01*
X108700000Y-53300000D02*
X109099999Y-53699999D01*
X99400000Y-58800000D02*
X101900000Y-58800000D01*
X101900000Y-58800000D02*
X108800000Y-51900000D01*
X95500000Y-54600000D02*
X95600000Y-54700000D01*
X95500000Y-51300000D02*
X95500000Y-54600000D01*
X95500000Y-51300000D02*
X99400000Y-51300000D01*
X87700000Y-54700000D02*
X92674990Y-54700000D01*
D16*
G36*
X146415001Y-73615000D02*
G01*
X73785000Y-73615000D01*
X73785000Y-62427000D01*
X146415001Y-62427000D01*
X146415001Y-73615000D01*
X146415001Y-73615000D01*
G37*
X146415001Y-73615000D02*
X73785000Y-73615000D01*
X73785000Y-62427000D01*
X146415001Y-62427000D01*
X146415001Y-73615000D01*
G36*
X128973000Y-60640000D02*
G01*
X118414802Y-60640000D01*
X118327000Y-60552198D01*
X118327000Y-49900000D01*
X118324560Y-49875224D01*
X118309336Y-49798687D01*
X118302109Y-49774862D01*
X118290372Y-49752905D01*
X118247017Y-49688021D01*
X118231223Y-49668776D01*
X118211979Y-49652983D01*
X118147095Y-49609628D01*
X118125139Y-49597892D01*
X118101313Y-49590664D01*
X118024776Y-49575440D01*
X118000000Y-49573000D01*
X117407534Y-49573000D01*
X117418072Y-49466000D01*
X117418072Y-36785000D01*
X128973000Y-36785000D01*
X128973000Y-60640000D01*
X128973000Y-60640000D01*
G37*
X128973000Y-60640000D02*
X118414802Y-60640000D01*
X118327000Y-60552198D01*
X118327000Y-49900000D01*
X118324560Y-49875224D01*
X118309336Y-49798687D01*
X118302109Y-49774862D01*
X118290372Y-49752905D01*
X118247017Y-49688021D01*
X118231223Y-49668776D01*
X118211979Y-49652983D01*
X118147095Y-49609628D01*
X118125139Y-49597892D01*
X118101313Y-49590664D01*
X118024776Y-49575440D01*
X118000000Y-49573000D01*
X117407534Y-49573000D01*
X117418072Y-49466000D01*
X117418072Y-36785000D01*
X128973000Y-36785000D01*
X128973000Y-60640000D01*
G36*
X86315001Y-49666343D02*
G01*
X86311686Y-49700000D01*
X86324912Y-49834283D01*
X86364081Y-49963406D01*
X86427688Y-50082407D01*
X86513289Y-50186711D01*
X86617593Y-50272312D01*
X86673000Y-50301927D01*
X86673000Y-54557842D01*
X86665000Y-54598061D01*
X86665000Y-54801939D01*
X86673000Y-54842158D01*
X86673000Y-58187491D01*
X86665144Y-58226984D01*
X86649859Y-58249859D01*
X86626984Y-58265144D01*
X86587491Y-58273000D01*
X73785000Y-58273000D01*
X73785000Y-36785000D01*
X86315000Y-36785000D01*
X86315001Y-49666343D01*
X86315001Y-49666343D01*
G37*
X86315001Y-49666343D02*
X86311686Y-49700000D01*
X86324912Y-49834283D01*
X86364081Y-49963406D01*
X86427688Y-50082407D01*
X86513289Y-50186711D01*
X86617593Y-50272312D01*
X86673000Y-50301927D01*
X86673000Y-54557842D01*
X86665000Y-54598061D01*
X86665000Y-54801939D01*
X86673000Y-54842158D01*
X86673000Y-58187491D01*
X86665144Y-58226984D01*
X86649859Y-58249859D01*
X86626984Y-58265144D01*
X86587491Y-58273000D01*
X73785000Y-58273000D01*
X73785000Y-36785000D01*
X86315000Y-36785000D01*
X86315001Y-49666343D01*
G36*
X94473000Y-50412509D02*
G01*
X94473000Y-51157842D01*
X94465000Y-51198061D01*
X94465000Y-51401939D01*
X94473000Y-51442158D01*
X94473000Y-53587491D01*
X94465144Y-53626984D01*
X94449859Y-53649859D01*
X94426984Y-53665144D01*
X94387491Y-53673000D01*
X92817148Y-53673000D01*
X92776929Y-53665000D01*
X92573051Y-53665000D01*
X92532832Y-53673000D01*
X88212509Y-53673000D01*
X88173016Y-53665144D01*
X88150141Y-53649859D01*
X88134856Y-53626984D01*
X88127000Y-53587491D01*
X88127000Y-50412509D01*
X88132472Y-50385000D01*
X94467528Y-50385000D01*
X94473000Y-50412509D01*
X94473000Y-50412509D01*
G37*
X94473000Y-50412509D02*
X94473000Y-51157842D01*
X94465000Y-51198061D01*
X94465000Y-51401939D01*
X94473000Y-51442158D01*
X94473000Y-53587491D01*
X94465144Y-53626984D01*
X94449859Y-53649859D01*
X94426984Y-53665144D01*
X94387491Y-53673000D01*
X92817148Y-53673000D01*
X92776929Y-53665000D01*
X92573051Y-53665000D01*
X92532832Y-53673000D01*
X88212509Y-53673000D01*
X88173016Y-53665144D01*
X88150141Y-53649859D01*
X88134856Y-53626984D01*
X88127000Y-53587491D01*
X88127000Y-50412509D01*
X88132472Y-50385000D01*
X94467528Y-50385000D01*
X94473000Y-50412509D01*
M02*
