M48
; DRILL file {KiCad (5.1.2)-1} date 07.09.2019 09:30:18
; FORMAT={-:-/ absolute / metric / decimal}
; #@! TF.CreationDate,2019-09-07T09:30:18+02:00
; #@! TF.GenerationSoftware,Kicad,Pcbnew,(5.1.2)-1
FMAT,2
METRIC
T1C0.400
T2C0.950
T3C6.500
%
G90
G05
T1
X74.0Y-50.4
X74.0Y-51.4
X74.0Y-52.4
X74.0Y-53.4
X74.0Y-54.4
X74.0Y-55.4
X74.0Y-56.4
X74.0Y-57.4
X74.0Y-63.0
X74.0Y-64.0
X74.0Y-65.0
X74.0Y-66.0
X74.0Y-67.0
X74.0Y-68.0
X74.0Y-69.0
X74.0Y-70.0
X74.0Y-71.0
X74.0Y-72.0
X74.0Y-73.0
X75.0Y-50.4
X75.0Y-51.4
X75.0Y-52.4
X75.0Y-53.4
X75.0Y-54.4
X75.0Y-55.4
X75.0Y-56.4
X75.0Y-57.4
X75.0Y-63.0
X75.0Y-64.0
X75.0Y-65.0
X75.0Y-66.0
X75.0Y-67.0
X75.0Y-68.0
X75.0Y-69.0
X75.0Y-70.0
X75.0Y-71.0
X75.0Y-72.0
X75.0Y-73.0
X76.0Y-50.4
X76.0Y-51.4
X76.0Y-52.4
X76.0Y-53.4
X76.0Y-54.4
X76.0Y-55.4
X76.0Y-56.4
X76.0Y-57.4
X76.0Y-63.0
X76.0Y-64.0
X76.0Y-65.0
X76.0Y-66.0
X76.0Y-67.0
X76.0Y-68.0
X76.0Y-69.0
X76.0Y-70.0
X76.0Y-71.0
X76.0Y-72.0
X76.0Y-73.0
X77.0Y-50.4
X77.0Y-51.4
X77.0Y-52.4
X77.0Y-53.4
X77.0Y-54.4
X77.0Y-55.4
X77.0Y-56.4
X77.0Y-57.4
X77.0Y-63.0
X77.0Y-64.0
X77.0Y-65.0
X77.0Y-66.0
X77.0Y-67.0
X77.0Y-68.0
X77.0Y-69.0
X77.0Y-70.0
X77.0Y-71.0
X77.0Y-72.0
X77.0Y-73.0
X78.0Y-50.4
X78.0Y-51.4
X78.0Y-52.4
X78.0Y-53.4
X78.0Y-54.4
X78.0Y-55.4
X78.0Y-56.4
X78.0Y-57.4
X78.0Y-63.0
X78.0Y-64.0
X78.0Y-65.0
X78.0Y-66.0
X78.0Y-67.0
X78.0Y-68.0
X78.0Y-69.0
X78.0Y-70.0
X78.0Y-71.0
X78.0Y-72.0
X78.0Y-73.0
X79.0Y-50.4
X79.0Y-51.4
X79.0Y-52.4
X79.0Y-53.4
X79.0Y-54.4
X79.0Y-55.4
X79.0Y-56.4
X79.0Y-57.4
X79.0Y-63.0
X79.0Y-64.0
X79.0Y-65.0
X79.0Y-66.0
X79.0Y-67.0
X79.0Y-68.0
X79.0Y-69.0
X79.0Y-70.0
X79.0Y-71.0
X79.0Y-72.0
X79.0Y-73.0
X80.0Y-50.4
X80.0Y-51.4
X80.0Y-52.4
X80.0Y-53.4
X80.0Y-54.4
X80.0Y-55.4
X80.0Y-56.4
X80.0Y-57.4
X80.0Y-63.0
X80.0Y-64.0
X80.0Y-65.0
X80.0Y-66.0
X80.0Y-67.0
X80.0Y-68.0
X80.0Y-69.0
X80.0Y-70.0
X80.0Y-71.0
X80.0Y-72.0
X80.0Y-73.0
X81.0Y-50.4
X81.0Y-51.4
X81.0Y-52.4
X81.0Y-53.4
X81.0Y-54.4
X81.0Y-55.4
X81.0Y-56.4
X81.0Y-57.4
X81.0Y-63.0
X81.0Y-64.0
X81.0Y-65.0
X81.0Y-66.0
X81.0Y-67.0
X81.0Y-68.0
X81.0Y-69.0
X81.0Y-70.0
X81.0Y-71.0
X81.0Y-72.0
X81.0Y-73.0
X82.0Y-50.4
X82.0Y-51.4
X82.0Y-52.4
X82.0Y-53.4
X82.0Y-54.4
X82.0Y-55.4
X82.0Y-56.4
X82.0Y-57.4
X82.0Y-63.0
X82.0Y-64.0
X82.0Y-65.0
X82.0Y-66.0
X82.0Y-67.0
X82.0Y-68.0
X82.0Y-69.0
X82.0Y-70.0
X82.0Y-71.0
X82.0Y-72.0
X82.0Y-73.0
X83.0Y-50.4
X83.0Y-51.4
X83.0Y-52.4
X83.0Y-53.4
X83.0Y-54.4
X83.0Y-55.4
X83.0Y-56.4
X83.0Y-57.4
X83.0Y-63.0
X83.0Y-64.0
X83.0Y-65.0
X83.0Y-66.0
X83.0Y-67.0
X83.0Y-68.0
X83.0Y-69.0
X83.0Y-70.0
X83.0Y-71.0
X83.0Y-72.0
X83.0Y-73.0
X84.0Y-50.4
X84.0Y-51.4
X84.0Y-52.4
X84.0Y-53.4
X84.0Y-54.4
X84.0Y-55.4
X84.0Y-56.4
X84.0Y-57.4
X84.0Y-63.0
X84.0Y-64.0
X84.0Y-65.0
X84.0Y-66.0
X84.0Y-67.0
X84.0Y-68.0
X84.0Y-69.0
X84.0Y-70.0
X84.0Y-71.0
X84.0Y-72.0
X84.0Y-73.0
X85.0Y-50.4
X85.0Y-51.4
X85.0Y-52.4
X85.0Y-53.4
X85.0Y-54.4
X85.0Y-55.4
X85.0Y-56.4
X85.0Y-57.4
X85.0Y-63.0
X85.0Y-64.0
X85.0Y-65.0
X85.0Y-66.0
X85.0Y-67.0
X85.0Y-68.0
X85.0Y-69.0
X85.0Y-70.0
X85.0Y-71.0
X85.0Y-72.0
X85.0Y-73.0
X86.0Y-50.4
X86.0Y-51.4
X86.0Y-52.4
X86.0Y-53.4
X86.0Y-54.4
X86.0Y-55.4
X86.0Y-56.4
X86.0Y-57.4
X86.0Y-63.0
X86.0Y-64.0
X86.0Y-65.0
X86.0Y-66.0
X86.0Y-67.0
X86.0Y-68.0
X86.0Y-69.0
X86.0Y-70.0
X86.0Y-71.0
X86.0Y-72.0
X86.0Y-73.0
X87.0Y-63.0
X87.0Y-64.0
X87.0Y-65.0
X87.0Y-66.0
X87.0Y-67.0
X87.0Y-68.0
X87.0Y-69.0
X87.0Y-70.0
X87.0Y-71.0
X87.0Y-72.0
X87.0Y-73.0
X87.7Y-54.7
X88.0Y-63.0
X88.0Y-64.0
X88.0Y-65.0
X88.0Y-66.0
X88.0Y-67.0
X88.0Y-68.0
X88.0Y-69.0
X88.0Y-70.0
X88.0Y-71.0
X88.0Y-72.0
X88.0Y-73.0
X90.5Y-51.4
X90.5Y-52.2
X90.5Y-53.0
X91.3Y-51.4
X91.3Y-52.2
X91.3Y-53.0
X92.1Y-51.4
X92.1Y-52.2
X92.1Y-53.0
X92.675Y-54.7
X95.5Y-51.3
X95.6Y-54.7
X99.4Y-51.3
X102.3Y-59.575
X105.0Y-61.225
X106.8Y-55.4
X108.275Y-54.3
X108.311Y-60.675
X108.7Y-53.3
X108.8Y-51.9
X109.072Y-59.18
X110.4Y-60.7
X110.8Y-58.7
X113.5Y-61.3
X114.8Y-53.3
X115.8Y-60.8
X117.2Y-60.5
X119.0Y-38.3
X119.0Y-39.9
X119.0Y-41.5
X119.0Y-43.1
X119.0Y-44.7
X119.0Y-46.3
X119.0Y-51.5
X119.0Y-53.1
X119.0Y-54.7
X119.0Y-56.3
X119.0Y-57.9
X119.0Y-59.5
X119.5Y-37.5
X119.5Y-39.1
X119.5Y-40.7
X119.5Y-42.3
X119.5Y-43.9
X119.5Y-45.5
X119.5Y-47.1
X119.5Y-50.7
X119.5Y-52.3
X119.5Y-53.9
X119.5Y-55.5
X119.5Y-57.1
X119.5Y-58.7
X120.0Y-38.3
X120.0Y-39.9
X120.0Y-41.5
X120.0Y-43.1
X120.0Y-44.7
X120.0Y-46.3
X120.0Y-51.5
X120.0Y-53.1
X120.0Y-54.7
X120.0Y-56.3
X120.0Y-57.9
X120.0Y-59.5
X120.5Y-37.5
X120.5Y-39.1
X120.5Y-40.7
X120.5Y-42.3
X120.5Y-43.9
X120.5Y-45.5
X120.5Y-47.1
X120.5Y-50.7
X120.5Y-52.3
X120.5Y-53.9
X120.5Y-55.5
X120.5Y-57.1
X120.5Y-58.7
X121.0Y-38.3
X121.0Y-39.9
X121.0Y-41.5
X121.0Y-43.1
X121.0Y-44.7
X121.0Y-46.3
X121.0Y-51.5
X121.0Y-53.1
X121.0Y-54.7
X121.0Y-56.3
X121.0Y-57.9
X121.0Y-59.5
X121.5Y-37.5
X121.5Y-39.1
X121.5Y-40.7
X121.5Y-42.3
X121.5Y-43.9
X121.5Y-45.5
X121.5Y-47.1
X121.5Y-50.7
X121.5Y-52.3
X121.5Y-53.9
X121.5Y-55.5
X121.5Y-57.1
X121.5Y-58.7
X122.0Y-38.3
X122.0Y-39.9
X122.0Y-41.5
X122.0Y-43.1
X122.0Y-44.7
X122.0Y-46.3
X122.0Y-51.5
X122.0Y-53.1
X122.0Y-54.7
X122.0Y-56.3
X122.0Y-57.9
X122.0Y-59.5
X122.5Y-37.5
X122.5Y-39.1
X122.5Y-40.7
X122.5Y-42.3
X122.5Y-43.9
X122.5Y-45.5
X122.5Y-47.1
X122.5Y-50.7
X122.5Y-52.3
X122.5Y-53.9
X122.5Y-55.5
X122.5Y-57.1
X122.5Y-58.7
X123.0Y-38.3
X123.0Y-39.9
X123.0Y-41.5
X123.0Y-43.1
X123.0Y-44.7
X123.0Y-46.3
X123.0Y-51.5
X123.0Y-53.1
X123.0Y-54.7
X123.0Y-56.3
X123.0Y-57.9
X123.0Y-59.5
X123.5Y-37.5
X123.5Y-39.1
X123.5Y-40.7
X123.5Y-42.3
X123.5Y-43.9
X123.5Y-45.5
X123.5Y-47.1
X123.5Y-50.7
X123.5Y-52.3
X123.5Y-53.9
X123.5Y-55.5
X123.5Y-57.1
X123.5Y-58.7
X124.0Y-38.3
X124.0Y-39.9
X124.0Y-41.5
X124.0Y-43.1
X124.0Y-44.7
X124.0Y-46.3
X124.0Y-51.5
X124.0Y-53.1
X124.0Y-54.7
X124.0Y-56.3
X124.0Y-57.9
X124.0Y-59.5
X124.5Y-37.5
X124.5Y-39.1
X124.5Y-40.7
X124.5Y-42.3
X124.5Y-43.9
X124.5Y-45.5
X124.5Y-47.1
X124.5Y-50.7
X124.5Y-52.3
X124.5Y-53.9
X124.5Y-55.5
X124.5Y-57.1
X124.5Y-58.7
X125.0Y-38.3
X125.0Y-39.9
X125.0Y-41.5
X125.0Y-43.1
X125.0Y-44.7
X125.0Y-46.3
X125.0Y-51.5
X125.0Y-53.1
X125.0Y-54.7
X125.0Y-56.3
X125.0Y-57.9
X125.0Y-59.5
X125.5Y-37.5
X125.5Y-39.1
X125.5Y-40.7
X125.5Y-42.3
X125.5Y-43.9
X125.5Y-45.5
X125.5Y-47.1
X125.5Y-50.7
X125.5Y-52.3
X125.5Y-53.9
X125.5Y-55.5
X125.5Y-57.1
X125.5Y-58.7
X126.0Y-38.3
X126.0Y-39.9
X126.0Y-41.5
X126.0Y-43.1
X126.0Y-44.7
X126.0Y-46.3
X126.0Y-51.5
X126.0Y-53.1
X126.0Y-54.7
X126.0Y-56.3
X126.0Y-57.9
X126.0Y-59.5
X126.5Y-37.5
X126.5Y-39.1
X126.5Y-40.7
X126.5Y-42.3
X126.5Y-43.9
X126.5Y-45.5
X126.5Y-47.1
X126.5Y-50.7
X126.5Y-52.3
X126.5Y-53.9
X126.5Y-55.5
X126.5Y-57.1
X126.5Y-58.7
X127.0Y-38.3
X127.0Y-39.9
X127.0Y-41.5
X127.0Y-43.1
X127.0Y-44.7
X127.0Y-46.3
X127.0Y-51.5
X127.0Y-53.1
X127.0Y-54.7
X127.0Y-56.3
X127.0Y-57.9
X127.0Y-59.5
X127.5Y-37.5
X127.5Y-39.1
X127.5Y-40.7
X127.5Y-42.3
X127.5Y-43.9
X127.5Y-45.5
X127.5Y-47.1
X127.5Y-50.7
X127.5Y-52.3
X127.5Y-53.9
X127.5Y-55.5
X127.5Y-57.1
X127.5Y-58.7
X128.0Y-38.3
X128.0Y-39.9
X128.0Y-41.5
X128.0Y-43.1
X128.0Y-44.7
X128.0Y-46.3
X128.0Y-51.5
X128.0Y-53.1
X128.0Y-54.7
X128.0Y-56.3
X128.0Y-57.9
X128.0Y-59.5
X131.8Y-47.7
X132.0Y-63.0
X132.0Y-64.0
X132.0Y-65.0
X132.0Y-66.0
X132.0Y-67.0
X132.0Y-68.0
X132.0Y-69.0
X132.0Y-70.0
X132.0Y-71.0
X132.0Y-72.0
X132.0Y-73.0
X133.0Y-63.0
X133.0Y-64.0
X133.0Y-65.0
X133.0Y-66.0
X133.0Y-67.0
X133.0Y-68.0
X133.0Y-69.0
X133.0Y-70.0
X133.0Y-71.0
X133.0Y-72.0
X133.0Y-73.0
X133.1Y-60.8
X134.0Y-63.0
X134.0Y-64.0
X134.0Y-65.0
X134.0Y-66.0
X134.0Y-67.0
X134.0Y-68.0
X134.0Y-69.0
X134.0Y-70.0
X134.0Y-71.0
X134.0Y-72.0
X134.0Y-73.0
X135.0Y-63.0
X135.0Y-64.0
X135.0Y-65.0
X135.0Y-66.0
X135.0Y-67.0
X135.0Y-68.0
X135.0Y-69.0
X135.0Y-70.0
X135.0Y-71.0
X135.0Y-72.0
X135.0Y-73.0
X136.0Y-63.0
X136.0Y-64.0
X136.0Y-65.0
X136.0Y-66.0
X136.0Y-67.0
X136.0Y-68.0
X136.0Y-69.0
X136.0Y-70.0
X136.0Y-71.0
X136.0Y-72.0
X136.0Y-73.0
X137.0Y-63.0
X137.0Y-64.0
X137.0Y-65.0
X137.0Y-66.0
X137.0Y-67.0
X137.0Y-68.0
X137.0Y-69.0
X137.0Y-70.0
X137.0Y-71.0
X137.0Y-72.0
X137.0Y-73.0
X138.0Y-63.0
X138.0Y-64.0
X138.0Y-65.0
X138.0Y-66.0
X138.0Y-67.0
X138.0Y-68.0
X138.0Y-69.0
X138.0Y-70.0
X138.0Y-71.0
X138.0Y-72.0
X138.0Y-73.0
X139.0Y-63.0
X139.0Y-64.0
X139.0Y-65.0
X139.0Y-66.0
X139.0Y-67.0
X139.0Y-68.0
X139.0Y-69.0
X139.0Y-70.0
X139.0Y-71.0
X139.0Y-72.0
X139.0Y-73.0
X139.1Y-37.0
X139.1Y-38.0
X139.1Y-39.0
X139.1Y-40.0
X139.1Y-41.0
X139.1Y-42.0
X139.1Y-43.0
X139.1Y-51.4
X139.1Y-52.4
X139.1Y-53.4
X139.1Y-54.4
X139.1Y-55.4
X139.1Y-56.4
X139.1Y-57.4
X140.0Y-63.0
X140.0Y-64.0
X140.0Y-65.0
X140.0Y-66.0
X140.0Y-67.0
X140.0Y-68.0
X140.0Y-69.0
X140.0Y-70.0
X140.0Y-71.0
X140.0Y-72.0
X140.0Y-73.0
X140.1Y-37.0
X140.1Y-38.0
X140.1Y-39.0
X140.1Y-40.0
X140.1Y-41.0
X140.1Y-42.0
X140.1Y-43.0
X140.1Y-51.4
X140.1Y-52.4
X140.1Y-53.4
X140.1Y-54.4
X140.1Y-55.4
X140.1Y-56.4
X140.1Y-57.4
X141.0Y-63.0
X141.0Y-64.0
X141.0Y-65.0
X141.0Y-66.0
X141.0Y-67.0
X141.0Y-68.0
X141.0Y-69.0
X141.0Y-70.0
X141.0Y-71.0
X141.0Y-72.0
X141.0Y-73.0
X141.1Y-37.0
X141.1Y-38.0
X141.1Y-39.0
X141.1Y-40.0
X141.1Y-41.0
X141.1Y-42.0
X141.1Y-43.0
X141.1Y-51.4
X141.1Y-52.4
X141.1Y-53.4
X141.1Y-54.4
X141.1Y-55.4
X141.1Y-56.4
X141.1Y-57.4
X142.0Y-63.0
X142.0Y-64.0
X142.0Y-65.0
X142.0Y-66.0
X142.0Y-67.0
X142.0Y-68.0
X142.0Y-69.0
X142.0Y-70.0
X142.0Y-71.0
X142.0Y-72.0
X142.0Y-73.0
X142.1Y-37.0
X142.1Y-38.0
X142.1Y-39.0
X142.1Y-40.0
X142.1Y-41.0
X142.1Y-42.0
X142.1Y-43.0
X142.1Y-51.4
X142.1Y-52.4
X142.1Y-53.4
X142.1Y-54.4
X142.1Y-55.4
X142.1Y-56.4
X142.1Y-57.4
X143.0Y-63.0
X143.0Y-64.0
X143.0Y-65.0
X143.0Y-66.0
X143.0Y-67.0
X143.0Y-68.0
X143.0Y-69.0
X143.0Y-70.0
X143.0Y-71.0
X143.0Y-72.0
X143.0Y-73.0
X143.1Y-37.0
X143.1Y-38.0
X143.1Y-39.0
X143.1Y-40.0
X143.1Y-41.0
X143.1Y-42.0
X143.1Y-43.0
X143.1Y-51.4
X143.1Y-52.4
X143.1Y-53.4
X143.1Y-54.4
X143.1Y-55.4
X143.1Y-56.4
X143.1Y-57.4
X144.0Y-63.0
X144.0Y-64.0
X144.0Y-65.0
X144.0Y-66.0
X144.0Y-67.0
X144.0Y-68.0
X144.0Y-69.0
X144.0Y-70.0
X144.0Y-71.0
X144.0Y-72.0
X144.0Y-73.0
X144.1Y-37.0
X144.1Y-38.0
X144.1Y-39.0
X144.1Y-40.0
X144.1Y-41.0
X144.1Y-42.0
X144.1Y-43.0
X144.1Y-51.4
X144.1Y-52.4
X144.1Y-53.4
X144.1Y-54.4
X144.1Y-55.4
X144.1Y-56.4
X144.1Y-57.4
X145.0Y-63.0
X145.0Y-64.0
X145.0Y-65.0
X145.0Y-66.0
X145.0Y-67.0
X145.0Y-68.0
X145.0Y-69.0
X145.0Y-70.0
X145.0Y-71.0
X145.0Y-72.0
X145.0Y-73.0
X145.1Y-37.0
X145.1Y-38.0
X145.1Y-39.0
X145.1Y-40.0
X145.1Y-41.0
X145.1Y-42.0
X145.1Y-43.0
X145.1Y-51.4
X145.1Y-52.4
X145.1Y-53.4
X145.1Y-54.4
X145.1Y-55.4
X145.1Y-56.4
X145.1Y-57.4
X146.0Y-63.0
X146.0Y-64.0
X146.0Y-65.0
X146.0Y-66.0
X146.0Y-67.0
X146.0Y-68.0
X146.0Y-69.0
X146.0Y-70.0
X146.0Y-71.0
X146.0Y-72.0
X146.0Y-73.0
X146.1Y-37.0
X146.1Y-38.0
X146.1Y-39.0
X146.1Y-40.0
X146.1Y-41.0
X146.1Y-42.0
X146.1Y-43.0
X146.1Y-51.4
X146.1Y-52.4
X146.1Y-53.4
X146.1Y-54.4
X146.1Y-55.4
X146.1Y-56.4
X146.1Y-57.4
T2
X91.9Y-58.8
X94.4Y-58.8
X96.9Y-58.8
X99.4Y-58.8
T3
X80.28Y-42.966
X110.28Y-42.966
T0
M30
