G04 #@! TF.GenerationSoftware,KiCad,Pcbnew,(5.1.2)-1*
G04 #@! TF.CreationDate,2019-09-10T22:08:43+02:00*
G04 #@! TF.ProjectId,Anti-Spark,416e7469-2d53-4706-9172-6b2e6b696361,rev?*
G04 #@! TF.SameCoordinates,Original*
G04 #@! TF.FileFunction,Legend,Top*
G04 #@! TF.FilePolarity,Positive*
%FSLAX46Y46*%
G04 Gerber Fmt 4.6, Leading zero omitted, Abs format (unit mm)*
G04 Created by KiCad (PCBNEW (5.1.2)-1) date 2019-09-10 22:08:43*
%MOMM*%
%LPD*%
G04 APERTURE LIST*
%ADD10C,0.150000*%
%ADD11C,0.125000*%
%ADD12C,0.200000*%
%ADD13C,0.120000*%
%ADD14C,0.254000*%
G04 APERTURE END LIST*
D10*
X74890476Y-59941666D02*
X75366666Y-59941666D01*
X74795238Y-60227380D02*
X75128571Y-59227380D01*
X75461904Y-60227380D01*
X75795238Y-59560714D02*
X75795238Y-60227380D01*
X75795238Y-59655952D02*
X75842857Y-59608333D01*
X75938095Y-59560714D01*
X76080952Y-59560714D01*
X76176190Y-59608333D01*
X76223809Y-59703571D01*
X76223809Y-60227380D01*
X76557142Y-59560714D02*
X76938095Y-59560714D01*
X76700000Y-59227380D02*
X76700000Y-60084523D01*
X76747619Y-60179761D01*
X76842857Y-60227380D01*
X76938095Y-60227380D01*
X77271428Y-60227380D02*
X77271428Y-59560714D01*
X77271428Y-59227380D02*
X77223809Y-59275000D01*
X77271428Y-59322619D01*
X77319047Y-59275000D01*
X77271428Y-59227380D01*
X77271428Y-59322619D01*
X77700000Y-60179761D02*
X77842857Y-60227380D01*
X78080952Y-60227380D01*
X78176190Y-60179761D01*
X78223809Y-60132142D01*
X78271428Y-60036904D01*
X78271428Y-59941666D01*
X78223809Y-59846428D01*
X78176190Y-59798809D01*
X78080952Y-59751190D01*
X77890476Y-59703571D01*
X77795238Y-59655952D01*
X77747619Y-59608333D01*
X77700000Y-59513095D01*
X77700000Y-59417857D01*
X77747619Y-59322619D01*
X77795238Y-59275000D01*
X77890476Y-59227380D01*
X78128571Y-59227380D01*
X78271428Y-59275000D01*
X78700000Y-59560714D02*
X78700000Y-60560714D01*
X78700000Y-59608333D02*
X78795238Y-59560714D01*
X78985714Y-59560714D01*
X79080952Y-59608333D01*
X79128571Y-59655952D01*
X79176190Y-59751190D01*
X79176190Y-60036904D01*
X79128571Y-60132142D01*
X79080952Y-60179761D01*
X78985714Y-60227380D01*
X78795238Y-60227380D01*
X78700000Y-60179761D01*
X80033333Y-60227380D02*
X80033333Y-59703571D01*
X79985714Y-59608333D01*
X79890476Y-59560714D01*
X79700000Y-59560714D01*
X79604761Y-59608333D01*
X80033333Y-60179761D02*
X79938095Y-60227380D01*
X79700000Y-60227380D01*
X79604761Y-60179761D01*
X79557142Y-60084523D01*
X79557142Y-59989285D01*
X79604761Y-59894047D01*
X79700000Y-59846428D01*
X79938095Y-59846428D01*
X80033333Y-59798809D01*
X80509523Y-60227380D02*
X80509523Y-59560714D01*
X80509523Y-59751190D02*
X80557142Y-59655952D01*
X80604761Y-59608333D01*
X80700000Y-59560714D01*
X80795238Y-59560714D01*
X81128571Y-60227380D02*
X81128571Y-59227380D01*
X81223809Y-59846428D02*
X81509523Y-60227380D01*
X81509523Y-59560714D02*
X81128571Y-59941666D01*
X82557142Y-59227380D02*
X82890476Y-60227380D01*
X83223809Y-59227380D01*
X83747619Y-59227380D02*
X83842857Y-59227380D01*
X83938095Y-59275000D01*
X83985714Y-59322619D01*
X84033333Y-59417857D01*
X84080952Y-59608333D01*
X84080952Y-59846428D01*
X84033333Y-60036904D01*
X83985714Y-60132142D01*
X83938095Y-60179761D01*
X83842857Y-60227380D01*
X83747619Y-60227380D01*
X83652380Y-60179761D01*
X83604761Y-60132142D01*
X83557142Y-60036904D01*
X83509523Y-59846428D01*
X83509523Y-59608333D01*
X83557142Y-59417857D01*
X83604761Y-59322619D01*
X83652380Y-59275000D01*
X83747619Y-59227380D01*
X84509523Y-60132142D02*
X84557142Y-60179761D01*
X84509523Y-60227380D01*
X84461904Y-60179761D01*
X84509523Y-60132142D01*
X84509523Y-60227380D01*
X85509523Y-60227380D02*
X84938095Y-60227380D01*
X85223809Y-60227380D02*
X85223809Y-59227380D01*
X85128571Y-59370238D01*
X85033333Y-59465476D01*
X84938095Y-59513095D01*
X77295238Y-60877380D02*
X77390476Y-60877380D01*
X77485714Y-60925000D01*
X77533333Y-60972619D01*
X77580952Y-61067857D01*
X77628571Y-61258333D01*
X77628571Y-61496428D01*
X77580952Y-61686904D01*
X77533333Y-61782142D01*
X77485714Y-61829761D01*
X77390476Y-61877380D01*
X77295238Y-61877380D01*
X77200000Y-61829761D01*
X77152380Y-61782142D01*
X77104761Y-61686904D01*
X77057142Y-61496428D01*
X77057142Y-61258333D01*
X77104761Y-61067857D01*
X77152380Y-60972619D01*
X77200000Y-60925000D01*
X77295238Y-60877380D01*
X78104761Y-61877380D02*
X78295238Y-61877380D01*
X78390476Y-61829761D01*
X78438095Y-61782142D01*
X78533333Y-61639285D01*
X78580952Y-61448809D01*
X78580952Y-61067857D01*
X78533333Y-60972619D01*
X78485714Y-60925000D01*
X78390476Y-60877380D01*
X78200000Y-60877380D01*
X78104761Y-60925000D01*
X78057142Y-60972619D01*
X78009523Y-61067857D01*
X78009523Y-61305952D01*
X78057142Y-61401190D01*
X78104761Y-61448809D01*
X78200000Y-61496428D01*
X78390476Y-61496428D01*
X78485714Y-61448809D01*
X78533333Y-61401190D01*
X78580952Y-61305952D01*
X79009523Y-61782142D02*
X79057142Y-61829761D01*
X79009523Y-61877380D01*
X78961904Y-61829761D01*
X79009523Y-61782142D01*
X79009523Y-61877380D01*
X79676190Y-60877380D02*
X79771428Y-60877380D01*
X79866666Y-60925000D01*
X79914285Y-60972619D01*
X79961904Y-61067857D01*
X80009523Y-61258333D01*
X80009523Y-61496428D01*
X79961904Y-61686904D01*
X79914285Y-61782142D01*
X79866666Y-61829761D01*
X79771428Y-61877380D01*
X79676190Y-61877380D01*
X79580952Y-61829761D01*
X79533333Y-61782142D01*
X79485714Y-61686904D01*
X79438095Y-61496428D01*
X79438095Y-61258333D01*
X79485714Y-61067857D01*
X79533333Y-60972619D01*
X79580952Y-60925000D01*
X79676190Y-60877380D01*
X80485714Y-61877380D02*
X80676190Y-61877380D01*
X80771428Y-61829761D01*
X80819047Y-61782142D01*
X80914285Y-61639285D01*
X80961904Y-61448809D01*
X80961904Y-61067857D01*
X80914285Y-60972619D01*
X80866666Y-60925000D01*
X80771428Y-60877380D01*
X80580952Y-60877380D01*
X80485714Y-60925000D01*
X80438095Y-60972619D01*
X80390476Y-61067857D01*
X80390476Y-61305952D01*
X80438095Y-61401190D01*
X80485714Y-61448809D01*
X80580952Y-61496428D01*
X80771428Y-61496428D01*
X80866666Y-61448809D01*
X80914285Y-61401190D01*
X80961904Y-61305952D01*
X81390476Y-61782142D02*
X81438095Y-61829761D01*
X81390476Y-61877380D01*
X81342857Y-61829761D01*
X81390476Y-61782142D01*
X81390476Y-61877380D01*
X82390476Y-61877380D02*
X81819047Y-61877380D01*
X82104761Y-61877380D02*
X82104761Y-60877380D01*
X82009523Y-61020238D01*
X81914285Y-61115476D01*
X81819047Y-61163095D01*
X82866666Y-61877380D02*
X83057142Y-61877380D01*
X83152380Y-61829761D01*
X83200000Y-61782142D01*
X83295238Y-61639285D01*
X83342857Y-61448809D01*
X83342857Y-61067857D01*
X83295238Y-60972619D01*
X83247619Y-60925000D01*
X83152380Y-60877380D01*
X82961904Y-60877380D01*
X82866666Y-60925000D01*
X82819047Y-60972619D01*
X82771428Y-61067857D01*
X82771428Y-61305952D01*
X82819047Y-61401190D01*
X82866666Y-61448809D01*
X82961904Y-61496428D01*
X83152380Y-61496428D01*
X83247619Y-61448809D01*
X83295238Y-61401190D01*
X83342857Y-61305952D01*
D11*
X98761904Y-62002380D02*
X98833333Y-62026190D01*
X98952380Y-62026190D01*
X99000000Y-62002380D01*
X99023809Y-61978571D01*
X99047619Y-61930952D01*
X99047619Y-61883333D01*
X99023809Y-61835714D01*
X99000000Y-61811904D01*
X98952380Y-61788095D01*
X98857142Y-61764285D01*
X98809523Y-61740476D01*
X98785714Y-61716666D01*
X98761904Y-61669047D01*
X98761904Y-61621428D01*
X98785714Y-61573809D01*
X98809523Y-61550000D01*
X98857142Y-61526190D01*
X98976190Y-61526190D01*
X99047619Y-61550000D01*
X99214285Y-61526190D02*
X99333333Y-62026190D01*
X99428571Y-61669047D01*
X99523809Y-62026190D01*
X99642857Y-61526190D01*
X99833333Y-61835714D02*
X100214285Y-61835714D01*
X96619047Y-61550000D02*
X96571428Y-61526190D01*
X96500000Y-61526190D01*
X96428571Y-61550000D01*
X96380952Y-61597619D01*
X96357142Y-61645238D01*
X96333333Y-61740476D01*
X96333333Y-61811904D01*
X96357142Y-61907142D01*
X96380952Y-61954761D01*
X96428571Y-62002380D01*
X96500000Y-62026190D01*
X96547619Y-62026190D01*
X96619047Y-62002380D01*
X96642857Y-61978571D01*
X96642857Y-61811904D01*
X96547619Y-61811904D01*
X96857142Y-62026190D02*
X96857142Y-61526190D01*
X97142857Y-62026190D01*
X97142857Y-61526190D01*
X97380952Y-62026190D02*
X97380952Y-61526190D01*
X97500000Y-61526190D01*
X97571428Y-61550000D01*
X97619047Y-61597619D01*
X97642857Y-61645238D01*
X97666666Y-61740476D01*
X97666666Y-61811904D01*
X97642857Y-61907142D01*
X97619047Y-61954761D01*
X97571428Y-62002380D01*
X97500000Y-62026190D01*
X97380952Y-62026190D01*
X94190476Y-62026190D02*
X93904761Y-62026190D01*
X94047619Y-62026190D02*
X94047619Y-61526190D01*
X94000000Y-61597619D01*
X93952380Y-61645238D01*
X93904761Y-61669047D01*
X94380952Y-61573809D02*
X94404761Y-61550000D01*
X94452380Y-61526190D01*
X94571428Y-61526190D01*
X94619047Y-61550000D01*
X94642857Y-61573809D01*
X94666666Y-61621428D01*
X94666666Y-61669047D01*
X94642857Y-61740476D01*
X94357142Y-62026190D01*
X94666666Y-62026190D01*
X94809523Y-61526190D02*
X94976190Y-62026190D01*
X95142857Y-61526190D01*
X91161904Y-62002380D02*
X91233333Y-62026190D01*
X91352380Y-62026190D01*
X91400000Y-62002380D01*
X91423809Y-61978571D01*
X91447619Y-61930952D01*
X91447619Y-61883333D01*
X91423809Y-61835714D01*
X91400000Y-61811904D01*
X91352380Y-61788095D01*
X91257142Y-61764285D01*
X91209523Y-61740476D01*
X91185714Y-61716666D01*
X91161904Y-61669047D01*
X91161904Y-61621428D01*
X91185714Y-61573809D01*
X91209523Y-61550000D01*
X91257142Y-61526190D01*
X91376190Y-61526190D01*
X91447619Y-61550000D01*
X91614285Y-61526190D02*
X91733333Y-62026190D01*
X91828571Y-61669047D01*
X91923809Y-62026190D01*
X92042857Y-61526190D01*
X92233333Y-61835714D02*
X92614285Y-61835714D01*
X92423809Y-62026190D02*
X92423809Y-61645238D01*
D12*
X135626200Y-45953000D02*
G75*
G03X135626200Y-45953000I-42200J0D01*
G01*
X134200000Y-41500000D02*
X129200000Y-41500000D01*
X129200000Y-46500000D02*
X134200000Y-46500000D01*
X135626200Y-51053000D02*
G75*
G03X135626200Y-51053000I-42200J0D01*
G01*
X134200000Y-46600000D02*
X129200000Y-46600000D01*
X129200000Y-51600000D02*
X134200000Y-51600000D01*
X135626200Y-56153000D02*
G75*
G03X135626200Y-56153000I-42200J0D01*
G01*
X134200000Y-51700000D02*
X129200000Y-51700000D01*
X129200000Y-56700000D02*
X134200000Y-56700000D01*
X135626200Y-61253000D02*
G75*
G03X135626200Y-61253000I-42200J0D01*
G01*
X134200000Y-56800000D02*
X129200000Y-56800000D01*
X129200000Y-61800000D02*
X134200000Y-61800000D01*
X135626200Y-40853000D02*
G75*
G03X135626200Y-40853000I-42200J0D01*
G01*
X134200000Y-36400000D02*
X129200000Y-36400000D01*
X129200000Y-41400000D02*
X134200000Y-41400000D01*
X88400000Y-50650000D02*
X89800000Y-50650000D01*
D13*
X102250000Y-61550000D02*
X102250000Y-60300000D01*
X101000000Y-61550000D02*
X102250000Y-61550000D01*
X90100000Y-56050000D02*
X95650000Y-56050000D01*
X90100000Y-59000000D02*
X90100000Y-56050000D01*
X89350000Y-59000000D02*
X90100000Y-59000000D01*
X101200000Y-56050000D02*
X95650000Y-56050000D01*
X101200000Y-59000000D02*
X101200000Y-56050000D01*
X101950000Y-59000000D02*
X101200000Y-59000000D01*
X89350000Y-61250000D02*
X91150000Y-61250000D01*
X89350000Y-60500000D02*
X89350000Y-61250000D01*
X91150000Y-60500000D02*
X89350000Y-60500000D01*
X91150000Y-61250000D02*
X91150000Y-60500000D01*
X100150000Y-61250000D02*
X101950000Y-61250000D01*
X100150000Y-60500000D02*
X100150000Y-61250000D01*
X101950000Y-60500000D02*
X100150000Y-60500000D01*
X101950000Y-61250000D02*
X101950000Y-60500000D01*
X92650000Y-61250000D02*
X98650000Y-61250000D01*
X92650000Y-60500000D02*
X92650000Y-61250000D01*
X98650000Y-60500000D02*
X92650000Y-60500000D01*
X98650000Y-61250000D02*
X98650000Y-60500000D01*
X89340000Y-61260000D02*
X101960000Y-61260000D01*
X89340000Y-55290000D02*
X89340000Y-61260000D01*
X101960000Y-55290000D02*
X89340000Y-55290000D01*
X101960000Y-61260000D02*
X101960000Y-55290000D01*
X95280000Y-36966000D02*
X103280000Y-36966000D01*
X103280000Y-36966000D02*
X103280000Y-48966000D01*
X103280000Y-48966000D02*
X87280000Y-48966000D01*
X87280000Y-48966000D02*
X87280000Y-36966000D01*
X87280000Y-36966000D02*
X95280000Y-36966000D01*
X101280000Y-36966000D02*
X101280000Y-48966000D01*
X101280000Y-48966000D02*
X100280000Y-48966000D01*
X100280000Y-48966000D02*
X100280000Y-36966000D01*
X100280000Y-36966000D02*
X89280000Y-36966000D01*
X89280000Y-36966000D02*
X89280000Y-48966000D01*
X89280000Y-48966000D02*
X90280000Y-48966000D01*
X90280000Y-48966000D02*
X90280000Y-36966000D01*
X80280000Y-49466000D02*
X80280000Y-51066000D01*
X110280000Y-49466000D02*
X110280000Y-51266000D01*
X100138748Y-52490000D02*
X100661252Y-52490000D01*
X100138748Y-53910000D02*
X100661252Y-53910000D01*
X96263748Y-50590000D02*
X96786252Y-50590000D01*
X96263748Y-52010000D02*
X96786252Y-52010000D01*
X100686252Y-52010000D02*
X100163748Y-52010000D01*
X100686252Y-50590000D02*
X100163748Y-50590000D01*
X96313748Y-52490000D02*
X96836252Y-52490000D01*
X96313748Y-53910000D02*
X96836252Y-53910000D01*
D12*
X109288000Y-55333000D02*
X105588000Y-55333000D01*
X105588000Y-55333000D02*
X105588000Y-50333000D01*
X105588000Y-50333000D02*
X109288000Y-50333000D01*
X109288000Y-50333000D02*
X109288000Y-55333000D01*
X111113000Y-55683000D02*
X109638000Y-55683000D01*
D13*
X104738748Y-56290000D02*
X105261252Y-56290000D01*
X104738748Y-57710000D02*
X105261252Y-57710000D01*
X112290000Y-54263748D02*
X112290000Y-54786252D01*
X113710000Y-54263748D02*
X113710000Y-54786252D01*
X115736252Y-59710000D02*
X115213748Y-59710000D01*
X115736252Y-58290000D02*
X115213748Y-58290000D01*
X115150000Y-57400000D02*
X116850000Y-57400000D01*
X116850000Y-57400000D02*
X116850000Y-54250000D01*
X115150000Y-57400000D02*
X115150000Y-54250000D01*
X114261252Y-51710000D02*
X113738748Y-51710000D01*
X114261252Y-50290000D02*
X113738748Y-50290000D01*
X105286252Y-58790000D02*
X104763748Y-58790000D01*
X105286252Y-60210000D02*
X104763748Y-60210000D01*
X108713748Y-56258000D02*
X109236252Y-56258000D01*
X108713748Y-57678000D02*
X109236252Y-57678000D01*
X111790000Y-58263748D02*
X111790000Y-58786252D01*
X113210000Y-58263748D02*
X113210000Y-58786252D01*
D10*
X107142380Y-62033333D02*
X106666190Y-62366666D01*
X107142380Y-62604761D02*
X106142380Y-62604761D01*
X106142380Y-62223809D01*
X106190000Y-62128571D01*
X106237619Y-62080952D01*
X106332857Y-62033333D01*
X106475714Y-62033333D01*
X106570952Y-62080952D01*
X106618571Y-62128571D01*
X106666190Y-62223809D01*
X106666190Y-62604761D01*
X106618571Y-61604761D02*
X106618571Y-61271428D01*
X107142380Y-61128571D02*
X107142380Y-61604761D01*
X106142380Y-61604761D01*
X106142380Y-61128571D01*
X106618571Y-60366666D02*
X106618571Y-60700000D01*
X107142380Y-60700000D02*
X106142380Y-60700000D01*
X106142380Y-60223809D01*
X106142380Y-59700000D02*
X106380476Y-59700000D01*
X106285238Y-59938095D02*
X106380476Y-59700000D01*
X106285238Y-59461904D01*
X106570952Y-59842857D02*
X106380476Y-59700000D01*
X106570952Y-59557142D01*
X106142380Y-58938095D02*
X106380476Y-58938095D01*
X106285238Y-59176190D02*
X106380476Y-58938095D01*
X106285238Y-58700000D01*
X106570952Y-59080952D02*
X106380476Y-58938095D01*
X106570952Y-58795238D01*
D14*
X134027476Y-44523952D02*
X133967000Y-44644904D01*
X133846047Y-44765857D01*
X133664619Y-44947285D01*
X133604142Y-45068238D01*
X133604142Y-45189190D01*
X133906523Y-45128714D02*
X133846047Y-45249666D01*
X133725095Y-45370619D01*
X133483190Y-45431095D01*
X133059857Y-45431095D01*
X132817952Y-45370619D01*
X132697000Y-45249666D01*
X132636523Y-45128714D01*
X132636523Y-44886809D01*
X132697000Y-44765857D01*
X132817952Y-44644904D01*
X133059857Y-44584428D01*
X133483190Y-44584428D01*
X133725095Y-44644904D01*
X133846047Y-44765857D01*
X133906523Y-44886809D01*
X133906523Y-45128714D01*
X132636523Y-43435380D02*
X132636523Y-44040142D01*
X133241285Y-44100619D01*
X133180809Y-44040142D01*
X133120333Y-43919190D01*
X133120333Y-43616809D01*
X133180809Y-43495857D01*
X133241285Y-43435380D01*
X133362238Y-43374904D01*
X133664619Y-43374904D01*
X133785571Y-43435380D01*
X133846047Y-43495857D01*
X133906523Y-43616809D01*
X133906523Y-43919190D01*
X133846047Y-44040142D01*
X133785571Y-44100619D01*
X134027476Y-49623952D02*
X133967000Y-49744904D01*
X133846047Y-49865857D01*
X133664619Y-50047285D01*
X133604142Y-50168238D01*
X133604142Y-50289190D01*
X133906523Y-50228714D02*
X133846047Y-50349666D01*
X133725095Y-50470619D01*
X133483190Y-50531095D01*
X133059857Y-50531095D01*
X132817952Y-50470619D01*
X132697000Y-50349666D01*
X132636523Y-50228714D01*
X132636523Y-49986809D01*
X132697000Y-49865857D01*
X132817952Y-49744904D01*
X133059857Y-49684428D01*
X133483190Y-49684428D01*
X133725095Y-49744904D01*
X133846047Y-49865857D01*
X133906523Y-49986809D01*
X133906523Y-50228714D01*
X133059857Y-48595857D02*
X133906523Y-48595857D01*
X132576047Y-48898238D02*
X133483190Y-49200619D01*
X133483190Y-48414428D01*
X134027476Y-54723952D02*
X133967000Y-54844904D01*
X133846047Y-54965857D01*
X133664619Y-55147285D01*
X133604142Y-55268238D01*
X133604142Y-55389190D01*
X133906523Y-55328714D02*
X133846047Y-55449666D01*
X133725095Y-55570619D01*
X133483190Y-55631095D01*
X133059857Y-55631095D01*
X132817952Y-55570619D01*
X132697000Y-55449666D01*
X132636523Y-55328714D01*
X132636523Y-55086809D01*
X132697000Y-54965857D01*
X132817952Y-54844904D01*
X133059857Y-54784428D01*
X133483190Y-54784428D01*
X133725095Y-54844904D01*
X133846047Y-54965857D01*
X133906523Y-55086809D01*
X133906523Y-55328714D01*
X132636523Y-54361095D02*
X132636523Y-53574904D01*
X133120333Y-53998238D01*
X133120333Y-53816809D01*
X133180809Y-53695857D01*
X133241285Y-53635380D01*
X133362238Y-53574904D01*
X133664619Y-53574904D01*
X133785571Y-53635380D01*
X133846047Y-53695857D01*
X133906523Y-53816809D01*
X133906523Y-54179666D01*
X133846047Y-54300619D01*
X133785571Y-54361095D01*
X134027476Y-59823952D02*
X133967000Y-59944904D01*
X133846047Y-60065857D01*
X133664619Y-60247285D01*
X133604142Y-60368238D01*
X133604142Y-60489190D01*
X133906523Y-60428714D02*
X133846047Y-60549666D01*
X133725095Y-60670619D01*
X133483190Y-60731095D01*
X133059857Y-60731095D01*
X132817952Y-60670619D01*
X132697000Y-60549666D01*
X132636523Y-60428714D01*
X132636523Y-60186809D01*
X132697000Y-60065857D01*
X132817952Y-59944904D01*
X133059857Y-59884428D01*
X133483190Y-59884428D01*
X133725095Y-59944904D01*
X133846047Y-60065857D01*
X133906523Y-60186809D01*
X133906523Y-60428714D01*
X132757476Y-59400619D02*
X132697000Y-59340142D01*
X132636523Y-59219190D01*
X132636523Y-58916809D01*
X132697000Y-58795857D01*
X132757476Y-58735380D01*
X132878428Y-58674904D01*
X132999380Y-58674904D01*
X133180809Y-58735380D01*
X133906523Y-59461095D01*
X133906523Y-58674904D01*
X134027476Y-39423952D02*
X133967000Y-39544904D01*
X133846047Y-39665857D01*
X133664619Y-39847285D01*
X133604142Y-39968238D01*
X133604142Y-40089190D01*
X133906523Y-40028714D02*
X133846047Y-40149666D01*
X133725095Y-40270619D01*
X133483190Y-40331095D01*
X133059857Y-40331095D01*
X132817952Y-40270619D01*
X132697000Y-40149666D01*
X132636523Y-40028714D01*
X132636523Y-39786809D01*
X132697000Y-39665857D01*
X132817952Y-39544904D01*
X133059857Y-39484428D01*
X133483190Y-39484428D01*
X133725095Y-39544904D01*
X133846047Y-39665857D01*
X133906523Y-39786809D01*
X133906523Y-40028714D01*
X133906523Y-38274904D02*
X133906523Y-39000619D01*
X133906523Y-38637761D02*
X132636523Y-38637761D01*
X132817952Y-38758714D01*
X132938904Y-38879666D01*
X132999380Y-39000619D01*
X90060238Y-52774523D02*
X90060238Y-51504523D01*
X91390714Y-52653571D02*
X91330238Y-52714047D01*
X91148809Y-52774523D01*
X91027857Y-52774523D01*
X90846428Y-52714047D01*
X90725476Y-52593095D01*
X90665000Y-52472142D01*
X90604523Y-52230238D01*
X90604523Y-52048809D01*
X90665000Y-51806904D01*
X90725476Y-51685952D01*
X90846428Y-51565000D01*
X91027857Y-51504523D01*
X91148809Y-51504523D01*
X91330238Y-51565000D01*
X91390714Y-51625476D01*
X91874523Y-51625476D02*
X91935000Y-51565000D01*
X92055952Y-51504523D01*
X92358333Y-51504523D01*
X92479285Y-51565000D01*
X92539761Y-51625476D01*
X92600238Y-51746428D01*
X92600238Y-51867380D01*
X92539761Y-52048809D01*
X91814047Y-52774523D01*
X92600238Y-52774523D01*
D10*
X87566666Y-60452380D02*
X87566666Y-61166666D01*
X87519047Y-61309523D01*
X87423809Y-61404761D01*
X87280952Y-61452380D01*
X87185714Y-61452380D01*
X88566666Y-61452380D02*
X87995238Y-61452380D01*
X88280952Y-61452380D02*
X88280952Y-60452380D01*
X88185714Y-60595238D01*
X88090476Y-60690476D01*
X87995238Y-60738095D01*
X95146666Y-41754571D02*
X94813333Y-41754571D01*
X94813333Y-42278380D02*
X94813333Y-41278380D01*
X95289523Y-41278380D01*
X96194285Y-42278380D02*
X95622857Y-42278380D01*
X95908571Y-42278380D02*
X95908571Y-41278380D01*
X95813333Y-41421238D01*
X95718095Y-41516476D01*
X95622857Y-41564095D01*
X103257142Y-51366666D02*
X103304761Y-51414285D01*
X103352380Y-51557142D01*
X103352380Y-51652380D01*
X103304761Y-51795238D01*
X103209523Y-51890476D01*
X103114285Y-51938095D01*
X102923809Y-51985714D01*
X102780952Y-51985714D01*
X102590476Y-51938095D01*
X102495238Y-51890476D01*
X102400000Y-51795238D01*
X102352380Y-51652380D01*
X102352380Y-51557142D01*
X102400000Y-51414285D01*
X102447619Y-51366666D01*
X102352380Y-50461904D02*
X102352380Y-50938095D01*
X102828571Y-50985714D01*
X102780952Y-50938095D01*
X102733333Y-50842857D01*
X102733333Y-50604761D01*
X102780952Y-50509523D01*
X102828571Y-50461904D01*
X102923809Y-50414285D01*
X103161904Y-50414285D01*
X103257142Y-50461904D01*
X103304761Y-50509523D01*
X103352380Y-50604761D01*
X103352380Y-50842857D01*
X103304761Y-50938095D01*
X103257142Y-50985714D01*
D13*
X93783333Y-50616666D02*
X93550000Y-50283333D01*
X93383333Y-50616666D02*
X93383333Y-49916666D01*
X93650000Y-49916666D01*
X93716666Y-49950000D01*
X93750000Y-49983333D01*
X93783333Y-50050000D01*
X93783333Y-50150000D01*
X93750000Y-50216666D01*
X93716666Y-50250000D01*
X93650000Y-50283333D01*
X93383333Y-50283333D01*
X94383333Y-49916666D02*
X94250000Y-49916666D01*
X94183333Y-49950000D01*
X94150000Y-49983333D01*
X94083333Y-50083333D01*
X94050000Y-50216666D01*
X94050000Y-50483333D01*
X94083333Y-50550000D01*
X94116666Y-50583333D01*
X94183333Y-50616666D01*
X94316666Y-50616666D01*
X94383333Y-50583333D01*
X94416666Y-50550000D01*
X94450000Y-50483333D01*
X94450000Y-50316666D01*
X94416666Y-50250000D01*
X94383333Y-50216666D01*
X94316666Y-50183333D01*
X94183333Y-50183333D01*
X94116666Y-50216666D01*
X94083333Y-50250000D01*
X94050000Y-50316666D01*
D10*
X103352380Y-53366666D02*
X102876190Y-53700000D01*
X103352380Y-53938095D02*
X102352380Y-53938095D01*
X102352380Y-53557142D01*
X102400000Y-53461904D01*
X102447619Y-53414285D01*
X102542857Y-53366666D01*
X102685714Y-53366666D01*
X102780952Y-53414285D01*
X102828571Y-53461904D01*
X102876190Y-53557142D01*
X102876190Y-53938095D01*
X102352380Y-52461904D02*
X102352380Y-52938095D01*
X102828571Y-52985714D01*
X102780952Y-52938095D01*
X102733333Y-52842857D01*
X102733333Y-52604761D01*
X102780952Y-52509523D01*
X102828571Y-52461904D01*
X102923809Y-52414285D01*
X103161904Y-52414285D01*
X103257142Y-52461904D01*
X103304761Y-52509523D01*
X103352380Y-52604761D01*
X103352380Y-52842857D01*
X103304761Y-52938095D01*
X103257142Y-52985714D01*
X96333333Y-55157142D02*
X96285714Y-55204761D01*
X96142857Y-55252380D01*
X96047619Y-55252380D01*
X95904761Y-55204761D01*
X95809523Y-55109523D01*
X95761904Y-55014285D01*
X95714285Y-54823809D01*
X95714285Y-54680952D01*
X95761904Y-54490476D01*
X95809523Y-54395238D01*
X95904761Y-54300000D01*
X96047619Y-54252380D01*
X96142857Y-54252380D01*
X96285714Y-54300000D01*
X96333333Y-54347619D01*
X97190476Y-54585714D02*
X97190476Y-55252380D01*
X96952380Y-54204761D02*
X96714285Y-54919047D01*
X97333333Y-54919047D01*
D14*
X106198238Y-53407523D02*
X106198238Y-52137523D01*
X107528714Y-53286571D02*
X107468238Y-53347047D01*
X107286809Y-53407523D01*
X107165857Y-53407523D01*
X106984428Y-53347047D01*
X106863476Y-53226095D01*
X106803000Y-53105142D01*
X106742523Y-52863238D01*
X106742523Y-52681809D01*
X106803000Y-52439904D01*
X106863476Y-52318952D01*
X106984428Y-52198000D01*
X107165857Y-52137523D01*
X107286809Y-52137523D01*
X107468238Y-52198000D01*
X107528714Y-52258476D01*
X108738238Y-53407523D02*
X108012523Y-53407523D01*
X108375380Y-53407523D02*
X108375380Y-52137523D01*
X108254428Y-52318952D01*
X108133476Y-52439904D01*
X108012523Y-52500380D01*
D10*
X102833333Y-56057142D02*
X102785714Y-56104761D01*
X102642857Y-56152380D01*
X102547619Y-56152380D01*
X102404761Y-56104761D01*
X102309523Y-56009523D01*
X102261904Y-55914285D01*
X102214285Y-55723809D01*
X102214285Y-55580952D01*
X102261904Y-55390476D01*
X102309523Y-55295238D01*
X102404761Y-55200000D01*
X102547619Y-55152380D01*
X102642857Y-55152380D01*
X102785714Y-55200000D01*
X102833333Y-55247619D01*
X103785714Y-56152380D02*
X103214285Y-56152380D01*
X103500000Y-56152380D02*
X103500000Y-55152380D01*
X103404761Y-55295238D01*
X103309523Y-55390476D01*
X103214285Y-55438095D01*
X114857142Y-54766666D02*
X114904761Y-54814285D01*
X114952380Y-54957142D01*
X114952380Y-55052380D01*
X114904761Y-55195238D01*
X114809523Y-55290476D01*
X114714285Y-55338095D01*
X114523809Y-55385714D01*
X114380952Y-55385714D01*
X114190476Y-55338095D01*
X114095238Y-55290476D01*
X114000000Y-55195238D01*
X113952380Y-55052380D01*
X113952380Y-54957142D01*
X114000000Y-54814285D01*
X114047619Y-54766666D01*
X114047619Y-54385714D02*
X114000000Y-54338095D01*
X113952380Y-54242857D01*
X113952380Y-54004761D01*
X114000000Y-53909523D01*
X114047619Y-53861904D01*
X114142857Y-53814285D01*
X114238095Y-53814285D01*
X114380952Y-53861904D01*
X114952380Y-54433333D01*
X114952380Y-53814285D01*
X115308333Y-61007142D02*
X115260714Y-61054761D01*
X115117857Y-61102380D01*
X115022619Y-61102380D01*
X114879761Y-61054761D01*
X114784523Y-60959523D01*
X114736904Y-60864285D01*
X114689285Y-60673809D01*
X114689285Y-60530952D01*
X114736904Y-60340476D01*
X114784523Y-60245238D01*
X114879761Y-60150000D01*
X115022619Y-60102380D01*
X115117857Y-60102380D01*
X115260714Y-60150000D01*
X115308333Y-60197619D01*
X115641666Y-60102380D02*
X116260714Y-60102380D01*
X115927380Y-60483333D01*
X116070238Y-60483333D01*
X116165476Y-60530952D01*
X116213095Y-60578571D01*
X116260714Y-60673809D01*
X116260714Y-60911904D01*
X116213095Y-61007142D01*
X116165476Y-61054761D01*
X116070238Y-61102380D01*
X115784523Y-61102380D01*
X115689285Y-61054761D01*
X115641666Y-61007142D01*
X118152380Y-56138095D02*
X117152380Y-56138095D01*
X117152380Y-55900000D01*
X117200000Y-55757142D01*
X117295238Y-55661904D01*
X117390476Y-55614285D01*
X117580952Y-55566666D01*
X117723809Y-55566666D01*
X117914285Y-55614285D01*
X118009523Y-55661904D01*
X118104761Y-55757142D01*
X118152380Y-55900000D01*
X118152380Y-56138095D01*
X118152380Y-54614285D02*
X118152380Y-55185714D01*
X118152380Y-54900000D02*
X117152380Y-54900000D01*
X117295238Y-54995238D01*
X117390476Y-55090476D01*
X117438095Y-55185714D01*
X116633333Y-51452380D02*
X116300000Y-50976190D01*
X116061904Y-51452380D02*
X116061904Y-50452380D01*
X116442857Y-50452380D01*
X116538095Y-50500000D01*
X116585714Y-50547619D01*
X116633333Y-50642857D01*
X116633333Y-50785714D01*
X116585714Y-50880952D01*
X116538095Y-50928571D01*
X116442857Y-50976190D01*
X116061904Y-50976190D01*
X117585714Y-51452380D02*
X117014285Y-51452380D01*
X117300000Y-51452380D02*
X117300000Y-50452380D01*
X117204761Y-50595238D01*
X117109523Y-50690476D01*
X117014285Y-50738095D01*
X104833333Y-61602380D02*
X104500000Y-61126190D01*
X104261904Y-61602380D02*
X104261904Y-60602380D01*
X104642857Y-60602380D01*
X104738095Y-60650000D01*
X104785714Y-60697619D01*
X104833333Y-60792857D01*
X104833333Y-60935714D01*
X104785714Y-61030952D01*
X104738095Y-61078571D01*
X104642857Y-61126190D01*
X104261904Y-61126190D01*
X105214285Y-60697619D02*
X105261904Y-60650000D01*
X105357142Y-60602380D01*
X105595238Y-60602380D01*
X105690476Y-60650000D01*
X105738095Y-60697619D01*
X105785714Y-60792857D01*
X105785714Y-60888095D01*
X105738095Y-61030952D01*
X105166666Y-61602380D01*
X105785714Y-61602380D01*
X108833333Y-58952380D02*
X108500000Y-58476190D01*
X108261904Y-58952380D02*
X108261904Y-57952380D01*
X108642857Y-57952380D01*
X108738095Y-58000000D01*
X108785714Y-58047619D01*
X108833333Y-58142857D01*
X108833333Y-58285714D01*
X108785714Y-58380952D01*
X108738095Y-58428571D01*
X108642857Y-58476190D01*
X108261904Y-58476190D01*
X109166666Y-57952380D02*
X109785714Y-57952380D01*
X109452380Y-58333333D01*
X109595238Y-58333333D01*
X109690476Y-58380952D01*
X109738095Y-58428571D01*
X109785714Y-58523809D01*
X109785714Y-58761904D01*
X109738095Y-58857142D01*
X109690476Y-58904761D01*
X109595238Y-58952380D01*
X109309523Y-58952380D01*
X109214285Y-58904761D01*
X109166666Y-58857142D01*
X113152380Y-61466666D02*
X112676190Y-61800000D01*
X113152380Y-62038095D02*
X112152380Y-62038095D01*
X112152380Y-61657142D01*
X112200000Y-61561904D01*
X112247619Y-61514285D01*
X112342857Y-61466666D01*
X112485714Y-61466666D01*
X112580952Y-61514285D01*
X112628571Y-61561904D01*
X112676190Y-61657142D01*
X112676190Y-62038095D01*
X112485714Y-60609523D02*
X113152380Y-60609523D01*
X112104761Y-60847619D02*
X112819047Y-61085714D01*
X112819047Y-60466666D01*
M02*
