G04 #@! TF.GenerationSoftware,KiCad,Pcbnew,(5.1.2)-1*
G04 #@! TF.CreationDate,2019-09-10T22:08:43+02:00*
G04 #@! TF.ProjectId,Anti-Spark,416e7469-2d53-4706-9172-6b2e6b696361,rev?*
G04 #@! TF.SameCoordinates,Original*
G04 #@! TF.FileFunction,Copper,L1,Top*
G04 #@! TF.FilePolarity,Positive*
%FSLAX46Y46*%
G04 Gerber Fmt 4.6, Leading zero omitted, Abs format (unit mm)*
G04 Created by KiCad (PCBNEW (5.1.2)-1) date 2019-09-10 22:08:43*
%MOMM*%
%LPD*%
G04 APERTURE LIST*
%ADD10R,1.500000X2.500000*%
%ADD11C,7.000000*%
%ADD12R,3.750000X4.700000*%
%ADD13R,1.050000X0.850000*%
%ADD14R,1.450000X0.850000*%
%ADD15R,1.980000X1.880000*%
%ADD16R,1.400000X0.450000*%
%ADD17O,1.700000X1.950000*%
%ADD18C,0.100000*%
%ADD19C,1.700000*%
%ADD20R,13.000000X13.000000*%
%ADD21C,1.150000*%
%ADD22R,1.475000X0.450000*%
%ADD23R,1.000000X1.000000*%
%ADD24C,0.800000*%
%ADD25C,0.250000*%
%ADD26C,0.200000*%
G04 APERTURE END LIST*
D10*
X110500000Y-60700000D03*
D11*
X143300000Y-32000000D03*
X76800000Y-32000000D03*
X76800000Y-79000000D03*
X143300000Y-79000000D03*
D12*
X131150000Y-44000000D03*
D13*
X128750000Y-45925000D03*
X128750000Y-44635000D03*
X128750000Y-43365000D03*
X128750000Y-42075000D03*
D14*
X134450000Y-42095000D03*
X134450000Y-43365000D03*
X134450000Y-44635000D03*
X134450000Y-45905000D03*
D12*
X131150000Y-49100000D03*
D13*
X128750000Y-51025000D03*
X128750000Y-49735000D03*
X128750000Y-48465000D03*
X128750000Y-47175000D03*
D14*
X134450000Y-47195000D03*
X134450000Y-48465000D03*
X134450000Y-49735000D03*
X134450000Y-51005000D03*
D12*
X131150000Y-54200000D03*
D13*
X128750000Y-56125000D03*
X128750000Y-54835000D03*
X128750000Y-53565000D03*
X128750000Y-52275000D03*
D14*
X134450000Y-52295000D03*
X134450000Y-53565000D03*
X134450000Y-54835000D03*
X134450000Y-56105000D03*
D12*
X131150000Y-59300000D03*
D13*
X128750000Y-61225000D03*
X128750000Y-59935000D03*
X128750000Y-58665000D03*
X128750000Y-57375000D03*
D14*
X134450000Y-57395000D03*
X134450000Y-58665000D03*
X134450000Y-59935000D03*
X134450000Y-61205000D03*
D12*
X131150000Y-38900000D03*
D13*
X128750000Y-40825000D03*
X128750000Y-39535000D03*
X128750000Y-38265000D03*
X128750000Y-36975000D03*
D14*
X134450000Y-36995000D03*
X134450000Y-38265000D03*
X134450000Y-39535000D03*
X134450000Y-40805000D03*
D15*
X91300000Y-52200000D03*
D16*
X93500000Y-51225000D03*
X93500000Y-51875000D03*
X93500000Y-52525000D03*
X93500000Y-53175000D03*
X89100000Y-53175000D03*
X89100000Y-52525000D03*
X89100000Y-51875000D03*
X89100000Y-51225000D03*
D17*
X91900000Y-58800000D03*
X94400000Y-58800000D03*
X96900000Y-58800000D03*
D18*
G36*
X100024504Y-57826204D02*
G01*
X100048773Y-57829804D01*
X100072571Y-57835765D01*
X100095671Y-57844030D01*
X100117849Y-57854520D01*
X100138893Y-57867133D01*
X100158598Y-57881747D01*
X100176777Y-57898223D01*
X100193253Y-57916402D01*
X100207867Y-57936107D01*
X100220480Y-57957151D01*
X100230970Y-57979329D01*
X100239235Y-58002429D01*
X100245196Y-58026227D01*
X100248796Y-58050496D01*
X100250000Y-58075000D01*
X100250000Y-59525000D01*
X100248796Y-59549504D01*
X100245196Y-59573773D01*
X100239235Y-59597571D01*
X100230970Y-59620671D01*
X100220480Y-59642849D01*
X100207867Y-59663893D01*
X100193253Y-59683598D01*
X100176777Y-59701777D01*
X100158598Y-59718253D01*
X100138893Y-59732867D01*
X100117849Y-59745480D01*
X100095671Y-59755970D01*
X100072571Y-59764235D01*
X100048773Y-59770196D01*
X100024504Y-59773796D01*
X100000000Y-59775000D01*
X98800000Y-59775000D01*
X98775496Y-59773796D01*
X98751227Y-59770196D01*
X98727429Y-59764235D01*
X98704329Y-59755970D01*
X98682151Y-59745480D01*
X98661107Y-59732867D01*
X98641402Y-59718253D01*
X98623223Y-59701777D01*
X98606747Y-59683598D01*
X98592133Y-59663893D01*
X98579520Y-59642849D01*
X98569030Y-59620671D01*
X98560765Y-59597571D01*
X98554804Y-59573773D01*
X98551204Y-59549504D01*
X98550000Y-59525000D01*
X98550000Y-58075000D01*
X98551204Y-58050496D01*
X98554804Y-58026227D01*
X98560765Y-58002429D01*
X98569030Y-57979329D01*
X98579520Y-57957151D01*
X98592133Y-57936107D01*
X98606747Y-57916402D01*
X98623223Y-57898223D01*
X98641402Y-57881747D01*
X98661107Y-57867133D01*
X98682151Y-57854520D01*
X98704329Y-57844030D01*
X98727429Y-57835765D01*
X98751227Y-57829804D01*
X98775496Y-57826204D01*
X98800000Y-57825000D01*
X100000000Y-57825000D01*
X100024504Y-57826204D01*
X100024504Y-57826204D01*
G37*
D19*
X99400000Y-58800000D03*
D20*
X110280000Y-42966000D03*
X80280000Y-42966000D03*
D18*
G36*
X99724505Y-52501204D02*
G01*
X99748773Y-52504804D01*
X99772572Y-52510765D01*
X99795671Y-52519030D01*
X99817850Y-52529520D01*
X99838893Y-52542132D01*
X99858599Y-52556747D01*
X99876777Y-52573223D01*
X99893253Y-52591401D01*
X99907868Y-52611107D01*
X99920480Y-52632150D01*
X99930970Y-52654329D01*
X99939235Y-52677428D01*
X99945196Y-52701227D01*
X99948796Y-52725495D01*
X99950000Y-52749999D01*
X99950000Y-53650001D01*
X99948796Y-53674505D01*
X99945196Y-53698773D01*
X99939235Y-53722572D01*
X99930970Y-53745671D01*
X99920480Y-53767850D01*
X99907868Y-53788893D01*
X99893253Y-53808599D01*
X99876777Y-53826777D01*
X99858599Y-53843253D01*
X99838893Y-53857868D01*
X99817850Y-53870480D01*
X99795671Y-53880970D01*
X99772572Y-53889235D01*
X99748773Y-53895196D01*
X99724505Y-53898796D01*
X99700001Y-53900000D01*
X99049999Y-53900000D01*
X99025495Y-53898796D01*
X99001227Y-53895196D01*
X98977428Y-53889235D01*
X98954329Y-53880970D01*
X98932150Y-53870480D01*
X98911107Y-53857868D01*
X98891401Y-53843253D01*
X98873223Y-53826777D01*
X98856747Y-53808599D01*
X98842132Y-53788893D01*
X98829520Y-53767850D01*
X98819030Y-53745671D01*
X98810765Y-53722572D01*
X98804804Y-53698773D01*
X98801204Y-53674505D01*
X98800000Y-53650001D01*
X98800000Y-52749999D01*
X98801204Y-52725495D01*
X98804804Y-52701227D01*
X98810765Y-52677428D01*
X98819030Y-52654329D01*
X98829520Y-52632150D01*
X98842132Y-52611107D01*
X98856747Y-52591401D01*
X98873223Y-52573223D01*
X98891401Y-52556747D01*
X98911107Y-52542132D01*
X98932150Y-52529520D01*
X98954329Y-52519030D01*
X98977428Y-52510765D01*
X99001227Y-52504804D01*
X99025495Y-52501204D01*
X99049999Y-52500000D01*
X99700001Y-52500000D01*
X99724505Y-52501204D01*
X99724505Y-52501204D01*
G37*
D21*
X99375000Y-53200000D03*
D18*
G36*
X101774505Y-52501204D02*
G01*
X101798773Y-52504804D01*
X101822572Y-52510765D01*
X101845671Y-52519030D01*
X101867850Y-52529520D01*
X101888893Y-52542132D01*
X101908599Y-52556747D01*
X101926777Y-52573223D01*
X101943253Y-52591401D01*
X101957868Y-52611107D01*
X101970480Y-52632150D01*
X101980970Y-52654329D01*
X101989235Y-52677428D01*
X101995196Y-52701227D01*
X101998796Y-52725495D01*
X102000000Y-52749999D01*
X102000000Y-53650001D01*
X101998796Y-53674505D01*
X101995196Y-53698773D01*
X101989235Y-53722572D01*
X101980970Y-53745671D01*
X101970480Y-53767850D01*
X101957868Y-53788893D01*
X101943253Y-53808599D01*
X101926777Y-53826777D01*
X101908599Y-53843253D01*
X101888893Y-53857868D01*
X101867850Y-53870480D01*
X101845671Y-53880970D01*
X101822572Y-53889235D01*
X101798773Y-53895196D01*
X101774505Y-53898796D01*
X101750001Y-53900000D01*
X101099999Y-53900000D01*
X101075495Y-53898796D01*
X101051227Y-53895196D01*
X101027428Y-53889235D01*
X101004329Y-53880970D01*
X100982150Y-53870480D01*
X100961107Y-53857868D01*
X100941401Y-53843253D01*
X100923223Y-53826777D01*
X100906747Y-53808599D01*
X100892132Y-53788893D01*
X100879520Y-53767850D01*
X100869030Y-53745671D01*
X100860765Y-53722572D01*
X100854804Y-53698773D01*
X100851204Y-53674505D01*
X100850000Y-53650001D01*
X100850000Y-52749999D01*
X100851204Y-52725495D01*
X100854804Y-52701227D01*
X100860765Y-52677428D01*
X100869030Y-52654329D01*
X100879520Y-52632150D01*
X100892132Y-52611107D01*
X100906747Y-52591401D01*
X100923223Y-52573223D01*
X100941401Y-52556747D01*
X100961107Y-52542132D01*
X100982150Y-52529520D01*
X101004329Y-52519030D01*
X101027428Y-52510765D01*
X101051227Y-52504804D01*
X101075495Y-52501204D01*
X101099999Y-52500000D01*
X101750001Y-52500000D01*
X101774505Y-52501204D01*
X101774505Y-52501204D01*
G37*
D21*
X101425000Y-53200000D03*
D18*
G36*
X95849505Y-50601204D02*
G01*
X95873773Y-50604804D01*
X95897572Y-50610765D01*
X95920671Y-50619030D01*
X95942850Y-50629520D01*
X95963893Y-50642132D01*
X95983599Y-50656747D01*
X96001777Y-50673223D01*
X96018253Y-50691401D01*
X96032868Y-50711107D01*
X96045480Y-50732150D01*
X96055970Y-50754329D01*
X96064235Y-50777428D01*
X96070196Y-50801227D01*
X96073796Y-50825495D01*
X96075000Y-50849999D01*
X96075000Y-51750001D01*
X96073796Y-51774505D01*
X96070196Y-51798773D01*
X96064235Y-51822572D01*
X96055970Y-51845671D01*
X96045480Y-51867850D01*
X96032868Y-51888893D01*
X96018253Y-51908599D01*
X96001777Y-51926777D01*
X95983599Y-51943253D01*
X95963893Y-51957868D01*
X95942850Y-51970480D01*
X95920671Y-51980970D01*
X95897572Y-51989235D01*
X95873773Y-51995196D01*
X95849505Y-51998796D01*
X95825001Y-52000000D01*
X95174999Y-52000000D01*
X95150495Y-51998796D01*
X95126227Y-51995196D01*
X95102428Y-51989235D01*
X95079329Y-51980970D01*
X95057150Y-51970480D01*
X95036107Y-51957868D01*
X95016401Y-51943253D01*
X94998223Y-51926777D01*
X94981747Y-51908599D01*
X94967132Y-51888893D01*
X94954520Y-51867850D01*
X94944030Y-51845671D01*
X94935765Y-51822572D01*
X94929804Y-51798773D01*
X94926204Y-51774505D01*
X94925000Y-51750001D01*
X94925000Y-50849999D01*
X94926204Y-50825495D01*
X94929804Y-50801227D01*
X94935765Y-50777428D01*
X94944030Y-50754329D01*
X94954520Y-50732150D01*
X94967132Y-50711107D01*
X94981747Y-50691401D01*
X94998223Y-50673223D01*
X95016401Y-50656747D01*
X95036107Y-50642132D01*
X95057150Y-50629520D01*
X95079329Y-50619030D01*
X95102428Y-50610765D01*
X95126227Y-50604804D01*
X95150495Y-50601204D01*
X95174999Y-50600000D01*
X95825001Y-50600000D01*
X95849505Y-50601204D01*
X95849505Y-50601204D01*
G37*
D21*
X95500000Y-51300000D03*
D18*
G36*
X97899505Y-50601204D02*
G01*
X97923773Y-50604804D01*
X97947572Y-50610765D01*
X97970671Y-50619030D01*
X97992850Y-50629520D01*
X98013893Y-50642132D01*
X98033599Y-50656747D01*
X98051777Y-50673223D01*
X98068253Y-50691401D01*
X98082868Y-50711107D01*
X98095480Y-50732150D01*
X98105970Y-50754329D01*
X98114235Y-50777428D01*
X98120196Y-50801227D01*
X98123796Y-50825495D01*
X98125000Y-50849999D01*
X98125000Y-51750001D01*
X98123796Y-51774505D01*
X98120196Y-51798773D01*
X98114235Y-51822572D01*
X98105970Y-51845671D01*
X98095480Y-51867850D01*
X98082868Y-51888893D01*
X98068253Y-51908599D01*
X98051777Y-51926777D01*
X98033599Y-51943253D01*
X98013893Y-51957868D01*
X97992850Y-51970480D01*
X97970671Y-51980970D01*
X97947572Y-51989235D01*
X97923773Y-51995196D01*
X97899505Y-51998796D01*
X97875001Y-52000000D01*
X97224999Y-52000000D01*
X97200495Y-51998796D01*
X97176227Y-51995196D01*
X97152428Y-51989235D01*
X97129329Y-51980970D01*
X97107150Y-51970480D01*
X97086107Y-51957868D01*
X97066401Y-51943253D01*
X97048223Y-51926777D01*
X97031747Y-51908599D01*
X97017132Y-51888893D01*
X97004520Y-51867850D01*
X96994030Y-51845671D01*
X96985765Y-51822572D01*
X96979804Y-51798773D01*
X96976204Y-51774505D01*
X96975000Y-51750001D01*
X96975000Y-50849999D01*
X96976204Y-50825495D01*
X96979804Y-50801227D01*
X96985765Y-50777428D01*
X96994030Y-50754329D01*
X97004520Y-50732150D01*
X97017132Y-50711107D01*
X97031747Y-50691401D01*
X97048223Y-50673223D01*
X97066401Y-50656747D01*
X97086107Y-50642132D01*
X97107150Y-50629520D01*
X97129329Y-50619030D01*
X97152428Y-50610765D01*
X97176227Y-50604804D01*
X97200495Y-50601204D01*
X97224999Y-50600000D01*
X97875001Y-50600000D01*
X97899505Y-50601204D01*
X97899505Y-50601204D01*
G37*
D21*
X97550000Y-51300000D03*
D18*
G36*
X101799505Y-50601204D02*
G01*
X101823773Y-50604804D01*
X101847572Y-50610765D01*
X101870671Y-50619030D01*
X101892850Y-50629520D01*
X101913893Y-50642132D01*
X101933599Y-50656747D01*
X101951777Y-50673223D01*
X101968253Y-50691401D01*
X101982868Y-50711107D01*
X101995480Y-50732150D01*
X102005970Y-50754329D01*
X102014235Y-50777428D01*
X102020196Y-50801227D01*
X102023796Y-50825495D01*
X102025000Y-50849999D01*
X102025000Y-51750001D01*
X102023796Y-51774505D01*
X102020196Y-51798773D01*
X102014235Y-51822572D01*
X102005970Y-51845671D01*
X101995480Y-51867850D01*
X101982868Y-51888893D01*
X101968253Y-51908599D01*
X101951777Y-51926777D01*
X101933599Y-51943253D01*
X101913893Y-51957868D01*
X101892850Y-51970480D01*
X101870671Y-51980970D01*
X101847572Y-51989235D01*
X101823773Y-51995196D01*
X101799505Y-51998796D01*
X101775001Y-52000000D01*
X101124999Y-52000000D01*
X101100495Y-51998796D01*
X101076227Y-51995196D01*
X101052428Y-51989235D01*
X101029329Y-51980970D01*
X101007150Y-51970480D01*
X100986107Y-51957868D01*
X100966401Y-51943253D01*
X100948223Y-51926777D01*
X100931747Y-51908599D01*
X100917132Y-51888893D01*
X100904520Y-51867850D01*
X100894030Y-51845671D01*
X100885765Y-51822572D01*
X100879804Y-51798773D01*
X100876204Y-51774505D01*
X100875000Y-51750001D01*
X100875000Y-50849999D01*
X100876204Y-50825495D01*
X100879804Y-50801227D01*
X100885765Y-50777428D01*
X100894030Y-50754329D01*
X100904520Y-50732150D01*
X100917132Y-50711107D01*
X100931747Y-50691401D01*
X100948223Y-50673223D01*
X100966401Y-50656747D01*
X100986107Y-50642132D01*
X101007150Y-50629520D01*
X101029329Y-50619030D01*
X101052428Y-50610765D01*
X101076227Y-50604804D01*
X101100495Y-50601204D01*
X101124999Y-50600000D01*
X101775001Y-50600000D01*
X101799505Y-50601204D01*
X101799505Y-50601204D01*
G37*
D21*
X101450000Y-51300000D03*
D18*
G36*
X99749505Y-50601204D02*
G01*
X99773773Y-50604804D01*
X99797572Y-50610765D01*
X99820671Y-50619030D01*
X99842850Y-50629520D01*
X99863893Y-50642132D01*
X99883599Y-50656747D01*
X99901777Y-50673223D01*
X99918253Y-50691401D01*
X99932868Y-50711107D01*
X99945480Y-50732150D01*
X99955970Y-50754329D01*
X99964235Y-50777428D01*
X99970196Y-50801227D01*
X99973796Y-50825495D01*
X99975000Y-50849999D01*
X99975000Y-51750001D01*
X99973796Y-51774505D01*
X99970196Y-51798773D01*
X99964235Y-51822572D01*
X99955970Y-51845671D01*
X99945480Y-51867850D01*
X99932868Y-51888893D01*
X99918253Y-51908599D01*
X99901777Y-51926777D01*
X99883599Y-51943253D01*
X99863893Y-51957868D01*
X99842850Y-51970480D01*
X99820671Y-51980970D01*
X99797572Y-51989235D01*
X99773773Y-51995196D01*
X99749505Y-51998796D01*
X99725001Y-52000000D01*
X99074999Y-52000000D01*
X99050495Y-51998796D01*
X99026227Y-51995196D01*
X99002428Y-51989235D01*
X98979329Y-51980970D01*
X98957150Y-51970480D01*
X98936107Y-51957868D01*
X98916401Y-51943253D01*
X98898223Y-51926777D01*
X98881747Y-51908599D01*
X98867132Y-51888893D01*
X98854520Y-51867850D01*
X98844030Y-51845671D01*
X98835765Y-51822572D01*
X98829804Y-51798773D01*
X98826204Y-51774505D01*
X98825000Y-51750001D01*
X98825000Y-50849999D01*
X98826204Y-50825495D01*
X98829804Y-50801227D01*
X98835765Y-50777428D01*
X98844030Y-50754329D01*
X98854520Y-50732150D01*
X98867132Y-50711107D01*
X98881747Y-50691401D01*
X98898223Y-50673223D01*
X98916401Y-50656747D01*
X98936107Y-50642132D01*
X98957150Y-50629520D01*
X98979329Y-50619030D01*
X99002428Y-50610765D01*
X99026227Y-50604804D01*
X99050495Y-50601204D01*
X99074999Y-50600000D01*
X99725001Y-50600000D01*
X99749505Y-50601204D01*
X99749505Y-50601204D01*
G37*
D21*
X99400000Y-51300000D03*
D18*
G36*
X95899505Y-52501204D02*
G01*
X95923773Y-52504804D01*
X95947572Y-52510765D01*
X95970671Y-52519030D01*
X95992850Y-52529520D01*
X96013893Y-52542132D01*
X96033599Y-52556747D01*
X96051777Y-52573223D01*
X96068253Y-52591401D01*
X96082868Y-52611107D01*
X96095480Y-52632150D01*
X96105970Y-52654329D01*
X96114235Y-52677428D01*
X96120196Y-52701227D01*
X96123796Y-52725495D01*
X96125000Y-52749999D01*
X96125000Y-53650001D01*
X96123796Y-53674505D01*
X96120196Y-53698773D01*
X96114235Y-53722572D01*
X96105970Y-53745671D01*
X96095480Y-53767850D01*
X96082868Y-53788893D01*
X96068253Y-53808599D01*
X96051777Y-53826777D01*
X96033599Y-53843253D01*
X96013893Y-53857868D01*
X95992850Y-53870480D01*
X95970671Y-53880970D01*
X95947572Y-53889235D01*
X95923773Y-53895196D01*
X95899505Y-53898796D01*
X95875001Y-53900000D01*
X95224999Y-53900000D01*
X95200495Y-53898796D01*
X95176227Y-53895196D01*
X95152428Y-53889235D01*
X95129329Y-53880970D01*
X95107150Y-53870480D01*
X95086107Y-53857868D01*
X95066401Y-53843253D01*
X95048223Y-53826777D01*
X95031747Y-53808599D01*
X95017132Y-53788893D01*
X95004520Y-53767850D01*
X94994030Y-53745671D01*
X94985765Y-53722572D01*
X94979804Y-53698773D01*
X94976204Y-53674505D01*
X94975000Y-53650001D01*
X94975000Y-52749999D01*
X94976204Y-52725495D01*
X94979804Y-52701227D01*
X94985765Y-52677428D01*
X94994030Y-52654329D01*
X95004520Y-52632150D01*
X95017132Y-52611107D01*
X95031747Y-52591401D01*
X95048223Y-52573223D01*
X95066401Y-52556747D01*
X95086107Y-52542132D01*
X95107150Y-52529520D01*
X95129329Y-52519030D01*
X95152428Y-52510765D01*
X95176227Y-52504804D01*
X95200495Y-52501204D01*
X95224999Y-52500000D01*
X95875001Y-52500000D01*
X95899505Y-52501204D01*
X95899505Y-52501204D01*
G37*
D21*
X95550000Y-53200000D03*
D18*
G36*
X97949505Y-52501204D02*
G01*
X97973773Y-52504804D01*
X97997572Y-52510765D01*
X98020671Y-52519030D01*
X98042850Y-52529520D01*
X98063893Y-52542132D01*
X98083599Y-52556747D01*
X98101777Y-52573223D01*
X98118253Y-52591401D01*
X98132868Y-52611107D01*
X98145480Y-52632150D01*
X98155970Y-52654329D01*
X98164235Y-52677428D01*
X98170196Y-52701227D01*
X98173796Y-52725495D01*
X98175000Y-52749999D01*
X98175000Y-53650001D01*
X98173796Y-53674505D01*
X98170196Y-53698773D01*
X98164235Y-53722572D01*
X98155970Y-53745671D01*
X98145480Y-53767850D01*
X98132868Y-53788893D01*
X98118253Y-53808599D01*
X98101777Y-53826777D01*
X98083599Y-53843253D01*
X98063893Y-53857868D01*
X98042850Y-53870480D01*
X98020671Y-53880970D01*
X97997572Y-53889235D01*
X97973773Y-53895196D01*
X97949505Y-53898796D01*
X97925001Y-53900000D01*
X97274999Y-53900000D01*
X97250495Y-53898796D01*
X97226227Y-53895196D01*
X97202428Y-53889235D01*
X97179329Y-53880970D01*
X97157150Y-53870480D01*
X97136107Y-53857868D01*
X97116401Y-53843253D01*
X97098223Y-53826777D01*
X97081747Y-53808599D01*
X97067132Y-53788893D01*
X97054520Y-53767850D01*
X97044030Y-53745671D01*
X97035765Y-53722572D01*
X97029804Y-53698773D01*
X97026204Y-53674505D01*
X97025000Y-53650001D01*
X97025000Y-52749999D01*
X97026204Y-52725495D01*
X97029804Y-52701227D01*
X97035765Y-52677428D01*
X97044030Y-52654329D01*
X97054520Y-52632150D01*
X97067132Y-52611107D01*
X97081747Y-52591401D01*
X97098223Y-52573223D01*
X97116401Y-52556747D01*
X97136107Y-52542132D01*
X97157150Y-52529520D01*
X97179329Y-52519030D01*
X97202428Y-52510765D01*
X97226227Y-52504804D01*
X97250495Y-52501204D01*
X97274999Y-52500000D01*
X97925001Y-52500000D01*
X97949505Y-52501204D01*
X97949505Y-52501204D01*
G37*
D21*
X97600000Y-53200000D03*
D22*
X110376000Y-55108000D03*
X110376000Y-54458000D03*
X110376000Y-53808000D03*
X110376000Y-53158000D03*
X110376000Y-52508000D03*
X110376000Y-51858000D03*
X110376000Y-51208000D03*
X110376000Y-50558000D03*
X104500000Y-50558000D03*
X104500000Y-51208000D03*
X104500000Y-51858000D03*
X104500000Y-52508000D03*
X104500000Y-53158000D03*
X104500000Y-53808000D03*
X104500000Y-54458000D03*
X104500000Y-55108000D03*
D18*
G36*
X104324505Y-56301204D02*
G01*
X104348773Y-56304804D01*
X104372572Y-56310765D01*
X104395671Y-56319030D01*
X104417850Y-56329520D01*
X104438893Y-56342132D01*
X104458599Y-56356747D01*
X104476777Y-56373223D01*
X104493253Y-56391401D01*
X104507868Y-56411107D01*
X104520480Y-56432150D01*
X104530970Y-56454329D01*
X104539235Y-56477428D01*
X104545196Y-56501227D01*
X104548796Y-56525495D01*
X104550000Y-56549999D01*
X104550000Y-57450001D01*
X104548796Y-57474505D01*
X104545196Y-57498773D01*
X104539235Y-57522572D01*
X104530970Y-57545671D01*
X104520480Y-57567850D01*
X104507868Y-57588893D01*
X104493253Y-57608599D01*
X104476777Y-57626777D01*
X104458599Y-57643253D01*
X104438893Y-57657868D01*
X104417850Y-57670480D01*
X104395671Y-57680970D01*
X104372572Y-57689235D01*
X104348773Y-57695196D01*
X104324505Y-57698796D01*
X104300001Y-57700000D01*
X103649999Y-57700000D01*
X103625495Y-57698796D01*
X103601227Y-57695196D01*
X103577428Y-57689235D01*
X103554329Y-57680970D01*
X103532150Y-57670480D01*
X103511107Y-57657868D01*
X103491401Y-57643253D01*
X103473223Y-57626777D01*
X103456747Y-57608599D01*
X103442132Y-57588893D01*
X103429520Y-57567850D01*
X103419030Y-57545671D01*
X103410765Y-57522572D01*
X103404804Y-57498773D01*
X103401204Y-57474505D01*
X103400000Y-57450001D01*
X103400000Y-56549999D01*
X103401204Y-56525495D01*
X103404804Y-56501227D01*
X103410765Y-56477428D01*
X103419030Y-56454329D01*
X103429520Y-56432150D01*
X103442132Y-56411107D01*
X103456747Y-56391401D01*
X103473223Y-56373223D01*
X103491401Y-56356747D01*
X103511107Y-56342132D01*
X103532150Y-56329520D01*
X103554329Y-56319030D01*
X103577428Y-56310765D01*
X103601227Y-56304804D01*
X103625495Y-56301204D01*
X103649999Y-56300000D01*
X104300001Y-56300000D01*
X104324505Y-56301204D01*
X104324505Y-56301204D01*
G37*
D21*
X103975000Y-57000000D03*
D18*
G36*
X106374505Y-56301204D02*
G01*
X106398773Y-56304804D01*
X106422572Y-56310765D01*
X106445671Y-56319030D01*
X106467850Y-56329520D01*
X106488893Y-56342132D01*
X106508599Y-56356747D01*
X106526777Y-56373223D01*
X106543253Y-56391401D01*
X106557868Y-56411107D01*
X106570480Y-56432150D01*
X106580970Y-56454329D01*
X106589235Y-56477428D01*
X106595196Y-56501227D01*
X106598796Y-56525495D01*
X106600000Y-56549999D01*
X106600000Y-57450001D01*
X106598796Y-57474505D01*
X106595196Y-57498773D01*
X106589235Y-57522572D01*
X106580970Y-57545671D01*
X106570480Y-57567850D01*
X106557868Y-57588893D01*
X106543253Y-57608599D01*
X106526777Y-57626777D01*
X106508599Y-57643253D01*
X106488893Y-57657868D01*
X106467850Y-57670480D01*
X106445671Y-57680970D01*
X106422572Y-57689235D01*
X106398773Y-57695196D01*
X106374505Y-57698796D01*
X106350001Y-57700000D01*
X105699999Y-57700000D01*
X105675495Y-57698796D01*
X105651227Y-57695196D01*
X105627428Y-57689235D01*
X105604329Y-57680970D01*
X105582150Y-57670480D01*
X105561107Y-57657868D01*
X105541401Y-57643253D01*
X105523223Y-57626777D01*
X105506747Y-57608599D01*
X105492132Y-57588893D01*
X105479520Y-57567850D01*
X105469030Y-57545671D01*
X105460765Y-57522572D01*
X105454804Y-57498773D01*
X105451204Y-57474505D01*
X105450000Y-57450001D01*
X105450000Y-56549999D01*
X105451204Y-56525495D01*
X105454804Y-56501227D01*
X105460765Y-56477428D01*
X105469030Y-56454329D01*
X105479520Y-56432150D01*
X105492132Y-56411107D01*
X105506747Y-56391401D01*
X105523223Y-56373223D01*
X105541401Y-56356747D01*
X105561107Y-56342132D01*
X105582150Y-56329520D01*
X105604329Y-56319030D01*
X105627428Y-56310765D01*
X105651227Y-56304804D01*
X105675495Y-56301204D01*
X105699999Y-56300000D01*
X106350001Y-56300000D01*
X106374505Y-56301204D01*
X106374505Y-56301204D01*
G37*
D21*
X106025000Y-57000000D03*
D18*
G36*
X113474505Y-54976204D02*
G01*
X113498773Y-54979804D01*
X113522572Y-54985765D01*
X113545671Y-54994030D01*
X113567850Y-55004520D01*
X113588893Y-55017132D01*
X113608599Y-55031747D01*
X113626777Y-55048223D01*
X113643253Y-55066401D01*
X113657868Y-55086107D01*
X113670480Y-55107150D01*
X113680970Y-55129329D01*
X113689235Y-55152428D01*
X113695196Y-55176227D01*
X113698796Y-55200495D01*
X113700000Y-55224999D01*
X113700000Y-55875001D01*
X113698796Y-55899505D01*
X113695196Y-55923773D01*
X113689235Y-55947572D01*
X113680970Y-55970671D01*
X113670480Y-55992850D01*
X113657868Y-56013893D01*
X113643253Y-56033599D01*
X113626777Y-56051777D01*
X113608599Y-56068253D01*
X113588893Y-56082868D01*
X113567850Y-56095480D01*
X113545671Y-56105970D01*
X113522572Y-56114235D01*
X113498773Y-56120196D01*
X113474505Y-56123796D01*
X113450001Y-56125000D01*
X112549999Y-56125000D01*
X112525495Y-56123796D01*
X112501227Y-56120196D01*
X112477428Y-56114235D01*
X112454329Y-56105970D01*
X112432150Y-56095480D01*
X112411107Y-56082868D01*
X112391401Y-56068253D01*
X112373223Y-56051777D01*
X112356747Y-56033599D01*
X112342132Y-56013893D01*
X112329520Y-55992850D01*
X112319030Y-55970671D01*
X112310765Y-55947572D01*
X112304804Y-55923773D01*
X112301204Y-55899505D01*
X112300000Y-55875001D01*
X112300000Y-55224999D01*
X112301204Y-55200495D01*
X112304804Y-55176227D01*
X112310765Y-55152428D01*
X112319030Y-55129329D01*
X112329520Y-55107150D01*
X112342132Y-55086107D01*
X112356747Y-55066401D01*
X112373223Y-55048223D01*
X112391401Y-55031747D01*
X112411107Y-55017132D01*
X112432150Y-55004520D01*
X112454329Y-54994030D01*
X112477428Y-54985765D01*
X112501227Y-54979804D01*
X112525495Y-54976204D01*
X112549999Y-54975000D01*
X113450001Y-54975000D01*
X113474505Y-54976204D01*
X113474505Y-54976204D01*
G37*
D21*
X113000000Y-55550000D03*
D18*
G36*
X113474505Y-52926204D02*
G01*
X113498773Y-52929804D01*
X113522572Y-52935765D01*
X113545671Y-52944030D01*
X113567850Y-52954520D01*
X113588893Y-52967132D01*
X113608599Y-52981747D01*
X113626777Y-52998223D01*
X113643253Y-53016401D01*
X113657868Y-53036107D01*
X113670480Y-53057150D01*
X113680970Y-53079329D01*
X113689235Y-53102428D01*
X113695196Y-53126227D01*
X113698796Y-53150495D01*
X113700000Y-53174999D01*
X113700000Y-53825001D01*
X113698796Y-53849505D01*
X113695196Y-53873773D01*
X113689235Y-53897572D01*
X113680970Y-53920671D01*
X113670480Y-53942850D01*
X113657868Y-53963893D01*
X113643253Y-53983599D01*
X113626777Y-54001777D01*
X113608599Y-54018253D01*
X113588893Y-54032868D01*
X113567850Y-54045480D01*
X113545671Y-54055970D01*
X113522572Y-54064235D01*
X113498773Y-54070196D01*
X113474505Y-54073796D01*
X113450001Y-54075000D01*
X112549999Y-54075000D01*
X112525495Y-54073796D01*
X112501227Y-54070196D01*
X112477428Y-54064235D01*
X112454329Y-54055970D01*
X112432150Y-54045480D01*
X112411107Y-54032868D01*
X112391401Y-54018253D01*
X112373223Y-54001777D01*
X112356747Y-53983599D01*
X112342132Y-53963893D01*
X112329520Y-53942850D01*
X112319030Y-53920671D01*
X112310765Y-53897572D01*
X112304804Y-53873773D01*
X112301204Y-53849505D01*
X112300000Y-53825001D01*
X112300000Y-53174999D01*
X112301204Y-53150495D01*
X112304804Y-53126227D01*
X112310765Y-53102428D01*
X112319030Y-53079329D01*
X112329520Y-53057150D01*
X112342132Y-53036107D01*
X112356747Y-53016401D01*
X112373223Y-52998223D01*
X112391401Y-52981747D01*
X112411107Y-52967132D01*
X112432150Y-52954520D01*
X112454329Y-52944030D01*
X112477428Y-52935765D01*
X112501227Y-52929804D01*
X112525495Y-52926204D01*
X112549999Y-52925000D01*
X113450001Y-52925000D01*
X113474505Y-52926204D01*
X113474505Y-52926204D01*
G37*
D21*
X113000000Y-53500000D03*
D18*
G36*
X116849505Y-58301204D02*
G01*
X116873773Y-58304804D01*
X116897572Y-58310765D01*
X116920671Y-58319030D01*
X116942850Y-58329520D01*
X116963893Y-58342132D01*
X116983599Y-58356747D01*
X117001777Y-58373223D01*
X117018253Y-58391401D01*
X117032868Y-58411107D01*
X117045480Y-58432150D01*
X117055970Y-58454329D01*
X117064235Y-58477428D01*
X117070196Y-58501227D01*
X117073796Y-58525495D01*
X117075000Y-58549999D01*
X117075000Y-59450001D01*
X117073796Y-59474505D01*
X117070196Y-59498773D01*
X117064235Y-59522572D01*
X117055970Y-59545671D01*
X117045480Y-59567850D01*
X117032868Y-59588893D01*
X117018253Y-59608599D01*
X117001777Y-59626777D01*
X116983599Y-59643253D01*
X116963893Y-59657868D01*
X116942850Y-59670480D01*
X116920671Y-59680970D01*
X116897572Y-59689235D01*
X116873773Y-59695196D01*
X116849505Y-59698796D01*
X116825001Y-59700000D01*
X116174999Y-59700000D01*
X116150495Y-59698796D01*
X116126227Y-59695196D01*
X116102428Y-59689235D01*
X116079329Y-59680970D01*
X116057150Y-59670480D01*
X116036107Y-59657868D01*
X116016401Y-59643253D01*
X115998223Y-59626777D01*
X115981747Y-59608599D01*
X115967132Y-59588893D01*
X115954520Y-59567850D01*
X115944030Y-59545671D01*
X115935765Y-59522572D01*
X115929804Y-59498773D01*
X115926204Y-59474505D01*
X115925000Y-59450001D01*
X115925000Y-58549999D01*
X115926204Y-58525495D01*
X115929804Y-58501227D01*
X115935765Y-58477428D01*
X115944030Y-58454329D01*
X115954520Y-58432150D01*
X115967132Y-58411107D01*
X115981747Y-58391401D01*
X115998223Y-58373223D01*
X116016401Y-58356747D01*
X116036107Y-58342132D01*
X116057150Y-58329520D01*
X116079329Y-58319030D01*
X116102428Y-58310765D01*
X116126227Y-58304804D01*
X116150495Y-58301204D01*
X116174999Y-58300000D01*
X116825001Y-58300000D01*
X116849505Y-58301204D01*
X116849505Y-58301204D01*
G37*
D21*
X116500000Y-59000000D03*
D18*
G36*
X114799505Y-58301204D02*
G01*
X114823773Y-58304804D01*
X114847572Y-58310765D01*
X114870671Y-58319030D01*
X114892850Y-58329520D01*
X114913893Y-58342132D01*
X114933599Y-58356747D01*
X114951777Y-58373223D01*
X114968253Y-58391401D01*
X114982868Y-58411107D01*
X114995480Y-58432150D01*
X115005970Y-58454329D01*
X115014235Y-58477428D01*
X115020196Y-58501227D01*
X115023796Y-58525495D01*
X115025000Y-58549999D01*
X115025000Y-59450001D01*
X115023796Y-59474505D01*
X115020196Y-59498773D01*
X115014235Y-59522572D01*
X115005970Y-59545671D01*
X114995480Y-59567850D01*
X114982868Y-59588893D01*
X114968253Y-59608599D01*
X114951777Y-59626777D01*
X114933599Y-59643253D01*
X114913893Y-59657868D01*
X114892850Y-59670480D01*
X114870671Y-59680970D01*
X114847572Y-59689235D01*
X114823773Y-59695196D01*
X114799505Y-59698796D01*
X114775001Y-59700000D01*
X114124999Y-59700000D01*
X114100495Y-59698796D01*
X114076227Y-59695196D01*
X114052428Y-59689235D01*
X114029329Y-59680970D01*
X114007150Y-59670480D01*
X113986107Y-59657868D01*
X113966401Y-59643253D01*
X113948223Y-59626777D01*
X113931747Y-59608599D01*
X113917132Y-59588893D01*
X113904520Y-59567850D01*
X113894030Y-59545671D01*
X113885765Y-59522572D01*
X113879804Y-59498773D01*
X113876204Y-59474505D01*
X113875000Y-59450001D01*
X113875000Y-58549999D01*
X113876204Y-58525495D01*
X113879804Y-58501227D01*
X113885765Y-58477428D01*
X113894030Y-58454329D01*
X113904520Y-58432150D01*
X113917132Y-58411107D01*
X113931747Y-58391401D01*
X113948223Y-58373223D01*
X113966401Y-58356747D01*
X113986107Y-58342132D01*
X114007150Y-58329520D01*
X114029329Y-58319030D01*
X114052428Y-58310765D01*
X114076227Y-58304804D01*
X114100495Y-58301204D01*
X114124999Y-58300000D01*
X114775001Y-58300000D01*
X114799505Y-58301204D01*
X114799505Y-58301204D01*
G37*
D21*
X114450000Y-59000000D03*
D23*
X116000000Y-56750000D03*
X116000000Y-54250000D03*
D18*
G36*
X115374505Y-50301204D02*
G01*
X115398773Y-50304804D01*
X115422572Y-50310765D01*
X115445671Y-50319030D01*
X115467850Y-50329520D01*
X115488893Y-50342132D01*
X115508599Y-50356747D01*
X115526777Y-50373223D01*
X115543253Y-50391401D01*
X115557868Y-50411107D01*
X115570480Y-50432150D01*
X115580970Y-50454329D01*
X115589235Y-50477428D01*
X115595196Y-50501227D01*
X115598796Y-50525495D01*
X115600000Y-50549999D01*
X115600000Y-51450001D01*
X115598796Y-51474505D01*
X115595196Y-51498773D01*
X115589235Y-51522572D01*
X115580970Y-51545671D01*
X115570480Y-51567850D01*
X115557868Y-51588893D01*
X115543253Y-51608599D01*
X115526777Y-51626777D01*
X115508599Y-51643253D01*
X115488893Y-51657868D01*
X115467850Y-51670480D01*
X115445671Y-51680970D01*
X115422572Y-51689235D01*
X115398773Y-51695196D01*
X115374505Y-51698796D01*
X115350001Y-51700000D01*
X114699999Y-51700000D01*
X114675495Y-51698796D01*
X114651227Y-51695196D01*
X114627428Y-51689235D01*
X114604329Y-51680970D01*
X114582150Y-51670480D01*
X114561107Y-51657868D01*
X114541401Y-51643253D01*
X114523223Y-51626777D01*
X114506747Y-51608599D01*
X114492132Y-51588893D01*
X114479520Y-51567850D01*
X114469030Y-51545671D01*
X114460765Y-51522572D01*
X114454804Y-51498773D01*
X114451204Y-51474505D01*
X114450000Y-51450001D01*
X114450000Y-50549999D01*
X114451204Y-50525495D01*
X114454804Y-50501227D01*
X114460765Y-50477428D01*
X114469030Y-50454329D01*
X114479520Y-50432150D01*
X114492132Y-50411107D01*
X114506747Y-50391401D01*
X114523223Y-50373223D01*
X114541401Y-50356747D01*
X114561107Y-50342132D01*
X114582150Y-50329520D01*
X114604329Y-50319030D01*
X114627428Y-50310765D01*
X114651227Y-50304804D01*
X114675495Y-50301204D01*
X114699999Y-50300000D01*
X115350001Y-50300000D01*
X115374505Y-50301204D01*
X115374505Y-50301204D01*
G37*
D21*
X115025000Y-51000000D03*
D18*
G36*
X113324505Y-50301204D02*
G01*
X113348773Y-50304804D01*
X113372572Y-50310765D01*
X113395671Y-50319030D01*
X113417850Y-50329520D01*
X113438893Y-50342132D01*
X113458599Y-50356747D01*
X113476777Y-50373223D01*
X113493253Y-50391401D01*
X113507868Y-50411107D01*
X113520480Y-50432150D01*
X113530970Y-50454329D01*
X113539235Y-50477428D01*
X113545196Y-50501227D01*
X113548796Y-50525495D01*
X113550000Y-50549999D01*
X113550000Y-51450001D01*
X113548796Y-51474505D01*
X113545196Y-51498773D01*
X113539235Y-51522572D01*
X113530970Y-51545671D01*
X113520480Y-51567850D01*
X113507868Y-51588893D01*
X113493253Y-51608599D01*
X113476777Y-51626777D01*
X113458599Y-51643253D01*
X113438893Y-51657868D01*
X113417850Y-51670480D01*
X113395671Y-51680970D01*
X113372572Y-51689235D01*
X113348773Y-51695196D01*
X113324505Y-51698796D01*
X113300001Y-51700000D01*
X112649999Y-51700000D01*
X112625495Y-51698796D01*
X112601227Y-51695196D01*
X112577428Y-51689235D01*
X112554329Y-51680970D01*
X112532150Y-51670480D01*
X112511107Y-51657868D01*
X112491401Y-51643253D01*
X112473223Y-51626777D01*
X112456747Y-51608599D01*
X112442132Y-51588893D01*
X112429520Y-51567850D01*
X112419030Y-51545671D01*
X112410765Y-51522572D01*
X112404804Y-51498773D01*
X112401204Y-51474505D01*
X112400000Y-51450001D01*
X112400000Y-50549999D01*
X112401204Y-50525495D01*
X112404804Y-50501227D01*
X112410765Y-50477428D01*
X112419030Y-50454329D01*
X112429520Y-50432150D01*
X112442132Y-50411107D01*
X112456747Y-50391401D01*
X112473223Y-50373223D01*
X112491401Y-50356747D01*
X112511107Y-50342132D01*
X112532150Y-50329520D01*
X112554329Y-50319030D01*
X112577428Y-50310765D01*
X112601227Y-50304804D01*
X112625495Y-50301204D01*
X112649999Y-50300000D01*
X113300001Y-50300000D01*
X113324505Y-50301204D01*
X113324505Y-50301204D01*
G37*
D21*
X112975000Y-51000000D03*
D18*
G36*
X104349505Y-58801204D02*
G01*
X104373773Y-58804804D01*
X104397572Y-58810765D01*
X104420671Y-58819030D01*
X104442850Y-58829520D01*
X104463893Y-58842132D01*
X104483599Y-58856747D01*
X104501777Y-58873223D01*
X104518253Y-58891401D01*
X104532868Y-58911107D01*
X104545480Y-58932150D01*
X104555970Y-58954329D01*
X104564235Y-58977428D01*
X104570196Y-59001227D01*
X104573796Y-59025495D01*
X104575000Y-59049999D01*
X104575000Y-59950001D01*
X104573796Y-59974505D01*
X104570196Y-59998773D01*
X104564235Y-60022572D01*
X104555970Y-60045671D01*
X104545480Y-60067850D01*
X104532868Y-60088893D01*
X104518253Y-60108599D01*
X104501777Y-60126777D01*
X104483599Y-60143253D01*
X104463893Y-60157868D01*
X104442850Y-60170480D01*
X104420671Y-60180970D01*
X104397572Y-60189235D01*
X104373773Y-60195196D01*
X104349505Y-60198796D01*
X104325001Y-60200000D01*
X103674999Y-60200000D01*
X103650495Y-60198796D01*
X103626227Y-60195196D01*
X103602428Y-60189235D01*
X103579329Y-60180970D01*
X103557150Y-60170480D01*
X103536107Y-60157868D01*
X103516401Y-60143253D01*
X103498223Y-60126777D01*
X103481747Y-60108599D01*
X103467132Y-60088893D01*
X103454520Y-60067850D01*
X103444030Y-60045671D01*
X103435765Y-60022572D01*
X103429804Y-59998773D01*
X103426204Y-59974505D01*
X103425000Y-59950001D01*
X103425000Y-59049999D01*
X103426204Y-59025495D01*
X103429804Y-59001227D01*
X103435765Y-58977428D01*
X103444030Y-58954329D01*
X103454520Y-58932150D01*
X103467132Y-58911107D01*
X103481747Y-58891401D01*
X103498223Y-58873223D01*
X103516401Y-58856747D01*
X103536107Y-58842132D01*
X103557150Y-58829520D01*
X103579329Y-58819030D01*
X103602428Y-58810765D01*
X103626227Y-58804804D01*
X103650495Y-58801204D01*
X103674999Y-58800000D01*
X104325001Y-58800000D01*
X104349505Y-58801204D01*
X104349505Y-58801204D01*
G37*
D21*
X104000000Y-59500000D03*
D18*
G36*
X106399505Y-58801204D02*
G01*
X106423773Y-58804804D01*
X106447572Y-58810765D01*
X106470671Y-58819030D01*
X106492850Y-58829520D01*
X106513893Y-58842132D01*
X106533599Y-58856747D01*
X106551777Y-58873223D01*
X106568253Y-58891401D01*
X106582868Y-58911107D01*
X106595480Y-58932150D01*
X106605970Y-58954329D01*
X106614235Y-58977428D01*
X106620196Y-59001227D01*
X106623796Y-59025495D01*
X106625000Y-59049999D01*
X106625000Y-59950001D01*
X106623796Y-59974505D01*
X106620196Y-59998773D01*
X106614235Y-60022572D01*
X106605970Y-60045671D01*
X106595480Y-60067850D01*
X106582868Y-60088893D01*
X106568253Y-60108599D01*
X106551777Y-60126777D01*
X106533599Y-60143253D01*
X106513893Y-60157868D01*
X106492850Y-60170480D01*
X106470671Y-60180970D01*
X106447572Y-60189235D01*
X106423773Y-60195196D01*
X106399505Y-60198796D01*
X106375001Y-60200000D01*
X105724999Y-60200000D01*
X105700495Y-60198796D01*
X105676227Y-60195196D01*
X105652428Y-60189235D01*
X105629329Y-60180970D01*
X105607150Y-60170480D01*
X105586107Y-60157868D01*
X105566401Y-60143253D01*
X105548223Y-60126777D01*
X105531747Y-60108599D01*
X105517132Y-60088893D01*
X105504520Y-60067850D01*
X105494030Y-60045671D01*
X105485765Y-60022572D01*
X105479804Y-59998773D01*
X105476204Y-59974505D01*
X105475000Y-59950001D01*
X105475000Y-59049999D01*
X105476204Y-59025495D01*
X105479804Y-59001227D01*
X105485765Y-58977428D01*
X105494030Y-58954329D01*
X105504520Y-58932150D01*
X105517132Y-58911107D01*
X105531747Y-58891401D01*
X105548223Y-58873223D01*
X105566401Y-58856747D01*
X105586107Y-58842132D01*
X105607150Y-58829520D01*
X105629329Y-58819030D01*
X105652428Y-58810765D01*
X105676227Y-58804804D01*
X105700495Y-58801204D01*
X105724999Y-58800000D01*
X106375001Y-58800000D01*
X106399505Y-58801204D01*
X106399505Y-58801204D01*
G37*
D21*
X106050000Y-59500000D03*
D18*
G36*
X108299505Y-56269204D02*
G01*
X108323773Y-56272804D01*
X108347572Y-56278765D01*
X108370671Y-56287030D01*
X108392850Y-56297520D01*
X108413893Y-56310132D01*
X108433599Y-56324747D01*
X108451777Y-56341223D01*
X108468253Y-56359401D01*
X108482868Y-56379107D01*
X108495480Y-56400150D01*
X108505970Y-56422329D01*
X108514235Y-56445428D01*
X108520196Y-56469227D01*
X108523796Y-56493495D01*
X108525000Y-56517999D01*
X108525000Y-57418001D01*
X108523796Y-57442505D01*
X108520196Y-57466773D01*
X108514235Y-57490572D01*
X108505970Y-57513671D01*
X108495480Y-57535850D01*
X108482868Y-57556893D01*
X108468253Y-57576599D01*
X108451777Y-57594777D01*
X108433599Y-57611253D01*
X108413893Y-57625868D01*
X108392850Y-57638480D01*
X108370671Y-57648970D01*
X108347572Y-57657235D01*
X108323773Y-57663196D01*
X108299505Y-57666796D01*
X108275001Y-57668000D01*
X107624999Y-57668000D01*
X107600495Y-57666796D01*
X107576227Y-57663196D01*
X107552428Y-57657235D01*
X107529329Y-57648970D01*
X107507150Y-57638480D01*
X107486107Y-57625868D01*
X107466401Y-57611253D01*
X107448223Y-57594777D01*
X107431747Y-57576599D01*
X107417132Y-57556893D01*
X107404520Y-57535850D01*
X107394030Y-57513671D01*
X107385765Y-57490572D01*
X107379804Y-57466773D01*
X107376204Y-57442505D01*
X107375000Y-57418001D01*
X107375000Y-56517999D01*
X107376204Y-56493495D01*
X107379804Y-56469227D01*
X107385765Y-56445428D01*
X107394030Y-56422329D01*
X107404520Y-56400150D01*
X107417132Y-56379107D01*
X107431747Y-56359401D01*
X107448223Y-56341223D01*
X107466401Y-56324747D01*
X107486107Y-56310132D01*
X107507150Y-56297520D01*
X107529329Y-56287030D01*
X107552428Y-56278765D01*
X107576227Y-56272804D01*
X107600495Y-56269204D01*
X107624999Y-56268000D01*
X108275001Y-56268000D01*
X108299505Y-56269204D01*
X108299505Y-56269204D01*
G37*
D21*
X107950000Y-56968000D03*
D18*
G36*
X110349505Y-56269204D02*
G01*
X110373773Y-56272804D01*
X110397572Y-56278765D01*
X110420671Y-56287030D01*
X110442850Y-56297520D01*
X110463893Y-56310132D01*
X110483599Y-56324747D01*
X110501777Y-56341223D01*
X110518253Y-56359401D01*
X110532868Y-56379107D01*
X110545480Y-56400150D01*
X110555970Y-56422329D01*
X110564235Y-56445428D01*
X110570196Y-56469227D01*
X110573796Y-56493495D01*
X110575000Y-56517999D01*
X110575000Y-57418001D01*
X110573796Y-57442505D01*
X110570196Y-57466773D01*
X110564235Y-57490572D01*
X110555970Y-57513671D01*
X110545480Y-57535850D01*
X110532868Y-57556893D01*
X110518253Y-57576599D01*
X110501777Y-57594777D01*
X110483599Y-57611253D01*
X110463893Y-57625868D01*
X110442850Y-57638480D01*
X110420671Y-57648970D01*
X110397572Y-57657235D01*
X110373773Y-57663196D01*
X110349505Y-57666796D01*
X110325001Y-57668000D01*
X109674999Y-57668000D01*
X109650495Y-57666796D01*
X109626227Y-57663196D01*
X109602428Y-57657235D01*
X109579329Y-57648970D01*
X109557150Y-57638480D01*
X109536107Y-57625868D01*
X109516401Y-57611253D01*
X109498223Y-57594777D01*
X109481747Y-57576599D01*
X109467132Y-57556893D01*
X109454520Y-57535850D01*
X109444030Y-57513671D01*
X109435765Y-57490572D01*
X109429804Y-57466773D01*
X109426204Y-57442505D01*
X109425000Y-57418001D01*
X109425000Y-56517999D01*
X109426204Y-56493495D01*
X109429804Y-56469227D01*
X109435765Y-56445428D01*
X109444030Y-56422329D01*
X109454520Y-56400150D01*
X109467132Y-56379107D01*
X109481747Y-56359401D01*
X109498223Y-56341223D01*
X109516401Y-56324747D01*
X109536107Y-56310132D01*
X109557150Y-56297520D01*
X109579329Y-56287030D01*
X109602428Y-56278765D01*
X109626227Y-56272804D01*
X109650495Y-56269204D01*
X109674999Y-56268000D01*
X110325001Y-56268000D01*
X110349505Y-56269204D01*
X110349505Y-56269204D01*
G37*
D21*
X110000000Y-56968000D03*
D18*
G36*
X112974505Y-58976204D02*
G01*
X112998773Y-58979804D01*
X113022572Y-58985765D01*
X113045671Y-58994030D01*
X113067850Y-59004520D01*
X113088893Y-59017132D01*
X113108599Y-59031747D01*
X113126777Y-59048223D01*
X113143253Y-59066401D01*
X113157868Y-59086107D01*
X113170480Y-59107150D01*
X113180970Y-59129329D01*
X113189235Y-59152428D01*
X113195196Y-59176227D01*
X113198796Y-59200495D01*
X113200000Y-59224999D01*
X113200000Y-59875001D01*
X113198796Y-59899505D01*
X113195196Y-59923773D01*
X113189235Y-59947572D01*
X113180970Y-59970671D01*
X113170480Y-59992850D01*
X113157868Y-60013893D01*
X113143253Y-60033599D01*
X113126777Y-60051777D01*
X113108599Y-60068253D01*
X113088893Y-60082868D01*
X113067850Y-60095480D01*
X113045671Y-60105970D01*
X113022572Y-60114235D01*
X112998773Y-60120196D01*
X112974505Y-60123796D01*
X112950001Y-60125000D01*
X112049999Y-60125000D01*
X112025495Y-60123796D01*
X112001227Y-60120196D01*
X111977428Y-60114235D01*
X111954329Y-60105970D01*
X111932150Y-60095480D01*
X111911107Y-60082868D01*
X111891401Y-60068253D01*
X111873223Y-60051777D01*
X111856747Y-60033599D01*
X111842132Y-60013893D01*
X111829520Y-59992850D01*
X111819030Y-59970671D01*
X111810765Y-59947572D01*
X111804804Y-59923773D01*
X111801204Y-59899505D01*
X111800000Y-59875001D01*
X111800000Y-59224999D01*
X111801204Y-59200495D01*
X111804804Y-59176227D01*
X111810765Y-59152428D01*
X111819030Y-59129329D01*
X111829520Y-59107150D01*
X111842132Y-59086107D01*
X111856747Y-59066401D01*
X111873223Y-59048223D01*
X111891401Y-59031747D01*
X111911107Y-59017132D01*
X111932150Y-59004520D01*
X111954329Y-58994030D01*
X111977428Y-58985765D01*
X112001227Y-58979804D01*
X112025495Y-58976204D01*
X112049999Y-58975000D01*
X112950001Y-58975000D01*
X112974505Y-58976204D01*
X112974505Y-58976204D01*
G37*
D21*
X112500000Y-59550000D03*
D18*
G36*
X112974505Y-56926204D02*
G01*
X112998773Y-56929804D01*
X113022572Y-56935765D01*
X113045671Y-56944030D01*
X113067850Y-56954520D01*
X113088893Y-56967132D01*
X113108599Y-56981747D01*
X113126777Y-56998223D01*
X113143253Y-57016401D01*
X113157868Y-57036107D01*
X113170480Y-57057150D01*
X113180970Y-57079329D01*
X113189235Y-57102428D01*
X113195196Y-57126227D01*
X113198796Y-57150495D01*
X113200000Y-57174999D01*
X113200000Y-57825001D01*
X113198796Y-57849505D01*
X113195196Y-57873773D01*
X113189235Y-57897572D01*
X113180970Y-57920671D01*
X113170480Y-57942850D01*
X113157868Y-57963893D01*
X113143253Y-57983599D01*
X113126777Y-58001777D01*
X113108599Y-58018253D01*
X113088893Y-58032868D01*
X113067850Y-58045480D01*
X113045671Y-58055970D01*
X113022572Y-58064235D01*
X112998773Y-58070196D01*
X112974505Y-58073796D01*
X112950001Y-58075000D01*
X112049999Y-58075000D01*
X112025495Y-58073796D01*
X112001227Y-58070196D01*
X111977428Y-58064235D01*
X111954329Y-58055970D01*
X111932150Y-58045480D01*
X111911107Y-58032868D01*
X111891401Y-58018253D01*
X111873223Y-58001777D01*
X111856747Y-57983599D01*
X111842132Y-57963893D01*
X111829520Y-57942850D01*
X111819030Y-57920671D01*
X111810765Y-57897572D01*
X111804804Y-57873773D01*
X111801204Y-57849505D01*
X111800000Y-57825001D01*
X111800000Y-57174999D01*
X111801204Y-57150495D01*
X111804804Y-57126227D01*
X111810765Y-57102428D01*
X111819030Y-57079329D01*
X111829520Y-57057150D01*
X111842132Y-57036107D01*
X111856747Y-57016401D01*
X111873223Y-56998223D01*
X111891401Y-56981747D01*
X111911107Y-56967132D01*
X111932150Y-56954520D01*
X111954329Y-56944030D01*
X111977428Y-56935765D01*
X112001227Y-56929804D01*
X112025495Y-56926204D01*
X112049999Y-56925000D01*
X112950001Y-56925000D01*
X112974505Y-56926204D01*
X112974505Y-56926204D01*
G37*
D21*
X112500000Y-57500000D03*
D24*
X78400000Y86100000D03*
X-86100000Y78400000D03*
X-78400000Y-86100000D03*
X76800000Y-81500000D03*
X78050000Y-81165064D03*
X78965064Y-80250000D03*
X79300000Y-79000000D03*
X78965064Y-77750000D03*
X78050000Y-76834936D03*
X76800000Y-76500000D03*
X75550000Y-76834936D03*
X74634936Y-77750000D03*
X74300000Y-79000000D03*
X74634936Y-80250000D03*
X75550000Y-81165064D03*
X76800000Y-34500000D03*
X75550000Y-29834936D03*
X79300000Y-32000000D03*
X78050000Y-34165064D03*
X75550000Y-34165064D03*
X78965064Y-30750000D03*
X76800000Y-29500000D03*
X74634936Y-30750000D03*
X74634936Y-33250000D03*
X78965064Y-33250000D03*
X74300000Y-32000000D03*
X78050000Y-29834936D03*
X143300000Y-34500000D03*
X142050000Y-29834936D03*
X145800000Y-32000000D03*
X144550000Y-34165064D03*
X142050000Y-34165064D03*
X145465064Y-30750000D03*
X143300000Y-29500000D03*
X141134936Y-30750000D03*
X141134936Y-33250000D03*
X145465064Y-33250000D03*
X140800000Y-32000000D03*
X144550000Y-29834936D03*
X143300000Y-81500000D03*
X142050000Y-76834936D03*
X145800000Y-79000000D03*
X144550000Y-81165064D03*
X142050000Y-81165064D03*
X145465064Y-77750000D03*
X143300000Y-76500000D03*
X141134936Y-77750000D03*
X141134936Y-80250000D03*
X145465064Y-80250000D03*
X140800000Y-79000000D03*
X144550000Y-76834936D03*
X106800000Y-55400000D03*
X108274990Y-54300000D03*
X114800000Y-53300000D03*
X109072100Y-59179518D03*
X91300000Y-53000000D03*
X92100000Y-53000000D03*
X90500000Y-53000000D03*
X90500000Y-51400000D03*
X91300000Y-51400000D03*
X92100000Y-51400000D03*
X92100000Y-52200000D03*
X90500000Y-52200000D03*
X75000000Y-72600000D03*
X78000000Y-71600000D03*
X78000000Y-73600000D03*
X76000000Y-73600000D03*
X81000000Y-72600000D03*
X83000000Y-72600000D03*
X81000000Y-73600000D03*
X88000000Y-72600000D03*
X74000000Y-72600000D03*
X77000000Y-73600000D03*
X119500000Y-51000000D03*
X120500000Y-50000000D03*
X118500000Y-57000000D03*
X120500000Y-49000000D03*
X121500000Y-57000000D03*
X118500000Y-52000000D03*
X119500000Y-50000000D03*
X119500000Y-55000000D03*
X121500000Y-54000000D03*
X119500000Y-52000000D03*
X121500000Y-52000000D03*
X119500000Y-53000000D03*
X121500000Y-59000000D03*
X120500000Y-60000000D03*
X118500000Y-56000000D03*
X121500000Y-56000000D03*
X120500000Y-59000000D03*
X120500000Y-57000000D03*
X118500000Y-60000000D03*
X121500000Y-55000000D03*
X119500000Y-54000000D03*
X118500000Y-59000000D03*
X121500000Y-60000000D03*
X120500000Y-55000000D03*
X120500000Y-56000000D03*
X118500000Y-55000000D03*
X120500000Y-58000000D03*
X121500000Y-58000000D03*
X119500000Y-60000000D03*
X119500000Y-56000000D03*
X119500000Y-57000000D03*
X119500000Y-61000000D03*
X120500000Y-61000000D03*
X118500000Y-61000000D03*
X121500000Y-61000000D03*
X119500000Y-58000000D03*
X119500000Y-59000000D03*
X118500000Y-58000000D03*
X118500000Y-43000000D03*
X121500000Y-47000000D03*
X119500000Y-44000000D03*
X119500000Y-48000000D03*
X121500000Y-48000000D03*
X118500000Y-44000000D03*
X119500000Y-47000000D03*
X121500000Y-46000000D03*
X120500000Y-46000000D03*
X120500000Y-45000000D03*
X119500000Y-45000000D03*
X120500000Y-48000000D03*
X120500000Y-47000000D03*
X118500000Y-45000000D03*
X118500000Y-46000000D03*
X118500000Y-47000000D03*
X121500000Y-43000000D03*
X121500000Y-45000000D03*
X120500000Y-43000000D03*
X119500000Y-49000000D03*
X120500000Y-44000000D03*
X118500000Y-48000000D03*
X119500000Y-46000000D03*
X121500000Y-44000000D03*
X118500000Y-53000000D03*
X120500000Y-51000000D03*
X118500000Y-49000000D03*
X121500000Y-49000000D03*
X118500000Y-50000000D03*
X121500000Y-53000000D03*
X120500000Y-52000000D03*
X118500000Y-51000000D03*
X118500000Y-54000000D03*
X121500000Y-51000000D03*
X120500000Y-53000000D03*
X120500000Y-54000000D03*
X121500000Y-50000000D03*
X119500000Y-37000000D03*
X118500000Y-41000000D03*
X119500000Y-38000000D03*
X121500000Y-42000000D03*
X118500000Y-39000000D03*
X118500000Y-38000000D03*
X120500000Y-37000000D03*
X119500000Y-39000000D03*
X120500000Y-38000000D03*
X119500000Y-42000000D03*
X120500000Y-41000000D03*
X119500000Y-40000000D03*
X120500000Y-40000000D03*
X120500000Y-42000000D03*
X119500000Y-41000000D03*
X118500000Y-40000000D03*
X121500000Y-41000000D03*
X121500000Y-40000000D03*
X118500000Y-42000000D03*
X118500000Y-37000000D03*
X119500000Y-43000000D03*
X121500000Y-39000000D03*
X121500000Y-37000000D03*
X121500000Y-38000000D03*
X120500000Y-39000000D03*
X74000000Y-67600000D03*
X80000000Y-72600000D03*
X88000000Y-73600000D03*
X81000000Y-71600000D03*
X75000000Y-71600000D03*
X75000000Y-67600000D03*
X76000000Y-72600000D03*
X87000000Y-72600000D03*
X82000000Y-73600000D03*
X79000000Y-72600000D03*
X78000000Y-72600000D03*
X79000000Y-69600000D03*
X84000000Y-72600000D03*
X83000000Y-73600000D03*
X87000000Y-71600000D03*
X88000000Y-63600000D03*
X86000000Y-71600000D03*
X85000000Y-73600000D03*
X76000000Y-63600000D03*
X86000000Y-73600000D03*
X74000000Y-63600000D03*
X75000000Y-73600000D03*
X77000000Y-67600000D03*
X77000000Y-71600000D03*
X79000000Y-73600000D03*
X74000000Y-71600000D03*
X80000000Y-73600000D03*
X85000000Y-72600000D03*
X88000000Y-67600000D03*
X79000000Y-71600000D03*
X85000000Y-67600000D03*
X80000000Y-63600000D03*
X85000000Y-71600000D03*
X82000000Y-71600000D03*
X85000000Y-63600000D03*
X82000000Y-72600000D03*
X76000000Y-67600000D03*
X84000000Y-73600000D03*
X77000000Y-63600000D03*
X84000000Y-67600000D03*
X78000000Y-67600000D03*
X75000000Y-63600000D03*
X86000000Y-63600000D03*
X83000000Y-71600000D03*
X81000000Y-63600000D03*
X87000000Y-63600000D03*
X79000000Y-63600000D03*
X80000000Y-67600000D03*
X76000000Y-71600000D03*
X87000000Y-73600000D03*
X84000000Y-71600000D03*
X83000000Y-63600000D03*
X80000000Y-71600000D03*
X87000000Y-67600000D03*
X79000000Y-67600000D03*
X81000000Y-67600000D03*
X82000000Y-67600000D03*
X84000000Y-63600000D03*
X78000000Y-63600000D03*
X86000000Y-67600000D03*
X86000000Y-72600000D03*
X83000000Y-67600000D03*
X74000000Y-73600000D03*
X82000000Y-63600000D03*
X77000000Y-69600000D03*
X85000000Y-70600000D03*
X84000000Y-70600000D03*
X76000000Y-69600000D03*
X78000000Y-66600000D03*
X87000000Y-68600000D03*
X74000000Y-66600000D03*
X86000000Y-68600000D03*
X83000000Y-66600000D03*
X87000000Y-65600000D03*
X85000000Y-65600000D03*
X77000000Y-68600000D03*
X84000000Y-68600000D03*
X81000000Y-65600000D03*
X74000000Y-69600000D03*
X78000000Y-69600000D03*
X80000000Y-69600000D03*
X82000000Y-70600000D03*
X83000000Y-70600000D03*
X86000000Y-65600000D03*
X86000000Y-70600000D03*
X78000000Y-70600000D03*
X76000000Y-65600000D03*
X81000000Y-70600000D03*
X77000000Y-70600000D03*
X79000000Y-68600000D03*
X79000000Y-70600000D03*
X74000000Y-70600000D03*
X82000000Y-69600000D03*
X75000000Y-69600000D03*
X75000000Y-68600000D03*
X74000000Y-65600000D03*
X77000000Y-65600000D03*
X84000000Y-69600000D03*
X88000000Y-70600000D03*
X85000000Y-68600000D03*
X86000000Y-69600000D03*
X80000000Y-65600000D03*
X88000000Y-69600000D03*
X84000000Y-65600000D03*
X80000000Y-68600000D03*
X81000000Y-69600000D03*
X76000000Y-70600000D03*
X83000000Y-69600000D03*
X78000000Y-65600000D03*
X88000000Y-68600000D03*
X85000000Y-69600000D03*
X87000000Y-69600000D03*
X82000000Y-65600000D03*
X88000000Y-66600000D03*
X78000000Y-68600000D03*
X83000000Y-68600000D03*
X82000000Y-68600000D03*
X74000000Y-68600000D03*
X75000000Y-70600000D03*
X79000000Y-65600000D03*
X83000000Y-65600000D03*
X81000000Y-68600000D03*
X76000000Y-68600000D03*
X82000000Y-66600000D03*
X80000000Y-70600000D03*
X75000000Y-65600000D03*
X87000000Y-70600000D03*
X88000000Y-65600000D03*
X75000000Y-64600000D03*
X85000000Y-64600000D03*
X82000000Y-64600000D03*
X81000000Y-66600000D03*
X76000000Y-66600000D03*
X88000000Y-64600000D03*
X77000000Y-64600000D03*
X86000000Y-66600000D03*
X74000000Y-64600000D03*
X76000000Y-64600000D03*
X87000000Y-64600000D03*
X78000000Y-64600000D03*
X84000000Y-64600000D03*
X83000000Y-64600000D03*
X77000000Y-66600000D03*
X79000000Y-66600000D03*
X75000000Y-66600000D03*
X80000000Y-66600000D03*
X87000000Y-66600000D03*
X84000000Y-66600000D03*
X86000000Y-64600000D03*
X85000000Y-66600000D03*
X79000000Y-64600000D03*
X81000000Y-64600000D03*
X80000000Y-64600000D03*
X88000000Y-71600000D03*
X77000000Y-72600000D03*
X141000000Y-63600000D03*
X132000000Y-72600000D03*
X139000000Y-63600000D03*
X146000000Y-63600000D03*
X144000000Y-71600000D03*
X144000000Y-63600000D03*
X134000000Y-63600000D03*
X145000000Y-63600000D03*
X135000000Y-63600000D03*
X138000000Y-63600000D03*
X140000000Y-63600000D03*
X145000000Y-72600000D03*
X143000000Y-63600000D03*
X136000000Y-63600000D03*
X141000000Y-71600000D03*
X142000000Y-63600000D03*
X132000000Y-63600000D03*
X133000000Y-63600000D03*
X137000000Y-63600000D03*
X135000000Y-65600000D03*
X146000000Y-66600000D03*
X139000000Y-65600000D03*
X132000000Y-66600000D03*
X141000000Y-65600000D03*
X140000000Y-64600000D03*
X133000000Y-65600000D03*
X144000000Y-65600000D03*
X134000000Y-66600000D03*
X146000000Y-65600000D03*
X146000000Y-64600000D03*
X138000000Y-65600000D03*
X136000000Y-64600000D03*
X141000000Y-64600000D03*
X140000000Y-65600000D03*
X142000000Y-66600000D03*
X139000000Y-64600000D03*
X133000000Y-64600000D03*
X138000000Y-64600000D03*
X145000000Y-64600000D03*
X145000000Y-66600000D03*
X144000000Y-64600000D03*
X133000000Y-66600000D03*
X138000000Y-66600000D03*
X143000000Y-65600000D03*
X143000000Y-66600000D03*
X144000000Y-66600000D03*
X134000000Y-65600000D03*
X142000000Y-65600000D03*
X132000000Y-64600000D03*
X137000000Y-66600000D03*
X143000000Y-64600000D03*
X134000000Y-64600000D03*
X135000000Y-64600000D03*
X137000000Y-64600000D03*
X145000000Y-65600000D03*
X142000000Y-64600000D03*
X143000000Y-72600000D03*
X146000000Y-73600000D03*
X136000000Y-73600000D03*
X135000000Y-73600000D03*
X132000000Y-71600000D03*
X134000000Y-71600000D03*
X143000000Y-73600000D03*
X135000000Y-72600000D03*
X133000000Y-71600000D03*
X137000000Y-71600000D03*
X132000000Y-73600000D03*
X138000000Y-73600000D03*
X146000000Y-71600000D03*
X142000000Y-73600000D03*
X136000000Y-71600000D03*
X144000000Y-73600000D03*
X140000000Y-71600000D03*
X138000000Y-71600000D03*
X136000000Y-67600000D03*
X139000000Y-70600000D03*
X139000000Y-73600000D03*
X133000000Y-72600000D03*
X137000000Y-73600000D03*
X134000000Y-73600000D03*
X146000000Y-68600000D03*
X140000000Y-72600000D03*
X144000000Y-72600000D03*
X141000000Y-72600000D03*
X146000000Y-72600000D03*
X138000000Y-72600000D03*
X141000000Y-73600000D03*
X136000000Y-72600000D03*
X145000000Y-71600000D03*
X135000000Y-69600000D03*
X134000000Y-72600000D03*
X142000000Y-71600000D03*
X137000000Y-72600000D03*
X145000000Y-73600000D03*
X135000000Y-71600000D03*
X140000000Y-73600000D03*
X143000000Y-71600000D03*
X142000000Y-72600000D03*
X139000000Y-71600000D03*
X133000000Y-73600000D03*
X139000000Y-69600000D03*
X136000000Y-68600000D03*
X133000000Y-69600000D03*
X136000000Y-70600000D03*
X146000000Y-67600000D03*
X137000000Y-67600000D03*
X134000000Y-70600000D03*
X134000000Y-67600000D03*
X141000000Y-68600000D03*
X137000000Y-65600000D03*
X132000000Y-65600000D03*
X137000000Y-70600000D03*
X140000000Y-69600000D03*
X143000000Y-70600000D03*
X141000000Y-69600000D03*
X144000000Y-67600000D03*
X141000000Y-66600000D03*
X136000000Y-66600000D03*
X138000000Y-67600000D03*
X133000000Y-67600000D03*
X140000000Y-70600000D03*
X136000000Y-69600000D03*
X144000000Y-68600000D03*
X137000000Y-69600000D03*
X141000000Y-67600000D03*
X135000000Y-68600000D03*
X145000000Y-70600000D03*
X142000000Y-67600000D03*
X142000000Y-70600000D03*
X134000000Y-68600000D03*
X135000000Y-67600000D03*
X143000000Y-69600000D03*
X143000000Y-68600000D03*
X138000000Y-70600000D03*
X139000000Y-68600000D03*
X138000000Y-68600000D03*
X145000000Y-69600000D03*
X144000000Y-70600000D03*
X132000000Y-68600000D03*
X136000000Y-65600000D03*
X145000000Y-67600000D03*
X134000000Y-69600000D03*
X142000000Y-68600000D03*
X132000000Y-67600000D03*
X144000000Y-69600000D03*
X141000000Y-70600000D03*
X145000000Y-68600000D03*
X143000000Y-67600000D03*
X140000000Y-67600000D03*
X140000000Y-66600000D03*
X142000000Y-69600000D03*
X137000000Y-68600000D03*
X133000000Y-70600000D03*
X133000000Y-68600000D03*
X140000000Y-68600000D03*
X135000000Y-66600000D03*
X139000000Y-66600000D03*
X132000000Y-70600000D03*
X146000000Y-69600000D03*
X139000000Y-67600000D03*
X132000000Y-69600000D03*
X146000000Y-70600000D03*
X138000000Y-69600000D03*
X135000000Y-70600000D03*
X139000000Y-72600000D03*
X116500000Y-61100000D03*
X105000000Y-61225010D03*
X108700000Y-53300000D03*
X108310954Y-60674990D03*
X102300000Y-59574990D03*
X108800000Y-51900000D03*
X141000000Y-38200000D03*
X140000000Y-42200000D03*
X137000000Y-37200000D03*
X136000000Y-41200000D03*
X139000000Y-37200000D03*
X141000000Y-40200000D03*
X136000000Y-39200000D03*
X136000000Y-38200000D03*
X136000000Y-42200000D03*
X140000000Y-38200000D03*
X139000000Y-39200000D03*
X139000000Y-41200000D03*
X141000000Y-42200000D03*
X139000000Y-43200000D03*
X141000000Y-43200000D03*
X142000000Y-38200000D03*
X140000000Y-40200000D03*
X140000000Y-41200000D03*
X138000000Y-42200000D03*
X137000000Y-38200000D03*
X138000000Y-43200000D03*
X140000000Y-43200000D03*
X136000000Y-43200000D03*
X142000000Y-43200000D03*
X138000000Y-38200000D03*
X140000000Y-39200000D03*
X141000000Y-41200000D03*
X137000000Y-43200000D03*
X139000000Y-38200000D03*
X142000000Y-40200000D03*
X142000000Y-39200000D03*
X137000000Y-41200000D03*
X138000000Y-41200000D03*
X141000000Y-37200000D03*
X142000000Y-37200000D03*
X138000000Y-40200000D03*
X136000000Y-37200000D03*
X138000000Y-39200000D03*
X136000000Y-40200000D03*
X138000000Y-37200000D03*
X142000000Y-41200000D03*
X137000000Y-40200000D03*
X139000000Y-40200000D03*
X140000000Y-37200000D03*
X141000000Y-39200000D03*
X139000000Y-42200000D03*
X137000000Y-39200000D03*
X142000000Y-42200000D03*
X137000000Y-42200000D03*
X137000000Y-44200000D03*
X141000000Y-47200000D03*
X136000000Y-46200000D03*
X136000000Y-49200000D03*
X140000000Y-45200000D03*
X141000000Y-49200000D03*
X141000000Y-50200000D03*
X136000000Y-48200000D03*
X139000000Y-44200000D03*
X136000000Y-45200000D03*
X139000000Y-46200000D03*
X139000000Y-48200000D03*
X139000000Y-50200000D03*
X142000000Y-45200000D03*
X140000000Y-47200000D03*
X140000000Y-49200000D03*
X140000000Y-48200000D03*
X138000000Y-49200000D03*
X141000000Y-45200000D03*
X142000000Y-46200000D03*
X138000000Y-50200000D03*
X141000000Y-48200000D03*
X139000000Y-45200000D03*
X138000000Y-48200000D03*
X138000000Y-46200000D03*
X141000000Y-44200000D03*
X142000000Y-44200000D03*
X136000000Y-44200000D03*
X138000000Y-47200000D03*
X140000000Y-50200000D03*
X142000000Y-47200000D03*
X136000000Y-50200000D03*
X136000000Y-47200000D03*
X137000000Y-47200000D03*
X137000000Y-45200000D03*
X137000000Y-50200000D03*
X141000000Y-46200000D03*
X142000000Y-50200000D03*
X138000000Y-44200000D03*
X137000000Y-48200000D03*
X139000000Y-47200000D03*
X139000000Y-49200000D03*
X140000000Y-46200000D03*
X140000000Y-44200000D03*
X137000000Y-46200000D03*
X138000000Y-45200000D03*
X137000000Y-49200000D03*
X142000000Y-48200000D03*
X142000000Y-49200000D03*
X145000000Y-44200000D03*
X143000000Y-46200000D03*
X144000000Y-48200000D03*
X143000000Y-48200000D03*
X144000000Y-46200000D03*
X144000000Y-45200000D03*
X144000000Y-49200000D03*
X143000000Y-47200000D03*
X143000000Y-44200000D03*
X146000000Y-49200000D03*
X143000000Y-50200000D03*
X145000000Y-45200000D03*
X146000000Y-50200000D03*
X144000000Y-50200000D03*
X146000000Y-45200000D03*
X145000000Y-50200000D03*
X145000000Y-48200000D03*
X146000000Y-48200000D03*
X146000000Y-47200000D03*
X144000000Y-44200000D03*
X146000000Y-46200000D03*
X144000000Y-47200000D03*
X143000000Y-49200000D03*
X143000000Y-45200000D03*
X146000000Y-44200000D03*
X145000000Y-47200000D03*
X145000000Y-46200000D03*
X145000000Y-49200000D03*
X137000000Y-51200000D03*
X141000000Y-54200000D03*
X136000000Y-53200000D03*
X136000000Y-56200000D03*
X140000000Y-52200000D03*
X141000000Y-56200000D03*
X141000000Y-57200000D03*
X136000000Y-55200000D03*
X139000000Y-51200000D03*
X136000000Y-52200000D03*
X139000000Y-53200000D03*
X139000000Y-55200000D03*
X139000000Y-57200000D03*
X142000000Y-52200000D03*
X140000000Y-54200000D03*
X140000000Y-56200000D03*
X140000000Y-55200000D03*
X138000000Y-56200000D03*
X141000000Y-52200000D03*
X142000000Y-53200000D03*
X138000000Y-57200000D03*
X141000000Y-55200000D03*
X139000000Y-52200000D03*
X138000000Y-55200000D03*
X138000000Y-53200000D03*
X141000000Y-51200000D03*
X142000000Y-51200000D03*
X136000000Y-51200000D03*
X138000000Y-54200000D03*
X140000000Y-57200000D03*
X142000000Y-54200000D03*
X136000000Y-57200000D03*
X136000000Y-54200000D03*
X137000000Y-54200000D03*
X137000000Y-52200000D03*
X137000000Y-57200000D03*
X141000000Y-53200000D03*
X142000000Y-57200000D03*
X138000000Y-51200000D03*
X137000000Y-55200000D03*
X139000000Y-54200000D03*
X139000000Y-56200000D03*
X140000000Y-53200000D03*
X140000000Y-51200000D03*
X137000000Y-53200000D03*
X138000000Y-52200000D03*
X137000000Y-56200000D03*
X142000000Y-55200000D03*
X142000000Y-56200000D03*
X145000000Y-51200000D03*
X143000000Y-53200000D03*
X144000000Y-55200000D03*
X143000000Y-55200000D03*
X144000000Y-53200000D03*
X144000000Y-52200000D03*
X144000000Y-56200000D03*
X143000000Y-54200000D03*
X143000000Y-51200000D03*
X146000000Y-56200000D03*
X143000000Y-57200000D03*
X145000000Y-52200000D03*
X146000000Y-57200000D03*
X144000000Y-57200000D03*
X146000000Y-52200000D03*
X145000000Y-57200000D03*
X145000000Y-55200000D03*
X146000000Y-55200000D03*
X146000000Y-54200000D03*
X144000000Y-51200000D03*
X146000000Y-53200000D03*
X144000000Y-54200000D03*
X143000000Y-56200000D03*
X143000000Y-52200000D03*
X146000000Y-51200000D03*
X145000000Y-54200000D03*
X145000000Y-53200000D03*
X145000000Y-56200000D03*
X146000000Y-58200000D03*
X144000000Y-58200000D03*
X143000000Y-58200000D03*
X145000000Y-58200000D03*
X140000000Y-58200000D03*
X141000000Y-58200000D03*
X136000000Y-58200000D03*
X137000000Y-58200000D03*
X142000000Y-58200000D03*
X139000000Y-58200000D03*
X138000000Y-58200000D03*
X146000000Y-59200000D03*
X144000000Y-59200000D03*
X143000000Y-59200000D03*
X145000000Y-59200000D03*
X140000000Y-59200000D03*
X141000000Y-59200000D03*
X136000000Y-59200000D03*
X137000000Y-59200000D03*
X142000000Y-59200000D03*
X139000000Y-59200000D03*
X138000000Y-59200000D03*
X146000000Y-60200000D03*
X144000000Y-60200000D03*
X143000000Y-60200000D03*
X145000000Y-60200000D03*
X140000000Y-60200000D03*
X141000000Y-60200000D03*
X136000000Y-60200000D03*
X137000000Y-60200000D03*
X142000000Y-60200000D03*
X139000000Y-60200000D03*
X138000000Y-60200000D03*
X146000000Y-61200000D03*
X144000000Y-61200000D03*
X143000000Y-61200000D03*
X145000000Y-61200000D03*
X140000000Y-61200000D03*
X141000000Y-61200000D03*
X136000000Y-61200000D03*
X137000000Y-61200000D03*
X142000000Y-61200000D03*
X139000000Y-61200000D03*
X138000000Y-61200000D03*
X144000000Y-37200000D03*
X146000000Y-38200000D03*
X144000000Y-38200000D03*
X146000000Y-37200000D03*
X145000000Y-37200000D03*
X145000000Y-38200000D03*
X143000000Y-37200000D03*
X143000000Y-38200000D03*
X145000000Y-39200000D03*
X145000000Y-40200000D03*
X146000000Y-39200000D03*
X143000000Y-39200000D03*
X143000000Y-40200000D03*
X146000000Y-40200000D03*
X144000000Y-40200000D03*
X144000000Y-39200000D03*
X145000000Y-41200000D03*
X145000000Y-42200000D03*
X146000000Y-41200000D03*
X143000000Y-41200000D03*
X143000000Y-42200000D03*
X146000000Y-42200000D03*
X144000000Y-42200000D03*
X144000000Y-41200000D03*
X143000000Y-43200000D03*
X146000000Y-43200000D03*
X144000000Y-43200000D03*
X145000000Y-43200000D03*
X95500000Y-51300000D03*
X99400000Y-51300000D03*
X87700000Y-54700000D03*
X95600000Y-54700000D03*
X92674990Y-54700000D03*
X131500000Y-37000000D03*
X129500000Y-39000000D03*
X130500000Y-41000000D03*
X129500000Y-41000000D03*
X130500000Y-39000000D03*
X130500000Y-38000000D03*
X130500000Y-42000000D03*
X129500000Y-40000000D03*
X129500000Y-37000000D03*
X132500000Y-42000000D03*
X131500000Y-38000000D03*
X132500000Y-38000000D03*
X131500000Y-41000000D03*
X132500000Y-41000000D03*
X132500000Y-40000000D03*
X130500000Y-37000000D03*
X132500000Y-39000000D03*
X130500000Y-40000000D03*
X129500000Y-42000000D03*
X129500000Y-38000000D03*
X132500000Y-37000000D03*
X131500000Y-40000000D03*
X131500000Y-39000000D03*
X131500000Y-42000000D03*
X123500000Y-37000000D03*
X127500000Y-40000000D03*
X122500000Y-39000000D03*
X122500000Y-42000000D03*
X126500000Y-38000000D03*
X127500000Y-42000000D03*
X122500000Y-41000000D03*
X125500000Y-37000000D03*
X122500000Y-38000000D03*
X125500000Y-39000000D03*
X125500000Y-41000000D03*
X128500000Y-38000000D03*
X126500000Y-40000000D03*
X126500000Y-42000000D03*
X126500000Y-41000000D03*
X124500000Y-42000000D03*
X127500000Y-38000000D03*
X128500000Y-39000000D03*
X127500000Y-41000000D03*
X125500000Y-38000000D03*
X124500000Y-41000000D03*
X124500000Y-39000000D03*
X127500000Y-37000000D03*
X128500000Y-37000000D03*
X122500000Y-37000000D03*
X124500000Y-40000000D03*
X128500000Y-40000000D03*
X122500000Y-40000000D03*
X123500000Y-40000000D03*
X123500000Y-38000000D03*
X127500000Y-39000000D03*
X124500000Y-37000000D03*
X123500000Y-41000000D03*
X125500000Y-40000000D03*
X125500000Y-42000000D03*
X126500000Y-39000000D03*
X126500000Y-37000000D03*
X123500000Y-39000000D03*
X124500000Y-38000000D03*
X123500000Y-42000000D03*
X131500000Y-43000000D03*
X129500000Y-45000000D03*
X130500000Y-47000000D03*
X129500000Y-47000000D03*
X130500000Y-45000000D03*
X130500000Y-44000000D03*
X130500000Y-48000000D03*
X129500000Y-46000000D03*
X129500000Y-43000000D03*
X132500000Y-48000000D03*
X131500000Y-44000000D03*
X132500000Y-44000000D03*
X131500000Y-47000000D03*
X132500000Y-47000000D03*
X132500000Y-46000000D03*
X130500000Y-43000000D03*
X132500000Y-45000000D03*
X130500000Y-46000000D03*
X129500000Y-48000000D03*
X129500000Y-44000000D03*
X132500000Y-43000000D03*
X131500000Y-46000000D03*
X131500000Y-45000000D03*
X131500000Y-48000000D03*
X123500000Y-43000000D03*
X127500000Y-46000000D03*
X122500000Y-45000000D03*
X122500000Y-48000000D03*
X126500000Y-44000000D03*
X127500000Y-48000000D03*
X122500000Y-47000000D03*
X125500000Y-43000000D03*
X122500000Y-44000000D03*
X125500000Y-45000000D03*
X125500000Y-47000000D03*
X128500000Y-44000000D03*
X126500000Y-46000000D03*
X126500000Y-48000000D03*
X126500000Y-47000000D03*
X124500000Y-48000000D03*
X127500000Y-44000000D03*
X128500000Y-45000000D03*
X127500000Y-47000000D03*
X125500000Y-44000000D03*
X124500000Y-47000000D03*
X124500000Y-45000000D03*
X127500000Y-43000000D03*
X128500000Y-43000000D03*
X122500000Y-43000000D03*
X124500000Y-46000000D03*
X128500000Y-46000000D03*
X122500000Y-46000000D03*
X123500000Y-46000000D03*
X123500000Y-44000000D03*
X127500000Y-45000000D03*
X124500000Y-43000000D03*
X123500000Y-47000000D03*
X125500000Y-46000000D03*
X125500000Y-48000000D03*
X126500000Y-45000000D03*
X126500000Y-43000000D03*
X123500000Y-45000000D03*
X124500000Y-44000000D03*
X123500000Y-48000000D03*
X131500000Y-49000000D03*
X129500000Y-51000000D03*
X130500000Y-53000000D03*
X129500000Y-53000000D03*
X130500000Y-51000000D03*
X130500000Y-50000000D03*
X130500000Y-54000000D03*
X129500000Y-52000000D03*
X129500000Y-49000000D03*
X132500000Y-54000000D03*
X131500000Y-50000000D03*
X132500000Y-50000000D03*
X131500000Y-53000000D03*
X132500000Y-53000000D03*
X132500000Y-52000000D03*
X130500000Y-49000000D03*
X132500000Y-51000000D03*
X130500000Y-52000000D03*
X129500000Y-54000000D03*
X129500000Y-50000000D03*
X132500000Y-49000000D03*
X131500000Y-52000000D03*
X131500000Y-51000000D03*
X131500000Y-54000000D03*
X123500000Y-49000000D03*
X127500000Y-52000000D03*
X122500000Y-51000000D03*
X122500000Y-54000000D03*
X126500000Y-50000000D03*
X127500000Y-54000000D03*
X122500000Y-53000000D03*
X125500000Y-49000000D03*
X122500000Y-50000000D03*
X125500000Y-51000000D03*
X125500000Y-53000000D03*
X128500000Y-50000000D03*
X126500000Y-52000000D03*
X126500000Y-54000000D03*
X126500000Y-53000000D03*
X124500000Y-54000000D03*
X127500000Y-50000000D03*
X128500000Y-51000000D03*
X127500000Y-53000000D03*
X125500000Y-50000000D03*
X124500000Y-53000000D03*
X124500000Y-51000000D03*
X127500000Y-49000000D03*
X128500000Y-49000000D03*
X122500000Y-49000000D03*
X124500000Y-52000000D03*
X128500000Y-52000000D03*
X122500000Y-52000000D03*
X123500000Y-52000000D03*
X123500000Y-50000000D03*
X127500000Y-51000000D03*
X124500000Y-49000000D03*
X123500000Y-53000000D03*
X125500000Y-52000000D03*
X125500000Y-54000000D03*
X126500000Y-51000000D03*
X126500000Y-49000000D03*
X123500000Y-51000000D03*
X124500000Y-50000000D03*
X123500000Y-54000000D03*
X128500000Y-53000000D03*
X128500000Y-54000000D03*
X131500000Y-55000000D03*
X129500000Y-57000000D03*
X130500000Y-59000000D03*
X129500000Y-59000000D03*
X130500000Y-57000000D03*
X130500000Y-56000000D03*
X130500000Y-60000000D03*
X129500000Y-58000000D03*
X129500000Y-55000000D03*
X132500000Y-60000000D03*
X131500000Y-56000000D03*
X132500000Y-56000000D03*
X131500000Y-59000000D03*
X132500000Y-59000000D03*
X132500000Y-58000000D03*
X130500000Y-55000000D03*
X132500000Y-57000000D03*
X130500000Y-58000000D03*
X129500000Y-60000000D03*
X129500000Y-56000000D03*
X132500000Y-55000000D03*
X131500000Y-58000000D03*
X131500000Y-57000000D03*
X131500000Y-60000000D03*
X123500000Y-55000000D03*
X127500000Y-58000000D03*
X122500000Y-57000000D03*
X122500000Y-60000000D03*
X126500000Y-56000000D03*
X127500000Y-60000000D03*
X122500000Y-59000000D03*
X125500000Y-55000000D03*
X122500000Y-56000000D03*
X125500000Y-57000000D03*
X125500000Y-59000000D03*
X128500000Y-56000000D03*
X126500000Y-58000000D03*
X126500000Y-60000000D03*
X126500000Y-59000000D03*
X124500000Y-60000000D03*
X127500000Y-56000000D03*
X128500000Y-57000000D03*
X127500000Y-59000000D03*
X125500000Y-56000000D03*
X124500000Y-59000000D03*
X124500000Y-57000000D03*
X127500000Y-55000000D03*
X128500000Y-55000000D03*
X122500000Y-55000000D03*
X124500000Y-58000000D03*
X128500000Y-58000000D03*
X122500000Y-58000000D03*
X123500000Y-58000000D03*
X123500000Y-56000000D03*
X127500000Y-57000000D03*
X124500000Y-55000000D03*
X123500000Y-59000000D03*
X125500000Y-58000000D03*
X125500000Y-60000000D03*
X126500000Y-57000000D03*
X126500000Y-55000000D03*
X123500000Y-57000000D03*
X124500000Y-56000000D03*
X123500000Y-60000000D03*
X127500000Y-61000000D03*
X122500000Y-61000000D03*
X126500000Y-61000000D03*
X125500000Y-61000000D03*
X123500000Y-61000000D03*
X124500000Y-61000000D03*
X130500000Y-61000000D03*
X129500000Y-61000000D03*
X132500000Y-61000000D03*
X131500000Y-61000000D03*
X128500000Y-61000000D03*
X128500000Y-59000000D03*
X128500000Y-60000000D03*
X128500000Y-47000000D03*
X128500000Y-48000000D03*
X128500000Y-41000000D03*
X128500000Y-42000000D03*
X85000000Y-50400000D03*
X75000000Y-53400000D03*
X81000000Y-53400000D03*
X80000000Y-53400000D03*
X86000000Y-50400000D03*
X85000000Y-51400000D03*
X86000000Y-52400000D03*
X86000000Y-53400000D03*
X76000000Y-53400000D03*
X74000000Y-53400000D03*
X78000000Y-53400000D03*
X86000000Y-51400000D03*
X79000000Y-53400000D03*
X84000000Y-53400000D03*
X85000000Y-53400000D03*
X83000000Y-53400000D03*
X85000000Y-52400000D03*
X77000000Y-53400000D03*
X82000000Y-55400000D03*
X75000000Y-54400000D03*
X78000000Y-54400000D03*
X83000000Y-55400000D03*
X84000000Y-55400000D03*
X77000000Y-55400000D03*
X84000000Y-54400000D03*
X85000000Y-54400000D03*
X75000000Y-55400000D03*
X81000000Y-55400000D03*
X78000000Y-56400000D03*
X86000000Y-55400000D03*
X77000000Y-57400000D03*
X81000000Y-54400000D03*
X84000000Y-56400000D03*
X80000000Y-54400000D03*
X79000000Y-55400000D03*
X85000000Y-56400000D03*
X75000000Y-57400000D03*
X83000000Y-57400000D03*
X81000000Y-57400000D03*
X77000000Y-54400000D03*
X83000000Y-54400000D03*
X76000000Y-54400000D03*
X86000000Y-54400000D03*
X85000000Y-55400000D03*
X78000000Y-55400000D03*
X76000000Y-55400000D03*
X79000000Y-54400000D03*
X82000000Y-57400000D03*
X80000000Y-55400000D03*
X74000000Y-54400000D03*
X82000000Y-54400000D03*
X75000000Y-56400000D03*
X82000000Y-53400000D03*
X74000000Y-55400000D03*
X84000000Y-57400000D03*
X77000000Y-56400000D03*
X86000000Y-56400000D03*
X82000000Y-56400000D03*
X78000000Y-57400000D03*
X76000000Y-57400000D03*
X74000000Y-57400000D03*
X81000000Y-56400000D03*
X85000000Y-57400000D03*
X86000000Y-57400000D03*
X76000000Y-56400000D03*
X80000000Y-56400000D03*
X80000000Y-57400000D03*
X79000000Y-56400000D03*
X83000000Y-56400000D03*
X74000000Y-56400000D03*
X79000000Y-57400000D03*
X78000000Y-51400000D03*
X79000000Y-51400000D03*
X82000000Y-52400000D03*
X81000000Y-50400000D03*
X80000000Y-51400000D03*
X76000000Y-52400000D03*
X77000000Y-52400000D03*
X81000000Y-51400000D03*
X83000000Y-51400000D03*
X82000000Y-51400000D03*
X75000000Y-50400000D03*
X76000000Y-50400000D03*
X77000000Y-50400000D03*
X83000000Y-50400000D03*
X80000000Y-52400000D03*
X74000000Y-51400000D03*
X81000000Y-52400000D03*
X76000000Y-51400000D03*
X80000000Y-50400000D03*
X75000000Y-51400000D03*
X82000000Y-50400000D03*
X83000000Y-52400000D03*
X84000000Y-51400000D03*
X84000000Y-52400000D03*
X77000000Y-51400000D03*
X78000000Y-50400000D03*
X75000000Y-52400000D03*
X79000000Y-50400000D03*
X84000000Y-50400000D03*
X79000000Y-52400000D03*
X78000000Y-52400000D03*
X74000000Y-52400000D03*
X74000000Y-50400000D03*
D25*
X106225010Y-55974990D02*
X106800000Y-55400000D01*
X103975000Y-57000000D02*
X105000010Y-55974990D01*
X105000010Y-55974990D02*
X106225010Y-55974990D01*
X108674989Y-54699999D02*
X108274990Y-54300000D01*
X110376000Y-55108000D02*
X109082990Y-55108000D01*
X109082990Y-55108000D02*
X108674989Y-54699999D01*
X113000000Y-51025000D02*
X112975000Y-51000000D01*
X113000000Y-53500000D02*
X113000000Y-51025000D01*
X112042000Y-54458000D02*
X110376000Y-54458000D01*
X113000000Y-53500000D02*
X112042000Y-54458000D01*
X113200000Y-53300000D02*
X113000000Y-53500000D01*
X114800000Y-53300000D02*
X113200000Y-53300000D01*
X106025000Y-57000000D02*
X108204518Y-59179518D01*
X108204518Y-59179518D02*
X108506415Y-59179518D01*
X108506415Y-59179518D02*
X109072100Y-59179518D01*
X101450000Y-53175000D02*
X101425000Y-53200000D01*
X90275000Y-53175000D02*
X90050000Y-53175000D01*
X91250000Y-52200000D02*
X90275000Y-53175000D01*
X91300000Y-52200000D02*
X91300000Y-52200000D01*
X89100000Y-53175000D02*
X90050000Y-53175000D01*
X91300000Y-52200000D02*
X91250000Y-52200000D01*
X116000000Y-58500000D02*
X116500000Y-59000000D01*
X116000000Y-56750000D02*
X116000000Y-58500000D01*
X110532000Y-57500000D02*
X110000000Y-56968000D01*
X112500000Y-57500000D02*
X110532000Y-57500000D01*
D18*
X133405000Y-42095000D02*
X134450000Y-42095000D01*
X133400000Y-42100000D02*
X133405000Y-42095000D01*
X133400000Y-37220000D02*
X133400000Y-42100000D01*
X134450000Y-36995000D02*
X133625000Y-36995000D01*
X133625000Y-36995000D02*
X133400000Y-37220000D01*
X133400000Y-42100000D02*
X133400000Y-47200000D01*
X133405000Y-47195000D02*
X134450000Y-47195000D01*
X133400000Y-47200000D02*
X133405000Y-47195000D01*
X133400000Y-47200000D02*
X133400000Y-52300000D01*
X133405000Y-52295000D02*
X134450000Y-52295000D01*
X133400000Y-52300000D02*
X133405000Y-52295000D01*
X133400000Y-52300000D02*
X133400000Y-57400000D01*
X133405000Y-57395000D02*
X134450000Y-57395000D01*
X133400000Y-57400000D02*
X133405000Y-57395000D01*
X133400000Y-62100000D02*
X133400000Y-57400000D01*
D25*
X113250000Y-56750000D02*
X112500000Y-57500000D01*
X116000000Y-56750000D02*
X113250000Y-56750000D01*
D18*
X116500000Y-61600000D02*
X116500000Y-61100000D01*
X116500000Y-61100000D02*
X116500000Y-61100000D01*
X116500000Y-61600000D02*
X116600000Y-61600000D01*
X116600000Y-61600000D02*
X117500000Y-62500000D01*
X133000000Y-62500000D02*
X133400000Y-62100000D01*
X117500000Y-62500000D02*
X133000000Y-62500000D01*
X116500000Y-61100000D02*
X116500000Y-59000000D01*
D25*
X110000000Y-60300000D02*
X110400000Y-60700000D01*
X106050000Y-59500000D02*
X105000000Y-60550000D01*
X105000000Y-60550000D02*
X105000000Y-61225010D01*
X109492000Y-52508000D02*
X110376000Y-52508000D01*
X108700000Y-53300000D02*
X109492000Y-52508000D01*
X105025010Y-58474990D02*
X106676639Y-58474990D01*
X104000000Y-59500000D02*
X105025010Y-58474990D01*
X106676639Y-58474990D02*
X107600000Y-59398351D01*
X107600000Y-59964036D02*
X108310954Y-60674990D01*
X107600000Y-59398351D02*
X107600000Y-59964036D01*
X104000000Y-59500000D02*
X102374990Y-59500000D01*
X102374990Y-59500000D02*
X102300000Y-59574990D01*
X110334000Y-51900000D02*
X110376000Y-51858000D01*
X108800000Y-51900000D02*
X110334000Y-51900000D01*
X105434998Y-52508000D02*
X107950000Y-55023002D01*
X104500000Y-52508000D02*
X105434998Y-52508000D01*
X107950000Y-56168000D02*
X107950000Y-56968000D01*
X107950000Y-55023002D02*
X107950000Y-56168000D01*
X107950000Y-57768000D02*
X108482000Y-58300000D01*
X107950000Y-56968000D02*
X107950000Y-57768000D01*
X108482000Y-58300000D02*
X109800000Y-58300000D01*
X110500000Y-59000000D02*
X110500000Y-60700000D01*
X109800000Y-58300000D02*
X110500000Y-59000000D01*
X93525000Y-53200000D02*
X93500000Y-53175000D01*
X95550000Y-53200000D02*
X93525000Y-53200000D01*
X94450000Y-51225000D02*
X93500000Y-51225000D01*
X94525001Y-51300001D02*
X94450000Y-51225000D01*
X94525001Y-52175001D02*
X94525001Y-51300001D01*
X95550000Y-53200000D02*
X94525001Y-52175001D01*
X87700000Y-52325000D02*
X87700000Y-54700000D01*
X89100000Y-51875000D02*
X88150000Y-51875000D01*
X88150000Y-51875000D02*
X87700000Y-52325000D01*
X95600000Y-54700000D02*
X92674990Y-54700000D01*
X97550000Y-51375000D02*
X97550000Y-51300000D01*
X99375000Y-53200000D02*
X97550000Y-51375000D01*
X94400000Y-58675000D02*
X94400000Y-58800000D01*
X96699990Y-56375010D02*
X94400000Y-58675000D01*
X96699990Y-52150010D02*
X96699990Y-56375010D01*
X97550000Y-51300000D02*
X96699990Y-52150010D01*
X96926628Y-50676628D02*
X97550000Y-51300000D01*
X96524990Y-50274990D02*
X96926628Y-50676628D01*
X89575010Y-50274990D02*
X96524990Y-50274990D01*
X89100000Y-50750000D02*
X89575010Y-50274990D01*
X89100000Y-51225000D02*
X89100000Y-50750000D01*
X116673372Y-49359372D02*
X110280000Y-42966000D01*
X115025000Y-47711000D02*
X110280000Y-42966000D01*
X115025000Y-51000000D02*
X115025000Y-47711000D01*
D26*
G36*
X86700000Y-58300000D02*
G01*
X73300000Y-58300000D01*
X73300000Y-36500000D01*
X86700000Y-36500000D01*
X86700000Y-58300000D01*
X86700000Y-58300000D01*
G37*
X86700000Y-58300000D02*
X73300000Y-58300000D01*
X73300000Y-36500000D01*
X86700000Y-36500000D01*
X86700000Y-58300000D01*
G36*
X146800000Y-61700000D02*
G01*
X133800000Y-61700000D01*
X133800000Y-58200000D01*
X135400000Y-58200000D01*
X135419509Y-58198079D01*
X135438268Y-58192388D01*
X135455557Y-58183147D01*
X135470711Y-58170711D01*
X135483147Y-58155557D01*
X135492388Y-58138268D01*
X135498079Y-58119509D01*
X135500000Y-58100000D01*
X135500000Y-56700000D01*
X135498079Y-56680491D01*
X135492388Y-56661732D01*
X135483147Y-56644443D01*
X135470711Y-56629289D01*
X135455557Y-56616853D01*
X135438268Y-56607612D01*
X135419509Y-56601921D01*
X135400000Y-56600000D01*
X133800000Y-56600000D01*
X133800000Y-53100000D01*
X135400000Y-53100000D01*
X135419509Y-53098079D01*
X135438268Y-53092388D01*
X135455557Y-53083147D01*
X135470711Y-53070711D01*
X135483147Y-53055557D01*
X135492388Y-53038268D01*
X135498079Y-53019509D01*
X135500000Y-53000000D01*
X135500000Y-51600000D01*
X135498079Y-51580491D01*
X135492388Y-51561732D01*
X135483147Y-51544443D01*
X135470711Y-51529289D01*
X135455557Y-51516853D01*
X135438268Y-51507612D01*
X135419509Y-51501921D01*
X135400000Y-51500000D01*
X133800000Y-51500000D01*
X133800000Y-48000000D01*
X135400000Y-48000000D01*
X135419509Y-47998079D01*
X135438268Y-47992388D01*
X135455557Y-47983147D01*
X135470711Y-47970711D01*
X135483147Y-47955557D01*
X135492388Y-47938268D01*
X135498079Y-47919509D01*
X135500000Y-47900000D01*
X135500000Y-46500000D01*
X135498079Y-46480491D01*
X135492388Y-46461732D01*
X135483147Y-46444443D01*
X135470711Y-46429289D01*
X135455557Y-46416853D01*
X135438268Y-46407612D01*
X135419509Y-46401921D01*
X135400000Y-46400000D01*
X133800000Y-46400000D01*
X133800000Y-42900000D01*
X135400000Y-42900000D01*
X135419509Y-42898079D01*
X135438268Y-42892388D01*
X135455557Y-42883147D01*
X135470711Y-42870711D01*
X135483147Y-42855557D01*
X135492388Y-42838268D01*
X135498079Y-42819509D01*
X135500000Y-42800000D01*
X135500000Y-41400000D01*
X135498079Y-41380491D01*
X135492388Y-41361732D01*
X135483147Y-41344443D01*
X135470711Y-41329289D01*
X135455557Y-41316853D01*
X135438268Y-41307612D01*
X135419509Y-41301921D01*
X135400000Y-41300000D01*
X133800000Y-41300000D01*
X133800000Y-37800000D01*
X135400000Y-37800000D01*
X135419509Y-37798079D01*
X135438268Y-37792388D01*
X135455557Y-37783147D01*
X135470711Y-37770711D01*
X135483147Y-37755557D01*
X135492388Y-37738268D01*
X135498079Y-37719509D01*
X135500000Y-37700000D01*
X135500000Y-36500000D01*
X146800000Y-36500000D01*
X146800000Y-61700000D01*
X146800000Y-61700000D01*
G37*
X146800000Y-61700000D02*
X133800000Y-61700000D01*
X133800000Y-58200000D01*
X135400000Y-58200000D01*
X135419509Y-58198079D01*
X135438268Y-58192388D01*
X135455557Y-58183147D01*
X135470711Y-58170711D01*
X135483147Y-58155557D01*
X135492388Y-58138268D01*
X135498079Y-58119509D01*
X135500000Y-58100000D01*
X135500000Y-56700000D01*
X135498079Y-56680491D01*
X135492388Y-56661732D01*
X135483147Y-56644443D01*
X135470711Y-56629289D01*
X135455557Y-56616853D01*
X135438268Y-56607612D01*
X135419509Y-56601921D01*
X135400000Y-56600000D01*
X133800000Y-56600000D01*
X133800000Y-53100000D01*
X135400000Y-53100000D01*
X135419509Y-53098079D01*
X135438268Y-53092388D01*
X135455557Y-53083147D01*
X135470711Y-53070711D01*
X135483147Y-53055557D01*
X135492388Y-53038268D01*
X135498079Y-53019509D01*
X135500000Y-53000000D01*
X135500000Y-51600000D01*
X135498079Y-51580491D01*
X135492388Y-51561732D01*
X135483147Y-51544443D01*
X135470711Y-51529289D01*
X135455557Y-51516853D01*
X135438268Y-51507612D01*
X135419509Y-51501921D01*
X135400000Y-51500000D01*
X133800000Y-51500000D01*
X133800000Y-48000000D01*
X135400000Y-48000000D01*
X135419509Y-47998079D01*
X135438268Y-47992388D01*
X135455557Y-47983147D01*
X135470711Y-47970711D01*
X135483147Y-47955557D01*
X135492388Y-47938268D01*
X135498079Y-47919509D01*
X135500000Y-47900000D01*
X135500000Y-46500000D01*
X135498079Y-46480491D01*
X135492388Y-46461732D01*
X135483147Y-46444443D01*
X135470711Y-46429289D01*
X135455557Y-46416853D01*
X135438268Y-46407612D01*
X135419509Y-46401921D01*
X135400000Y-46400000D01*
X133800000Y-46400000D01*
X133800000Y-42900000D01*
X135400000Y-42900000D01*
X135419509Y-42898079D01*
X135438268Y-42892388D01*
X135455557Y-42883147D01*
X135470711Y-42870711D01*
X135483147Y-42855557D01*
X135492388Y-42838268D01*
X135498079Y-42819509D01*
X135500000Y-42800000D01*
X135500000Y-41400000D01*
X135498079Y-41380491D01*
X135492388Y-41361732D01*
X135483147Y-41344443D01*
X135470711Y-41329289D01*
X135455557Y-41316853D01*
X135438268Y-41307612D01*
X135419509Y-41301921D01*
X135400000Y-41300000D01*
X133800000Y-41300000D01*
X133800000Y-37800000D01*
X135400000Y-37800000D01*
X135419509Y-37798079D01*
X135438268Y-37792388D01*
X135455557Y-37783147D01*
X135470711Y-37770711D01*
X135483147Y-37755557D01*
X135492388Y-37738268D01*
X135498079Y-37719509D01*
X135500000Y-37700000D01*
X135500000Y-36500000D01*
X146800000Y-36500000D01*
X146800000Y-61700000D01*
G36*
X133000000Y-61600000D02*
G01*
X118100000Y-61600000D01*
X118100000Y-49500000D01*
X118098079Y-49480491D01*
X118092388Y-49461732D01*
X118083147Y-49444443D01*
X118070711Y-49429289D01*
X118055557Y-49416853D01*
X118038268Y-49407612D01*
X118019509Y-49401921D01*
X118000000Y-49400000D01*
X103800000Y-49400000D01*
X103800000Y-36500000D01*
X133000000Y-36500000D01*
X133000000Y-61600000D01*
X133000000Y-61600000D01*
G37*
X133000000Y-61600000D02*
X118100000Y-61600000D01*
X118100000Y-49500000D01*
X118098079Y-49480491D01*
X118092388Y-49461732D01*
X118083147Y-49444443D01*
X118070711Y-49429289D01*
X118055557Y-49416853D01*
X118038268Y-49407612D01*
X118019509Y-49401921D01*
X118000000Y-49400000D01*
X103800000Y-49400000D01*
X103800000Y-36500000D01*
X133000000Y-36500000D01*
X133000000Y-61600000D01*
G36*
X112542416Y-50009145D02*
G01*
X112438968Y-50040526D01*
X112343630Y-50091485D01*
X112260065Y-50160065D01*
X112191485Y-50243630D01*
X112140526Y-50338968D01*
X112109145Y-50442416D01*
X112098549Y-50549999D01*
X112098549Y-51450001D01*
X112109145Y-51557584D01*
X112140526Y-51661032D01*
X112191485Y-51756370D01*
X112260065Y-51839935D01*
X112343630Y-51908515D01*
X112438968Y-51959474D01*
X112542416Y-51990855D01*
X112575001Y-51994064D01*
X112575000Y-52623549D01*
X112549999Y-52623549D01*
X112442416Y-52634145D01*
X112338968Y-52665526D01*
X112243630Y-52716485D01*
X112160065Y-52785065D01*
X112091485Y-52868630D01*
X112040526Y-52963968D01*
X112009145Y-53067416D01*
X111998549Y-53174999D01*
X111998549Y-53825001D01*
X112005310Y-53893650D01*
X111865960Y-54033000D01*
X111414951Y-54033000D01*
X111414951Y-53583000D01*
X111409159Y-53524190D01*
X111396664Y-53483000D01*
X111409159Y-53441810D01*
X111414951Y-53383000D01*
X111414951Y-52933000D01*
X111409159Y-52874190D01*
X111396664Y-52833000D01*
X111409159Y-52791810D01*
X111414951Y-52733000D01*
X111414951Y-52283000D01*
X111409159Y-52224190D01*
X111396664Y-52183000D01*
X111409159Y-52141810D01*
X111414951Y-52083000D01*
X111414951Y-51633000D01*
X111409159Y-51574190D01*
X111396664Y-51533000D01*
X111409159Y-51491810D01*
X111414951Y-51433000D01*
X111414951Y-50983000D01*
X111409159Y-50924190D01*
X111396664Y-50883000D01*
X111409159Y-50841810D01*
X111414951Y-50783000D01*
X111414951Y-50333000D01*
X111409159Y-50274190D01*
X111392004Y-50217640D01*
X111364147Y-50165523D01*
X111326658Y-50119842D01*
X111280977Y-50082353D01*
X111228860Y-50054496D01*
X111172310Y-50037341D01*
X111113500Y-50031549D01*
X109638500Y-50031549D01*
X109579690Y-50037341D01*
X109523140Y-50054496D01*
X109471023Y-50082353D01*
X109425342Y-50119842D01*
X109387853Y-50165523D01*
X109359996Y-50217640D01*
X109342841Y-50274190D01*
X109337049Y-50333000D01*
X109337049Y-50783000D01*
X109342841Y-50841810D01*
X109355336Y-50883000D01*
X109342841Y-50924190D01*
X109337049Y-50983000D01*
X109337049Y-51433000D01*
X109338589Y-51448639D01*
X109246224Y-51356274D01*
X109131574Y-51279668D01*
X109004182Y-51226901D01*
X108868944Y-51200000D01*
X108731056Y-51200000D01*
X108595818Y-51226901D01*
X108468426Y-51279668D01*
X108353776Y-51356274D01*
X108256274Y-51453776D01*
X108179668Y-51568426D01*
X108126901Y-51695818D01*
X108100000Y-51831056D01*
X108100000Y-51968944D01*
X108126901Y-52104182D01*
X108179668Y-52231574D01*
X108256274Y-52346224D01*
X108353776Y-52443726D01*
X108468426Y-52520332D01*
X108595818Y-52573099D01*
X108731056Y-52600000D01*
X108631056Y-52600000D01*
X108495818Y-52626901D01*
X108368426Y-52679668D01*
X108253776Y-52756274D01*
X108156274Y-52853776D01*
X108079668Y-52968426D01*
X108026901Y-53095818D01*
X108000000Y-53231056D01*
X108000000Y-53368944D01*
X108026901Y-53504182D01*
X108077205Y-53625628D01*
X108070808Y-53626901D01*
X107943416Y-53679668D01*
X107828766Y-53756274D01*
X107731264Y-53853776D01*
X107654658Y-53968426D01*
X107608325Y-54080286D01*
X105750281Y-52222243D01*
X105736972Y-52206026D01*
X105672258Y-52152916D01*
X105598425Y-52113452D01*
X105537764Y-52095051D01*
X105538951Y-52083000D01*
X105538951Y-51633000D01*
X105533159Y-51574190D01*
X105520664Y-51533000D01*
X105533159Y-51491810D01*
X105538951Y-51433000D01*
X105538951Y-51311957D01*
X105564138Y-51299292D01*
X105658586Y-51225648D01*
X105736851Y-51134993D01*
X105795926Y-51030811D01*
X105833542Y-50917106D01*
X105845500Y-50835000D01*
X105693500Y-50683000D01*
X105252233Y-50683000D01*
X105237500Y-50681549D01*
X103762500Y-50681549D01*
X103747767Y-50683000D01*
X103306500Y-50683000D01*
X103154500Y-50835000D01*
X103166458Y-50917106D01*
X103204074Y-51030811D01*
X103263149Y-51134993D01*
X103341414Y-51225648D01*
X103435862Y-51299292D01*
X103461049Y-51311957D01*
X103461049Y-51433000D01*
X103466841Y-51491810D01*
X103479336Y-51533000D01*
X103466841Y-51574190D01*
X103461049Y-51633000D01*
X103461049Y-52083000D01*
X103466841Y-52141810D01*
X103479336Y-52183000D01*
X103466841Y-52224190D01*
X103461049Y-52283000D01*
X103461049Y-52733000D01*
X103466841Y-52791810D01*
X103479336Y-52833000D01*
X103466841Y-52874190D01*
X103461049Y-52933000D01*
X103461049Y-53383000D01*
X103466841Y-53441810D01*
X103479336Y-53483000D01*
X103466841Y-53524190D01*
X103461049Y-53583000D01*
X103461049Y-54033000D01*
X103466841Y-54091810D01*
X103479336Y-54133000D01*
X103466841Y-54174190D01*
X103461049Y-54233000D01*
X103461049Y-54683000D01*
X103466841Y-54741810D01*
X103479336Y-54783000D01*
X103466841Y-54824190D01*
X103461049Y-54883000D01*
X103461049Y-55333000D01*
X103466841Y-55391810D01*
X103483996Y-55448360D01*
X103511853Y-55500477D01*
X103549342Y-55546158D01*
X103595023Y-55583647D01*
X103647140Y-55611504D01*
X103703690Y-55628659D01*
X103762500Y-55634451D01*
X104745027Y-55634451D01*
X104698036Y-55673016D01*
X104684731Y-55689228D01*
X104368649Y-56005310D01*
X104300001Y-55998549D01*
X103649999Y-55998549D01*
X103542416Y-56009145D01*
X103438968Y-56040526D01*
X103343630Y-56091485D01*
X103260065Y-56160065D01*
X103191485Y-56243630D01*
X103140526Y-56338968D01*
X103109145Y-56442416D01*
X103098549Y-56549999D01*
X103098549Y-57450001D01*
X103109145Y-57557584D01*
X103140526Y-57661032D01*
X103191485Y-57756370D01*
X103260065Y-57839935D01*
X103343630Y-57908515D01*
X103438968Y-57959474D01*
X103542416Y-57990855D01*
X103649999Y-58001451D01*
X104300001Y-58001451D01*
X104407584Y-57990855D01*
X104511032Y-57959474D01*
X104606370Y-57908515D01*
X104689935Y-57839935D01*
X104758515Y-57756370D01*
X104809474Y-57661032D01*
X104840855Y-57557584D01*
X104851451Y-57450001D01*
X104851451Y-56724590D01*
X105170258Y-56405783D01*
X105159145Y-56442416D01*
X105148549Y-56549999D01*
X105148549Y-57450001D01*
X105159145Y-57557584D01*
X105190526Y-57661032D01*
X105241485Y-57756370D01*
X105310065Y-57839935D01*
X105393630Y-57908515D01*
X105488968Y-57959474D01*
X105592416Y-57990855D01*
X105699999Y-58001451D01*
X106350001Y-58001451D01*
X106418649Y-57994690D01*
X106473950Y-58049990D01*
X105045876Y-58049990D01*
X105025009Y-58047935D01*
X105004142Y-58049990D01*
X105004136Y-58049990D01*
X104950108Y-58055311D01*
X104941695Y-58056140D01*
X104919939Y-58062740D01*
X104861583Y-58080442D01*
X104787750Y-58119906D01*
X104723036Y-58173016D01*
X104709731Y-58189228D01*
X104393649Y-58505310D01*
X104325001Y-58498549D01*
X103674999Y-58498549D01*
X103567416Y-58509145D01*
X103463968Y-58540526D01*
X103368630Y-58591485D01*
X103285065Y-58660065D01*
X103216485Y-58743630D01*
X103165526Y-58838968D01*
X103134145Y-58942416D01*
X103123549Y-59049999D01*
X103123549Y-59075000D01*
X102789960Y-59075000D01*
X102746224Y-59031264D01*
X102631574Y-58954658D01*
X102504182Y-58901891D01*
X102368944Y-58874990D01*
X102231056Y-58874990D01*
X102095818Y-58901891D01*
X101968426Y-58954658D01*
X101853776Y-59031264D01*
X101756274Y-59128766D01*
X101679668Y-59243416D01*
X101626901Y-59370808D01*
X101600000Y-59506046D01*
X101600000Y-59643934D01*
X101626901Y-59779172D01*
X101679668Y-59906564D01*
X101756274Y-60021214D01*
X101853776Y-60118716D01*
X101968426Y-60195322D01*
X102095818Y-60248089D01*
X102231056Y-60274990D01*
X102368944Y-60274990D01*
X102504182Y-60248089D01*
X102631574Y-60195322D01*
X102746224Y-60118716D01*
X102843726Y-60021214D01*
X102908014Y-59925000D01*
X103123549Y-59925000D01*
X103123549Y-59950001D01*
X103134145Y-60057584D01*
X103165526Y-60161032D01*
X103216485Y-60256370D01*
X103285065Y-60339935D01*
X103368630Y-60408515D01*
X103463968Y-60459474D01*
X103567416Y-60490855D01*
X103674999Y-60501451D01*
X104325001Y-60501451D01*
X104432584Y-60490855D01*
X104536032Y-60459474D01*
X104592493Y-60429295D01*
X104582348Y-60462739D01*
X104581150Y-60466687D01*
X104575000Y-60529127D01*
X104575000Y-60529133D01*
X104572945Y-60550000D01*
X104575000Y-60570867D01*
X104575000Y-60667103D01*
X104553776Y-60681284D01*
X104456274Y-60778786D01*
X104379668Y-60893436D01*
X104326901Y-61020828D01*
X104300000Y-61156066D01*
X104300000Y-61293954D01*
X104326901Y-61429192D01*
X104379668Y-61556584D01*
X104456274Y-61671234D01*
X104553776Y-61768736D01*
X104668426Y-61845342D01*
X104795818Y-61898109D01*
X104931056Y-61925010D01*
X105068944Y-61925010D01*
X105204182Y-61898109D01*
X105331574Y-61845342D01*
X105446224Y-61768736D01*
X105543726Y-61671234D01*
X105620332Y-61556584D01*
X105673099Y-61429192D01*
X105700000Y-61293954D01*
X105700000Y-61156066D01*
X105673099Y-61020828D01*
X105620332Y-60893436D01*
X105543726Y-60778786D01*
X105457990Y-60693050D01*
X105656351Y-60494690D01*
X105724999Y-60501451D01*
X106375001Y-60501451D01*
X106482584Y-60490855D01*
X106586032Y-60459474D01*
X106681370Y-60408515D01*
X106764935Y-60339935D01*
X106833515Y-60256370D01*
X106884474Y-60161032D01*
X106915855Y-60057584D01*
X106926451Y-59950001D01*
X106926451Y-59325842D01*
X107175000Y-59574391D01*
X107175001Y-59943160D01*
X107172945Y-59964036D01*
X107181150Y-60047350D01*
X107191226Y-60080564D01*
X107205453Y-60127463D01*
X107244917Y-60201296D01*
X107267461Y-60228766D01*
X107283268Y-60248026D01*
X107298027Y-60266010D01*
X107314239Y-60279315D01*
X107615934Y-60581010D01*
X107610954Y-60606046D01*
X107610954Y-60743934D01*
X107637855Y-60879172D01*
X107690622Y-61006564D01*
X107767228Y-61121214D01*
X107864730Y-61218716D01*
X107979380Y-61295322D01*
X108106772Y-61348089D01*
X108242010Y-61374990D01*
X108379898Y-61374990D01*
X108515136Y-61348089D01*
X108642528Y-61295322D01*
X108757178Y-61218716D01*
X108854680Y-61121214D01*
X108931286Y-61006564D01*
X108984053Y-60879172D01*
X109010954Y-60743934D01*
X109010954Y-60606046D01*
X108984053Y-60470808D01*
X108931286Y-60343416D01*
X108854680Y-60228766D01*
X108757178Y-60131264D01*
X108642528Y-60054658D01*
X108515136Y-60001891D01*
X108379898Y-59974990D01*
X108242010Y-59974990D01*
X108216974Y-59979970D01*
X108025000Y-59787996D01*
X108025000Y-59565465D01*
X108041091Y-59574066D01*
X108096901Y-59590996D01*
X108121203Y-59598368D01*
X108128845Y-59599121D01*
X108183644Y-59604518D01*
X108183651Y-59604518D01*
X108204518Y-59606573D01*
X108225385Y-59604518D01*
X108514193Y-59604518D01*
X108528374Y-59625742D01*
X108625876Y-59723244D01*
X108740526Y-59799850D01*
X108867918Y-59852617D01*
X109003156Y-59879518D01*
X109141044Y-59879518D01*
X109276282Y-59852617D01*
X109403674Y-59799850D01*
X109448549Y-59769866D01*
X109448549Y-61950000D01*
X109454341Y-62008810D01*
X109471496Y-62065360D01*
X109499353Y-62117477D01*
X109536842Y-62163158D01*
X109582523Y-62200647D01*
X109634640Y-62228504D01*
X109691190Y-62245659D01*
X109750000Y-62251451D01*
X111250000Y-62251451D01*
X111308810Y-62245659D01*
X111365360Y-62228504D01*
X111417477Y-62200647D01*
X111463158Y-62163158D01*
X111500647Y-62117477D01*
X111528504Y-62065360D01*
X111545659Y-62008810D01*
X111551451Y-61950000D01*
X111551451Y-60681552D01*
X111566203Y-60689437D01*
X111680811Y-60724203D01*
X111800000Y-60735942D01*
X112194000Y-60733000D01*
X112346000Y-60581000D01*
X112346000Y-59704000D01*
X112326000Y-59704000D01*
X112326000Y-59396000D01*
X112346000Y-59396000D01*
X112346000Y-59376000D01*
X112654000Y-59376000D01*
X112654000Y-59396000D01*
X112674000Y-59396000D01*
X112674000Y-59704000D01*
X112654000Y-59704000D01*
X112654000Y-60581000D01*
X112806000Y-60733000D01*
X113200000Y-60735942D01*
X113319189Y-60724203D01*
X113433797Y-60689437D01*
X113539421Y-60632980D01*
X113632001Y-60557001D01*
X113707980Y-60464421D01*
X113764437Y-60358797D01*
X113781740Y-60301757D01*
X113875000Y-60310942D01*
X114144000Y-60308000D01*
X114296000Y-60156000D01*
X114296000Y-59154000D01*
X114276000Y-59154000D01*
X114276000Y-58846000D01*
X114296000Y-58846000D01*
X114296000Y-57844000D01*
X114144000Y-57692000D01*
X113875000Y-57689058D01*
X113755811Y-57700797D01*
X113641203Y-57735563D01*
X113535579Y-57792020D01*
X113501451Y-57820028D01*
X113501451Y-57175000D01*
X115198549Y-57175000D01*
X115198549Y-57250000D01*
X115204341Y-57308810D01*
X115221496Y-57365360D01*
X115249353Y-57417477D01*
X115286842Y-57463158D01*
X115332523Y-57500647D01*
X115384640Y-57528504D01*
X115441190Y-57545659D01*
X115500000Y-57551451D01*
X115575000Y-57551451D01*
X115575001Y-58039195D01*
X115532980Y-57960579D01*
X115457001Y-57867999D01*
X115364421Y-57792020D01*
X115258797Y-57735563D01*
X115144189Y-57700797D01*
X115025000Y-57689058D01*
X114756000Y-57692000D01*
X114604000Y-57844000D01*
X114604000Y-58846000D01*
X114624000Y-58846000D01*
X114624000Y-59154000D01*
X114604000Y-59154000D01*
X114604000Y-60156000D01*
X114756000Y-60308000D01*
X115025000Y-60310942D01*
X115144189Y-60299203D01*
X115258797Y-60264437D01*
X115364421Y-60207980D01*
X115457001Y-60132001D01*
X115532980Y-60039421D01*
X115589437Y-59933797D01*
X115624203Y-59819189D01*
X115635942Y-59700000D01*
X115634897Y-59560063D01*
X115665526Y-59661032D01*
X115716485Y-59756370D01*
X115785065Y-59839935D01*
X115868630Y-59908515D01*
X115963968Y-59959474D01*
X116067416Y-59990855D01*
X116150001Y-59998989D01*
X116150000Y-60491980D01*
X116053776Y-60556274D01*
X115956274Y-60653776D01*
X115879668Y-60768426D01*
X115826901Y-60895818D01*
X115800000Y-61031056D01*
X115800000Y-61168944D01*
X115826901Y-61304182D01*
X115879668Y-61431574D01*
X115956274Y-61546224D01*
X116053776Y-61643726D01*
X116168426Y-61720332D01*
X116171088Y-61721435D01*
X116175078Y-61734587D01*
X116207578Y-61795390D01*
X116251315Y-61848685D01*
X116304610Y-61892422D01*
X116365413Y-61924922D01*
X116431388Y-61944935D01*
X116438739Y-61945659D01*
X116451991Y-61946964D01*
X117240355Y-62735330D01*
X117251315Y-62748685D01*
X117304610Y-62792422D01*
X117365413Y-62824922D01*
X117400000Y-62835414D01*
X117400000Y-63000000D01*
X117401921Y-63019509D01*
X117407612Y-63038268D01*
X117416853Y-63055557D01*
X117429289Y-63070711D01*
X117444443Y-63083147D01*
X117461732Y-63092388D01*
X117480491Y-63098079D01*
X117500000Y-63100000D01*
X146799572Y-63100000D01*
X146750427Y-74600000D01*
X73250428Y-74600000D01*
X73299573Y-63100000D01*
X87400000Y-63100000D01*
X87419509Y-63098079D01*
X87438268Y-63092388D01*
X87455557Y-63083147D01*
X87470711Y-63070711D01*
X87483147Y-63055557D01*
X87492388Y-63038268D01*
X87498079Y-63019509D01*
X87500000Y-63000000D01*
X87500000Y-58618508D01*
X90750000Y-58618508D01*
X90750000Y-58981491D01*
X90766640Y-59150438D01*
X90832398Y-59367214D01*
X90939184Y-59566996D01*
X91082893Y-59742107D01*
X91258003Y-59885816D01*
X91457785Y-59992602D01*
X91674561Y-60058360D01*
X91900000Y-60080564D01*
X92125438Y-60058360D01*
X92342214Y-59992602D01*
X92541996Y-59885816D01*
X92717107Y-59742107D01*
X92860816Y-59566997D01*
X92967602Y-59367215D01*
X93033360Y-59150439D01*
X93050000Y-58981492D01*
X93050000Y-58618509D01*
X93033360Y-58449562D01*
X92967602Y-58232786D01*
X92860816Y-58033004D01*
X92717107Y-57857893D01*
X92541997Y-57714184D01*
X92342215Y-57607398D01*
X92125439Y-57541640D01*
X91900000Y-57519436D01*
X91674562Y-57541640D01*
X91457786Y-57607398D01*
X91258004Y-57714184D01*
X91082894Y-57857893D01*
X90939184Y-58033003D01*
X90832398Y-58232785D01*
X90766640Y-58449561D01*
X90750000Y-58618508D01*
X87500000Y-58618508D01*
X87500000Y-55373931D01*
X87631056Y-55400000D01*
X87768944Y-55400000D01*
X87904182Y-55373099D01*
X88031574Y-55320332D01*
X88146224Y-55243726D01*
X88243726Y-55146224D01*
X88320332Y-55031574D01*
X88373099Y-54904182D01*
X88400000Y-54768944D01*
X88400000Y-54631056D01*
X88373099Y-54495818D01*
X88320332Y-54368426D01*
X88243726Y-54253776D01*
X88146224Y-54156274D01*
X88125000Y-54142093D01*
X88125000Y-53942260D01*
X88180893Y-53970300D01*
X88296363Y-54002088D01*
X88415816Y-54010737D01*
X88794000Y-54008000D01*
X88946000Y-53856000D01*
X88946000Y-53300000D01*
X88926000Y-53300000D01*
X88926000Y-53051451D01*
X89274000Y-53051451D01*
X89274000Y-53300000D01*
X89254000Y-53300000D01*
X89254000Y-53856000D01*
X89406000Y-54008000D01*
X89784184Y-54010737D01*
X89903637Y-54002088D01*
X90019107Y-53970300D01*
X90126157Y-53916596D01*
X90220673Y-53843040D01*
X90299023Y-53752458D01*
X90300421Y-53749999D01*
X90310000Y-53750942D01*
X90994000Y-53748000D01*
X91146000Y-53596000D01*
X91146000Y-52354000D01*
X91126000Y-52354000D01*
X91126000Y-52046000D01*
X91146000Y-52046000D01*
X91146000Y-52026000D01*
X91454000Y-52026000D01*
X91454000Y-52046000D01*
X91474000Y-52046000D01*
X91474000Y-52354000D01*
X91454000Y-52354000D01*
X91454000Y-53596000D01*
X91606000Y-53748000D01*
X92290000Y-53750942D01*
X92409189Y-53739203D01*
X92523797Y-53704437D01*
X92629332Y-53648028D01*
X92632523Y-53650647D01*
X92684640Y-53678504D01*
X92741190Y-53695659D01*
X92800000Y-53701451D01*
X94200000Y-53701451D01*
X94258810Y-53695659D01*
X94315360Y-53678504D01*
X94367477Y-53650647D01*
X94398728Y-53625000D01*
X94673549Y-53625000D01*
X94673549Y-53650001D01*
X94684145Y-53757584D01*
X94715526Y-53861032D01*
X94766485Y-53956370D01*
X94835065Y-54039935D01*
X94918630Y-54108515D01*
X95013968Y-54159474D01*
X95117416Y-54190855D01*
X95119035Y-54191015D01*
X95056274Y-54253776D01*
X95042093Y-54275000D01*
X93232897Y-54275000D01*
X93218716Y-54253776D01*
X93121214Y-54156274D01*
X93006564Y-54079668D01*
X92879172Y-54026901D01*
X92743934Y-54000000D01*
X92606046Y-54000000D01*
X92470808Y-54026901D01*
X92343416Y-54079668D01*
X92228766Y-54156274D01*
X92131264Y-54253776D01*
X92054658Y-54368426D01*
X92001891Y-54495818D01*
X91974990Y-54631056D01*
X91974990Y-54768944D01*
X92001891Y-54904182D01*
X92054658Y-55031574D01*
X92131264Y-55146224D01*
X92228766Y-55243726D01*
X92343416Y-55320332D01*
X92470808Y-55373099D01*
X92606046Y-55400000D01*
X92743934Y-55400000D01*
X92879172Y-55373099D01*
X93006564Y-55320332D01*
X93121214Y-55243726D01*
X93218716Y-55146224D01*
X93232897Y-55125000D01*
X95042093Y-55125000D01*
X95056274Y-55146224D01*
X95153776Y-55243726D01*
X95268426Y-55320332D01*
X95395818Y-55373099D01*
X95531056Y-55400000D01*
X95668944Y-55400000D01*
X95804182Y-55373099D01*
X95931574Y-55320332D01*
X96046224Y-55243726D01*
X96143726Y-55146224D01*
X96220332Y-55031574D01*
X96273099Y-54904182D01*
X96274991Y-54894672D01*
X96274991Y-56198968D01*
X94858081Y-57615879D01*
X94842215Y-57607398D01*
X94625439Y-57541640D01*
X94400000Y-57519436D01*
X94174562Y-57541640D01*
X93957786Y-57607398D01*
X93758004Y-57714184D01*
X93582894Y-57857893D01*
X93439184Y-58033003D01*
X93332398Y-58232785D01*
X93266640Y-58449561D01*
X93250000Y-58618508D01*
X93250000Y-58981491D01*
X93266640Y-59150438D01*
X93332398Y-59367214D01*
X93439184Y-59566996D01*
X93582893Y-59742107D01*
X93758003Y-59885816D01*
X93957785Y-59992602D01*
X94174561Y-60058360D01*
X94400000Y-60080564D01*
X94625438Y-60058360D01*
X94842214Y-59992602D01*
X95041996Y-59885816D01*
X95217107Y-59742107D01*
X95360816Y-59566997D01*
X95467602Y-59367215D01*
X95493931Y-59280420D01*
X95543591Y-59456316D01*
X95673309Y-59710729D01*
X95850168Y-59934947D01*
X96067371Y-60120353D01*
X96316572Y-60259822D01*
X96521090Y-60332903D01*
X96746000Y-60221889D01*
X96746000Y-58954000D01*
X96726000Y-58954000D01*
X96726000Y-58646000D01*
X96746000Y-58646000D01*
X96746000Y-57378111D01*
X97054000Y-57378111D01*
X97054000Y-58646000D01*
X97074000Y-58646000D01*
X97074000Y-58954000D01*
X97054000Y-58954000D01*
X97054000Y-60221889D01*
X97278910Y-60332903D01*
X97483428Y-60259822D01*
X97732629Y-60120353D01*
X97949832Y-59934947D01*
X98126691Y-59710729D01*
X98248549Y-59471732D01*
X98248549Y-59525000D01*
X98259145Y-59632583D01*
X98290526Y-59736031D01*
X98341485Y-59831370D01*
X98410065Y-59914935D01*
X98493630Y-59983515D01*
X98588969Y-60034474D01*
X98692417Y-60065855D01*
X98800000Y-60076451D01*
X100000000Y-60076451D01*
X100107583Y-60065855D01*
X100211031Y-60034474D01*
X100306370Y-59983515D01*
X100389935Y-59914935D01*
X100458515Y-59831370D01*
X100509474Y-59736031D01*
X100540855Y-59632583D01*
X100551451Y-59525000D01*
X100551451Y-58075000D01*
X100540855Y-57967417D01*
X100509474Y-57863969D01*
X100458515Y-57768630D01*
X100389935Y-57685065D01*
X100306370Y-57616485D01*
X100211031Y-57565526D01*
X100107583Y-57534145D01*
X100000000Y-57523549D01*
X98800000Y-57523549D01*
X98692417Y-57534145D01*
X98588969Y-57565526D01*
X98493630Y-57616485D01*
X98410065Y-57685065D01*
X98341485Y-57768630D01*
X98290526Y-57863969D01*
X98259145Y-57967417D01*
X98248549Y-58075000D01*
X98248549Y-58128268D01*
X98126691Y-57889271D01*
X97949832Y-57665053D01*
X97732629Y-57479647D01*
X97483428Y-57340178D01*
X97278910Y-57267097D01*
X97054000Y-57378111D01*
X96746000Y-57378111D01*
X96521090Y-57267097D01*
X96346589Y-57329452D01*
X96985752Y-56690289D01*
X97001964Y-56676984D01*
X97018961Y-56656274D01*
X97037121Y-56634145D01*
X97055074Y-56612270D01*
X97094538Y-56538437D01*
X97115306Y-56469974D01*
X97118840Y-56458325D01*
X97121165Y-56434720D01*
X97124990Y-56395884D01*
X97124990Y-56395878D01*
X97127045Y-56375011D01*
X97124990Y-56354144D01*
X97124990Y-54509848D01*
X97294000Y-54508000D01*
X97446000Y-54356000D01*
X97446000Y-53354000D01*
X97426000Y-53354000D01*
X97426000Y-53046000D01*
X97446000Y-53046000D01*
X97446000Y-53026000D01*
X97754000Y-53026000D01*
X97754000Y-53046000D01*
X97774000Y-53046000D01*
X97774000Y-53354000D01*
X97754000Y-53354000D01*
X97754000Y-54356000D01*
X97906000Y-54508000D01*
X98175000Y-54510942D01*
X98294189Y-54499203D01*
X98408797Y-54464437D01*
X98514421Y-54407980D01*
X98607001Y-54332001D01*
X98682980Y-54239421D01*
X98739437Y-54133797D01*
X98746621Y-54110114D01*
X98838968Y-54159474D01*
X98942416Y-54190855D01*
X99049999Y-54201451D01*
X99700001Y-54201451D01*
X99807584Y-54190855D01*
X99911032Y-54159474D01*
X100006370Y-54108515D01*
X100089935Y-54039935D01*
X100158515Y-53956370D01*
X100209474Y-53861032D01*
X100240103Y-53760063D01*
X100239058Y-53900000D01*
X100250797Y-54019189D01*
X100285563Y-54133797D01*
X100342020Y-54239421D01*
X100417999Y-54332001D01*
X100510579Y-54407980D01*
X100616203Y-54464437D01*
X100730811Y-54499203D01*
X100850000Y-54510942D01*
X101119000Y-54508000D01*
X101271000Y-54356000D01*
X101271000Y-53354000D01*
X101579000Y-53354000D01*
X101579000Y-54356000D01*
X101731000Y-54508000D01*
X102000000Y-54510942D01*
X102119189Y-54499203D01*
X102233797Y-54464437D01*
X102339421Y-54407980D01*
X102432001Y-54332001D01*
X102507980Y-54239421D01*
X102564437Y-54133797D01*
X102599203Y-54019189D01*
X102610942Y-53900000D01*
X102608000Y-53506000D01*
X102456000Y-53354000D01*
X101579000Y-53354000D01*
X101271000Y-53354000D01*
X101251000Y-53354000D01*
X101251000Y-53046000D01*
X101271000Y-53046000D01*
X101271000Y-52481000D01*
X101296000Y-52456000D01*
X101296000Y-52044000D01*
X101579000Y-52044000D01*
X101579000Y-53046000D01*
X102456000Y-53046000D01*
X102608000Y-52894000D01*
X102610942Y-52500000D01*
X102599203Y-52380811D01*
X102567217Y-52275368D01*
X102589437Y-52233797D01*
X102624203Y-52119189D01*
X102635942Y-52000000D01*
X102633000Y-51606000D01*
X102481000Y-51454000D01*
X101604000Y-51454000D01*
X101604000Y-52019000D01*
X101579000Y-52044000D01*
X101296000Y-52044000D01*
X101296000Y-51454000D01*
X101276000Y-51454000D01*
X101276000Y-51146000D01*
X101296000Y-51146000D01*
X101296000Y-51126000D01*
X101604000Y-51126000D01*
X101604000Y-51146000D01*
X102481000Y-51146000D01*
X102633000Y-50994000D01*
X102635942Y-50600000D01*
X102624203Y-50480811D01*
X102589437Y-50366203D01*
X102532980Y-50260579D01*
X102457001Y-50167999D01*
X102364421Y-50092020D01*
X102285807Y-50050000D01*
X103224027Y-50050000D01*
X103204074Y-50085189D01*
X103166458Y-50198894D01*
X103154500Y-50281000D01*
X103306500Y-50433000D01*
X104346000Y-50433000D01*
X104346000Y-50384000D01*
X104654000Y-50384000D01*
X104654000Y-50433000D01*
X105693500Y-50433000D01*
X105845500Y-50281000D01*
X105833542Y-50198894D01*
X105795926Y-50085189D01*
X105747621Y-50000000D01*
X112635267Y-50000000D01*
X112542416Y-50009145D01*
X112542416Y-50009145D01*
G37*
X112542416Y-50009145D02*
X112438968Y-50040526D01*
X112343630Y-50091485D01*
X112260065Y-50160065D01*
X112191485Y-50243630D01*
X112140526Y-50338968D01*
X112109145Y-50442416D01*
X112098549Y-50549999D01*
X112098549Y-51450001D01*
X112109145Y-51557584D01*
X112140526Y-51661032D01*
X112191485Y-51756370D01*
X112260065Y-51839935D01*
X112343630Y-51908515D01*
X112438968Y-51959474D01*
X112542416Y-51990855D01*
X112575001Y-51994064D01*
X112575000Y-52623549D01*
X112549999Y-52623549D01*
X112442416Y-52634145D01*
X112338968Y-52665526D01*
X112243630Y-52716485D01*
X112160065Y-52785065D01*
X112091485Y-52868630D01*
X112040526Y-52963968D01*
X112009145Y-53067416D01*
X111998549Y-53174999D01*
X111998549Y-53825001D01*
X112005310Y-53893650D01*
X111865960Y-54033000D01*
X111414951Y-54033000D01*
X111414951Y-53583000D01*
X111409159Y-53524190D01*
X111396664Y-53483000D01*
X111409159Y-53441810D01*
X111414951Y-53383000D01*
X111414951Y-52933000D01*
X111409159Y-52874190D01*
X111396664Y-52833000D01*
X111409159Y-52791810D01*
X111414951Y-52733000D01*
X111414951Y-52283000D01*
X111409159Y-52224190D01*
X111396664Y-52183000D01*
X111409159Y-52141810D01*
X111414951Y-52083000D01*
X111414951Y-51633000D01*
X111409159Y-51574190D01*
X111396664Y-51533000D01*
X111409159Y-51491810D01*
X111414951Y-51433000D01*
X111414951Y-50983000D01*
X111409159Y-50924190D01*
X111396664Y-50883000D01*
X111409159Y-50841810D01*
X111414951Y-50783000D01*
X111414951Y-50333000D01*
X111409159Y-50274190D01*
X111392004Y-50217640D01*
X111364147Y-50165523D01*
X111326658Y-50119842D01*
X111280977Y-50082353D01*
X111228860Y-50054496D01*
X111172310Y-50037341D01*
X111113500Y-50031549D01*
X109638500Y-50031549D01*
X109579690Y-50037341D01*
X109523140Y-50054496D01*
X109471023Y-50082353D01*
X109425342Y-50119842D01*
X109387853Y-50165523D01*
X109359996Y-50217640D01*
X109342841Y-50274190D01*
X109337049Y-50333000D01*
X109337049Y-50783000D01*
X109342841Y-50841810D01*
X109355336Y-50883000D01*
X109342841Y-50924190D01*
X109337049Y-50983000D01*
X109337049Y-51433000D01*
X109338589Y-51448639D01*
X109246224Y-51356274D01*
X109131574Y-51279668D01*
X109004182Y-51226901D01*
X108868944Y-51200000D01*
X108731056Y-51200000D01*
X108595818Y-51226901D01*
X108468426Y-51279668D01*
X108353776Y-51356274D01*
X108256274Y-51453776D01*
X108179668Y-51568426D01*
X108126901Y-51695818D01*
X108100000Y-51831056D01*
X108100000Y-51968944D01*
X108126901Y-52104182D01*
X108179668Y-52231574D01*
X108256274Y-52346224D01*
X108353776Y-52443726D01*
X108468426Y-52520332D01*
X108595818Y-52573099D01*
X108731056Y-52600000D01*
X108631056Y-52600000D01*
X108495818Y-52626901D01*
X108368426Y-52679668D01*
X108253776Y-52756274D01*
X108156274Y-52853776D01*
X108079668Y-52968426D01*
X108026901Y-53095818D01*
X108000000Y-53231056D01*
X108000000Y-53368944D01*
X108026901Y-53504182D01*
X108077205Y-53625628D01*
X108070808Y-53626901D01*
X107943416Y-53679668D01*
X107828766Y-53756274D01*
X107731264Y-53853776D01*
X107654658Y-53968426D01*
X107608325Y-54080286D01*
X105750281Y-52222243D01*
X105736972Y-52206026D01*
X105672258Y-52152916D01*
X105598425Y-52113452D01*
X105537764Y-52095051D01*
X105538951Y-52083000D01*
X105538951Y-51633000D01*
X105533159Y-51574190D01*
X105520664Y-51533000D01*
X105533159Y-51491810D01*
X105538951Y-51433000D01*
X105538951Y-51311957D01*
X105564138Y-51299292D01*
X105658586Y-51225648D01*
X105736851Y-51134993D01*
X105795926Y-51030811D01*
X105833542Y-50917106D01*
X105845500Y-50835000D01*
X105693500Y-50683000D01*
X105252233Y-50683000D01*
X105237500Y-50681549D01*
X103762500Y-50681549D01*
X103747767Y-50683000D01*
X103306500Y-50683000D01*
X103154500Y-50835000D01*
X103166458Y-50917106D01*
X103204074Y-51030811D01*
X103263149Y-51134993D01*
X103341414Y-51225648D01*
X103435862Y-51299292D01*
X103461049Y-51311957D01*
X103461049Y-51433000D01*
X103466841Y-51491810D01*
X103479336Y-51533000D01*
X103466841Y-51574190D01*
X103461049Y-51633000D01*
X103461049Y-52083000D01*
X103466841Y-52141810D01*
X103479336Y-52183000D01*
X103466841Y-52224190D01*
X103461049Y-52283000D01*
X103461049Y-52733000D01*
X103466841Y-52791810D01*
X103479336Y-52833000D01*
X103466841Y-52874190D01*
X103461049Y-52933000D01*
X103461049Y-53383000D01*
X103466841Y-53441810D01*
X103479336Y-53483000D01*
X103466841Y-53524190D01*
X103461049Y-53583000D01*
X103461049Y-54033000D01*
X103466841Y-54091810D01*
X103479336Y-54133000D01*
X103466841Y-54174190D01*
X103461049Y-54233000D01*
X103461049Y-54683000D01*
X103466841Y-54741810D01*
X103479336Y-54783000D01*
X103466841Y-54824190D01*
X103461049Y-54883000D01*
X103461049Y-55333000D01*
X103466841Y-55391810D01*
X103483996Y-55448360D01*
X103511853Y-55500477D01*
X103549342Y-55546158D01*
X103595023Y-55583647D01*
X103647140Y-55611504D01*
X103703690Y-55628659D01*
X103762500Y-55634451D01*
X104745027Y-55634451D01*
X104698036Y-55673016D01*
X104684731Y-55689228D01*
X104368649Y-56005310D01*
X104300001Y-55998549D01*
X103649999Y-55998549D01*
X103542416Y-56009145D01*
X103438968Y-56040526D01*
X103343630Y-56091485D01*
X103260065Y-56160065D01*
X103191485Y-56243630D01*
X103140526Y-56338968D01*
X103109145Y-56442416D01*
X103098549Y-56549999D01*
X103098549Y-57450001D01*
X103109145Y-57557584D01*
X103140526Y-57661032D01*
X103191485Y-57756370D01*
X103260065Y-57839935D01*
X103343630Y-57908515D01*
X103438968Y-57959474D01*
X103542416Y-57990855D01*
X103649999Y-58001451D01*
X104300001Y-58001451D01*
X104407584Y-57990855D01*
X104511032Y-57959474D01*
X104606370Y-57908515D01*
X104689935Y-57839935D01*
X104758515Y-57756370D01*
X104809474Y-57661032D01*
X104840855Y-57557584D01*
X104851451Y-57450001D01*
X104851451Y-56724590D01*
X105170258Y-56405783D01*
X105159145Y-56442416D01*
X105148549Y-56549999D01*
X105148549Y-57450001D01*
X105159145Y-57557584D01*
X105190526Y-57661032D01*
X105241485Y-57756370D01*
X105310065Y-57839935D01*
X105393630Y-57908515D01*
X105488968Y-57959474D01*
X105592416Y-57990855D01*
X105699999Y-58001451D01*
X106350001Y-58001451D01*
X106418649Y-57994690D01*
X106473950Y-58049990D01*
X105045876Y-58049990D01*
X105025009Y-58047935D01*
X105004142Y-58049990D01*
X105004136Y-58049990D01*
X104950108Y-58055311D01*
X104941695Y-58056140D01*
X104919939Y-58062740D01*
X104861583Y-58080442D01*
X104787750Y-58119906D01*
X104723036Y-58173016D01*
X104709731Y-58189228D01*
X104393649Y-58505310D01*
X104325001Y-58498549D01*
X103674999Y-58498549D01*
X103567416Y-58509145D01*
X103463968Y-58540526D01*
X103368630Y-58591485D01*
X103285065Y-58660065D01*
X103216485Y-58743630D01*
X103165526Y-58838968D01*
X103134145Y-58942416D01*
X103123549Y-59049999D01*
X103123549Y-59075000D01*
X102789960Y-59075000D01*
X102746224Y-59031264D01*
X102631574Y-58954658D01*
X102504182Y-58901891D01*
X102368944Y-58874990D01*
X102231056Y-58874990D01*
X102095818Y-58901891D01*
X101968426Y-58954658D01*
X101853776Y-59031264D01*
X101756274Y-59128766D01*
X101679668Y-59243416D01*
X101626901Y-59370808D01*
X101600000Y-59506046D01*
X101600000Y-59643934D01*
X101626901Y-59779172D01*
X101679668Y-59906564D01*
X101756274Y-60021214D01*
X101853776Y-60118716D01*
X101968426Y-60195322D01*
X102095818Y-60248089D01*
X102231056Y-60274990D01*
X102368944Y-60274990D01*
X102504182Y-60248089D01*
X102631574Y-60195322D01*
X102746224Y-60118716D01*
X102843726Y-60021214D01*
X102908014Y-59925000D01*
X103123549Y-59925000D01*
X103123549Y-59950001D01*
X103134145Y-60057584D01*
X103165526Y-60161032D01*
X103216485Y-60256370D01*
X103285065Y-60339935D01*
X103368630Y-60408515D01*
X103463968Y-60459474D01*
X103567416Y-60490855D01*
X103674999Y-60501451D01*
X104325001Y-60501451D01*
X104432584Y-60490855D01*
X104536032Y-60459474D01*
X104592493Y-60429295D01*
X104582348Y-60462739D01*
X104581150Y-60466687D01*
X104575000Y-60529127D01*
X104575000Y-60529133D01*
X104572945Y-60550000D01*
X104575000Y-60570867D01*
X104575000Y-60667103D01*
X104553776Y-60681284D01*
X104456274Y-60778786D01*
X104379668Y-60893436D01*
X104326901Y-61020828D01*
X104300000Y-61156066D01*
X104300000Y-61293954D01*
X104326901Y-61429192D01*
X104379668Y-61556584D01*
X104456274Y-61671234D01*
X104553776Y-61768736D01*
X104668426Y-61845342D01*
X104795818Y-61898109D01*
X104931056Y-61925010D01*
X105068944Y-61925010D01*
X105204182Y-61898109D01*
X105331574Y-61845342D01*
X105446224Y-61768736D01*
X105543726Y-61671234D01*
X105620332Y-61556584D01*
X105673099Y-61429192D01*
X105700000Y-61293954D01*
X105700000Y-61156066D01*
X105673099Y-61020828D01*
X105620332Y-60893436D01*
X105543726Y-60778786D01*
X105457990Y-60693050D01*
X105656351Y-60494690D01*
X105724999Y-60501451D01*
X106375001Y-60501451D01*
X106482584Y-60490855D01*
X106586032Y-60459474D01*
X106681370Y-60408515D01*
X106764935Y-60339935D01*
X106833515Y-60256370D01*
X106884474Y-60161032D01*
X106915855Y-60057584D01*
X106926451Y-59950001D01*
X106926451Y-59325842D01*
X107175000Y-59574391D01*
X107175001Y-59943160D01*
X107172945Y-59964036D01*
X107181150Y-60047350D01*
X107191226Y-60080564D01*
X107205453Y-60127463D01*
X107244917Y-60201296D01*
X107267461Y-60228766D01*
X107283268Y-60248026D01*
X107298027Y-60266010D01*
X107314239Y-60279315D01*
X107615934Y-60581010D01*
X107610954Y-60606046D01*
X107610954Y-60743934D01*
X107637855Y-60879172D01*
X107690622Y-61006564D01*
X107767228Y-61121214D01*
X107864730Y-61218716D01*
X107979380Y-61295322D01*
X108106772Y-61348089D01*
X108242010Y-61374990D01*
X108379898Y-61374990D01*
X108515136Y-61348089D01*
X108642528Y-61295322D01*
X108757178Y-61218716D01*
X108854680Y-61121214D01*
X108931286Y-61006564D01*
X108984053Y-60879172D01*
X109010954Y-60743934D01*
X109010954Y-60606046D01*
X108984053Y-60470808D01*
X108931286Y-60343416D01*
X108854680Y-60228766D01*
X108757178Y-60131264D01*
X108642528Y-60054658D01*
X108515136Y-60001891D01*
X108379898Y-59974990D01*
X108242010Y-59974990D01*
X108216974Y-59979970D01*
X108025000Y-59787996D01*
X108025000Y-59565465D01*
X108041091Y-59574066D01*
X108096901Y-59590996D01*
X108121203Y-59598368D01*
X108128845Y-59599121D01*
X108183644Y-59604518D01*
X108183651Y-59604518D01*
X108204518Y-59606573D01*
X108225385Y-59604518D01*
X108514193Y-59604518D01*
X108528374Y-59625742D01*
X108625876Y-59723244D01*
X108740526Y-59799850D01*
X108867918Y-59852617D01*
X109003156Y-59879518D01*
X109141044Y-59879518D01*
X109276282Y-59852617D01*
X109403674Y-59799850D01*
X109448549Y-59769866D01*
X109448549Y-61950000D01*
X109454341Y-62008810D01*
X109471496Y-62065360D01*
X109499353Y-62117477D01*
X109536842Y-62163158D01*
X109582523Y-62200647D01*
X109634640Y-62228504D01*
X109691190Y-62245659D01*
X109750000Y-62251451D01*
X111250000Y-62251451D01*
X111308810Y-62245659D01*
X111365360Y-62228504D01*
X111417477Y-62200647D01*
X111463158Y-62163158D01*
X111500647Y-62117477D01*
X111528504Y-62065360D01*
X111545659Y-62008810D01*
X111551451Y-61950000D01*
X111551451Y-60681552D01*
X111566203Y-60689437D01*
X111680811Y-60724203D01*
X111800000Y-60735942D01*
X112194000Y-60733000D01*
X112346000Y-60581000D01*
X112346000Y-59704000D01*
X112326000Y-59704000D01*
X112326000Y-59396000D01*
X112346000Y-59396000D01*
X112346000Y-59376000D01*
X112654000Y-59376000D01*
X112654000Y-59396000D01*
X112674000Y-59396000D01*
X112674000Y-59704000D01*
X112654000Y-59704000D01*
X112654000Y-60581000D01*
X112806000Y-60733000D01*
X113200000Y-60735942D01*
X113319189Y-60724203D01*
X113433797Y-60689437D01*
X113539421Y-60632980D01*
X113632001Y-60557001D01*
X113707980Y-60464421D01*
X113764437Y-60358797D01*
X113781740Y-60301757D01*
X113875000Y-60310942D01*
X114144000Y-60308000D01*
X114296000Y-60156000D01*
X114296000Y-59154000D01*
X114276000Y-59154000D01*
X114276000Y-58846000D01*
X114296000Y-58846000D01*
X114296000Y-57844000D01*
X114144000Y-57692000D01*
X113875000Y-57689058D01*
X113755811Y-57700797D01*
X113641203Y-57735563D01*
X113535579Y-57792020D01*
X113501451Y-57820028D01*
X113501451Y-57175000D01*
X115198549Y-57175000D01*
X115198549Y-57250000D01*
X115204341Y-57308810D01*
X115221496Y-57365360D01*
X115249353Y-57417477D01*
X115286842Y-57463158D01*
X115332523Y-57500647D01*
X115384640Y-57528504D01*
X115441190Y-57545659D01*
X115500000Y-57551451D01*
X115575000Y-57551451D01*
X115575001Y-58039195D01*
X115532980Y-57960579D01*
X115457001Y-57867999D01*
X115364421Y-57792020D01*
X115258797Y-57735563D01*
X115144189Y-57700797D01*
X115025000Y-57689058D01*
X114756000Y-57692000D01*
X114604000Y-57844000D01*
X114604000Y-58846000D01*
X114624000Y-58846000D01*
X114624000Y-59154000D01*
X114604000Y-59154000D01*
X114604000Y-60156000D01*
X114756000Y-60308000D01*
X115025000Y-60310942D01*
X115144189Y-60299203D01*
X115258797Y-60264437D01*
X115364421Y-60207980D01*
X115457001Y-60132001D01*
X115532980Y-60039421D01*
X115589437Y-59933797D01*
X115624203Y-59819189D01*
X115635942Y-59700000D01*
X115634897Y-59560063D01*
X115665526Y-59661032D01*
X115716485Y-59756370D01*
X115785065Y-59839935D01*
X115868630Y-59908515D01*
X115963968Y-59959474D01*
X116067416Y-59990855D01*
X116150001Y-59998989D01*
X116150000Y-60491980D01*
X116053776Y-60556274D01*
X115956274Y-60653776D01*
X115879668Y-60768426D01*
X115826901Y-60895818D01*
X115800000Y-61031056D01*
X115800000Y-61168944D01*
X115826901Y-61304182D01*
X115879668Y-61431574D01*
X115956274Y-61546224D01*
X116053776Y-61643726D01*
X116168426Y-61720332D01*
X116171088Y-61721435D01*
X116175078Y-61734587D01*
X116207578Y-61795390D01*
X116251315Y-61848685D01*
X116304610Y-61892422D01*
X116365413Y-61924922D01*
X116431388Y-61944935D01*
X116438739Y-61945659D01*
X116451991Y-61946964D01*
X117240355Y-62735330D01*
X117251315Y-62748685D01*
X117304610Y-62792422D01*
X117365413Y-62824922D01*
X117400000Y-62835414D01*
X117400000Y-63000000D01*
X117401921Y-63019509D01*
X117407612Y-63038268D01*
X117416853Y-63055557D01*
X117429289Y-63070711D01*
X117444443Y-63083147D01*
X117461732Y-63092388D01*
X117480491Y-63098079D01*
X117500000Y-63100000D01*
X146799572Y-63100000D01*
X146750427Y-74600000D01*
X73250428Y-74600000D01*
X73299573Y-63100000D01*
X87400000Y-63100000D01*
X87419509Y-63098079D01*
X87438268Y-63092388D01*
X87455557Y-63083147D01*
X87470711Y-63070711D01*
X87483147Y-63055557D01*
X87492388Y-63038268D01*
X87498079Y-63019509D01*
X87500000Y-63000000D01*
X87500000Y-58618508D01*
X90750000Y-58618508D01*
X90750000Y-58981491D01*
X90766640Y-59150438D01*
X90832398Y-59367214D01*
X90939184Y-59566996D01*
X91082893Y-59742107D01*
X91258003Y-59885816D01*
X91457785Y-59992602D01*
X91674561Y-60058360D01*
X91900000Y-60080564D01*
X92125438Y-60058360D01*
X92342214Y-59992602D01*
X92541996Y-59885816D01*
X92717107Y-59742107D01*
X92860816Y-59566997D01*
X92967602Y-59367215D01*
X93033360Y-59150439D01*
X93050000Y-58981492D01*
X93050000Y-58618509D01*
X93033360Y-58449562D01*
X92967602Y-58232786D01*
X92860816Y-58033004D01*
X92717107Y-57857893D01*
X92541997Y-57714184D01*
X92342215Y-57607398D01*
X92125439Y-57541640D01*
X91900000Y-57519436D01*
X91674562Y-57541640D01*
X91457786Y-57607398D01*
X91258004Y-57714184D01*
X91082894Y-57857893D01*
X90939184Y-58033003D01*
X90832398Y-58232785D01*
X90766640Y-58449561D01*
X90750000Y-58618508D01*
X87500000Y-58618508D01*
X87500000Y-55373931D01*
X87631056Y-55400000D01*
X87768944Y-55400000D01*
X87904182Y-55373099D01*
X88031574Y-55320332D01*
X88146224Y-55243726D01*
X88243726Y-55146224D01*
X88320332Y-55031574D01*
X88373099Y-54904182D01*
X88400000Y-54768944D01*
X88400000Y-54631056D01*
X88373099Y-54495818D01*
X88320332Y-54368426D01*
X88243726Y-54253776D01*
X88146224Y-54156274D01*
X88125000Y-54142093D01*
X88125000Y-53942260D01*
X88180893Y-53970300D01*
X88296363Y-54002088D01*
X88415816Y-54010737D01*
X88794000Y-54008000D01*
X88946000Y-53856000D01*
X88946000Y-53300000D01*
X88926000Y-53300000D01*
X88926000Y-53051451D01*
X89274000Y-53051451D01*
X89274000Y-53300000D01*
X89254000Y-53300000D01*
X89254000Y-53856000D01*
X89406000Y-54008000D01*
X89784184Y-54010737D01*
X89903637Y-54002088D01*
X90019107Y-53970300D01*
X90126157Y-53916596D01*
X90220673Y-53843040D01*
X90299023Y-53752458D01*
X90300421Y-53749999D01*
X90310000Y-53750942D01*
X90994000Y-53748000D01*
X91146000Y-53596000D01*
X91146000Y-52354000D01*
X91126000Y-52354000D01*
X91126000Y-52046000D01*
X91146000Y-52046000D01*
X91146000Y-52026000D01*
X91454000Y-52026000D01*
X91454000Y-52046000D01*
X91474000Y-52046000D01*
X91474000Y-52354000D01*
X91454000Y-52354000D01*
X91454000Y-53596000D01*
X91606000Y-53748000D01*
X92290000Y-53750942D01*
X92409189Y-53739203D01*
X92523797Y-53704437D01*
X92629332Y-53648028D01*
X92632523Y-53650647D01*
X92684640Y-53678504D01*
X92741190Y-53695659D01*
X92800000Y-53701451D01*
X94200000Y-53701451D01*
X94258810Y-53695659D01*
X94315360Y-53678504D01*
X94367477Y-53650647D01*
X94398728Y-53625000D01*
X94673549Y-53625000D01*
X94673549Y-53650001D01*
X94684145Y-53757584D01*
X94715526Y-53861032D01*
X94766485Y-53956370D01*
X94835065Y-54039935D01*
X94918630Y-54108515D01*
X95013968Y-54159474D01*
X95117416Y-54190855D01*
X95119035Y-54191015D01*
X95056274Y-54253776D01*
X95042093Y-54275000D01*
X93232897Y-54275000D01*
X93218716Y-54253776D01*
X93121214Y-54156274D01*
X93006564Y-54079668D01*
X92879172Y-54026901D01*
X92743934Y-54000000D01*
X92606046Y-54000000D01*
X92470808Y-54026901D01*
X92343416Y-54079668D01*
X92228766Y-54156274D01*
X92131264Y-54253776D01*
X92054658Y-54368426D01*
X92001891Y-54495818D01*
X91974990Y-54631056D01*
X91974990Y-54768944D01*
X92001891Y-54904182D01*
X92054658Y-55031574D01*
X92131264Y-55146224D01*
X92228766Y-55243726D01*
X92343416Y-55320332D01*
X92470808Y-55373099D01*
X92606046Y-55400000D01*
X92743934Y-55400000D01*
X92879172Y-55373099D01*
X93006564Y-55320332D01*
X93121214Y-55243726D01*
X93218716Y-55146224D01*
X93232897Y-55125000D01*
X95042093Y-55125000D01*
X95056274Y-55146224D01*
X95153776Y-55243726D01*
X95268426Y-55320332D01*
X95395818Y-55373099D01*
X95531056Y-55400000D01*
X95668944Y-55400000D01*
X95804182Y-55373099D01*
X95931574Y-55320332D01*
X96046224Y-55243726D01*
X96143726Y-55146224D01*
X96220332Y-55031574D01*
X96273099Y-54904182D01*
X96274991Y-54894672D01*
X96274991Y-56198968D01*
X94858081Y-57615879D01*
X94842215Y-57607398D01*
X94625439Y-57541640D01*
X94400000Y-57519436D01*
X94174562Y-57541640D01*
X93957786Y-57607398D01*
X93758004Y-57714184D01*
X93582894Y-57857893D01*
X93439184Y-58033003D01*
X93332398Y-58232785D01*
X93266640Y-58449561D01*
X93250000Y-58618508D01*
X93250000Y-58981491D01*
X93266640Y-59150438D01*
X93332398Y-59367214D01*
X93439184Y-59566996D01*
X93582893Y-59742107D01*
X93758003Y-59885816D01*
X93957785Y-59992602D01*
X94174561Y-60058360D01*
X94400000Y-60080564D01*
X94625438Y-60058360D01*
X94842214Y-59992602D01*
X95041996Y-59885816D01*
X95217107Y-59742107D01*
X95360816Y-59566997D01*
X95467602Y-59367215D01*
X95493931Y-59280420D01*
X95543591Y-59456316D01*
X95673309Y-59710729D01*
X95850168Y-59934947D01*
X96067371Y-60120353D01*
X96316572Y-60259822D01*
X96521090Y-60332903D01*
X96746000Y-60221889D01*
X96746000Y-58954000D01*
X96726000Y-58954000D01*
X96726000Y-58646000D01*
X96746000Y-58646000D01*
X96746000Y-57378111D01*
X97054000Y-57378111D01*
X97054000Y-58646000D01*
X97074000Y-58646000D01*
X97074000Y-58954000D01*
X97054000Y-58954000D01*
X97054000Y-60221889D01*
X97278910Y-60332903D01*
X97483428Y-60259822D01*
X97732629Y-60120353D01*
X97949832Y-59934947D01*
X98126691Y-59710729D01*
X98248549Y-59471732D01*
X98248549Y-59525000D01*
X98259145Y-59632583D01*
X98290526Y-59736031D01*
X98341485Y-59831370D01*
X98410065Y-59914935D01*
X98493630Y-59983515D01*
X98588969Y-60034474D01*
X98692417Y-60065855D01*
X98800000Y-60076451D01*
X100000000Y-60076451D01*
X100107583Y-60065855D01*
X100211031Y-60034474D01*
X100306370Y-59983515D01*
X100389935Y-59914935D01*
X100458515Y-59831370D01*
X100509474Y-59736031D01*
X100540855Y-59632583D01*
X100551451Y-59525000D01*
X100551451Y-58075000D01*
X100540855Y-57967417D01*
X100509474Y-57863969D01*
X100458515Y-57768630D01*
X100389935Y-57685065D01*
X100306370Y-57616485D01*
X100211031Y-57565526D01*
X100107583Y-57534145D01*
X100000000Y-57523549D01*
X98800000Y-57523549D01*
X98692417Y-57534145D01*
X98588969Y-57565526D01*
X98493630Y-57616485D01*
X98410065Y-57685065D01*
X98341485Y-57768630D01*
X98290526Y-57863969D01*
X98259145Y-57967417D01*
X98248549Y-58075000D01*
X98248549Y-58128268D01*
X98126691Y-57889271D01*
X97949832Y-57665053D01*
X97732629Y-57479647D01*
X97483428Y-57340178D01*
X97278910Y-57267097D01*
X97054000Y-57378111D01*
X96746000Y-57378111D01*
X96521090Y-57267097D01*
X96346589Y-57329452D01*
X96985752Y-56690289D01*
X97001964Y-56676984D01*
X97018961Y-56656274D01*
X97037121Y-56634145D01*
X97055074Y-56612270D01*
X97094538Y-56538437D01*
X97115306Y-56469974D01*
X97118840Y-56458325D01*
X97121165Y-56434720D01*
X97124990Y-56395884D01*
X97124990Y-56395878D01*
X97127045Y-56375011D01*
X97124990Y-56354144D01*
X97124990Y-54509848D01*
X97294000Y-54508000D01*
X97446000Y-54356000D01*
X97446000Y-53354000D01*
X97426000Y-53354000D01*
X97426000Y-53046000D01*
X97446000Y-53046000D01*
X97446000Y-53026000D01*
X97754000Y-53026000D01*
X97754000Y-53046000D01*
X97774000Y-53046000D01*
X97774000Y-53354000D01*
X97754000Y-53354000D01*
X97754000Y-54356000D01*
X97906000Y-54508000D01*
X98175000Y-54510942D01*
X98294189Y-54499203D01*
X98408797Y-54464437D01*
X98514421Y-54407980D01*
X98607001Y-54332001D01*
X98682980Y-54239421D01*
X98739437Y-54133797D01*
X98746621Y-54110114D01*
X98838968Y-54159474D01*
X98942416Y-54190855D01*
X99049999Y-54201451D01*
X99700001Y-54201451D01*
X99807584Y-54190855D01*
X99911032Y-54159474D01*
X100006370Y-54108515D01*
X100089935Y-54039935D01*
X100158515Y-53956370D01*
X100209474Y-53861032D01*
X100240103Y-53760063D01*
X100239058Y-53900000D01*
X100250797Y-54019189D01*
X100285563Y-54133797D01*
X100342020Y-54239421D01*
X100417999Y-54332001D01*
X100510579Y-54407980D01*
X100616203Y-54464437D01*
X100730811Y-54499203D01*
X100850000Y-54510942D01*
X101119000Y-54508000D01*
X101271000Y-54356000D01*
X101271000Y-53354000D01*
X101579000Y-53354000D01*
X101579000Y-54356000D01*
X101731000Y-54508000D01*
X102000000Y-54510942D01*
X102119189Y-54499203D01*
X102233797Y-54464437D01*
X102339421Y-54407980D01*
X102432001Y-54332001D01*
X102507980Y-54239421D01*
X102564437Y-54133797D01*
X102599203Y-54019189D01*
X102610942Y-53900000D01*
X102608000Y-53506000D01*
X102456000Y-53354000D01*
X101579000Y-53354000D01*
X101271000Y-53354000D01*
X101251000Y-53354000D01*
X101251000Y-53046000D01*
X101271000Y-53046000D01*
X101271000Y-52481000D01*
X101296000Y-52456000D01*
X101296000Y-52044000D01*
X101579000Y-52044000D01*
X101579000Y-53046000D01*
X102456000Y-53046000D01*
X102608000Y-52894000D01*
X102610942Y-52500000D01*
X102599203Y-52380811D01*
X102567217Y-52275368D01*
X102589437Y-52233797D01*
X102624203Y-52119189D01*
X102635942Y-52000000D01*
X102633000Y-51606000D01*
X102481000Y-51454000D01*
X101604000Y-51454000D01*
X101604000Y-52019000D01*
X101579000Y-52044000D01*
X101296000Y-52044000D01*
X101296000Y-51454000D01*
X101276000Y-51454000D01*
X101276000Y-51146000D01*
X101296000Y-51146000D01*
X101296000Y-51126000D01*
X101604000Y-51126000D01*
X101604000Y-51146000D01*
X102481000Y-51146000D01*
X102633000Y-50994000D01*
X102635942Y-50600000D01*
X102624203Y-50480811D01*
X102589437Y-50366203D01*
X102532980Y-50260579D01*
X102457001Y-50167999D01*
X102364421Y-50092020D01*
X102285807Y-50050000D01*
X103224027Y-50050000D01*
X103204074Y-50085189D01*
X103166458Y-50198894D01*
X103154500Y-50281000D01*
X103306500Y-50433000D01*
X104346000Y-50433000D01*
X104346000Y-50384000D01*
X104654000Y-50384000D01*
X104654000Y-50433000D01*
X105693500Y-50433000D01*
X105845500Y-50281000D01*
X105833542Y-50198894D01*
X105795926Y-50085189D01*
X105747621Y-50000000D01*
X112635267Y-50000000D01*
X112542416Y-50009145D01*
G36*
X114600000Y-50008398D02*
G01*
X114592416Y-50009145D01*
X114488968Y-50040526D01*
X114393630Y-50091485D01*
X114310065Y-50160065D01*
X114241485Y-50243630D01*
X114190526Y-50338968D01*
X114159145Y-50442416D01*
X114148549Y-50549999D01*
X114148549Y-51450001D01*
X114159145Y-51557584D01*
X114190526Y-51661032D01*
X114241485Y-51756370D01*
X114310065Y-51839935D01*
X114393630Y-51908515D01*
X114488968Y-51959474D01*
X114592416Y-51990855D01*
X114699999Y-52001451D01*
X115350001Y-52001451D01*
X115457584Y-51990855D01*
X115561032Y-51959474D01*
X115656370Y-51908515D01*
X115739935Y-51839935D01*
X115808515Y-51756370D01*
X115859474Y-51661032D01*
X115890855Y-51557584D01*
X115901451Y-51450001D01*
X115901451Y-50549999D01*
X115890855Y-50442416D01*
X115859474Y-50338968D01*
X115808515Y-50243630D01*
X115739935Y-50160065D01*
X115656370Y-50091485D01*
X115561032Y-50040526D01*
X115457584Y-50009145D01*
X115450000Y-50008398D01*
X115450000Y-50000000D01*
X117400000Y-50000000D01*
X117400000Y-61905025D01*
X117042462Y-61547488D01*
X117043726Y-61546224D01*
X117120332Y-61431574D01*
X117173099Y-61304182D01*
X117200000Y-61168944D01*
X117200000Y-61031056D01*
X117173099Y-60895818D01*
X117120332Y-60768426D01*
X117043726Y-60653776D01*
X116946224Y-60556274D01*
X116850000Y-60491980D01*
X116850000Y-59998989D01*
X116932584Y-59990855D01*
X117036032Y-59959474D01*
X117131370Y-59908515D01*
X117214935Y-59839935D01*
X117283515Y-59756370D01*
X117334474Y-59661032D01*
X117365855Y-59557584D01*
X117376451Y-59450001D01*
X117376451Y-58549999D01*
X117365855Y-58442416D01*
X117334474Y-58338968D01*
X117283515Y-58243630D01*
X117214935Y-58160065D01*
X117131370Y-58091485D01*
X117036032Y-58040526D01*
X116932584Y-58009145D01*
X116825001Y-57998549D01*
X116425000Y-57998549D01*
X116425000Y-57551451D01*
X116500000Y-57551451D01*
X116558810Y-57545659D01*
X116615360Y-57528504D01*
X116667477Y-57500647D01*
X116713158Y-57463158D01*
X116750647Y-57417477D01*
X116778504Y-57365360D01*
X116795659Y-57308810D01*
X116801451Y-57250000D01*
X116801451Y-56250000D01*
X116795659Y-56191190D01*
X116778504Y-56134640D01*
X116750647Y-56082523D01*
X116713158Y-56036842D01*
X116667477Y-55999353D01*
X116615360Y-55971496D01*
X116558810Y-55954341D01*
X116500000Y-55948549D01*
X115500000Y-55948549D01*
X115441190Y-55954341D01*
X115384640Y-55971496D01*
X115332523Y-55999353D01*
X115286842Y-56036842D01*
X115249353Y-56082523D01*
X115221496Y-56134640D01*
X115204341Y-56191190D01*
X115198549Y-56250000D01*
X115198549Y-56325000D01*
X114274689Y-56325000D01*
X114299203Y-56244189D01*
X114310942Y-56125000D01*
X114308000Y-55856000D01*
X114156000Y-55704000D01*
X113154000Y-55704000D01*
X113154000Y-55724000D01*
X112846000Y-55724000D01*
X112846000Y-55704000D01*
X111844000Y-55704000D01*
X111692000Y-55856000D01*
X111689058Y-56125000D01*
X111700797Y-56244189D01*
X111735563Y-56358797D01*
X111792020Y-56464421D01*
X111867999Y-56557001D01*
X111959900Y-56632423D01*
X111942416Y-56634145D01*
X111838968Y-56665526D01*
X111743630Y-56716485D01*
X111660065Y-56785065D01*
X111591485Y-56868630D01*
X111540526Y-56963968D01*
X111509145Y-57067416D01*
X111508398Y-57075000D01*
X110876451Y-57075000D01*
X110876451Y-56517999D01*
X110865855Y-56410416D01*
X110834474Y-56306968D01*
X110783515Y-56211630D01*
X110714935Y-56128065D01*
X110631370Y-56059485D01*
X110536032Y-56008526D01*
X110432584Y-55977145D01*
X110325001Y-55966549D01*
X109674999Y-55966549D01*
X109567416Y-55977145D01*
X109463968Y-56008526D01*
X109368630Y-56059485D01*
X109285065Y-56128065D01*
X109216485Y-56211630D01*
X109165526Y-56306968D01*
X109134145Y-56410416D01*
X109123549Y-56517999D01*
X109123549Y-57418001D01*
X109134145Y-57525584D01*
X109165526Y-57629032D01*
X109216485Y-57724370D01*
X109285065Y-57807935D01*
X109366784Y-57875000D01*
X108658040Y-57875000D01*
X108624313Y-57841273D01*
X108664935Y-57807935D01*
X108733515Y-57724370D01*
X108784474Y-57629032D01*
X108815855Y-57525584D01*
X108826451Y-57418001D01*
X108826451Y-56517999D01*
X108815855Y-56410416D01*
X108784474Y-56306968D01*
X108733515Y-56211630D01*
X108664935Y-56128065D01*
X108581370Y-56059485D01*
X108486032Y-56008526D01*
X108382584Y-55977145D01*
X108375000Y-55976398D01*
X108375000Y-55043869D01*
X108377055Y-55023002D01*
X108375000Y-55002135D01*
X108375000Y-55002128D01*
X108374882Y-55000933D01*
X108389228Y-55015279D01*
X108389234Y-55015284D01*
X108767706Y-55393756D01*
X108781016Y-55409974D01*
X108845730Y-55463084D01*
X108890179Y-55486842D01*
X108919563Y-55502548D01*
X108999676Y-55526850D01*
X109082990Y-55535056D01*
X109103864Y-55533000D01*
X109414544Y-55533000D01*
X109425342Y-55546158D01*
X109471023Y-55583647D01*
X109523140Y-55611504D01*
X109579690Y-55628659D01*
X109638500Y-55634451D01*
X111113500Y-55634451D01*
X111172310Y-55628659D01*
X111228860Y-55611504D01*
X111280977Y-55583647D01*
X111326658Y-55546158D01*
X111364147Y-55500477D01*
X111392004Y-55448360D01*
X111409159Y-55391810D01*
X111414951Y-55333000D01*
X111414951Y-54883000D01*
X111698119Y-54883000D01*
X111689058Y-54975000D01*
X111692000Y-55244000D01*
X111844000Y-55396000D01*
X112846000Y-55396000D01*
X112846000Y-55376000D01*
X113154000Y-55376000D01*
X113154000Y-55396000D01*
X114156000Y-55396000D01*
X114308000Y-55244000D01*
X114310942Y-54975000D01*
X114299203Y-54855811D01*
X114267106Y-54750000D01*
X114889058Y-54750000D01*
X114900797Y-54869189D01*
X114935563Y-54983797D01*
X114992020Y-55089421D01*
X115067999Y-55182001D01*
X115160579Y-55257980D01*
X115266203Y-55314437D01*
X115380811Y-55349203D01*
X115500000Y-55360942D01*
X115694000Y-55358000D01*
X115846000Y-55206000D01*
X115846000Y-54404000D01*
X116154000Y-54404000D01*
X116154000Y-55206000D01*
X116306000Y-55358000D01*
X116500000Y-55360942D01*
X116619189Y-55349203D01*
X116733797Y-55314437D01*
X116839421Y-55257980D01*
X116932001Y-55182001D01*
X117007980Y-55089421D01*
X117064437Y-54983797D01*
X117099203Y-54869189D01*
X117110942Y-54750000D01*
X117108000Y-54556000D01*
X116956000Y-54404000D01*
X116154000Y-54404000D01*
X115846000Y-54404000D01*
X115044000Y-54404000D01*
X114892000Y-54556000D01*
X114889058Y-54750000D01*
X114267106Y-54750000D01*
X114264437Y-54741203D01*
X114207980Y-54635579D01*
X114132001Y-54542999D01*
X114039421Y-54467020D01*
X113933797Y-54410563D01*
X113819189Y-54375797D01*
X113700000Y-54364058D01*
X113560063Y-54365103D01*
X113661032Y-54334474D01*
X113756370Y-54283515D01*
X113839935Y-54214935D01*
X113908515Y-54131370D01*
X113959474Y-54036032D01*
X113990855Y-53932584D01*
X114001451Y-53825001D01*
X114001451Y-53725000D01*
X114242093Y-53725000D01*
X114256274Y-53746224D01*
X114353776Y-53843726D01*
X114468426Y-53920332D01*
X114595818Y-53973099D01*
X114731056Y-54000000D01*
X114868944Y-54000000D01*
X114934884Y-53986884D01*
X115044000Y-54096000D01*
X115846000Y-54096000D01*
X115846000Y-53294000D01*
X116154000Y-53294000D01*
X116154000Y-54096000D01*
X116956000Y-54096000D01*
X117108000Y-53944000D01*
X117110942Y-53750000D01*
X117099203Y-53630811D01*
X117064437Y-53516203D01*
X117007980Y-53410579D01*
X116932001Y-53317999D01*
X116839421Y-53242020D01*
X116733797Y-53185563D01*
X116619189Y-53150797D01*
X116500000Y-53139058D01*
X116306000Y-53142000D01*
X116154000Y-53294000D01*
X115846000Y-53294000D01*
X115694000Y-53142000D01*
X115500000Y-53139058D01*
X115482052Y-53140826D01*
X115473099Y-53095818D01*
X115420332Y-52968426D01*
X115343726Y-52853776D01*
X115246224Y-52756274D01*
X115131574Y-52679668D01*
X115004182Y-52626901D01*
X114868944Y-52600000D01*
X114731056Y-52600000D01*
X114595818Y-52626901D01*
X114468426Y-52679668D01*
X114353776Y-52756274D01*
X114256274Y-52853776D01*
X114242093Y-52875000D01*
X113911920Y-52875000D01*
X113908515Y-52868630D01*
X113839935Y-52785065D01*
X113756370Y-52716485D01*
X113661032Y-52665526D01*
X113557584Y-52634145D01*
X113450001Y-52623549D01*
X113425000Y-52623549D01*
X113425000Y-51985572D01*
X113511032Y-51959474D01*
X113606370Y-51908515D01*
X113689935Y-51839935D01*
X113758515Y-51756370D01*
X113809474Y-51661032D01*
X113840855Y-51557584D01*
X113851451Y-51450001D01*
X113851451Y-50549999D01*
X113840855Y-50442416D01*
X113809474Y-50338968D01*
X113758515Y-50243630D01*
X113689935Y-50160065D01*
X113606370Y-50091485D01*
X113511032Y-50040526D01*
X113407584Y-50009145D01*
X113314733Y-50000000D01*
X114600000Y-50000000D01*
X114600000Y-50008398D01*
X114600000Y-50008398D01*
G37*
X114600000Y-50008398D02*
X114592416Y-50009145D01*
X114488968Y-50040526D01*
X114393630Y-50091485D01*
X114310065Y-50160065D01*
X114241485Y-50243630D01*
X114190526Y-50338968D01*
X114159145Y-50442416D01*
X114148549Y-50549999D01*
X114148549Y-51450001D01*
X114159145Y-51557584D01*
X114190526Y-51661032D01*
X114241485Y-51756370D01*
X114310065Y-51839935D01*
X114393630Y-51908515D01*
X114488968Y-51959474D01*
X114592416Y-51990855D01*
X114699999Y-52001451D01*
X115350001Y-52001451D01*
X115457584Y-51990855D01*
X115561032Y-51959474D01*
X115656370Y-51908515D01*
X115739935Y-51839935D01*
X115808515Y-51756370D01*
X115859474Y-51661032D01*
X115890855Y-51557584D01*
X115901451Y-51450001D01*
X115901451Y-50549999D01*
X115890855Y-50442416D01*
X115859474Y-50338968D01*
X115808515Y-50243630D01*
X115739935Y-50160065D01*
X115656370Y-50091485D01*
X115561032Y-50040526D01*
X115457584Y-50009145D01*
X115450000Y-50008398D01*
X115450000Y-50000000D01*
X117400000Y-50000000D01*
X117400000Y-61905025D01*
X117042462Y-61547488D01*
X117043726Y-61546224D01*
X117120332Y-61431574D01*
X117173099Y-61304182D01*
X117200000Y-61168944D01*
X117200000Y-61031056D01*
X117173099Y-60895818D01*
X117120332Y-60768426D01*
X117043726Y-60653776D01*
X116946224Y-60556274D01*
X116850000Y-60491980D01*
X116850000Y-59998989D01*
X116932584Y-59990855D01*
X117036032Y-59959474D01*
X117131370Y-59908515D01*
X117214935Y-59839935D01*
X117283515Y-59756370D01*
X117334474Y-59661032D01*
X117365855Y-59557584D01*
X117376451Y-59450001D01*
X117376451Y-58549999D01*
X117365855Y-58442416D01*
X117334474Y-58338968D01*
X117283515Y-58243630D01*
X117214935Y-58160065D01*
X117131370Y-58091485D01*
X117036032Y-58040526D01*
X116932584Y-58009145D01*
X116825001Y-57998549D01*
X116425000Y-57998549D01*
X116425000Y-57551451D01*
X116500000Y-57551451D01*
X116558810Y-57545659D01*
X116615360Y-57528504D01*
X116667477Y-57500647D01*
X116713158Y-57463158D01*
X116750647Y-57417477D01*
X116778504Y-57365360D01*
X116795659Y-57308810D01*
X116801451Y-57250000D01*
X116801451Y-56250000D01*
X116795659Y-56191190D01*
X116778504Y-56134640D01*
X116750647Y-56082523D01*
X116713158Y-56036842D01*
X116667477Y-55999353D01*
X116615360Y-55971496D01*
X116558810Y-55954341D01*
X116500000Y-55948549D01*
X115500000Y-55948549D01*
X115441190Y-55954341D01*
X115384640Y-55971496D01*
X115332523Y-55999353D01*
X115286842Y-56036842D01*
X115249353Y-56082523D01*
X115221496Y-56134640D01*
X115204341Y-56191190D01*
X115198549Y-56250000D01*
X115198549Y-56325000D01*
X114274689Y-56325000D01*
X114299203Y-56244189D01*
X114310942Y-56125000D01*
X114308000Y-55856000D01*
X114156000Y-55704000D01*
X113154000Y-55704000D01*
X113154000Y-55724000D01*
X112846000Y-55724000D01*
X112846000Y-55704000D01*
X111844000Y-55704000D01*
X111692000Y-55856000D01*
X111689058Y-56125000D01*
X111700797Y-56244189D01*
X111735563Y-56358797D01*
X111792020Y-56464421D01*
X111867999Y-56557001D01*
X111959900Y-56632423D01*
X111942416Y-56634145D01*
X111838968Y-56665526D01*
X111743630Y-56716485D01*
X111660065Y-56785065D01*
X111591485Y-56868630D01*
X111540526Y-56963968D01*
X111509145Y-57067416D01*
X111508398Y-57075000D01*
X110876451Y-57075000D01*
X110876451Y-56517999D01*
X110865855Y-56410416D01*
X110834474Y-56306968D01*
X110783515Y-56211630D01*
X110714935Y-56128065D01*
X110631370Y-56059485D01*
X110536032Y-56008526D01*
X110432584Y-55977145D01*
X110325001Y-55966549D01*
X109674999Y-55966549D01*
X109567416Y-55977145D01*
X109463968Y-56008526D01*
X109368630Y-56059485D01*
X109285065Y-56128065D01*
X109216485Y-56211630D01*
X109165526Y-56306968D01*
X109134145Y-56410416D01*
X109123549Y-56517999D01*
X109123549Y-57418001D01*
X109134145Y-57525584D01*
X109165526Y-57629032D01*
X109216485Y-57724370D01*
X109285065Y-57807935D01*
X109366784Y-57875000D01*
X108658040Y-57875000D01*
X108624313Y-57841273D01*
X108664935Y-57807935D01*
X108733515Y-57724370D01*
X108784474Y-57629032D01*
X108815855Y-57525584D01*
X108826451Y-57418001D01*
X108826451Y-56517999D01*
X108815855Y-56410416D01*
X108784474Y-56306968D01*
X108733515Y-56211630D01*
X108664935Y-56128065D01*
X108581370Y-56059485D01*
X108486032Y-56008526D01*
X108382584Y-55977145D01*
X108375000Y-55976398D01*
X108375000Y-55043869D01*
X108377055Y-55023002D01*
X108375000Y-55002135D01*
X108375000Y-55002128D01*
X108374882Y-55000933D01*
X108389228Y-55015279D01*
X108389234Y-55015284D01*
X108767706Y-55393756D01*
X108781016Y-55409974D01*
X108845730Y-55463084D01*
X108890179Y-55486842D01*
X108919563Y-55502548D01*
X108999676Y-55526850D01*
X109082990Y-55535056D01*
X109103864Y-55533000D01*
X109414544Y-55533000D01*
X109425342Y-55546158D01*
X109471023Y-55583647D01*
X109523140Y-55611504D01*
X109579690Y-55628659D01*
X109638500Y-55634451D01*
X111113500Y-55634451D01*
X111172310Y-55628659D01*
X111228860Y-55611504D01*
X111280977Y-55583647D01*
X111326658Y-55546158D01*
X111364147Y-55500477D01*
X111392004Y-55448360D01*
X111409159Y-55391810D01*
X111414951Y-55333000D01*
X111414951Y-54883000D01*
X111698119Y-54883000D01*
X111689058Y-54975000D01*
X111692000Y-55244000D01*
X111844000Y-55396000D01*
X112846000Y-55396000D01*
X112846000Y-55376000D01*
X113154000Y-55376000D01*
X113154000Y-55396000D01*
X114156000Y-55396000D01*
X114308000Y-55244000D01*
X114310942Y-54975000D01*
X114299203Y-54855811D01*
X114267106Y-54750000D01*
X114889058Y-54750000D01*
X114900797Y-54869189D01*
X114935563Y-54983797D01*
X114992020Y-55089421D01*
X115067999Y-55182001D01*
X115160579Y-55257980D01*
X115266203Y-55314437D01*
X115380811Y-55349203D01*
X115500000Y-55360942D01*
X115694000Y-55358000D01*
X115846000Y-55206000D01*
X115846000Y-54404000D01*
X116154000Y-54404000D01*
X116154000Y-55206000D01*
X116306000Y-55358000D01*
X116500000Y-55360942D01*
X116619189Y-55349203D01*
X116733797Y-55314437D01*
X116839421Y-55257980D01*
X116932001Y-55182001D01*
X117007980Y-55089421D01*
X117064437Y-54983797D01*
X117099203Y-54869189D01*
X117110942Y-54750000D01*
X117108000Y-54556000D01*
X116956000Y-54404000D01*
X116154000Y-54404000D01*
X115846000Y-54404000D01*
X115044000Y-54404000D01*
X114892000Y-54556000D01*
X114889058Y-54750000D01*
X114267106Y-54750000D01*
X114264437Y-54741203D01*
X114207980Y-54635579D01*
X114132001Y-54542999D01*
X114039421Y-54467020D01*
X113933797Y-54410563D01*
X113819189Y-54375797D01*
X113700000Y-54364058D01*
X113560063Y-54365103D01*
X113661032Y-54334474D01*
X113756370Y-54283515D01*
X113839935Y-54214935D01*
X113908515Y-54131370D01*
X113959474Y-54036032D01*
X113990855Y-53932584D01*
X114001451Y-53825001D01*
X114001451Y-53725000D01*
X114242093Y-53725000D01*
X114256274Y-53746224D01*
X114353776Y-53843726D01*
X114468426Y-53920332D01*
X114595818Y-53973099D01*
X114731056Y-54000000D01*
X114868944Y-54000000D01*
X114934884Y-53986884D01*
X115044000Y-54096000D01*
X115846000Y-54096000D01*
X115846000Y-53294000D01*
X116154000Y-53294000D01*
X116154000Y-54096000D01*
X116956000Y-54096000D01*
X117108000Y-53944000D01*
X117110942Y-53750000D01*
X117099203Y-53630811D01*
X117064437Y-53516203D01*
X117007980Y-53410579D01*
X116932001Y-53317999D01*
X116839421Y-53242020D01*
X116733797Y-53185563D01*
X116619189Y-53150797D01*
X116500000Y-53139058D01*
X116306000Y-53142000D01*
X116154000Y-53294000D01*
X115846000Y-53294000D01*
X115694000Y-53142000D01*
X115500000Y-53139058D01*
X115482052Y-53140826D01*
X115473099Y-53095818D01*
X115420332Y-52968426D01*
X115343726Y-52853776D01*
X115246224Y-52756274D01*
X115131574Y-52679668D01*
X115004182Y-52626901D01*
X114868944Y-52600000D01*
X114731056Y-52600000D01*
X114595818Y-52626901D01*
X114468426Y-52679668D01*
X114353776Y-52756274D01*
X114256274Y-52853776D01*
X114242093Y-52875000D01*
X113911920Y-52875000D01*
X113908515Y-52868630D01*
X113839935Y-52785065D01*
X113756370Y-52716485D01*
X113661032Y-52665526D01*
X113557584Y-52634145D01*
X113450001Y-52623549D01*
X113425000Y-52623549D01*
X113425000Y-51985572D01*
X113511032Y-51959474D01*
X113606370Y-51908515D01*
X113689935Y-51839935D01*
X113758515Y-51756370D01*
X113809474Y-51661032D01*
X113840855Y-51557584D01*
X113851451Y-51450001D01*
X113851451Y-50549999D01*
X113840855Y-50442416D01*
X113809474Y-50338968D01*
X113758515Y-50243630D01*
X113689935Y-50160065D01*
X113606370Y-50091485D01*
X113511032Y-50040526D01*
X113407584Y-50009145D01*
X113314733Y-50000000D01*
X114600000Y-50000000D01*
X114600000Y-50008398D01*
M02*
