M48
; DRILL file {KiCad (5.1.2)-1} date 10.09.2019 22:08:45
; FORMAT={-:-/ absolute / metric / decimal}
; #@! TF.CreationDate,2019-09-10T22:08:45+02:00
; #@! TF.GenerationSoftware,Kicad,Pcbnew,(5.1.2)-1
FMAT,2
METRIC
T1C0.400
T2C0.950
T3C3.200
T4C6.500
%
G90
G05
T1
X-86.1Y78.4
X-78.4Y-86.1
X74.0Y-50.4
X74.0Y-51.4
X74.0Y-52.4
X74.0Y-53.4
X74.0Y-54.4
X74.0Y-55.4
X74.0Y-56.4
X74.0Y-57.4
X74.0Y-63.6
X74.0Y-64.6
X74.0Y-65.6
X74.0Y-66.6
X74.0Y-67.6
X74.0Y-68.6
X74.0Y-69.6
X74.0Y-70.6
X74.0Y-71.6
X74.0Y-72.6
X74.0Y-73.6
X74.3Y-32.0
X74.3Y-79.0
X74.635Y-30.75
X74.635Y-33.25
X74.635Y-77.75
X74.635Y-80.25
X75.0Y-50.4
X75.0Y-51.4
X75.0Y-52.4
X75.0Y-53.4
X75.0Y-54.4
X75.0Y-55.4
X75.0Y-56.4
X75.0Y-57.4
X75.0Y-63.6
X75.0Y-64.6
X75.0Y-65.6
X75.0Y-66.6
X75.0Y-67.6
X75.0Y-68.6
X75.0Y-69.6
X75.0Y-70.6
X75.0Y-71.6
X75.0Y-72.6
X75.0Y-73.6
X75.55Y-29.835
X75.55Y-34.165
X75.55Y-76.835
X75.55Y-81.165
X76.0Y-50.4
X76.0Y-51.4
X76.0Y-52.4
X76.0Y-53.4
X76.0Y-54.4
X76.0Y-55.4
X76.0Y-56.4
X76.0Y-57.4
X76.0Y-63.6
X76.0Y-64.6
X76.0Y-65.6
X76.0Y-66.6
X76.0Y-67.6
X76.0Y-68.6
X76.0Y-69.6
X76.0Y-70.6
X76.0Y-71.6
X76.0Y-72.6
X76.0Y-73.6
X76.8Y-29.5
X76.8Y-34.5
X76.8Y-76.5
X76.8Y-81.5
X77.0Y-50.4
X77.0Y-51.4
X77.0Y-52.4
X77.0Y-53.4
X77.0Y-54.4
X77.0Y-55.4
X77.0Y-56.4
X77.0Y-57.4
X77.0Y-63.6
X77.0Y-64.6
X77.0Y-65.6
X77.0Y-66.6
X77.0Y-67.6
X77.0Y-68.6
X77.0Y-69.6
X77.0Y-70.6
X77.0Y-71.6
X77.0Y-72.6
X77.0Y-73.6
X78.0Y-50.4
X78.0Y-51.4
X78.0Y-52.4
X78.0Y-53.4
X78.0Y-54.4
X78.0Y-55.4
X78.0Y-56.4
X78.0Y-57.4
X78.0Y-63.6
X78.0Y-64.6
X78.0Y-65.6
X78.0Y-66.6
X78.0Y-67.6
X78.0Y-68.6
X78.0Y-69.6
X78.0Y-70.6
X78.0Y-71.6
X78.0Y-72.6
X78.0Y-73.6
X78.05Y-29.835
X78.05Y-34.165
X78.05Y-76.835
X78.05Y-81.165
X78.4Y86.1
X78.965Y-30.75
X78.965Y-33.25
X78.965Y-77.75
X78.965Y-80.25
X79.0Y-50.4
X79.0Y-51.4
X79.0Y-52.4
X79.0Y-53.4
X79.0Y-54.4
X79.0Y-55.4
X79.0Y-56.4
X79.0Y-57.4
X79.0Y-63.6
X79.0Y-64.6
X79.0Y-65.6
X79.0Y-66.6
X79.0Y-67.6
X79.0Y-68.6
X79.0Y-69.6
X79.0Y-70.6
X79.0Y-71.6
X79.0Y-72.6
X79.0Y-73.6
X79.3Y-32.0
X79.3Y-79.0
X80.0Y-50.4
X80.0Y-51.4
X80.0Y-52.4
X80.0Y-53.4
X80.0Y-54.4
X80.0Y-55.4
X80.0Y-56.4
X80.0Y-57.4
X80.0Y-63.6
X80.0Y-64.6
X80.0Y-65.6
X80.0Y-66.6
X80.0Y-67.6
X80.0Y-68.6
X80.0Y-69.6
X80.0Y-70.6
X80.0Y-71.6
X80.0Y-72.6
X80.0Y-73.6
X81.0Y-50.4
X81.0Y-51.4
X81.0Y-52.4
X81.0Y-53.4
X81.0Y-54.4
X81.0Y-55.4
X81.0Y-56.4
X81.0Y-57.4
X81.0Y-63.6
X81.0Y-64.6
X81.0Y-65.6
X81.0Y-66.6
X81.0Y-67.6
X81.0Y-68.6
X81.0Y-69.6
X81.0Y-70.6
X81.0Y-71.6
X81.0Y-72.6
X81.0Y-73.6
X82.0Y-50.4
X82.0Y-51.4
X82.0Y-52.4
X82.0Y-53.4
X82.0Y-54.4
X82.0Y-55.4
X82.0Y-56.4
X82.0Y-57.4
X82.0Y-63.6
X82.0Y-64.6
X82.0Y-65.6
X82.0Y-66.6
X82.0Y-67.6
X82.0Y-68.6
X82.0Y-69.6
X82.0Y-70.6
X82.0Y-71.6
X82.0Y-72.6
X82.0Y-73.6
X83.0Y-50.4
X83.0Y-51.4
X83.0Y-52.4
X83.0Y-53.4
X83.0Y-54.4
X83.0Y-55.4
X83.0Y-56.4
X83.0Y-57.4
X83.0Y-63.6
X83.0Y-64.6
X83.0Y-65.6
X83.0Y-66.6
X83.0Y-67.6
X83.0Y-68.6
X83.0Y-69.6
X83.0Y-70.6
X83.0Y-71.6
X83.0Y-72.6
X83.0Y-73.6
X84.0Y-50.4
X84.0Y-51.4
X84.0Y-52.4
X84.0Y-53.4
X84.0Y-54.4
X84.0Y-55.4
X84.0Y-56.4
X84.0Y-57.4
X84.0Y-63.6
X84.0Y-64.6
X84.0Y-65.6
X84.0Y-66.6
X84.0Y-67.6
X84.0Y-68.6
X84.0Y-69.6
X84.0Y-70.6
X84.0Y-71.6
X84.0Y-72.6
X84.0Y-73.6
X85.0Y-50.4
X85.0Y-51.4
X85.0Y-52.4
X85.0Y-53.4
X85.0Y-54.4
X85.0Y-55.4
X85.0Y-56.4
X85.0Y-57.4
X85.0Y-63.6
X85.0Y-64.6
X85.0Y-65.6
X85.0Y-66.6
X85.0Y-67.6
X85.0Y-68.6
X85.0Y-69.6
X85.0Y-70.6
X85.0Y-71.6
X85.0Y-72.6
X85.0Y-73.6
X86.0Y-50.4
X86.0Y-51.4
X86.0Y-52.4
X86.0Y-53.4
X86.0Y-54.4
X86.0Y-55.4
X86.0Y-56.4
X86.0Y-57.4
X86.0Y-63.6
X86.0Y-64.6
X86.0Y-65.6
X86.0Y-66.6
X86.0Y-67.6
X86.0Y-68.6
X86.0Y-69.6
X86.0Y-70.6
X86.0Y-71.6
X86.0Y-72.6
X86.0Y-73.6
X87.0Y-63.6
X87.0Y-64.6
X87.0Y-65.6
X87.0Y-66.6
X87.0Y-67.6
X87.0Y-68.6
X87.0Y-69.6
X87.0Y-70.6
X87.0Y-71.6
X87.0Y-72.6
X87.0Y-73.6
X87.7Y-54.7
X88.0Y-63.6
X88.0Y-64.6
X88.0Y-65.6
X88.0Y-66.6
X88.0Y-67.6
X88.0Y-68.6
X88.0Y-69.6
X88.0Y-70.6
X88.0Y-71.6
X88.0Y-72.6
X88.0Y-73.6
X90.5Y-51.4
X90.5Y-52.2
X90.5Y-53.0
X91.3Y-51.4
X91.3Y-53.0
X92.1Y-51.4
X92.1Y-52.2
X92.1Y-53.0
X92.675Y-54.7
X95.5Y-51.3
X95.6Y-54.7
X99.4Y-51.3
X102.3Y-59.575
X105.0Y-61.225
X106.8Y-55.4
X108.275Y-54.3
X108.311Y-60.675
X108.7Y-53.3
X108.8Y-51.9
X109.072Y-59.18
X114.8Y-53.3
X116.5Y-61.1
X118.5Y-37.0
X118.5Y-38.0
X118.5Y-39.0
X118.5Y-40.0
X118.5Y-41.0
X118.5Y-42.0
X118.5Y-43.0
X118.5Y-44.0
X118.5Y-45.0
X118.5Y-46.0
X118.5Y-47.0
X118.5Y-48.0
X118.5Y-49.0
X118.5Y-50.0
X118.5Y-51.0
X118.5Y-52.0
X118.5Y-53.0
X118.5Y-54.0
X118.5Y-55.0
X118.5Y-56.0
X118.5Y-57.0
X118.5Y-58.0
X118.5Y-59.0
X118.5Y-60.0
X118.5Y-61.0
X119.5Y-37.0
X119.5Y-38.0
X119.5Y-39.0
X119.5Y-40.0
X119.5Y-41.0
X119.5Y-42.0
X119.5Y-43.0
X119.5Y-44.0
X119.5Y-45.0
X119.5Y-46.0
X119.5Y-47.0
X119.5Y-48.0
X119.5Y-49.0
X119.5Y-50.0
X119.5Y-51.0
X119.5Y-52.0
X119.5Y-53.0
X119.5Y-54.0
X119.5Y-55.0
X119.5Y-56.0
X119.5Y-57.0
X119.5Y-58.0
X119.5Y-59.0
X119.5Y-60.0
X119.5Y-61.0
X120.5Y-37.0
X120.5Y-38.0
X120.5Y-39.0
X120.5Y-40.0
X120.5Y-41.0
X120.5Y-42.0
X120.5Y-43.0
X120.5Y-44.0
X120.5Y-45.0
X120.5Y-46.0
X120.5Y-47.0
X120.5Y-48.0
X120.5Y-49.0
X120.5Y-50.0
X120.5Y-51.0
X120.5Y-52.0
X120.5Y-53.0
X120.5Y-54.0
X120.5Y-55.0
X120.5Y-56.0
X120.5Y-57.0
X120.5Y-58.0
X120.5Y-59.0
X120.5Y-60.0
X120.5Y-61.0
X121.5Y-37.0
X121.5Y-38.0
X121.5Y-39.0
X121.5Y-40.0
X121.5Y-41.0
X121.5Y-42.0
X121.5Y-43.0
X121.5Y-44.0
X121.5Y-45.0
X121.5Y-46.0
X121.5Y-47.0
X121.5Y-48.0
X121.5Y-49.0
X121.5Y-50.0
X121.5Y-51.0
X121.5Y-52.0
X121.5Y-53.0
X121.5Y-54.0
X121.5Y-55.0
X121.5Y-56.0
X121.5Y-57.0
X121.5Y-58.0
X121.5Y-59.0
X121.5Y-60.0
X121.5Y-61.0
X122.5Y-37.0
X122.5Y-38.0
X122.5Y-39.0
X122.5Y-40.0
X122.5Y-41.0
X122.5Y-42.0
X122.5Y-43.0
X122.5Y-44.0
X122.5Y-45.0
X122.5Y-46.0
X122.5Y-47.0
X122.5Y-48.0
X122.5Y-49.0
X122.5Y-50.0
X122.5Y-51.0
X122.5Y-52.0
X122.5Y-53.0
X122.5Y-54.0
X122.5Y-55.0
X122.5Y-56.0
X122.5Y-57.0
X122.5Y-58.0
X122.5Y-59.0
X122.5Y-60.0
X122.5Y-61.0
X123.5Y-37.0
X123.5Y-38.0
X123.5Y-39.0
X123.5Y-40.0
X123.5Y-41.0
X123.5Y-42.0
X123.5Y-43.0
X123.5Y-44.0
X123.5Y-45.0
X123.5Y-46.0
X123.5Y-47.0
X123.5Y-48.0
X123.5Y-49.0
X123.5Y-50.0
X123.5Y-51.0
X123.5Y-52.0
X123.5Y-53.0
X123.5Y-54.0
X123.5Y-55.0
X123.5Y-56.0
X123.5Y-57.0
X123.5Y-58.0
X123.5Y-59.0
X123.5Y-60.0
X123.5Y-61.0
X124.5Y-37.0
X124.5Y-38.0
X124.5Y-39.0
X124.5Y-40.0
X124.5Y-41.0
X124.5Y-42.0
X124.5Y-43.0
X124.5Y-44.0
X124.5Y-45.0
X124.5Y-46.0
X124.5Y-47.0
X124.5Y-48.0
X124.5Y-49.0
X124.5Y-50.0
X124.5Y-51.0
X124.5Y-52.0
X124.5Y-53.0
X124.5Y-54.0
X124.5Y-55.0
X124.5Y-56.0
X124.5Y-57.0
X124.5Y-58.0
X124.5Y-59.0
X124.5Y-60.0
X124.5Y-61.0
X125.5Y-37.0
X125.5Y-38.0
X125.5Y-39.0
X125.5Y-40.0
X125.5Y-41.0
X125.5Y-42.0
X125.5Y-43.0
X125.5Y-44.0
X125.5Y-45.0
X125.5Y-46.0
X125.5Y-47.0
X125.5Y-48.0
X125.5Y-49.0
X125.5Y-50.0
X125.5Y-51.0
X125.5Y-52.0
X125.5Y-53.0
X125.5Y-54.0
X125.5Y-55.0
X125.5Y-56.0
X125.5Y-57.0
X125.5Y-58.0
X125.5Y-59.0
X125.5Y-60.0
X125.5Y-61.0
X126.5Y-37.0
X126.5Y-38.0
X126.5Y-39.0
X126.5Y-40.0
X126.5Y-41.0
X126.5Y-42.0
X126.5Y-43.0
X126.5Y-44.0
X126.5Y-45.0
X126.5Y-46.0
X126.5Y-47.0
X126.5Y-48.0
X126.5Y-49.0
X126.5Y-50.0
X126.5Y-51.0
X126.5Y-52.0
X126.5Y-53.0
X126.5Y-54.0
X126.5Y-55.0
X126.5Y-56.0
X126.5Y-57.0
X126.5Y-58.0
X126.5Y-59.0
X126.5Y-60.0
X126.5Y-61.0
X127.5Y-37.0
X127.5Y-38.0
X127.5Y-39.0
X127.5Y-40.0
X127.5Y-41.0
X127.5Y-42.0
X127.5Y-43.0
X127.5Y-44.0
X127.5Y-45.0
X127.5Y-46.0
X127.5Y-47.0
X127.5Y-48.0
X127.5Y-49.0
X127.5Y-50.0
X127.5Y-51.0
X127.5Y-52.0
X127.5Y-53.0
X127.5Y-54.0
X127.5Y-55.0
X127.5Y-56.0
X127.5Y-57.0
X127.5Y-58.0
X127.5Y-59.0
X127.5Y-60.0
X127.5Y-61.0
X128.5Y-37.0
X128.5Y-38.0
X128.5Y-39.0
X128.5Y-40.0
X128.5Y-41.0
X128.5Y-42.0
X128.5Y-43.0
X128.5Y-44.0
X128.5Y-45.0
X128.5Y-46.0
X128.5Y-47.0
X128.5Y-48.0
X128.5Y-49.0
X128.5Y-50.0
X128.5Y-51.0
X128.5Y-52.0
X128.5Y-53.0
X128.5Y-54.0
X128.5Y-55.0
X128.5Y-56.0
X128.5Y-57.0
X128.5Y-58.0
X128.5Y-59.0
X128.5Y-60.0
X128.5Y-61.0
X129.5Y-37.0
X129.5Y-38.0
X129.5Y-39.0
X129.5Y-40.0
X129.5Y-41.0
X129.5Y-42.0
X129.5Y-43.0
X129.5Y-44.0
X129.5Y-45.0
X129.5Y-46.0
X129.5Y-47.0
X129.5Y-48.0
X129.5Y-49.0
X129.5Y-50.0
X129.5Y-51.0
X129.5Y-52.0
X129.5Y-53.0
X129.5Y-54.0
X129.5Y-55.0
X129.5Y-56.0
X129.5Y-57.0
X129.5Y-58.0
X129.5Y-59.0
X129.5Y-60.0
X129.5Y-61.0
X130.5Y-37.0
X130.5Y-38.0
X130.5Y-39.0
X130.5Y-40.0
X130.5Y-41.0
X130.5Y-42.0
X130.5Y-43.0
X130.5Y-44.0
X130.5Y-45.0
X130.5Y-46.0
X130.5Y-47.0
X130.5Y-48.0
X130.5Y-49.0
X130.5Y-50.0
X130.5Y-51.0
X130.5Y-52.0
X130.5Y-53.0
X130.5Y-54.0
X130.5Y-55.0
X130.5Y-56.0
X130.5Y-57.0
X130.5Y-58.0
X130.5Y-59.0
X130.5Y-60.0
X130.5Y-61.0
X131.5Y-37.0
X131.5Y-38.0
X131.5Y-39.0
X131.5Y-40.0
X131.5Y-41.0
X131.5Y-42.0
X131.5Y-43.0
X131.5Y-44.0
X131.5Y-45.0
X131.5Y-46.0
X131.5Y-47.0
X131.5Y-48.0
X131.5Y-49.0
X131.5Y-50.0
X131.5Y-51.0
X131.5Y-52.0
X131.5Y-53.0
X131.5Y-54.0
X131.5Y-55.0
X131.5Y-56.0
X131.5Y-57.0
X131.5Y-58.0
X131.5Y-59.0
X131.5Y-60.0
X131.5Y-61.0
X132.0Y-63.6
X132.0Y-64.6
X132.0Y-65.6
X132.0Y-66.6
X132.0Y-67.6
X132.0Y-68.6
X132.0Y-69.6
X132.0Y-70.6
X132.0Y-71.6
X132.0Y-72.6
X132.0Y-73.6
X132.5Y-37.0
X132.5Y-38.0
X132.5Y-39.0
X132.5Y-40.0
X132.5Y-41.0
X132.5Y-42.0
X132.5Y-43.0
X132.5Y-44.0
X132.5Y-45.0
X132.5Y-46.0
X132.5Y-47.0
X132.5Y-48.0
X132.5Y-49.0
X132.5Y-50.0
X132.5Y-51.0
X132.5Y-52.0
X132.5Y-53.0
X132.5Y-54.0
X132.5Y-55.0
X132.5Y-56.0
X132.5Y-57.0
X132.5Y-58.0
X132.5Y-59.0
X132.5Y-60.0
X132.5Y-61.0
X133.0Y-63.6
X133.0Y-64.6
X133.0Y-65.6
X133.0Y-66.6
X133.0Y-67.6
X133.0Y-68.6
X133.0Y-69.6
X133.0Y-70.6
X133.0Y-71.6
X133.0Y-72.6
X133.0Y-73.6
X134.0Y-63.6
X134.0Y-64.6
X134.0Y-65.6
X134.0Y-66.6
X134.0Y-67.6
X134.0Y-68.6
X134.0Y-69.6
X134.0Y-70.6
X134.0Y-71.6
X134.0Y-72.6
X134.0Y-73.6
X135.0Y-63.6
X135.0Y-64.6
X135.0Y-65.6
X135.0Y-66.6
X135.0Y-67.6
X135.0Y-68.6
X135.0Y-69.6
X135.0Y-70.6
X135.0Y-71.6
X135.0Y-72.6
X135.0Y-73.6
X136.0Y-37.2
X136.0Y-38.2
X136.0Y-39.2
X136.0Y-40.2
X136.0Y-41.2
X136.0Y-42.2
X136.0Y-43.2
X136.0Y-44.2
X136.0Y-45.2
X136.0Y-46.2
X136.0Y-47.2
X136.0Y-48.2
X136.0Y-49.2
X136.0Y-50.2
X136.0Y-51.2
X136.0Y-52.2
X136.0Y-53.2
X136.0Y-54.2
X136.0Y-55.2
X136.0Y-56.2
X136.0Y-57.2
X136.0Y-58.2
X136.0Y-59.2
X136.0Y-60.2
X136.0Y-61.2
X136.0Y-63.6
X136.0Y-64.6
X136.0Y-65.6
X136.0Y-66.6
X136.0Y-67.6
X136.0Y-68.6
X136.0Y-69.6
X136.0Y-70.6
X136.0Y-71.6
X136.0Y-72.6
X136.0Y-73.6
X137.0Y-37.2
X137.0Y-38.2
X137.0Y-39.2
X137.0Y-40.2
X137.0Y-41.2
X137.0Y-42.2
X137.0Y-43.2
X137.0Y-44.2
X137.0Y-45.2
X137.0Y-46.2
X137.0Y-47.2
X137.0Y-48.2
X137.0Y-49.2
X137.0Y-50.2
X137.0Y-51.2
X137.0Y-52.2
X137.0Y-53.2
X137.0Y-54.2
X137.0Y-55.2
X137.0Y-56.2
X137.0Y-57.2
X137.0Y-58.2
X137.0Y-59.2
X137.0Y-60.2
X137.0Y-61.2
X137.0Y-63.6
X137.0Y-64.6
X137.0Y-65.6
X137.0Y-66.6
X137.0Y-67.6
X137.0Y-68.6
X137.0Y-69.6
X137.0Y-70.6
X137.0Y-71.6
X137.0Y-72.6
X137.0Y-73.6
X138.0Y-37.2
X138.0Y-38.2
X138.0Y-39.2
X138.0Y-40.2
X138.0Y-41.2
X138.0Y-42.2
X138.0Y-43.2
X138.0Y-44.2
X138.0Y-45.2
X138.0Y-46.2
X138.0Y-47.2
X138.0Y-48.2
X138.0Y-49.2
X138.0Y-50.2
X138.0Y-51.2
X138.0Y-52.2
X138.0Y-53.2
X138.0Y-54.2
X138.0Y-55.2
X138.0Y-56.2
X138.0Y-57.2
X138.0Y-58.2
X138.0Y-59.2
X138.0Y-60.2
X138.0Y-61.2
X138.0Y-63.6
X138.0Y-64.6
X138.0Y-65.6
X138.0Y-66.6
X138.0Y-67.6
X138.0Y-68.6
X138.0Y-69.6
X138.0Y-70.6
X138.0Y-71.6
X138.0Y-72.6
X138.0Y-73.6
X139.0Y-37.2
X139.0Y-38.2
X139.0Y-39.2
X139.0Y-40.2
X139.0Y-41.2
X139.0Y-42.2
X139.0Y-43.2
X139.0Y-44.2
X139.0Y-45.2
X139.0Y-46.2
X139.0Y-47.2
X139.0Y-48.2
X139.0Y-49.2
X139.0Y-50.2
X139.0Y-51.2
X139.0Y-52.2
X139.0Y-53.2
X139.0Y-54.2
X139.0Y-55.2
X139.0Y-56.2
X139.0Y-57.2
X139.0Y-58.2
X139.0Y-59.2
X139.0Y-60.2
X139.0Y-61.2
X139.0Y-63.6
X139.0Y-64.6
X139.0Y-65.6
X139.0Y-66.6
X139.0Y-67.6
X139.0Y-68.6
X139.0Y-69.6
X139.0Y-70.6
X139.0Y-71.6
X139.0Y-72.6
X139.0Y-73.6
X140.0Y-37.2
X140.0Y-38.2
X140.0Y-39.2
X140.0Y-40.2
X140.0Y-41.2
X140.0Y-42.2
X140.0Y-43.2
X140.0Y-44.2
X140.0Y-45.2
X140.0Y-46.2
X140.0Y-47.2
X140.0Y-48.2
X140.0Y-49.2
X140.0Y-50.2
X140.0Y-51.2
X140.0Y-52.2
X140.0Y-53.2
X140.0Y-54.2
X140.0Y-55.2
X140.0Y-56.2
X140.0Y-57.2
X140.0Y-58.2
X140.0Y-59.2
X140.0Y-60.2
X140.0Y-61.2
X140.0Y-63.6
X140.0Y-64.6
X140.0Y-65.6
X140.0Y-66.6
X140.0Y-67.6
X140.0Y-68.6
X140.0Y-69.6
X140.0Y-70.6
X140.0Y-71.6
X140.0Y-72.6
X140.0Y-73.6
X140.8Y-32.0
X140.8Y-79.0
X141.0Y-37.2
X141.0Y-38.2
X141.0Y-39.2
X141.0Y-40.2
X141.0Y-41.2
X141.0Y-42.2
X141.0Y-43.2
X141.0Y-44.2
X141.0Y-45.2
X141.0Y-46.2
X141.0Y-47.2
X141.0Y-48.2
X141.0Y-49.2
X141.0Y-50.2
X141.0Y-51.2
X141.0Y-52.2
X141.0Y-53.2
X141.0Y-54.2
X141.0Y-55.2
X141.0Y-56.2
X141.0Y-57.2
X141.0Y-58.2
X141.0Y-59.2
X141.0Y-60.2
X141.0Y-61.2
X141.0Y-63.6
X141.0Y-64.6
X141.0Y-65.6
X141.0Y-66.6
X141.0Y-67.6
X141.0Y-68.6
X141.0Y-69.6
X141.0Y-70.6
X141.0Y-71.6
X141.0Y-72.6
X141.0Y-73.6
X141.135Y-30.75
X141.135Y-33.25
X141.135Y-77.75
X141.135Y-80.25
X142.0Y-37.2
X142.0Y-38.2
X142.0Y-39.2
X142.0Y-40.2
X142.0Y-41.2
X142.0Y-42.2
X142.0Y-43.2
X142.0Y-44.2
X142.0Y-45.2
X142.0Y-46.2
X142.0Y-47.2
X142.0Y-48.2
X142.0Y-49.2
X142.0Y-50.2
X142.0Y-51.2
X142.0Y-52.2
X142.0Y-53.2
X142.0Y-54.2
X142.0Y-55.2
X142.0Y-56.2
X142.0Y-57.2
X142.0Y-58.2
X142.0Y-59.2
X142.0Y-60.2
X142.0Y-61.2
X142.0Y-63.6
X142.0Y-64.6
X142.0Y-65.6
X142.0Y-66.6
X142.0Y-67.6
X142.0Y-68.6
X142.0Y-69.6
X142.0Y-70.6
X142.0Y-71.6
X142.0Y-72.6
X142.0Y-73.6
X142.05Y-29.835
X142.05Y-34.165
X142.05Y-76.835
X142.05Y-81.165
X143.0Y-37.2
X143.0Y-38.2
X143.0Y-39.2
X143.0Y-40.2
X143.0Y-41.2
X143.0Y-42.2
X143.0Y-43.2
X143.0Y-44.2
X143.0Y-45.2
X143.0Y-46.2
X143.0Y-47.2
X143.0Y-48.2
X143.0Y-49.2
X143.0Y-50.2
X143.0Y-51.2
X143.0Y-52.2
X143.0Y-53.2
X143.0Y-54.2
X143.0Y-55.2
X143.0Y-56.2
X143.0Y-57.2
X143.0Y-58.2
X143.0Y-59.2
X143.0Y-60.2
X143.0Y-61.2
X143.0Y-63.6
X143.0Y-64.6
X143.0Y-65.6
X143.0Y-66.6
X143.0Y-67.6
X143.0Y-68.6
X143.0Y-69.6
X143.0Y-70.6
X143.0Y-71.6
X143.0Y-72.6
X143.0Y-73.6
X143.3Y-29.5
X143.3Y-34.5
X143.3Y-76.5
X143.3Y-81.5
X144.0Y-37.2
X144.0Y-38.2
X144.0Y-39.2
X144.0Y-40.2
X144.0Y-41.2
X144.0Y-42.2
X144.0Y-43.2
X144.0Y-44.2
X144.0Y-45.2
X144.0Y-46.2
X144.0Y-47.2
X144.0Y-48.2
X144.0Y-49.2
X144.0Y-50.2
X144.0Y-51.2
X144.0Y-52.2
X144.0Y-53.2
X144.0Y-54.2
X144.0Y-55.2
X144.0Y-56.2
X144.0Y-57.2
X144.0Y-58.2
X144.0Y-59.2
X144.0Y-60.2
X144.0Y-61.2
X144.0Y-63.6
X144.0Y-64.6
X144.0Y-65.6
X144.0Y-66.6
X144.0Y-67.6
X144.0Y-68.6
X144.0Y-69.6
X144.0Y-70.6
X144.0Y-71.6
X144.0Y-72.6
X144.0Y-73.6
X144.55Y-29.835
X144.55Y-34.165
X144.55Y-76.835
X144.55Y-81.165
X145.0Y-37.2
X145.0Y-38.2
X145.0Y-39.2
X145.0Y-40.2
X145.0Y-41.2
X145.0Y-42.2
X145.0Y-43.2
X145.0Y-44.2
X145.0Y-45.2
X145.0Y-46.2
X145.0Y-47.2
X145.0Y-48.2
X145.0Y-49.2
X145.0Y-50.2
X145.0Y-51.2
X145.0Y-52.2
X145.0Y-53.2
X145.0Y-54.2
X145.0Y-55.2
X145.0Y-56.2
X145.0Y-57.2
X145.0Y-58.2
X145.0Y-59.2
X145.0Y-60.2
X145.0Y-61.2
X145.0Y-63.6
X145.0Y-64.6
X145.0Y-65.6
X145.0Y-66.6
X145.0Y-67.6
X145.0Y-68.6
X145.0Y-69.6
X145.0Y-70.6
X145.0Y-71.6
X145.0Y-72.6
X145.0Y-73.6
X145.465Y-30.75
X145.465Y-33.25
X145.465Y-77.75
X145.465Y-80.25
X145.8Y-32.0
X145.8Y-79.0
X146.0Y-37.2
X146.0Y-38.2
X146.0Y-39.2
X146.0Y-40.2
X146.0Y-41.2
X146.0Y-42.2
X146.0Y-43.2
X146.0Y-44.2
X146.0Y-45.2
X146.0Y-46.2
X146.0Y-47.2
X146.0Y-48.2
X146.0Y-49.2
X146.0Y-50.2
X146.0Y-51.2
X146.0Y-52.2
X146.0Y-53.2
X146.0Y-54.2
X146.0Y-55.2
X146.0Y-56.2
X146.0Y-57.2
X146.0Y-58.2
X146.0Y-59.2
X146.0Y-60.2
X146.0Y-61.2
X146.0Y-63.6
X146.0Y-64.6
X146.0Y-65.6
X146.0Y-66.6
X146.0Y-67.6
X146.0Y-68.6
X146.0Y-69.6
X146.0Y-70.6
X146.0Y-71.6
X146.0Y-72.6
X146.0Y-73.6
T2
X91.9Y-58.8
X94.4Y-58.8
X96.9Y-58.8
X99.4Y-58.8
T3
X143.3Y-32.0
X76.8Y-32.0
X143.3Y-79.0
X76.8Y-79.0
T4
X80.28Y-42.966
X110.28Y-42.966
T0
M30
