  0
SECTION
  2
HEADER
  9
$ANGBASE
  50
0.0
  9
$ANGDIR
  70
  1
  9
$MEASUREMENT
  70
0
  0
ENDSEC
  0
SECTION
  2
TABLES
  0
TABLE
  2
LTYPE
  70
4
  0
LTYPE
  5
40F
  2
CONTINUOUS
  70
0
  3
Solid line
  72
65
  73
0
  40
0.0
  0
LTYPE
  5
410
  2
DASHDOT
 70
0
  3
Dash Dot ____ _ ____ _
 72
65
 73
4
 40
2.0
 49
1.25
 49
-0.25
 49
0.25
 49
-0.25
  0
LTYPE
  5
411
  2
DASHED
 70
0
  3
Dashed __ __ __ __ __
 72
65
 73
2
 40
0.75
 49
0.5
 49
-0.25
  0
LTYPE
  5
43B
  2
DOTTED
 70
0
  3
Dotted .  .  .  .
 72
65
 73
2
 40
0.2
 49
0.0
 49
-0.2
  0
ENDTAB
  0
TABLE
  2
STYLE
  70
4
  0
STYLE
  2
KICAD
  70
0
  40
0
  41
1
  42
1
  50
0
  71
0
  3
isocp.shx
  0
STYLE
  2
KICADB
  70
0
  40
0
  41
1
  42
1
  50
0
  71
0
  3
isocp.shx
  0
STYLE
  2
KICADI
  70
0
  40
0
  41
1
  42
1
  50
15
  71
0
  3
isocp.shx
  0
STYLE
  2
KICADBI
  70
0
  40
0
  41
1
  42
1
  50
15
  71
0
  3
isocp.shx
  0
ENDTAB
  0
TABLE
  2
LAYER
  70
30
  0
LAYER
  2
BLACK
  70
0
  62
7
  6
CONTINUOUS
  0
LAYER
  2
GRAY1
  70
0
  62
251
  6
CONTINUOUS
  0
LAYER
  2
GRAY2
  70
0
  62
8
  6
CONTINUOUS
  0
LAYER
  2
GRAY3
  70
0
  62
9
  6
CONTINUOUS
  0
LAYER
  2
WHITE
  70
0
  62
7
  6
CONTINUOUS
  0
LAYER
  2
LYELLOW
  70
0
  62
51
  6
CONTINUOUS
  0
LAYER
  2
BLUE1
  70
0
  62
178
  6
CONTINUOUS
  0
LAYER
  2
GREEN1
  70
0
  62
98
  6
CONTINUOUS
  0
LAYER
  2
CYAN1
  70
0
  62
138
  6
CONTINUOUS
  0
LAYER
  2
RED1
  70
0
  62
18
  6
CONTINUOUS
  0
LAYER
  2
MAGENTA1
  70
0
  62
228
  6
CONTINUOUS
  0
LAYER
  2
BROWN1
  70
0
  62
58
  6
CONTINUOUS
  0
LAYER
  2
BLUE2
  70
0
  62
5
  6
CONTINUOUS
  0
LAYER
  2
GREEN2
  70
0
  62
3
  6
CONTINUOUS
  0
LAYER
  2
CYAN2
  70
0
  62
4
  6
CONTINUOUS
  0
LAYER
  2
RED2
  70
0
  62
1
  6
CONTINUOUS
  0
LAYER
  2
MAGENTA2
  70
0
  62
6
  6
CONTINUOUS
  0
LAYER
  2
BROWN2
  70
0
  62
54
  6
CONTINUOUS
  0
LAYER
  2
BLUE3
  70
0
  62
171
  6
CONTINUOUS
  0
LAYER
  2
GREEN3
  70
0
  62
91
  6
CONTINUOUS
  0
LAYER
  2
CYAN3
  70
0
  62
131
  6
CONTINUOUS
  0
LAYER
  2
RED3
  70
0
  62
11
  6
CONTINUOUS
  0
LAYER
  2
MAGENTA3
  70
0
  62
221
  6
CONTINUOUS
  0
LAYER
  2
YELLOW3
  70
0
  62
2
  6
CONTINUOUS
  0
LAYER
  2
BLUE4
  70
0
  62
5
  6
CONTINUOUS
  0
LAYER
  2
GREEN4
  70
0
  62
3
  6
CONTINUOUS
  0
LAYER
  2
CYAN4
  70
0
  62
4
  6
CONTINUOUS
  0
LAYER
  2
RED4
  70
0
  62
1
  6
CONTINUOUS
  0
LAYER
  2
MAGENTA4
  70
0
  62
6
  6
CONTINUOUS
  0
LAYER
  2
YELLOW4
  70
0
  62
2
  6
CONTINUOUS
  0
ENDTAB
  0
ENDSEC
  0
SECTION
  2
ENTITIES
0
LINE
8
BLACK
6
CONTINUOUS
10
134.22
20
-61.7014
11
134.238
21
-61.7072
0
LINE
8
BLACK
6
CONTINUOUS
10
134.238
20
-61.7072
11
134.256
21
-61.7165
0
LINE
8
BLACK
6
CONTINUOUS
10
134.256
20
-61.7165
11
134.271
21
-61.7289
0
LINE
8
BLACK
6
CONTINUOUS
10
134.271
20
-61.7289
11
134.284
21
-61.7442
0
LINE
8
BLACK
6
CONTINUOUS
10
134.284
20
-61.7442
11
134.293
21
-61.7615
0
LINE
8
BLACK
6
CONTINUOUS
10
134.293
20
-61.7615
11
134.299
21
-61.7804
0
LINE
8
BLACK
6
CONTINUOUS
10
134.299
20
-61.7804
11
134.3
21
-61.8
0
LINE
8
BLACK
6
CONTINUOUS
10
134.3
20
-61.8
11
134.299
21
-61.8196
0
LINE
8
BLACK
6
CONTINUOUS
10
134.299
20
-61.8196
11
134.293
21
-61.8385
0
LINE
8
BLACK
6
CONTINUOUS
10
134.293
20
-61.8385
11
134.284
21
-61.8558
0
LINE
8
BLACK
6
CONTINUOUS
10
134.284
20
-61.8558
11
134.271
21
-61.8711
0
LINE
8
BLACK
6
CONTINUOUS
10
134.271
20
-61.8711
11
134.256
21
-61.8835
0
LINE
8
BLACK
6
CONTINUOUS
10
134.256
20
-61.8835
11
134.238
21
-61.8928
0
LINE
8
BLACK
6
CONTINUOUS
10
134.238
20
-61.8928
11
134.22
21
-61.8986
0
LINE
8
BLACK
6
CONTINUOUS
10
134.22
20
-61.8986
11
134.205
21
-61.9
0
LINE
8
BLACK
6
CONTINUOUS
10
134.205
20
-61.9
11
129.195
21
-61.9
0
LINE
8
BLACK
6
CONTINUOUS
10
129.195
20
-61.9
11
129.18
21
-61.8986
0
LINE
8
BLACK
6
CONTINUOUS
10
129.18
20
-61.8986
11
129.162
21
-61.8928
0
LINE
8
BLACK
6
CONTINUOUS
10
129.162
20
-61.8928
11
129.144
21
-61.8835
0
LINE
8
BLACK
6
CONTINUOUS
10
129.144
20
-61.8835
11
129.129
21
-61.8711
0
LINE
8
BLACK
6
CONTINUOUS
10
129.129
20
-61.8711
11
129.116
21
-61.8558
0
LINE
8
BLACK
6
CONTINUOUS
10
129.116
20
-61.8558
11
129.107
21
-61.8385
0
LINE
8
BLACK
6
CONTINUOUS
10
129.107
20
-61.8385
11
129.101
21
-61.8196
0
LINE
8
BLACK
6
CONTINUOUS
10
129.101
20
-61.8196
11
129.1
21
-61.8
0
LINE
8
BLACK
6
CONTINUOUS
10
129.1
20
-61.8
11
129.101
21
-61.7804
0
LINE
8
BLACK
6
CONTINUOUS
10
129.101
20
-61.7804
11
129.107
21
-61.7615
0
LINE
8
BLACK
6
CONTINUOUS
10
129.107
20
-61.7615
11
129.116
21
-61.7442
0
LINE
8
BLACK
6
CONTINUOUS
10
129.116
20
-61.7442
11
129.129
21
-61.7289
0
LINE
8
BLACK
6
CONTINUOUS
10
129.129
20
-61.7289
11
129.144
21
-61.7165
0
LINE
8
BLACK
6
CONTINUOUS
10
129.144
20
-61.7165
11
129.162
21
-61.7072
0
LINE
8
BLACK
6
CONTINUOUS
10
129.162
20
-61.7072
11
129.18
21
-61.7014
0
LINE
8
BLACK
6
CONTINUOUS
10
129.18
20
-61.7014
11
129.195
21
-61.7
0
LINE
8
BLACK
6
CONTINUOUS
10
129.195
20
-61.7
11
134.205
21
-61.7
0
LINE
8
BLACK
6
CONTINUOUS
10
134.205
20
-61.7
11
134.22
21
-61.7014
0
LINE
8
BLACK
6
CONTINUOUS
10
133.183
20
-59.0724
11
133.186
21
-59.0728
0
LINE
8
BLACK
6
CONTINUOUS
10
133.186
20
-59.0728
11
133.19
21
-59.0727
0
LINE
8
BLACK
6
CONTINUOUS
10
133.19
20
-59.0727
11
133.199
21
-59.0742
0
LINE
8
BLACK
6
CONTINUOUS
10
133.199
20
-59.0742
11
133.207
21
-59.0752
0
LINE
8
BLACK
6
CONTINUOUS
10
133.207
20
-59.0752
11
133.211
21
-59.0763
0
LINE
8
BLACK
6
CONTINUOUS
10
133.211
20
-59.0763
11
133.214
21
-59.0769
0
LINE
8
BLACK
6
CONTINUOUS
10
133.214
20
-59.0769
11
133.223
21
-59.08
0
LINE
8
BLACK
6
CONTINUOUS
10
133.223
20
-59.08
11
133.231
21
-59.0826
0
LINE
8
BLACK
6
CONTINUOUS
10
133.231
20
-59.0826
11
133.234
21
-59.0844
0
LINE
8
BLACK
6
CONTINUOUS
10
133.234
20
-59.0844
11
133.238
21
-59.0858
0
LINE
8
BLACK
6
CONTINUOUS
10
133.238
20
-59.0858
11
133.359
21
-59.1463
0
LINE
8
BLACK
6
CONTINUOUS
10
133.359
20
-59.1463
11
133.36
21
-59.1471
0
LINE
8
BLACK
6
CONTINUOUS
10
133.36
20
-59.1471
11
133.366
21
-59.151
0
LINE
8
BLACK
6
CONTINUOUS
10
133.366
20
-59.151
11
133.372
21
-59.1543
0
LINE
8
BLACK
6
CONTINUOUS
10
133.372
20
-59.1543
11
133.376
21
-59.1577
0
LINE
8
BLACK
6
CONTINUOUS
10
133.376
20
-59.1577
11
133.381
21
-59.1606
0
LINE
8
BLACK
6
CONTINUOUS
10
133.381
20
-59.1606
11
133.386
21
-59.1655
0
LINE
8
BLACK
6
CONTINUOUS
10
133.386
20
-59.1655
11
133.392
21
-59.1701
0
LINE
8
BLACK
6
CONTINUOUS
10
133.392
20
-59.1701
11
133.452
21
-59.2305
0
LINE
8
BLACK
6
CONTINUOUS
10
133.452
20
-59.2305
11
133.453
21
-59.2318
0
LINE
8
BLACK
6
CONTINUOUS
10
133.453
20
-59.2318
11
133.458
21
-59.2374
0
LINE
8
BLACK
6
CONTINUOUS
10
133.458
20
-59.2374
11
133.463
21
-59.2426
0
LINE
8
BLACK
6
CONTINUOUS
10
133.463
20
-59.2426
11
133.465
21
-59.247
0
LINE
8
BLACK
6
CONTINUOUS
10
133.465
20
-59.247
11
133.469
21
-59.2512
0
LINE
8
BLACK
6
CONTINUOUS
10
133.469
20
-59.2512
11
133.472
21
-59.2575
0
LINE
8
BLACK
6
CONTINUOUS
10
133.472
20
-59.2575
11
133.476
21
-59.2635
0
LINE
8
BLACK
6
CONTINUOUS
10
133.476
20
-59.2635
11
133.536
21
-59.3845
0
LINE
8
BLACK
6
CONTINUOUS
10
133.536
20
-59.3845
11
133.537
21
-59.3861
0
LINE
8
BLACK
6
CONTINUOUS
10
133.537
20
-59.3861
11
133.538
21
-59.3896
0
LINE
8
BLACK
6
CONTINUOUS
10
133.538
20
-59.3896
11
133.54
21
-59.3929
0
LINE
8
BLACK
6
CONTINUOUS
10
133.54
20
-59.3929
11
133.543
21
-59.4012
0
LINE
8
BLACK
6
CONTINUOUS
10
133.543
20
-59.4012
11
133.546
21
-59.4093
0
LINE
8
BLACK
6
CONTINUOUS
10
133.546
20
-59.4093
11
133.546
21
-59.413
0
LINE
8
BLACK
6
CONTINUOUS
10
133.546
20
-59.413
11
133.547
21
-59.4166
0
LINE
8
BLACK
6
CONTINUOUS
10
133.547
20
-59.4166
11
133.548
21
-59.4252
0
LINE
8
BLACK
6
CONTINUOUS
10
133.548
20
-59.4252
11
133.549
21
-59.4338
0
LINE
8
BLACK
6
CONTINUOUS
10
133.549
20
-59.4338
11
133.549
21
-59.4376
0
LINE
8
BLACK
6
CONTINUOUS
10
133.549
20
-59.4376
11
133.55
21
-59.4413
0
LINE
8
BLACK
6
CONTINUOUS
10
133.55
20
-59.4413
11
133.55
21
-59.6832
0
LINE
8
BLACK
6
CONTINUOUS
10
133.55
20
-59.6832
11
133.55
21
-59.685
0
LINE
8
BLACK
6
CONTINUOUS
10
133.55
20
-59.685
11
133.549
21
-59.6887
0
LINE
8
BLACK
6
CONTINUOUS
10
133.549
20
-59.6887
11
133.549
21
-59.6924
0
LINE
8
BLACK
6
CONTINUOUS
10
133.549
20
-59.6924
11
133.548
21
-59.701
0
LINE
8
BLACK
6
CONTINUOUS
10
133.548
20
-59.701
11
133.547
21
-59.7096
0
LINE
8
BLACK
6
CONTINUOUS
10
133.547
20
-59.7096
11
133.546
21
-59.7132
0
LINE
8
BLACK
6
CONTINUOUS
10
133.546
20
-59.7132
11
133.545
21
-59.7168
0
LINE
8
BLACK
6
CONTINUOUS
10
133.545
20
-59.7168
11
133.542
21
-59.7249
0
LINE
8
BLACK
6
CONTINUOUS
10
133.542
20
-59.7249
11
133.539
21
-59.7332
0
LINE
8
BLACK
6
CONTINUOUS
10
133.539
20
-59.7332
11
133.538
21
-59.7365
0
LINE
8
BLACK
6
CONTINUOUS
10
133.538
20
-59.7365
11
133.536
21
-59.74
0
LINE
8
BLACK
6
CONTINUOUS
10
133.536
20
-59.74
11
133.53
21
-59.7522
0
LINE
8
BLACK
6
CONTINUOUS
10
133.53
20
-59.7522
11
133.552
21
-59.7467
0
LINE
8
BLACK
6
CONTINUOUS
10
133.552
20
-59.7467
11
133.705
21
-59.645
0
LINE
8
BLACK
6
CONTINUOUS
10
133.705
20
-59.645
11
133.742
21
-59.608
0
LINE
8
BLACK
6
CONTINUOUS
10
133.742
20
-59.608
11
133.78
21
-59.5323
0
LINE
8
BLACK
6
CONTINUOUS
10
133.78
20
-59.5323
11
133.78
21
-59.3203
0
LINE
8
BLACK
6
CONTINUOUS
10
133.78
20
-59.3203
11
133.78
21
-59.3186
0
LINE
8
BLACK
6
CONTINUOUS
10
133.78
20
-59.3186
11
133.782
21
-59.2939
0
LINE
8
BLACK
6
CONTINUOUS
10
133.782
20
-59.2939
11
133.79
21
-59.2703
0
LINE
8
BLACK
6
CONTINUOUS
10
133.79
20
-59.2703
11
133.802
21
-59.2486
0
LINE
8
BLACK
6
CONTINUOUS
10
133.802
20
-59.2486
11
133.818
21
-59.2296
0
LINE
8
BLACK
6
CONTINUOUS
10
133.818
20
-59.2296
11
133.837
21
-59.2141
0
LINE
8
BLACK
6
CONTINUOUS
10
133.837
20
-59.2141
11
133.859
21
-59.2026
0
LINE
8
BLACK
6
CONTINUOUS
10
133.859
20
-59.2026
11
133.883
21
-59.1956
0
LINE
8
BLACK
6
CONTINUOUS
10
133.883
20
-59.1956
11
133.907
21
-59.1933
0
LINE
8
BLACK
6
CONTINUOUS
10
133.907
20
-59.1933
11
133.932
21
-59.1959
0
LINE
8
BLACK
6
CONTINUOUS
10
133.932
20
-59.1959
11
133.956
21
-59.2033
0
LINE
8
BLACK
6
CONTINUOUS
10
133.956
20
-59.2033
11
133.978
21
-59.215
0
LINE
8
BLACK
6
CONTINUOUS
10
133.978
20
-59.215
11
133.997
21
-59.2308
0
LINE
8
BLACK
6
CONTINUOUS
10
133.997
20
-59.2308
11
134.012
21
-59.2501
0
LINE
8
BLACK
6
CONTINUOUS
10
134.012
20
-59.2501
11
134.024
21
-59.2719
0
LINE
8
BLACK
6
CONTINUOUS
10
134.024
20
-59.2719
11
134.031
21
-59.2957
0
LINE
8
BLACK
6
CONTINUOUS
10
134.031
20
-59.2957
11
134.034
21
-59.3203
0
LINE
8
BLACK
6
CONTINUOUS
10
134.034
20
-59.3203
11
134.034
21
-59.5622
0
LINE
8
BLACK
6
CONTINUOUS
10
134.034
20
-59.5622
11
134.034
21
-59.564
0
LINE
8
BLACK
6
CONTINUOUS
10
134.034
20
-59.564
11
134.033
21
-59.5677
0
LINE
8
BLACK
6
CONTINUOUS
10
134.033
20
-59.5677
11
134.033
21
-59.5715
0
LINE
8
BLACK
6
CONTINUOUS
10
134.033
20
-59.5715
11
134.032
21
-59.58
0
LINE
8
BLACK
6
CONTINUOUS
10
134.032
20
-59.58
11
134.031
21
-59.5886
0
LINE
8
BLACK
6
CONTINUOUS
10
134.031
20
-59.5886
11
134.03
21
-59.5922
0
LINE
8
BLACK
6
CONTINUOUS
10
134.03
20
-59.5922
11
134.029
21
-59.5959
0
LINE
8
BLACK
6
CONTINUOUS
10
134.029
20
-59.5959
11
134.026
21
-59.604
0
LINE
8
BLACK
6
CONTINUOUS
10
134.026
20
-59.604
11
134.023
21
-59.6123
0
LINE
8
BLACK
6
CONTINUOUS
10
134.023
20
-59.6123
11
134.021
21
-59.6155
0
LINE
8
BLACK
6
CONTINUOUS
10
134.021
20
-59.6155
11
134.02
21
-59.619
0
LINE
8
BLACK
6
CONTINUOUS
10
134.02
20
-59.619
11
133.96
21
-59.74
0
LINE
8
BLACK
6
CONTINUOUS
10
133.96
20
-59.74
11
133.959
21
-59.7416
0
LINE
8
BLACK
6
CONTINUOUS
10
133.959
20
-59.7416
11
133.955
21
-59.7476
0
LINE
8
BLACK
6
CONTINUOUS
10
133.955
20
-59.7476
11
133.952
21
-59.7538
0
LINE
8
BLACK
6
CONTINUOUS
10
133.952
20
-59.7538
11
133.948
21
-59.7579
0
LINE
8
BLACK
6
CONTINUOUS
10
133.948
20
-59.7579
11
133.945
21
-59.7624
0
LINE
8
BLACK
6
CONTINUOUS
10
133.945
20
-59.7624
11
133.94
21
-59.7675
0
LINE
8
BLACK
6
CONTINUOUS
10
133.94
20
-59.7675
11
133.936
21
-59.773
0
LINE
8
BLACK
6
CONTINUOUS
10
133.936
20
-59.773
11
133.875
21
-59.8335
0
LINE
8
BLACK
6
CONTINUOUS
10
133.875
20
-59.8335
11
133.874
21
-59.8347
0
LINE
8
BLACK
6
CONTINUOUS
10
133.874
20
-59.8347
11
133.865
21
-59.842
0
LINE
8
BLACK
6
CONTINUOUS
10
133.865
20
-59.842
11
133.856
21
-59.8493
0
LINE
8
BLACK
6
CONTINUOUS
10
133.856
20
-59.8493
11
133.675
21
-59.9703
0
LINE
8
BLACK
6
CONTINUOUS
10
133.675
20
-59.9703
11
133.673
21
-59.9713
0
LINE
8
BLACK
6
CONTINUOUS
10
133.673
20
-59.9713
11
133.666
21
-59.9752
0
LINE
8
BLACK
6
CONTINUOUS
10
133.666
20
-59.9752
11
133.658
21
-59.9795
0
LINE
8
BLACK
6
CONTINUOUS
10
133.658
20
-59.9795
11
133.655
21
-59.9808
0
LINE
8
BLACK
6
CONTINUOUS
10
133.655
20
-59.9808
11
133.651
21
-59.9826
0
LINE
8
BLACK
6
CONTINUOUS
10
133.651
20
-59.9826
11
133.643
21
-59.985
0
LINE
8
BLACK
6
CONTINUOUS
10
133.643
20
-59.985
11
133.635
21
-59.9878
0
LINE
8
BLACK
6
CONTINUOUS
10
133.635
20
-59.9878
11
133.393
21
-60.0483
0
LINE
8
BLACK
6
CONTINUOUS
10
133.393
20
-60.0483
11
133.391
21
-60.0487
0
LINE
8
BLACK
6
CONTINUOUS
10
133.391
20
-60.0487
11
133.389
21
-60.049
0
LINE
8
BLACK
6
CONTINUOUS
10
133.389
20
-60.049
11
133.387
21
-60.0497
0
LINE
8
BLACK
6
CONTINUOUS
10
133.387
20
-60.0497
11
133.377
21
-60.0507
0
LINE
8
BLACK
6
CONTINUOUS
10
133.377
20
-60.0507
11
133.367
21
-60.052
0
LINE
8
BLACK
6
CONTINUOUS
10
133.367
20
-60.052
11
133.364
21
-60.0519
0
LINE
8
BLACK
6
CONTINUOUS
10
133.364
20
-60.0519
11
133.362
21
-60.0521
0
LINE
8
BLACK
6
CONTINUOUS
10
133.362
20
-60.0521
11
132.878
21
-60.0521
0
LINE
8
BLACK
6
CONTINUOUS
10
132.878
20
-60.0521
11
132.877
21
-60.0521
0
LINE
8
BLACK
6
CONTINUOUS
10
132.877
20
-60.0521
11
132.873
21
-60.0517
0
LINE
8
BLACK
6
CONTINUOUS
10
132.873
20
-60.0517
11
132.869
21
-60.0518
0
LINE
8
BLACK
6
CONTINUOUS
10
132.869
20
-60.0518
11
132.861
21
-60.0503
0
LINE
8
BLACK
6
CONTINUOUS
10
132.861
20
-60.0503
11
132.852
21
-60.0493
0
LINE
8
BLACK
6
CONTINUOUS
10
132.852
20
-60.0493
11
132.848
21
-60.0482
0
LINE
8
BLACK
6
CONTINUOUS
10
132.848
20
-60.0482
11
132.845
21
-60.0476
0
LINE
8
BLACK
6
CONTINUOUS
10
132.845
20
-60.0476
11
132.837
21
-60.0445
0
LINE
8
BLACK
6
CONTINUOUS
10
132.837
20
-60.0445
11
132.828
21
-60.0418
0
LINE
8
BLACK
6
CONTINUOUS
10
132.828
20
-60.0418
11
132.825
21
-60.04
0
LINE
8
BLACK
6
CONTINUOUS
10
132.825
20
-60.04
11
132.822
21
-60.0387
0
LINE
8
BLACK
6
CONTINUOUS
10
132.822
20
-60.0387
11
132.701
21
-59.9782
0
LINE
8
BLACK
6
CONTINUOUS
10
132.701
20
-59.9782
11
132.699
21
-59.9774
0
LINE
8
BLACK
6
CONTINUOUS
10
132.699
20
-59.9774
11
132.693
21
-59.9735
0
LINE
8
BLACK
6
CONTINUOUS
10
132.693
20
-59.9735
11
132.687
21
-59.9702
0
LINE
8
BLACK
6
CONTINUOUS
10
132.687
20
-59.9702
11
132.683
21
-59.9668
0
LINE
8
BLACK
6
CONTINUOUS
10
132.683
20
-59.9668
11
132.678
21
-59.9639
0
LINE
8
BLACK
6
CONTINUOUS
10
132.678
20
-59.9639
11
132.673
21
-59.9589
0
LINE
8
BLACK
6
CONTINUOUS
10
132.673
20
-59.9589
11
132.668
21
-59.9544
0
LINE
8
BLACK
6
CONTINUOUS
10
132.668
20
-59.9544
11
132.607
21
-59.8939
0
LINE
8
BLACK
6
CONTINUOUS
10
132.607
20
-59.8939
11
132.606
21
-59.8927
0
LINE
8
BLACK
6
CONTINUOUS
10
132.606
20
-59.8927
11
132.601
21
-59.8871
0
LINE
8
BLACK
6
CONTINUOUS
10
132.601
20
-59.8871
11
132.597
21
-59.8819
0
LINE
8
BLACK
6
CONTINUOUS
10
132.597
20
-59.8819
11
132.594
21
-59.8774
0
LINE
8
BLACK
6
CONTINUOUS
10
132.594
20
-59.8774
11
132.59
21
-59.8733
0
LINE
8
BLACK
6
CONTINUOUS
10
132.59
20
-59.8733
11
132.587
21
-59.867
0
LINE
8
BLACK
6
CONTINUOUS
10
132.587
20
-59.867
11
132.583
21
-59.8609
0
LINE
8
BLACK
6
CONTINUOUS
10
132.583
20
-59.8609
11
132.523
21
-59.74
0
LINE
8
BLACK
6
CONTINUOUS
10
132.523
20
-59.74
11
132.522
21
-59.7384
0
LINE
8
BLACK
6
CONTINUOUS
10
132.522
20
-59.7384
11
132.521
21
-59.7349
0
LINE
8
BLACK
6
CONTINUOUS
10
132.521
20
-59.7349
11
132.519
21
-59.7316
0
LINE
8
BLACK
6
CONTINUOUS
10
132.519
20
-59.7316
11
132.517
21
-59.7233
0
LINE
8
BLACK
6
CONTINUOUS
10
132.517
20
-59.7233
11
132.514
21
-59.7151
0
LINE
8
BLACK
6
CONTINUOUS
10
132.514
20
-59.7151
11
132.513
21
-59.7114
0
LINE
8
BLACK
6
CONTINUOUS
10
132.513
20
-59.7114
11
132.512
21
-59.7079
0
LINE
8
BLACK
6
CONTINUOUS
10
132.512
20
-59.7079
11
132.511
21
-59.6992
0
LINE
8
BLACK
6
CONTINUOUS
10
132.511
20
-59.6992
11
132.51
21
-59.6906
0
LINE
8
BLACK
6
CONTINUOUS
10
132.51
20
-59.6906
11
132.51
21
-59.6869
0
LINE
8
BLACK
6
CONTINUOUS
10
132.51
20
-59.6869
11
132.51
21
-59.6832
0
LINE
8
BLACK
6
CONTINUOUS
10
132.51
20
-59.6832
11
132.51
21
-59.4413
0
LINE
8
BLACK
6
CONTINUOUS
10
132.51
20
-59.4413
11
132.51
21
-59.4395
0
LINE
8
BLACK
6
CONTINUOUS
10
132.51
20
-59.4395
11
132.51
21
-59.4358
0
LINE
8
BLACK
6
CONTINUOUS
10
132.51
20
-59.4358
11
132.51
21
-59.4321
0
LINE
8
BLACK
6
CONTINUOUS
10
132.51
20
-59.4321
11
132.511
21
-59.4235
0
LINE
8
BLACK
6
CONTINUOUS
10
132.511
20
-59.4235
11
132.512
21
-59.4149
0
LINE
8
BLACK
6
CONTINUOUS
10
132.512
20
-59.4149
11
132.513
21
-59.4113
0
LINE
8
BLACK
6
CONTINUOUS
10
132.513
20
-59.4113
11
132.514
21
-59.4076
0
LINE
8
BLACK
6
CONTINUOUS
10
132.514
20
-59.4076
11
132.517
21
-59.3995
0
LINE
8
BLACK
6
CONTINUOUS
10
132.517
20
-59.3995
11
132.52
21
-59.3913
0
LINE
8
BLACK
6
CONTINUOUS
10
132.52
20
-59.3913
11
132.522
21
-59.388
0
LINE
8
BLACK
6
CONTINUOUS
10
132.522
20
-59.388
11
132.523
21
-59.3845
0
LINE
8
BLACK
6
CONTINUOUS
10
132.523
20
-59.3845
11
132.583
21
-59.2635
0
LINE
8
BLACK
6
CONTINUOUS
10
132.583
20
-59.2635
11
132.584
21
-59.262
0
LINE
8
BLACK
6
CONTINUOUS
10
132.584
20
-59.262
11
132.588
21
-59.256
0
LINE
8
BLACK
6
CONTINUOUS
10
132.588
20
-59.256
11
132.591
21
-59.2497
0
LINE
8
BLACK
6
CONTINUOUS
10
132.591
20
-59.2497
11
132.595
21
-59.2456
0
LINE
8
BLACK
6
CONTINUOUS
10
132.595
20
-59.2456
11
132.598
21
-59.2412
0
LINE
8
BLACK
6
CONTINUOUS
10
132.598
20
-59.2412
11
132.603
21
-59.236
0
LINE
8
BLACK
6
CONTINUOUS
10
132.603
20
-59.236
11
132.607
21
-59.2305
0
LINE
8
BLACK
6
CONTINUOUS
10
132.607
20
-59.2305
11
132.668
21
-59.1701
0
LINE
8
BLACK
6
CONTINUOUS
10
132.668
20
-59.1701
11
132.669
21
-59.1688
0
LINE
8
BLACK
6
CONTINUOUS
10
132.669
20
-59.1688
11
132.675
21
-59.1644
0
LINE
8
BLACK
6
CONTINUOUS
10
132.675
20
-59.1644
11
132.68
21
-59.1595
0
LINE
8
BLACK
6
CONTINUOUS
10
132.68
20
-59.1595
11
132.684
21
-59.1566
0
LINE
8
BLACK
6
CONTINUOUS
10
132.684
20
-59.1566
11
132.688
21
-59.1533
0
LINE
8
BLACK
6
CONTINUOUS
10
132.688
20
-59.1533
11
132.695
21
-59.1501
0
LINE
8
BLACK
6
CONTINUOUS
10
132.695
20
-59.1501
11
132.701
21
-59.1463
0
LINE
8
BLACK
6
CONTINUOUS
10
132.701
20
-59.1463
11
132.822
21
-59.0858
0
LINE
8
BLACK
6
CONTINUOUS
10
132.822
20
-59.0858
11
132.823
21
-59.085
0
LINE
8
BLACK
6
CONTINUOUS
10
132.823
20
-59.085
11
132.827
21
-59.0837
0
LINE
8
BLACK
6
CONTINUOUS
10
132.827
20
-59.0837
11
132.83
21
-59.082
0
LINE
8
BLACK
6
CONTINUOUS
10
132.83
20
-59.082
11
132.838
21
-59.0795
0
LINE
8
BLACK
6
CONTINUOUS
10
132.838
20
-59.0795
11
132.846
21
-59.0765
0
LINE
8
BLACK
6
CONTINUOUS
10
132.846
20
-59.0765
11
132.85
21
-59.0759
0
LINE
8
BLACK
6
CONTINUOUS
10
132.85
20
-59.0759
11
132.854
21
-59.0748
0
LINE
8
BLACK
6
CONTINUOUS
10
132.854
20
-59.0748
11
132.862
21
-59.074
0
LINE
8
BLACK
6
CONTINUOUS
10
132.862
20
-59.074
11
132.871
21
-59.0726
0
LINE
8
BLACK
6
CONTINUOUS
10
132.871
20
-59.0726
11
132.875
21
-59.0727
0
LINE
8
BLACK
6
CONTINUOUS
10
132.875
20
-59.0727
11
132.878
21
-59.0724
0
LINE
8
BLACK
6
CONTINUOUS
10
132.878
20
-59.0724
11
133.181
21
-59.0724
0
LINE
8
BLACK
6
CONTINUOUS
10
133.181
20
-59.0724
11
133.183
21
-59.0724
0
LINE
8
BLACK
6
CONTINUOUS
10
132.908
20
-59.3264
11
132.833
21
-59.3642
0
LINE
8
BLACK
6
CONTINUOUS
10
132.833
20
-59.3642
11
132.801
21
-59.3956
0
LINE
8
BLACK
6
CONTINUOUS
10
132.801
20
-59.3956
11
132.764
21
-59.4713
0
LINE
8
BLACK
6
CONTINUOUS
10
132.764
20
-59.4713
11
132.764
21
-59.6532
0
LINE
8
BLACK
6
CONTINUOUS
10
132.764
20
-59.6532
11
132.801
21
-59.7289
0
LINE
8
BLACK
6
CONTINUOUS
10
132.801
20
-59.7289
11
132.833
21
-59.7602
0
LINE
8
BLACK
6
CONTINUOUS
10
132.833
20
-59.7602
11
132.908
21
-59.7981
0
LINE
8
BLACK
6
CONTINUOUS
10
132.908
20
-59.7981
11
133.151
21
-59.7981
0
LINE
8
BLACK
6
CONTINUOUS
10
133.151
20
-59.7981
11
133.227
21
-59.7602
0
LINE
8
BLACK
6
CONTINUOUS
10
133.227
20
-59.7602
11
133.258
21
-59.7289
0
LINE
8
BLACK
6
CONTINUOUS
10
133.258
20
-59.7289
11
133.296
21
-59.6532
0
LINE
8
BLACK
6
CONTINUOUS
10
133.296
20
-59.6532
11
133.296
21
-59.4713
0
LINE
8
BLACK
6
CONTINUOUS
10
133.296
20
-59.4713
11
133.258
21
-59.3956
0
LINE
8
BLACK
6
CONTINUOUS
10
133.258
20
-59.3956
11
133.227
21
-59.3642
0
LINE
8
BLACK
6
CONTINUOUS
10
133.227
20
-59.3642
11
133.151
21
-59.3264
0
LINE
8
BLACK
6
CONTINUOUS
10
133.151
20
-59.3264
11
132.908
21
-59.3264
0
LINE
8
BLACK
6
CONTINUOUS
10
133.485
20
-57.7419
11
133.487
21
-57.7422
0
LINE
8
BLACK
6
CONTINUOUS
10
133.487
20
-57.7422
11
133.489
21
-57.7421
0
LINE
8
BLACK
6
CONTINUOUS
10
133.489
20
-57.7421
11
133.499
21
-57.7435
0
LINE
8
BLACK
6
CONTINUOUS
10
133.499
20
-57.7435
11
133.51
21
-57.7447
0
LINE
8
BLACK
6
CONTINUOUS
10
133.51
20
-57.7447
11
133.512
21
-57.7454
0
LINE
8
BLACK
6
CONTINUOUS
10
133.512
20
-57.7454
11
133.514
21
-57.7457
0
LINE
8
BLACK
6
CONTINUOUS
10
133.514
20
-57.7457
11
133.756
21
-57.8062
0
LINE
8
BLACK
6
CONTINUOUS
10
133.756
20
-57.8062
11
133.758
21
-57.8066
0
LINE
8
BLACK
6
CONTINUOUS
10
133.758
20
-57.8066
11
133.766
21
-57.8096
0
LINE
8
BLACK
6
CONTINUOUS
10
133.766
20
-57.8096
11
133.774
21
-57.8121
0
LINE
8
BLACK
6
CONTINUOUS
10
133.774
20
-57.8121
11
133.777
21
-57.8139
0
LINE
8
BLACK
6
CONTINUOUS
10
133.777
20
-57.8139
11
133.781
21
-57.8153
0
LINE
8
BLACK
6
CONTINUOUS
10
133.781
20
-57.8153
11
133.788
21
-57.8198
0
LINE
8
BLACK
6
CONTINUOUS
10
133.788
20
-57.8198
11
133.796
21
-57.8238
0
LINE
8
BLACK
6
CONTINUOUS
10
133.796
20
-57.8238
11
133.799
21
-57.8263
0
LINE
8
BLACK
6
CONTINUOUS
10
133.799
20
-57.8263
11
133.802
21
-57.8283
0
LINE
8
BLACK
6
CONTINUOUS
10
133.802
20
-57.8283
11
133.808
21
-57.8341
0
LINE
8
BLACK
6
CONTINUOUS
10
133.808
20
-57.8341
11
133.815
21
-57.8396
0
LINE
8
BLACK
6
CONTINUOUS
10
133.815
20
-57.8396
11
133.936
21
-57.9605
0
LINE
8
BLACK
6
CONTINUOUS
10
133.936
20
-57.9605
11
133.937
21
-57.9618
0
LINE
8
BLACK
6
CONTINUOUS
10
133.937
20
-57.9618
11
133.942
21
-57.9674
0
LINE
8
BLACK
6
CONTINUOUS
10
133.942
20
-57.9674
11
133.946
21
-57.9726
0
LINE
8
BLACK
6
CONTINUOUS
10
133.946
20
-57.9726
11
133.949
21
-57.977
0
LINE
8
BLACK
6
CONTINUOUS
10
133.949
20
-57.977
11
133.953
21
-57.9812
0
LINE
8
BLACK
6
CONTINUOUS
10
133.953
20
-57.9812
11
133.956
21
-57.9875
0
LINE
8
BLACK
6
CONTINUOUS
10
133.956
20
-57.9875
11
133.96
21
-57.9935
0
LINE
8
BLACK
6
CONTINUOUS
10
133.96
20
-57.9935
11
134.02
21
-58.1145
0
LINE
8
BLACK
6
CONTINUOUS
10
134.02
20
-58.1145
11
134.021
21
-58.1161
0
LINE
8
BLACK
6
CONTINUOUS
10
134.021
20
-58.1161
11
134.022
21
-58.1196
0
LINE
8
BLACK
6
CONTINUOUS
10
134.022
20
-58.1196
11
134.024
21
-58.1229
0
LINE
8
BLACK
6
CONTINUOUS
10
134.024
20
-58.1229
11
134.026
21
-58.1312
0
LINE
8
BLACK
6
CONTINUOUS
10
134.026
20
-58.1312
11
134.029
21
-58.1393
0
LINE
8
BLACK
6
CONTINUOUS
10
134.029
20
-58.1393
11
134.03
21
-58.143
0
LINE
8
BLACK
6
CONTINUOUS
10
134.03
20
-58.143
11
134.031
21
-58.1466
0
LINE
8
BLACK
6
CONTINUOUS
10
134.031
20
-58.1466
11
134.032
21
-58.1552
0
LINE
8
BLACK
6
CONTINUOUS
10
134.032
20
-58.1552
11
134.033
21
-58.1638
0
LINE
8
BLACK
6
CONTINUOUS
10
134.033
20
-58.1638
11
134.033
21
-58.1676
0
LINE
8
BLACK
6
CONTINUOUS
10
134.033
20
-58.1676
11
134.034
21
-58.1713
0
LINE
8
BLACK
6
CONTINUOUS
10
134.034
20
-58.1713
11
134.034
21
-58.4132
0
LINE
8
BLACK
6
CONTINUOUS
10
134.034
20
-58.4132
11
134.034
21
-58.415
0
LINE
8
BLACK
6
CONTINUOUS
10
134.034
20
-58.415
11
134.033
21
-58.4187
0
LINE
8
BLACK
6
CONTINUOUS
10
134.033
20
-58.4187
11
134.033
21
-58.4224
0
LINE
8
BLACK
6
CONTINUOUS
10
134.033
20
-58.4224
11
134.032
21
-58.431
0
LINE
8
BLACK
6
CONTINUOUS
10
134.032
20
-58.431
11
134.031
21
-58.4396
0
LINE
8
BLACK
6
CONTINUOUS
10
134.031
20
-58.4396
11
134.03
21
-58.4432
0
LINE
8
BLACK
6
CONTINUOUS
10
134.03
20
-58.4432
11
134.029
21
-58.4468
0
LINE
8
BLACK
6
CONTINUOUS
10
134.029
20
-58.4468
11
134.026
21
-58.4549
0
LINE
8
BLACK
6
CONTINUOUS
10
134.026
20
-58.4549
11
134.023
21
-58.4632
0
LINE
8
BLACK
6
CONTINUOUS
10
134.023
20
-58.4632
11
134.021
21
-58.4665
0
LINE
8
BLACK
6
CONTINUOUS
10
134.021
20
-58.4665
11
134.02
21
-58.47
0
LINE
8
BLACK
6
CONTINUOUS
10
134.02
20
-58.47
11
134.001
21
-58.5091
0
LINE
8
BLACK
6
CONTINUOUS
10
134.001
20
-58.5091
11
134.057
21
-58.5653
0
LINE
8
BLACK
6
CONTINUOUS
10
134.057
20
-58.5653
11
134.058
21
-58.5666
0
LINE
8
BLACK
6
CONTINUOUS
10
134.058
20
-58.5666
11
134.063
21
-58.5721
0
LINE
8
BLACK
6
CONTINUOUS
10
134.063
20
-58.5721
11
134.067
21
-58.5773
0
LINE
8
BLACK
6
CONTINUOUS
10
134.067
20
-58.5773
11
134.07
21
-58.5818
0
LINE
8
BLACK
6
CONTINUOUS
10
134.07
20
-58.5818
11
134.074
21
-58.5859
0
LINE
8
BLACK
6
CONTINUOUS
10
134.074
20
-58.5859
11
134.077
21
-58.5923
0
LINE
8
BLACK
6
CONTINUOUS
10
134.077
20
-58.5923
11
134.081
21
-58.5983
0
LINE
8
BLACK
6
CONTINUOUS
10
134.081
20
-58.5983
11
134.141
21
-58.7192
0
LINE
8
BLACK
6
CONTINUOUS
10
134.141
20
-58.7192
11
134.142
21
-58.7208
0
LINE
8
BLACK
6
CONTINUOUS
10
134.142
20
-58.7208
11
134.15
21
-58.7441
0
LINE
8
BLACK
6
CONTINUOUS
10
134.15
20
-58.7441
11
134.154
21
-58.7686
0
LINE
8
BLACK
6
CONTINUOUS
10
134.154
20
-58.7686
11
134.153
21
-58.7934
0
LINE
8
BLACK
6
CONTINUOUS
10
134.153
20
-58.7934
11
134.148
21
-58.8175
0
LINE
8
BLACK
6
CONTINUOUS
10
134.148
20
-58.8175
11
134.137
21
-58.84
0
LINE
8
BLACK
6
CONTINUOUS
10
134.137
20
-58.84
11
134.123
21
-58.8601
0
LINE
8
BLACK
6
CONTINUOUS
10
134.123
20
-58.8601
11
134.105
21
-58.877
0
LINE
8
BLACK
6
CONTINUOUS
10
134.105
20
-58.877
11
134.083
21
-58.89
0
LINE
8
BLACK
6
CONTINUOUS
10
134.083
20
-58.89
11
134.06
21
-58.8987
0
LINE
8
BLACK
6
CONTINUOUS
10
134.06
20
-58.8987
11
134.036
21
-58.9028
0
LINE
8
BLACK
6
CONTINUOUS
10
134.036
20
-58.9028
11
134.011
21
-58.902
0
LINE
8
BLACK
6
CONTINUOUS
10
134.011
20
-58.902
11
133.987
21
-58.8964
0
LINE
8
BLACK
6
CONTINUOUS
10
133.987
20
-58.8964
11
133.964
21
-58.8862
0
LINE
8
BLACK
6
CONTINUOUS
10
133.964
20
-58.8862
11
133.944
21
-58.8718
0
LINE
8
BLACK
6
CONTINUOUS
10
133.944
20
-58.8718
11
133.927
21
-58.8538
0
LINE
8
BLACK
6
CONTINUOUS
10
133.927
20
-58.8538
11
133.914
21
-58.8328
0
LINE
8
BLACK
6
CONTINUOUS
10
133.914
20
-58.8328
11
133.863
21
-58.7303
0
LINE
8
BLACK
6
CONTINUOUS
10
133.863
20
-58.7303
11
133.846
21
-58.7137
0
LINE
8
BLACK
6
CONTINUOUS
10
133.846
20
-58.7137
11
133.815
21
-58.7449
0
LINE
8
BLACK
6
CONTINUOUS
10
133.815
20
-58.7449
11
133.814
21
-58.7461
0
LINE
8
BLACK
6
CONTINUOUS
10
133.814
20
-58.7461
11
133.807
21
-58.7515
0
LINE
8
BLACK
6
CONTINUOUS
10
133.807
20
-58.7515
11
133.801
21
-58.7573
0
LINE
8
BLACK
6
CONTINUOUS
10
133.801
20
-58.7573
11
133.797
21
-58.7592
0
LINE
8
BLACK
6
CONTINUOUS
10
133.797
20
-58.7592
11
133.794
21
-58.7616
0
LINE
8
BLACK
6
CONTINUOUS
10
133.794
20
-58.7616
11
133.787
21
-58.7656
0
LINE
8
BLACK
6
CONTINUOUS
10
133.787
20
-58.7656
11
133.779
21
-58.77
0
LINE
8
BLACK
6
CONTINUOUS
10
133.779
20
-58.77
11
133.776
21
-58.7713
0
LINE
8
BLACK
6
CONTINUOUS
10
133.776
20
-58.7713
11
133.772
21
-58.773
0
LINE
8
BLACK
6
CONTINUOUS
10
133.772
20
-58.773
11
133.764
21
-58.7754
0
LINE
8
BLACK
6
CONTINUOUS
10
133.764
20
-58.7754
11
133.756
21
-58.7783
0
LINE
8
BLACK
6
CONTINUOUS
10
133.756
20
-58.7783
11
133.514
21
-58.8388
0
LINE
8
BLACK
6
CONTINUOUS
10
133.514
20
-58.8388
11
133.512
21
-58.8392
0
LINE
8
BLACK
6
CONTINUOUS
10
133.512
20
-58.8392
11
133.51
21
-58.8395
0
LINE
8
BLACK
6
CONTINUOUS
10
133.51
20
-58.8395
11
133.508
21
-58.8402
0
LINE
8
BLACK
6
CONTINUOUS
10
133.508
20
-58.8402
11
133.498
21
-58.8411
0
LINE
8
BLACK
6
CONTINUOUS
10
133.498
20
-58.8411
11
133.488
21
-58.8425
0
LINE
8
BLACK
6
CONTINUOUS
10
133.488
20
-58.8425
11
133.485
21
-58.8423
0
LINE
8
BLACK
6
CONTINUOUS
10
133.485
20
-58.8423
11
133.483
21
-58.8426
0
LINE
8
BLACK
6
CONTINUOUS
10
133.483
20
-58.8426
11
133.06
21
-58.8426
0
LINE
8
BLACK
6
CONTINUOUS
10
133.06
20
-58.8426
11
133.058
21
-58.8426
0
LINE
8
BLACK
6
CONTINUOUS
10
133.058
20
-58.8426
11
133.056
21
-58.8423
0
LINE
8
BLACK
6
CONTINUOUS
10
133.056
20
-58.8423
11
133.054
21
-58.8424
0
LINE
8
BLACK
6
CONTINUOUS
10
133.054
20
-58.8424
11
133.044
21
-58.8409
0
LINE
8
BLACK
6
CONTINUOUS
10
133.044
20
-58.8409
11
133.033
21
-58.8398
0
LINE
8
BLACK
6
CONTINUOUS
10
133.033
20
-58.8398
11
133.031
21
-58.8391
0
LINE
8
BLACK
6
CONTINUOUS
10
133.031
20
-58.8391
11
133.029
21
-58.8388
0
LINE
8
BLACK
6
CONTINUOUS
10
133.029
20
-58.8388
11
132.787
21
-58.7783
0
LINE
8
BLACK
6
CONTINUOUS
10
132.787
20
-58.7783
11
132.785
21
-58.7779
0
LINE
8
BLACK
6
CONTINUOUS
10
132.785
20
-58.7779
11
132.777
21
-58.7749
0
LINE
8
BLACK
6
CONTINUOUS
10
132.777
20
-58.7749
11
132.769
21
-58.7723
0
LINE
8
BLACK
6
CONTINUOUS
10
132.769
20
-58.7723
11
132.766
21
-58.7705
0
LINE
8
BLACK
6
CONTINUOUS
10
132.766
20
-58.7705
11
132.762
21
-58.7692
0
LINE
8
BLACK
6
CONTINUOUS
10
132.762
20
-58.7692
11
132.755
21
-58.7647
0
LINE
8
BLACK
6
CONTINUOUS
10
132.755
20
-58.7647
11
132.747
21
-58.7606
0
LINE
8
BLACK
6
CONTINUOUS
10
132.747
20
-58.7606
11
132.744
21
-58.7582
0
LINE
8
BLACK
6
CONTINUOUS
10
132.744
20
-58.7582
11
132.741
21
-58.7562
0
LINE
8
BLACK
6
CONTINUOUS
10
132.741
20
-58.7562
11
132.735
21
-58.7504
0
LINE
8
BLACK
6
CONTINUOUS
10
132.735
20
-58.7504
11
132.728
21
-58.7449
0
LINE
8
BLACK
6
CONTINUOUS
10
132.728
20
-58.7449
11
132.607
21
-58.6239
0
LINE
8
BLACK
6
CONTINUOUS
10
132.607
20
-58.6239
11
132.606
21
-58.6227
0
LINE
8
BLACK
6
CONTINUOUS
10
132.606
20
-58.6227
11
132.601
21
-58.6171
0
LINE
8
BLACK
6
CONTINUOUS
10
132.601
20
-58.6171
11
132.597
21
-58.6119
0
LINE
8
BLACK
6
CONTINUOUS
10
132.597
20
-58.6119
11
132.594
21
-58.6074
0
LINE
8
BLACK
6
CONTINUOUS
10
132.594
20
-58.6074
11
132.59
21
-58.6033
0
LINE
8
BLACK
6
CONTINUOUS
10
132.59
20
-58.6033
11
132.587
21
-58.597
0
LINE
8
BLACK
6
CONTINUOUS
10
132.587
20
-58.597
11
132.583
21
-58.5909
0
LINE
8
BLACK
6
CONTINUOUS
10
132.583
20
-58.5909
11
132.523
21
-58.47
0
LINE
8
BLACK
6
CONTINUOUS
10
132.523
20
-58.47
11
132.522
21
-58.4684
0
LINE
8
BLACK
6
CONTINUOUS
10
132.522
20
-58.4684
11
132.521
21
-58.4649
0
LINE
8
BLACK
6
CONTINUOUS
10
132.521
20
-58.4649
11
132.519
21
-58.4616
0
LINE
8
BLACK
6
CONTINUOUS
10
132.519
20
-58.4616
11
132.517
21
-58.4533
0
LINE
8
BLACK
6
CONTINUOUS
10
132.517
20
-58.4533
11
132.514
21
-58.4451
0
LINE
8
BLACK
6
CONTINUOUS
10
132.514
20
-58.4451
11
132.513
21
-58.4414
0
LINE
8
BLACK
6
CONTINUOUS
10
132.513
20
-58.4414
11
132.512
21
-58.4379
0
LINE
8
BLACK
6
CONTINUOUS
10
132.512
20
-58.4379
11
132.511
21
-58.4292
0
LINE
8
BLACK
6
CONTINUOUS
10
132.511
20
-58.4292
11
132.51
21
-58.4206
0
LINE
8
BLACK
6
CONTINUOUS
10
132.51
20
-58.4206
11
132.51
21
-58.4169
0
LINE
8
BLACK
6
CONTINUOUS
10
132.51
20
-58.4169
11
132.51
21
-58.4132
0
LINE
8
BLACK
6
CONTINUOUS
10
132.51
20
-58.4132
11
132.51
21
-58.1713
0
LINE
8
BLACK
6
CONTINUOUS
10
132.51
20
-58.1713
11
132.51
21
-58.1695
0
LINE
8
BLACK
6
CONTINUOUS
10
132.51
20
-58.1695
11
132.51
21
-58.1658
0
LINE
8
BLACK
6
CONTINUOUS
10
132.51
20
-58.1658
11
132.51
21
-58.1621
0
LINE
8
BLACK
6
CONTINUOUS
10
132.51
20
-58.1621
11
132.511
21
-58.1535
0
LINE
8
BLACK
6
CONTINUOUS
10
132.511
20
-58.1535
11
132.512
21
-58.1449
0
LINE
8
BLACK
6
CONTINUOUS
10
132.512
20
-58.1449
11
132.513
21
-58.1413
0
LINE
8
BLACK
6
CONTINUOUS
10
132.513
20
-58.1413
11
132.514
21
-58.1376
0
LINE
8
BLACK
6
CONTINUOUS
10
132.514
20
-58.1376
11
132.517
21
-58.1295
0
LINE
8
BLACK
6
CONTINUOUS
10
132.517
20
-58.1295
11
132.52
21
-58.1213
0
LINE
8
BLACK
6
CONTINUOUS
10
132.52
20
-58.1213
11
132.522
21
-58.118
0
LINE
8
BLACK
6
CONTINUOUS
10
132.522
20
-58.118
11
132.523
21
-58.1145
0
LINE
8
BLACK
6
CONTINUOUS
10
132.523
20
-58.1145
11
132.583
21
-57.9935
0
LINE
8
BLACK
6
CONTINUOUS
10
132.583
20
-57.9935
11
132.584
21
-57.992
0
LINE
8
BLACK
6
CONTINUOUS
10
132.584
20
-57.992
11
132.588
21
-57.986
0
LINE
8
BLACK
6
CONTINUOUS
10
132.588
20
-57.986
11
132.591
21
-57.9797
0
LINE
8
BLACK
6
CONTINUOUS
10
132.591
20
-57.9797
11
132.595
21
-57.9756
0
LINE
8
BLACK
6
CONTINUOUS
10
132.595
20
-57.9756
11
132.598
21
-57.9712
0
LINE
8
BLACK
6
CONTINUOUS
10
132.598
20
-57.9712
11
132.603
21
-57.966
0
LINE
8
BLACK
6
CONTINUOUS
10
132.603
20
-57.966
11
132.607
21
-57.9605
0
LINE
8
BLACK
6
CONTINUOUS
10
132.607
20
-57.9605
11
132.728
21
-57.8396
0
LINE
8
BLACK
6
CONTINUOUS
10
132.728
20
-57.8396
11
132.729
21
-57.8383
0
LINE
8
BLACK
6
CONTINUOUS
10
132.729
20
-57.8383
11
132.736
21
-57.833
0
LINE
8
BLACK
6
CONTINUOUS
10
132.736
20
-57.833
11
132.743
21
-57.8272
0
LINE
8
BLACK
6
CONTINUOUS
10
132.743
20
-57.8272
11
132.746
21
-57.8252
0
LINE
8
BLACK
6
CONTINUOUS
10
132.746
20
-57.8252
11
132.749
21
-57.8229
0
LINE
8
BLACK
6
CONTINUOUS
10
132.749
20
-57.8229
11
132.756
21
-57.8189
0
LINE
8
BLACK
6
CONTINUOUS
10
132.756
20
-57.8189
11
132.764
21
-57.8145
0
LINE
8
BLACK
6
CONTINUOUS
10
132.764
20
-57.8145
11
132.767
21
-57.8132
0
LINE
8
BLACK
6
CONTINUOUS
10
132.767
20
-57.8132
11
132.771
21
-57.8115
0
LINE
8
BLACK
6
CONTINUOUS
10
132.771
20
-57.8115
11
132.779
21
-57.8091
0
LINE
8
BLACK
6
CONTINUOUS
10
132.779
20
-57.8091
11
132.787
21
-57.8062
0
LINE
8
BLACK
6
CONTINUOUS
10
132.787
20
-57.8062
11
133.029
21
-57.7457
0
LINE
8
BLACK
6
CONTINUOUS
10
133.029
20
-57.7457
11
133.031
21
-57.7453
0
LINE
8
BLACK
6
CONTINUOUS
10
133.031
20
-57.7453
11
133.033
21
-57.745
0
LINE
8
BLACK
6
CONTINUOUS
10
133.033
20
-57.745
11
133.035
21
-57.7443
0
LINE
8
BLACK
6
CONTINUOUS
10
133.035
20
-57.7443
11
133.045
21
-57.7433
0
LINE
8
BLACK
6
CONTINUOUS
10
133.045
20
-57.7433
11
133.055
21
-57.742
0
LINE
8
BLACK
6
CONTINUOUS
10
133.055
20
-57.742
11
133.058
21
-57.7421
0
LINE
8
BLACK
6
CONTINUOUS
10
133.058
20
-57.7421
11
133.06
21
-57.7419
0
LINE
8
BLACK
6
CONTINUOUS
10
133.06
20
-57.7419
11
133.483
21
-57.7419
0
LINE
8
BLACK
6
CONTINUOUS
10
133.483
20
-57.7419
11
133.485
21
-57.7419
0
LINE
8
BLACK
6
CONTINUOUS
10
133.075
20
-57.9959
11
132.883
21
-58.0441
0
LINE
8
BLACK
6
CONTINUOUS
10
132.883
20
-58.0441
11
132.801
21
-58.1256
0
LINE
8
BLACK
6
CONTINUOUS
10
132.801
20
-58.1256
11
132.764
21
-58.2013
0
LINE
8
BLACK
6
CONTINUOUS
10
132.764
20
-58.2013
11
132.764
21
-58.3832
0
LINE
8
BLACK
6
CONTINUOUS
10
132.764
20
-58.3832
11
132.801
21
-58.4589
0
LINE
8
BLACK
6
CONTINUOUS
10
132.801
20
-58.4589
11
132.883
21
-58.5404
0
LINE
8
BLACK
6
CONTINUOUS
10
132.883
20
-58.5404
11
133.075
21
-58.5886
0
LINE
8
BLACK
6
CONTINUOUS
10
133.075
20
-58.5886
11
133.468
21
-58.5886
0
LINE
8
BLACK
6
CONTINUOUS
10
133.468
20
-58.5886
11
133.66
21
-58.5404
0
LINE
8
BLACK
6
CONTINUOUS
10
133.66
20
-58.5404
11
133.666
21
-58.5341
0
LINE
8
BLACK
6
CONTINUOUS
10
133.666
20
-58.5341
11
133.575
21
-58.4425
0
LINE
8
BLACK
6
CONTINUOUS
10
133.575
20
-58.4425
11
133.574
21
-58.4413
0
LINE
8
BLACK
6
CONTINUOUS
10
133.574
20
-58.4413
11
133.569
21
-58.4357
0
LINE
8
BLACK
6
CONTINUOUS
10
133.569
20
-58.4357
11
133.564
21
-58.4305
0
LINE
8
BLACK
6
CONTINUOUS
10
133.564
20
-58.4305
11
133.561
21
-58.426
0
LINE
8
BLACK
6
CONTINUOUS
10
133.561
20
-58.426
11
133.558
21
-58.4219
0
LINE
8
BLACK
6
CONTINUOUS
10
133.558
20
-58.4219
11
133.555
21
-58.4156
0
LINE
8
BLACK
6
CONTINUOUS
10
133.555
20
-58.4156
11
133.551
21
-58.4095
0
LINE
8
BLACK
6
CONTINUOUS
10
133.551
20
-58.4095
11
133.491
21
-58.2886
0
LINE
8
BLACK
6
CONTINUOUS
10
133.491
20
-58.2886
11
133.49
21
-58.287
0
LINE
8
BLACK
6
CONTINUOUS
10
133.49
20
-58.287
11
133.488
21
-58.2835
0
LINE
8
BLACK
6
CONTINUOUS
10
133.488
20
-58.2835
11
133.487
21
-58.2802
0
LINE
8
BLACK
6
CONTINUOUS
10
133.487
20
-58.2802
11
133.484
21
-58.2719
0
LINE
8
BLACK
6
CONTINUOUS
10
133.484
20
-58.2719
11
133.481
21
-58.2637
0
LINE
8
BLACK
6
CONTINUOUS
10
133.481
20
-58.2637
11
133.481
21
-58.26
0
LINE
8
BLACK
6
CONTINUOUS
10
133.481
20
-58.26
11
133.48
21
-58.2564
0
LINE
8
BLACK
6
CONTINUOUS
10
133.48
20
-58.2564
11
133.479
21
-58.2478
0
LINE
8
BLACK
6
CONTINUOUS
10
133.479
20
-58.2478
11
133.477
21
-58.2392
0
LINE
8
BLACK
6
CONTINUOUS
10
133.477
20
-58.2392
11
133.478
21
-58.2355
0
LINE
8
BLACK
6
CONTINUOUS
10
133.478
20
-58.2355
11
133.477
21
-58.2318
0
LINE
8
BLACK
6
CONTINUOUS
10
133.477
20
-58.2318
11
133.477
21
-58.1108
0
LINE
8
BLACK
6
CONTINUOUS
10
133.477
20
-58.1108
11
133.477
21
-58.109
0
LINE
8
BLACK
6
CONTINUOUS
10
133.477
20
-58.109
11
133.48
21
-58.0844
0
LINE
8
BLACK
6
CONTINUOUS
10
133.48
20
-58.0844
11
133.487
21
-58.0608
0
LINE
8
BLACK
6
CONTINUOUS
10
133.487
20
-58.0608
11
133.499
21
-58.0391
0
LINE
8
BLACK
6
CONTINUOUS
10
133.499
20
-58.0391
11
133.515
21
-58.0201
0
LINE
8
BLACK
6
CONTINUOUS
10
133.515
20
-58.0201
11
133.527
21
-58.0107
0
LINE
8
BLACK
6
CONTINUOUS
10
133.527
20
-58.0107
11
133.468
21
-57.9959
0
LINE
8
BLACK
6
CONTINUOUS
10
133.468
20
-57.9959
11
133.075
21
-57.9959
0
LINE
8
BLACK
6
CONTINUOUS
10
133.731
20
-58.2018
11
133.769
21
-58.2775
0
LINE
8
BLACK
6
CONTINUOUS
10
133.769
20
-58.2775
11
133.78
21
-58.288
0
LINE
8
BLACK
6
CONTINUOUS
10
133.78
20
-58.288
11
133.78
21
-58.2013
0
LINE
8
BLACK
6
CONTINUOUS
10
133.78
20
-58.2013
11
133.742
21
-58.1256
0
LINE
8
BLACK
6
CONTINUOUS
10
133.742
20
-58.1256
11
133.731
21
-58.115
0
LINE
8
BLACK
6
CONTINUOUS
10
133.731
20
-58.115
11
133.731
21
-58.2018
0
LINE
8
BLACK
6
CONTINUOUS
10
135.631
20
-57.1918
11
135.66
21
-57.204
0
LINE
8
BLACK
6
CONTINUOUS
10
135.66
20
-57.204
11
135.687
21
-57.2216
0
LINE
8
BLACK
6
CONTINUOUS
10
135.687
20
-57.2216
11
135.709
21
-57.2441
0
LINE
8
BLACK
6
CONTINUOUS
10
135.709
20
-57.2441
11
135.727
21
-57.2705
0
LINE
8
BLACK
6
CONTINUOUS
10
135.727
20
-57.2705
11
135.739
21
-57.2999
0
LINE
8
BLACK
6
CONTINUOUS
10
135.739
20
-57.2999
11
135.745
21
-57.3311
0
LINE
8
BLACK
6
CONTINUOUS
10
135.745
20
-57.3311
11
135.745
21
-57.3629
0
LINE
8
BLACK
6
CONTINUOUS
10
135.745
20
-57.3629
11
135.739
21
-57.3941
0
LINE
8
BLACK
6
CONTINUOUS
10
135.739
20
-57.3941
11
135.727
21
-57.4235
0
LINE
8
BLACK
6
CONTINUOUS
10
135.727
20
-57.4235
11
135.709
21
-57.4499
0
LINE
8
BLACK
6
CONTINUOUS
10
135.709
20
-57.4499
11
135.687
21
-57.4724
0
LINE
8
BLACK
6
CONTINUOUS
10
135.687
20
-57.4724
11
135.66
21
-57.49
0
LINE
8
BLACK
6
CONTINUOUS
10
135.66
20
-57.49
11
135.631
21
-57.5022
0
LINE
8
BLACK
6
CONTINUOUS
10
135.631
20
-57.5022
11
135.6
21
-57.5084
0
LINE
8
BLACK
6
CONTINUOUS
10
135.6
20
-57.5084
11
135.568
21
-57.5084
0
LINE
8
BLACK
6
CONTINUOUS
10
135.568
20
-57.5084
11
135.537
21
-57.5022
0
LINE
8
BLACK
6
CONTINUOUS
10
135.537
20
-57.5022
11
135.508
21
-57.49
0
LINE
8
BLACK
6
CONTINUOUS
10
135.508
20
-57.49
11
135.481
21
-57.4724
0
LINE
8
BLACK
6
CONTINUOUS
10
135.481
20
-57.4724
11
135.459
21
-57.4499
0
LINE
8
BLACK
6
CONTINUOUS
10
135.459
20
-57.4499
11
135.441
21
-57.4235
0
LINE
8
BLACK
6
CONTINUOUS
10
135.441
20
-57.4235
11
135.429
21
-57.3941
0
LINE
8
BLACK
6
CONTINUOUS
10
135.429
20
-57.3941
11
135.423
21
-57.3629
0
LINE
8
BLACK
6
CONTINUOUS
10
135.423
20
-57.3629
11
135.423
21
-57.3311
0
LINE
8
BLACK
6
CONTINUOUS
10
135.423
20
-57.3311
11
135.429
21
-57.2999
0
LINE
8
BLACK
6
CONTINUOUS
10
135.429
20
-57.2999
11
135.441
21
-57.2705
0
LINE
8
BLACK
6
CONTINUOUS
10
135.441
20
-57.2705
11
135.459
21
-57.2441
0
LINE
8
BLACK
6
CONTINUOUS
10
135.459
20
-57.2441
11
135.481
21
-57.2216
0
LINE
8
BLACK
6
CONTINUOUS
10
135.481
20
-57.2216
11
135.508
21
-57.204
0
LINE
8
BLACK
6
CONTINUOUS
10
135.508
20
-57.204
11
135.537
21
-57.1918
0
LINE
8
BLACK
6
CONTINUOUS
10
135.537
20
-57.1918
11
135.568
21
-57.1856
0
LINE
8
BLACK
6
CONTINUOUS
10
135.568
20
-57.1856
11
135.6
21
-57.1856
0
LINE
8
BLACK
6
CONTINUOUS
10
135.6
20
-57.1856
11
135.631
21
-57.1918
0
LINE
8
BLACK
6
CONTINUOUS
10
134.22
20
-56.6014
11
134.238
21
-56.6072
0
LINE
8
BLACK
6
CONTINUOUS
10
134.238
20
-56.6072
11
134.256
21
-56.6165
0
LINE
8
BLACK
6
CONTINUOUS
10
134.256
20
-56.6165
11
134.271
21
-56.6289
0
LINE
8
BLACK
6
CONTINUOUS
10
134.271
20
-56.6289
11
134.284
21
-56.6442
0
LINE
8
BLACK
6
CONTINUOUS
10
134.284
20
-56.6442
11
134.293
21
-56.6615
0
LINE
8
BLACK
6
CONTINUOUS
10
134.293
20
-56.6615
11
134.299
21
-56.6804
0
LINE
8
BLACK
6
CONTINUOUS
10
134.299
20
-56.6804
11
134.3
21
-56.7
0
LINE
8
BLACK
6
CONTINUOUS
10
134.3
20
-56.7
11
134.299
21
-56.7196
0
LINE
8
BLACK
6
CONTINUOUS
10
134.299
20
-56.7196
11
134.293
21
-56.7385
0
LINE
8
BLACK
6
CONTINUOUS
10
134.293
20
-56.7385
11
134.287
21
-56.75
0
LINE
8
BLACK
6
CONTINUOUS
10
134.287
20
-56.75
11
134.293
21
-56.7615
0
LINE
8
BLACK
6
CONTINUOUS
10
134.293
20
-56.7615
11
134.299
21
-56.7804
0
LINE
8
BLACK
6
CONTINUOUS
10
134.299
20
-56.7804
11
134.3
21
-56.8
0
LINE
8
BLACK
6
CONTINUOUS
10
134.3
20
-56.8
11
134.299
21
-56.8196
0
LINE
8
BLACK
6
CONTINUOUS
10
134.299
20
-56.8196
11
134.293
21
-56.8385
0
LINE
8
BLACK
6
CONTINUOUS
10
134.293
20
-56.8385
11
134.284
21
-56.8558
0
LINE
8
BLACK
6
CONTINUOUS
10
134.284
20
-56.8558
11
134.271
21
-56.8711
0
LINE
8
BLACK
6
CONTINUOUS
10
134.271
20
-56.8711
11
134.256
21
-56.8835
0
LINE
8
BLACK
6
CONTINUOUS
10
134.256
20
-56.8835
11
134.238
21
-56.8928
0
LINE
8
BLACK
6
CONTINUOUS
10
134.238
20
-56.8928
11
134.22
21
-56.8986
0
LINE
8
BLACK
6
CONTINUOUS
10
134.22
20
-56.8986
11
134.205
21
-56.9
0
LINE
8
BLACK
6
CONTINUOUS
10
134.205
20
-56.9
11
129.195
21
-56.9
0
LINE
8
BLACK
6
CONTINUOUS
10
129.195
20
-56.9
11
129.18
21
-56.8986
0
LINE
8
BLACK
6
CONTINUOUS
10
129.18
20
-56.8986
11
129.162
21
-56.8928
0
LINE
8
BLACK
6
CONTINUOUS
10
129.162
20
-56.8928
11
129.144
21
-56.8835
0
LINE
8
BLACK
6
CONTINUOUS
10
129.144
20
-56.8835
11
129.129
21
-56.8711
0
LINE
8
BLACK
6
CONTINUOUS
10
129.129
20
-56.8711
11
129.116
21
-56.8558
0
LINE
8
BLACK
6
CONTINUOUS
10
129.116
20
-56.8558
11
129.107
21
-56.8385
0
LINE
8
BLACK
6
CONTINUOUS
10
129.107
20
-56.8385
11
129.101
21
-56.8196
0
LINE
8
BLACK
6
CONTINUOUS
10
129.101
20
-56.8196
11
129.1
21
-56.8
0
LINE
8
BLACK
6
CONTINUOUS
10
129.1
20
-56.8
11
129.101
21
-56.7804
0
LINE
8
BLACK
6
CONTINUOUS
10
129.101
20
-56.7804
11
129.107
21
-56.7615
0
LINE
8
BLACK
6
CONTINUOUS
10
129.107
20
-56.7615
11
129.113
21
-56.75
0
LINE
8
BLACK
6
CONTINUOUS
10
129.113
20
-56.75
11
129.107
21
-56.7385
0
LINE
8
BLACK
6
CONTINUOUS
10
129.107
20
-56.7385
11
129.101
21
-56.7196
0
LINE
8
BLACK
6
CONTINUOUS
10
129.101
20
-56.7196
11
129.1
21
-56.7
0
LINE
8
BLACK
6
CONTINUOUS
10
129.1
20
-56.7
11
129.101
21
-56.6804
0
LINE
8
BLACK
6
CONTINUOUS
10
129.101
20
-56.6804
11
129.107
21
-56.6615
0
LINE
8
BLACK
6
CONTINUOUS
10
129.107
20
-56.6615
11
129.116
21
-56.6442
0
LINE
8
BLACK
6
CONTINUOUS
10
129.116
20
-56.6442
11
129.129
21
-56.6289
0
LINE
8
BLACK
6
CONTINUOUS
10
129.129
20
-56.6289
11
129.144
21
-56.6165
0
LINE
8
BLACK
6
CONTINUOUS
10
129.144
20
-56.6165
11
129.162
21
-56.6072
0
LINE
8
BLACK
6
CONTINUOUS
10
129.162
20
-56.6072
11
129.18
21
-56.6014
0
LINE
8
BLACK
6
CONTINUOUS
10
129.18
20
-56.6014
11
129.195
21
-56.6
0
LINE
8
BLACK
6
CONTINUOUS
10
129.195
20
-56.6
11
134.205
21
-56.6
0
LINE
8
BLACK
6
CONTINUOUS
10
134.205
20
-56.6
11
134.22
21
-56.6014
0
LINE
8
BLACK
6
CONTINUOUS
10
133.424
20
-54.5772
11
133.427
21
-54.5774
0
LINE
8
BLACK
6
CONTINUOUS
10
133.427
20
-54.5774
11
133.429
21
-54.5773
0
LINE
8
BLACK
6
CONTINUOUS
10
133.429
20
-54.5773
11
133.439
21
-54.5788
0
LINE
8
BLACK
6
CONTINUOUS
10
133.439
20
-54.5788
11
133.449
21
-54.5799
0
LINE
8
BLACK
6
CONTINUOUS
10
133.449
20
-54.5799
11
133.451
21
-54.5806
0
LINE
8
BLACK
6
CONTINUOUS
10
133.451
20
-54.5806
11
133.454
21
-54.5809
0
LINE
8
BLACK
6
CONTINUOUS
10
133.454
20
-54.5809
11
133.695
21
-54.6414
0
LINE
8
BLACK
6
CONTINUOUS
10
133.695
20
-54.6414
11
133.697
21
-54.6419
0
LINE
8
BLACK
6
CONTINUOUS
10
133.697
20
-54.6419
11
133.698
21
-54.6421
0
LINE
8
BLACK
6
CONTINUOUS
10
133.698
20
-54.6421
11
133.698
21
-54.6422
0
LINE
8
BLACK
6
CONTINUOUS
10
133.698
20
-54.6422
11
133.709
21
-54.6464
0
LINE
8
BLACK
6
CONTINUOUS
10
133.709
20
-54.6464
11
133.72
21
-54.6505
0
LINE
8
BLACK
6
CONTINUOUS
10
133.72
20
-54.6505
11
133.721
21
-54.6508
0
LINE
8
BLACK
6
CONTINUOUS
10
133.721
20
-54.6508
11
133.721
21
-54.651
0
LINE
8
BLACK
6
CONTINUOUS
10
133.721
20
-54.651
11
133.842
21
-54.7115
0
LINE
8
BLACK
6
CONTINUOUS
10
133.842
20
-54.7115
11
133.844
21
-54.7123
0
LINE
8
BLACK
6
CONTINUOUS
10
133.844
20
-54.7123
11
133.85
21
-54.7162
0
LINE
8
BLACK
6
CONTINUOUS
10
133.85
20
-54.7162
11
133.856
21
-54.7196
0
LINE
8
BLACK
6
CONTINUOUS
10
133.856
20
-54.7196
11
133.86
21
-54.7229
0
LINE
8
BLACK
6
CONTINUOUS
10
133.86
20
-54.7229
11
133.865
21
-54.7258
0
LINE
8
BLACK
6
CONTINUOUS
10
133.865
20
-54.7258
11
133.87
21
-54.7308
0
LINE
8
BLACK
6
CONTINUOUS
10
133.87
20
-54.7308
11
133.875
21
-54.7353
0
LINE
8
BLACK
6
CONTINUOUS
10
133.875
20
-54.7353
11
133.936
21
-54.7958
0
LINE
8
BLACK
6
CONTINUOUS
10
133.936
20
-54.7958
11
133.937
21
-54.797
0
LINE
8
BLACK
6
CONTINUOUS
10
133.937
20
-54.797
11
133.942
21
-54.8026
0
LINE
8
BLACK
6
CONTINUOUS
10
133.942
20
-54.8026
11
133.946
21
-54.8078
0
LINE
8
BLACK
6
CONTINUOUS
10
133.946
20
-54.8078
11
133.949
21
-54.8123
0
LINE
8
BLACK
6
CONTINUOUS
10
133.949
20
-54.8123
11
133.953
21
-54.8164
0
LINE
8
BLACK
6
CONTINUOUS
10
133.953
20
-54.8164
11
133.956
21
-54.8227
0
LINE
8
BLACK
6
CONTINUOUS
10
133.956
20
-54.8227
11
133.96
21
-54.8288
0
LINE
8
BLACK
6
CONTINUOUS
10
133.96
20
-54.8288
11
134.02
21
-54.9497
0
LINE
8
BLACK
6
CONTINUOUS
10
134.02
20
-54.9497
11
134.021
21
-54.9513
0
LINE
8
BLACK
6
CONTINUOUS
10
134.021
20
-54.9513
11
134.022
21
-54.9548
0
LINE
8
BLACK
6
CONTINUOUS
10
134.022
20
-54.9548
11
134.024
21
-54.9581
0
LINE
8
BLACK
6
CONTINUOUS
10
134.024
20
-54.9581
11
134.026
21
-54.9664
0
LINE
8
BLACK
6
CONTINUOUS
10
134.026
20
-54.9664
11
134.029
21
-54.9746
0
LINE
8
BLACK
6
CONTINUOUS
10
134.029
20
-54.9746
11
134.03
21
-54.9783
0
LINE
8
BLACK
6
CONTINUOUS
10
134.03
20
-54.9783
11
134.031
21
-54.9819
0
LINE
8
BLACK
6
CONTINUOUS
10
134.031
20
-54.9819
11
134.032
21
-54.9905
0
LINE
8
BLACK
6
CONTINUOUS
10
134.032
20
-54.9905
11
134.033
21
-54.9991
0
LINE
8
BLACK
6
CONTINUOUS
10
134.033
20
-54.9991
11
134.033
21
-55.0028
0
LINE
8
BLACK
6
CONTINUOUS
10
134.033
20
-55.0028
11
134.034
21
-55.0065
0
LINE
8
BLACK
6
CONTINUOUS
10
134.034
20
-55.0065
11
134.034
21
-55.1275
0
LINE
8
BLACK
6
CONTINUOUS
10
134.034
20
-55.1275
11
134.034
21
-55.1292
0
LINE
8
BLACK
6
CONTINUOUS
10
134.034
20
-55.1292
11
134.033
21
-55.133
0
LINE
8
BLACK
6
CONTINUOUS
10
134.033
20
-55.133
11
134.033
21
-55.1367
0
LINE
8
BLACK
6
CONTINUOUS
10
134.033
20
-55.1367
11
134.032
21
-55.1452
0
LINE
8
BLACK
6
CONTINUOUS
10
134.032
20
-55.1452
11
134.031
21
-55.1539
0
LINE
8
BLACK
6
CONTINUOUS
10
134.031
20
-55.1539
11
134.03
21
-55.1574
0
LINE
8
BLACK
6
CONTINUOUS
10
134.03
20
-55.1574
11
134.029
21
-55.1611
0
LINE
8
BLACK
6
CONTINUOUS
10
134.029
20
-55.1611
11
134.026
21
-55.1692
0
LINE
8
BLACK
6
CONTINUOUS
10
134.026
20
-55.1692
11
134.023
21
-55.1775
0
LINE
8
BLACK
6
CONTINUOUS
10
134.023
20
-55.1775
11
134.021
21
-55.1808
0
LINE
8
BLACK
6
CONTINUOUS
10
134.021
20
-55.1808
11
134.02
21
-55.1843
0
LINE
8
BLACK
6
CONTINUOUS
10
134.02
20
-55.1843
11
133.96
21
-55.3052
0
LINE
8
BLACK
6
CONTINUOUS
10
133.96
20
-55.3052
11
133.959
21
-55.3068
0
LINE
8
BLACK
6
CONTINUOUS
10
133.959
20
-55.3068
11
133.955
21
-55.3128
0
LINE
8
BLACK
6
CONTINUOUS
10
133.955
20
-55.3128
11
133.952
21
-55.3191
0
LINE
8
BLACK
6
CONTINUOUS
10
133.952
20
-55.3191
11
133.948
21
-55.3232
0
LINE
8
BLACK
6
CONTINUOUS
10
133.948
20
-55.3232
11
133.945
21
-55.3276
0
LINE
8
BLACK
6
CONTINUOUS
10
133.945
20
-55.3276
11
133.94
21
-55.3327
0
LINE
8
BLACK
6
CONTINUOUS
10
133.94
20
-55.3327
11
133.936
21
-55.3382
0
LINE
8
BLACK
6
CONTINUOUS
10
133.936
20
-55.3382
11
133.875
21
-55.3987
0
LINE
8
BLACK
6
CONTINUOUS
10
133.875
20
-55.3987
11
133.874
21
-55.4
0
LINE
8
BLACK
6
CONTINUOUS
10
133.874
20
-55.4
11
133.869
21
-55.4044
0
LINE
8
BLACK
6
CONTINUOUS
10
133.869
20
-55.4044
11
133.863
21
-55.4093
0
LINE
8
BLACK
6
CONTINUOUS
10
133.863
20
-55.4093
11
133.859
21
-55.4121
0
LINE
8
BLACK
6
CONTINUOUS
10
133.859
20
-55.4121
11
133.855
21
-55.4154
0
LINE
8
BLACK
6
CONTINUOUS
10
133.855
20
-55.4154
11
133.848
21
-55.4187
0
LINE
8
BLACK
6
CONTINUOUS
10
133.848
20
-55.4187
11
133.842
21
-55.4225
0
LINE
8
BLACK
6
CONTINUOUS
10
133.842
20
-55.4225
11
133.721
21
-55.483
0
LINE
8
BLACK
6
CONTINUOUS
10
133.721
20
-55.483
11
133.72
21
-55.4838
0
LINE
8
BLACK
6
CONTINUOUS
10
133.72
20
-55.4838
11
133.719
21
-55.484
0
LINE
8
BLACK
6
CONTINUOUS
10
133.719
20
-55.484
11
133.719
21
-55.4843
0
LINE
8
BLACK
6
CONTINUOUS
10
133.719
20
-55.4843
11
133.708
21
-55.4882
0
LINE
8
BLACK
6
CONTINUOUS
10
133.708
20
-55.4882
11
133.697
21
-55.4923
0
LINE
8
BLACK
6
CONTINUOUS
10
133.697
20
-55.4923
11
133.696
21
-55.4924
0
LINE
8
BLACK
6
CONTINUOUS
10
133.696
20
-55.4924
11
133.695
21
-55.4926
0
LINE
8
BLACK
6
CONTINUOUS
10
133.695
20
-55.4926
11
133.454
21
-55.5531
0
LINE
8
BLACK
6
CONTINUOUS
10
133.454
20
-55.5531
11
133.452
21
-55.5535
0
LINE
8
BLACK
6
CONTINUOUS
10
133.452
20
-55.5535
11
133.45
21
-55.5538
0
LINE
8
BLACK
6
CONTINUOUS
10
133.45
20
-55.5538
11
133.447
21
-55.5544
0
LINE
8
BLACK
6
CONTINUOUS
10
133.447
20
-55.5544
11
133.437
21
-55.5554
0
LINE
8
BLACK
6
CONTINUOUS
10
133.437
20
-55.5554
11
133.427
21
-55.5568
0
LINE
8
BLACK
6
CONTINUOUS
10
133.427
20
-55.5568
11
133.425
21
-55.5566
0
LINE
8
BLACK
6
CONTINUOUS
10
133.425
20
-55.5566
11
133.423
21
-55.5569
0
LINE
8
BLACK
6
CONTINUOUS
10
133.423
20
-55.5569
11
133.12
21
-55.5569
0
LINE
8
BLACK
6
CONTINUOUS
10
133.12
20
-55.5569
11
133.119
21
-55.5568
0
LINE
8
BLACK
6
CONTINUOUS
10
133.119
20
-55.5568
11
133.116
21
-55.5566
0
LINE
8
BLACK
6
CONTINUOUS
10
133.116
20
-55.5566
11
133.114
21
-55.5567
0
LINE
8
BLACK
6
CONTINUOUS
10
133.114
20
-55.5567
11
133.104
21
-55.5552
0
LINE
8
BLACK
6
CONTINUOUS
10
133.104
20
-55.5552
11
133.094
21
-55.5541
0
LINE
8
BLACK
6
CONTINUOUS
10
133.094
20
-55.5541
11
133.092
21
-55.5534
0
LINE
8
BLACK
6
CONTINUOUS
10
133.092
20
-55.5534
11
133.09
21
-55.5531
0
LINE
8
BLACK
6
CONTINUOUS
10
133.09
20
-55.5531
11
132.848
21
-55.4926
0
LINE
8
BLACK
6
CONTINUOUS
10
132.848
20
-55.4926
11
132.846
21
-55.4921
0
LINE
8
BLACK
6
CONTINUOUS
10
132.846
20
-55.4921
11
132.845
21
-55.4919
0
LINE
8
BLACK
6
CONTINUOUS
10
132.845
20
-55.4919
11
132.845
21
-55.4918
0
LINE
8
BLACK
6
CONTINUOUS
10
132.845
20
-55.4918
11
132.834
21
-55.4876
0
LINE
8
BLACK
6
CONTINUOUS
10
132.834
20
-55.4876
11
132.823
21
-55.4835
0
LINE
8
BLACK
6
CONTINUOUS
10
132.823
20
-55.4835
11
132.822
21
-55.4832
0
LINE
8
BLACK
6
CONTINUOUS
10
132.822
20
-55.4832
11
132.822
21
-55.483
0
LINE
8
BLACK
6
CONTINUOUS
10
132.822
20
-55.483
11
132.701
21
-55.4225
0
LINE
8
BLACK
6
CONTINUOUS
10
132.701
20
-55.4225
11
132.699
21
-55.4217
0
LINE
8
BLACK
6
CONTINUOUS
10
132.699
20
-55.4217
11
132.693
21
-55.4178
0
LINE
8
BLACK
6
CONTINUOUS
10
132.693
20
-55.4178
11
132.687
21
-55.4144
0
LINE
8
BLACK
6
CONTINUOUS
10
132.687
20
-55.4144
11
132.683
21
-55.4111
0
LINE
8
BLACK
6
CONTINUOUS
10
132.683
20
-55.4111
11
132.678
21
-55.4082
0
LINE
8
BLACK
6
CONTINUOUS
10
132.678
20
-55.4082
11
132.673
21
-55.4032
0
LINE
8
BLACK
6
CONTINUOUS
10
132.673
20
-55.4032
11
132.668
21
-55.3987
0
LINE
8
BLACK
6
CONTINUOUS
10
132.668
20
-55.3987
11
132.607
21
-55.3382
0
LINE
8
BLACK
6
CONTINUOUS
10
132.607
20
-55.3382
11
132.606
21
-55.337
0
LINE
8
BLACK
6
CONTINUOUS
10
132.606
20
-55.337
11
132.601
21
-55.3314
0
LINE
8
BLACK
6
CONTINUOUS
10
132.601
20
-55.3314
11
132.597
21
-55.3262
0
LINE
8
BLACK
6
CONTINUOUS
10
132.597
20
-55.3262
11
132.594
21
-55.3217
0
LINE
8
BLACK
6
CONTINUOUS
10
132.594
20
-55.3217
11
132.59
21
-55.3176
0
LINE
8
BLACK
6
CONTINUOUS
10
132.59
20
-55.3176
11
132.587
21
-55.3113
0
LINE
8
BLACK
6
CONTINUOUS
10
132.587
20
-55.3113
11
132.583
21
-55.3052
0
LINE
8
BLACK
6
CONTINUOUS
10
132.583
20
-55.3052
11
132.523
21
-55.1843
0
LINE
8
BLACK
6
CONTINUOUS
10
132.523
20
-55.1843
11
132.522
21
-55.1827
0
LINE
8
BLACK
6
CONTINUOUS
10
132.522
20
-55.1827
11
132.521
21
-55.1792
0
LINE
8
BLACK
6
CONTINUOUS
10
132.521
20
-55.1792
11
132.519
21
-55.1759
0
LINE
8
BLACK
6
CONTINUOUS
10
132.519
20
-55.1759
11
132.517
21
-55.1676
0
LINE
8
BLACK
6
CONTINUOUS
10
132.517
20
-55.1676
11
132.514
21
-55.1594
0
LINE
8
BLACK
6
CONTINUOUS
10
132.514
20
-55.1594
11
132.513
21
-55.1557
0
LINE
8
BLACK
6
CONTINUOUS
10
132.513
20
-55.1557
11
132.512
21
-55.1521
0
LINE
8
BLACK
6
CONTINUOUS
10
132.512
20
-55.1521
11
132.511
21
-55.1435
0
LINE
8
BLACK
6
CONTINUOUS
10
132.511
20
-55.1435
11
132.51
21
-55.1349
0
LINE
8
BLACK
6
CONTINUOUS
10
132.51
20
-55.1349
11
132.51
21
-55.1312
0
LINE
8
BLACK
6
CONTINUOUS
10
132.51
20
-55.1312
11
132.51
21
-55.1275
0
LINE
8
BLACK
6
CONTINUOUS
10
132.51
20
-55.1275
11
132.51
21
-55.0065
0
LINE
8
BLACK
6
CONTINUOUS
10
132.51
20
-55.0065
11
132.51
21
-55.0047
0
LINE
8
BLACK
6
CONTINUOUS
10
132.51
20
-55.0047
11
132.51
21
-55.001
0
LINE
8
BLACK
6
CONTINUOUS
10
132.51
20
-55.001
11
132.51
21
-54.9973
0
LINE
8
BLACK
6
CONTINUOUS
10
132.51
20
-54.9973
11
132.511
21
-54.9888
0
LINE
8
BLACK
6
CONTINUOUS
10
132.511
20
-54.9888
11
132.512
21
-54.9801
0
LINE
8
BLACK
6
CONTINUOUS
10
132.512
20
-54.9801
11
132.513
21
-54.9765
0
LINE
8
BLACK
6
CONTINUOUS
10
132.513
20
-54.9765
11
132.514
21
-54.9729
0
LINE
8
BLACK
6
CONTINUOUS
10
132.514
20
-54.9729
11
132.517
21
-54.9648
0
LINE
8
BLACK
6
CONTINUOUS
10
132.517
20
-54.9648
11
132.52
21
-54.9565
0
LINE
8
BLACK
6
CONTINUOUS
10
132.52
20
-54.9565
11
132.522
21
-54.9532
0
LINE
8
BLACK
6
CONTINUOUS
10
132.522
20
-54.9532
11
132.523
21
-54.9497
0
LINE
8
BLACK
6
CONTINUOUS
10
132.523
20
-54.9497
11
132.583
21
-54.8288
0
LINE
8
BLACK
6
CONTINUOUS
10
132.583
20
-54.8288
11
132.584
21
-54.8272
0
LINE
8
BLACK
6
CONTINUOUS
10
132.584
20
-54.8272
11
132.588
21
-54.8212
0
LINE
8
BLACK
6
CONTINUOUS
10
132.588
20
-54.8212
11
132.591
21
-54.8149
0
LINE
8
BLACK
6
CONTINUOUS
10
132.591
20
-54.8149
11
132.595
21
-54.8108
0
LINE
8
BLACK
6
CONTINUOUS
10
132.595
20
-54.8108
11
132.598
21
-54.8064
0
LINE
8
BLACK
6
CONTINUOUS
10
132.598
20
-54.8064
11
132.603
21
-54.8013
0
LINE
8
BLACK
6
CONTINUOUS
10
132.603
20
-54.8013
11
132.607
21
-54.7958
0
LINE
8
BLACK
6
CONTINUOUS
10
132.607
20
-54.7958
11
132.668
21
-54.7353
0
LINE
8
BLACK
6
CONTINUOUS
10
132.668
20
-54.7353
11
132.669
21
-54.734
0
LINE
8
BLACK
6
CONTINUOUS
10
132.669
20
-54.734
11
132.675
21
-54.7296
0
LINE
8
BLACK
6
CONTINUOUS
10
132.675
20
-54.7296
11
132.68
21
-54.7247
0
LINE
8
BLACK
6
CONTINUOUS
10
132.68
20
-54.7247
11
132.684
21
-54.7219
0
LINE
8
BLACK
6
CONTINUOUS
10
132.684
20
-54.7219
11
132.688
21
-54.7186
0
LINE
8
BLACK
6
CONTINUOUS
10
132.688
20
-54.7186
11
132.695
21
-54.7153
0
LINE
8
BLACK
6
CONTINUOUS
10
132.695
20
-54.7153
11
132.701
21
-54.7115
0
LINE
8
BLACK
6
CONTINUOUS
10
132.701
20
-54.7115
11
132.822
21
-54.651
0
LINE
8
BLACK
6
CONTINUOUS
10
132.822
20
-54.651
11
132.823
21
-54.6502
0
LINE
8
BLACK
6
CONTINUOUS
10
132.823
20
-54.6502
11
132.824
21
-54.65
0
LINE
8
BLACK
6
CONTINUOUS
10
132.824
20
-54.65
11
132.824
21
-54.6497
0
LINE
8
BLACK
6
CONTINUOUS
10
132.824
20
-54.6497
11
132.835
21
-54.6458
0
LINE
8
BLACK
6
CONTINUOUS
10
132.835
20
-54.6458
11
132.846
21
-54.6417
0
LINE
8
BLACK
6
CONTINUOUS
10
132.846
20
-54.6417
11
132.847
21
-54.6416
0
LINE
8
BLACK
6
CONTINUOUS
10
132.847
20
-54.6416
11
132.848
21
-54.6414
0
LINE
8
BLACK
6
CONTINUOUS
10
132.848
20
-54.6414
11
133.09
21
-54.5809
0
LINE
8
BLACK
6
CONTINUOUS
10
133.09
20
-54.5809
11
133.091
21
-54.5805
0
LINE
8
BLACK
6
CONTINUOUS
10
133.091
20
-54.5805
11
133.094
21
-54.5802
0
LINE
8
BLACK
6
CONTINUOUS
10
133.094
20
-54.5802
11
133.096
21
-54.5796
0
LINE
8
BLACK
6
CONTINUOUS
10
133.096
20
-54.5796
11
133.106
21
-54.5786
0
LINE
8
BLACK
6
CONTINUOUS
10
133.106
20
-54.5786
11
133.116
21
-54.5772
0
LINE
8
BLACK
6
CONTINUOUS
10
133.116
20
-54.5772
11
133.118
21
-54.5774
0
LINE
8
BLACK
6
CONTINUOUS
10
133.118
20
-54.5774
11
133.12
21
-54.5771
0
LINE
8
BLACK
6
CONTINUOUS
10
133.12
20
-54.5771
11
133.423
21
-54.5771
0
LINE
8
BLACK
6
CONTINUOUS
10
133.423
20
-54.5771
11
133.424
21
-54.5772
0
LINE
8
BLACK
6
CONTINUOUS
10
133.136
20
-54.8311
11
132.923
21
-54.8844
0
LINE
8
BLACK
6
CONTINUOUS
10
132.923
20
-54.8844
11
132.833
21
-54.9295
0
LINE
8
BLACK
6
CONTINUOUS
10
132.833
20
-54.9295
11
132.801
21
-54.9608
0
LINE
8
BLACK
6
CONTINUOUS
10
132.801
20
-54.9608
11
132.764
21
-55.0365
0
LINE
8
BLACK
6
CONTINUOUS
10
132.764
20
-55.0365
11
132.764
21
-55.0975
0
LINE
8
BLACK
6
CONTINUOUS
10
132.764
20
-55.0975
11
132.801
21
-55.1732
0
LINE
8
BLACK
6
CONTINUOUS
10
132.801
20
-55.1732
11
132.833
21
-55.2045
0
LINE
8
BLACK
6
CONTINUOUS
10
132.833
20
-55.2045
11
132.923
21
-55.2496
0
LINE
8
BLACK
6
CONTINUOUS
10
132.923
20
-55.2496
11
133.136
21
-55.3029
0
LINE
8
BLACK
6
CONTINUOUS
10
133.136
20
-55.3029
11
133.407
21
-55.3029
0
LINE
8
BLACK
6
CONTINUOUS
10
133.407
20
-55.3029
11
133.62
21
-55.2496
0
LINE
8
BLACK
6
CONTINUOUS
10
133.62
20
-55.2496
11
133.71
21
-55.2045
0
LINE
8
BLACK
6
CONTINUOUS
10
133.71
20
-55.2045
11
133.742
21
-55.1732
0
LINE
8
BLACK
6
CONTINUOUS
10
133.742
20
-55.1732
11
133.78
21
-55.0975
0
LINE
8
BLACK
6
CONTINUOUS
10
133.78
20
-55.0975
11
133.78
21
-55.0365
0
LINE
8
BLACK
6
CONTINUOUS
10
133.78
20
-55.0365
11
133.742
21
-54.9608
0
LINE
8
BLACK
6
CONTINUOUS
10
133.742
20
-54.9608
11
133.71
21
-54.9295
0
LINE
8
BLACK
6
CONTINUOUS
10
133.71
20
-54.9295
11
133.62
21
-54.8844
0
LINE
8
BLACK
6
CONTINUOUS
10
133.62
20
-54.8844
11
133.407
21
-54.8311
0
LINE
8
BLACK
6
CONTINUOUS
10
133.407
20
-54.8311
11
133.136
21
-54.8311
0
LINE
8
BLACK
6
CONTINUOUS
10
133.932
20
-53.3702
11
133.956
21
-53.3775
0
LINE
8
BLACK
6
CONTINUOUS
10
133.956
20
-53.3775
11
133.978
21
-53.3893
0
LINE
8
BLACK
6
CONTINUOUS
10
133.978
20
-53.3893
11
133.997
21
-53.4051
0
LINE
8
BLACK
6
CONTINUOUS
10
133.997
20
-53.4051
11
134.012
21
-53.4243
0
LINE
8
BLACK
6
CONTINUOUS
10
134.012
20
-53.4243
11
134.024
21
-53.4462
0
LINE
8
BLACK
6
CONTINUOUS
10
134.024
20
-53.4462
11
134.031
21
-53.47
0
LINE
8
BLACK
6
CONTINUOUS
10
134.031
20
-53.47
11
134.034
21
-53.4946
0
LINE
8
BLACK
6
CONTINUOUS
10
134.034
20
-53.4946
11
134.034
21
-54.2203
0
LINE
8
BLACK
6
CONTINUOUS
10
134.034
20
-54.2203
11
134.034
21
-54.2221
0
LINE
8
BLACK
6
CONTINUOUS
10
134.034
20
-54.2221
11
134.031
21
-54.2467
0
LINE
8
BLACK
6
CONTINUOUS
10
134.031
20
-54.2467
11
134.023
21
-54.2704
0
LINE
8
BLACK
6
CONTINUOUS
10
134.023
20
-54.2704
11
134.011
21
-54.2921
0
LINE
8
BLACK
6
CONTINUOUS
10
134.011
20
-54.2921
11
133.995
21
-54.3111
0
LINE
8
BLACK
6
CONTINUOUS
10
133.995
20
-54.3111
11
133.976
21
-54.3266
0
LINE
8
BLACK
6
CONTINUOUS
10
133.976
20
-54.3266
11
133.954
21
-54.3381
0
LINE
8
BLACK
6
CONTINUOUS
10
133.954
20
-54.3381
11
133.93
21
-54.3451
0
LINE
8
BLACK
6
CONTINUOUS
10
133.93
20
-54.3451
11
133.906
21
-54.3473
0
LINE
8
BLACK
6
CONTINUOUS
10
133.906
20
-54.3473
11
133.881
21
-54.3447
0
LINE
8
BLACK
6
CONTINUOUS
10
133.881
20
-54.3447
11
133.857
21
-54.3374
0
LINE
8
BLACK
6
CONTINUOUS
10
133.857
20
-54.3374
11
133.836
21
-54.3256
0
LINE
8
BLACK
6
CONTINUOUS
10
133.836
20
-54.3256
11
133.816
21
-54.3098
0
LINE
8
BLACK
6
CONTINUOUS
10
133.816
20
-54.3098
11
133.801
21
-54.2906
0
LINE
8
BLACK
6
CONTINUOUS
10
133.801
20
-54.2906
11
133.789
21
-54.2687
0
LINE
8
BLACK
6
CONTINUOUS
10
133.789
20
-54.2687
11
133.782
21
-54.245
0
LINE
8
BLACK
6
CONTINUOUS
10
133.782
20
-54.245
11
133.78
21
-54.2203
0
LINE
8
BLACK
6
CONTINUOUS
10
133.78
20
-54.2203
11
133.78
21
-53.9845
0
LINE
8
BLACK
6
CONTINUOUS
10
133.78
20
-53.9845
11
132.637
21
-53.9845
0
LINE
8
BLACK
6
CONTINUOUS
10
132.637
20
-53.9845
11
132.635
21
-53.9845
0
LINE
8
BLACK
6
CONTINUOUS
10
132.635
20
-53.9845
11
132.635
21
-53.9845
0
LINE
8
BLACK
6
CONTINUOUS
10
132.635
20
-53.9845
11
132.635
21
-53.9845
0
LINE
8
BLACK
6
CONTINUOUS
10
132.635
20
-53.9845
11
132.635
21
-53.9845
0
LINE
8
BLACK
6
CONTINUOUS
10
132.635
20
-53.9845
11
132.622
21
-53.9831
0
LINE
8
BLACK
6
CONTINUOUS
10
132.622
20
-53.9831
11
132.61
21
-53.9817
0
LINE
8
BLACK
6
CONTINUOUS
10
132.61
20
-53.9817
11
132.61
21
-53.9817
0
LINE
8
BLACK
6
CONTINUOUS
10
132.61
20
-53.9817
11
132.61
21
-53.9817
0
LINE
8
BLACK
6
CONTINUOUS
10
132.61
20
-53.9817
11
132.598
21
-53.978
0
LINE
8
BLACK
6
CONTINUOUS
10
132.598
20
-53.978
11
132.587
21
-53.9743
0
LINE
8
BLACK
6
CONTINUOUS
10
132.587
20
-53.9743
11
132.587
21
-53.9742
0
LINE
8
BLACK
6
CONTINUOUS
10
132.587
20
-53.9742
11
132.586
21
-53.9742
0
LINE
8
BLACK
6
CONTINUOUS
10
132.586
20
-53.9742
11
132.576
21
-53.9683
0
LINE
8
BLACK
6
CONTINUOUS
10
132.576
20
-53.9683
11
132.565
21
-53.9624
0
LINE
8
BLACK
6
CONTINUOUS
10
132.565
20
-53.9624
11
132.565
21
-53.9623
0
LINE
8
BLACK
6
CONTINUOUS
10
132.565
20
-53.9623
11
132.565
21
-53.9623
0
LINE
8
BLACK
6
CONTINUOUS
10
132.565
20
-53.9623
11
132.555
21
-53.9543
0
LINE
8
BLACK
6
CONTINUOUS
10
132.555
20
-53.9543
11
132.546
21
-53.9465
0
LINE
8
BLACK
6
CONTINUOUS
10
132.546
20
-53.9465
11
132.546
21
-53.9464
0
LINE
8
BLACK
6
CONTINUOUS
10
132.546
20
-53.9464
11
132.546
21
-53.9463
0
LINE
8
BLACK
6
CONTINUOUS
10
132.546
20
-53.9463
11
132.538
21
-53.9366
0
LINE
8
BLACK
6
CONTINUOUS
10
132.538
20
-53.9366
11
132.53
21
-53.9272
0
LINE
8
BLACK
6
CONTINUOUS
10
132.53
20
-53.9272
11
132.53
21
-53.9271
0
LINE
8
BLACK
6
CONTINUOUS
10
132.53
20
-53.9271
11
132.53
21
-53.927
0
LINE
8
BLACK
6
CONTINUOUS
10
132.53
20
-53.927
11
132.525
21
-53.9161
0
LINE
8
BLACK
6
CONTINUOUS
10
132.525
20
-53.9161
11
132.519
21
-53.9052
0
LINE
8
BLACK
6
CONTINUOUS
10
132.519
20
-53.9052
11
132.519
21
-53.9051
0
LINE
8
BLACK
6
CONTINUOUS
10
132.519
20
-53.9051
11
132.519
21
-53.9051
0
LINE
8
BLACK
6
CONTINUOUS
10
132.519
20
-53.9051
11
132.515
21
-53.8935
0
LINE
8
BLACK
6
CONTINUOUS
10
132.515
20
-53.8935
11
132.512
21
-53.8815
0
LINE
8
BLACK
6
CONTINUOUS
10
132.512
20
-53.8815
11
132.512
21
-53.8814
0
LINE
8
BLACK
6
CONTINUOUS
10
132.512
20
-53.8814
11
132.512
21
-53.8813
0
LINE
8
BLACK
6
CONTINUOUS
10
132.512
20
-53.8813
11
132.511
21
-53.8692
0
LINE
8
BLACK
6
CONTINUOUS
10
132.511
20
-53.8692
11
132.51
21
-53.8568
0
LINE
8
BLACK
6
CONTINUOUS
10
132.51
20
-53.8568
11
132.51
21
-53.8567
0
LINE
8
BLACK
6
CONTINUOUS
10
132.51
20
-53.8567
11
132.51
21
-53.8566
0
LINE
8
BLACK
6
CONTINUOUS
10
132.51
20
-53.8566
11
132.511
21
-53.8442
0
LINE
8
BLACK
6
CONTINUOUS
10
132.511
20
-53.8442
11
132.512
21
-53.8321
0
LINE
8
BLACK
6
CONTINUOUS
10
132.512
20
-53.8321
11
132.512
21
-53.832
0
LINE
8
BLACK
6
CONTINUOUS
10
132.512
20
-53.832
11
132.512
21
-53.8319
0
LINE
8
BLACK
6
CONTINUOUS
10
132.512
20
-53.8319
11
132.516
21
-53.82
0
LINE
8
BLACK
6
CONTINUOUS
10
132.516
20
-53.82
11
132.519
21
-53.8084
0
LINE
8
BLACK
6
CONTINUOUS
10
132.519
20
-53.8084
11
132.519
21
-53.8084
0
LINE
8
BLACK
6
CONTINUOUS
10
132.519
20
-53.8084
11
132.519
21
-53.8083
0
LINE
8
BLACK
6
CONTINUOUS
10
132.519
20
-53.8083
11
132.525
21
-53.7972
0
LINE
8
BLACK
6
CONTINUOUS
10
132.525
20
-53.7972
11
132.531
21
-53.7866
0
LINE
8
BLACK
6
CONTINUOUS
10
132.531
20
-53.7866
11
132.531
21
-53.7865
0
LINE
8
BLACK
6
CONTINUOUS
10
132.531
20
-53.7865
11
132.531
21
-53.7865
0
LINE
8
BLACK
6
CONTINUOUS
10
132.531
20
-53.7865
11
132.539
21
-53.7767
0
LINE
8
BLACK
6
CONTINUOUS
10
132.539
20
-53.7767
11
132.547
21
-53.7675
0
LINE
8
BLACK
6
CONTINUOUS
10
132.547
20
-53.7675
11
132.547
21
-53.7674
0
LINE
8
BLACK
6
CONTINUOUS
10
132.547
20
-53.7674
11
132.547
21
-53.7674
0
LINE
8
BLACK
6
CONTINUOUS
10
132.547
20
-53.7674
11
132.557
21
-53.7594
0
LINE
8
BLACK
6
CONTINUOUS
10
132.557
20
-53.7594
11
132.566
21
-53.7518
0
LINE
8
BLACK
6
CONTINUOUS
10
132.566
20
-53.7518
11
132.737
21
-53.6378
0
LINE
8
BLACK
6
CONTINUOUS
10
132.737
20
-53.6378
11
132.835
21
-53.5403
0
LINE
8
BLACK
6
CONTINUOUS
10
132.835
20
-53.5403
11
132.886
21
-53.4378
0
LINE
8
BLACK
6
CONTINUOUS
10
132.886
20
-53.4378
11
132.887
21
-53.4362
0
LINE
8
BLACK
6
CONTINUOUS
10
132.887
20
-53.4362
11
132.9
21
-53.4154
0
LINE
8
BLACK
6
CONTINUOUS
10
132.9
20
-53.4154
11
132.917
21
-53.3977
0
LINE
8
BLACK
6
CONTINUOUS
10
132.917
20
-53.3977
11
132.938
21
-53.3836
0
LINE
8
BLACK
6
CONTINUOUS
10
132.938
20
-53.3836
11
132.96
21
-53.3737
0
LINE
8
BLACK
6
CONTINUOUS
10
132.96
20
-53.3737
11
132.985
21
-53.3685
0
LINE
8
BLACK
6
CONTINUOUS
10
132.985
20
-53.3685
11
133.009
21
-53.368
0
LINE
8
BLACK
6
CONTINUOUS
10
133.009
20
-53.368
11
133.034
21
-53.3724
0
LINE
8
BLACK
6
CONTINUOUS
10
133.034
20
-53.3724
11
133.057
21
-53.3814
0
LINE
8
BLACK
6
CONTINUOUS
10
133.057
20
-53.3814
11
133.078
21
-53.3948
0
LINE
8
BLACK
6
CONTINUOUS
10
133.078
20
-53.3948
11
133.096
21
-53.4119
0
LINE
8
BLACK
6
CONTINUOUS
10
133.096
20
-53.4119
11
133.11
21
-53.4322
0
LINE
8
BLACK
6
CONTINUOUS
10
133.11
20
-53.4322
11
133.12
21
-53.4549
0
LINE
8
BLACK
6
CONTINUOUS
10
133.12
20
-53.4549
11
133.125
21
-53.4791
0
LINE
8
BLACK
6
CONTINUOUS
10
133.125
20
-53.4791
11
133.126
21
-53.5038
0
LINE
8
BLACK
6
CONTINUOUS
10
133.126
20
-53.5038
11
133.122
21
-53.5283
0
LINE
8
BLACK
6
CONTINUOUS
10
133.122
20
-53.5283
11
133.113
21
-53.5514
0
LINE
8
BLACK
6
CONTINUOUS
10
133.113
20
-53.5514
11
133.052
21
-53.6724
0
LINE
8
BLACK
6
CONTINUOUS
10
133.052
20
-53.6724
11
133.052
21
-53.6739
0
LINE
8
BLACK
6
CONTINUOUS
10
133.052
20
-53.6739
11
133.048
21
-53.6799
0
LINE
8
BLACK
6
CONTINUOUS
10
133.048
20
-53.6799
11
133.044
21
-53.6862
0
LINE
8
BLACK
6
CONTINUOUS
10
133.044
20
-53.6862
11
133.041
21
-53.6903
0
LINE
8
BLACK
6
CONTINUOUS
10
133.041
20
-53.6903
11
133.038
21
-53.6947
0
LINE
8
BLACK
6
CONTINUOUS
10
133.038
20
-53.6947
11
133.033
21
-53.6999
0
LINE
8
BLACK
6
CONTINUOUS
10
133.033
20
-53.6999
11
133.029
21
-53.7054
0
LINE
8
BLACK
6
CONTINUOUS
10
133.029
20
-53.7054
11
133.004
21
-53.7305
0
LINE
8
BLACK
6
CONTINUOUS
10
133.004
20
-53.7305
11
133.78
21
-53.7305
0
LINE
8
BLACK
6
CONTINUOUS
10
133.78
20
-53.7305
11
133.78
21
-53.4946
0
LINE
8
BLACK
6
CONTINUOUS
10
133.78
20
-53.4946
11
133.78
21
-53.4928
0
LINE
8
BLACK
6
CONTINUOUS
10
133.78
20
-53.4928
11
133.782
21
-53.4682
0
LINE
8
BLACK
6
CONTINUOUS
10
133.782
20
-53.4682
11
133.79
21
-53.4446
0
LINE
8
BLACK
6
CONTINUOUS
10
133.79
20
-53.4446
11
133.802
21
-53.4229
0
LINE
8
BLACK
6
CONTINUOUS
10
133.802
20
-53.4229
11
133.818
21
-53.4039
0
LINE
8
BLACK
6
CONTINUOUS
10
133.818
20
-53.4039
11
133.837
21
-53.3883
0
LINE
8
BLACK
6
CONTINUOUS
10
133.837
20
-53.3883
11
133.859
21
-53.3769
0
LINE
8
BLACK
6
CONTINUOUS
10
133.859
20
-53.3769
11
133.883
21
-53.3699
0
LINE
8
BLACK
6
CONTINUOUS
10
133.883
20
-53.3699
11
133.907
21
-53.3676
0
LINE
8
BLACK
6
CONTINUOUS
10
133.907
20
-53.3676
11
133.932
21
-53.3702
0
LINE
8
BLACK
6
CONTINUOUS
10
133.485
20
-52.0372
11
133.487
21
-52.0374
0
LINE
8
BLACK
6
CONTINUOUS
10
133.487
20
-52.0374
11
133.489
21
-52.0373
0
LINE
8
BLACK
6
CONTINUOUS
10
133.489
20
-52.0373
11
133.499
21
-52.0388
0
LINE
8
BLACK
6
CONTINUOUS
10
133.499
20
-52.0388
11
133.51
21
-52.0399
0
LINE
8
BLACK
6
CONTINUOUS
10
133.51
20
-52.0399
11
133.512
21
-52.0406
0
LINE
8
BLACK
6
CONTINUOUS
10
133.512
20
-52.0406
11
133.514
21
-52.0409
0
LINE
8
BLACK
6
CONTINUOUS
10
133.514
20
-52.0409
11
133.756
21
-52.1014
0
LINE
8
BLACK
6
CONTINUOUS
10
133.756
20
-52.1014
11
133.758
21
-52.1019
0
LINE
8
BLACK
6
CONTINUOUS
10
133.758
20
-52.1019
11
133.766
21
-52.1049
0
LINE
8
BLACK
6
CONTINUOUS
10
133.766
20
-52.1049
11
133.774
21
-52.1074
0
LINE
8
BLACK
6
CONTINUOUS
10
133.774
20
-52.1074
11
133.777
21
-52.1092
0
LINE
8
BLACK
6
CONTINUOUS
10
133.777
20
-52.1092
11
133.781
21
-52.1105
0
LINE
8
BLACK
6
CONTINUOUS
10
133.781
20
-52.1105
11
133.788
21
-52.115
0
LINE
8
BLACK
6
CONTINUOUS
10
133.788
20
-52.115
11
133.796
21
-52.1191
0
LINE
8
BLACK
6
CONTINUOUS
10
133.796
20
-52.1191
11
133.799
21
-52.1215
0
LINE
8
BLACK
6
CONTINUOUS
10
133.799
20
-52.1215
11
133.802
21
-52.1235
0
LINE
8
BLACK
6
CONTINUOUS
10
133.802
20
-52.1235
11
133.808
21
-52.1294
0
LINE
8
BLACK
6
CONTINUOUS
10
133.808
20
-52.1294
11
133.815
21
-52.1348
0
LINE
8
BLACK
6
CONTINUOUS
10
133.815
20
-52.1348
11
133.936
21
-52.2558
0
LINE
8
BLACK
6
CONTINUOUS
10
133.936
20
-52.2558
11
133.937
21
-52.257
0
LINE
8
BLACK
6
CONTINUOUS
10
133.937
20
-52.257
11
133.942
21
-52.2626
0
LINE
8
BLACK
6
CONTINUOUS
10
133.942
20
-52.2626
11
133.946
21
-52.2678
0
LINE
8
BLACK
6
CONTINUOUS
10
133.946
20
-52.2678
11
133.949
21
-52.2723
0
LINE
8
BLACK
6
CONTINUOUS
10
133.949
20
-52.2723
11
133.953
21
-52.2764
0
LINE
8
BLACK
6
CONTINUOUS
10
133.953
20
-52.2764
11
133.956
21
-52.2827
0
LINE
8
BLACK
6
CONTINUOUS
10
133.956
20
-52.2827
11
133.96
21
-52.2888
0
LINE
8
BLACK
6
CONTINUOUS
10
133.96
20
-52.2888
11
134.02
21
-52.4097
0
LINE
8
BLACK
6
CONTINUOUS
10
134.02
20
-52.4097
11
134.021
21
-52.4113
0
LINE
8
BLACK
6
CONTINUOUS
10
134.021
20
-52.4113
11
134.022
21
-52.4148
0
LINE
8
BLACK
6
CONTINUOUS
10
134.022
20
-52.4148
11
134.024
21
-52.4181
0
LINE
8
BLACK
6
CONTINUOUS
10
134.024
20
-52.4181
11
134.026
21
-52.4264
0
LINE
8
BLACK
6
CONTINUOUS
10
134.026
20
-52.4264
11
134.029
21
-52.4346
0
LINE
8
BLACK
6
CONTINUOUS
10
134.029
20
-52.4346
11
134.03
21
-52.4383
0
LINE
8
BLACK
6
CONTINUOUS
10
134.03
20
-52.4383
11
134.031
21
-52.4419
0
LINE
8
BLACK
6
CONTINUOUS
10
134.031
20
-52.4419
11
134.032
21
-52.4505
0
LINE
8
BLACK
6
CONTINUOUS
10
134.032
20
-52.4505
11
134.033
21
-52.4591
0
LINE
8
BLACK
6
CONTINUOUS
10
134.033
20
-52.4591
11
134.033
21
-52.4628
0
LINE
8
BLACK
6
CONTINUOUS
10
134.033
20
-52.4628
11
134.034
21
-52.4665
0
LINE
8
BLACK
6
CONTINUOUS
10
134.034
20
-52.4665
11
134.034
21
-52.7084
0
LINE
8
BLACK
6
CONTINUOUS
10
134.034
20
-52.7084
11
134.034
21
-52.7102
0
LINE
8
BLACK
6
CONTINUOUS
10
134.034
20
-52.7102
11
134.033
21
-52.7139
0
LINE
8
BLACK
6
CONTINUOUS
10
134.033
20
-52.7139
11
134.033
21
-52.7177
0
LINE
8
BLACK
6
CONTINUOUS
10
134.033
20
-52.7177
11
134.032
21
-52.7262
0
LINE
8
BLACK
6
CONTINUOUS
10
134.032
20
-52.7262
11
134.031
21
-52.7348
0
LINE
8
BLACK
6
CONTINUOUS
10
134.031
20
-52.7348
11
134.03
21
-52.7384
0
LINE
8
BLACK
6
CONTINUOUS
10
134.03
20
-52.7384
11
134.029
21
-52.7421
0
LINE
8
BLACK
6
CONTINUOUS
10
134.029
20
-52.7421
11
134.026
21
-52.7502
0
LINE
8
BLACK
6
CONTINUOUS
10
134.026
20
-52.7502
11
134.023
21
-52.7585
0
LINE
8
BLACK
6
CONTINUOUS
10
134.023
20
-52.7585
11
134.021
21
-52.7617
0
LINE
8
BLACK
6
CONTINUOUS
10
134.021
20
-52.7617
11
134.02
21
-52.7652
0
LINE
8
BLACK
6
CONTINUOUS
10
134.02
20
-52.7652
11
134.001
21
-52.8043
0
LINE
8
BLACK
6
CONTINUOUS
10
134.001
20
-52.8043
11
134.057
21
-52.8605
0
LINE
8
BLACK
6
CONTINUOUS
10
134.057
20
-52.8605
11
134.058
21
-52.8618
0
LINE
8
BLACK
6
CONTINUOUS
10
134.058
20
-52.8618
11
134.063
21
-52.8674
0
LINE
8
BLACK
6
CONTINUOUS
10
134.063
20
-52.8674
11
134.067
21
-52.8726
0
LINE
8
BLACK
6
CONTINUOUS
10
134.067
20
-52.8726
11
134.07
21
-52.877
0
LINE
8
BLACK
6
CONTINUOUS
10
134.07
20
-52.877
11
134.074
21
-52.8812
0
LINE
8
BLACK
6
CONTINUOUS
10
134.074
20
-52.8812
11
134.077
21
-52.8875
0
LINE
8
BLACK
6
CONTINUOUS
10
134.077
20
-52.8875
11
134.081
21
-52.8935
0
LINE
8
BLACK
6
CONTINUOUS
10
134.081
20
-52.8935
11
134.141
21
-53.0145
0
LINE
8
BLACK
6
CONTINUOUS
10
134.141
20
-53.0145
11
134.142
21
-53.0161
0
LINE
8
BLACK
6
CONTINUOUS
10
134.142
20
-53.0161
11
134.15
21
-53.0393
0
LINE
8
BLACK
6
CONTINUOUS
10
134.15
20
-53.0393
11
134.154
21
-53.0638
0
LINE
8
BLACK
6
CONTINUOUS
10
134.154
20
-53.0638
11
134.153
21
-53.0886
0
LINE
8
BLACK
6
CONTINUOUS
10
134.153
20
-53.0886
11
134.148
21
-53.1127
0
LINE
8
BLACK
6
CONTINUOUS
10
134.148
20
-53.1127
11
134.137
21
-53.1352
0
LINE
8
BLACK
6
CONTINUOUS
10
134.137
20
-53.1352
11
134.123
21
-53.1553
0
LINE
8
BLACK
6
CONTINUOUS
10
134.123
20
-53.1553
11
134.105
21
-53.1722
0
LINE
8
BLACK
6
CONTINUOUS
10
134.105
20
-53.1722
11
134.083
21
-53.1853
0
LINE
8
BLACK
6
CONTINUOUS
10
134.083
20
-53.1853
11
134.06
21
-53.194
0
LINE
8
BLACK
6
CONTINUOUS
10
134.06
20
-53.194
11
134.036
21
-53.198
0
LINE
8
BLACK
6
CONTINUOUS
10
134.036
20
-53.198
11
134.011
21
-53.1972
0
LINE
8
BLACK
6
CONTINUOUS
10
134.011
20
-53.1972
11
133.987
21
-53.1916
0
LINE
8
BLACK
6
CONTINUOUS
10
133.987
20
-53.1916
11
133.964
21
-53.1815
0
LINE
8
BLACK
6
CONTINUOUS
10
133.964
20
-53.1815
11
133.944
21
-53.1671
0
LINE
8
BLACK
6
CONTINUOUS
10
133.944
20
-53.1671
11
133.927
21
-53.1491
0
LINE
8
BLACK
6
CONTINUOUS
10
133.927
20
-53.1491
11
133.914
21
-53.1281
0
LINE
8
BLACK
6
CONTINUOUS
10
133.914
20
-53.1281
11
133.863
21
-53.0256
0
LINE
8
BLACK
6
CONTINUOUS
10
133.863
20
-53.0256
11
133.846
21
-53.009
0
LINE
8
BLACK
6
CONTINUOUS
10
133.846
20
-53.009
11
133.815
21
-53.0401
0
LINE
8
BLACK
6
CONTINUOUS
10
133.815
20
-53.0401
11
133.814
21
-53.0414
0
LINE
8
BLACK
6
CONTINUOUS
10
133.814
20
-53.0414
11
133.807
21
-53.0467
0
LINE
8
BLACK
6
CONTINUOUS
10
133.807
20
-53.0467
11
133.801
21
-53.0525
0
LINE
8
BLACK
6
CONTINUOUS
10
133.801
20
-53.0525
11
133.797
21
-53.0545
0
LINE
8
BLACK
6
CONTINUOUS
10
133.797
20
-53.0545
11
133.794
21
-53.0568
0
LINE
8
BLACK
6
CONTINUOUS
10
133.794
20
-53.0568
11
133.787
21
-53.0608
0
LINE
8
BLACK
6
CONTINUOUS
10
133.787
20
-53.0608
11
133.779
21
-53.0652
0
LINE
8
BLACK
6
CONTINUOUS
10
133.779
20
-53.0652
11
133.776
21
-53.0665
0
LINE
8
BLACK
6
CONTINUOUS
10
133.776
20
-53.0665
11
133.772
21
-53.0683
0
LINE
8
BLACK
6
CONTINUOUS
10
133.772
20
-53.0683
11
133.764
21
-53.0707
0
LINE
8
BLACK
6
CONTINUOUS
10
133.764
20
-53.0707
11
133.756
21
-53.0735
0
LINE
8
BLACK
6
CONTINUOUS
10
133.756
20
-53.0735
11
133.514
21
-53.134
0
LINE
8
BLACK
6
CONTINUOUS
10
133.514
20
-53.134
11
133.512
21
-53.1344
0
LINE
8
BLACK
6
CONTINUOUS
10
133.512
20
-53.1344
11
133.51
21
-53.1347
0
LINE
8
BLACK
6
CONTINUOUS
10
133.51
20
-53.1347
11
133.508
21
-53.1354
0
LINE
8
BLACK
6
CONTINUOUS
10
133.508
20
-53.1354
11
133.498
21
-53.1364
0
LINE
8
BLACK
6
CONTINUOUS
10
133.498
20
-53.1364
11
133.488
21
-53.1377
0
LINE
8
BLACK
6
CONTINUOUS
10
133.488
20
-53.1377
11
133.485
21
-53.1376
0
LINE
8
BLACK
6
CONTINUOUS
10
133.485
20
-53.1376
11
133.483
21
-53.1378
0
LINE
8
BLACK
6
CONTINUOUS
10
133.483
20
-53.1378
11
133.06
21
-53.1378
0
LINE
8
BLACK
6
CONTINUOUS
10
133.06
20
-53.1378
11
133.058
21
-53.1378
0
LINE
8
BLACK
6
CONTINUOUS
10
133.058
20
-53.1378
11
133.056
21
-53.1375
0
LINE
8
BLACK
6
CONTINUOUS
10
133.056
20
-53.1375
11
133.054
21
-53.1377
0
LINE
8
BLACK
6
CONTINUOUS
10
133.054
20
-53.1377
11
133.044
21
-53.1362
0
LINE
8
BLACK
6
CONTINUOUS
10
133.044
20
-53.1362
11
133.033
21
-53.135
0
LINE
8
BLACK
6
CONTINUOUS
10
133.033
20
-53.135
11
133.031
21
-53.1343
0
LINE
8
BLACK
6
CONTINUOUS
10
133.031
20
-53.1343
11
133.029
21
-53.134
0
LINE
8
BLACK
6
CONTINUOUS
10
133.029
20
-53.134
11
132.787
21
-53.0735
0
LINE
8
BLACK
6
CONTINUOUS
10
132.787
20
-53.0735
11
132.785
21
-53.0731
0
LINE
8
BLACK
6
CONTINUOUS
10
132.785
20
-53.0731
11
132.777
21
-53.0701
0
LINE
8
BLACK
6
CONTINUOUS
10
132.777
20
-53.0701
11
132.769
21
-53.0676
0
LINE
8
BLACK
6
CONTINUOUS
10
132.769
20
-53.0676
11
132.766
21
-53.0658
0
LINE
8
BLACK
6
CONTINUOUS
10
132.766
20
-53.0658
11
132.762
21
-53.0644
0
LINE
8
BLACK
6
CONTINUOUS
10
132.762
20
-53.0644
11
132.755
21
-53.0599
0
LINE
8
BLACK
6
CONTINUOUS
10
132.755
20
-53.0599
11
132.747
21
-53.0559
0
LINE
8
BLACK
6
CONTINUOUS
10
132.747
20
-53.0559
11
132.744
21
-53.0534
0
LINE
8
BLACK
6
CONTINUOUS
10
132.744
20
-53.0534
11
132.741
21
-53.0514
0
LINE
8
BLACK
6
CONTINUOUS
10
132.741
20
-53.0514
11
132.735
21
-53.0456
0
LINE
8
BLACK
6
CONTINUOUS
10
132.735
20
-53.0456
11
132.728
21
-53.0401
0
LINE
8
BLACK
6
CONTINUOUS
10
132.728
20
-53.0401
11
132.607
21
-52.9192
0
LINE
8
BLACK
6
CONTINUOUS
10
132.607
20
-52.9192
11
132.606
21
-52.9179
0
LINE
8
BLACK
6
CONTINUOUS
10
132.606
20
-52.9179
11
132.601
21
-52.9123
0
LINE
8
BLACK
6
CONTINUOUS
10
132.601
20
-52.9123
11
132.597
21
-52.9072
0
LINE
8
BLACK
6
CONTINUOUS
10
132.597
20
-52.9072
11
132.594
21
-52.9027
0
LINE
8
BLACK
6
CONTINUOUS
10
132.594
20
-52.9027
11
132.59
21
-52.8985
0
LINE
8
BLACK
6
CONTINUOUS
10
132.59
20
-52.8985
11
132.587
21
-52.8922
0
LINE
8
BLACK
6
CONTINUOUS
10
132.587
20
-52.8922
11
132.583
21
-52.8862
0
LINE
8
BLACK
6
CONTINUOUS
10
132.583
20
-52.8862
11
132.523
21
-52.7652
0
LINE
8
BLACK
6
CONTINUOUS
10
132.523
20
-52.7652
11
132.522
21
-52.7636
0
LINE
8
BLACK
6
CONTINUOUS
10
132.522
20
-52.7636
11
132.521
21
-52.7601
0
LINE
8
BLACK
6
CONTINUOUS
10
132.521
20
-52.7601
11
132.519
21
-52.7568
0
LINE
8
BLACK
6
CONTINUOUS
10
132.519
20
-52.7568
11
132.517
21
-52.7485
0
LINE
8
BLACK
6
CONTINUOUS
10
132.517
20
-52.7485
11
132.514
21
-52.7404
0
LINE
8
BLACK
6
CONTINUOUS
10
132.514
20
-52.7404
11
132.513
21
-52.7367
0
LINE
8
BLACK
6
CONTINUOUS
10
132.513
20
-52.7367
11
132.512
21
-52.7331
0
LINE
8
BLACK
6
CONTINUOUS
10
132.512
20
-52.7331
11
132.511
21
-52.7245
0
LINE
8
BLACK
6
CONTINUOUS
10
132.511
20
-52.7245
11
132.51
21
-52.7159
0
LINE
8
BLACK
6
CONTINUOUS
10
132.51
20
-52.7159
11
132.51
21
-52.7121
0
LINE
8
BLACK
6
CONTINUOUS
10
132.51
20
-52.7121
11
132.51
21
-52.7084
0
LINE
8
BLACK
6
CONTINUOUS
10
132.51
20
-52.7084
11
132.51
21
-52.4665
0
LINE
8
BLACK
6
CONTINUOUS
10
132.51
20
-52.4665
11
132.51
21
-52.4647
0
LINE
8
BLACK
6
CONTINUOUS
10
132.51
20
-52.4647
11
132.51
21
-52.461
0
LINE
8
BLACK
6
CONTINUOUS
10
132.51
20
-52.461
11
132.51
21
-52.4573
0
LINE
8
BLACK
6
CONTINUOUS
10
132.51
20
-52.4573
11
132.511
21
-52.4488
0
LINE
8
BLACK
6
CONTINUOUS
10
132.511
20
-52.4488
11
132.512
21
-52.4401
0
LINE
8
BLACK
6
CONTINUOUS
10
132.512
20
-52.4401
11
132.513
21
-52.4365
0
LINE
8
BLACK
6
CONTINUOUS
10
132.513
20
-52.4365
11
132.514
21
-52.4329
0
LINE
8
BLACK
6
CONTINUOUS
10
132.514
20
-52.4329
11
132.517
21
-52.4248
0
LINE
8
BLACK
6
CONTINUOUS
10
132.517
20
-52.4248
11
132.52
21
-52.4165
0
LINE
8
BLACK
6
CONTINUOUS
10
132.52
20
-52.4165
11
132.522
21
-52.4132
0
LINE
8
BLACK
6
CONTINUOUS
10
132.522
20
-52.4132
11
132.523
21
-52.4097
0
LINE
8
BLACK
6
CONTINUOUS
10
132.523
20
-52.4097
11
132.583
21
-52.2888
0
LINE
8
BLACK
6
CONTINUOUS
10
132.583
20
-52.2888
11
132.584
21
-52.2872
0
LINE
8
BLACK
6
CONTINUOUS
10
132.584
20
-52.2872
11
132.588
21
-52.2812
0
LINE
8
BLACK
6
CONTINUOUS
10
132.588
20
-52.2812
11
132.591
21
-52.2749
0
LINE
8
BLACK
6
CONTINUOUS
10
132.591
20
-52.2749
11
132.595
21
-52.2708
0
LINE
8
BLACK
6
CONTINUOUS
10
132.595
20
-52.2708
11
132.598
21
-52.2664
0
LINE
8
BLACK
6
CONTINUOUS
10
132.598
20
-52.2664
11
132.603
21
-52.2613
0
LINE
8
BLACK
6
CONTINUOUS
10
132.603
20
-52.2613
11
132.607
21
-52.2558
0
LINE
8
BLACK
6
CONTINUOUS
10
132.607
20
-52.2558
11
132.728
21
-52.1348
0
LINE
8
BLACK
6
CONTINUOUS
10
132.728
20
-52.1348
11
132.729
21
-52.1336
0
LINE
8
BLACK
6
CONTINUOUS
10
132.729
20
-52.1336
11
132.736
21
-52.1282
0
LINE
8
BLACK
6
CONTINUOUS
10
132.736
20
-52.1282
11
132.743
21
-52.1224
0
LINE
8
BLACK
6
CONTINUOUS
10
132.743
20
-52.1224
11
132.746
21
-52.1205
0
LINE
8
BLACK
6
CONTINUOUS
10
132.746
20
-52.1205
11
132.749
21
-52.1181
0
LINE
8
BLACK
6
CONTINUOUS
10
132.749
20
-52.1181
11
132.756
21
-52.1141
0
LINE
8
BLACK
6
CONTINUOUS
10
132.756
20
-52.1141
11
132.764
21
-52.1097
0
LINE
8
BLACK
6
CONTINUOUS
10
132.764
20
-52.1097
11
132.767
21
-52.1085
0
LINE
8
BLACK
6
CONTINUOUS
10
132.767
20
-52.1085
11
132.771
21
-52.1067
0
LINE
8
BLACK
6
CONTINUOUS
10
132.771
20
-52.1067
11
132.779
21
-52.1043
0
LINE
8
BLACK
6
CONTINUOUS
10
132.779
20
-52.1043
11
132.787
21
-52.1014
0
LINE
8
BLACK
6
CONTINUOUS
10
132.787
20
-52.1014
11
133.029
21
-52.0409
0
LINE
8
BLACK
6
CONTINUOUS
10
133.029
20
-52.0409
11
133.031
21
-52.0405
0
LINE
8
BLACK
6
CONTINUOUS
10
133.031
20
-52.0405
11
133.033
21
-52.0402
0
LINE
8
BLACK
6
CONTINUOUS
10
133.033
20
-52.0402
11
133.035
21
-52.0396
0
LINE
8
BLACK
6
CONTINUOUS
10
133.035
20
-52.0396
11
133.045
21
-52.0386
0
LINE
8
BLACK
6
CONTINUOUS
10
133.045
20
-52.0386
11
133.055
21
-52.0372
0
LINE
8
BLACK
6
CONTINUOUS
10
133.055
20
-52.0372
11
133.058
21
-52.0374
0
LINE
8
BLACK
6
CONTINUOUS
10
133.058
20
-52.0374
11
133.06
21
-52.0371
0
LINE
8
BLACK
6
CONTINUOUS
10
133.06
20
-52.0371
11
133.483
21
-52.0371
0
LINE
8
BLACK
6
CONTINUOUS
10
133.483
20
-52.0371
11
133.485
21
-52.0372
0
LINE
8
BLACK
6
CONTINUOUS
10
133.075
20
-52.2911
11
132.883
21
-52.3393
0
LINE
8
BLACK
6
CONTINUOUS
10
132.883
20
-52.3393
11
132.801
21
-52.4208
0
LINE
8
BLACK
6
CONTINUOUS
10
132.801
20
-52.4208
11
132.764
21
-52.4965
0
LINE
8
BLACK
6
CONTINUOUS
10
132.764
20
-52.4965
11
132.764
21
-52.6784
0
LINE
8
BLACK
6
CONTINUOUS
10
132.764
20
-52.6784
11
132.801
21
-52.7542
0
LINE
8
BLACK
6
CONTINUOUS
10
132.801
20
-52.7542
11
132.883
21
-52.8357
0
LINE
8
BLACK
6
CONTINUOUS
10
132.883
20
-52.8357
11
133.075
21
-52.8838
0
LINE
8
BLACK
6
CONTINUOUS
10
133.075
20
-52.8838
11
133.468
21
-52.8838
0
LINE
8
BLACK
6
CONTINUOUS
10
133.468
20
-52.8838
11
133.66
21
-52.8357
0
LINE
8
BLACK
6
CONTINUOUS
10
133.66
20
-52.8357
11
133.666
21
-52.8294
0
LINE
8
BLACK
6
CONTINUOUS
10
133.666
20
-52.8294
11
133.575
21
-52.7378
0
LINE
8
BLACK
6
CONTINUOUS
10
133.575
20
-52.7378
11
133.574
21
-52.7365
0
LINE
8
BLACK
6
CONTINUOUS
10
133.574
20
-52.7365
11
133.569
21
-52.7309
0
LINE
8
BLACK
6
CONTINUOUS
10
133.569
20
-52.7309
11
133.564
21
-52.7257
0
LINE
8
BLACK
6
CONTINUOUS
10
133.564
20
-52.7257
11
133.561
21
-52.7213
0
LINE
8
BLACK
6
CONTINUOUS
10
133.561
20
-52.7213
11
133.558
21
-52.7171
0
LINE
8
BLACK
6
CONTINUOUS
10
133.558
20
-52.7171
11
133.555
21
-52.7108
0
LINE
8
BLACK
6
CONTINUOUS
10
133.555
20
-52.7108
11
133.551
21
-52.7047
0
LINE
8
BLACK
6
CONTINUOUS
10
133.551
20
-52.7047
11
133.491
21
-52.5838
0
LINE
8
BLACK
6
CONTINUOUS
10
133.491
20
-52.5838
11
133.49
21
-52.5822
0
LINE
8
BLACK
6
CONTINUOUS
10
133.49
20
-52.5822
11
133.488
21
-52.5787
0
LINE
8
BLACK
6
CONTINUOUS
10
133.488
20
-52.5787
11
133.487
21
-52.5754
0
LINE
8
BLACK
6
CONTINUOUS
10
133.487
20
-52.5754
11
133.484
21
-52.5671
0
LINE
8
BLACK
6
CONTINUOUS
10
133.484
20
-52.5671
11
133.481
21
-52.5589
0
LINE
8
BLACK
6
CONTINUOUS
10
133.481
20
-52.5589
11
133.481
21
-52.5552
0
LINE
8
BLACK
6
CONTINUOUS
10
133.481
20
-52.5552
11
133.48
21
-52.5517
0
LINE
8
BLACK
6
CONTINUOUS
10
133.48
20
-52.5517
11
133.479
21
-52.543
0
LINE
8
BLACK
6
CONTINUOUS
10
133.479
20
-52.543
11
133.477
21
-52.5345
0
LINE
8
BLACK
6
CONTINUOUS
10
133.477
20
-52.5345
11
133.478
21
-52.5307
0
LINE
8
BLACK
6
CONTINUOUS
10
133.478
20
-52.5307
11
133.477
21
-52.527
0
LINE
8
BLACK
6
CONTINUOUS
10
133.477
20
-52.527
11
133.477
21
-52.406
0
LINE
8
BLACK
6
CONTINUOUS
10
133.477
20
-52.406
11
133.477
21
-52.4043
0
LINE
8
BLACK
6
CONTINUOUS
10
133.477
20
-52.4043
11
133.48
21
-52.3796
0
LINE
8
BLACK
6
CONTINUOUS
10
133.48
20
-52.3796
11
133.487
21
-52.356
0
LINE
8
BLACK
6
CONTINUOUS
10
133.487
20
-52.356
11
133.499
21
-52.3343
0
LINE
8
BLACK
6
CONTINUOUS
10
133.499
20
-52.3343
11
133.515
21
-52.3153
0
LINE
8
BLACK
6
CONTINUOUS
10
133.515
20
-52.3153
11
133.527
21
-52.306
0
LINE
8
BLACK
6
CONTINUOUS
10
133.527
20
-52.306
11
133.468
21
-52.2911
0
LINE
8
BLACK
6
CONTINUOUS
10
133.468
20
-52.2911
11
133.075
21
-52.2911
0
LINE
8
BLACK
6
CONTINUOUS
10
133.731
20
-52.497
11
133.769
21
-52.5727
0
LINE
8
BLACK
6
CONTINUOUS
10
133.769
20
-52.5727
11
133.78
21
-52.5832
0
LINE
8
BLACK
6
CONTINUOUS
10
133.78
20
-52.5832
11
133.78
21
-52.4965
0
LINE
8
BLACK
6
CONTINUOUS
10
133.78
20
-52.4965
11
133.742
21
-52.4208
0
LINE
8
BLACK
6
CONTINUOUS
10
133.742
20
-52.4208
11
133.731
21
-52.4103
0
LINE
8
BLACK
6
CONTINUOUS
10
133.731
20
-52.4103
11
133.731
21
-52.497
0
LINE
8
BLACK
6
CONTINUOUS
10
135.631
20
-52.0918
11
135.66
21
-52.104
0
LINE
8
BLACK
6
CONTINUOUS
10
135.66
20
-52.104
11
135.687
21
-52.1216
0
LINE
8
BLACK
6
CONTINUOUS
10
135.687
20
-52.1216
11
135.709
21
-52.1441
0
LINE
8
BLACK
6
CONTINUOUS
10
135.709
20
-52.1441
11
135.727
21
-52.1705
0
LINE
8
BLACK
6
CONTINUOUS
10
135.727
20
-52.1705
11
135.739
21
-52.1999
0
LINE
8
BLACK
6
CONTINUOUS
10
135.739
20
-52.1999
11
135.745
21
-52.2311
0
LINE
8
BLACK
6
CONTINUOUS
10
135.745
20
-52.2311
11
135.745
21
-52.2629
0
LINE
8
BLACK
6
CONTINUOUS
10
135.745
20
-52.2629
11
135.739
21
-52.2941
0
LINE
8
BLACK
6
CONTINUOUS
10
135.739
20
-52.2941
11
135.727
21
-52.3235
0
LINE
8
BLACK
6
CONTINUOUS
10
135.727
20
-52.3235
11
135.709
21
-52.3499
0
LINE
8
BLACK
6
CONTINUOUS
10
135.709
20
-52.3499
11
135.687
21
-52.3724
0
LINE
8
BLACK
6
CONTINUOUS
10
135.687
20
-52.3724
11
135.66
21
-52.39
0
LINE
8
BLACK
6
CONTINUOUS
10
135.66
20
-52.39
11
135.631
21
-52.4022
0
LINE
8
BLACK
6
CONTINUOUS
10
135.631
20
-52.4022
11
135.6
21
-52.4084
0
LINE
8
BLACK
6
CONTINUOUS
10
135.6
20
-52.4084
11
135.568
21
-52.4084
0
LINE
8
BLACK
6
CONTINUOUS
10
135.568
20
-52.4084
11
135.537
21
-52.4022
0
LINE
8
BLACK
6
CONTINUOUS
10
135.537
20
-52.4022
11
135.508
21
-52.39
0
LINE
8
BLACK
6
CONTINUOUS
10
135.508
20
-52.39
11
135.481
21
-52.3724
0
LINE
8
BLACK
6
CONTINUOUS
10
135.481
20
-52.3724
11
135.459
21
-52.3499
0
LINE
8
BLACK
6
CONTINUOUS
10
135.459
20
-52.3499
11
135.441
21
-52.3235
0
LINE
8
BLACK
6
CONTINUOUS
10
135.441
20
-52.3235
11
135.429
21
-52.2941
0
LINE
8
BLACK
6
CONTINUOUS
10
135.429
20
-52.2941
11
135.423
21
-52.2629
0
LINE
8
BLACK
6
CONTINUOUS
10
135.423
20
-52.2629
11
135.423
21
-52.2311
0
LINE
8
BLACK
6
CONTINUOUS
10
135.423
20
-52.2311
11
135.429
21
-52.1999
0
LINE
8
BLACK
6
CONTINUOUS
10
135.429
20
-52.1999
11
135.441
21
-52.1705
0
LINE
8
BLACK
6
CONTINUOUS
10
135.441
20
-52.1705
11
135.459
21
-52.1441
0
LINE
8
BLACK
6
CONTINUOUS
10
135.459
20
-52.1441
11
135.481
21
-52.1216
0
LINE
8
BLACK
6
CONTINUOUS
10
135.481
20
-52.1216
11
135.508
21
-52.104
0
LINE
8
BLACK
6
CONTINUOUS
10
135.508
20
-52.104
11
135.537
21
-52.0918
0
LINE
8
BLACK
6
CONTINUOUS
10
135.537
20
-52.0918
11
135.568
21
-52.0856
0
LINE
8
BLACK
6
CONTINUOUS
10
135.568
20
-52.0856
11
135.6
21
-52.0856
0
LINE
8
BLACK
6
CONTINUOUS
10
135.6
20
-52.0856
11
135.631
21
-52.0918
0
LINE
8
BLACK
6
CONTINUOUS
10
134.22
20
-51.5014
11
134.238
21
-51.5072
0
LINE
8
BLACK
6
CONTINUOUS
10
134.238
20
-51.5072
11
134.256
21
-51.5165
0
LINE
8
BLACK
6
CONTINUOUS
10
134.256
20
-51.5165
11
134.271
21
-51.5289
0
LINE
8
BLACK
6
CONTINUOUS
10
134.271
20
-51.5289
11
134.284
21
-51.5442
0
LINE
8
BLACK
6
CONTINUOUS
10
134.284
20
-51.5442
11
134.293
21
-51.5615
0
LINE
8
BLACK
6
CONTINUOUS
10
134.293
20
-51.5615
11
134.299
21
-51.5804
0
LINE
8
BLACK
6
CONTINUOUS
10
134.299
20
-51.5804
11
134.3
21
-51.6
0
LINE
8
BLACK
6
CONTINUOUS
10
134.3
20
-51.6
11
134.299
21
-51.6196
0
LINE
8
BLACK
6
CONTINUOUS
10
134.299
20
-51.6196
11
134.293
21
-51.6385
0
LINE
8
BLACK
6
CONTINUOUS
10
134.293
20
-51.6385
11
134.287
21
-51.65
0
LINE
8
BLACK
6
CONTINUOUS
10
134.287
20
-51.65
11
134.293
21
-51.6615
0
LINE
8
BLACK
6
CONTINUOUS
10
134.293
20
-51.6615
11
134.299
21
-51.6804
0
LINE
8
BLACK
6
CONTINUOUS
10
134.299
20
-51.6804
11
134.3
21
-51.7
0
LINE
8
BLACK
6
CONTINUOUS
10
134.3
20
-51.7
11
134.299
21
-51.7196
0
LINE
8
BLACK
6
CONTINUOUS
10
134.299
20
-51.7196
11
134.293
21
-51.7385
0
LINE
8
BLACK
6
CONTINUOUS
10
134.293
20
-51.7385
11
134.284
21
-51.7558
0
LINE
8
BLACK
6
CONTINUOUS
10
134.284
20
-51.7558
11
134.271
21
-51.7711
0
LINE
8
BLACK
6
CONTINUOUS
10
134.271
20
-51.7711
11
134.256
21
-51.7835
0
LINE
8
BLACK
6
CONTINUOUS
10
134.256
20
-51.7835
11
134.238
21
-51.7928
0
LINE
8
BLACK
6
CONTINUOUS
10
134.238
20
-51.7928
11
134.22
21
-51.7986
0
LINE
8
BLACK
6
CONTINUOUS
10
134.22
20
-51.7986
11
134.205
21
-51.8
0
LINE
8
BLACK
6
CONTINUOUS
10
134.205
20
-51.8
11
129.195
21
-51.8
0
LINE
8
BLACK
6
CONTINUOUS
10
129.195
20
-51.8
11
129.18
21
-51.7986
0
LINE
8
BLACK
6
CONTINUOUS
10
129.18
20
-51.7986
11
129.162
21
-51.7928
0
LINE
8
BLACK
6
CONTINUOUS
10
129.162
20
-51.7928
11
129.144
21
-51.7835
0
LINE
8
BLACK
6
CONTINUOUS
10
129.144
20
-51.7835
11
129.129
21
-51.7711
0
LINE
8
BLACK
6
CONTINUOUS
10
129.129
20
-51.7711
11
129.116
21
-51.7558
0
LINE
8
BLACK
6
CONTINUOUS
10
129.116
20
-51.7558
11
129.107
21
-51.7385
0
LINE
8
BLACK
6
CONTINUOUS
10
129.107
20
-51.7385
11
129.101
21
-51.7196
0
LINE
8
BLACK
6
CONTINUOUS
10
129.101
20
-51.7196
11
129.1
21
-51.7
0
LINE
8
BLACK
6
CONTINUOUS
10
129.1
20
-51.7
11
129.101
21
-51.6804
0
LINE
8
BLACK
6
CONTINUOUS
10
129.101
20
-51.6804
11
129.107
21
-51.6615
0
LINE
8
BLACK
6
CONTINUOUS
10
129.107
20
-51.6615
11
129.113
21
-51.65
0
LINE
8
BLACK
6
CONTINUOUS
10
129.113
20
-51.65
11
129.107
21
-51.6385
0
LINE
8
BLACK
6
CONTINUOUS
10
129.107
20
-51.6385
11
129.101
21
-51.6196
0
LINE
8
BLACK
6
CONTINUOUS
10
129.101
20
-51.6196
11
129.1
21
-51.6
0
LINE
8
BLACK
6
CONTINUOUS
10
129.1
20
-51.6
11
129.101
21
-51.5804
0
LINE
8
BLACK
6
CONTINUOUS
10
129.101
20
-51.5804
11
129.107
21
-51.5615
0
LINE
8
BLACK
6
CONTINUOUS
10
129.107
20
-51.5615
11
129.116
21
-51.5442
0
LINE
8
BLACK
6
CONTINUOUS
10
129.116
20
-51.5442
11
129.129
21
-51.5289
0
LINE
8
BLACK
6
CONTINUOUS
10
129.129
20
-51.5289
11
129.144
21
-51.5165
0
LINE
8
BLACK
6
CONTINUOUS
10
129.144
20
-51.5165
11
129.162
21
-51.5072
0
LINE
8
BLACK
6
CONTINUOUS
10
129.162
20
-51.5072
11
129.18
21
-51.5014
0
LINE
8
BLACK
6
CONTINUOUS
10
129.18
20
-51.5014
11
129.195
21
-51.5
0
LINE
8
BLACK
6
CONTINUOUS
10
129.195
20
-51.5
11
134.205
21
-51.5
0
LINE
8
BLACK
6
CONTINUOUS
10
134.205
20
-51.5
11
134.22
21
-51.5014
0
LINE
8
BLACK
6
CONTINUOUS
10
132.662
20
-48.8145
11
132.686
21
-48.8218
0
LINE
8
BLACK
6
CONTINUOUS
10
132.686
20
-48.8218
11
132.708
21
-48.8336
0
LINE
8
BLACK
6
CONTINUOUS
10
132.708
20
-48.8336
11
132.727
21
-48.8494
0
LINE
8
BLACK
6
CONTINUOUS
10
132.727
20
-48.8494
11
132.742
21
-48.8686
0
LINE
8
BLACK
6
CONTINUOUS
10
132.742
20
-48.8686
11
132.754
21
-48.8905
0
LINE
8
BLACK
6
CONTINUOUS
10
132.754
20
-48.8905
11
132.761
21
-48.9142
0
LINE
8
BLACK
6
CONTINUOUS
10
132.761
20
-48.9142
11
132.764
21
-48.9389
0
LINE
8
BLACK
6
CONTINUOUS
10
132.764
20
-48.9389
11
132.764
21
-49.593
0
LINE
8
BLACK
6
CONTINUOUS
10
132.764
20
-49.593
11
133.856
21
-49.1246
0
LINE
8
BLACK
6
CONTINUOUS
10
133.856
20
-49.1246
11
133.858
21
-49.1239
0
LINE
8
BLACK
6
CONTINUOUS
10
133.858
20
-49.1239
11
133.882
21
-49.1167
0
LINE
8
BLACK
6
CONTINUOUS
10
133.882
20
-49.1167
11
133.907
21
-49.1143
0
LINE
8
BLACK
6
CONTINUOUS
10
133.907
20
-49.1143
11
133.931
21
-49.1167
0
LINE
8
BLACK
6
CONTINUOUS
10
133.931
20
-49.1167
11
133.955
21
-49.1239
0
LINE
8
BLACK
6
CONTINUOUS
10
133.955
20
-49.1239
11
133.977
21
-49.1355
0
LINE
8
BLACK
6
CONTINUOUS
10
133.977
20
-49.1355
11
133.996
21
-49.1512
0
LINE
8
BLACK
6
CONTINUOUS
10
133.996
20
-49.1512
11
134.012
21
-49.1703
0
LINE
8
BLACK
6
CONTINUOUS
10
134.012
20
-49.1703
11
134.024
21
-49.1921
0
LINE
8
BLACK
6
CONTINUOUS
10
134.024
20
-49.1921
11
134.031
21
-49.2158
0
LINE
8
BLACK
6
CONTINUOUS
10
134.031
20
-49.2158
11
134.034
21
-49.2404
0
LINE
8
BLACK
6
CONTINUOUS
10
134.034
20
-49.2404
11
134.031
21
-49.2651
0
LINE
8
BLACK
6
CONTINUOUS
10
134.031
20
-49.2651
11
134.024
21
-49.2889
0
LINE
8
BLACK
6
CONTINUOUS
10
134.024
20
-49.2889
11
134.013
21
-49.3108
0
LINE
8
BLACK
6
CONTINUOUS
10
134.013
20
-49.3108
11
133.997
21
-49.3301
0
LINE
8
BLACK
6
CONTINUOUS
10
133.997
20
-49.3301
11
133.978
21
-49.3461
0
LINE
8
BLACK
6
CONTINUOUS
10
133.978
20
-49.3461
11
133.957
21
-49.358
0
LINE
8
BLACK
6
CONTINUOUS
10
133.957
20
-49.358
11
132.687
21
-49.9023
0
LINE
8
BLACK
6
CONTINUOUS
10
132.687
20
-49.9023
11
132.685
21
-49.903
0
LINE
8
BLACK
6
CONTINUOUS
10
132.685
20
-49.903
11
132.684
21
-49.9031
0
LINE
8
BLACK
6
CONTINUOUS
10
132.684
20
-49.9031
11
132.684
21
-49.9033
0
LINE
8
BLACK
6
CONTINUOUS
10
132.684
20
-49.9033
11
132.673
21
-49.9067
0
LINE
8
BLACK
6
CONTINUOUS
10
132.673
20
-49.9067
11
132.661
21
-49.9102
0
LINE
8
BLACK
6
CONTINUOUS
10
132.661
20
-49.9102
11
132.661
21
-49.9102
0
LINE
8
BLACK
6
CONTINUOUS
10
132.661
20
-49.9102
11
132.66
21
-49.9103
0
LINE
8
BLACK
6
CONTINUOUS
10
132.66
20
-49.9103
11
132.648
21
-49.9114
0
LINE
8
BLACK
6
CONTINUOUS
10
132.648
20
-49.9114
11
132.637
21
-49.9126
0
LINE
8
BLACK
6
CONTINUOUS
10
132.637
20
-49.9126
11
132.636
21
-49.9125
0
LINE
8
BLACK
6
CONTINUOUS
10
132.636
20
-49.9125
11
132.636
21
-49.9126
0
LINE
8
BLACK
6
CONTINUOUS
10
132.636
20
-49.9126
11
132.624
21
-49.9113
0
LINE
8
BLACK
6
CONTINUOUS
10
132.624
20
-49.9113
11
132.612
21
-49.9102
0
LINE
8
BLACK
6
CONTINUOUS
10
132.612
20
-49.9102
11
132.611
21
-49.91
0
LINE
8
BLACK
6
CONTINUOUS
10
132.611
20
-49.91
11
132.611
21
-49.91
0
LINE
8
BLACK
6
CONTINUOUS
10
132.611
20
-49.91
11
132.6
21
-49.9064
0
LINE
8
BLACK
6
CONTINUOUS
10
132.6
20
-49.9064
11
132.588
21
-49.903
0
LINE
8
BLACK
6
CONTINUOUS
10
132.588
20
-49.903
11
132.588
21
-49.9028
0
LINE
8
BLACK
6
CONTINUOUS
10
132.588
20
-49.9028
11
132.587
21
-49.9026
0
LINE
8
BLACK
6
CONTINUOUS
10
132.587
20
-49.9026
11
132.577
21
-49.897
0
LINE
8
BLACK
6
CONTINUOUS
10
132.577
20
-49.897
11
132.566
21
-49.8914
0
LINE
8
BLACK
6
CONTINUOUS
10
132.566
20
-49.8914
11
132.566
21
-49.8911
0
LINE
8
BLACK
6
CONTINUOUS
10
132.566
20
-49.8911
11
132.566
21
-49.8909
0
LINE
8
BLACK
6
CONTINUOUS
10
132.566
20
-49.8909
11
132.556
21
-49.8832
0
LINE
8
BLACK
6
CONTINUOUS
10
132.556
20
-49.8832
11
132.547
21
-49.8757
0
LINE
8
BLACK
6
CONTINUOUS
10
132.547
20
-49.8757
11
132.547
21
-49.8753
0
LINE
8
BLACK
6
CONTINUOUS
10
132.547
20
-49.8753
11
132.546
21
-49.8751
0
LINE
8
BLACK
6
CONTINUOUS
10
132.546
20
-49.8751
11
132.539
21
-49.8657
0
LINE
8
BLACK
6
CONTINUOUS
10
132.539
20
-49.8657
11
132.531
21
-49.8566
0
LINE
8
BLACK
6
CONTINUOUS
10
132.531
20
-49.8566
11
132.531
21
-49.8562
0
LINE
8
BLACK
6
CONTINUOUS
10
132.531
20
-49.8562
11
132.531
21
-49.8559
0
LINE
8
BLACK
6
CONTINUOUS
10
132.531
20
-49.8559
11
132.525
21
-49.8452
0
LINE
8
BLACK
6
CONTINUOUS
10
132.525
20
-49.8452
11
132.519
21
-49.8348
0
LINE
8
BLACK
6
CONTINUOUS
10
132.519
20
-49.8348
11
132.519
21
-49.8344
0
LINE
8
BLACK
6
CONTINUOUS
10
132.519
20
-49.8344
11
132.519
21
-49.834
0
LINE
8
BLACK
6
CONTINUOUS
10
132.519
20
-49.834
11
132.516
21
-49.8226
0
LINE
8
BLACK
6
CONTINUOUS
10
132.516
20
-49.8226
11
132.512
21
-49.8111
0
LINE
8
BLACK
6
CONTINUOUS
10
132.512
20
-49.8111
11
132.512
21
-49.8107
0
LINE
8
BLACK
6
CONTINUOUS
10
132.512
20
-49.8107
11
132.512
21
-49.8102
0
LINE
8
BLACK
6
CONTINUOUS
10
132.512
20
-49.8102
11
132.511
21
-49.7984
0
LINE
8
BLACK
6
CONTINUOUS
10
132.511
20
-49.7984
11
132.51
21
-49.7865
0
LINE
8
BLACK
6
CONTINUOUS
10
132.51
20
-49.7865
11
132.51
21
-49.786
0
LINE
8
BLACK
6
CONTINUOUS
10
132.51
20
-49.786
11
132.51
21
-49.7856
0
LINE
8
BLACK
6
CONTINUOUS
10
132.51
20
-49.7856
11
132.51
21
-48.9389
0
LINE
8
BLACK
6
CONTINUOUS
10
132.51
20
-48.9389
11
132.51
21
-48.9371
0
LINE
8
BLACK
6
CONTINUOUS
10
132.51
20
-48.9371
11
132.512
21
-48.9125
0
LINE
8
BLACK
6
CONTINUOUS
10
132.512
20
-48.9125
11
132.52
21
-48.8889
0
LINE
8
BLACK
6
CONTINUOUS
10
132.52
20
-48.8889
11
132.532
21
-48.8672
0
LINE
8
BLACK
6
CONTINUOUS
10
132.532
20
-48.8672
11
132.548
21
-48.8482
0
LINE
8
BLACK
6
CONTINUOUS
10
132.548
20
-48.8482
11
132.567
21
-48.8326
0
LINE
8
BLACK
6
CONTINUOUS
10
132.567
20
-48.8326
11
132.589
21
-48.8212
0
LINE
8
BLACK
6
CONTINUOUS
10
132.589
20
-48.8212
11
132.613
21
-48.8142
0
LINE
8
BLACK
6
CONTINUOUS
10
132.613
20
-48.8142
11
132.637
21
-48.8119
0
LINE
8
BLACK
6
CONTINUOUS
10
132.637
20
-48.8119
11
132.662
21
-48.8145
0
LINE
8
BLACK
6
CONTINUOUS
10
133.485
20
-47.5419
11
133.487
21
-47.5422
0
LINE
8
BLACK
6
CONTINUOUS
10
133.487
20
-47.5422
11
133.489
21
-47.5421
0
LINE
8
BLACK
6
CONTINUOUS
10
133.489
20
-47.5421
11
133.499
21
-47.5435
0
LINE
8
BLACK
6
CONTINUOUS
10
133.499
20
-47.5435
11
133.51
21
-47.5447
0
LINE
8
BLACK
6
CONTINUOUS
10
133.51
20
-47.5447
11
133.512
21
-47.5454
0
LINE
8
BLACK
6
CONTINUOUS
10
133.512
20
-47.5454
11
133.514
21
-47.5457
0
LINE
8
BLACK
6
CONTINUOUS
10
133.514
20
-47.5457
11
133.756
21
-47.6062
0
LINE
8
BLACK
6
CONTINUOUS
10
133.756
20
-47.6062
11
133.758
21
-47.6066
0
LINE
8
BLACK
6
CONTINUOUS
10
133.758
20
-47.6066
11
133.766
21
-47.6096
0
LINE
8
BLACK
6
CONTINUOUS
10
133.766
20
-47.6096
11
133.774
21
-47.6121
0
LINE
8
BLACK
6
CONTINUOUS
10
133.774
20
-47.6121
11
133.777
21
-47.6139
0
LINE
8
BLACK
6
CONTINUOUS
10
133.777
20
-47.6139
11
133.781
21
-47.6153
0
LINE
8
BLACK
6
CONTINUOUS
10
133.781
20
-47.6153
11
133.788
21
-47.6198
0
LINE
8
BLACK
6
CONTINUOUS
10
133.788
20
-47.6198
11
133.796
21
-47.6238
0
LINE
8
BLACK
6
CONTINUOUS
10
133.796
20
-47.6238
11
133.799
21
-47.6263
0
LINE
8
BLACK
6
CONTINUOUS
10
133.799
20
-47.6263
11
133.802
21
-47.6283
0
LINE
8
BLACK
6
CONTINUOUS
10
133.802
20
-47.6283
11
133.808
21
-47.6341
0
LINE
8
BLACK
6
CONTINUOUS
10
133.808
20
-47.6341
11
133.815
21
-47.6396
0
LINE
8
BLACK
6
CONTINUOUS
10
133.815
20
-47.6396
11
133.936
21
-47.7605
0
LINE
8
BLACK
6
CONTINUOUS
10
133.936
20
-47.7605
11
133.937
21
-47.7618
0
LINE
8
BLACK
6
CONTINUOUS
10
133.937
20
-47.7618
11
133.942
21
-47.7674
0
LINE
8
BLACK
6
CONTINUOUS
10
133.942
20
-47.7674
11
133.946
21
-47.7726
0
LINE
8
BLACK
6
CONTINUOUS
10
133.946
20
-47.7726
11
133.949
21
-47.777
0
LINE
8
BLACK
6
CONTINUOUS
10
133.949
20
-47.777
11
133.953
21
-47.7812
0
LINE
8
BLACK
6
CONTINUOUS
10
133.953
20
-47.7812
11
133.956
21
-47.7875
0
LINE
8
BLACK
6
CONTINUOUS
10
133.956
20
-47.7875
11
133.96
21
-47.7935
0
LINE
8
BLACK
6
CONTINUOUS
10
133.96
20
-47.7935
11
134.02
21
-47.9145
0
LINE
8
BLACK
6
CONTINUOUS
10
134.02
20
-47.9145
11
134.021
21
-47.9161
0
LINE
8
BLACK
6
CONTINUOUS
10
134.021
20
-47.9161
11
134.022
21
-47.9196
0
LINE
8
BLACK
6
CONTINUOUS
10
134.022
20
-47.9196
11
134.024
21
-47.9229
0
LINE
8
BLACK
6
CONTINUOUS
10
134.024
20
-47.9229
11
134.026
21
-47.9312
0
LINE
8
BLACK
6
CONTINUOUS
10
134.026
20
-47.9312
11
134.029
21
-47.9393
0
LINE
8
BLACK
6
CONTINUOUS
10
134.029
20
-47.9393
11
134.03
21
-47.943
0
LINE
8
BLACK
6
CONTINUOUS
10
134.03
20
-47.943
11
134.031
21
-47.9466
0
LINE
8
BLACK
6
CONTINUOUS
10
134.031
20
-47.9466
11
134.032
21
-47.9552
0
LINE
8
BLACK
6
CONTINUOUS
10
134.032
20
-47.9552
11
134.033
21
-47.9638
0
LINE
8
BLACK
6
CONTINUOUS
10
134.033
20
-47.9638
11
134.033
21
-47.9676
0
LINE
8
BLACK
6
CONTINUOUS
10
134.033
20
-47.9676
11
134.034
21
-47.9713
0
LINE
8
BLACK
6
CONTINUOUS
10
134.034
20
-47.9713
11
134.034
21
-48.2132
0
LINE
8
BLACK
6
CONTINUOUS
10
134.034
20
-48.2132
11
134.034
21
-48.215
0
LINE
8
BLACK
6
CONTINUOUS
10
134.034
20
-48.215
11
134.033
21
-48.2187
0
LINE
8
BLACK
6
CONTINUOUS
10
134.033
20
-48.2187
11
134.033
21
-48.2224
0
LINE
8
BLACK
6
CONTINUOUS
10
134.033
20
-48.2224
11
134.032
21
-48.231
0
LINE
8
BLACK
6
CONTINUOUS
10
134.032
20
-48.231
11
134.031
21
-48.2396
0
LINE
8
BLACK
6
CONTINUOUS
10
134.031
20
-48.2396
11
134.03
21
-48.2432
0
LINE
8
BLACK
6
CONTINUOUS
10
134.03
20
-48.2432
11
134.029
21
-48.2468
0
LINE
8
BLACK
6
CONTINUOUS
10
134.029
20
-48.2468
11
134.026
21
-48.2549
0
LINE
8
BLACK
6
CONTINUOUS
10
134.026
20
-48.2549
11
134.023
21
-48.2632
0
LINE
8
BLACK
6
CONTINUOUS
10
134.023
20
-48.2632
11
134.021
21
-48.2665
0
LINE
8
BLACK
6
CONTINUOUS
10
134.021
20
-48.2665
11
134.02
21
-48.27
0
LINE
8
BLACK
6
CONTINUOUS
10
134.02
20
-48.27
11
134.001
21
-48.3091
0
LINE
8
BLACK
6
CONTINUOUS
10
134.001
20
-48.3091
11
134.057
21
-48.3653
0
LINE
8
BLACK
6
CONTINUOUS
10
134.057
20
-48.3653
11
134.058
21
-48.3666
0
LINE
8
BLACK
6
CONTINUOUS
10
134.058
20
-48.3666
11
134.063
21
-48.3721
0
LINE
8
BLACK
6
CONTINUOUS
10
134.063
20
-48.3721
11
134.067
21
-48.3773
0
LINE
8
BLACK
6
CONTINUOUS
10
134.067
20
-48.3773
11
134.07
21
-48.3818
0
LINE
8
BLACK
6
CONTINUOUS
10
134.07
20
-48.3818
11
134.074
21
-48.3859
0
LINE
8
BLACK
6
CONTINUOUS
10
134.074
20
-48.3859
11
134.077
21
-48.3923
0
LINE
8
BLACK
6
CONTINUOUS
10
134.077
20
-48.3923
11
134.081
21
-48.3983
0
LINE
8
BLACK
6
CONTINUOUS
10
134.081
20
-48.3983
11
134.141
21
-48.5192
0
LINE
8
BLACK
6
CONTINUOUS
10
134.141
20
-48.5192
11
134.142
21
-48.5208
0
LINE
8
BLACK
6
CONTINUOUS
10
134.142
20
-48.5208
11
134.15
21
-48.5441
0
LINE
8
BLACK
6
CONTINUOUS
10
134.15
20
-48.5441
11
134.154
21
-48.5686
0
LINE
8
BLACK
6
CONTINUOUS
10
134.154
20
-48.5686
11
134.153
21
-48.5934
0
LINE
8
BLACK
6
CONTINUOUS
10
134.153
20
-48.5934
11
134.148
21
-48.6175
0
LINE
8
BLACK
6
CONTINUOUS
10
134.148
20
-48.6175
11
134.137
21
-48.64
0
LINE
8
BLACK
6
CONTINUOUS
10
134.137
20
-48.64
11
134.123
21
-48.6601
0
LINE
8
BLACK
6
CONTINUOUS
10
134.123
20
-48.6601
11
134.105
21
-48.677
0
LINE
8
BLACK
6
CONTINUOUS
10
134.105
20
-48.677
11
134.083
21
-48.69
0
LINE
8
BLACK
6
CONTINUOUS
10
134.083
20
-48.69
11
134.06
21
-48.6987
0
LINE
8
BLACK
6
CONTINUOUS
10
134.06
20
-48.6987
11
134.036
21
-48.7028
0
LINE
8
BLACK
6
CONTINUOUS
10
134.036
20
-48.7028
11
134.011
21
-48.702
0
LINE
8
BLACK
6
CONTINUOUS
10
134.011
20
-48.702
11
133.987
21
-48.6964
0
LINE
8
BLACK
6
CONTINUOUS
10
133.987
20
-48.6964
11
133.964
21
-48.6862
0
LINE
8
BLACK
6
CONTINUOUS
10
133.964
20
-48.6862
11
133.944
21
-48.6718
0
LINE
8
BLACK
6
CONTINUOUS
10
133.944
20
-48.6718
11
133.927
21
-48.6538
0
LINE
8
BLACK
6
CONTINUOUS
10
133.927
20
-48.6538
11
133.914
21
-48.6328
0
LINE
8
BLACK
6
CONTINUOUS
10
133.914
20
-48.6328
11
133.863
21
-48.5303
0
LINE
8
BLACK
6
CONTINUOUS
10
133.863
20
-48.5303
11
133.846
21
-48.5137
0
LINE
8
BLACK
6
CONTINUOUS
10
133.846
20
-48.5137
11
133.815
21
-48.5449
0
LINE
8
BLACK
6
CONTINUOUS
10
133.815
20
-48.5449
11
133.814
21
-48.5461
0
LINE
8
BLACK
6
CONTINUOUS
10
133.814
20
-48.5461
11
133.807
21
-48.5515
0
LINE
8
BLACK
6
CONTINUOUS
10
133.807
20
-48.5515
11
133.801
21
-48.5573
0
LINE
8
BLACK
6
CONTINUOUS
10
133.801
20
-48.5573
11
133.797
21
-48.5592
0
LINE
8
BLACK
6
CONTINUOUS
10
133.797
20
-48.5592
11
133.794
21
-48.5616
0
LINE
8
BLACK
6
CONTINUOUS
10
133.794
20
-48.5616
11
133.787
21
-48.5656
0
LINE
8
BLACK
6
CONTINUOUS
10
133.787
20
-48.5656
11
133.779
21
-48.57
0
LINE
8
BLACK
6
CONTINUOUS
10
133.779
20
-48.57
11
133.776
21
-48.5713
0
LINE
8
BLACK
6
CONTINUOUS
10
133.776
20
-48.5713
11
133.772
21
-48.573
0
LINE
8
BLACK
6
CONTINUOUS
10
133.772
20
-48.573
11
133.764
21
-48.5754
0
LINE
8
BLACK
6
CONTINUOUS
10
133.764
20
-48.5754
11
133.756
21
-48.5783
0
LINE
8
BLACK
6
CONTINUOUS
10
133.756
20
-48.5783
11
133.514
21
-48.6388
0
LINE
8
BLACK
6
CONTINUOUS
10
133.514
20
-48.6388
11
133.512
21
-48.6392
0
LINE
8
BLACK
6
CONTINUOUS
10
133.512
20
-48.6392
11
133.51
21
-48.6395
0
LINE
8
BLACK
6
CONTINUOUS
10
133.51
20
-48.6395
11
133.508
21
-48.6402
0
LINE
8
BLACK
6
CONTINUOUS
10
133.508
20
-48.6402
11
133.498
21
-48.6411
0
LINE
8
BLACK
6
CONTINUOUS
10
133.498
20
-48.6411
11
133.488
21
-48.6425
0
LINE
8
BLACK
6
CONTINUOUS
10
133.488
20
-48.6425
11
133.485
21
-48.6424
0
LINE
8
BLACK
6
CONTINUOUS
10
133.485
20
-48.6424
11
133.483
21
-48.6426
0
LINE
8
BLACK
6
CONTINUOUS
10
133.483
20
-48.6426
11
133.06
21
-48.6426
0
LINE
8
BLACK
6
CONTINUOUS
10
133.06
20
-48.6426
11
133.058
21
-48.6426
0
LINE
8
BLACK
6
CONTINUOUS
10
133.058
20
-48.6426
11
133.056
21
-48.6423
0
LINE
8
BLACK
6
CONTINUOUS
10
133.056
20
-48.6423
11
133.054
21
-48.6424
0
LINE
8
BLACK
6
CONTINUOUS
10
133.054
20
-48.6424
11
133.044
21
-48.6409
0
LINE
8
BLACK
6
CONTINUOUS
10
133.044
20
-48.6409
11
133.033
21
-48.6398
0
LINE
8
BLACK
6
CONTINUOUS
10
133.033
20
-48.6398
11
133.031
21
-48.6391
0
LINE
8
BLACK
6
CONTINUOUS
10
133.031
20
-48.6391
11
133.029
21
-48.6388
0
LINE
8
BLACK
6
CONTINUOUS
10
133.029
20
-48.6388
11
132.787
21
-48.5783
0
LINE
8
BLACK
6
CONTINUOUS
10
132.787
20
-48.5783
11
132.785
21
-48.5779
0
LINE
8
BLACK
6
CONTINUOUS
10
132.785
20
-48.5779
11
132.777
21
-48.5749
0
LINE
8
BLACK
6
CONTINUOUS
10
132.777
20
-48.5749
11
132.769
21
-48.5723
0
LINE
8
BLACK
6
CONTINUOUS
10
132.769
20
-48.5723
11
132.766
21
-48.5705
0
LINE
8
BLACK
6
CONTINUOUS
10
132.766
20
-48.5705
11
132.762
21
-48.5692
0
LINE
8
BLACK
6
CONTINUOUS
10
132.762
20
-48.5692
11
132.755
21
-48.5647
0
LINE
8
BLACK
6
CONTINUOUS
10
132.755
20
-48.5647
11
132.747
21
-48.5606
0
LINE
8
BLACK
6
CONTINUOUS
10
132.747
20
-48.5606
11
132.744
21
-48.5582
0
LINE
8
BLACK
6
CONTINUOUS
10
132.744
20
-48.5582
11
132.741
21
-48.5562
0
LINE
8
BLACK
6
CONTINUOUS
10
132.741
20
-48.5562
11
132.735
21
-48.5504
0
LINE
8
BLACK
6
CONTINUOUS
10
132.735
20
-48.5504
11
132.728
21
-48.5449
0
LINE
8
BLACK
6
CONTINUOUS
10
132.728
20
-48.5449
11
132.607
21
-48.4239
0
LINE
8
BLACK
6
CONTINUOUS
10
132.607
20
-48.4239
11
132.606
21
-48.4227
0
LINE
8
BLACK
6
CONTINUOUS
10
132.606
20
-48.4227
11
132.601
21
-48.4171
0
LINE
8
BLACK
6
CONTINUOUS
10
132.601
20
-48.4171
11
132.597
21
-48.4119
0
LINE
8
BLACK
6
CONTINUOUS
10
132.597
20
-48.4119
11
132.594
21
-48.4074
0
LINE
8
BLACK
6
CONTINUOUS
10
132.594
20
-48.4074
11
132.59
21
-48.4033
0
LINE
8
BLACK
6
CONTINUOUS
10
132.59
20
-48.4033
11
132.587
21
-48.397
0
LINE
8
BLACK
6
CONTINUOUS
10
132.587
20
-48.397
11
132.583
21
-48.3909
0
LINE
8
BLACK
6
CONTINUOUS
10
132.583
20
-48.3909
11
132.523
21
-48.27
0
LINE
8
BLACK
6
CONTINUOUS
10
132.523
20
-48.27
11
132.522
21
-48.2684
0
LINE
8
BLACK
6
CONTINUOUS
10
132.522
20
-48.2684
11
132.521
21
-48.2649
0
LINE
8
BLACK
6
CONTINUOUS
10
132.521
20
-48.2649
11
132.519
21
-48.2616
0
LINE
8
BLACK
6
CONTINUOUS
10
132.519
20
-48.2616
11
132.517
21
-48.2533
0
LINE
8
BLACK
6
CONTINUOUS
10
132.517
20
-48.2533
11
132.514
21
-48.2451
0
LINE
8
BLACK
6
CONTINUOUS
10
132.514
20
-48.2451
11
132.513
21
-48.2414
0
LINE
8
BLACK
6
CONTINUOUS
10
132.513
20
-48.2414
11
132.512
21
-48.2379
0
LINE
8
BLACK
6
CONTINUOUS
10
132.512
20
-48.2379
11
132.511
21
-48.2292
0
LINE
8
BLACK
6
CONTINUOUS
10
132.511
20
-48.2292
11
132.51
21
-48.2206
0
LINE
8
BLACK
6
CONTINUOUS
10
132.51
20
-48.2206
11
132.51
21
-48.2169
0
LINE
8
BLACK
6
CONTINUOUS
10
132.51
20
-48.2169
11
132.51
21
-48.2132
0
LINE
8
BLACK
6
CONTINUOUS
10
132.51
20
-48.2132
11
132.51
21
-47.9713
0
LINE
8
BLACK
6
CONTINUOUS
10
132.51
20
-47.9713
11
132.51
21
-47.9695
0
LINE
8
BLACK
6
CONTINUOUS
10
132.51
20
-47.9695
11
132.51
21
-47.9658
0
LINE
8
BLACK
6
CONTINUOUS
10
132.51
20
-47.9658
11
132.51
21
-47.9621
0
LINE
8
BLACK
6
CONTINUOUS
10
132.51
20
-47.9621
11
132.511
21
-47.9535
0
LINE
8
BLACK
6
CONTINUOUS
10
132.511
20
-47.9535
11
132.512
21
-47.9449
0
LINE
8
BLACK
6
CONTINUOUS
10
132.512
20
-47.9449
11
132.513
21
-47.9413
0
LINE
8
BLACK
6
CONTINUOUS
10
132.513
20
-47.9413
11
132.514
21
-47.9376
0
LINE
8
BLACK
6
CONTINUOUS
10
132.514
20
-47.9376
11
132.517
21
-47.9295
0
LINE
8
BLACK
6
CONTINUOUS
10
132.517
20
-47.9295
11
132.52
21
-47.9213
0
LINE
8
BLACK
6
CONTINUOUS
10
132.52
20
-47.9213
11
132.522
21
-47.918
0
LINE
8
BLACK
6
CONTINUOUS
10
132.522
20
-47.918
11
132.523
21
-47.9145
0
LINE
8
BLACK
6
CONTINUOUS
10
132.523
20
-47.9145
11
132.583
21
-47.7935
0
LINE
8
BLACK
6
CONTINUOUS
10
132.583
20
-47.7935
11
132.584
21
-47.792
0
LINE
8
BLACK
6
CONTINUOUS
10
132.584
20
-47.792
11
132.588
21
-47.786
0
LINE
8
BLACK
6
CONTINUOUS
10
132.588
20
-47.786
11
132.591
21
-47.7797
0
LINE
8
BLACK
6
CONTINUOUS
10
132.591
20
-47.7797
11
132.595
21
-47.7756
0
LINE
8
BLACK
6
CONTINUOUS
10
132.595
20
-47.7756
11
132.598
21
-47.7712
0
LINE
8
BLACK
6
CONTINUOUS
10
132.598
20
-47.7712
11
132.603
21
-47.766
0
LINE
8
BLACK
6
CONTINUOUS
10
132.603
20
-47.766
11
132.607
21
-47.7605
0
LINE
8
BLACK
6
CONTINUOUS
10
132.607
20
-47.7605
11
132.728
21
-47.6396
0
LINE
8
BLACK
6
CONTINUOUS
10
132.728
20
-47.6396
11
132.729
21
-47.6383
0
LINE
8
BLACK
6
CONTINUOUS
10
132.729
20
-47.6383
11
132.736
21
-47.633
0
LINE
8
BLACK
6
CONTINUOUS
10
132.736
20
-47.633
11
132.743
21
-47.6272
0
LINE
8
BLACK
6
CONTINUOUS
10
132.743
20
-47.6272
11
132.746
21
-47.6252
0
LINE
8
BLACK
6
CONTINUOUS
10
132.746
20
-47.6252
11
132.749
21
-47.6229
0
LINE
8
BLACK
6
CONTINUOUS
10
132.749
20
-47.6229
11
132.756
21
-47.6189
0
LINE
8
BLACK
6
CONTINUOUS
10
132.756
20
-47.6189
11
132.764
21
-47.6145
0
LINE
8
BLACK
6
CONTINUOUS
10
132.764
20
-47.6145
11
132.767
21
-47.6132
0
LINE
8
BLACK
6
CONTINUOUS
10
132.767
20
-47.6132
11
132.771
21
-47.6115
0
LINE
8
BLACK
6
CONTINUOUS
10
132.771
20
-47.6115
11
132.779
21
-47.6091
0
LINE
8
BLACK
6
CONTINUOUS
10
132.779
20
-47.6091
11
132.787
21
-47.6062
0
LINE
8
BLACK
6
CONTINUOUS
10
132.787
20
-47.6062
11
133.029
21
-47.5457
0
LINE
8
BLACK
6
CONTINUOUS
10
133.029
20
-47.5457
11
133.031
21
-47.5453
0
LINE
8
BLACK
6
CONTINUOUS
10
133.031
20
-47.5453
11
133.033
21
-47.545
0
LINE
8
BLACK
6
CONTINUOUS
10
133.033
20
-47.545
11
133.035
21
-47.5443
0
LINE
8
BLACK
6
CONTINUOUS
10
133.035
20
-47.5443
11
133.045
21
-47.5433
0
LINE
8
BLACK
6
CONTINUOUS
10
133.045
20
-47.5433
11
133.055
21
-47.542
0
LINE
8
BLACK
6
CONTINUOUS
10
133.055
20
-47.542
11
133.058
21
-47.5421
0
LINE
8
BLACK
6
CONTINUOUS
10
133.058
20
-47.5421
11
133.06
21
-47.5419
0
LINE
8
BLACK
6
CONTINUOUS
10
133.06
20
-47.5419
11
133.483
21
-47.5419
0
LINE
8
BLACK
6
CONTINUOUS
10
133.483
20
-47.5419
11
133.485
21
-47.5419
0
LINE
8
BLACK
6
CONTINUOUS
10
133.075
20
-47.7959
11
132.883
21
-47.8441
0
LINE
8
BLACK
6
CONTINUOUS
10
132.883
20
-47.8441
11
132.801
21
-47.9256
0
LINE
8
BLACK
6
CONTINUOUS
10
132.801
20
-47.9256
11
132.764
21
-48.0013
0
LINE
8
BLACK
6
CONTINUOUS
10
132.764
20
-48.0013
11
132.764
21
-48.1832
0
LINE
8
BLACK
6
CONTINUOUS
10
132.764
20
-48.1832
11
132.801
21
-48.2589
0
LINE
8
BLACK
6
CONTINUOUS
10
132.801
20
-48.2589
11
132.883
21
-48.3404
0
LINE
8
BLACK
6
CONTINUOUS
10
132.883
20
-48.3404
11
133.075
21
-48.3886
0
LINE
8
BLACK
6
CONTINUOUS
10
133.075
20
-48.3886
11
133.468
21
-48.3886
0
LINE
8
BLACK
6
CONTINUOUS
10
133.468
20
-48.3886
11
133.66
21
-48.3404
0
LINE
8
BLACK
6
CONTINUOUS
10
133.66
20
-48.3404
11
133.666
21
-48.3341
0
LINE
8
BLACK
6
CONTINUOUS
10
133.666
20
-48.3341
11
133.575
21
-48.2425
0
LINE
8
BLACK
6
CONTINUOUS
10
133.575
20
-48.2425
11
133.574
21
-48.2413
0
LINE
8
BLACK
6
CONTINUOUS
10
133.574
20
-48.2413
11
133.569
21
-48.2357
0
LINE
8
BLACK
6
CONTINUOUS
10
133.569
20
-48.2357
11
133.564
21
-48.2305
0
LINE
8
BLACK
6
CONTINUOUS
10
133.564
20
-48.2305
11
133.561
21
-48.226
0
LINE
8
BLACK
6
CONTINUOUS
10
133.561
20
-48.226
11
133.558
21
-48.2219
0
LINE
8
BLACK
6
CONTINUOUS
10
133.558
20
-48.2219
11
133.555
21
-48.2156
0
LINE
8
BLACK
6
CONTINUOUS
10
133.555
20
-48.2156
11
133.551
21
-48.2095
0
LINE
8
BLACK
6
CONTINUOUS
10
133.551
20
-48.2095
11
133.491
21
-48.0886
0
LINE
8
BLACK
6
CONTINUOUS
10
133.491
20
-48.0886
11
133.49
21
-48.087
0
LINE
8
BLACK
6
CONTINUOUS
10
133.49
20
-48.087
11
133.488
21
-48.0835
0
LINE
8
BLACK
6
CONTINUOUS
10
133.488
20
-48.0835
11
133.487
21
-48.0802
0
LINE
8
BLACK
6
CONTINUOUS
10
133.487
20
-48.0802
11
133.484
21
-48.0719
0
LINE
8
BLACK
6
CONTINUOUS
10
133.484
20
-48.0719
11
133.481
21
-48.0637
0
LINE
8
BLACK
6
CONTINUOUS
10
133.481
20
-48.0637
11
133.481
21
-48.06
0
LINE
8
BLACK
6
CONTINUOUS
10
133.481
20
-48.06
11
133.48
21
-48.0564
0
LINE
8
BLACK
6
CONTINUOUS
10
133.48
20
-48.0564
11
133.479
21
-48.0478
0
LINE
8
BLACK
6
CONTINUOUS
10
133.479
20
-48.0478
11
133.477
21
-48.0392
0
LINE
8
BLACK
6
CONTINUOUS
10
133.477
20
-48.0392
11
133.478
21
-48.0355
0
LINE
8
BLACK
6
CONTINUOUS
10
133.478
20
-48.0355
11
133.477
21
-48.0318
0
LINE
8
BLACK
6
CONTINUOUS
10
133.477
20
-48.0318
11
133.477
21
-47.9108
0
LINE
8
BLACK
6
CONTINUOUS
10
133.477
20
-47.9108
11
133.477
21
-47.909
0
LINE
8
BLACK
6
CONTINUOUS
10
133.477
20
-47.909
11
133.48
21
-47.8844
0
LINE
8
BLACK
6
CONTINUOUS
10
133.48
20
-47.8844
11
133.487
21
-47.8608
0
LINE
8
BLACK
6
CONTINUOUS
10
133.487
20
-47.8608
11
133.499
21
-47.8391
0
LINE
8
BLACK
6
CONTINUOUS
10
133.499
20
-47.8391
11
133.515
21
-47.8201
0
LINE
8
BLACK
6
CONTINUOUS
10
133.515
20
-47.8201
11
133.527
21
-47.8107
0
LINE
8
BLACK
6
CONTINUOUS
10
133.527
20
-47.8107
11
133.468
21
-47.7959
0
LINE
8
BLACK
6
CONTINUOUS
10
133.468
20
-47.7959
11
133.075
21
-47.7959
0
LINE
8
BLACK
6
CONTINUOUS
10
133.731
20
-48.0018
11
133.769
21
-48.0775
0
LINE
8
BLACK
6
CONTINUOUS
10
133.769
20
-48.0775
11
133.78
21
-48.088
0
LINE
8
BLACK
6
CONTINUOUS
10
133.78
20
-48.088
11
133.78
21
-48.0013
0
LINE
8
BLACK
6
CONTINUOUS
10
133.78
20
-48.0013
11
133.742
21
-47.9256
0
LINE
8
BLACK
6
CONTINUOUS
10
133.742
20
-47.9256
11
133.731
21
-47.915
0
LINE
8
BLACK
6
CONTINUOUS
10
133.731
20
-47.915
11
133.731
21
-48.0018
0
LINE
8
BLACK
6
CONTINUOUS
10
135.631
20
-46.9918
11
135.66
21
-47.004
0
LINE
8
BLACK
6
CONTINUOUS
10
135.66
20
-47.004
11
135.687
21
-47.0216
0
LINE
8
BLACK
6
CONTINUOUS
10
135.687
20
-47.0216
11
135.709
21
-47.0441
0
LINE
8
BLACK
6
CONTINUOUS
10
135.709
20
-47.0441
11
135.727
21
-47.0705
0
LINE
8
BLACK
6
CONTINUOUS
10
135.727
20
-47.0705
11
135.739
21
-47.0999
0
LINE
8
BLACK
6
CONTINUOUS
10
135.739
20
-47.0999
11
135.745
21
-47.1311
0
LINE
8
BLACK
6
CONTINUOUS
10
135.745
20
-47.1311
11
135.745
21
-47.1629
0
LINE
8
BLACK
6
CONTINUOUS
10
135.745
20
-47.1629
11
135.739
21
-47.1941
0
LINE
8
BLACK
6
CONTINUOUS
10
135.739
20
-47.1941
11
135.727
21
-47.2235
0
LINE
8
BLACK
6
CONTINUOUS
10
135.727
20
-47.2235
11
135.709
21
-47.2499
0
LINE
8
BLACK
6
CONTINUOUS
10
135.709
20
-47.2499
11
135.687
21
-47.2724
0
LINE
8
BLACK
6
CONTINUOUS
10
135.687
20
-47.2724
11
135.66
21
-47.29
0
LINE
8
BLACK
6
CONTINUOUS
10
135.66
20
-47.29
11
135.631
21
-47.3022
0
LINE
8
BLACK
6
CONTINUOUS
10
135.631
20
-47.3022
11
135.6
21
-47.3084
0
LINE
8
BLACK
6
CONTINUOUS
10
135.6
20
-47.3084
11
135.568
21
-47.3084
0
LINE
8
BLACK
6
CONTINUOUS
10
135.568
20
-47.3084
11
135.537
21
-47.3022
0
LINE
8
BLACK
6
CONTINUOUS
10
135.537
20
-47.3022
11
135.508
21
-47.29
0
LINE
8
BLACK
6
CONTINUOUS
10
135.508
20
-47.29
11
135.481
21
-47.2724
0
LINE
8
BLACK
6
CONTINUOUS
10
135.481
20
-47.2724
11
135.459
21
-47.2499
0
LINE
8
BLACK
6
CONTINUOUS
10
135.459
20
-47.2499
11
135.441
21
-47.2235
0
LINE
8
BLACK
6
CONTINUOUS
10
135.441
20
-47.2235
11
135.429
21
-47.1941
0
LINE
8
BLACK
6
CONTINUOUS
10
135.429
20
-47.1941
11
135.423
21
-47.1629
0
LINE
8
BLACK
6
CONTINUOUS
10
135.423
20
-47.1629
11
135.423
21
-47.1311
0
LINE
8
BLACK
6
CONTINUOUS
10
135.423
20
-47.1311
11
135.429
21
-47.0999
0
LINE
8
BLACK
6
CONTINUOUS
10
135.429
20
-47.0999
11
135.441
21
-47.0705
0
LINE
8
BLACK
6
CONTINUOUS
10
135.441
20
-47.0705
11
135.459
21
-47.0441
0
LINE
8
BLACK
6
CONTINUOUS
10
135.459
20
-47.0441
11
135.481
21
-47.0216
0
LINE
8
BLACK
6
CONTINUOUS
10
135.481
20
-47.0216
11
135.508
21
-47.004
0
LINE
8
BLACK
6
CONTINUOUS
10
135.508
20
-47.004
11
135.537
21
-46.9918
0
LINE
8
BLACK
6
CONTINUOUS
10
135.537
20
-46.9918
11
135.568
21
-46.9856
0
LINE
8
BLACK
6
CONTINUOUS
10
135.568
20
-46.9856
11
135.6
21
-46.9856
0
LINE
8
BLACK
6
CONTINUOUS
10
135.6
20
-46.9856
11
135.631
21
-46.9918
0
LINE
8
BLACK
6
CONTINUOUS
10
134.22
20
-46.4014
11
134.238
21
-46.4072
0
LINE
8
BLACK
6
CONTINUOUS
10
134.238
20
-46.4072
11
134.256
21
-46.4165
0
LINE
8
BLACK
6
CONTINUOUS
10
134.256
20
-46.4165
11
134.271
21
-46.4289
0
LINE
8
BLACK
6
CONTINUOUS
10
134.271
20
-46.4289
11
134.284
21
-46.4442
0
LINE
8
BLACK
6
CONTINUOUS
10
134.284
20
-46.4442
11
134.293
21
-46.4615
0
LINE
8
BLACK
6
CONTINUOUS
10
134.293
20
-46.4615
11
134.299
21
-46.4804
0
LINE
8
BLACK
6
CONTINUOUS
10
134.299
20
-46.4804
11
134.3
21
-46.5
0
LINE
8
BLACK
6
CONTINUOUS
10
134.3
20
-46.5
11
134.299
21
-46.5196
0
LINE
8
BLACK
6
CONTINUOUS
10
134.299
20
-46.5196
11
134.293
21
-46.5385
0
LINE
8
BLACK
6
CONTINUOUS
10
134.293
20
-46.5385
11
134.287
21
-46.55
0
LINE
8
BLACK
6
CONTINUOUS
10
134.287
20
-46.55
11
134.293
21
-46.5615
0
LINE
8
BLACK
6
CONTINUOUS
10
134.293
20
-46.5615
11
134.299
21
-46.5804
0
LINE
8
BLACK
6
CONTINUOUS
10
134.299
20
-46.5804
11
134.3
21
-46.6
0
LINE
8
BLACK
6
CONTINUOUS
10
134.3
20
-46.6
11
134.299
21
-46.6196
0
LINE
8
BLACK
6
CONTINUOUS
10
134.299
20
-46.6196
11
134.293
21
-46.6385
0
LINE
8
BLACK
6
CONTINUOUS
10
134.293
20
-46.6385
11
134.284
21
-46.6558
0
LINE
8
BLACK
6
CONTINUOUS
10
134.284
20
-46.6558
11
134.271
21
-46.6711
0
LINE
8
BLACK
6
CONTINUOUS
10
134.271
20
-46.6711
11
134.256
21
-46.6835
0
LINE
8
BLACK
6
CONTINUOUS
10
134.256
20
-46.6835
11
134.238
21
-46.6928
0
LINE
8
BLACK
6
CONTINUOUS
10
134.238
20
-46.6928
11
134.22
21
-46.6986
0
LINE
8
BLACK
6
CONTINUOUS
10
134.22
20
-46.6986
11
134.205
21
-46.7
0
LINE
8
BLACK
6
CONTINUOUS
10
134.205
20
-46.7
11
129.195
21
-46.7
0
LINE
8
BLACK
6
CONTINUOUS
10
129.195
20
-46.7
11
129.18
21
-46.6986
0
LINE
8
BLACK
6
CONTINUOUS
10
129.18
20
-46.6986
11
129.162
21
-46.6928
0
LINE
8
BLACK
6
CONTINUOUS
10
129.162
20
-46.6928
11
129.144
21
-46.6835
0
LINE
8
BLACK
6
CONTINUOUS
10
129.144
20
-46.6835
11
129.129
21
-46.6711
0
LINE
8
BLACK
6
CONTINUOUS
10
129.129
20
-46.6711
11
129.116
21
-46.6558
0
LINE
8
BLACK
6
CONTINUOUS
10
129.116
20
-46.6558
11
129.107
21
-46.6385
0
LINE
8
BLACK
6
CONTINUOUS
10
129.107
20
-46.6385
11
129.101
21
-46.6196
0
LINE
8
BLACK
6
CONTINUOUS
10
129.101
20
-46.6196
11
129.1
21
-46.6
0
LINE
8
BLACK
6
CONTINUOUS
10
129.1
20
-46.6
11
129.101
21
-46.5804
0
LINE
8
BLACK
6
CONTINUOUS
10
129.101
20
-46.5804
11
129.107
21
-46.5615
0
LINE
8
BLACK
6
CONTINUOUS
10
129.107
20
-46.5615
11
129.113
21
-46.55
0
LINE
8
BLACK
6
CONTINUOUS
10
129.113
20
-46.55
11
129.107
21
-46.5385
0
LINE
8
BLACK
6
CONTINUOUS
10
129.107
20
-46.5385
11
129.101
21
-46.5196
0
LINE
8
BLACK
6
CONTINUOUS
10
129.101
20
-46.5196
11
129.1
21
-46.5
0
LINE
8
BLACK
6
CONTINUOUS
10
129.1
20
-46.5
11
129.101
21
-46.4804
0
LINE
8
BLACK
6
CONTINUOUS
10
129.101
20
-46.4804
11
129.107
21
-46.4615
0
LINE
8
BLACK
6
CONTINUOUS
10
129.107
20
-46.4615
11
129.116
21
-46.4442
0
LINE
8
BLACK
6
CONTINUOUS
10
129.116
20
-46.4442
11
129.129
21
-46.4289
0
LINE
8
BLACK
6
CONTINUOUS
10
129.129
20
-46.4289
11
129.144
21
-46.4165
0
LINE
8
BLACK
6
CONTINUOUS
10
129.144
20
-46.4165
11
129.162
21
-46.4072
0
LINE
8
BLACK
6
CONTINUOUS
10
129.162
20
-46.4072
11
129.18
21
-46.4014
0
LINE
8
BLACK
6
CONTINUOUS
10
129.18
20
-46.4014
11
129.195
21
-46.4
0
LINE
8
BLACK
6
CONTINUOUS
10
129.195
20
-46.4
11
134.205
21
-46.4
0
LINE
8
BLACK
6
CONTINUOUS
10
134.205
20
-46.4
11
134.22
21
-46.4014
0
LINE
8
BLACK
6
CONTINUOUS
10
132.941
20
-43.7724
11
132.944
21
-43.7728
0
LINE
8
BLACK
6
CONTINUOUS
10
132.944
20
-43.7728
11
132.948
21
-43.7727
0
LINE
8
BLACK
6
CONTINUOUS
10
132.948
20
-43.7727
11
132.957
21
-43.7742
0
LINE
8
BLACK
6
CONTINUOUS
10
132.957
20
-43.7742
11
132.965
21
-43.7752
0
LINE
8
BLACK
6
CONTINUOUS
10
132.965
20
-43.7752
11
132.969
21
-43.7763
0
LINE
8
BLACK
6
CONTINUOUS
10
132.969
20
-43.7763
11
132.973
21
-43.7769
0
LINE
8
BLACK
6
CONTINUOUS
10
132.973
20
-43.7769
11
132.981
21
-43.78
0
LINE
8
BLACK
6
CONTINUOUS
10
132.981
20
-43.78
11
132.989
21
-43.7826
0
LINE
8
BLACK
6
CONTINUOUS
10
132.989
20
-43.7826
11
132.992
21
-43.7844
0
LINE
8
BLACK
6
CONTINUOUS
10
132.992
20
-43.7844
11
132.996
21
-43.7858
0
LINE
8
BLACK
6
CONTINUOUS
10
132.996
20
-43.7858
11
133.117
21
-43.8463
0
LINE
8
BLACK
6
CONTINUOUS
10
133.117
20
-43.8463
11
133.118
21
-43.8471
0
LINE
8
BLACK
6
CONTINUOUS
10
133.118
20
-43.8471
11
133.124
21
-43.851
0
LINE
8
BLACK
6
CONTINUOUS
10
133.124
20
-43.851
11
133.131
21
-43.8543
0
LINE
8
BLACK
6
CONTINUOUS
10
133.131
20
-43.8543
11
133.135
21
-43.8577
0
LINE
8
BLACK
6
CONTINUOUS
10
133.135
20
-43.8577
11
133.139
21
-43.8606
0
LINE
8
BLACK
6
CONTINUOUS
10
133.139
20
-43.8606
11
133.144
21
-43.8655
0
LINE
8
BLACK
6
CONTINUOUS
10
133.144
20
-43.8655
11
133.15
21
-43.8701
0
LINE
8
BLACK
6
CONTINUOUS
10
133.15
20
-43.8701
11
133.181
21
-43.9012
0
LINE
8
BLACK
6
CONTINUOUS
10
133.181
20
-43.9012
11
133.212
21
-43.8701
0
LINE
8
BLACK
6
CONTINUOUS
10
133.212
20
-43.8701
11
133.213
21
-43.8688
0
LINE
8
BLACK
6
CONTINUOUS
10
133.213
20
-43.8688
11
133.219
21
-43.8644
0
LINE
8
BLACK
6
CONTINUOUS
10
133.219
20
-43.8644
11
133.224
21
-43.8595
0
LINE
8
BLACK
6
CONTINUOUS
10
133.224
20
-43.8595
11
133.228
21
-43.8566
0
LINE
8
BLACK
6
CONTINUOUS
10
133.228
20
-43.8566
11
133.233
21
-43.8533
0
LINE
8
BLACK
6
CONTINUOUS
10
133.233
20
-43.8533
11
133.239
21
-43.8501
0
LINE
8
BLACK
6
CONTINUOUS
10
133.239
20
-43.8501
11
133.245
21
-43.8463
0
LINE
8
BLACK
6
CONTINUOUS
10
133.245
20
-43.8463
11
133.366
21
-43.7858
0
LINE
8
BLACK
6
CONTINUOUS
10
133.366
20
-43.7858
11
133.368
21
-43.785
0
LINE
8
BLACK
6
CONTINUOUS
10
133.368
20
-43.785
11
133.371
21
-43.7837
0
LINE
8
BLACK
6
CONTINUOUS
10
133.371
20
-43.7837
11
133.374
21
-43.782
0
LINE
8
BLACK
6
CONTINUOUS
10
133.374
20
-43.782
11
133.383
21
-43.7795
0
LINE
8
BLACK
6
CONTINUOUS
10
133.383
20
-43.7795
11
133.391
21
-43.7765
0
LINE
8
BLACK
6
CONTINUOUS
10
133.391
20
-43.7765
11
133.394
21
-43.7759
0
LINE
8
BLACK
6
CONTINUOUS
10
133.394
20
-43.7759
11
133.398
21
-43.7748
0
LINE
8
BLACK
6
CONTINUOUS
10
133.398
20
-43.7748
11
133.407
21
-43.774
0
LINE
8
BLACK
6
CONTINUOUS
10
133.407
20
-43.774
11
133.415
21
-43.7726
0
LINE
8
BLACK
6
CONTINUOUS
10
133.415
20
-43.7726
11
133.419
21
-43.7727
0
LINE
8
BLACK
6
CONTINUOUS
10
133.419
20
-43.7727
11
133.423
21
-43.7724
0
LINE
8
BLACK
6
CONTINUOUS
10
133.423
20
-43.7724
11
133.665
21
-43.7724
0
LINE
8
BLACK
6
CONTINUOUS
10
133.665
20
-43.7724
11
133.666
21
-43.7724
0
LINE
8
BLACK
6
CONTINUOUS
10
133.666
20
-43.7724
11
133.67
21
-43.7728
0
LINE
8
BLACK
6
CONTINUOUS
10
133.67
20
-43.7728
11
133.674
21
-43.7727
0
LINE
8
BLACK
6
CONTINUOUS
10
133.674
20
-43.7727
11
133.682
21
-43.7742
0
LINE
8
BLACK
6
CONTINUOUS
10
133.682
20
-43.7742
11
133.691
21
-43.7752
0
LINE
8
BLACK
6
CONTINUOUS
10
133.691
20
-43.7752
11
133.695
21
-43.7763
0
LINE
8
BLACK
6
CONTINUOUS
10
133.695
20
-43.7763
11
133.698
21
-43.7769
0
LINE
8
BLACK
6
CONTINUOUS
10
133.698
20
-43.7769
11
133.706
21
-43.78
0
LINE
8
BLACK
6
CONTINUOUS
10
133.706
20
-43.78
11
133.715
21
-43.7826
0
LINE
8
BLACK
6
CONTINUOUS
10
133.715
20
-43.7826
11
133.718
21
-43.7844
0
LINE
8
BLACK
6
CONTINUOUS
10
133.718
20
-43.7844
11
133.721
21
-43.7858
0
LINE
8
BLACK
6
CONTINUOUS
10
133.721
20
-43.7858
11
133.842
21
-43.8463
0
LINE
8
BLACK
6
CONTINUOUS
10
133.842
20
-43.8463
11
133.844
21
-43.8471
0
LINE
8
BLACK
6
CONTINUOUS
10
133.844
20
-43.8471
11
133.85
21
-43.851
0
LINE
8
BLACK
6
CONTINUOUS
10
133.85
20
-43.851
11
133.856
21
-43.8543
0
LINE
8
BLACK
6
CONTINUOUS
10
133.856
20
-43.8543
11
133.86
21
-43.8577
0
LINE
8
BLACK
6
CONTINUOUS
10
133.86
20
-43.8577
11
133.865
21
-43.8606
0
LINE
8
BLACK
6
CONTINUOUS
10
133.865
20
-43.8606
11
133.87
21
-43.8655
0
LINE
8
BLACK
6
CONTINUOUS
10
133.87
20
-43.8655
11
133.875
21
-43.8701
0
LINE
8
BLACK
6
CONTINUOUS
10
133.875
20
-43.8701
11
133.936
21
-43.9305
0
LINE
8
BLACK
6
CONTINUOUS
10
133.936
20
-43.9305
11
133.937
21
-43.9318
0
LINE
8
BLACK
6
CONTINUOUS
10
133.937
20
-43.9318
11
133.942
21
-43.9374
0
LINE
8
BLACK
6
CONTINUOUS
10
133.942
20
-43.9374
11
133.946
21
-43.9426
0
LINE
8
BLACK
6
CONTINUOUS
10
133.946
20
-43.9426
11
133.949
21
-43.947
0
LINE
8
BLACK
6
CONTINUOUS
10
133.949
20
-43.947
11
133.953
21
-43.9512
0
LINE
8
BLACK
6
CONTINUOUS
10
133.953
20
-43.9512
11
133.956
21
-43.9575
0
LINE
8
BLACK
6
CONTINUOUS
10
133.956
20
-43.9575
11
133.96
21
-43.9635
0
LINE
8
BLACK
6
CONTINUOUS
10
133.96
20
-43.9635
11
134.02
21
-44.0845
0
LINE
8
BLACK
6
CONTINUOUS
10
134.02
20
-44.0845
11
134.021
21
-44.0861
0
LINE
8
BLACK
6
CONTINUOUS
10
134.021
20
-44.0861
11
134.022
21
-44.0896
0
LINE
8
BLACK
6
CONTINUOUS
10
134.022
20
-44.0896
11
134.024
21
-44.0929
0
LINE
8
BLACK
6
CONTINUOUS
10
134.024
20
-44.0929
11
134.026
21
-44.1012
0
LINE
8
BLACK
6
CONTINUOUS
10
134.026
20
-44.1012
11
134.029
21
-44.1093
0
LINE
8
BLACK
6
CONTINUOUS
10
134.029
20
-44.1093
11
134.03
21
-44.113
0
LINE
8
BLACK
6
CONTINUOUS
10
134.03
20
-44.113
11
134.031
21
-44.1166
0
LINE
8
BLACK
6
CONTINUOUS
10
134.031
20
-44.1166
11
134.032
21
-44.1253
0
LINE
8
BLACK
6
CONTINUOUS
10
134.032
20
-44.1253
11
134.033
21
-44.1338
0
LINE
8
BLACK
6
CONTINUOUS
10
134.033
20
-44.1338
11
134.033
21
-44.1376
0
LINE
8
BLACK
6
CONTINUOUS
10
134.033
20
-44.1376
11
134.034
21
-44.1413
0
LINE
8
BLACK
6
CONTINUOUS
10
134.034
20
-44.1413
11
134.034
21
-44.3832
0
LINE
8
BLACK
6
CONTINUOUS
10
134.034
20
-44.3832
11
134.034
21
-44.385
0
LINE
8
BLACK
6
CONTINUOUS
10
134.034
20
-44.385
11
134.033
21
-44.3887
0
LINE
8
BLACK
6
CONTINUOUS
10
134.033
20
-44.3887
11
134.033
21
-44.3924
0
LINE
8
BLACK
6
CONTINUOUS
10
134.033
20
-44.3924
11
134.032
21
-44.401
0
LINE
8
BLACK
6
CONTINUOUS
10
134.032
20
-44.401
11
134.031
21
-44.4096
0
LINE
8
BLACK
6
CONTINUOUS
10
134.031
20
-44.4096
11
134.03
21
-44.4132
0
LINE
8
BLACK
6
CONTINUOUS
10
134.03
20
-44.4132
11
134.029
21
-44.4168
0
LINE
8
BLACK
6
CONTINUOUS
10
134.029
20
-44.4168
11
134.026
21
-44.4249
0
LINE
8
BLACK
6
CONTINUOUS
10
134.026
20
-44.4249
11
134.023
21
-44.4332
0
LINE
8
BLACK
6
CONTINUOUS
10
134.023
20
-44.4332
11
134.021
21
-44.4365
0
LINE
8
BLACK
6
CONTINUOUS
10
134.021
20
-44.4365
11
134.02
21
-44.44
0
LINE
8
BLACK
6
CONTINUOUS
10
134.02
20
-44.44
11
133.96
21
-44.5609
0
LINE
8
BLACK
6
CONTINUOUS
10
133.96
20
-44.5609
11
133.959
21
-44.5625
0
LINE
8
BLACK
6
CONTINUOUS
10
133.959
20
-44.5625
11
133.955
21
-44.5685
0
LINE
8
BLACK
6
CONTINUOUS
10
133.955
20
-44.5685
11
133.952
21
-44.5748
0
LINE
8
BLACK
6
CONTINUOUS
10
133.952
20
-44.5748
11
133.948
21
-44.5789
0
LINE
8
BLACK
6
CONTINUOUS
10
133.948
20
-44.5789
11
133.945
21
-44.5833
0
LINE
8
BLACK
6
CONTINUOUS
10
133.945
20
-44.5833
11
133.94
21
-44.5884
0
LINE
8
BLACK
6
CONTINUOUS
10
133.94
20
-44.5884
11
133.936
21
-44.5939
0
LINE
8
BLACK
6
CONTINUOUS
10
133.936
20
-44.5939
11
133.875
21
-44.6544
0
LINE
8
BLACK
6
CONTINUOUS
10
133.875
20
-44.6544
11
133.874
21
-44.6557
0
LINE
8
BLACK
6
CONTINUOUS
10
133.874
20
-44.6557
11
133.869
21
-44.6601
0
LINE
8
BLACK
6
CONTINUOUS
10
133.869
20
-44.6601
11
133.863
21
-44.665
0
LINE
8
BLACK
6
CONTINUOUS
10
133.863
20
-44.665
11
133.859
21
-44.6678
0
LINE
8
BLACK
6
CONTINUOUS
10
133.859
20
-44.6678
11
133.855
21
-44.6711
0
LINE
8
BLACK
6
CONTINUOUS
10
133.855
20
-44.6711
11
133.848
21
-44.6744
0
LINE
8
BLACK
6
CONTINUOUS
10
133.848
20
-44.6744
11
133.842
21
-44.6782
0
LINE
8
BLACK
6
CONTINUOUS
10
133.842
20
-44.6782
11
133.721
21
-44.7387
0
LINE
8
BLACK
6
CONTINUOUS
10
133.721
20
-44.7387
11
133.72
21
-44.7395
0
LINE
8
BLACK
6
CONTINUOUS
10
133.72
20
-44.7395
11
133.716
21
-44.7408
0
LINE
8
BLACK
6
CONTINUOUS
10
133.716
20
-44.7408
11
133.713
21
-44.7425
0
LINE
8
BLACK
6
CONTINUOUS
10
133.713
20
-44.7425
11
133.705
21
-44.745
0
LINE
8
BLACK
6
CONTINUOUS
10
133.705
20
-44.745
11
133.697
21
-44.748
0
LINE
8
BLACK
6
CONTINUOUS
10
133.697
20
-44.748
11
133.693
21
-44.7486
0
LINE
8
BLACK
6
CONTINUOUS
10
133.693
20
-44.7486
11
133.689
21
-44.7497
0
LINE
8
BLACK
6
CONTINUOUS
10
133.689
20
-44.7497
11
133.681
21
-44.7505
0
LINE
8
BLACK
6
CONTINUOUS
10
133.681
20
-44.7505
11
133.672
21
-44.7519
0
LINE
8
BLACK
6
CONTINUOUS
10
133.672
20
-44.7519
11
133.668
21
-44.7517
0
LINE
8
BLACK
6
CONTINUOUS
10
133.668
20
-44.7517
11
133.665
21
-44.7521
0
LINE
8
BLACK
6
CONTINUOUS
10
133.665
20
-44.7521
11
133.423
21
-44.7521
0
LINE
8
BLACK
6
CONTINUOUS
10
133.423
20
-44.7521
11
133.421
21
-44.7521
0
LINE
8
BLACK
6
CONTINUOUS
10
133.421
20
-44.7521
11
133.417
21
-44.7517
0
LINE
8
BLACK
6
CONTINUOUS
10
133.417
20
-44.7517
11
133.413
21
-44.7518
0
LINE
8
BLACK
6
CONTINUOUS
10
133.413
20
-44.7518
11
133.405
21
-44.7503
0
LINE
8
BLACK
6
CONTINUOUS
10
133.405
20
-44.7503
11
133.396
21
-44.7493
0
LINE
8
BLACK
6
CONTINUOUS
10
133.396
20
-44.7493
11
133.393
21
-44.7482
0
LINE
8
BLACK
6
CONTINUOUS
10
133.393
20
-44.7482
11
133.389
21
-44.7476
0
LINE
8
BLACK
6
CONTINUOUS
10
133.389
20
-44.7476
11
133.381
21
-44.7445
0
LINE
8
BLACK
6
CONTINUOUS
10
133.381
20
-44.7445
11
133.373
21
-44.7418
0
LINE
8
BLACK
6
CONTINUOUS
10
133.373
20
-44.7418
11
133.369
21
-44.74
0
LINE
8
BLACK
6
CONTINUOUS
10
133.369
20
-44.74
11
133.366
21
-44.7387
0
LINE
8
BLACK
6
CONTINUOUS
10
133.366
20
-44.7387
11
133.245
21
-44.6782
0
LINE
8
BLACK
6
CONTINUOUS
10
133.245
20
-44.6782
11
133.243
21
-44.6774
0
LINE
8
BLACK
6
CONTINUOUS
10
133.243
20
-44.6774
11
133.237
21
-44.6735
0
LINE
8
BLACK
6
CONTINUOUS
10
133.237
20
-44.6735
11
133.231
21
-44.6702
0
LINE
8
BLACK
6
CONTINUOUS
10
133.231
20
-44.6702
11
133.227
21
-44.6668
0
LINE
8
BLACK
6
CONTINUOUS
10
133.227
20
-44.6668
11
133.223
21
-44.6639
0
LINE
8
BLACK
6
CONTINUOUS
10
133.223
20
-44.6639
11
133.217
21
-44.6589
0
LINE
8
BLACK
6
CONTINUOUS
10
133.217
20
-44.6589
11
133.212
21
-44.6544
0
LINE
8
BLACK
6
CONTINUOUS
10
133.212
20
-44.6544
11
133.181
21
-44.6233
0
LINE
8
BLACK
6
CONTINUOUS
10
133.181
20
-44.6233
11
133.15
21
-44.6544
0
LINE
8
BLACK
6
CONTINUOUS
10
133.15
20
-44.6544
11
133.148
21
-44.6557
0
LINE
8
BLACK
6
CONTINUOUS
10
133.148
20
-44.6557
11
133.143
21
-44.6601
0
LINE
8
BLACK
6
CONTINUOUS
10
133.143
20
-44.6601
11
133.138
21
-44.665
0
LINE
8
BLACK
6
CONTINUOUS
10
133.138
20
-44.665
11
133.133
21
-44.6678
0
LINE
8
BLACK
6
CONTINUOUS
10
133.133
20
-44.6678
11
133.129
21
-44.6711
0
LINE
8
BLACK
6
CONTINUOUS
10
133.129
20
-44.6711
11
133.123
21
-44.6744
0
LINE
8
BLACK
6
CONTINUOUS
10
133.123
20
-44.6744
11
133.117
21
-44.6782
0
LINE
8
BLACK
6
CONTINUOUS
10
133.117
20
-44.6782
11
132.996
21
-44.7387
0
LINE
8
BLACK
6
CONTINUOUS
10
132.996
20
-44.7387
11
132.994
21
-44.7395
0
LINE
8
BLACK
6
CONTINUOUS
10
132.994
20
-44.7395
11
132.991
21
-44.7408
0
LINE
8
BLACK
6
CONTINUOUS
10
132.991
20
-44.7408
11
132.987
21
-44.7425
0
LINE
8
BLACK
6
CONTINUOUS
10
132.987
20
-44.7425
11
132.979
21
-44.745
0
LINE
8
BLACK
6
CONTINUOUS
10
132.979
20
-44.745
11
132.971
21
-44.748
0
LINE
8
BLACK
6
CONTINUOUS
10
132.971
20
-44.748
11
132.967
21
-44.7486
0
LINE
8
BLACK
6
CONTINUOUS
10
132.967
20
-44.7486
11
132.964
21
-44.7497
0
LINE
8
BLACK
6
CONTINUOUS
10
132.964
20
-44.7497
11
132.955
21
-44.7505
0
LINE
8
BLACK
6
CONTINUOUS
10
132.955
20
-44.7505
11
132.946
21
-44.7519
0
LINE
8
BLACK
6
CONTINUOUS
10
132.946
20
-44.7519
11
132.943
21
-44.7517
0
LINE
8
BLACK
6
CONTINUOUS
10
132.943
20
-44.7517
11
132.939
21
-44.7521
0
LINE
8
BLACK
6
CONTINUOUS
10
132.939
20
-44.7521
11
132.878
21
-44.7521
0
LINE
8
BLACK
6
CONTINUOUS
10
132.878
20
-44.7521
11
132.877
21
-44.7521
0
LINE
8
BLACK
6
CONTINUOUS
10
132.877
20
-44.7521
11
132.873
21
-44.7517
0
LINE
8
BLACK
6
CONTINUOUS
10
132.873
20
-44.7517
11
132.869
21
-44.7518
0
LINE
8
BLACK
6
CONTINUOUS
10
132.869
20
-44.7518
11
132.861
21
-44.7503
0
LINE
8
BLACK
6
CONTINUOUS
10
132.861
20
-44.7503
11
132.852
21
-44.7493
0
LINE
8
BLACK
6
CONTINUOUS
10
132.852
20
-44.7493
11
132.848
21
-44.7482
0
LINE
8
BLACK
6
CONTINUOUS
10
132.848
20
-44.7482
11
132.845
21
-44.7476
0
LINE
8
BLACK
6
CONTINUOUS
10
132.845
20
-44.7476
11
132.837
21
-44.7445
0
LINE
8
BLACK
6
CONTINUOUS
10
132.837
20
-44.7445
11
132.828
21
-44.7418
0
LINE
8
BLACK
6
CONTINUOUS
10
132.828
20
-44.7418
11
132.825
21
-44.74
0
LINE
8
BLACK
6
CONTINUOUS
10
132.825
20
-44.74
11
132.822
21
-44.7387
0
LINE
8
BLACK
6
CONTINUOUS
10
132.822
20
-44.7387
11
132.701
21
-44.6782
0
LINE
8
BLACK
6
CONTINUOUS
10
132.701
20
-44.6782
11
132.699
21
-44.6774
0
LINE
8
BLACK
6
CONTINUOUS
10
132.699
20
-44.6774
11
132.693
21
-44.6735
0
LINE
8
BLACK
6
CONTINUOUS
10
132.693
20
-44.6735
11
132.687
21
-44.6702
0
LINE
8
BLACK
6
CONTINUOUS
10
132.687
20
-44.6702
11
132.683
21
-44.6668
0
LINE
8
BLACK
6
CONTINUOUS
10
132.683
20
-44.6668
11
132.678
21
-44.6639
0
LINE
8
BLACK
6
CONTINUOUS
10
132.678
20
-44.6639
11
132.673
21
-44.6589
0
LINE
8
BLACK
6
CONTINUOUS
10
132.673
20
-44.6589
11
132.668
21
-44.6544
0
LINE
8
BLACK
6
CONTINUOUS
10
132.668
20
-44.6544
11
132.607
21
-44.5939
0
LINE
8
BLACK
6
CONTINUOUS
10
132.607
20
-44.5939
11
132.606
21
-44.5927
0
LINE
8
BLACK
6
CONTINUOUS
10
132.606
20
-44.5927
11
132.601
21
-44.5871
0
LINE
8
BLACK
6
CONTINUOUS
10
132.601
20
-44.5871
11
132.597
21
-44.5819
0
LINE
8
BLACK
6
CONTINUOUS
10
132.597
20
-44.5819
11
132.594
21
-44.5774
0
LINE
8
BLACK
6
CONTINUOUS
10
132.594
20
-44.5774
11
132.59
21
-44.5733
0
LINE
8
BLACK
6
CONTINUOUS
10
132.59
20
-44.5733
11
132.587
21
-44.567
0
LINE
8
BLACK
6
CONTINUOUS
10
132.587
20
-44.567
11
132.583
21
-44.5609
0
LINE
8
BLACK
6
CONTINUOUS
10
132.583
20
-44.5609
11
132.523
21
-44.44
0
LINE
8
BLACK
6
CONTINUOUS
10
132.523
20
-44.44
11
132.522
21
-44.4384
0
LINE
8
BLACK
6
CONTINUOUS
10
132.522
20
-44.4384
11
132.521
21
-44.4349
0
LINE
8
BLACK
6
CONTINUOUS
10
132.521
20
-44.4349
11
132.519
21
-44.4316
0
LINE
8
BLACK
6
CONTINUOUS
10
132.519
20
-44.4316
11
132.517
21
-44.4233
0
LINE
8
BLACK
6
CONTINUOUS
10
132.517
20
-44.4233
11
132.514
21
-44.4151
0
LINE
8
BLACK
6
CONTINUOUS
10
132.514
20
-44.4151
11
132.513
21
-44.4114
0
LINE
8
BLACK
6
CONTINUOUS
10
132.513
20
-44.4114
11
132.512
21
-44.4079
0
LINE
8
BLACK
6
CONTINUOUS
10
132.512
20
-44.4079
11
132.511
21
-44.3992
0
LINE
8
BLACK
6
CONTINUOUS
10
132.511
20
-44.3992
11
132.51
21
-44.3906
0
LINE
8
BLACK
6
CONTINUOUS
10
132.51
20
-44.3906
11
132.51
21
-44.3869
0
LINE
8
BLACK
6
CONTINUOUS
10
132.51
20
-44.3869
11
132.51
21
-44.3832
0
LINE
8
BLACK
6
CONTINUOUS
10
132.51
20
-44.3832
11
132.51
21
-44.1413
0
LINE
8
BLACK
6
CONTINUOUS
10
132.51
20
-44.1413
11
132.51
21
-44.1395
0
LINE
8
BLACK
6
CONTINUOUS
10
132.51
20
-44.1395
11
132.51
21
-44.1358
0
LINE
8
BLACK
6
CONTINUOUS
10
132.51
20
-44.1358
11
132.51
21
-44.1321
0
LINE
8
BLACK
6
CONTINUOUS
10
132.51
20
-44.1321
11
132.511
21
-44.1235
0
LINE
8
BLACK
6
CONTINUOUS
10
132.511
20
-44.1235
11
132.512
21
-44.1149
0
LINE
8
BLACK
6
CONTINUOUS
10
132.512
20
-44.1149
11
132.513
21
-44.1113
0
LINE
8
BLACK
6
CONTINUOUS
10
132.513
20
-44.1113
11
132.514
21
-44.1076
0
LINE
8
BLACK
6
CONTINUOUS
10
132.514
20
-44.1076
11
132.517
21
-44.0995
0
LINE
8
BLACK
6
CONTINUOUS
10
132.517
20
-44.0995
11
132.52
21
-44.0913
0
LINE
8
BLACK
6
CONTINUOUS
10
132.52
20
-44.0913
11
132.522
21
-44.088
0
LINE
8
BLACK
6
CONTINUOUS
10
132.522
20
-44.088
11
132.523
21
-44.0845
0
LINE
8
BLACK
6
CONTINUOUS
10
132.523
20
-44.0845
11
132.583
21
-43.9635
0
LINE
8
BLACK
6
CONTINUOUS
10
132.583
20
-43.9635
11
132.584
21
-43.962
0
LINE
8
BLACK
6
CONTINUOUS
10
132.584
20
-43.962
11
132.588
21
-43.956
0
LINE
8
BLACK
6
CONTINUOUS
10
132.588
20
-43.956
11
132.591
21
-43.9497
0
LINE
8
BLACK
6
CONTINUOUS
10
132.591
20
-43.9497
11
132.595
21
-43.9456
0
LINE
8
BLACK
6
CONTINUOUS
10
132.595
20
-43.9456
11
132.598
21
-43.9412
0
LINE
8
BLACK
6
CONTINUOUS
10
132.598
20
-43.9412
11
132.603
21
-43.936
0
LINE
8
BLACK
6
CONTINUOUS
10
132.603
20
-43.936
11
132.607
21
-43.9305
0
LINE
8
BLACK
6
CONTINUOUS
10
132.607
20
-43.9305
11
132.668
21
-43.8701
0
LINE
8
BLACK
6
CONTINUOUS
10
132.668
20
-43.8701
11
132.669
21
-43.8688
0
LINE
8
BLACK
6
CONTINUOUS
10
132.669
20
-43.8688
11
132.675
21
-43.8644
0
LINE
8
BLACK
6
CONTINUOUS
10
132.675
20
-43.8644
11
132.68
21
-43.8595
0
LINE
8
BLACK
6
CONTINUOUS
10
132.68
20
-43.8595
11
132.684
21
-43.8566
0
LINE
8
BLACK
6
CONTINUOUS
10
132.684
20
-43.8566
11
132.688
21
-43.8533
0
LINE
8
BLACK
6
CONTINUOUS
10
132.688
20
-43.8533
11
132.695
21
-43.8501
0
LINE
8
BLACK
6
CONTINUOUS
10
132.695
20
-43.8501
11
132.701
21
-43.8463
0
LINE
8
BLACK
6
CONTINUOUS
10
132.701
20
-43.8463
11
132.822
21
-43.7858
0
LINE
8
BLACK
6
CONTINUOUS
10
132.822
20
-43.7858
11
132.823
21
-43.785
0
LINE
8
BLACK
6
CONTINUOUS
10
132.823
20
-43.785
11
132.827
21
-43.7837
0
LINE
8
BLACK
6
CONTINUOUS
10
132.827
20
-43.7837
11
132.83
21
-43.782
0
LINE
8
BLACK
6
CONTINUOUS
10
132.83
20
-43.782
11
132.838
21
-43.7795
0
LINE
8
BLACK
6
CONTINUOUS
10
132.838
20
-43.7795
11
132.846
21
-43.7765
0
LINE
8
BLACK
6
CONTINUOUS
10
132.846
20
-43.7765
11
132.85
21
-43.7759
0
LINE
8
BLACK
6
CONTINUOUS
10
132.85
20
-43.7759
11
132.854
21
-43.7748
0
LINE
8
BLACK
6
CONTINUOUS
10
132.854
20
-43.7748
11
132.862
21
-43.774
0
LINE
8
BLACK
6
CONTINUOUS
10
132.862
20
-43.774
11
132.871
21
-43.7726
0
LINE
8
BLACK
6
CONTINUOUS
10
132.871
20
-43.7726
11
132.875
21
-43.7727
0
LINE
8
BLACK
6
CONTINUOUS
10
132.875
20
-43.7727
11
132.878
21
-43.7724
0
LINE
8
BLACK
6
CONTINUOUS
10
132.878
20
-43.7724
11
132.939
21
-43.7724
0
LINE
8
BLACK
6
CONTINUOUS
10
132.939
20
-43.7724
11
132.941
21
-43.7724
0
LINE
8
BLACK
6
CONTINUOUS
10
133.453
20
-44.0264
11
133.377
21
-44.0642
0
LINE
8
BLACK
6
CONTINUOUS
10
133.377
20
-44.0642
11
133.346
21
-44.0956
0
LINE
8
BLACK
6
CONTINUOUS
10
133.346
20
-44.0956
11
133.308
21
-44.1713
0
LINE
8
BLACK
6
CONTINUOUS
10
133.308
20
-44.1713
11
133.308
21
-44.3532
0
LINE
8
BLACK
6
CONTINUOUS
10
133.308
20
-44.3532
11
133.346
21
-44.4289
0
LINE
8
BLACK
6
CONTINUOUS
10
133.346
20
-44.4289
11
133.377
21
-44.4602
0
LINE
8
BLACK
6
CONTINUOUS
10
133.377
20
-44.4602
11
133.453
21
-44.4981
0
LINE
8
BLACK
6
CONTINUOUS
10
133.453
20
-44.4981
11
133.635
21
-44.4981
0
LINE
8
BLACK
6
CONTINUOUS
10
133.635
20
-44.4981
11
133.71
21
-44.4602
0
LINE
8
BLACK
6
CONTINUOUS
10
133.71
20
-44.4602
11
133.742
21
-44.4289
0
LINE
8
BLACK
6
CONTINUOUS
10
133.742
20
-44.4289
11
133.78
21
-44.3532
0
LINE
8
BLACK
6
CONTINUOUS
10
133.78
20
-44.3532
11
133.78
21
-44.1713
0
LINE
8
BLACK
6
CONTINUOUS
10
133.78
20
-44.1713
11
133.742
21
-44.0956
0
LINE
8
BLACK
6
CONTINUOUS
10
133.742
20
-44.0956
11
133.71
21
-44.0642
0
LINE
8
BLACK
6
CONTINUOUS
10
133.71
20
-44.0642
11
133.635
21
-44.0264
0
LINE
8
BLACK
6
CONTINUOUS
10
133.635
20
-44.0264
11
133.453
21
-44.0264
0
LINE
8
BLACK
6
CONTINUOUS
10
132.908
20
-44.0264
11
132.833
21
-44.0642
0
LINE
8
BLACK
6
CONTINUOUS
10
132.833
20
-44.0642
11
132.801
21
-44.0956
0
LINE
8
BLACK
6
CONTINUOUS
10
132.801
20
-44.0956
11
132.764
21
-44.1713
0
LINE
8
BLACK
6
CONTINUOUS
10
132.764
20
-44.1713
11
132.764
21
-44.3532
0
LINE
8
BLACK
6
CONTINUOUS
10
132.764
20
-44.3532
11
132.801
21
-44.4289
0
LINE
8
BLACK
6
CONTINUOUS
10
132.801
20
-44.4289
11
132.833
21
-44.4602
0
LINE
8
BLACK
6
CONTINUOUS
10
132.833
20
-44.4602
11
132.908
21
-44.4981
0
LINE
8
BLACK
6
CONTINUOUS
10
132.908
20
-44.4981
11
132.909
21
-44.4981
0
LINE
8
BLACK
6
CONTINUOUS
10
132.909
20
-44.4981
11
132.985
21
-44.4602
0
LINE
8
BLACK
6
CONTINUOUS
10
132.985
20
-44.4602
11
133.016
21
-44.4289
0
LINE
8
BLACK
6
CONTINUOUS
10
133.016
20
-44.4289
11
133.054
21
-44.3532
0
LINE
8
BLACK
6
CONTINUOUS
10
133.054
20
-44.3532
11
133.054
21
-44.1713
0
LINE
8
BLACK
6
CONTINUOUS
10
133.054
20
-44.1713
11
133.016
21
-44.0956
0
LINE
8
BLACK
6
CONTINUOUS
10
133.016
20
-44.0956
11
132.985
21
-44.0642
0
LINE
8
BLACK
6
CONTINUOUS
10
132.985
20
-44.0642
11
132.909
21
-44.0264
0
LINE
8
BLACK
6
CONTINUOUS
10
132.909
20
-44.0264
11
132.908
21
-44.0264
0
LINE
8
BLACK
6
CONTINUOUS
10
133.485
20
-42.4419
11
133.487
21
-42.4422
0
LINE
8
BLACK
6
CONTINUOUS
10
133.487
20
-42.4422
11
133.489
21
-42.4421
0
LINE
8
BLACK
6
CONTINUOUS
10
133.489
20
-42.4421
11
133.499
21
-42.4435
0
LINE
8
BLACK
6
CONTINUOUS
10
133.499
20
-42.4435
11
133.51
21
-42.4447
0
LINE
8
BLACK
6
CONTINUOUS
10
133.51
20
-42.4447
11
133.512
21
-42.4454
0
LINE
8
BLACK
6
CONTINUOUS
10
133.512
20
-42.4454
11
133.514
21
-42.4457
0
LINE
8
BLACK
6
CONTINUOUS
10
133.514
20
-42.4457
11
133.756
21
-42.5062
0
LINE
8
BLACK
6
CONTINUOUS
10
133.756
20
-42.5062
11
133.758
21
-42.5066
0
LINE
8
BLACK
6
CONTINUOUS
10
133.758
20
-42.5066
11
133.766
21
-42.5096
0
LINE
8
BLACK
6
CONTINUOUS
10
133.766
20
-42.5096
11
133.774
21
-42.5121
0
LINE
8
BLACK
6
CONTINUOUS
10
133.774
20
-42.5121
11
133.777
21
-42.5139
0
LINE
8
BLACK
6
CONTINUOUS
10
133.777
20
-42.5139
11
133.781
21
-42.5153
0
LINE
8
BLACK
6
CONTINUOUS
10
133.781
20
-42.5153
11
133.788
21
-42.5198
0
LINE
8
BLACK
6
CONTINUOUS
10
133.788
20
-42.5198
11
133.796
21
-42.5238
0
LINE
8
BLACK
6
CONTINUOUS
10
133.796
20
-42.5238
11
133.799
21
-42.5263
0
LINE
8
BLACK
6
CONTINUOUS
10
133.799
20
-42.5263
11
133.802
21
-42.5283
0
LINE
8
BLACK
6
CONTINUOUS
10
133.802
20
-42.5283
11
133.808
21
-42.5341
0
LINE
8
BLACK
6
CONTINUOUS
10
133.808
20
-42.5341
11
133.815
21
-42.5396
0
LINE
8
BLACK
6
CONTINUOUS
10
133.815
20
-42.5396
11
133.936
21
-42.6605
0
LINE
8
BLACK
6
CONTINUOUS
10
133.936
20
-42.6605
11
133.937
21
-42.6618
0
LINE
8
BLACK
6
CONTINUOUS
10
133.937
20
-42.6618
11
133.942
21
-42.6674
0
LINE
8
BLACK
6
CONTINUOUS
10
133.942
20
-42.6674
11
133.946
21
-42.6726
0
LINE
8
BLACK
6
CONTINUOUS
10
133.946
20
-42.6726
11
133.949
21
-42.677
0
LINE
8
BLACK
6
CONTINUOUS
10
133.949
20
-42.677
11
133.953
21
-42.6812
0
LINE
8
BLACK
6
CONTINUOUS
10
133.953
20
-42.6812
11
133.956
21
-42.6875
0
LINE
8
BLACK
6
CONTINUOUS
10
133.956
20
-42.6875
11
133.96
21
-42.6935
0
LINE
8
BLACK
6
CONTINUOUS
10
133.96
20
-42.6935
11
134.02
21
-42.8145
0
LINE
8
BLACK
6
CONTINUOUS
10
134.02
20
-42.8145
11
134.021
21
-42.8161
0
LINE
8
BLACK
6
CONTINUOUS
10
134.021
20
-42.8161
11
134.022
21
-42.8196
0
LINE
8
BLACK
6
CONTINUOUS
10
134.022
20
-42.8196
11
134.024
21
-42.8229
0
LINE
8
BLACK
6
CONTINUOUS
10
134.024
20
-42.8229
11
134.026
21
-42.8312
0
LINE
8
BLACK
6
CONTINUOUS
10
134.026
20
-42.8312
11
134.029
21
-42.8393
0
LINE
8
BLACK
6
CONTINUOUS
10
134.029
20
-42.8393
11
134.03
21
-42.843
0
LINE
8
BLACK
6
CONTINUOUS
10
134.03
20
-42.843
11
134.031
21
-42.8466
0
LINE
8
BLACK
6
CONTINUOUS
10
134.031
20
-42.8466
11
134.032
21
-42.8552
0
LINE
8
BLACK
6
CONTINUOUS
10
134.032
20
-42.8552
11
134.033
21
-42.8638
0
LINE
8
BLACK
6
CONTINUOUS
10
134.033
20
-42.8638
11
134.033
21
-42.8676
0
LINE
8
BLACK
6
CONTINUOUS
10
134.033
20
-42.8676
11
134.034
21
-42.8713
0
LINE
8
BLACK
6
CONTINUOUS
10
134.034
20
-42.8713
11
134.034
21
-43.1132
0
LINE
8
BLACK
6
CONTINUOUS
10
134.034
20
-43.1132
11
134.034
21
-43.115
0
LINE
8
BLACK
6
CONTINUOUS
10
134.034
20
-43.115
11
134.033
21
-43.1187
0
LINE
8
BLACK
6
CONTINUOUS
10
134.033
20
-43.1187
11
134.033
21
-43.1224
0
LINE
8
BLACK
6
CONTINUOUS
10
134.033
20
-43.1224
11
134.032
21
-43.131
0
LINE
8
BLACK
6
CONTINUOUS
10
134.032
20
-43.131
11
134.031
21
-43.1396
0
LINE
8
BLACK
6
CONTINUOUS
10
134.031
20
-43.1396
11
134.03
21
-43.1432
0
LINE
8
BLACK
6
CONTINUOUS
10
134.03
20
-43.1432
11
134.029
21
-43.1468
0
LINE
8
BLACK
6
CONTINUOUS
10
134.029
20
-43.1468
11
134.026
21
-43.1549
0
LINE
8
BLACK
6
CONTINUOUS
10
134.026
20
-43.1549
11
134.023
21
-43.1632
0
LINE
8
BLACK
6
CONTINUOUS
10
134.023
20
-43.1632
11
134.021
21
-43.1665
0
LINE
8
BLACK
6
CONTINUOUS
10
134.021
20
-43.1665
11
134.02
21
-43.17
0
LINE
8
BLACK
6
CONTINUOUS
10
134.02
20
-43.17
11
134.001
21
-43.2091
0
LINE
8
BLACK
6
CONTINUOUS
10
134.001
20
-43.2091
11
134.057
21
-43.2653
0
LINE
8
BLACK
6
CONTINUOUS
10
134.057
20
-43.2653
11
134.058
21
-43.2666
0
LINE
8
BLACK
6
CONTINUOUS
10
134.058
20
-43.2666
11
134.063
21
-43.2721
0
LINE
8
BLACK
6
CONTINUOUS
10
134.063
20
-43.2721
11
134.067
21
-43.2773
0
LINE
8
BLACK
6
CONTINUOUS
10
134.067
20
-43.2773
11
134.07
21
-43.2818
0
LINE
8
BLACK
6
CONTINUOUS
10
134.07
20
-43.2818
11
134.074
21
-43.2859
0
LINE
8
BLACK
6
CONTINUOUS
10
134.074
20
-43.2859
11
134.077
21
-43.2923
0
LINE
8
BLACK
6
CONTINUOUS
10
134.077
20
-43.2923
11
134.081
21
-43.2983
0
LINE
8
BLACK
6
CONTINUOUS
10
134.081
20
-43.2983
11
134.141
21
-43.4192
0
LINE
8
BLACK
6
CONTINUOUS
10
134.141
20
-43.4192
11
134.142
21
-43.4208
0
LINE
8
BLACK
6
CONTINUOUS
10
134.142
20
-43.4208
11
134.15
21
-43.4441
0
LINE
8
BLACK
6
CONTINUOUS
10
134.15
20
-43.4441
11
134.154
21
-43.4686
0
LINE
8
BLACK
6
CONTINUOUS
10
134.154
20
-43.4686
11
134.153
21
-43.4934
0
LINE
8
BLACK
6
CONTINUOUS
10
134.153
20
-43.4934
11
134.148
21
-43.5175
0
LINE
8
BLACK
6
CONTINUOUS
10
134.148
20
-43.5175
11
134.137
21
-43.54
0
LINE
8
BLACK
6
CONTINUOUS
10
134.137
20
-43.54
11
134.123
21
-43.5601
0
LINE
8
BLACK
6
CONTINUOUS
10
134.123
20
-43.5601
11
134.105
21
-43.577
0
LINE
8
BLACK
6
CONTINUOUS
10
134.105
20
-43.577
11
134.083
21
-43.59
0
LINE
8
BLACK
6
CONTINUOUS
10
134.083
20
-43.59
11
134.06
21
-43.5987
0
LINE
8
BLACK
6
CONTINUOUS
10
134.06
20
-43.5987
11
134.036
21
-43.6028
0
LINE
8
BLACK
6
CONTINUOUS
10
134.036
20
-43.6028
11
134.011
21
-43.602
0
LINE
8
BLACK
6
CONTINUOUS
10
134.011
20
-43.602
11
133.987
21
-43.5964
0
LINE
8
BLACK
6
CONTINUOUS
10
133.987
20
-43.5964
11
133.964
21
-43.5862
0
LINE
8
BLACK
6
CONTINUOUS
10
133.964
20
-43.5862
11
133.944
21
-43.5718
0
LINE
8
BLACK
6
CONTINUOUS
10
133.944
20
-43.5718
11
133.927
21
-43.5538
0
LINE
8
BLACK
6
CONTINUOUS
10
133.927
20
-43.5538
11
133.914
21
-43.5328
0
LINE
8
BLACK
6
CONTINUOUS
10
133.914
20
-43.5328
11
133.863
21
-43.4303
0
LINE
8
BLACK
6
CONTINUOUS
10
133.863
20
-43.4303
11
133.846
21
-43.4137
0
LINE
8
BLACK
6
CONTINUOUS
10
133.846
20
-43.4137
11
133.815
21
-43.4449
0
LINE
8
BLACK
6
CONTINUOUS
10
133.815
20
-43.4449
11
133.814
21
-43.4461
0
LINE
8
BLACK
6
CONTINUOUS
10
133.814
20
-43.4461
11
133.807
21
-43.4515
0
LINE
8
BLACK
6
CONTINUOUS
10
133.807
20
-43.4515
11
133.801
21
-43.4573
0
LINE
8
BLACK
6
CONTINUOUS
10
133.801
20
-43.4573
11
133.797
21
-43.4592
0
LINE
8
BLACK
6
CONTINUOUS
10
133.797
20
-43.4592
11
133.794
21
-43.4616
0
LINE
8
BLACK
6
CONTINUOUS
10
133.794
20
-43.4616
11
133.787
21
-43.4656
0
LINE
8
BLACK
6
CONTINUOUS
10
133.787
20
-43.4656
11
133.779
21
-43.47
0
LINE
8
BLACK
6
CONTINUOUS
10
133.779
20
-43.47
11
133.776
21
-43.4713
0
LINE
8
BLACK
6
CONTINUOUS
10
133.776
20
-43.4713
11
133.772
21
-43.473
0
LINE
8
BLACK
6
CONTINUOUS
10
133.772
20
-43.473
11
133.764
21
-43.4754
0
LINE
8
BLACK
6
CONTINUOUS
10
133.764
20
-43.4754
11
133.756
21
-43.4783
0
LINE
8
BLACK
6
CONTINUOUS
10
133.756
20
-43.4783
11
133.514
21
-43.5388
0
LINE
8
BLACK
6
CONTINUOUS
10
133.514
20
-43.5388
11
133.512
21
-43.5392
0
LINE
8
BLACK
6
CONTINUOUS
10
133.512
20
-43.5392
11
133.51
21
-43.5395
0
LINE
8
BLACK
6
CONTINUOUS
10
133.51
20
-43.5395
11
133.508
21
-43.5402
0
LINE
8
BLACK
6
CONTINUOUS
10
133.508
20
-43.5402
11
133.498
21
-43.5411
0
LINE
8
BLACK
6
CONTINUOUS
10
133.498
20
-43.5411
11
133.488
21
-43.5425
0
LINE
8
BLACK
6
CONTINUOUS
10
133.488
20
-43.5425
11
133.485
21
-43.5423
0
LINE
8
BLACK
6
CONTINUOUS
10
133.485
20
-43.5423
11
133.483
21
-43.5426
0
LINE
8
BLACK
6
CONTINUOUS
10
133.483
20
-43.5426
11
133.06
21
-43.5426
0
LINE
8
BLACK
6
CONTINUOUS
10
133.06
20
-43.5426
11
133.058
21
-43.5426
0
LINE
8
BLACK
6
CONTINUOUS
10
133.058
20
-43.5426
11
133.056
21
-43.5423
0
LINE
8
BLACK
6
CONTINUOUS
10
133.056
20
-43.5423
11
133.054
21
-43.5424
0
LINE
8
BLACK
6
CONTINUOUS
10
133.054
20
-43.5424
11
133.044
21
-43.5409
0
LINE
8
BLACK
6
CONTINUOUS
10
133.044
20
-43.5409
11
133.033
21
-43.5398
0
LINE
8
BLACK
6
CONTINUOUS
10
133.033
20
-43.5398
11
133.031
21
-43.5391
0
LINE
8
BLACK
6
CONTINUOUS
10
133.031
20
-43.5391
11
133.029
21
-43.5388
0
LINE
8
BLACK
6
CONTINUOUS
10
133.029
20
-43.5388
11
132.787
21
-43.4783
0
LINE
8
BLACK
6
CONTINUOUS
10
132.787
20
-43.4783
11
132.785
21
-43.4779
0
LINE
8
BLACK
6
CONTINUOUS
10
132.785
20
-43.4779
11
132.777
21
-43.4749
0
LINE
8
BLACK
6
CONTINUOUS
10
132.777
20
-43.4749
11
132.769
21
-43.4723
0
LINE
8
BLACK
6
CONTINUOUS
10
132.769
20
-43.4723
11
132.766
21
-43.4705
0
LINE
8
BLACK
6
CONTINUOUS
10
132.766
20
-43.4705
11
132.762
21
-43.4692
0
LINE
8
BLACK
6
CONTINUOUS
10
132.762
20
-43.4692
11
132.755
21
-43.4647
0
LINE
8
BLACK
6
CONTINUOUS
10
132.755
20
-43.4647
11
132.747
21
-43.4606
0
LINE
8
BLACK
6
CONTINUOUS
10
132.747
20
-43.4606
11
132.744
21
-43.4582
0
LINE
8
BLACK
6
CONTINUOUS
10
132.744
20
-43.4582
11
132.741
21
-43.4562
0
LINE
8
BLACK
6
CONTINUOUS
10
132.741
20
-43.4562
11
132.735
21
-43.4504
0
LINE
8
BLACK
6
CONTINUOUS
10
132.735
20
-43.4504
11
132.728
21
-43.4449
0
LINE
8
BLACK
6
CONTINUOUS
10
132.728
20
-43.4449
11
132.607
21
-43.3239
0
LINE
8
BLACK
6
CONTINUOUS
10
132.607
20
-43.3239
11
132.606
21
-43.3227
0
LINE
8
BLACK
6
CONTINUOUS
10
132.606
20
-43.3227
11
132.601
21
-43.3171
0
LINE
8
BLACK
6
CONTINUOUS
10
132.601
20
-43.3171
11
132.597
21
-43.3119
0
LINE
8
BLACK
6
CONTINUOUS
10
132.597
20
-43.3119
11
132.594
21
-43.3074
0
LINE
8
BLACK
6
CONTINUOUS
10
132.594
20
-43.3074
11
132.59
21
-43.3033
0
LINE
8
BLACK
6
CONTINUOUS
10
132.59
20
-43.3033
11
132.587
21
-43.297
0
LINE
8
BLACK
6
CONTINUOUS
10
132.587
20
-43.297
11
132.583
21
-43.2909
0
LINE
8
BLACK
6
CONTINUOUS
10
132.583
20
-43.2909
11
132.523
21
-43.17
0
LINE
8
BLACK
6
CONTINUOUS
10
132.523
20
-43.17
11
132.522
21
-43.1684
0
LINE
8
BLACK
6
CONTINUOUS
10
132.522
20
-43.1684
11
132.521
21
-43.1649
0
LINE
8
BLACK
6
CONTINUOUS
10
132.521
20
-43.1649
11
132.519
21
-43.1616
0
LINE
8
BLACK
6
CONTINUOUS
10
132.519
20
-43.1616
11
132.517
21
-43.1533
0
LINE
8
BLACK
6
CONTINUOUS
10
132.517
20
-43.1533
11
132.514
21
-43.1451
0
LINE
8
BLACK
6
CONTINUOUS
10
132.514
20
-43.1451
11
132.513
21
-43.1414
0
LINE
8
BLACK
6
CONTINUOUS
10
132.513
20
-43.1414
11
132.512
21
-43.1379
0
LINE
8
BLACK
6
CONTINUOUS
10
132.512
20
-43.1379
11
132.511
21
-43.1292
0
LINE
8
BLACK
6
CONTINUOUS
10
132.511
20
-43.1292
11
132.51
21
-43.1206
0
LINE
8
BLACK
6
CONTINUOUS
10
132.51
20
-43.1206
11
132.51
21
-43.1169
0
LINE
8
BLACK
6
CONTINUOUS
10
132.51
20
-43.1169
11
132.51
21
-43.1132
0
LINE
8
BLACK
6
CONTINUOUS
10
132.51
20
-43.1132
11
132.51
21
-42.8713
0
LINE
8
BLACK
6
CONTINUOUS
10
132.51
20
-42.8713
11
132.51
21
-42.8695
0
LINE
8
BLACK
6
CONTINUOUS
10
132.51
20
-42.8695
11
132.51
21
-42.8658
0
LINE
8
BLACK
6
CONTINUOUS
10
132.51
20
-42.8658
11
132.51
21
-42.8621
0
LINE
8
BLACK
6
CONTINUOUS
10
132.51
20
-42.8621
11
132.511
21
-42.8535
0
LINE
8
BLACK
6
CONTINUOUS
10
132.511
20
-42.8535
11
132.512
21
-42.8449
0
LINE
8
BLACK
6
CONTINUOUS
10
132.512
20
-42.8449
11
132.513
21
-42.8413
0
LINE
8
BLACK
6
CONTINUOUS
10
132.513
20
-42.8413
11
132.514
21
-42.8376
0
LINE
8
BLACK
6
CONTINUOUS
10
132.514
20
-42.8376
11
132.517
21
-42.8295
0
LINE
8
BLACK
6
CONTINUOUS
10
132.517
20
-42.8295
11
132.52
21
-42.8213
0
LINE
8
BLACK
6
CONTINUOUS
10
132.52
20
-42.8213
11
132.522
21
-42.818
0
LINE
8
BLACK
6
CONTINUOUS
10
132.522
20
-42.818
11
132.523
21
-42.8145
0
LINE
8
BLACK
6
CONTINUOUS
10
132.523
20
-42.8145
11
132.583
21
-42.6935
0
LINE
8
BLACK
6
CONTINUOUS
10
132.583
20
-42.6935
11
132.584
21
-42.692
0
LINE
8
BLACK
6
CONTINUOUS
10
132.584
20
-42.692
11
132.588
21
-42.686
0
LINE
8
BLACK
6
CONTINUOUS
10
132.588
20
-42.686
11
132.591
21
-42.6797
0
LINE
8
BLACK
6
CONTINUOUS
10
132.591
20
-42.6797
11
132.595
21
-42.6756
0
LINE
8
BLACK
6
CONTINUOUS
10
132.595
20
-42.6756
11
132.598
21
-42.6712
0
LINE
8
BLACK
6
CONTINUOUS
10
132.598
20
-42.6712
11
132.603
21
-42.666
0
LINE
8
BLACK
6
CONTINUOUS
10
132.603
20
-42.666
11
132.607
21
-42.6605
0
LINE
8
BLACK
6
CONTINUOUS
10
132.607
20
-42.6605
11
132.728
21
-42.5396
0
LINE
8
BLACK
6
CONTINUOUS
10
132.728
20
-42.5396
11
132.729
21
-42.5383
0
LINE
8
BLACK
6
CONTINUOUS
10
132.729
20
-42.5383
11
132.736
21
-42.533
0
LINE
8
BLACK
6
CONTINUOUS
10
132.736
20
-42.533
11
132.743
21
-42.5272
0
LINE
8
BLACK
6
CONTINUOUS
10
132.743
20
-42.5272
11
132.746
21
-42.5252
0
LINE
8
BLACK
6
CONTINUOUS
10
132.746
20
-42.5252
11
132.749
21
-42.5229
0
LINE
8
BLACK
6
CONTINUOUS
10
132.749
20
-42.5229
11
132.756
21
-42.5189
0
LINE
8
BLACK
6
CONTINUOUS
10
132.756
20
-42.5189
11
132.764
21
-42.5145
0
LINE
8
BLACK
6
CONTINUOUS
10
132.764
20
-42.5145
11
132.767
21
-42.5132
0
LINE
8
BLACK
6
CONTINUOUS
10
132.767
20
-42.5132
11
132.771
21
-42.5115
0
LINE
8
BLACK
6
CONTINUOUS
10
132.771
20
-42.5115
11
132.779
21
-42.5091
0
LINE
8
BLACK
6
CONTINUOUS
10
132.779
20
-42.5091
11
132.787
21
-42.5062
0
LINE
8
BLACK
6
CONTINUOUS
10
132.787
20
-42.5062
11
133.029
21
-42.4457
0
LINE
8
BLACK
6
CONTINUOUS
10
133.029
20
-42.4457
11
133.031
21
-42.4453
0
LINE
8
BLACK
6
CONTINUOUS
10
133.031
20
-42.4453
11
133.033
21
-42.445
0
LINE
8
BLACK
6
CONTINUOUS
10
133.033
20
-42.445
11
133.035
21
-42.4443
0
LINE
8
BLACK
6
CONTINUOUS
10
133.035
20
-42.4443
11
133.045
21
-42.4433
0
LINE
8
BLACK
6
CONTINUOUS
10
133.045
20
-42.4433
11
133.055
21
-42.442
0
LINE
8
BLACK
6
CONTINUOUS
10
133.055
20
-42.442
11
133.058
21
-42.4421
0
LINE
8
BLACK
6
CONTINUOUS
10
133.058
20
-42.4421
11
133.06
21
-42.4419
0
LINE
8
BLACK
6
CONTINUOUS
10
133.06
20
-42.4419
11
133.483
21
-42.4419
0
LINE
8
BLACK
6
CONTINUOUS
10
133.483
20
-42.4419
11
133.485
21
-42.4419
0
LINE
8
BLACK
6
CONTINUOUS
10
133.075
20
-42.6959
11
132.883
21
-42.7441
0
LINE
8
BLACK
6
CONTINUOUS
10
132.883
20
-42.7441
11
132.801
21
-42.8256
0
LINE
8
BLACK
6
CONTINUOUS
10
132.801
20
-42.8256
11
132.764
21
-42.9013
0
LINE
8
BLACK
6
CONTINUOUS
10
132.764
20
-42.9013
11
132.764
21
-43.0832
0
LINE
8
BLACK
6
CONTINUOUS
10
132.764
20
-43.0832
11
132.801
21
-43.1589
0
LINE
8
BLACK
6
CONTINUOUS
10
132.801
20
-43.1589
11
132.883
21
-43.2404
0
LINE
8
BLACK
6
CONTINUOUS
10
132.883
20
-43.2404
11
133.075
21
-43.2886
0
LINE
8
BLACK
6
CONTINUOUS
10
133.075
20
-43.2886
11
133.468
21
-43.2886
0
LINE
8
BLACK
6
CONTINUOUS
10
133.468
20
-43.2886
11
133.66
21
-43.2404
0
LINE
8
BLACK
6
CONTINUOUS
10
133.66
20
-43.2404
11
133.666
21
-43.2341
0
LINE
8
BLACK
6
CONTINUOUS
10
133.666
20
-43.2341
11
133.575
21
-43.1425
0
LINE
8
BLACK
6
CONTINUOUS
10
133.575
20
-43.1425
11
133.574
21
-43.1413
0
LINE
8
BLACK
6
CONTINUOUS
10
133.574
20
-43.1413
11
133.569
21
-43.1357
0
LINE
8
BLACK
6
CONTINUOUS
10
133.569
20
-43.1357
11
133.564
21
-43.1305
0
LINE
8
BLACK
6
CONTINUOUS
10
133.564
20
-43.1305
11
133.561
21
-43.126
0
LINE
8
BLACK
6
CONTINUOUS
10
133.561
20
-43.126
11
133.558
21
-43.1219
0
LINE
8
BLACK
6
CONTINUOUS
10
133.558
20
-43.1219
11
133.555
21
-43.1156
0
LINE
8
BLACK
6
CONTINUOUS
10
133.555
20
-43.1156
11
133.551
21
-43.1095
0
LINE
8
BLACK
6
CONTINUOUS
10
133.551
20
-43.1095
11
133.491
21
-42.9886
0
LINE
8
BLACK
6
CONTINUOUS
10
133.491
20
-42.9886
11
133.49
21
-42.987
0
LINE
8
BLACK
6
CONTINUOUS
10
133.49
20
-42.987
11
133.488
21
-42.9835
0
LINE
8
BLACK
6
CONTINUOUS
10
133.488
20
-42.9835
11
133.487
21
-42.9802
0
LINE
8
BLACK
6
CONTINUOUS
10
133.487
20
-42.9802
11
133.484
21
-42.9719
0
LINE
8
BLACK
6
CONTINUOUS
10
133.484
20
-42.9719
11
133.481
21
-42.9637
0
LINE
8
BLACK
6
CONTINUOUS
10
133.481
20
-42.9637
11
133.481
21
-42.96
0
LINE
8
BLACK
6
CONTINUOUS
10
133.481
20
-42.96
11
133.48
21
-42.9564
0
LINE
8
BLACK
6
CONTINUOUS
10
133.48
20
-42.9564
11
133.479
21
-42.9478
0
LINE
8
BLACK
6
CONTINUOUS
10
133.479
20
-42.9478
11
133.477
21
-42.9392
0
LINE
8
BLACK
6
CONTINUOUS
10
133.477
20
-42.9392
11
133.478
21
-42.9355
0
LINE
8
BLACK
6
CONTINUOUS
10
133.478
20
-42.9355
11
133.477
21
-42.9318
0
LINE
8
BLACK
6
CONTINUOUS
10
133.477
20
-42.9318
11
133.477
21
-42.8108
0
LINE
8
BLACK
6
CONTINUOUS
10
133.477
20
-42.8108
11
133.477
21
-42.809
0
LINE
8
BLACK
6
CONTINUOUS
10
133.477
20
-42.809
11
133.48
21
-42.7844
0
LINE
8
BLACK
6
CONTINUOUS
10
133.48
20
-42.7844
11
133.487
21
-42.7608
0
LINE
8
BLACK
6
CONTINUOUS
10
133.487
20
-42.7608
11
133.499
21
-42.7391
0
LINE
8
BLACK
6
CONTINUOUS
10
133.499
20
-42.7391
11
133.515
21
-42.7201
0
LINE
8
BLACK
6
CONTINUOUS
10
133.515
20
-42.7201
11
133.527
21
-42.7107
0
LINE
8
BLACK
6
CONTINUOUS
10
133.527
20
-42.7107
11
133.468
21
-42.6959
0
LINE
8
BLACK
6
CONTINUOUS
10
133.468
20
-42.6959
11
133.075
21
-42.6959
0
LINE
8
BLACK
6
CONTINUOUS
10
133.731
20
-42.9018
11
133.769
21
-42.9775
0
LINE
8
BLACK
6
CONTINUOUS
10
133.769
20
-42.9775
11
133.78
21
-42.988
0
LINE
8
BLACK
6
CONTINUOUS
10
133.78
20
-42.988
11
133.78
21
-42.9013
0
LINE
8
BLACK
6
CONTINUOUS
10
133.78
20
-42.9013
11
133.742
21
-42.8256
0
LINE
8
BLACK
6
CONTINUOUS
10
133.742
20
-42.8256
11
133.731
21
-42.815
0
LINE
8
BLACK
6
CONTINUOUS
10
133.731
20
-42.815
11
133.731
21
-42.9018
0
LINE
8
BLACK
6
CONTINUOUS
10
135.631
20
-41.8918
11
135.66
21
-41.904
0
LINE
8
BLACK
6
CONTINUOUS
10
135.66
20
-41.904
11
135.687
21
-41.9216
0
LINE
8
BLACK
6
CONTINUOUS
10
135.687
20
-41.9216
11
135.709
21
-41.9441
0
LINE
8
BLACK
6
CONTINUOUS
10
135.709
20
-41.9441
11
135.727
21
-41.9705
0
LINE
8
BLACK
6
CONTINUOUS
10
135.727
20
-41.9705
11
135.739
21
-41.9999
0
LINE
8
BLACK
6
CONTINUOUS
10
135.739
20
-41.9999
11
135.745
21
-42.0311
0
LINE
8
BLACK
6
CONTINUOUS
10
135.745
20
-42.0311
11
135.745
21
-42.0629
0
LINE
8
BLACK
6
CONTINUOUS
10
135.745
20
-42.0629
11
135.739
21
-42.0941
0
LINE
8
BLACK
6
CONTINUOUS
10
135.739
20
-42.0941
11
135.727
21
-42.1235
0
LINE
8
BLACK
6
CONTINUOUS
10
135.727
20
-42.1235
11
135.709
21
-42.1499
0
LINE
8
BLACK
6
CONTINUOUS
10
135.709
20
-42.1499
11
135.687
21
-42.1724
0
LINE
8
BLACK
6
CONTINUOUS
10
135.687
20
-42.1724
11
135.66
21
-42.19
0
LINE
8
BLACK
6
CONTINUOUS
10
135.66
20
-42.19
11
135.631
21
-42.2022
0
LINE
8
BLACK
6
CONTINUOUS
10
135.631
20
-42.2022
11
135.6
21
-42.2084
0
LINE
8
BLACK
6
CONTINUOUS
10
135.6
20
-42.2084
11
135.568
21
-42.2084
0
LINE
8
BLACK
6
CONTINUOUS
10
135.568
20
-42.2084
11
135.537
21
-42.2022
0
LINE
8
BLACK
6
CONTINUOUS
10
135.537
20
-42.2022
11
135.508
21
-42.19
0
LINE
8
BLACK
6
CONTINUOUS
10
135.508
20
-42.19
11
135.481
21
-42.1724
0
LINE
8
BLACK
6
CONTINUOUS
10
135.481
20
-42.1724
11
135.459
21
-42.1499
0
LINE
8
BLACK
6
CONTINUOUS
10
135.459
20
-42.1499
11
135.441
21
-42.1235
0
LINE
8
BLACK
6
CONTINUOUS
10
135.441
20
-42.1235
11
135.429
21
-42.0941
0
LINE
8
BLACK
6
CONTINUOUS
10
135.429
20
-42.0941
11
135.423
21
-42.0629
0
LINE
8
BLACK
6
CONTINUOUS
10
135.423
20
-42.0629
11
135.423
21
-42.0311
0
LINE
8
BLACK
6
CONTINUOUS
10
135.423
20
-42.0311
11
135.429
21
-41.9999
0
LINE
8
BLACK
6
CONTINUOUS
10
135.429
20
-41.9999
11
135.441
21
-41.9705
0
LINE
8
BLACK
6
CONTINUOUS
10
135.441
20
-41.9705
11
135.459
21
-41.9441
0
LINE
8
BLACK
6
CONTINUOUS
10
135.459
20
-41.9441
11
135.481
21
-41.9216
0
LINE
8
BLACK
6
CONTINUOUS
10
135.481
20
-41.9216
11
135.508
21
-41.904
0
LINE
8
BLACK
6
CONTINUOUS
10
135.508
20
-41.904
11
135.537
21
-41.8918
0
LINE
8
BLACK
6
CONTINUOUS
10
135.537
20
-41.8918
11
135.568
21
-41.8856
0
LINE
8
BLACK
6
CONTINUOUS
10
135.568
20
-41.8856
11
135.6
21
-41.8856
0
LINE
8
BLACK
6
CONTINUOUS
10
135.6
20
-41.8856
11
135.631
21
-41.8918
0
LINE
8
BLACK
6
CONTINUOUS
10
134.22
20
-41.3014
11
134.238
21
-41.3072
0
LINE
8
BLACK
6
CONTINUOUS
10
134.238
20
-41.3072
11
134.256
21
-41.3165
0
LINE
8
BLACK
6
CONTINUOUS
10
134.256
20
-41.3165
11
134.271
21
-41.3289
0
LINE
8
BLACK
6
CONTINUOUS
10
134.271
20
-41.3289
11
134.284
21
-41.3442
0
LINE
8
BLACK
6
CONTINUOUS
10
134.284
20
-41.3442
11
134.293
21
-41.3615
0
LINE
8
BLACK
6
CONTINUOUS
10
134.293
20
-41.3615
11
134.299
21
-41.3804
0
LINE
8
BLACK
6
CONTINUOUS
10
134.299
20
-41.3804
11
134.3
21
-41.4
0
LINE
8
BLACK
6
CONTINUOUS
10
134.3
20
-41.4
11
134.299
21
-41.4196
0
LINE
8
BLACK
6
CONTINUOUS
10
134.299
20
-41.4196
11
134.293
21
-41.4385
0
LINE
8
BLACK
6
CONTINUOUS
10
134.293
20
-41.4385
11
134.287
21
-41.45
0
LINE
8
BLACK
6
CONTINUOUS
10
134.287
20
-41.45
11
134.293
21
-41.4615
0
LINE
8
BLACK
6
CONTINUOUS
10
134.293
20
-41.4615
11
134.299
21
-41.4804
0
LINE
8
BLACK
6
CONTINUOUS
10
134.299
20
-41.4804
11
134.3
21
-41.5
0
LINE
8
BLACK
6
CONTINUOUS
10
134.3
20
-41.5
11
134.299
21
-41.5196
0
LINE
8
BLACK
6
CONTINUOUS
10
134.299
20
-41.5196
11
134.293
21
-41.5385
0
LINE
8
BLACK
6
CONTINUOUS
10
134.293
20
-41.5385
11
134.284
21
-41.5558
0
LINE
8
BLACK
6
CONTINUOUS
10
134.284
20
-41.5558
11
134.271
21
-41.5711
0
LINE
8
BLACK
6
CONTINUOUS
10
134.271
20
-41.5711
11
134.256
21
-41.5835
0
LINE
8
BLACK
6
CONTINUOUS
10
134.256
20
-41.5835
11
134.238
21
-41.5928
0
LINE
8
BLACK
6
CONTINUOUS
10
134.238
20
-41.5928
11
134.22
21
-41.5986
0
LINE
8
BLACK
6
CONTINUOUS
10
134.22
20
-41.5986
11
134.205
21
-41.6
0
LINE
8
BLACK
6
CONTINUOUS
10
134.205
20
-41.6
11
129.195
21
-41.6
0
LINE
8
BLACK
6
CONTINUOUS
10
129.195
20
-41.6
11
129.18
21
-41.5986
0
LINE
8
BLACK
6
CONTINUOUS
10
129.18
20
-41.5986
11
129.162
21
-41.5928
0
LINE
8
BLACK
6
CONTINUOUS
10
129.162
20
-41.5928
11
129.144
21
-41.5835
0
LINE
8
BLACK
6
CONTINUOUS
10
129.144
20
-41.5835
11
129.129
21
-41.5711
0
LINE
8
BLACK
6
CONTINUOUS
10
129.129
20
-41.5711
11
129.116
21
-41.5558
0
LINE
8
BLACK
6
CONTINUOUS
10
129.116
20
-41.5558
11
129.107
21
-41.5385
0
LINE
8
BLACK
6
CONTINUOUS
10
129.107
20
-41.5385
11
129.101
21
-41.5196
0
LINE
8
BLACK
6
CONTINUOUS
10
129.101
20
-41.5196
11
129.1
21
-41.5
0
LINE
8
BLACK
6
CONTINUOUS
10
129.1
20
-41.5
11
129.101
21
-41.4804
0
LINE
8
BLACK
6
CONTINUOUS
10
129.101
20
-41.4804
11
129.107
21
-41.4615
0
LINE
8
BLACK
6
CONTINUOUS
10
129.107
20
-41.4615
11
129.113
21
-41.45
0
LINE
8
BLACK
6
CONTINUOUS
10
129.113
20
-41.45
11
129.107
21
-41.4385
0
LINE
8
BLACK
6
CONTINUOUS
10
129.107
20
-41.4385
11
129.101
21
-41.4196
0
LINE
8
BLACK
6
CONTINUOUS
10
129.101
20
-41.4196
11
129.1
21
-41.4
0
LINE
8
BLACK
6
CONTINUOUS
10
129.1
20
-41.4
11
129.101
21
-41.3804
0
LINE
8
BLACK
6
CONTINUOUS
10
129.101
20
-41.3804
11
129.107
21
-41.3615
0
LINE
8
BLACK
6
CONTINUOUS
10
129.107
20
-41.3615
11
129.116
21
-41.3442
0
LINE
8
BLACK
6
CONTINUOUS
10
129.116
20
-41.3442
11
129.129
21
-41.3289
0
LINE
8
BLACK
6
CONTINUOUS
10
129.129
20
-41.3289
11
129.144
21
-41.3165
0
LINE
8
BLACK
6
CONTINUOUS
10
129.144
20
-41.3165
11
129.162
21
-41.3072
0
LINE
8
BLACK
6
CONTINUOUS
10
129.162
20
-41.3072
11
129.18
21
-41.3014
0
LINE
8
BLACK
6
CONTINUOUS
10
129.18
20
-41.3014
11
129.195
21
-41.3
0
LINE
8
BLACK
6
CONTINUOUS
10
129.195
20
-41.3
11
134.205
21
-41.3
0
LINE
8
BLACK
6
CONTINUOUS
10
134.205
20
-41.3
11
134.22
21
-41.3014
0
LINE
8
BLACK
6
CONTINUOUS
10
133.666
20
-38.6724
11
133.67
21
-38.6728
0
LINE
8
BLACK
6
CONTINUOUS
10
133.67
20
-38.6728
11
133.674
21
-38.6727
0
LINE
8
BLACK
6
CONTINUOUS
10
133.674
20
-38.6727
11
133.682
21
-38.6742
0
LINE
8
BLACK
6
CONTINUOUS
10
133.682
20
-38.6742
11
133.691
21
-38.6752
0
LINE
8
BLACK
6
CONTINUOUS
10
133.691
20
-38.6752
11
133.695
21
-38.6763
0
LINE
8
BLACK
6
CONTINUOUS
10
133.695
20
-38.6763
11
133.698
21
-38.6769
0
LINE
8
BLACK
6
CONTINUOUS
10
133.698
20
-38.6769
11
133.706
21
-38.68
0
LINE
8
BLACK
6
CONTINUOUS
10
133.706
20
-38.68
11
133.715
21
-38.6826
0
LINE
8
BLACK
6
CONTINUOUS
10
133.715
20
-38.6826
11
133.718
21
-38.6844
0
LINE
8
BLACK
6
CONTINUOUS
10
133.718
20
-38.6844
11
133.721
21
-38.6858
0
LINE
8
BLACK
6
CONTINUOUS
10
133.721
20
-38.6858
11
133.842
21
-38.7463
0
LINE
8
BLACK
6
CONTINUOUS
10
133.842
20
-38.7463
11
133.844
21
-38.7471
0
LINE
8
BLACK
6
CONTINUOUS
10
133.844
20
-38.7471
11
133.85
21
-38.751
0
LINE
8
BLACK
6
CONTINUOUS
10
133.85
20
-38.751
11
133.856
21
-38.7543
0
LINE
8
BLACK
6
CONTINUOUS
10
133.856
20
-38.7543
11
133.86
21
-38.7577
0
LINE
8
BLACK
6
CONTINUOUS
10
133.86
20
-38.7577
11
133.865
21
-38.7606
0
LINE
8
BLACK
6
CONTINUOUS
10
133.865
20
-38.7606
11
133.87
21
-38.7655
0
LINE
8
BLACK
6
CONTINUOUS
10
133.87
20
-38.7655
11
133.875
21
-38.7701
0
LINE
8
BLACK
6
CONTINUOUS
10
133.875
20
-38.7701
11
133.936
21
-38.8305
0
LINE
8
BLACK
6
CONTINUOUS
10
133.936
20
-38.8305
11
133.937
21
-38.8318
0
LINE
8
BLACK
6
CONTINUOUS
10
133.937
20
-38.8318
11
133.942
21
-38.8374
0
LINE
8
BLACK
6
CONTINUOUS
10
133.942
20
-38.8374
11
133.946
21
-38.8426
0
LINE
8
BLACK
6
CONTINUOUS
10
133.946
20
-38.8426
11
133.949
21
-38.847
0
LINE
8
BLACK
6
CONTINUOUS
10
133.949
20
-38.847
11
133.953
21
-38.8512
0
LINE
8
BLACK
6
CONTINUOUS
10
133.953
20
-38.8512
11
133.956
21
-38.8575
0
LINE
8
BLACK
6
CONTINUOUS
10
133.956
20
-38.8575
11
133.96
21
-38.8635
0
LINE
8
BLACK
6
CONTINUOUS
10
133.96
20
-38.8635
11
134.02
21
-38.9845
0
LINE
8
BLACK
6
CONTINUOUS
10
134.02
20
-38.9845
11
134.021
21
-38.9861
0
LINE
8
BLACK
6
CONTINUOUS
10
134.021
20
-38.9861
11
134.022
21
-38.9896
0
LINE
8
BLACK
6
CONTINUOUS
10
134.022
20
-38.9896
11
134.024
21
-38.9929
0
LINE
8
BLACK
6
CONTINUOUS
10
134.024
20
-38.9929
11
134.026
21
-39.0012
0
LINE
8
BLACK
6
CONTINUOUS
10
134.026
20
-39.0012
11
134.029
21
-39.0093
0
LINE
8
BLACK
6
CONTINUOUS
10
134.029
20
-39.0093
11
134.03
21
-39.013
0
LINE
8
BLACK
6
CONTINUOUS
10
134.03
20
-39.013
11
134.031
21
-39.0166
0
LINE
8
BLACK
6
CONTINUOUS
10
134.031
20
-39.0166
11
134.032
21
-39.0252
0
LINE
8
BLACK
6
CONTINUOUS
10
134.032
20
-39.0252
11
134.033
21
-39.0338
0
LINE
8
BLACK
6
CONTINUOUS
10
134.033
20
-39.0338
11
134.033
21
-39.0376
0
LINE
8
BLACK
6
CONTINUOUS
10
134.033
20
-39.0376
11
134.034
21
-39.0413
0
LINE
8
BLACK
6
CONTINUOUS
10
134.034
20
-39.0413
11
134.034
21
-39.2832
0
LINE
8
BLACK
6
CONTINUOUS
10
134.034
20
-39.2832
11
134.034
21
-39.285
0
LINE
8
BLACK
6
CONTINUOUS
10
134.034
20
-39.285
11
134.033
21
-39.2887
0
LINE
8
BLACK
6
CONTINUOUS
10
134.033
20
-39.2887
11
134.033
21
-39.2924
0
LINE
8
BLACK
6
CONTINUOUS
10
134.033
20
-39.2924
11
134.032
21
-39.301
0
LINE
8
BLACK
6
CONTINUOUS
10
134.032
20
-39.301
11
134.031
21
-39.3096
0
LINE
8
BLACK
6
CONTINUOUS
10
134.031
20
-39.3096
11
134.03
21
-39.3132
0
LINE
8
BLACK
6
CONTINUOUS
10
134.03
20
-39.3132
11
134.029
21
-39.3168
0
LINE
8
BLACK
6
CONTINUOUS
10
134.029
20
-39.3168
11
134.026
21
-39.3249
0
LINE
8
BLACK
6
CONTINUOUS
10
134.026
20
-39.3249
11
134.023
21
-39.3332
0
LINE
8
BLACK
6
CONTINUOUS
10
134.023
20
-39.3332
11
134.021
21
-39.3365
0
LINE
8
BLACK
6
CONTINUOUS
10
134.021
20
-39.3365
11
134.02
21
-39.34
0
LINE
8
BLACK
6
CONTINUOUS
10
134.02
20
-39.34
11
133.96
21
-39.4609
0
LINE
8
BLACK
6
CONTINUOUS
10
133.96
20
-39.4609
11
133.959
21
-39.4625
0
LINE
8
BLACK
6
CONTINUOUS
10
133.959
20
-39.4625
11
133.955
21
-39.4685
0
LINE
8
BLACK
6
CONTINUOUS
10
133.955
20
-39.4685
11
133.952
21
-39.4748
0
LINE
8
BLACK
6
CONTINUOUS
10
133.952
20
-39.4748
11
133.948
21
-39.4789
0
LINE
8
BLACK
6
CONTINUOUS
10
133.948
20
-39.4789
11
133.945
21
-39.4833
0
LINE
8
BLACK
6
CONTINUOUS
10
133.945
20
-39.4833
11
133.94
21
-39.4884
0
LINE
8
BLACK
6
CONTINUOUS
10
133.94
20
-39.4884
11
133.936
21
-39.4939
0
LINE
8
BLACK
6
CONTINUOUS
10
133.936
20
-39.4939
11
133.875
21
-39.5544
0
LINE
8
BLACK
6
CONTINUOUS
10
133.875
20
-39.5544
11
133.874
21
-39.5557
0
LINE
8
BLACK
6
CONTINUOUS
10
133.874
20
-39.5557
11
133.869
21
-39.5601
0
LINE
8
BLACK
6
CONTINUOUS
10
133.869
20
-39.5601
11
133.863
21
-39.565
0
LINE
8
BLACK
6
CONTINUOUS
10
133.863
20
-39.565
11
133.859
21
-39.5678
0
LINE
8
BLACK
6
CONTINUOUS
10
133.859
20
-39.5678
11
133.855
21
-39.5711
0
LINE
8
BLACK
6
CONTINUOUS
10
133.855
20
-39.5711
11
133.848
21
-39.5744
0
LINE
8
BLACK
6
CONTINUOUS
10
133.848
20
-39.5744
11
133.842
21
-39.5782
0
LINE
8
BLACK
6
CONTINUOUS
10
133.842
20
-39.5782
11
133.721
21
-39.6387
0
LINE
8
BLACK
6
CONTINUOUS
10
133.721
20
-39.6387
11
133.72
21
-39.6395
0
LINE
8
BLACK
6
CONTINUOUS
10
133.72
20
-39.6395
11
133.716
21
-39.6408
0
LINE
8
BLACK
6
CONTINUOUS
10
133.716
20
-39.6408
11
133.713
21
-39.6425
0
LINE
8
BLACK
6
CONTINUOUS
10
133.713
20
-39.6425
11
133.705
21
-39.645
0
LINE
8
BLACK
6
CONTINUOUS
10
133.705
20
-39.645
11
133.697
21
-39.648
0
LINE
8
BLACK
6
CONTINUOUS
10
133.697
20
-39.648
11
133.693
21
-39.6486
0
LINE
8
BLACK
6
CONTINUOUS
10
133.693
20
-39.6486
11
133.689
21
-39.6497
0
LINE
8
BLACK
6
CONTINUOUS
10
133.689
20
-39.6497
11
133.681
21
-39.6505
0
LINE
8
BLACK
6
CONTINUOUS
10
133.681
20
-39.6505
11
133.672
21
-39.6519
0
LINE
8
BLACK
6
CONTINUOUS
10
133.672
20
-39.6519
11
133.668
21
-39.6517
0
LINE
8
BLACK
6
CONTINUOUS
10
133.668
20
-39.6517
11
133.665
21
-39.6521
0
LINE
8
BLACK
6
CONTINUOUS
10
133.665
20
-39.6521
11
133.362
21
-39.6521
0
LINE
8
BLACK
6
CONTINUOUS
10
133.362
20
-39.6521
11
133.36
21
-39.6521
0
LINE
8
BLACK
6
CONTINUOUS
10
133.36
20
-39.6521
11
133.357
21
-39.6517
0
LINE
8
BLACK
6
CONTINUOUS
10
133.357
20
-39.6517
11
133.353
21
-39.6518
0
LINE
8
BLACK
6
CONTINUOUS
10
133.353
20
-39.6518
11
133.344
21
-39.6503
0
LINE
8
BLACK
6
CONTINUOUS
10
133.344
20
-39.6503
11
133.336
21
-39.6493
0
LINE
8
BLACK
6
CONTINUOUS
10
133.336
20
-39.6493
11
133.332
21
-39.6482
0
LINE
8
BLACK
6
CONTINUOUS
10
133.332
20
-39.6482
11
133.329
21
-39.6476
0
LINE
8
BLACK
6
CONTINUOUS
10
133.329
20
-39.6476
11
133.32
21
-39.6445
0
LINE
8
BLACK
6
CONTINUOUS
10
133.32
20
-39.6445
11
133.312
21
-39.6418
0
LINE
8
BLACK
6
CONTINUOUS
10
133.312
20
-39.6418
11
133.309
21
-39.64
0
LINE
8
BLACK
6
CONTINUOUS
10
133.309
20
-39.64
11
133.305
21
-39.6387
0
LINE
8
BLACK
6
CONTINUOUS
10
133.305
20
-39.6387
11
133.184
21
-39.5782
0
LINE
8
BLACK
6
CONTINUOUS
10
133.184
20
-39.5782
11
133.183
21
-39.5774
0
LINE
8
BLACK
6
CONTINUOUS
10
133.183
20
-39.5774
11
133.177
21
-39.5735
0
LINE
8
BLACK
6
CONTINUOUS
10
133.177
20
-39.5735
11
133.171
21
-39.5702
0
LINE
8
BLACK
6
CONTINUOUS
10
133.171
20
-39.5702
11
133.167
21
-39.5668
0
LINE
8
BLACK
6
CONTINUOUS
10
133.167
20
-39.5668
11
133.162
21
-39.5639
0
LINE
8
BLACK
6
CONTINUOUS
10
133.162
20
-39.5639
11
133.157
21
-39.5589
0
LINE
8
BLACK
6
CONTINUOUS
10
133.157
20
-39.5589
11
133.151
21
-39.5544
0
LINE
8
BLACK
6
CONTINUOUS
10
133.151
20
-39.5544
11
133.091
21
-39.4939
0
LINE
8
BLACK
6
CONTINUOUS
10
133.091
20
-39.4939
11
133.09
21
-39.4927
0
LINE
8
BLACK
6
CONTINUOUS
10
133.09
20
-39.4927
11
133.085
21
-39.4871
0
LINE
8
BLACK
6
CONTINUOUS
10
133.085
20
-39.4871
11
133.08
21
-39.4819
0
LINE
8
BLACK
6
CONTINUOUS
10
133.08
20
-39.4819
11
133.078
21
-39.4774
0
LINE
8
BLACK
6
CONTINUOUS
10
133.078
20
-39.4774
11
133.074
21
-39.4733
0
LINE
8
BLACK
6
CONTINUOUS
10
133.074
20
-39.4733
11
133.071
21
-39.467
0
LINE
8
BLACK
6
CONTINUOUS
10
133.071
20
-39.467
11
133.067
21
-39.4609
0
LINE
8
BLACK
6
CONTINUOUS
10
133.067
20
-39.4609
11
133.007
21
-39.34
0
LINE
8
BLACK
6
CONTINUOUS
10
133.007
20
-39.34
11
133.006
21
-39.3384
0
LINE
8
BLACK
6
CONTINUOUS
10
133.006
20
-39.3384
11
133.005
21
-39.3349
0
LINE
8
BLACK
6
CONTINUOUS
10
133.005
20
-39.3349
11
133.003
21
-39.3316
0
LINE
8
BLACK
6
CONTINUOUS
10
133.003
20
-39.3316
11
133
21
-39.3233
0
LINE
8
BLACK
6
CONTINUOUS
10
133
20
-39.3233
11
132.997
21
-39.3151
0
LINE
8
BLACK
6
CONTINUOUS
10
132.997
20
-39.3151
11
132.997
21
-39.3114
0
LINE
8
BLACK
6
CONTINUOUS
10
132.997
20
-39.3114
11
132.996
21
-39.3079
0
LINE
8
BLACK
6
CONTINUOUS
10
132.996
20
-39.3079
11
132.995
21
-39.2992
0
LINE
8
BLACK
6
CONTINUOUS
10
132.995
20
-39.2992
11
132.994
21
-39.2906
0
LINE
8
BLACK
6
CONTINUOUS
10
132.994
20
-39.2906
11
132.994
21
-39.2869
0
LINE
8
BLACK
6
CONTINUOUS
10
132.994
20
-39.2869
11
132.993
21
-39.2832
0
LINE
8
BLACK
6
CONTINUOUS
10
132.993
20
-39.2832
11
132.993
21
-39.0413
0
LINE
8
BLACK
6
CONTINUOUS
10
132.993
20
-39.0413
11
132.993
21
-39.0395
0
LINE
8
BLACK
6
CONTINUOUS
10
132.993
20
-39.0395
11
132.994
21
-39.0358
0
LINE
8
BLACK
6
CONTINUOUS
10
132.994
20
-39.0358
11
132.994
21
-39.0321
0
LINE
8
BLACK
6
CONTINUOUS
10
132.994
20
-39.0321
11
132.995
21
-39.0235
0
LINE
8
BLACK
6
CONTINUOUS
10
132.995
20
-39.0235
11
132.996
21
-39.0149
0
LINE
8
BLACK
6
CONTINUOUS
10
132.996
20
-39.0149
11
132.997
21
-39.0113
0
LINE
8
BLACK
6
CONTINUOUS
10
132.997
20
-39.0113
11
132.998
21
-39.0076
0
LINE
8
BLACK
6
CONTINUOUS
10
132.998
20
-39.0076
11
133.001
21
-38.9995
0
LINE
8
BLACK
6
CONTINUOUS
10
133.001
20
-38.9995
11
133.004
21
-38.9913
0
LINE
8
BLACK
6
CONTINUOUS
10
133.004
20
-38.9913
11
133.005
21
-38.988
0
LINE
8
BLACK
6
CONTINUOUS
10
133.005
20
-38.988
11
133.007
21
-38.9845
0
LINE
8
BLACK
6
CONTINUOUS
10
133.007
20
-38.9845
11
133.013
21
-38.9723
0
LINE
8
BLACK
6
CONTINUOUS
10
133.013
20
-38.9723
11
132.991
21
-38.9777
0
LINE
8
BLACK
6
CONTINUOUS
10
132.991
20
-38.9777
11
132.838
21
-39.0795
0
LINE
8
BLACK
6
CONTINUOUS
10
132.838
20
-39.0795
11
132.801
21
-39.1165
0
LINE
8
BLACK
6
CONTINUOUS
10
132.801
20
-39.1165
11
132.764
21
-39.1922
0
LINE
8
BLACK
6
CONTINUOUS
10
132.764
20
-39.1922
11
132.764
21
-39.4041
0
LINE
8
BLACK
6
CONTINUOUS
10
132.764
20
-39.4041
11
132.764
21
-39.4059
0
LINE
8
BLACK
6
CONTINUOUS
10
132.764
20
-39.4059
11
132.761
21
-39.4305
0
LINE
8
BLACK
6
CONTINUOUS
10
132.761
20
-39.4305
11
132.753
21
-39.4542
0
LINE
8
BLACK
6
CONTINUOUS
10
132.753
20
-39.4542
11
132.741
21
-39.4759
0
LINE
8
BLACK
6
CONTINUOUS
10
132.741
20
-39.4759
11
132.725
21
-39.4949
0
LINE
8
BLACK
6
CONTINUOUS
10
132.725
20
-39.4949
11
132.706
21
-39.5104
0
LINE
8
BLACK
6
CONTINUOUS
10
132.706
20
-39.5104
11
132.684
21
-39.5219
0
LINE
8
BLACK
6
CONTINUOUS
10
132.684
20
-39.5219
11
132.66
21
-39.5289
0
LINE
8
BLACK
6
CONTINUOUS
10
132.66
20
-39.5289
11
132.636
21
-39.5311
0
LINE
8
BLACK
6
CONTINUOUS
10
132.636
20
-39.5311
11
132.611
21
-39.5285
0
LINE
8
BLACK
6
CONTINUOUS
10
132.611
20
-39.5285
11
132.587
21
-39.5212
0
LINE
8
BLACK
6
CONTINUOUS
10
132.587
20
-39.5212
11
132.566
21
-39.5094
0
LINE
8
BLACK
6
CONTINUOUS
10
132.566
20
-39.5094
11
132.546
21
-39.4936
0
LINE
8
BLACK
6
CONTINUOUS
10
132.546
20
-39.4936
11
132.531
21
-39.4744
0
LINE
8
BLACK
6
CONTINUOUS
10
132.531
20
-39.4744
11
132.519
21
-39.4525
0
LINE
8
BLACK
6
CONTINUOUS
10
132.519
20
-39.4525
11
132.512
21
-39.4288
0
LINE
8
BLACK
6
CONTINUOUS
10
132.512
20
-39.4288
11
132.51
21
-39.4041
0
LINE
8
BLACK
6
CONTINUOUS
10
132.51
20
-39.4041
11
132.51
21
-39.1622
0
LINE
8
BLACK
6
CONTINUOUS
10
132.51
20
-39.1622
11
132.51
21
-39.1605
0
LINE
8
BLACK
6
CONTINUOUS
10
132.51
20
-39.1605
11
132.51
21
-39.1567
0
LINE
8
BLACK
6
CONTINUOUS
10
132.51
20
-39.1567
11
132.51
21
-39.153
0
LINE
8
BLACK
6
CONTINUOUS
10
132.51
20
-39.153
11
132.511
21
-39.1445
0
LINE
8
BLACK
6
CONTINUOUS
10
132.511
20
-39.1445
11
132.512
21
-39.1358
0
LINE
8
BLACK
6
CONTINUOUS
10
132.512
20
-39.1358
11
132.513
21
-39.1323
0
LINE
8
BLACK
6
CONTINUOUS
10
132.513
20
-39.1323
11
132.514
21
-39.1286
0
LINE
8
BLACK
6
CONTINUOUS
10
132.514
20
-39.1286
11
132.517
21
-39.1205
0
LINE
8
BLACK
6
CONTINUOUS
10
132.517
20
-39.1205
11
132.52
21
-39.1122
0
LINE
8
BLACK
6
CONTINUOUS
10
132.52
20
-39.1122
11
132.522
21
-39.1089
0
LINE
8
BLACK
6
CONTINUOUS
10
132.522
20
-39.1089
11
132.523
21
-39.1054
0
LINE
8
BLACK
6
CONTINUOUS
10
132.523
20
-39.1054
11
132.583
21
-38.9845
0
LINE
8
BLACK
6
CONTINUOUS
10
132.583
20
-38.9845
11
132.584
21
-38.9829
0
LINE
8
BLACK
6
CONTINUOUS
10
132.584
20
-38.9829
11
132.588
21
-38.9769
0
LINE
8
BLACK
6
CONTINUOUS
10
132.588
20
-38.9769
11
132.591
21
-38.9706
0
LINE
8
BLACK
6
CONTINUOUS
10
132.591
20
-38.9706
11
132.595
21
-38.9666
0
LINE
8
BLACK
6
CONTINUOUS
10
132.595
20
-38.9666
11
132.598
21
-38.9621
0
LINE
8
BLACK
6
CONTINUOUS
10
132.598
20
-38.9621
11
132.603
21
-38.957
0
LINE
8
BLACK
6
CONTINUOUS
10
132.603
20
-38.957
11
132.607
21
-38.9515
0
LINE
8
BLACK
6
CONTINUOUS
10
132.607
20
-38.9515
11
132.668
21
-38.891
0
LINE
8
BLACK
6
CONTINUOUS
10
132.668
20
-38.891
11
132.669
21
-38.8898
0
LINE
8
BLACK
6
CONTINUOUS
10
132.669
20
-38.8898
11
132.678
21
-38.8825
0
LINE
8
BLACK
6
CONTINUOUS
10
132.678
20
-38.8825
11
132.687
21
-38.8751
0
LINE
8
BLACK
6
CONTINUOUS
10
132.687
20
-38.8751
11
132.868
21
-38.7542
0
LINE
8
BLACK
6
CONTINUOUS
10
132.868
20
-38.7542
11
132.87
21
-38.7532
0
LINE
8
BLACK
6
CONTINUOUS
10
132.87
20
-38.7532
11
132.877
21
-38.7493
0
LINE
8
BLACK
6
CONTINUOUS
10
132.877
20
-38.7493
11
132.885
21
-38.745
0
LINE
8
BLACK
6
CONTINUOUS
10
132.885
20
-38.745
11
132.888
21
-38.7437
0
LINE
8
BLACK
6
CONTINUOUS
10
132.888
20
-38.7437
11
132.892
21
-38.7418
0
LINE
8
BLACK
6
CONTINUOUS
10
132.892
20
-38.7418
11
132.9
21
-38.7395
0
LINE
8
BLACK
6
CONTINUOUS
10
132.9
20
-38.7395
11
132.908
21
-38.7366
0
LINE
8
BLACK
6
CONTINUOUS
10
132.908
20
-38.7366
11
133.15
21
-38.6762
0
LINE
8
BLACK
6
CONTINUOUS
10
133.15
20
-38.6762
11
133.152
21
-38.6758
0
LINE
8
BLACK
6
CONTINUOUS
10
133.152
20
-38.6758
11
133.154
21
-38.6755
0
LINE
8
BLACK
6
CONTINUOUS
10
133.154
20
-38.6755
11
133.156
21
-38.6748
0
LINE
8
BLACK
6
CONTINUOUS
10
133.156
20
-38.6748
11
133.166
21
-38.6738
0
LINE
8
BLACK
6
CONTINUOUS
10
133.166
20
-38.6738
11
133.176
21
-38.6725
0
LINE
8
BLACK
6
CONTINUOUS
10
133.176
20
-38.6725
11
133.179
21
-38.6726
0
LINE
8
BLACK
6
CONTINUOUS
10
133.179
20
-38.6726
11
133.181
21
-38.6724
0
LINE
8
BLACK
6
CONTINUOUS
10
133.181
20
-38.6724
11
133.665
21
-38.6724
0
LINE
8
BLACK
6
CONTINUOUS
10
133.665
20
-38.6724
11
133.666
21
-38.6724
0
LINE
8
BLACK
6
CONTINUOUS
10
133.392
20
-38.9264
11
133.317
21
-38.9642
0
LINE
8
BLACK
6
CONTINUOUS
10
133.317
20
-38.9642
11
133.285
21
-38.9956
0
LINE
8
BLACK
6
CONTINUOUS
10
133.285
20
-38.9956
11
133.247
21
-39.0713
0
LINE
8
BLACK
6
CONTINUOUS
10
133.247
20
-39.0713
11
133.247
21
-39.2532
0
LINE
8
BLACK
6
CONTINUOUS
10
133.247
20
-39.2532
11
133.285
21
-39.3289
0
LINE
8
BLACK
6
CONTINUOUS
10
133.285
20
-39.3289
11
133.317
21
-39.3602
0
LINE
8
BLACK
6
CONTINUOUS
10
133.317
20
-39.3602
11
133.392
21
-39.3981
0
LINE
8
BLACK
6
CONTINUOUS
10
133.392
20
-39.3981
11
133.635
21
-39.3981
0
LINE
8
BLACK
6
CONTINUOUS
10
133.635
20
-39.3981
11
133.71
21
-39.3602
0
LINE
8
BLACK
6
CONTINUOUS
10
133.71
20
-39.3602
11
133.742
21
-39.3289
0
LINE
8
BLACK
6
CONTINUOUS
10
133.742
20
-39.3289
11
133.78
21
-39.2532
0
LINE
8
BLACK
6
CONTINUOUS
10
133.78
20
-39.2532
11
133.78
21
-39.0713
0
LINE
8
BLACK
6
CONTINUOUS
10
133.78
20
-39.0713
11
133.742
21
-38.9956
0
LINE
8
BLACK
6
CONTINUOUS
10
133.742
20
-38.9956
11
133.71
21
-38.9642
0
LINE
8
BLACK
6
CONTINUOUS
10
133.71
20
-38.9642
11
133.635
21
-38.9264
0
LINE
8
BLACK
6
CONTINUOUS
10
133.635
20
-38.9264
11
133.392
21
-38.9264
0
LINE
8
BLACK
6
CONTINUOUS
10
133.485
20
-37.3419
11
133.487
21
-37.3422
0
LINE
8
BLACK
6
CONTINUOUS
10
133.487
20
-37.3422
11
133.489
21
-37.3421
0
LINE
8
BLACK
6
CONTINUOUS
10
133.489
20
-37.3421
11
133.499
21
-37.3435
0
LINE
8
BLACK
6
CONTINUOUS
10
133.499
20
-37.3435
11
133.51
21
-37.3447
0
LINE
8
BLACK
6
CONTINUOUS
10
133.51
20
-37.3447
11
133.512
21
-37.3454
0
LINE
8
BLACK
6
CONTINUOUS
10
133.512
20
-37.3454
11
133.514
21
-37.3457
0
LINE
8
BLACK
6
CONTINUOUS
10
133.514
20
-37.3457
11
133.756
21
-37.4062
0
LINE
8
BLACK
6
CONTINUOUS
10
133.756
20
-37.4062
11
133.758
21
-37.4066
0
LINE
8
BLACK
6
CONTINUOUS
10
133.758
20
-37.4066
11
133.766
21
-37.4096
0
LINE
8
BLACK
6
CONTINUOUS
10
133.766
20
-37.4096
11
133.774
21
-37.4121
0
LINE
8
BLACK
6
CONTINUOUS
10
133.774
20
-37.4121
11
133.777
21
-37.4139
0
LINE
8
BLACK
6
CONTINUOUS
10
133.777
20
-37.4139
11
133.781
21
-37.4153
0
LINE
8
BLACK
6
CONTINUOUS
10
133.781
20
-37.4153
11
133.788
21
-37.4198
0
LINE
8
BLACK
6
CONTINUOUS
10
133.788
20
-37.4198
11
133.796
21
-37.4238
0
LINE
8
BLACK
6
CONTINUOUS
10
133.796
20
-37.4238
11
133.799
21
-37.4263
0
LINE
8
BLACK
6
CONTINUOUS
10
133.799
20
-37.4263
11
133.802
21
-37.4283
0
LINE
8
BLACK
6
CONTINUOUS
10
133.802
20
-37.4283
11
133.808
21
-37.4341
0
LINE
8
BLACK
6
CONTINUOUS
10
133.808
20
-37.4341
11
133.815
21
-37.4396
0
LINE
8
BLACK
6
CONTINUOUS
10
133.815
20
-37.4396
11
133.936
21
-37.5605
0
LINE
8
BLACK
6
CONTINUOUS
10
133.936
20
-37.5605
11
133.937
21
-37.5618
0
LINE
8
BLACK
6
CONTINUOUS
10
133.937
20
-37.5618
11
133.942
21
-37.5674
0
LINE
8
BLACK
6
CONTINUOUS
10
133.942
20
-37.5674
11
133.946
21
-37.5726
0
LINE
8
BLACK
6
CONTINUOUS
10
133.946
20
-37.5726
11
133.949
21
-37.577
0
LINE
8
BLACK
6
CONTINUOUS
10
133.949
20
-37.577
11
133.953
21
-37.5812
0
LINE
8
BLACK
6
CONTINUOUS
10
133.953
20
-37.5812
11
133.956
21
-37.5875
0
LINE
8
BLACK
6
CONTINUOUS
10
133.956
20
-37.5875
11
133.96
21
-37.5935
0
LINE
8
BLACK
6
CONTINUOUS
10
133.96
20
-37.5935
11
134.02
21
-37.7145
0
LINE
8
BLACK
6
CONTINUOUS
10
134.02
20
-37.7145
11
134.021
21
-37.7161
0
LINE
8
BLACK
6
CONTINUOUS
10
134.021
20
-37.7161
11
134.022
21
-37.7196
0
LINE
8
BLACK
6
CONTINUOUS
10
134.022
20
-37.7196
11
134.024
21
-37.7229
0
LINE
8
BLACK
6
CONTINUOUS
10
134.024
20
-37.7229
11
134.026
21
-37.7312
0
LINE
8
BLACK
6
CONTINUOUS
10
134.026
20
-37.7312
11
134.029
21
-37.7393
0
LINE
8
BLACK
6
CONTINUOUS
10
134.029
20
-37.7393
11
134.03
21
-37.743
0
LINE
8
BLACK
6
CONTINUOUS
10
134.03
20
-37.743
11
134.031
21
-37.7466
0
LINE
8
BLACK
6
CONTINUOUS
10
134.031
20
-37.7466
11
134.032
21
-37.7552
0
LINE
8
BLACK
6
CONTINUOUS
10
134.032
20
-37.7552
11
134.033
21
-37.7638
0
LINE
8
BLACK
6
CONTINUOUS
10
134.033
20
-37.7638
11
134.033
21
-37.7676
0
LINE
8
BLACK
6
CONTINUOUS
10
134.033
20
-37.7676
11
134.034
21
-37.7713
0
LINE
8
BLACK
6
CONTINUOUS
10
134.034
20
-37.7713
11
134.034
21
-38.0132
0
LINE
8
BLACK
6
CONTINUOUS
10
134.034
20
-38.0132
11
134.034
21
-38.015
0
LINE
8
BLACK
6
CONTINUOUS
10
134.034
20
-38.015
11
134.033
21
-38.0187
0
LINE
8
BLACK
6
CONTINUOUS
10
134.033
20
-38.0187
11
134.033
21
-38.0224
0
LINE
8
BLACK
6
CONTINUOUS
10
134.033
20
-38.0224
11
134.032
21
-38.031
0
LINE
8
BLACK
6
CONTINUOUS
10
134.032
20
-38.031
11
134.031
21
-38.0396
0
LINE
8
BLACK
6
CONTINUOUS
10
134.031
20
-38.0396
11
134.03
21
-38.0432
0
LINE
8
BLACK
6
CONTINUOUS
10
134.03
20
-38.0432
11
134.029
21
-38.0468
0
LINE
8
BLACK
6
CONTINUOUS
10
134.029
20
-38.0468
11
134.026
21
-38.0549
0
LINE
8
BLACK
6
CONTINUOUS
10
134.026
20
-38.0549
11
134.023
21
-38.0632
0
LINE
8
BLACK
6
CONTINUOUS
10
134.023
20
-38.0632
11
134.021
21
-38.0665
0
LINE
8
BLACK
6
CONTINUOUS
10
134.021
20
-38.0665
11
134.02
21
-38.07
0
LINE
8
BLACK
6
CONTINUOUS
10
134.02
20
-38.07
11
134.001
21
-38.1091
0
LINE
8
BLACK
6
CONTINUOUS
10
134.001
20
-38.1091
11
134.057
21
-38.1653
0
LINE
8
BLACK
6
CONTINUOUS
10
134.057
20
-38.1653
11
134.058
21
-38.1666
0
LINE
8
BLACK
6
CONTINUOUS
10
134.058
20
-38.1666
11
134.063
21
-38.1721
0
LINE
8
BLACK
6
CONTINUOUS
10
134.063
20
-38.1721
11
134.067
21
-38.1773
0
LINE
8
BLACK
6
CONTINUOUS
10
134.067
20
-38.1773
11
134.07
21
-38.1818
0
LINE
8
BLACK
6
CONTINUOUS
10
134.07
20
-38.1818
11
134.074
21
-38.1859
0
LINE
8
BLACK
6
CONTINUOUS
10
134.074
20
-38.1859
11
134.077
21
-38.1923
0
LINE
8
BLACK
6
CONTINUOUS
10
134.077
20
-38.1923
11
134.081
21
-38.1983
0
LINE
8
BLACK
6
CONTINUOUS
10
134.081
20
-38.1983
11
134.141
21
-38.3192
0
LINE
8
BLACK
6
CONTINUOUS
10
134.141
20
-38.3192
11
134.142
21
-38.3208
0
LINE
8
BLACK
6
CONTINUOUS
10
134.142
20
-38.3208
11
134.15
21
-38.3441
0
LINE
8
BLACK
6
CONTINUOUS
10
134.15
20
-38.3441
11
134.154
21
-38.3686
0
LINE
8
BLACK
6
CONTINUOUS
10
134.154
20
-38.3686
11
134.153
21
-38.3934
0
LINE
8
BLACK
6
CONTINUOUS
10
134.153
20
-38.3934
11
134.148
21
-38.4175
0
LINE
8
BLACK
6
CONTINUOUS
10
134.148
20
-38.4175
11
134.137
21
-38.44
0
LINE
8
BLACK
6
CONTINUOUS
10
134.137
20
-38.44
11
134.123
21
-38.4601
0
LINE
8
BLACK
6
CONTINUOUS
10
134.123
20
-38.4601
11
134.105
21
-38.477
0
LINE
8
BLACK
6
CONTINUOUS
10
134.105
20
-38.477
11
134.083
21
-38.49
0
LINE
8
BLACK
6
CONTINUOUS
10
134.083
20
-38.49
11
134.06
21
-38.4987
0
LINE
8
BLACK
6
CONTINUOUS
10
134.06
20
-38.4987
11
134.036
21
-38.5028
0
LINE
8
BLACK
6
CONTINUOUS
10
134.036
20
-38.5028
11
134.011
21
-38.502
0
LINE
8
BLACK
6
CONTINUOUS
10
134.011
20
-38.502
11
133.987
21
-38.4964
0
LINE
8
BLACK
6
CONTINUOUS
10
133.987
20
-38.4964
11
133.964
21
-38.4862
0
LINE
8
BLACK
6
CONTINUOUS
10
133.964
20
-38.4862
11
133.944
21
-38.4718
0
LINE
8
BLACK
6
CONTINUOUS
10
133.944
20
-38.4718
11
133.927
21
-38.4538
0
LINE
8
BLACK
6
CONTINUOUS
10
133.927
20
-38.4538
11
133.914
21
-38.4328
0
LINE
8
BLACK
6
CONTINUOUS
10
133.914
20
-38.4328
11
133.863
21
-38.3303
0
LINE
8
BLACK
6
CONTINUOUS
10
133.863
20
-38.3303
11
133.846
21
-38.3137
0
LINE
8
BLACK
6
CONTINUOUS
10
133.846
20
-38.3137
11
133.815
21
-38.3449
0
LINE
8
BLACK
6
CONTINUOUS
10
133.815
20
-38.3449
11
133.814
21
-38.3461
0
LINE
8
BLACK
6
CONTINUOUS
10
133.814
20
-38.3461
11
133.807
21
-38.3515
0
LINE
8
BLACK
6
CONTINUOUS
10
133.807
20
-38.3515
11
133.801
21
-38.3573
0
LINE
8
BLACK
6
CONTINUOUS
10
133.801
20
-38.3573
11
133.797
21
-38.3592
0
LINE
8
BLACK
6
CONTINUOUS
10
133.797
20
-38.3592
11
133.794
21
-38.3616
0
LINE
8
BLACK
6
CONTINUOUS
10
133.794
20
-38.3616
11
133.787
21
-38.3656
0
LINE
8
BLACK
6
CONTINUOUS
10
133.787
20
-38.3656
11
133.779
21
-38.37
0
LINE
8
BLACK
6
CONTINUOUS
10
133.779
20
-38.37
11
133.776
21
-38.3713
0
LINE
8
BLACK
6
CONTINUOUS
10
133.776
20
-38.3713
11
133.772
21
-38.373
0
LINE
8
BLACK
6
CONTINUOUS
10
133.772
20
-38.373
11
133.764
21
-38.3754
0
LINE
8
BLACK
6
CONTINUOUS
10
133.764
20
-38.3754
11
133.756
21
-38.3783
0
LINE
8
BLACK
6
CONTINUOUS
10
133.756
20
-38.3783
11
133.514
21
-38.4388
0
LINE
8
BLACK
6
CONTINUOUS
10
133.514
20
-38.4388
11
133.512
21
-38.4392
0
LINE
8
BLACK
6
CONTINUOUS
10
133.512
20
-38.4392
11
133.51
21
-38.4395
0
LINE
8
BLACK
6
CONTINUOUS
10
133.51
20
-38.4395
11
133.508
21
-38.4402
0
LINE
8
BLACK
6
CONTINUOUS
10
133.508
20
-38.4402
11
133.498
21
-38.4411
0
LINE
8
BLACK
6
CONTINUOUS
10
133.498
20
-38.4411
11
133.488
21
-38.4425
0
LINE
8
BLACK
6
CONTINUOUS
10
133.488
20
-38.4425
11
133.485
21
-38.4423
0
LINE
8
BLACK
6
CONTINUOUS
10
133.485
20
-38.4423
11
133.483
21
-38.4426
0
LINE
8
BLACK
6
CONTINUOUS
10
133.483
20
-38.4426
11
133.06
21
-38.4426
0
LINE
8
BLACK
6
CONTINUOUS
10
133.06
20
-38.4426
11
133.058
21
-38.4426
0
LINE
8
BLACK
6
CONTINUOUS
10
133.058
20
-38.4426
11
133.056
21
-38.4423
0
LINE
8
BLACK
6
CONTINUOUS
10
133.056
20
-38.4423
11
133.054
21
-38.4424
0
LINE
8
BLACK
6
CONTINUOUS
10
133.054
20
-38.4424
11
133.044
21
-38.4409
0
LINE
8
BLACK
6
CONTINUOUS
10
133.044
20
-38.4409
11
133.033
21
-38.4398
0
LINE
8
BLACK
6
CONTINUOUS
10
133.033
20
-38.4398
11
133.031
21
-38.4391
0
LINE
8
BLACK
6
CONTINUOUS
10
133.031
20
-38.4391
11
133.029
21
-38.4388
0
LINE
8
BLACK
6
CONTINUOUS
10
133.029
20
-38.4388
11
132.787
21
-38.3783
0
LINE
8
BLACK
6
CONTINUOUS
10
132.787
20
-38.3783
11
132.785
21
-38.3779
0
LINE
8
BLACK
6
CONTINUOUS
10
132.785
20
-38.3779
11
132.777
21
-38.3749
0
LINE
8
BLACK
6
CONTINUOUS
10
132.777
20
-38.3749
11
132.769
21
-38.3723
0
LINE
8
BLACK
6
CONTINUOUS
10
132.769
20
-38.3723
11
132.766
21
-38.3705
0
LINE
8
BLACK
6
CONTINUOUS
10
132.766
20
-38.3705
11
132.762
21
-38.3692
0
LINE
8
BLACK
6
CONTINUOUS
10
132.762
20
-38.3692
11
132.755
21
-38.3647
0
LINE
8
BLACK
6
CONTINUOUS
10
132.755
20
-38.3647
11
132.747
21
-38.3606
0
LINE
8
BLACK
6
CONTINUOUS
10
132.747
20
-38.3606
11
132.744
21
-38.3582
0
LINE
8
BLACK
6
CONTINUOUS
10
132.744
20
-38.3582
11
132.741
21
-38.3562
0
LINE
8
BLACK
6
CONTINUOUS
10
132.741
20
-38.3562
11
132.735
21
-38.3504
0
LINE
8
BLACK
6
CONTINUOUS
10
132.735
20
-38.3504
11
132.728
21
-38.3449
0
LINE
8
BLACK
6
CONTINUOUS
10
132.728
20
-38.3449
11
132.607
21
-38.2239
0
LINE
8
BLACK
6
CONTINUOUS
10
132.607
20
-38.2239
11
132.606
21
-38.2227
0
LINE
8
BLACK
6
CONTINUOUS
10
132.606
20
-38.2227
11
132.601
21
-38.2171
0
LINE
8
BLACK
6
CONTINUOUS
10
132.601
20
-38.2171
11
132.597
21
-38.2119
0
LINE
8
BLACK
6
CONTINUOUS
10
132.597
20
-38.2119
11
132.594
21
-38.2074
0
LINE
8
BLACK
6
CONTINUOUS
10
132.594
20
-38.2074
11
132.59
21
-38.2033
0
LINE
8
BLACK
6
CONTINUOUS
10
132.59
20
-38.2033
11
132.587
21
-38.197
0
LINE
8
BLACK
6
CONTINUOUS
10
132.587
20
-38.197
11
132.583
21
-38.1909
0
LINE
8
BLACK
6
CONTINUOUS
10
132.583
20
-38.1909
11
132.523
21
-38.07
0
LINE
8
BLACK
6
CONTINUOUS
10
132.523
20
-38.07
11
132.522
21
-38.0684
0
LINE
8
BLACK
6
CONTINUOUS
10
132.522
20
-38.0684
11
132.521
21
-38.0649
0
LINE
8
BLACK
6
CONTINUOUS
10
132.521
20
-38.0649
11
132.519
21
-38.0616
0
LINE
8
BLACK
6
CONTINUOUS
10
132.519
20
-38.0616
11
132.517
21
-38.0533
0
LINE
8
BLACK
6
CONTINUOUS
10
132.517
20
-38.0533
11
132.514
21
-38.0451
0
LINE
8
BLACK
6
CONTINUOUS
10
132.514
20
-38.0451
11
132.513
21
-38.0414
0
LINE
8
BLACK
6
CONTINUOUS
10
132.513
20
-38.0414
11
132.512
21
-38.0379
0
LINE
8
BLACK
6
CONTINUOUS
10
132.512
20
-38.0379
11
132.511
21
-38.0292
0
LINE
8
BLACK
6
CONTINUOUS
10
132.511
20
-38.0292
11
132.51
21
-38.0206
0
LINE
8
BLACK
6
CONTINUOUS
10
132.51
20
-38.0206
11
132.51
21
-38.0169
0
LINE
8
BLACK
6
CONTINUOUS
10
132.51
20
-38.0169
11
132.51
21
-38.0132
0
LINE
8
BLACK
6
CONTINUOUS
10
132.51
20
-38.0132
11
132.51
21
-37.7713
0
LINE
8
BLACK
6
CONTINUOUS
10
132.51
20
-37.7713
11
132.51
21
-37.7695
0
LINE
8
BLACK
6
CONTINUOUS
10
132.51
20
-37.7695
11
132.51
21
-37.7658
0
LINE
8
BLACK
6
CONTINUOUS
10
132.51
20
-37.7658
11
132.51
21
-37.7621
0
LINE
8
BLACK
6
CONTINUOUS
10
132.51
20
-37.7621
11
132.511
21
-37.7535
0
LINE
8
BLACK
6
CONTINUOUS
10
132.511
20
-37.7535
11
132.512
21
-37.7449
0
LINE
8
BLACK
6
CONTINUOUS
10
132.512
20
-37.7449
11
132.513
21
-37.7413
0
LINE
8
BLACK
6
CONTINUOUS
10
132.513
20
-37.7413
11
132.514
21
-37.7376
0
LINE
8
BLACK
6
CONTINUOUS
10
132.514
20
-37.7376
11
132.517
21
-37.7295
0
LINE
8
BLACK
6
CONTINUOUS
10
132.517
20
-37.7295
11
132.52
21
-37.7213
0
LINE
8
BLACK
6
CONTINUOUS
10
132.52
20
-37.7213
11
132.522
21
-37.718
0
LINE
8
BLACK
6
CONTINUOUS
10
132.522
20
-37.718
11
132.523
21
-37.7145
0
LINE
8
BLACK
6
CONTINUOUS
10
132.523
20
-37.7145
11
132.583
21
-37.5935
0
LINE
8
BLACK
6
CONTINUOUS
10
132.583
20
-37.5935
11
132.584
21
-37.592
0
LINE
8
BLACK
6
CONTINUOUS
10
132.584
20
-37.592
11
132.588
21
-37.586
0
LINE
8
BLACK
6
CONTINUOUS
10
132.588
20
-37.586
11
132.591
21
-37.5797
0
LINE
8
BLACK
6
CONTINUOUS
10
132.591
20
-37.5797
11
132.595
21
-37.5756
0
LINE
8
BLACK
6
CONTINUOUS
10
132.595
20
-37.5756
11
132.598
21
-37.5712
0
LINE
8
BLACK
6
CONTINUOUS
10
132.598
20
-37.5712
11
132.603
21
-37.566
0
LINE
8
BLACK
6
CONTINUOUS
10
132.603
20
-37.566
11
132.607
21
-37.5605
0
LINE
8
BLACK
6
CONTINUOUS
10
132.607
20
-37.5605
11
132.728
21
-37.4396
0
LINE
8
BLACK
6
CONTINUOUS
10
132.728
20
-37.4396
11
132.729
21
-37.4383
0
LINE
8
BLACK
6
CONTINUOUS
10
132.729
20
-37.4383
11
132.736
21
-37.433
0
LINE
8
BLACK
6
CONTINUOUS
10
132.736
20
-37.433
11
132.743
21
-37.4272
0
LINE
8
BLACK
6
CONTINUOUS
10
132.743
20
-37.4272
11
132.746
21
-37.4252
0
LINE
8
BLACK
6
CONTINUOUS
10
132.746
20
-37.4252
11
132.749
21
-37.4229
0
LINE
8
BLACK
6
CONTINUOUS
10
132.749
20
-37.4229
11
132.756
21
-37.4189
0
LINE
8
BLACK
6
CONTINUOUS
10
132.756
20
-37.4189
11
132.764
21
-37.4145
0
LINE
8
BLACK
6
CONTINUOUS
10
132.764
20
-37.4145
11
132.767
21
-37.4132
0
LINE
8
BLACK
6
CONTINUOUS
10
132.767
20
-37.4132
11
132.771
21
-37.4115
0
LINE
8
BLACK
6
CONTINUOUS
10
132.771
20
-37.4115
11
132.779
21
-37.4091
0
LINE
8
BLACK
6
CONTINUOUS
10
132.779
20
-37.4091
11
132.787
21
-37.4062
0
LINE
8
BLACK
6
CONTINUOUS
10
132.787
20
-37.4062
11
133.029
21
-37.3457
0
LINE
8
BLACK
6
CONTINUOUS
10
133.029
20
-37.3457
11
133.031
21
-37.3453
0
LINE
8
BLACK
6
CONTINUOUS
10
133.031
20
-37.3453
11
133.033
21
-37.345
0
LINE
8
BLACK
6
CONTINUOUS
10
133.033
20
-37.345
11
133.035
21
-37.3443
0
LINE
8
BLACK
6
CONTINUOUS
10
133.035
20
-37.3443
11
133.045
21
-37.3433
0
LINE
8
BLACK
6
CONTINUOUS
10
133.045
20
-37.3433
11
133.055
21
-37.342
0
LINE
8
BLACK
6
CONTINUOUS
10
133.055
20
-37.342
11
133.058
21
-37.3421
0
LINE
8
BLACK
6
CONTINUOUS
10
133.058
20
-37.3421
11
133.06
21
-37.3419
0
LINE
8
BLACK
6
CONTINUOUS
10
133.06
20
-37.3419
11
133.483
21
-37.3419
0
LINE
8
BLACK
6
CONTINUOUS
10
133.483
20
-37.3419
11
133.485
21
-37.3419
0
LINE
8
BLACK
6
CONTINUOUS
10
133.075
20
-37.5959
11
132.883
21
-37.6441
0
LINE
8
BLACK
6
CONTINUOUS
10
132.883
20
-37.6441
11
132.801
21
-37.7256
0
LINE
8
BLACK
6
CONTINUOUS
10
132.801
20
-37.7256
11
132.764
21
-37.8013
0
LINE
8
BLACK
6
CONTINUOUS
10
132.764
20
-37.8013
11
132.764
21
-37.9832
0
LINE
8
BLACK
6
CONTINUOUS
10
132.764
20
-37.9832
11
132.801
21
-38.0589
0
LINE
8
BLACK
6
CONTINUOUS
10
132.801
20
-38.0589
11
132.883
21
-38.1404
0
LINE
8
BLACK
6
CONTINUOUS
10
132.883
20
-38.1404
11
133.075
21
-38.1886
0
LINE
8
BLACK
6
CONTINUOUS
10
133.075
20
-38.1886
11
133.468
21
-38.1886
0
LINE
8
BLACK
6
CONTINUOUS
10
133.468
20
-38.1886
11
133.66
21
-38.1404
0
LINE
8
BLACK
6
CONTINUOUS
10
133.66
20
-38.1404
11
133.666
21
-38.1341
0
LINE
8
BLACK
6
CONTINUOUS
10
133.666
20
-38.1341
11
133.575
21
-38.0425
0
LINE
8
BLACK
6
CONTINUOUS
10
133.575
20
-38.0425
11
133.574
21
-38.0413
0
LINE
8
BLACK
6
CONTINUOUS
10
133.574
20
-38.0413
11
133.569
21
-38.0357
0
LINE
8
BLACK
6
CONTINUOUS
10
133.569
20
-38.0357
11
133.564
21
-38.0305
0
LINE
8
BLACK
6
CONTINUOUS
10
133.564
20
-38.0305
11
133.561
21
-38.026
0
LINE
8
BLACK
6
CONTINUOUS
10
133.561
20
-38.026
11
133.558
21
-38.0219
0
LINE
8
BLACK
6
CONTINUOUS
10
133.558
20
-38.0219
11
133.555
21
-38.0156
0
LINE
8
BLACK
6
CONTINUOUS
10
133.555
20
-38.0156
11
133.551
21
-38.0095
0
LINE
8
BLACK
6
CONTINUOUS
10
133.551
20
-38.0095
11
133.491
21
-37.8886
0
LINE
8
BLACK
6
CONTINUOUS
10
133.491
20
-37.8886
11
133.49
21
-37.887
0
LINE
8
BLACK
6
CONTINUOUS
10
133.49
20
-37.887
11
133.488
21
-37.8835
0
LINE
8
BLACK
6
CONTINUOUS
10
133.488
20
-37.8835
11
133.487
21
-37.8802
0
LINE
8
BLACK
6
CONTINUOUS
10
133.487
20
-37.8802
11
133.484
21
-37.8719
0
LINE
8
BLACK
6
CONTINUOUS
10
133.484
20
-37.8719
11
133.481
21
-37.8637
0
LINE
8
BLACK
6
CONTINUOUS
10
133.481
20
-37.8637
11
133.481
21
-37.86
0
LINE
8
BLACK
6
CONTINUOUS
10
133.481
20
-37.86
11
133.48
21
-37.8564
0
LINE
8
BLACK
6
CONTINUOUS
10
133.48
20
-37.8564
11
133.479
21
-37.8478
0
LINE
8
BLACK
6
CONTINUOUS
10
133.479
20
-37.8478
11
133.477
21
-37.8392
0
LINE
8
BLACK
6
CONTINUOUS
10
133.477
20
-37.8392
11
133.478
21
-37.8355
0
LINE
8
BLACK
6
CONTINUOUS
10
133.478
20
-37.8355
11
133.477
21
-37.8318
0
LINE
8
BLACK
6
CONTINUOUS
10
133.477
20
-37.8318
11
133.477
21
-37.7108
0
LINE
8
BLACK
6
CONTINUOUS
10
133.477
20
-37.7108
11
133.477
21
-37.709
0
LINE
8
BLACK
6
CONTINUOUS
10
133.477
20
-37.709
11
133.48
21
-37.6844
0
LINE
8
BLACK
6
CONTINUOUS
10
133.48
20
-37.6844
11
133.487
21
-37.6608
0
LINE
8
BLACK
6
CONTINUOUS
10
133.487
20
-37.6608
11
133.499
21
-37.6391
0
LINE
8
BLACK
6
CONTINUOUS
10
133.499
20
-37.6391
11
133.515
21
-37.6201
0
LINE
8
BLACK
6
CONTINUOUS
10
133.515
20
-37.6201
11
133.527
21
-37.6107
0
LINE
8
BLACK
6
CONTINUOUS
10
133.527
20
-37.6107
11
133.468
21
-37.5959
0
LINE
8
BLACK
6
CONTINUOUS
10
133.468
20
-37.5959
11
133.075
21
-37.5959
0
LINE
8
BLACK
6
CONTINUOUS
10
133.731
20
-37.8018
11
133.769
21
-37.8775
0
LINE
8
BLACK
6
CONTINUOUS
10
133.769
20
-37.8775
11
133.78
21
-37.888
0
LINE
8
BLACK
6
CONTINUOUS
10
133.78
20
-37.888
11
133.78
21
-37.8013
0
LINE
8
BLACK
6
CONTINUOUS
10
133.78
20
-37.8013
11
133.742
21
-37.7256
0
LINE
8
BLACK
6
CONTINUOUS
10
133.742
20
-37.7256
11
133.731
21
-37.715
0
LINE
8
BLACK
6
CONTINUOUS
10
133.731
20
-37.715
11
133.731
21
-37.8018
0
LINE
8
BLACK
6
CONTINUOUS
10
135.631
20
-36.7918
11
135.66
21
-36.804
0
LINE
8
BLACK
6
CONTINUOUS
10
135.66
20
-36.804
11
135.687
21
-36.8216
0
LINE
8
BLACK
6
CONTINUOUS
10
135.687
20
-36.8216
11
135.709
21
-36.8441
0
LINE
8
BLACK
6
CONTINUOUS
10
135.709
20
-36.8441
11
135.727
21
-36.8705
0
LINE
8
BLACK
6
CONTINUOUS
10
135.727
20
-36.8705
11
135.739
21
-36.8999
0
LINE
8
BLACK
6
CONTINUOUS
10
135.739
20
-36.8999
11
135.745
21
-36.9311
0
LINE
8
BLACK
6
CONTINUOUS
10
135.745
20
-36.9311
11
135.745
21
-36.9629
0
LINE
8
BLACK
6
CONTINUOUS
10
135.745
20
-36.9629
11
135.739
21
-36.9941
0
LINE
8
BLACK
6
CONTINUOUS
10
135.739
20
-36.9941
11
135.727
21
-37.0235
0
LINE
8
BLACK
6
CONTINUOUS
10
135.727
20
-37.0235
11
135.709
21
-37.0499
0
LINE
8
BLACK
6
CONTINUOUS
10
135.709
20
-37.0499
11
135.687
21
-37.0724
0
LINE
8
BLACK
6
CONTINUOUS
10
135.687
20
-37.0724
11
135.66
21
-37.09
0
LINE
8
BLACK
6
CONTINUOUS
10
135.66
20
-37.09
11
135.631
21
-37.1022
0
LINE
8
BLACK
6
CONTINUOUS
10
135.631
20
-37.1022
11
135.6
21
-37.1084
0
LINE
8
BLACK
6
CONTINUOUS
10
135.6
20
-37.1084
11
135.568
21
-37.1084
0
LINE
8
BLACK
6
CONTINUOUS
10
135.568
20
-37.1084
11
135.537
21
-37.1022
0
LINE
8
BLACK
6
CONTINUOUS
10
135.537
20
-37.1022
11
135.508
21
-37.09
0
LINE
8
BLACK
6
CONTINUOUS
10
135.508
20
-37.09
11
135.481
21
-37.0724
0
LINE
8
BLACK
6
CONTINUOUS
10
135.481
20
-37.0724
11
135.459
21
-37.0499
0
LINE
8
BLACK
6
CONTINUOUS
10
135.459
20
-37.0499
11
135.441
21
-37.0235
0
LINE
8
BLACK
6
CONTINUOUS
10
135.441
20
-37.0235
11
135.429
21
-36.9941
0
LINE
8
BLACK
6
CONTINUOUS
10
135.429
20
-36.9941
11
135.423
21
-36.9629
0
LINE
8
BLACK
6
CONTINUOUS
10
135.423
20
-36.9629
11
135.423
21
-36.9311
0
LINE
8
BLACK
6
CONTINUOUS
10
135.423
20
-36.9311
11
135.429
21
-36.8999
0
LINE
8
BLACK
6
CONTINUOUS
10
135.429
20
-36.8999
11
135.441
21
-36.8705
0
LINE
8
BLACK
6
CONTINUOUS
10
135.441
20
-36.8705
11
135.459
21
-36.8441
0
LINE
8
BLACK
6
CONTINUOUS
10
135.459
20
-36.8441
11
135.481
21
-36.8216
0
LINE
8
BLACK
6
CONTINUOUS
10
135.481
20
-36.8216
11
135.508
21
-36.804
0
LINE
8
BLACK
6
CONTINUOUS
10
135.508
20
-36.804
11
135.537
21
-36.7918
0
LINE
8
BLACK
6
CONTINUOUS
10
135.537
20
-36.7918
11
135.568
21
-36.7856
0
LINE
8
BLACK
6
CONTINUOUS
10
135.568
20
-36.7856
11
135.6
21
-36.7856
0
LINE
8
BLACK
6
CONTINUOUS
10
135.6
20
-36.7856
11
135.631
21
-36.7918
0
LINE
8
BLACK
6
CONTINUOUS
10
134.22
20
-36.3014
11
134.238
21
-36.3072
0
LINE
8
BLACK
6
CONTINUOUS
10
134.238
20
-36.3072
11
134.256
21
-36.3165
0
LINE
8
BLACK
6
CONTINUOUS
10
134.256
20
-36.3165
11
134.271
21
-36.3289
0
LINE
8
BLACK
6
CONTINUOUS
10
134.271
20
-36.3289
11
134.284
21
-36.3442
0
LINE
8
BLACK
6
CONTINUOUS
10
134.284
20
-36.3442
11
134.293
21
-36.3615
0
LINE
8
BLACK
6
CONTINUOUS
10
134.293
20
-36.3615
11
134.299
21
-36.3804
0
LINE
8
BLACK
6
CONTINUOUS
10
134.299
20
-36.3804
11
134.3
21
-36.4
0
LINE
8
BLACK
6
CONTINUOUS
10
134.3
20
-36.4
11
134.299
21
-36.4196
0
LINE
8
BLACK
6
CONTINUOUS
10
134.299
20
-36.4196
11
134.293
21
-36.4385
0
LINE
8
BLACK
6
CONTINUOUS
10
134.293
20
-36.4385
11
134.284
21
-36.4558
0
LINE
8
BLACK
6
CONTINUOUS
10
134.284
20
-36.4558
11
134.271
21
-36.4711
0
LINE
8
BLACK
6
CONTINUOUS
10
134.271
20
-36.4711
11
134.256
21
-36.4835
0
LINE
8
BLACK
6
CONTINUOUS
10
134.256
20
-36.4835
11
134.238
21
-36.4928
0
LINE
8
BLACK
6
CONTINUOUS
10
134.238
20
-36.4928
11
134.22
21
-36.4986
0
LINE
8
BLACK
6
CONTINUOUS
10
134.22
20
-36.4986
11
134.205
21
-36.5
0
LINE
8
BLACK
6
CONTINUOUS
10
134.205
20
-36.5
11
129.195
21
-36.5
0
LINE
8
BLACK
6
CONTINUOUS
10
129.195
20
-36.5
11
129.18
21
-36.4986
0
LINE
8
BLACK
6
CONTINUOUS
10
129.18
20
-36.4986
11
129.162
21
-36.4928
0
LINE
8
BLACK
6
CONTINUOUS
10
129.162
20
-36.4928
11
129.144
21
-36.4835
0
LINE
8
BLACK
6
CONTINUOUS
10
129.144
20
-36.4835
11
129.129
21
-36.4711
0
LINE
8
BLACK
6
CONTINUOUS
10
129.129
20
-36.4711
11
129.116
21
-36.4558
0
LINE
8
BLACK
6
CONTINUOUS
10
129.116
20
-36.4558
11
129.107
21
-36.4385
0
LINE
8
BLACK
6
CONTINUOUS
10
129.107
20
-36.4385
11
129.101
21
-36.4196
0
LINE
8
BLACK
6
CONTINUOUS
10
129.101
20
-36.4196
11
129.1
21
-36.4
0
LINE
8
BLACK
6
CONTINUOUS
10
129.1
20
-36.4
11
129.101
21
-36.3804
0
LINE
8
BLACK
6
CONTINUOUS
10
129.101
20
-36.3804
11
129.107
21
-36.3615
0
LINE
8
BLACK
6
CONTINUOUS
10
129.107
20
-36.3615
11
129.116
21
-36.3442
0
LINE
8
BLACK
6
CONTINUOUS
10
129.116
20
-36.3442
11
129.129
21
-36.3289
0
LINE
8
BLACK
6
CONTINUOUS
10
129.129
20
-36.3289
11
129.144
21
-36.3165
0
LINE
8
BLACK
6
CONTINUOUS
10
129.144
20
-36.3165
11
129.162
21
-36.3072
0
LINE
8
BLACK
6
CONTINUOUS
10
129.162
20
-36.3072
11
129.18
21
-36.3014
0
LINE
8
BLACK
6
CONTINUOUS
10
129.18
20
-36.3014
11
129.195
21
-36.3
0
LINE
8
BLACK
6
CONTINUOUS
10
129.195
20
-36.3
11
134.205
21
-36.3
0
LINE
8
BLACK
6
CONTINUOUS
10
134.205
20
-36.3
11
134.22
21
-36.3014
  0
ENDSEC
  0
EOF
