  0
SECTION
  2
HEADER
  9
$ANGBASE
  50
0.0
  9
$ANGDIR
  70
  1
  9
$MEASUREMENT
  70
0
  0
ENDSEC
  0
SECTION
  2
TABLES
  0
TABLE
  2
LTYPE
  70
4
  0
LTYPE
  5
40F
  2
CONTINUOUS
  70
0
  3
Solid line
  72
65
  73
0
  40
0.0
  0
LTYPE
  5
410
  2
DASHDOT
 70
0
  3
Dash Dot ____ _ ____ _
 72
65
 73
4
 40
2.0
 49
1.25
 49
-0.25
 49
0.25
 49
-0.25
  0
LTYPE
  5
411
  2
DASHED
 70
0
  3
Dashed __ __ __ __ __
 72
65
 73
2
 40
0.75
 49
0.5
 49
-0.25
  0
LTYPE
  5
43B
  2
DOTTED
 70
0
  3
Dotted .  .  .  .
 72
65
 73
2
 40
0.2
 49
0.0
 49
-0.2
  0
ENDTAB
  0
TABLE
  2
STYLE
  70
4
  0
STYLE
  2
KICAD
  70
0
  40
0
  41
1
  42
1
  50
0
  71
0
  3
isocp.shx
  0
STYLE
  2
KICADB
  70
0
  40
0
  41
1
  42
1
  50
0
  71
0
  3
isocp.shx
  0
STYLE
  2
KICADI
  70
0
  40
0
  41
1
  42
1
  50
15
  71
0
  3
isocp.shx
  0
STYLE
  2
KICADBI
  70
0
  40
0
  41
1
  42
1
  50
15
  71
0
  3
isocp.shx
  0
ENDTAB
  0
TABLE
  2
LAYER
  70
30
  0
LAYER
  2
BLACK
  70
0
  62
7
  6
CONTINUOUS
  0
LAYER
  2
GRAY1
  70
0
  62
251
  6
CONTINUOUS
  0
LAYER
  2
GRAY2
  70
0
  62
8
  6
CONTINUOUS
  0
LAYER
  2
GRAY3
  70
0
  62
9
  6
CONTINUOUS
  0
LAYER
  2
WHITE
  70
0
  62
7
  6
CONTINUOUS
  0
LAYER
  2
LYELLOW
  70
0
  62
51
  6
CONTINUOUS
  0
LAYER
  2
BLUE1
  70
0
  62
178
  6
CONTINUOUS
  0
LAYER
  2
GREEN1
  70
0
  62
98
  6
CONTINUOUS
  0
LAYER
  2
CYAN1
  70
0
  62
138
  6
CONTINUOUS
  0
LAYER
  2
RED1
  70
0
  62
18
  6
CONTINUOUS
  0
LAYER
  2
MAGENTA1
  70
0
  62
228
  6
CONTINUOUS
  0
LAYER
  2
BROWN1
  70
0
  62
58
  6
CONTINUOUS
  0
LAYER
  2
BLUE2
  70
0
  62
5
  6
CONTINUOUS
  0
LAYER
  2
GREEN2
  70
0
  62
3
  6
CONTINUOUS
  0
LAYER
  2
CYAN2
  70
0
  62
4
  6
CONTINUOUS
  0
LAYER
  2
RED2
  70
0
  62
1
  6
CONTINUOUS
  0
LAYER
  2
MAGENTA2
  70
0
  62
6
  6
CONTINUOUS
  0
LAYER
  2
BROWN2
  70
0
  62
54
  6
CONTINUOUS
  0
LAYER
  2
BLUE3
  70
0
  62
171
  6
CONTINUOUS
  0
LAYER
  2
GREEN3
  70
0
  62
91
  6
CONTINUOUS
  0
LAYER
  2
CYAN3
  70
0
  62
131
  6
CONTINUOUS
  0
LAYER
  2
RED3
  70
0
  62
11
  6
CONTINUOUS
  0
LAYER
  2
MAGENTA3
  70
0
  62
221
  6
CONTINUOUS
  0
LAYER
  2
YELLOW3
  70
0
  62
2
  6
CONTINUOUS
  0
LAYER
  2
BLUE4
  70
0
  62
5
  6
CONTINUOUS
  0
LAYER
  2
GREEN4
  70
0
  62
3
  6
CONTINUOUS
  0
LAYER
  2
CYAN4
  70
0
  62
4
  6
CONTINUOUS
  0
LAYER
  2
RED4
  70
0
  62
1
  6
CONTINUOUS
  0
LAYER
  2
MAGENTA4
  70
0
  62
6
  6
CONTINUOUS
  0
LAYER
  2
YELLOW4
  70
0
  62
2
  6
CONTINUOUS
  0
ENDTAB
  0
ENDSEC
  0
SECTION
  2
ENTITIES
0
LINE
8
BLACK
6
CONTINUOUS
10
147.35
20
-79.0049
11
147.35
21
-79.0049
0
LINE
8
BLACK
6
CONTINUOUS
10
147.35
20
-79.0049
11
147.274
21
-79.7818
0
LINE
8
BLACK
6
CONTINUOUS
10
147.274
20
-79.7818
11
147.274
21
-79.7818
0
LINE
8
BLACK
6
CONTINUOUS
10
147.274
20
-79.7818
11
147.274
21
-79.7818
0
LINE
8
BLACK
6
CONTINUOUS
10
147.274
20
-79.7818
11
147.274
21
-79.7825
0
LINE
8
BLACK
6
CONTINUOUS
10
147.274
20
-79.7825
11
147.273
21
-79.7869
0
LINE
8
BLACK
6
CONTINUOUS
10
147.273
20
-79.7869
11
147.272
21
-79.7914
0
LINE
8
BLACK
6
CONTINUOUS
10
147.272
20
-79.7914
11
147.046
21
-80.5387
0
LINE
8
BLACK
6
CONTINUOUS
10
147.046
20
-80.5387
11
147.046
21
-80.5387
0
LINE
8
BLACK
6
CONTINUOUS
10
147.046
20
-80.5387
11
147.046
21
-80.5387
0
LINE
8
BLACK
6
CONTINUOUS
10
147.046
20
-80.5387
11
147.046
21
-80.5394
0
LINE
8
BLACK
6
CONTINUOUS
10
147.046
20
-80.5394
11
147.044
21
-80.5435
0
LINE
8
BLACK
6
CONTINUOUS
10
147.044
20
-80.5435
11
147.042
21
-80.5478
0
LINE
8
BLACK
6
CONTINUOUS
10
147.042
20
-80.5478
11
146.676
21
-81.237
0
LINE
8
BLACK
6
CONTINUOUS
10
146.676
20
-81.237
11
146.675
21
-81.2377
0
LINE
8
BLACK
6
CONTINUOUS
10
146.675
20
-81.2377
11
146.673
21
-81.2414
0
LINE
8
BLACK
6
CONTINUOUS
10
146.673
20
-81.2414
11
146.67
21
-81.2452
0
LINE
8
BLACK
6
CONTINUOUS
10
146.67
20
-81.2452
11
146.177
21
-81.8501
0
LINE
8
BLACK
6
CONTINUOUS
10
146.177
20
-81.8501
11
146.177
21
-81.8501
0
LINE
8
BLACK
6
CONTINUOUS
10
146.177
20
-81.8501
11
146.177
21
-81.8501
0
LINE
8
BLACK
6
CONTINUOUS
10
146.177
20
-81.8501
11
146.177
21
-81.8507
0
LINE
8
BLACK
6
CONTINUOUS
10
146.177
20
-81.8507
11
146.173
21
-81.8538
0
LINE
8
BLACK
6
CONTINUOUS
10
146.173
20
-81.8538
11
146.17
21
-81.8571
0
LINE
8
BLACK
6
CONTINUOUS
10
146.17
20
-81.8571
11
145.569
21
-82.3547
0
LINE
8
BLACK
6
CONTINUOUS
10
145.569
20
-82.3547
11
145.568
21
-82.3551
0
LINE
8
BLACK
6
CONTINUOUS
10
145.568
20
-82.3551
11
145.564
21
-82.3576
0
LINE
8
BLACK
6
CONTINUOUS
10
145.564
20
-82.3576
11
145.561
21
-82.3601
0
LINE
8
BLACK
6
CONTINUOUS
10
145.561
20
-82.3601
11
144.874
21
-82.7314
0
LINE
8
BLACK
6
CONTINUOUS
10
144.874
20
-82.7314
11
144.874
21
-82.7314
0
LINE
8
BLACK
6
CONTINUOUS
10
144.874
20
-82.7314
11
144.874
21
-82.7314
0
LINE
8
BLACK
6
CONTINUOUS
10
144.874
20
-82.7314
11
144.873
21
-82.7318
0
LINE
8
BLACK
6
CONTINUOUS
10
144.873
20
-82.7318
11
144.869
21
-82.7335
0
LINE
8
BLACK
6
CONTINUOUS
10
144.869
20
-82.7335
11
144.865
21
-82.7352
0
LINE
8
BLACK
6
CONTINUOUS
10
144.865
20
-82.7352
11
144.119
21
-82.9661
0
LINE
8
BLACK
6
CONTINUOUS
10
144.119
20
-82.9661
11
144.119
21
-82.9661
0
LINE
8
BLACK
6
CONTINUOUS
10
144.119
20
-82.9661
11
144.118
21
-82.9663
0
LINE
8
BLACK
6
CONTINUOUS
10
144.118
20
-82.9663
11
144.114
21
-82.9671
0
LINE
8
BLACK
6
CONTINUOUS
10
144.114
20
-82.9671
11
144.11
21
-82.968
0
LINE
8
BLACK
6
CONTINUOUS
10
144.11
20
-82.968
11
143.333
21
-83.0496
0
LINE
8
BLACK
6
CONTINUOUS
10
143.333
20
-83.0496
11
143.333
21
-83.0496
0
LINE
8
BLACK
6
CONTINUOUS
10
143.333
20
-83.0496
11
143.332
21
-83.0497
0
LINE
8
BLACK
6
CONTINUOUS
10
143.332
20
-83.0497
11
143.328
21
-83.0497
0
LINE
8
BLACK
6
CONTINUOUS
10
143.328
20
-83.0497
11
143.323
21
-83.0497
0
LINE
8
BLACK
6
CONTINUOUS
10
143.323
20
-83.0497
11
142.546
21
-82.9789
0
LINE
8
BLACK
6
CONTINUOUS
10
142.546
20
-82.9789
11
142.545
21
-82.9789
0
LINE
8
BLACK
6
CONTINUOUS
10
142.545
20
-82.9789
11
142.541
21
-82.978
0
LINE
8
BLACK
6
CONTINUOUS
10
142.541
20
-82.978
11
142.536
21
-82.9771
0
LINE
8
BLACK
6
CONTINUOUS
10
142.536
20
-82.9771
11
141.787
21
-82.7567
0
LINE
8
BLACK
6
CONTINUOUS
10
141.787
20
-82.7567
11
141.787
21
-82.7565
0
LINE
8
BLACK
6
CONTINUOUS
10
141.787
20
-82.7565
11
141.783
21
-82.7547
0
LINE
8
BLACK
6
CONTINUOUS
10
141.783
20
-82.7547
11
141.778
21
-82.753
0
LINE
8
BLACK
6
CONTINUOUS
10
141.778
20
-82.753
11
141.087
21
-82.3914
0
LINE
8
BLACK
6
CONTINUOUS
10
141.087
20
-82.3914
11
141.086
21
-82.391
0
LINE
8
BLACK
6
CONTINUOUS
10
141.086
20
-82.391
11
141.082
21
-82.3885
0
LINE
8
BLACK
6
CONTINUOUS
10
141.082
20
-82.3885
11
141.078
21
-82.386
0
LINE
8
BLACK
6
CONTINUOUS
10
141.078
20
-82.386
11
140.47
21
-81.8969
0
LINE
8
BLACK
6
CONTINUOUS
10
140.47
20
-81.8969
11
140.47
21
-81.8969
0
LINE
8
BLACK
6
CONTINUOUS
10
140.47
20
-81.8969
11
140.47
21
-81.8969
0
LINE
8
BLACK
6
CONTINUOUS
10
140.47
20
-81.8969
11
140.469
21
-81.8964
0
LINE
8
BLACK
6
CONTINUOUS
10
140.469
20
-81.8964
11
140.466
21
-81.8932
0
LINE
8
BLACK
6
CONTINUOUS
10
140.466
20
-81.8932
11
140.463
21
-81.89
0
LINE
8
BLACK
6
CONTINUOUS
10
140.463
20
-81.89
11
139.961
21
-81.292
0
LINE
8
BLACK
6
CONTINUOUS
10
139.961
20
-81.292
11
139.961
21
-81.292
0
LINE
8
BLACK
6
CONTINUOUS
10
139.961
20
-81.292
11
139.961
21
-81.292
0
LINE
8
BLACK
6
CONTINUOUS
10
139.961
20
-81.292
11
139.961
21
-81.2915
0
LINE
8
BLACK
6
CONTINUOUS
10
139.961
20
-81.2915
11
139.958
21
-81.2877
0
LINE
8
BLACK
6
CONTINUOUS
10
139.958
20
-81.2877
11
139.956
21
-81.284
0
LINE
8
BLACK
6
CONTINUOUS
10
139.956
20
-81.284
11
139.58
21
-80.5999
0
LINE
8
BLACK
6
CONTINUOUS
10
139.58
20
-80.5999
11
139.58
21
-80.5999
0
LINE
8
BLACK
6
CONTINUOUS
10
139.58
20
-80.5999
11
139.58
21
-80.5998
0
LINE
8
BLACK
6
CONTINUOUS
10
139.58
20
-80.5998
11
139.579
21
-80.5992
0
LINE
8
BLACK
6
CONTINUOUS
10
139.579
20
-80.5992
11
139.578
21
-80.5951
0
LINE
8
BLACK
6
CONTINUOUS
10
139.578
20
-80.5951
11
139.576
21
-80.5909
0
LINE
8
BLACK
6
CONTINUOUS
10
139.576
20
-80.5909
11
139.34
21
-79.8468
0
LINE
8
BLACK
6
CONTINUOUS
10
139.34
20
-79.8468
11
139.34
21
-79.8461
0
LINE
8
BLACK
6
CONTINUOUS
10
139.34
20
-79.8461
11
139.339
21
-79.8417
0
LINE
8
BLACK
6
CONTINUOUS
10
139.339
20
-79.8417
11
139.338
21
-79.8372
0
LINE
8
BLACK
6
CONTINUOUS
10
139.338
20
-79.8372
11
139.251
21
-79.0614
0
LINE
8
BLACK
6
CONTINUOUS
10
139.251
20
-79.0614
11
139.251
21
-79.0607
0
LINE
8
BLACK
6
CONTINUOUS
10
139.251
20
-79.0607
11
139.251
21
-79.0585
0
LINE
8
BLACK
6
CONTINUOUS
10
139.251
20
-79.0585
11
139.25
21
-79.0562
0
LINE
8
BLACK
6
CONTINUOUS
10
139.25
20
-79.0562
11
139.25
21
-79.0026
0
LINE
8
BLACK
6
CONTINUOUS
10
139.25
20
-79.0026
11
139.25
21
-79.0024
0
LINE
8
BLACK
6
CONTINUOUS
10
139.25
20
-79.0024
11
139.25
21
-78.1002
0
LINE
8
BLACK
6
CONTINUOUS
10
139.25
20
-78.1002
11
139.25
21
-78.0818
0
LINE
8
BLACK
6
CONTINUOUS
10
139.25
20
-78.0818
11
139.19
21
-77.5069
0
LINE
8
BLACK
6
CONTINUOUS
10
139.19
20
-77.5069
11
139.019
21
-76.9569
0
LINE
8
BLACK
6
CONTINUOUS
10
139.019
20
-76.9569
11
138.745
21
-76.4505
0
LINE
8
BLACK
6
CONTINUOUS
10
138.745
20
-76.4505
11
138.379
21
-76.0069
0
LINE
8
BLACK
6
CONTINUOUS
10
138.379
20
-76.0069
11
137.932
21
-75.6431
0
LINE
8
BLACK
6
CONTINUOUS
10
137.932
20
-75.6431
11
137.424
21
-75.3728
0
LINE
8
BLACK
6
CONTINUOUS
10
137.424
20
-75.3728
11
136.873
21
-75.2064
0
LINE
8
BLACK
6
CONTINUOUS
10
136.873
20
-75.2064
11
136.298
21
-75.15
0
LINE
8
BLACK
6
CONTINUOUS
10
136.298
20
-75.15
11
83.8002
21
-75.15
0
LINE
8
BLACK
6
CONTINUOUS
10
83.8002
20
-75.15
11
83.7818
21
-75.1501
0
LINE
8
BLACK
6
CONTINUOUS
10
83.7818
20
-75.1501
11
83.2069
21
-75.2105
0
LINE
8
BLACK
6
CONTINUOUS
10
83.2069
20
-75.2105
11
82.6569
21
-75.3807
0
LINE
8
BLACK
6
CONTINUOUS
10
82.6569
20
-75.3807
11
82.1505
21
-75.6545
0
LINE
8
BLACK
6
CONTINUOUS
10
82.1505
20
-75.6545
11
81.7069
21
-76.0215
0
LINE
8
BLACK
6
CONTINUOUS
10
81.7069
20
-76.0215
11
81.3431
21
-76.4676
0
LINE
8
BLACK
6
CONTINUOUS
10
81.3431
20
-76.4676
11
81.0728
21
-76.9759
0
LINE
8
BLACK
6
CONTINUOUS
10
81.0728
20
-76.9759
11
80.9064
21
-77.5271
0
LINE
8
BLACK
6
CONTINUOUS
10
80.9064
20
-77.5271
11
80.85
21
-78.1024
0
LINE
8
BLACK
6
CONTINUOUS
10
80.85
20
-78.1024
11
80.85
21
-79.0024
0
LINE
8
BLACK
6
CONTINUOUS
10
80.85
20
-79.0024
11
80.8498
21
-79.0049
0
LINE
8
BLACK
6
CONTINUOUS
10
80.8498
20
-79.0049
11
80.8498
21
-79.0049
0
LINE
8
BLACK
6
CONTINUOUS
10
80.8498
20
-79.0049
11
80.7736
21
-79.7818
0
LINE
8
BLACK
6
CONTINUOUS
10
80.7736
20
-79.7818
11
80.7736
21
-79.7818
0
LINE
8
BLACK
6
CONTINUOUS
10
80.7736
20
-79.7818
11
80.7736
21
-79.7818
0
LINE
8
BLACK
6
CONTINUOUS
10
80.7736
20
-79.7818
11
80.7735
21
-79.7825
0
LINE
8
BLACK
6
CONTINUOUS
10
80.7735
20
-79.7825
11
80.7726
21
-79.7869
0
LINE
8
BLACK
6
CONTINUOUS
10
80.7726
20
-79.7869
11
80.7717
21
-79.7914
0
LINE
8
BLACK
6
CONTINUOUS
10
80.7717
20
-79.7914
11
80.5461
21
-80.5387
0
LINE
8
BLACK
6
CONTINUOUS
10
80.5461
20
-80.5387
11
80.5461
21
-80.5387
0
LINE
8
BLACK
6
CONTINUOUS
10
80.5461
20
-80.5387
11
80.546
21
-80.5387
0
LINE
8
BLACK
6
CONTINUOUS
10
80.546
20
-80.5387
11
80.5458
21
-80.5394
0
LINE
8
BLACK
6
CONTINUOUS
10
80.5458
20
-80.5394
11
80.5441
21
-80.5435
0
LINE
8
BLACK
6
CONTINUOUS
10
80.5441
20
-80.5435
11
80.5423
21
-80.5478
0
LINE
8
BLACK
6
CONTINUOUS
10
80.5423
20
-80.5478
11
80.1758
21
-81.237
0
LINE
8
BLACK
6
CONTINUOUS
10
80.1758
20
-81.237
11
80.1755
21
-81.2377
0
LINE
8
BLACK
6
CONTINUOUS
10
80.1755
20
-81.2377
11
80.1729
21
-81.2414
0
LINE
8
BLACK
6
CONTINUOUS
10
80.1729
20
-81.2414
11
80.1704
21
-81.2452
0
LINE
8
BLACK
6
CONTINUOUS
10
80.1704
20
-81.2452
11
79.677
21
-81.8501
0
LINE
8
BLACK
6
CONTINUOUS
10
79.677
20
-81.8501
11
79.677
21
-81.8501
0
LINE
8
BLACK
6
CONTINUOUS
10
79.677
20
-81.8501
11
79.677
21
-81.8501
0
LINE
8
BLACK
6
CONTINUOUS
10
79.677
20
-81.8501
11
79.6766
21
-81.8507
0
LINE
8
BLACK
6
CONTINUOUS
10
79.6766
20
-81.8507
11
79.6733
21
-81.8538
0
LINE
8
BLACK
6
CONTINUOUS
10
79.6733
20
-81.8538
11
79.6702
21
-81.8571
0
LINE
8
BLACK
6
CONTINUOUS
10
79.6702
20
-81.8571
11
79.0686
21
-82.3547
0
LINE
8
BLACK
6
CONTINUOUS
10
79.0686
20
-82.3547
11
79.0681
21
-82.3551
0
LINE
8
BLACK
6
CONTINUOUS
10
79.0681
20
-82.3551
11
79.0643
21
-82.3576
0
LINE
8
BLACK
6
CONTINUOUS
10
79.0643
20
-82.3576
11
79.0606
21
-82.3601
0
LINE
8
BLACK
6
CONTINUOUS
10
79.0606
20
-82.3601
11
78.3738
21
-82.7314
0
LINE
8
BLACK
6
CONTINUOUS
10
78.3738
20
-82.7314
11
78.3738
21
-82.7314
0
LINE
8
BLACK
6
CONTINUOUS
10
78.3738
20
-82.7314
11
78.3738
21
-82.7314
0
LINE
8
BLACK
6
CONTINUOUS
10
78.3738
20
-82.7314
11
78.3732
21
-82.7318
0
LINE
8
BLACK
6
CONTINUOUS
10
78.3732
20
-82.7318
11
78.369
21
-82.7335
0
LINE
8
BLACK
6
CONTINUOUS
10
78.369
20
-82.7335
11
78.3648
21
-82.7352
0
LINE
8
BLACK
6
CONTINUOUS
10
78.3648
20
-82.7352
11
77.6191
21
-82.9661
0
LINE
8
BLACK
6
CONTINUOUS
10
77.6191
20
-82.9661
11
77.6191
21
-82.9661
0
LINE
8
BLACK
6
CONTINUOUS
10
77.6191
20
-82.9661
11
77.6184
21
-82.9663
0
LINE
8
BLACK
6
CONTINUOUS
10
77.6184
20
-82.9663
11
77.614
21
-82.9671
0
LINE
8
BLACK
6
CONTINUOUS
10
77.614
20
-82.9671
11
77.6095
21
-82.968
0
LINE
8
BLACK
6
CONTINUOUS
10
77.6095
20
-82.968
11
76.8332
21
-83.0496
0
LINE
8
BLACK
6
CONTINUOUS
10
76.8332
20
-83.0496
11
76.8332
21
-83.0496
0
LINE
8
BLACK
6
CONTINUOUS
10
76.8332
20
-83.0496
11
76.8325
21
-83.0497
0
LINE
8
BLACK
6
CONTINUOUS
10
76.8325
20
-83.0497
11
76.8279
21
-83.0497
0
LINE
8
BLACK
6
CONTINUOUS
10
76.8279
20
-83.0497
11
76.8234
21
-83.0497
0
LINE
8
BLACK
6
CONTINUOUS
10
76.8234
20
-83.0497
11
76.0459
21
-82.9789
0
LINE
8
BLACK
6
CONTINUOUS
10
76.0459
20
-82.9789
11
76.0452
21
-82.9789
0
LINE
8
BLACK
6
CONTINUOUS
10
76.0452
20
-82.9789
11
76.0408
21
-82.978
0
LINE
8
BLACK
6
CONTINUOUS
10
76.0408
20
-82.978
11
76.0364
21
-82.9771
0
LINE
8
BLACK
6
CONTINUOUS
10
76.0364
20
-82.9771
11
75.2875
21
-82.7567
0
LINE
8
BLACK
6
CONTINUOUS
10
75.2875
20
-82.7567
11
75.2868
21
-82.7565
0
LINE
8
BLACK
6
CONTINUOUS
10
75.2868
20
-82.7565
11
75.2826
21
-82.7547
0
LINE
8
BLACK
6
CONTINUOUS
10
75.2826
20
-82.7547
11
75.2784
21
-82.753
0
LINE
8
BLACK
6
CONTINUOUS
10
75.2784
20
-82.753
11
74.5866
21
-82.3914
0
LINE
8
BLACK
6
CONTINUOUS
10
74.5866
20
-82.3914
11
74.586
21
-82.391
0
LINE
8
BLACK
6
CONTINUOUS
10
74.586
20
-82.391
11
74.5823
21
-82.3885
0
LINE
8
BLACK
6
CONTINUOUS
10
74.5823
20
-82.3885
11
74.5784
21
-82.386
0
LINE
8
BLACK
6
CONTINUOUS
10
74.5784
20
-82.386
11
73.97
21
-81.8969
0
LINE
8
BLACK
6
CONTINUOUS
10
73.97
20
-81.8969
11
73.97
21
-81.8969
0
LINE
8
BLACK
6
CONTINUOUS
10
73.97
20
-81.8969
11
73.97
21
-81.8969
0
LINE
8
BLACK
6
CONTINUOUS
10
73.97
20
-81.8969
11
73.9695
21
-81.8964
0
LINE
8
BLACK
6
CONTINUOUS
10
73.9695
20
-81.8964
11
73.9663
21
-81.8932
0
LINE
8
BLACK
6
CONTINUOUS
10
73.9663
20
-81.8932
11
73.963
21
-81.89
0
LINE
8
BLACK
6
CONTINUOUS
10
73.963
20
-81.89
11
73.4612
21
-81.292
0
LINE
8
BLACK
6
CONTINUOUS
10
73.4612
20
-81.292
11
73.4612
21
-81.292
0
LINE
8
BLACK
6
CONTINUOUS
10
73.4612
20
-81.292
11
73.4612
21
-81.292
0
LINE
8
BLACK
6
CONTINUOUS
10
73.4612
20
-81.292
11
73.4608
21
-81.2915
0
LINE
8
BLACK
6
CONTINUOUS
10
73.4608
20
-81.2915
11
73.4583
21
-81.2877
0
LINE
8
BLACK
6
CONTINUOUS
10
73.4583
20
-81.2877
11
73.4557
21
-81.284
0
LINE
8
BLACK
6
CONTINUOUS
10
73.4557
20
-81.284
11
73.0796
21
-80.5999
0
LINE
8
BLACK
6
CONTINUOUS
10
73.0796
20
-80.5999
11
73.0796
21
-80.5999
0
LINE
8
BLACK
6
CONTINUOUS
10
73.0796
20
-80.5999
11
73.0796
21
-80.5998
0
LINE
8
BLACK
6
CONTINUOUS
10
73.0796
20
-80.5998
11
73.0793
21
-80.5992
0
LINE
8
BLACK
6
CONTINUOUS
10
73.0793
20
-80.5992
11
73.0776
21
-80.5951
0
LINE
8
BLACK
6
CONTINUOUS
10
73.0776
20
-80.5951
11
73.0758
21
-80.5909
0
LINE
8
BLACK
6
CONTINUOUS
10
73.0758
20
-80.5909
11
72.8397
21
-79.8468
0
LINE
8
BLACK
6
CONTINUOUS
10
72.8397
20
-79.8468
11
72.8395
21
-79.8461
0
LINE
8
BLACK
6
CONTINUOUS
10
72.8395
20
-79.8461
11
72.8387
21
-79.8417
0
LINE
8
BLACK
6
CONTINUOUS
10
72.8387
20
-79.8417
11
72.8377
21
-79.8372
0
LINE
8
BLACK
6
CONTINUOUS
10
72.8377
20
-79.8372
11
72.7507
21
-79.0614
0
LINE
8
BLACK
6
CONTINUOUS
10
72.7507
20
-79.0614
11
72.7506
21
-79.0607
0
LINE
8
BLACK
6
CONTINUOUS
10
72.7506
20
-79.0607
11
72.7506
21
-79.0585
0
LINE
8
BLACK
6
CONTINUOUS
10
72.7506
20
-79.0585
11
72.7504
21
-79.0562
0
LINE
8
BLACK
6
CONTINUOUS
10
72.7504
20
-79.0562
11
72.75
21
-79.0026
0
LINE
8
BLACK
6
CONTINUOUS
10
72.75
20
-79.0026
11
72.75
21
-79.0024
0
LINE
8
BLACK
6
CONTINUOUS
10
72.75
20
-79.0024
11
72.75
21
-74.4976
0
LINE
8
BLACK
6
CONTINUOUS
10
72.75
20
-74.4976
11
72.75
21
-35.8976
0
LINE
8
BLACK
6
CONTINUOUS
10
72.75
20
-35.8976
11
72.75
21
-35.8975
0
LINE
8
BLACK
6
CONTINUOUS
10
72.75
20
-35.8975
11
72.75
21
-31.9976
0
LINE
8
BLACK
6
CONTINUOUS
10
72.75
20
-31.9976
11
72.7502
21
-31.9951
0
LINE
8
BLACK
6
CONTINUOUS
10
72.7502
20
-31.9951
11
72.8264
21
-31.2182
0
LINE
8
BLACK
6
CONTINUOUS
10
72.8264
20
-31.2182
11
72.8264
21
-31.2182
0
LINE
8
BLACK
6
CONTINUOUS
10
72.8264
20
-31.2182
11
72.8264
21
-31.2182
0
LINE
8
BLACK
6
CONTINUOUS
10
72.8264
20
-31.2182
11
72.8265
21
-31.2175
0
LINE
8
BLACK
6
CONTINUOUS
10
72.8265
20
-31.2175
11
72.8274
21
-31.2131
0
LINE
8
BLACK
6
CONTINUOUS
10
72.8274
20
-31.2131
11
72.8283
21
-31.2086
0
LINE
8
BLACK
6
CONTINUOUS
10
72.8283
20
-31.2086
11
73.054
21
-30.4613
0
LINE
8
BLACK
6
CONTINUOUS
10
73.054
20
-30.4613
11
73.0542
21
-30.4606
0
LINE
8
BLACK
6
CONTINUOUS
10
73.0542
20
-30.4606
11
73.0559
21
-30.4565
0
LINE
8
BLACK
6
CONTINUOUS
10
73.0559
20
-30.4565
11
73.0577
21
-30.4522
0
LINE
8
BLACK
6
CONTINUOUS
10
73.0577
20
-30.4522
11
73.4242
21
-29.763
0
LINE
8
BLACK
6
CONTINUOUS
10
73.4242
20
-29.763
11
73.4245
21
-29.7623
0
LINE
8
BLACK
6
CONTINUOUS
10
73.4245
20
-29.7623
11
73.4271
21
-29.7586
0
LINE
8
BLACK
6
CONTINUOUS
10
73.4271
20
-29.7586
11
73.4296
21
-29.7548
0
LINE
8
BLACK
6
CONTINUOUS
10
73.4296
20
-29.7548
11
73.923
21
-29.1499
0
LINE
8
BLACK
6
CONTINUOUS
10
73.923
20
-29.1499
11
73.9234
21
-29.1493
0
LINE
8
BLACK
6
CONTINUOUS
10
73.9234
20
-29.1493
11
73.9266
21
-29.1462
0
LINE
8
BLACK
6
CONTINUOUS
10
73.9266
20
-29.1462
11
73.9298
21
-29.1429
0
LINE
8
BLACK
6
CONTINUOUS
10
73.9298
20
-29.1429
11
74.5314
21
-28.6453
0
LINE
8
BLACK
6
CONTINUOUS
10
74.5314
20
-28.6453
11
74.5314
21
-28.6453
0
LINE
8
BLACK
6
CONTINUOUS
10
74.5314
20
-28.6453
11
74.5314
21
-28.6453
0
LINE
8
BLACK
6
CONTINUOUS
10
74.5314
20
-28.6453
11
74.5319
21
-28.6449
0
LINE
8
BLACK
6
CONTINUOUS
10
74.5319
20
-28.6449
11
74.5357
21
-28.6424
0
LINE
8
BLACK
6
CONTINUOUS
10
74.5357
20
-28.6424
11
74.5394
21
-28.6399
0
LINE
8
BLACK
6
CONTINUOUS
10
74.5394
20
-28.6399
11
75.2261
21
-28.2686
0
LINE
8
BLACK
6
CONTINUOUS
10
75.2261
20
-28.2686
11
75.2262
21
-28.2686
0
LINE
8
BLACK
6
CONTINUOUS
10
75.2262
20
-28.2686
11
75.2262
21
-28.2686
0
LINE
8
BLACK
6
CONTINUOUS
10
75.2262
20
-28.2686
11
75.2268
21
-28.2682
0
LINE
8
BLACK
6
CONTINUOUS
10
75.2268
20
-28.2682
11
75.2309
21
-28.2666
0
LINE
8
BLACK
6
CONTINUOUS
10
75.2309
20
-28.2666
11
75.2352
21
-28.2648
0
LINE
8
BLACK
6
CONTINUOUS
10
75.2352
20
-28.2648
11
75.9809
21
-28.0339
0
LINE
8
BLACK
6
CONTINUOUS
10
75.9809
20
-28.0339
11
75.9816
21
-28.0337
0
LINE
8
BLACK
6
CONTINUOUS
10
75.9816
20
-28.0337
11
75.986
21
-28.0329
0
LINE
8
BLACK
6
CONTINUOUS
10
75.986
20
-28.0329
11
75.9905
21
-28.032
0
LINE
8
BLACK
6
CONTINUOUS
10
75.9905
20
-28.032
11
76.7668
21
-27.9504
0
LINE
8
BLACK
6
CONTINUOUS
10
76.7668
20
-27.9504
11
76.7668
21
-27.9504
0
LINE
8
BLACK
6
CONTINUOUS
10
76.7668
20
-27.9504
11
76.7675
21
-27.9503
0
LINE
8
BLACK
6
CONTINUOUS
10
76.7675
20
-27.9503
11
76.7721
21
-27.9503
0
LINE
8
BLACK
6
CONTINUOUS
10
76.7721
20
-27.9503
11
76.7766
21
-27.9503
0
LINE
8
BLACK
6
CONTINUOUS
10
76.7766
20
-27.9503
11
77.554
21
-28.0211
0
LINE
8
BLACK
6
CONTINUOUS
10
77.554
20
-28.0211
11
77.5541
21
-28.0211
0
LINE
8
BLACK
6
CONTINUOUS
10
77.5541
20
-28.0211
11
77.5541
21
-28.0211
0
LINE
8
BLACK
6
CONTINUOUS
10
77.5541
20
-28.0211
11
77.5548
21
-28.0211
0
LINE
8
BLACK
6
CONTINUOUS
10
77.5548
20
-28.0211
11
77.5591
21
-28.022
0
LINE
8
BLACK
6
CONTINUOUS
10
77.5591
20
-28.022
11
77.5636
21
-28.0229
0
LINE
8
BLACK
6
CONTINUOUS
10
77.5636
20
-28.0229
11
78.3125
21
-28.2433
0
LINE
8
BLACK
6
CONTINUOUS
10
78.3125
20
-28.2433
11
78.3132
21
-28.2435
0
LINE
8
BLACK
6
CONTINUOUS
10
78.3132
20
-28.2435
11
78.3174
21
-28.2452
0
LINE
8
BLACK
6
CONTINUOUS
10
78.3174
20
-28.2452
11
78.3216
21
-28.247
0
LINE
8
BLACK
6
CONTINUOUS
10
78.3216
20
-28.247
11
79.0134
21
-28.6086
0
LINE
8
BLACK
6
CONTINUOUS
10
79.0134
20
-28.6086
11
79.0134
21
-28.6086
0
LINE
8
BLACK
6
CONTINUOUS
10
79.0134
20
-28.6086
11
79.0134
21
-28.6086
0
LINE
8
BLACK
6
CONTINUOUS
10
79.0134
20
-28.6086
11
79.014
21
-28.609
0
LINE
8
BLACK
6
CONTINUOUS
10
79.014
20
-28.609
11
79.0178
21
-28.6115
0
LINE
8
BLACK
6
CONTINUOUS
10
79.0178
20
-28.6115
11
79.0216
21
-28.614
0
LINE
8
BLACK
6
CONTINUOUS
10
79.0216
20
-28.614
11
79.63
21
-29.1031
0
LINE
8
BLACK
6
CONTINUOUS
10
79.63
20
-29.1031
11
79.6305
21
-29.1036
0
LINE
8
BLACK
6
CONTINUOUS
10
79.6305
20
-29.1036
11
79.6337
21
-29.1068
0
LINE
8
BLACK
6
CONTINUOUS
10
79.6337
20
-29.1068
11
79.637
21
-29.11
0
LINE
8
BLACK
6
CONTINUOUS
10
79.637
20
-29.11
11
80.1388
21
-29.708
0
LINE
8
BLACK
6
CONTINUOUS
10
80.1388
20
-29.708
11
80.1388
21
-29.708
0
LINE
8
BLACK
6
CONTINUOUS
10
80.1388
20
-29.708
11
80.1388
21
-29.708
0
LINE
8
BLACK
6
CONTINUOUS
10
80.1388
20
-29.708
11
80.1392
21
-29.7085
0
LINE
8
BLACK
6
CONTINUOUS
10
80.1392
20
-29.7085
11
80.1417
21
-29.7123
0
LINE
8
BLACK
6
CONTINUOUS
10
80.1417
20
-29.7123
11
80.1443
21
-29.716
0
LINE
8
BLACK
6
CONTINUOUS
10
80.1443
20
-29.716
11
80.5204
21
-30.4001
0
LINE
8
BLACK
6
CONTINUOUS
10
80.5204
20
-30.4001
11
80.5204
21
-30.4001
0
LINE
8
BLACK
6
CONTINUOUS
10
80.5204
20
-30.4001
11
80.5204
21
-30.4001
0
LINE
8
BLACK
6
CONTINUOUS
10
80.5204
20
-30.4001
11
80.5207
21
-30.4008
0
LINE
8
BLACK
6
CONTINUOUS
10
80.5207
20
-30.4008
11
80.5224
21
-30.4049
0
LINE
8
BLACK
6
CONTINUOUS
10
80.5224
20
-30.4049
11
80.5242
21
-30.4091
0
LINE
8
BLACK
6
CONTINUOUS
10
80.5242
20
-30.4091
11
80.7602
21
-31.1532
0
LINE
8
BLACK
6
CONTINUOUS
10
80.7602
20
-31.1532
11
80.7602
21
-31.1532
0
LINE
8
BLACK
6
CONTINUOUS
10
80.7602
20
-31.1532
11
80.7603
21
-31.1532
0
LINE
8
BLACK
6
CONTINUOUS
10
80.7603
20
-31.1532
11
80.7605
21
-31.1539
0
LINE
8
BLACK
6
CONTINUOUS
10
80.7605
20
-31.1539
11
80.7613
21
-31.1583
0
LINE
8
BLACK
6
CONTINUOUS
10
80.7613
20
-31.1583
11
80.7623
21
-31.1628
0
LINE
8
BLACK
6
CONTINUOUS
10
80.7623
20
-31.1628
11
80.8493
21
-31.9386
0
LINE
8
BLACK
6
CONTINUOUS
10
80.8493
20
-31.9386
11
80.8494
21
-31.9393
0
LINE
8
BLACK
6
CONTINUOUS
10
80.8494
20
-31.9393
11
80.8494
21
-31.9415
0
LINE
8
BLACK
6
CONTINUOUS
10
80.8494
20
-31.9415
11
80.8496
21
-31.9438
0
LINE
8
BLACK
6
CONTINUOUS
10
80.8496
20
-31.9438
11
80.85
21
-31.9974
0
LINE
8
BLACK
6
CONTINUOUS
10
80.85
20
-31.9974
11
80.85
21
-31.9976
0
LINE
8
BLACK
6
CONTINUOUS
10
80.85
20
-31.9976
11
80.85
21
-32.8998
0
LINE
8
BLACK
6
CONTINUOUS
10
80.85
20
-32.8998
11
80.8501
21
-32.9182
0
LINE
8
BLACK
6
CONTINUOUS
10
80.8501
20
-32.9182
11
80.9105
21
-33.4931
0
LINE
8
BLACK
6
CONTINUOUS
10
80.9105
20
-33.4931
11
81.0807
21
-34.0431
0
LINE
8
BLACK
6
CONTINUOUS
10
81.0807
20
-34.0431
11
81.3545
21
-34.5495
0
LINE
8
BLACK
6
CONTINUOUS
10
81.3545
20
-34.5495
11
81.7215
21
-34.9931
0
LINE
8
BLACK
6
CONTINUOUS
10
81.7215
20
-34.9931
11
82.1676
21
-35.3569
0
LINE
8
BLACK
6
CONTINUOUS
10
82.1676
20
-35.3569
11
82.6759
21
-35.6272
0
LINE
8
BLACK
6
CONTINUOUS
10
82.6759
20
-35.6272
11
83.2271
21
-35.7936
0
LINE
8
BLACK
6
CONTINUOUS
10
83.2271
20
-35.7936
11
83.8024
21
-35.85
0
LINE
8
BLACK
6
CONTINUOUS
10
83.8024
20
-35.85
11
86.2024
21
-35.85
0
LINE
8
BLACK
6
CONTINUOUS
10
86.2024
20
-35.85
11
86.2049
21
-35.8502
0
LINE
8
BLACK
6
CONTINUOUS
10
86.2049
20
-35.8502
11
86.2049
21
-35.8502
0
LINE
8
BLACK
6
CONTINUOUS
10
86.2049
20
-35.8502
11
86.3991
21
-35.8693
0
LINE
8
BLACK
6
CONTINUOUS
10
86.3991
20
-35.8693
11
86.3991
21
-35.8693
0
LINE
8
BLACK
6
CONTINUOUS
10
86.3991
20
-35.8693
11
86.3991
21
-35.8693
0
LINE
8
BLACK
6
CONTINUOUS
10
86.3991
20
-35.8693
11
86.3998
21
-35.8694
0
LINE
8
BLACK
6
CONTINUOUS
10
86.3998
20
-35.8694
11
86.4042
21
-35.8703
0
LINE
8
BLACK
6
CONTINUOUS
10
86.4042
20
-35.8703
11
86.4087
21
-35.8712
0
LINE
8
BLACK
6
CONTINUOUS
10
86.4087
20
-35.8712
11
86.5955
21
-35.9276
0
LINE
8
BLACK
6
CONTINUOUS
10
86.5955
20
-35.9276
11
86.5962
21
-35.9278
0
LINE
8
BLACK
6
CONTINUOUS
10
86.5962
20
-35.9278
11
86.6004
21
-35.9296
0
LINE
8
BLACK
6
CONTINUOUS
10
86.6004
20
-35.9296
11
86.6045
21
-35.9313
0
LINE
8
BLACK
6
CONTINUOUS
10
86.6045
20
-35.9313
11
86.7769
21
-36.0229
0
LINE
8
BLACK
6
CONTINUOUS
10
86.7769
20
-36.0229
11
86.7769
21
-36.0229
0
LINE
8
BLACK
6
CONTINUOUS
10
86.7769
20
-36.0229
11
86.7769
21
-36.0229
0
LINE
8
BLACK
6
CONTINUOUS
10
86.7769
20
-36.0229
11
86.7775
21
-36.0233
0
LINE
8
BLACK
6
CONTINUOUS
10
86.7775
20
-36.0233
11
86.7812
21
-36.0258
0
LINE
8
BLACK
6
CONTINUOUS
10
86.7812
20
-36.0258
11
86.785
21
-36.0283
0
LINE
8
BLACK
6
CONTINUOUS
10
86.785
20
-36.0283
11
86.9362
21
-36.1517
0
LINE
8
BLACK
6
CONTINUOUS
10
86.9362
20
-36.1517
11
86.9362
21
-36.1517
0
LINE
8
BLACK
6
CONTINUOUS
10
86.9362
20
-36.1517
11
86.9362
21
-36.1517
0
LINE
8
BLACK
6
CONTINUOUS
10
86.9362
20
-36.1517
11
86.9368
21
-36.1521
0
LINE
8
BLACK
6
CONTINUOUS
10
86.9368
20
-36.1521
11
86.9399
21
-36.1553
0
LINE
8
BLACK
6
CONTINUOUS
10
86.9399
20
-36.1553
11
86.9432
21
-36.1586
0
LINE
8
BLACK
6
CONTINUOUS
10
86.9432
20
-36.1586
11
87.0676
21
-36.3089
0
LINE
8
BLACK
6
CONTINUOUS
10
87.0676
20
-36.3089
11
87.068
21
-36.3095
0
LINE
8
BLACK
6
CONTINUOUS
10
87.068
20
-36.3095
11
87.0705
21
-36.3133
0
LINE
8
BLACK
6
CONTINUOUS
10
87.0705
20
-36.3133
11
87.073
21
-36.317
0
LINE
8
BLACK
6
CONTINUOUS
10
87.073
20
-36.317
11
87.1658
21
-36.4887
0
LINE
8
BLACK
6
CONTINUOUS
10
87.1658
20
-36.4887
11
87.1658
21
-36.4887
0
LINE
8
BLACK
6
CONTINUOUS
10
87.1658
20
-36.4887
11
87.1659
21
-36.4887
0
LINE
8
BLACK
6
CONTINUOUS
10
87.1659
20
-36.4887
11
87.1662
21
-36.4893
0
LINE
8
BLACK
6
CONTINUOUS
10
87.1662
20
-36.4893
11
87.1679
21
-36.4935
0
LINE
8
BLACK
6
CONTINUOUS
10
87.1679
20
-36.4935
11
87.1696
21
-36.4977
0
LINE
8
BLACK
6
CONTINUOUS
10
87.1696
20
-36.4977
11
87.2273
21
-36.6841
0
LINE
8
BLACK
6
CONTINUOUS
10
87.2273
20
-36.6841
11
87.2275
21
-36.6848
0
LINE
8
BLACK
6
CONTINUOUS
10
87.2275
20
-36.6848
11
87.2284
21
-36.6892
0
LINE
8
BLACK
6
CONTINUOUS
10
87.2284
20
-36.6892
11
87.2293
21
-36.6937
0
LINE
8
BLACK
6
CONTINUOUS
10
87.2293
20
-36.6937
11
87.2497
21
-36.8878
0
LINE
8
BLACK
6
CONTINUOUS
10
87.2497
20
-36.8878
11
87.2498
21
-36.8885
0
LINE
8
BLACK
6
CONTINUOUS
10
87.2498
20
-36.8885
11
87.2498
21
-36.8907
0
LINE
8
BLACK
6
CONTINUOUS
10
87.2498
20
-36.8907
11
87.25
21
-36.8928
0
LINE
8
BLACK
6
CONTINUOUS
10
87.25
20
-36.8928
11
87.25
21
-36.8975
0
LINE
8
BLACK
6
CONTINUOUS
10
87.25
20
-36.8975
11
87.25
21
-36.8976
0
LINE
8
BLACK
6
CONTINUOUS
10
87.25
20
-36.8976
11
87.25
21
-49.65
0
LINE
8
BLACK
6
CONTINUOUS
10
87.25
20
-49.65
11
103.25
21
-49.65
0
LINE
8
BLACK
6
CONTINUOUS
10
103.25
20
-49.65
11
103.25
21
-36.8976
0
LINE
8
BLACK
6
CONTINUOUS
10
103.25
20
-36.8976
11
103.25
21
-36.8951
0
LINE
8
BLACK
6
CONTINUOUS
10
103.25
20
-36.8951
11
103.25
21
-36.8951
0
LINE
8
BLACK
6
CONTINUOUS
10
103.25
20
-36.8951
11
103.269
21
-36.7009
0
LINE
8
BLACK
6
CONTINUOUS
10
103.269
20
-36.7009
11
103.269
21
-36.7009
0
LINE
8
BLACK
6
CONTINUOUS
10
103.269
20
-36.7009
11
103.269
21
-36.7009
0
LINE
8
BLACK
6
CONTINUOUS
10
103.269
20
-36.7009
11
103.269
21
-36.7002
0
LINE
8
BLACK
6
CONTINUOUS
10
103.269
20
-36.7002
11
103.27
21
-36.6958
0
LINE
8
BLACK
6
CONTINUOUS
10
103.27
20
-36.6958
11
103.271
21
-36.6913
0
LINE
8
BLACK
6
CONTINUOUS
10
103.271
20
-36.6913
11
103.328
21
-36.5045
0
LINE
8
BLACK
6
CONTINUOUS
10
103.328
20
-36.5045
11
103.328
21
-36.5038
0
LINE
8
BLACK
6
CONTINUOUS
10
103.328
20
-36.5038
11
103.33
21
-36.4996
0
LINE
8
BLACK
6
CONTINUOUS
10
103.33
20
-36.4996
11
103.331
21
-36.4955
0
LINE
8
BLACK
6
CONTINUOUS
10
103.331
20
-36.4955
11
103.423
21
-36.3231
0
LINE
8
BLACK
6
CONTINUOUS
10
103.423
20
-36.3231
11
103.423
21
-36.3231
0
LINE
8
BLACK
6
CONTINUOUS
10
103.423
20
-36.3231
11
103.423
21
-36.3231
0
LINE
8
BLACK
6
CONTINUOUS
10
103.423
20
-36.3231
11
103.423
21
-36.3225
0
LINE
8
BLACK
6
CONTINUOUS
10
103.423
20
-36.3225
11
103.426
21
-36.3188
0
LINE
8
BLACK
6
CONTINUOUS
10
103.426
20
-36.3188
11
103.428
21
-36.315
0
LINE
8
BLACK
6
CONTINUOUS
10
103.428
20
-36.315
11
103.552
21
-36.1638
0
LINE
8
BLACK
6
CONTINUOUS
10
103.552
20
-36.1638
11
103.552
21
-36.1638
0
LINE
8
BLACK
6
CONTINUOUS
10
103.552
20
-36.1638
11
103.552
21
-36.1638
0
LINE
8
BLACK
6
CONTINUOUS
10
103.552
20
-36.1638
11
103.552
21
-36.1632
0
LINE
8
BLACK
6
CONTINUOUS
10
103.552
20
-36.1632
11
103.555
21
-36.1601
0
LINE
8
BLACK
6
CONTINUOUS
10
103.555
20
-36.1601
11
103.559
21
-36.1568
0
LINE
8
BLACK
6
CONTINUOUS
10
103.559
20
-36.1568
11
103.709
21
-36.0324
0
LINE
8
BLACK
6
CONTINUOUS
10
103.709
20
-36.0324
11
103.709
21
-36.032
0
LINE
8
BLACK
6
CONTINUOUS
10
103.709
20
-36.032
11
103.713
21
-36.0295
0
LINE
8
BLACK
6
CONTINUOUS
10
103.713
20
-36.0295
11
103.717
21
-36.027
0
LINE
8
BLACK
6
CONTINUOUS
10
103.717
20
-36.027
11
103.889
21
-35.9342
0
LINE
8
BLACK
6
CONTINUOUS
10
103.889
20
-35.9342
11
103.889
21
-35.9342
0
LINE
8
BLACK
6
CONTINUOUS
10
103.889
20
-35.9342
11
103.889
21
-35.9341
0
LINE
8
BLACK
6
CONTINUOUS
10
103.889
20
-35.9341
11
103.889
21
-35.9338
0
LINE
8
BLACK
6
CONTINUOUS
10
103.889
20
-35.9338
11
103.893
21
-35.9321
0
LINE
8
BLACK
6
CONTINUOUS
10
103.893
20
-35.9321
11
103.898
21
-35.9304
0
LINE
8
BLACK
6
CONTINUOUS
10
103.898
20
-35.9304
11
104.084
21
-35.8727
0
LINE
8
BLACK
6
CONTINUOUS
10
104.084
20
-35.8727
11
104.084
21
-35.8727
0
LINE
8
BLACK
6
CONTINUOUS
10
104.084
20
-35.8727
11
104.085
21
-35.8725
0
LINE
8
BLACK
6
CONTINUOUS
10
104.085
20
-35.8725
11
104.089
21
-35.8716
0
LINE
8
BLACK
6
CONTINUOUS
10
104.089
20
-35.8716
11
104.094
21
-35.8707
0
LINE
8
BLACK
6
CONTINUOUS
10
104.094
20
-35.8707
11
104.288
21
-35.8503
0
LINE
8
BLACK
6
CONTINUOUS
10
104.288
20
-35.8503
11
104.288
21
-35.8502
0
LINE
8
BLACK
6
CONTINUOUS
10
104.288
20
-35.8502
11
104.291
21
-35.8502
0
LINE
8
BLACK
6
CONTINUOUS
10
104.291
20
-35.8502
11
104.293
21
-35.85
0
LINE
8
BLACK
6
CONTINUOUS
10
104.293
20
-35.85
11
104.297
21
-35.85
0
LINE
8
BLACK
6
CONTINUOUS
10
104.297
20
-35.85
11
104.298
21
-35.85
0
LINE
8
BLACK
6
CONTINUOUS
10
104.298
20
-35.85
11
136.3
21
-35.85
0
LINE
8
BLACK
6
CONTINUOUS
10
136.3
20
-35.85
11
136.318
21
-35.8499
0
LINE
8
BLACK
6
CONTINUOUS
10
136.318
20
-35.8499
11
136.893
21
-35.7895
0
LINE
8
BLACK
6
CONTINUOUS
10
136.893
20
-35.7895
11
137.443
21
-35.6193
0
LINE
8
BLACK
6
CONTINUOUS
10
137.443
20
-35.6193
11
137.949
21
-35.3455
0
LINE
8
BLACK
6
CONTINUOUS
10
137.949
20
-35.3455
11
138.393
21
-34.9785
0
LINE
8
BLACK
6
CONTINUOUS
10
138.393
20
-34.9785
11
138.757
21
-34.5324
0
LINE
8
BLACK
6
CONTINUOUS
10
138.757
20
-34.5324
11
139.027
21
-34.0241
0
LINE
8
BLACK
6
CONTINUOUS
10
139.027
20
-34.0241
11
139.194
21
-33.4729
0
LINE
8
BLACK
6
CONTINUOUS
10
139.194
20
-33.4729
11
139.25
21
-32.8976
0
LINE
8
BLACK
6
CONTINUOUS
10
139.25
20
-32.8976
11
139.25
21
-31.9976
0
LINE
8
BLACK
6
CONTINUOUS
10
139.25
20
-31.9976
11
139.25
21
-31.9951
0
LINE
8
BLACK
6
CONTINUOUS
10
139.25
20
-31.9951
11
139.25
21
-31.9951
0
LINE
8
BLACK
6
CONTINUOUS
10
139.25
20
-31.9951
11
139.326
21
-31.2182
0
LINE
8
BLACK
6
CONTINUOUS
10
139.326
20
-31.2182
11
139.326
21
-31.2182
0
LINE
8
BLACK
6
CONTINUOUS
10
139.326
20
-31.2182
11
139.326
21
-31.2182
0
LINE
8
BLACK
6
CONTINUOUS
10
139.326
20
-31.2182
11
139.326
21
-31.2175
0
LINE
8
BLACK
6
CONTINUOUS
10
139.326
20
-31.2175
11
139.327
21
-31.2131
0
LINE
8
BLACK
6
CONTINUOUS
10
139.327
20
-31.2131
11
139.328
21
-31.2086
0
LINE
8
BLACK
6
CONTINUOUS
10
139.328
20
-31.2086
11
139.554
21
-30.4613
0
LINE
8
BLACK
6
CONTINUOUS
10
139.554
20
-30.4613
11
139.554
21
-30.4606
0
LINE
8
BLACK
6
CONTINUOUS
10
139.554
20
-30.4606
11
139.556
21
-30.4565
0
LINE
8
BLACK
6
CONTINUOUS
10
139.556
20
-30.4565
11
139.558
21
-30.4522
0
LINE
8
BLACK
6
CONTINUOUS
10
139.558
20
-30.4522
11
139.924
21
-29.763
0
LINE
8
BLACK
6
CONTINUOUS
10
139.924
20
-29.763
11
139.924
21
-29.7623
0
LINE
8
BLACK
6
CONTINUOUS
10
139.924
20
-29.7623
11
139.927
21
-29.7586
0
LINE
8
BLACK
6
CONTINUOUS
10
139.927
20
-29.7586
11
139.93
21
-29.7548
0
LINE
8
BLACK
6
CONTINUOUS
10
139.93
20
-29.7548
11
140.423
21
-29.1499
0
LINE
8
BLACK
6
CONTINUOUS
10
140.423
20
-29.1499
11
140.423
21
-29.1493
0
LINE
8
BLACK
6
CONTINUOUS
10
140.423
20
-29.1493
11
140.427
21
-29.1462
0
LINE
8
BLACK
6
CONTINUOUS
10
140.427
20
-29.1462
11
140.43
21
-29.1429
0
LINE
8
BLACK
6
CONTINUOUS
10
140.43
20
-29.1429
11
141.031
21
-28.6453
0
LINE
8
BLACK
6
CONTINUOUS
10
141.031
20
-28.6453
11
141.031
21
-28.6453
0
LINE
8
BLACK
6
CONTINUOUS
10
141.031
20
-28.6453
11
141.031
21
-28.6453
0
LINE
8
BLACK
6
CONTINUOUS
10
141.031
20
-28.6453
11
141.032
21
-28.6449
0
LINE
8
BLACK
6
CONTINUOUS
10
141.032
20
-28.6449
11
141.036
21
-28.6424
0
LINE
8
BLACK
6
CONTINUOUS
10
141.036
20
-28.6424
11
141.039
21
-28.6399
0
LINE
8
BLACK
6
CONTINUOUS
10
141.039
20
-28.6399
11
141.726
21
-28.2686
0
LINE
8
BLACK
6
CONTINUOUS
10
141.726
20
-28.2686
11
141.726
21
-28.2686
0
LINE
8
BLACK
6
CONTINUOUS
10
141.726
20
-28.2686
11
141.726
21
-28.2686
0
LINE
8
BLACK
6
CONTINUOUS
10
141.726
20
-28.2686
11
141.727
21
-28.2682
0
LINE
8
BLACK
6
CONTINUOUS
10
141.727
20
-28.2682
11
141.731
21
-28.2666
0
LINE
8
BLACK
6
CONTINUOUS
10
141.731
20
-28.2666
11
141.735
21
-28.2648
0
LINE
8
BLACK
6
CONTINUOUS
10
141.735
20
-28.2648
11
142.481
21
-28.0339
0
LINE
8
BLACK
6
CONTINUOUS
10
142.481
20
-28.0339
11
142.482
21
-28.0337
0
LINE
8
BLACK
6
CONTINUOUS
10
142.482
20
-28.0337
11
142.486
21
-28.0329
0
LINE
8
BLACK
6
CONTINUOUS
10
142.486
20
-28.0329
11
142.49
21
-28.032
0
LINE
8
BLACK
6
CONTINUOUS
10
142.49
20
-28.032
11
143.267
21
-27.9504
0
LINE
8
BLACK
6
CONTINUOUS
10
143.267
20
-27.9504
11
143.267
21
-27.9504
0
LINE
8
BLACK
6
CONTINUOUS
10
143.267
20
-27.9504
11
143.268
21
-27.9503
0
LINE
8
BLACK
6
CONTINUOUS
10
143.268
20
-27.9503
11
143.272
21
-27.9503
0
LINE
8
BLACK
6
CONTINUOUS
10
143.272
20
-27.9503
11
143.277
21
-27.9503
0
LINE
8
BLACK
6
CONTINUOUS
10
143.277
20
-27.9503
11
144.054
21
-28.0211
0
LINE
8
BLACK
6
CONTINUOUS
10
144.054
20
-28.0211
11
144.054
21
-28.0211
0
LINE
8
BLACK
6
CONTINUOUS
10
144.054
20
-28.0211
11
144.054
21
-28.0211
0
LINE
8
BLACK
6
CONTINUOUS
10
144.054
20
-28.0211
11
144.055
21
-28.0211
0
LINE
8
BLACK
6
CONTINUOUS
10
144.055
20
-28.0211
11
144.059
21
-28.022
0
LINE
8
BLACK
6
CONTINUOUS
10
144.059
20
-28.022
11
144.064
21
-28.0229
0
LINE
8
BLACK
6
CONTINUOUS
10
144.064
20
-28.0229
11
144.813
21
-28.2433
0
LINE
8
BLACK
6
CONTINUOUS
10
144.813
20
-28.2433
11
144.813
21
-28.2435
0
LINE
8
BLACK
6
CONTINUOUS
10
144.813
20
-28.2435
11
144.817
21
-28.2452
0
LINE
8
BLACK
6
CONTINUOUS
10
144.817
20
-28.2452
11
144.822
21
-28.247
0
LINE
8
BLACK
6
CONTINUOUS
10
144.822
20
-28.247
11
145.513
21
-28.6086
0
LINE
8
BLACK
6
CONTINUOUS
10
145.513
20
-28.6086
11
145.513
21
-28.6086
0
LINE
8
BLACK
6
CONTINUOUS
10
145.513
20
-28.6086
11
145.513
21
-28.6086
0
LINE
8
BLACK
6
CONTINUOUS
10
145.513
20
-28.6086
11
145.514
21
-28.609
0
LINE
8
BLACK
6
CONTINUOUS
10
145.514
20
-28.609
11
145.518
21
-28.6115
0
LINE
8
BLACK
6
CONTINUOUS
10
145.518
20
-28.6115
11
145.522
21
-28.614
0
LINE
8
BLACK
6
CONTINUOUS
10
145.522
20
-28.614
11
146.13
21
-29.1031
0
LINE
8
BLACK
6
CONTINUOUS
10
146.13
20
-29.1031
11
146.131
21
-29.1036
0
LINE
8
BLACK
6
CONTINUOUS
10
146.131
20
-29.1036
11
146.134
21
-29.1068
0
LINE
8
BLACK
6
CONTINUOUS
10
146.134
20
-29.1068
11
146.137
21
-29.11
0
LINE
8
BLACK
6
CONTINUOUS
10
146.137
20
-29.11
11
146.639
21
-29.708
0
LINE
8
BLACK
6
CONTINUOUS
10
146.639
20
-29.708
11
146.639
21
-29.708
0
LINE
8
BLACK
6
CONTINUOUS
10
146.639
20
-29.708
11
146.639
21
-29.708
0
LINE
8
BLACK
6
CONTINUOUS
10
146.639
20
-29.708
11
146.639
21
-29.7085
0
LINE
8
BLACK
6
CONTINUOUS
10
146.639
20
-29.7085
11
146.642
21
-29.7123
0
LINE
8
BLACK
6
CONTINUOUS
10
146.642
20
-29.7123
11
146.644
21
-29.716
0
LINE
8
BLACK
6
CONTINUOUS
10
146.644
20
-29.716
11
147.02
21
-30.4001
0
LINE
8
BLACK
6
CONTINUOUS
10
147.02
20
-30.4001
11
147.02
21
-30.4001
0
LINE
8
BLACK
6
CONTINUOUS
10
147.02
20
-30.4001
11
147.02
21
-30.4001
0
LINE
8
BLACK
6
CONTINUOUS
10
147.02
20
-30.4001
11
147.021
21
-30.4008
0
LINE
8
BLACK
6
CONTINUOUS
10
147.021
20
-30.4008
11
147.022
21
-30.4049
0
LINE
8
BLACK
6
CONTINUOUS
10
147.022
20
-30.4049
11
147.024
21
-30.4091
0
LINE
8
BLACK
6
CONTINUOUS
10
147.024
20
-30.4091
11
147.26
21
-31.1532
0
LINE
8
BLACK
6
CONTINUOUS
10
147.26
20
-31.1532
11
147.26
21
-31.1532
0
LINE
8
BLACK
6
CONTINUOUS
10
147.26
20
-31.1532
11
147.26
21
-31.1532
0
LINE
8
BLACK
6
CONTINUOUS
10
147.26
20
-31.1532
11
147.26
21
-31.1539
0
LINE
8
BLACK
6
CONTINUOUS
10
147.26
20
-31.1539
11
147.261
21
-31.1583
0
LINE
8
BLACK
6
CONTINUOUS
10
147.261
20
-31.1583
11
147.262
21
-31.1628
0
LINE
8
BLACK
6
CONTINUOUS
10
147.262
20
-31.1628
11
147.349
21
-31.9386
0
LINE
8
BLACK
6
CONTINUOUS
10
147.349
20
-31.9386
11
147.349
21
-31.9393
0
LINE
8
BLACK
6
CONTINUOUS
10
147.349
20
-31.9393
11
147.349
21
-31.9415
0
LINE
8
BLACK
6
CONTINUOUS
10
147.349
20
-31.9415
11
147.35
21
-31.9438
0
LINE
8
BLACK
6
CONTINUOUS
10
147.35
20
-31.9438
11
147.35
21
-31.9974
0
LINE
8
BLACK
6
CONTINUOUS
10
147.35
20
-31.9974
11
147.35
21
-31.9976
0
LINE
8
BLACK
6
CONTINUOUS
10
147.35
20
-31.9976
11
147.35
21
-79.0024
0
LINE
8
BLACK
6
CONTINUOUS
10
147.35
20
-79.0024
11
147.35
21
-79.0049
0
LINE
8
BLACK
6
CONTINUOUS
10
104.296
20
-35.95
11
104.109
21
-35.9696
0
LINE
8
BLACK
6
CONTINUOUS
10
104.109
20
-35.9696
11
103.932
21
-36.0245
0
LINE
8
BLACK
6
CONTINUOUS
10
103.932
20
-36.0245
11
103.769
21
-36.1126
0
LINE
8
BLACK
6
CONTINUOUS
10
103.769
20
-36.1126
11
103.626
21
-36.2308
0
LINE
8
BLACK
6
CONTINUOUS
10
103.626
20
-36.2308
11
103.509
21
-36.3744
0
LINE
8
BLACK
6
CONTINUOUS
10
103.509
20
-36.3744
11
103.422
21
-36.5381
0
LINE
8
BLACK
6
CONTINUOUS
10
103.422
20
-36.5381
11
103.368
21
-36.7155
0
LINE
8
BLACK
6
CONTINUOUS
10
103.368
20
-36.7155
11
103.35
21
-36.9024
0
LINE
8
BLACK
6
CONTINUOUS
10
103.35
20
-36.9024
11
103.35
21
-49.6976
0
LINE
8
BLACK
6
CONTINUOUS
10
103.35
20
-49.6976
11
103.35
21
-49.7
0
LINE
8
BLACK
6
CONTINUOUS
10
103.35
20
-49.7
11
103.349
21
-49.7098
0
LINE
8
BLACK
6
CONTINUOUS
10
103.349
20
-49.7098
11
103.346
21
-49.7192
0
LINE
8
BLACK
6
CONTINUOUS
10
103.346
20
-49.7192
11
103.342
21
-49.7279
0
LINE
8
BLACK
6
CONTINUOUS
10
103.342
20
-49.7279
11
103.336
21
-49.7355
0
LINE
8
BLACK
6
CONTINUOUS
10
103.336
20
-49.7355
11
103.328
21
-49.7418
0
LINE
8
BLACK
6
CONTINUOUS
10
103.328
20
-49.7418
11
103.319
21
-49.7464
0
LINE
8
BLACK
6
CONTINUOUS
10
103.319
20
-49.7464
11
103.31
21
-49.7493
0
LINE
8
BLACK
6
CONTINUOUS
10
103.31
20
-49.7493
11
103.302
21
-49.75
0
LINE
8
BLACK
6
CONTINUOUS
10
103.302
20
-49.75
11
103.3
21
-49.7502
0
LINE
8
BLACK
6
CONTINUOUS
10
103.3
20
-49.7502
11
103.298
21
-49.75
0
LINE
8
BLACK
6
CONTINUOUS
10
103.298
20
-49.75
11
87.2024
21
-49.75
0
LINE
8
BLACK
6
CONTINUOUS
10
87.2024
20
-49.75
11
87.2
21
-49.7502
0
LINE
8
BLACK
6
CONTINUOUS
10
87.2
20
-49.7502
11
87.1976
21
-49.75
0
LINE
8
BLACK
6
CONTINUOUS
10
87.1976
20
-49.75
11
87.1902
21
-49.7493
0
LINE
8
BLACK
6
CONTINUOUS
10
87.1902
20
-49.7493
11
87.1808
21
-49.7464
0
LINE
8
BLACK
6
CONTINUOUS
10
87.1808
20
-49.7464
11
87.1721
21
-49.7418
0
LINE
8
BLACK
6
CONTINUOUS
10
87.1721
20
-49.7418
11
87.1645
21
-49.7355
0
LINE
8
BLACK
6
CONTINUOUS
10
87.1645
20
-49.7355
11
87.1582
21
-49.7279
0
LINE
8
BLACK
6
CONTINUOUS
10
87.1582
20
-49.7279
11
87.1536
21
-49.7192
0
LINE
8
BLACK
6
CONTINUOUS
10
87.1536
20
-49.7192
11
87.1507
21
-49.7098
0
LINE
8
BLACK
6
CONTINUOUS
10
87.1507
20
-49.7098
11
87.1498
21
-49.7
0
LINE
8
BLACK
6
CONTINUOUS
10
87.1498
20
-49.7
11
87.15
21
-49.6975
0
LINE
8
BLACK
6
CONTINUOUS
10
87.15
20
-49.6975
11
87.15
21
-36.9002
0
LINE
8
BLACK
6
CONTINUOUS
10
87.15
20
-36.9002
11
87.15
21
-36.8957
0
LINE
8
BLACK
6
CONTINUOUS
10
87.15
20
-36.8957
11
87.1304
21
-36.709
0
LINE
8
BLACK
6
CONTINUOUS
10
87.1304
20
-36.709
11
87.0755
21
-36.532
0
LINE
8
BLACK
6
CONTINUOUS
10
87.0755
20
-36.532
11
86.9874
21
-36.3689
0
LINE
8
BLACK
6
CONTINUOUS
10
86.9874
20
-36.3689
11
86.8692
21
-36.2261
0
LINE
8
BLACK
6
CONTINUOUS
10
86.8692
20
-36.2261
11
86.7256
21
-36.1089
0
LINE
8
BLACK
6
CONTINUOUS
10
86.7256
20
-36.1089
11
86.5619
21
-36.0219
0
LINE
8
BLACK
6
CONTINUOUS
10
86.5619
20
-36.0219
11
86.3845
21
-35.9683
0
LINE
8
BLACK
6
CONTINUOUS
10
86.3845
20
-35.9683
11
86.1976
21
-35.95
0
LINE
8
BLACK
6
CONTINUOUS
10
86.1976
20
-35.95
11
83.7976
21
-35.95
0
LINE
8
BLACK
6
CONTINUOUS
10
83.7976
20
-35.95
11
83.7951
21
-35.9498
0
LINE
8
BLACK
6
CONTINUOUS
10
83.7951
20
-35.9498
11
83.7951
21
-35.9498
0
LINE
8
BLACK
6
CONTINUOUS
10
83.7951
20
-35.9498
11
83.2124
21
-35.8926
0
LINE
8
BLACK
6
CONTINUOUS
10
83.2124
20
-35.8926
11
83.2124
21
-35.8926
0
LINE
8
BLACK
6
CONTINUOUS
10
83.2124
20
-35.8926
11
83.2124
21
-35.8926
0
LINE
8
BLACK
6
CONTINUOUS
10
83.2124
20
-35.8926
11
83.2117
21
-35.8926
0
LINE
8
BLACK
6
CONTINUOUS
10
83.2117
20
-35.8926
11
83.2073
21
-35.8916
0
LINE
8
BLACK
6
CONTINUOUS
10
83.2073
20
-35.8916
11
83.2028
21
-35.8907
0
LINE
8
BLACK
6
CONTINUOUS
10
83.2028
20
-35.8907
11
82.6423
21
-35.7215
0
LINE
8
BLACK
6
CONTINUOUS
10
82.6423
20
-35.7215
11
82.6423
21
-35.7215
0
LINE
8
BLACK
6
CONTINUOUS
10
82.6423
20
-35.7215
11
82.6423
21
-35.7215
0
LINE
8
BLACK
6
CONTINUOUS
10
82.6423
20
-35.7215
11
82.6417
21
-35.7213
0
LINE
8
BLACK
6
CONTINUOUS
10
82.6417
20
-35.7213
11
82.6376
21
-35.7195
0
LINE
8
BLACK
6
CONTINUOUS
10
82.6376
20
-35.7195
11
82.6333
21
-35.7178
0
LINE
8
BLACK
6
CONTINUOUS
10
82.6333
20
-35.7178
11
82.1164
21
-35.4429
0
LINE
8
BLACK
6
CONTINUOUS
10
82.1164
20
-35.4429
11
82.1163
21
-35.4429
0
LINE
8
BLACK
6
CONTINUOUS
10
82.1163
20
-35.4429
11
82.1157
21
-35.4426
0
LINE
8
BLACK
6
CONTINUOUS
10
82.1157
20
-35.4426
11
82.112
21
-35.44
0
LINE
8
BLACK
6
CONTINUOUS
10
82.112
20
-35.44
11
82.1082
21
-35.4375
0
LINE
8
BLACK
6
CONTINUOUS
10
82.1082
20
-35.4375
11
81.6545
21
-35.0675
0
LINE
8
BLACK
6
CONTINUOUS
10
81.6545
20
-35.0675
11
81.6545
21
-35.0675
0
LINE
8
BLACK
6
CONTINUOUS
10
81.6545
20
-35.0675
11
81.6545
21
-35.0675
0
LINE
8
BLACK
6
CONTINUOUS
10
81.6545
20
-35.0675
11
81.654
21
-35.067
0
LINE
8
BLACK
6
CONTINUOUS
10
81.654
20
-35.067
11
81.6508
21
-35.0638
0
LINE
8
BLACK
6
CONTINUOUS
10
81.6508
20
-35.0638
11
81.6476
21
-35.0606
0
LINE
8
BLACK
6
CONTINUOUS
10
81.6476
20
-35.0606
11
81.2744
21
-34.6094
0
LINE
8
BLACK
6
CONTINUOUS
10
81.2744
20
-34.6094
11
81.2739
21
-34.6089
0
LINE
8
BLACK
6
CONTINUOUS
10
81.2739
20
-34.6089
11
81.2714
21
-34.6051
0
LINE
8
BLACK
6
CONTINUOUS
10
81.2714
20
-34.6051
11
81.2689
21
-34.6014
0
LINE
8
BLACK
6
CONTINUOUS
10
81.2689
20
-34.6014
11
80.9904
21
-34.0863
0
LINE
8
BLACK
6
CONTINUOUS
10
80.9904
20
-34.0863
11
80.9904
21
-34.0863
0
LINE
8
BLACK
6
CONTINUOUS
10
80.9904
20
-34.0863
11
80.9904
21
-34.0863
0
LINE
8
BLACK
6
CONTINUOUS
10
80.9904
20
-34.0863
11
80.9901
21
-34.0857
0
LINE
8
BLACK
6
CONTINUOUS
10
80.9901
20
-34.0857
11
80.9884
21
-34.0815
0
LINE
8
BLACK
6
CONTINUOUS
10
80.9884
20
-34.0815
11
80.9866
21
-34.0773
0
LINE
8
BLACK
6
CONTINUOUS
10
80.9866
20
-34.0773
11
80.8135
21
-33.518
0
LINE
8
BLACK
6
CONTINUOUS
10
80.8135
20
-33.518
11
80.8133
21
-33.5174
0
LINE
8
BLACK
6
CONTINUOUS
10
80.8133
20
-33.5174
11
80.8125
21
-33.5129
0
LINE
8
BLACK
6
CONTINUOUS
10
80.8125
20
-33.5129
11
80.8115
21
-33.5085
0
LINE
8
BLACK
6
CONTINUOUS
10
80.8115
20
-33.5085
11
80.7503
21
-32.9262
0
LINE
8
BLACK
6
CONTINUOUS
10
80.7503
20
-32.9262
11
80.7503
21
-32.9255
0
LINE
8
BLACK
6
CONTINUOUS
10
80.7503
20
-32.9255
11
80.7503
21
-32.9233
0
LINE
8
BLACK
6
CONTINUOUS
10
80.7503
20
-32.9233
11
80.7501
21
-32.9211
0
LINE
8
BLACK
6
CONTINUOUS
10
80.7501
20
-32.9211
11
80.75
21
-32.9025
0
LINE
8
BLACK
6
CONTINUOUS
10
80.75
20
-32.9025
11
80.75
21
-32.9024
0
LINE
8
BLACK
6
CONTINUOUS
10
80.75
20
-32.9024
11
80.75
21
-32.0003
0
LINE
8
BLACK
6
CONTINUOUS
10
80.75
20
-32.0003
11
80.7496
21
-31.9471
0
LINE
8
BLACK
6
CONTINUOUS
10
80.7496
20
-31.9471
11
80.6634
21
-31.1788
0
LINE
8
BLACK
6
CONTINUOUS
10
80.6634
20
-31.1788
11
80.4304
21
-30.444
0
LINE
8
BLACK
6
CONTINUOUS
10
80.4304
20
-30.444
11
80.059
21
-29.7685
0
LINE
8
BLACK
6
CONTINUOUS
10
80.059
20
-29.7685
11
79.5635
21
-29.178
0
LINE
8
BLACK
6
CONTINUOUS
10
79.5635
20
-29.178
11
78.9627
21
-28.695
0
LINE
8
BLACK
6
CONTINUOUS
10
78.9627
20
-28.695
11
78.2796
21
-28.3378
0
LINE
8
BLACK
6
CONTINUOUS
10
78.2796
20
-28.3378
11
77.5401
21
-28.1202
0
LINE
8
BLACK
6
CONTINUOUS
10
77.5401
20
-28.1202
11
76.7724
21
-28.0503
0
LINE
8
BLACK
6
CONTINUOUS
10
76.7724
20
-28.0503
11
76.0058
21
-28.1309
0
LINE
8
BLACK
6
CONTINUOUS
10
76.0058
20
-28.1309
11
75.2694
21
-28.3589
0
LINE
8
BLACK
6
CONTINUOUS
10
75.2694
20
-28.3589
11
74.5913
21
-28.7255
0
LINE
8
BLACK
6
CONTINUOUS
10
74.5913
20
-28.7255
11
73.9974
21
-29.2169
0
LINE
8
BLACK
6
CONTINUOUS
10
73.9974
20
-29.2169
11
73.5102
21
-29.8142
0
LINE
8
BLACK
6
CONTINUOUS
10
73.5102
20
-29.8142
11
73.1483
21
-30.4949
0
LINE
8
BLACK
6
CONTINUOUS
10
73.1483
20
-30.4949
11
72.9255
21
-31.2328
0
LINE
8
BLACK
6
CONTINUOUS
10
72.9255
20
-31.2328
11
72.85
21
-32.0024
0
LINE
8
BLACK
6
CONTINUOUS
10
72.85
20
-32.0024
11
72.85
21
-78.9998
0
LINE
8
BLACK
6
CONTINUOUS
10
72.85
20
-78.9998
11
72.8504
21
-79.0529
0
LINE
8
BLACK
6
CONTINUOUS
10
72.8504
20
-79.0529
11
72.9366
21
-79.8212
0
LINE
8
BLACK
6
CONTINUOUS
10
72.9366
20
-79.8212
11
73.1696
21
-80.556
0
LINE
8
BLACK
6
CONTINUOUS
10
73.1696
20
-80.556
11
73.541
21
-81.2315
0
LINE
8
BLACK
6
CONTINUOUS
10
73.541
20
-81.2315
11
74.0365
21
-81.822
0
LINE
8
BLACK
6
CONTINUOUS
10
74.0365
20
-81.822
11
74.6373
21
-82.305
0
LINE
8
BLACK
6
CONTINUOUS
10
74.6373
20
-82.305
11
75.3204
21
-82.6622
0
LINE
8
BLACK
6
CONTINUOUS
10
75.3204
20
-82.6622
11
76.0599
21
-82.8798
0
LINE
8
BLACK
6
CONTINUOUS
10
76.0599
20
-82.8798
11
76.8276
21
-82.9497
0
LINE
8
BLACK
6
CONTINUOUS
10
76.8276
20
-82.9497
11
77.5942
21
-82.8691
0
LINE
8
BLACK
6
CONTINUOUS
10
77.5942
20
-82.8691
11
78.3306
21
-82.6411
0
LINE
8
BLACK
6
CONTINUOUS
10
78.3306
20
-82.6411
11
79.0087
21
-82.2745
0
LINE
8
BLACK
6
CONTINUOUS
10
79.0087
20
-82.2745
11
79.6026
21
-81.7831
0
LINE
8
BLACK
6
CONTINUOUS
10
79.6026
20
-81.7831
11
80.0898
21
-81.1858
0
LINE
8
BLACK
6
CONTINUOUS
10
80.0898
20
-81.1858
11
80.4517
21
-80.5051
0
LINE
8
BLACK
6
CONTINUOUS
10
80.4517
20
-80.5051
11
80.6745
21
-79.7672
0
LINE
8
BLACK
6
CONTINUOUS
10
80.6745
20
-79.7672
11
80.75
21
-78.9975
0
LINE
8
BLACK
6
CONTINUOUS
10
80.75
20
-78.9975
11
80.75
21
-78.0976
0
LINE
8
BLACK
6
CONTINUOUS
10
80.75
20
-78.0976
11
80.7504
21
-78.0938
0
LINE
8
BLACK
6
CONTINUOUS
10
80.7504
20
-78.0938
11
80.8074
21
-77.5124
0
LINE
8
BLACK
6
CONTINUOUS
10
80.8074
20
-77.5124
11
80.8074
21
-77.5124
0
LINE
8
BLACK
6
CONTINUOUS
10
80.8074
20
-77.5124
11
80.8074
21
-77.5124
0
LINE
8
BLACK
6
CONTINUOUS
10
80.8074
20
-77.5124
11
80.8074
21
-77.5117
0
LINE
8
BLACK
6
CONTINUOUS
10
80.8074
20
-77.5117
11
80.8084
21
-77.5073
0
LINE
8
BLACK
6
CONTINUOUS
10
80.8084
20
-77.5073
11
80.8093
21
-77.5028
0
LINE
8
BLACK
6
CONTINUOUS
10
80.8093
20
-77.5028
11
80.9785
21
-76.9423
0
LINE
8
BLACK
6
CONTINUOUS
10
80.9785
20
-76.9423
11
80.9787
21
-76.9417
0
LINE
8
BLACK
6
CONTINUOUS
10
80.9787
20
-76.9417
11
80.9805
21
-76.9375
0
LINE
8
BLACK
6
CONTINUOUS
10
80.9805
20
-76.9375
11
80.9822
21
-76.9333
0
LINE
8
BLACK
6
CONTINUOUS
10
80.9822
20
-76.9333
11
81.2571
21
-76.4164
0
LINE
8
BLACK
6
CONTINUOUS
10
81.2571
20
-76.4164
11
81.2571
21
-76.4164
0
LINE
8
BLACK
6
CONTINUOUS
10
81.2571
20
-76.4164
11
81.2571
21
-76.4163
0
LINE
8
BLACK
6
CONTINUOUS
10
81.2571
20
-76.4163
11
81.2574
21
-76.4157
0
LINE
8
BLACK
6
CONTINUOUS
10
81.2574
20
-76.4157
11
81.26
21
-76.412
0
LINE
8
BLACK
6
CONTINUOUS
10
81.26
20
-76.412
11
81.2625
21
-76.4082
0
LINE
8
BLACK
6
CONTINUOUS
10
81.2625
20
-76.4082
11
81.6325
21
-75.9545
0
LINE
8
BLACK
6
CONTINUOUS
10
81.6325
20
-75.9545
11
81.633
21
-75.954
0
LINE
8
BLACK
6
CONTINUOUS
10
81.633
20
-75.954
11
81.6362
21
-75.9508
0
LINE
8
BLACK
6
CONTINUOUS
10
81.6362
20
-75.9508
11
81.6394
21
-75.9476
0
LINE
8
BLACK
6
CONTINUOUS
10
81.6394
20
-75.9476
11
82.0905
21
-75.5744
0
LINE
8
BLACK
6
CONTINUOUS
10
82.0905
20
-75.5744
11
82.0905
21
-75.5744
0
LINE
8
BLACK
6
CONTINUOUS
10
82.0905
20
-75.5744
11
82.0906
21
-75.5744
0
LINE
8
BLACK
6
CONTINUOUS
10
82.0906
20
-75.5744
11
82.0911
21
-75.5739
0
LINE
8
BLACK
6
CONTINUOUS
10
82.0911
20
-75.5739
11
82.0949
21
-75.5715
0
LINE
8
BLACK
6
CONTINUOUS
10
82.0949
20
-75.5715
11
82.0986
21
-75.5689
0
LINE
8
BLACK
6
CONTINUOUS
10
82.0986
20
-75.5689
11
82.6137
21
-75.2904
0
LINE
8
BLACK
6
CONTINUOUS
10
82.6137
20
-75.2904
11
82.6137
21
-75.2904
0
LINE
8
BLACK
6
CONTINUOUS
10
82.6137
20
-75.2904
11
82.6137
21
-75.2904
0
LINE
8
BLACK
6
CONTINUOUS
10
82.6137
20
-75.2904
11
82.6143
21
-75.2901
0
LINE
8
BLACK
6
CONTINUOUS
10
82.6143
20
-75.2901
11
82.6185
21
-75.2884
0
LINE
8
BLACK
6
CONTINUOUS
10
82.6185
20
-75.2884
11
82.6227
21
-75.2866
0
LINE
8
BLACK
6
CONTINUOUS
10
82.6227
20
-75.2866
11
83.182
21
-75.1135
0
LINE
8
BLACK
6
CONTINUOUS
10
83.182
20
-75.1135
11
83.182
21
-75.1135
0
LINE
8
BLACK
6
CONTINUOUS
10
83.182
20
-75.1135
11
83.1826
21
-75.1133
0
LINE
8
BLACK
6
CONTINUOUS
10
83.1826
20
-75.1133
11
83.1871
21
-75.1125
0
LINE
8
BLACK
6
CONTINUOUS
10
83.1871
20
-75.1125
11
83.1915
21
-75.1115
0
LINE
8
BLACK
6
CONTINUOUS
10
83.1915
20
-75.1115
11
83.7738
21
-75.0503
0
LINE
8
BLACK
6
CONTINUOUS
10
83.7738
20
-75.0503
11
83.7745
21
-75.0503
0
LINE
8
BLACK
6
CONTINUOUS
10
83.7745
20
-75.0503
11
83.7767
21
-75.0503
0
LINE
8
BLACK
6
CONTINUOUS
10
83.7767
20
-75.0503
11
83.7789
21
-75.0501
0
LINE
8
BLACK
6
CONTINUOUS
10
83.7789
20
-75.0501
11
83.7975
21
-75.05
0
LINE
8
BLACK
6
CONTINUOUS
10
83.7975
20
-75.05
11
83.7976
21
-75.05
0
LINE
8
BLACK
6
CONTINUOUS
10
83.7976
20
-75.05
11
136.302
21
-75.05
0
LINE
8
BLACK
6
CONTINUOUS
10
136.302
20
-75.05
11
136.305
21
-75.0502
0
LINE
8
BLACK
6
CONTINUOUS
10
136.305
20
-75.0502
11
136.305
21
-75.0502
0
LINE
8
BLACK
6
CONTINUOUS
10
136.305
20
-75.0502
11
136.888
21
-75.1074
0
LINE
8
BLACK
6
CONTINUOUS
10
136.888
20
-75.1074
11
136.888
21
-75.1074
0
LINE
8
BLACK
6
CONTINUOUS
10
136.888
20
-75.1074
11
136.888
21
-75.1074
0
LINE
8
BLACK
6
CONTINUOUS
10
136.888
20
-75.1074
11
136.888
21
-75.1074
0
LINE
8
BLACK
6
CONTINUOUS
10
136.888
20
-75.1074
11
136.893
21
-75.1084
0
LINE
8
BLACK
6
CONTINUOUS
10
136.893
20
-75.1084
11
136.897
21
-75.1093
0
LINE
8
BLACK
6
CONTINUOUS
10
136.897
20
-75.1093
11
137.458
21
-75.2785
0
LINE
8
BLACK
6
CONTINUOUS
10
137.458
20
-75.2785
11
137.458
21
-75.2787
0
LINE
8
BLACK
6
CONTINUOUS
10
137.458
20
-75.2787
11
137.463
21
-75.2805
0
LINE
8
BLACK
6
CONTINUOUS
10
137.463
20
-75.2805
11
137.467
21
-75.2822
0
LINE
8
BLACK
6
CONTINUOUS
10
137.467
20
-75.2822
11
137.984
21
-75.5571
0
LINE
8
BLACK
6
CONTINUOUS
10
137.984
20
-75.5571
11
137.984
21
-75.5571
0
LINE
8
BLACK
6
CONTINUOUS
10
137.984
20
-75.5571
11
137.984
21
-75.5571
0
LINE
8
BLACK
6
CONTINUOUS
10
137.984
20
-75.5571
11
137.984
21
-75.5574
0
LINE
8
BLACK
6
CONTINUOUS
10
137.984
20
-75.5574
11
137.988
21
-75.56
0
LINE
8
BLACK
6
CONTINUOUS
10
137.988
20
-75.56
11
137.992
21
-75.5625
0
LINE
8
BLACK
6
CONTINUOUS
10
137.992
20
-75.5625
11
138.446
21
-75.9325
0
LINE
8
BLACK
6
CONTINUOUS
10
138.446
20
-75.9325
11
138.446
21
-75.933
0
LINE
8
BLACK
6
CONTINUOUS
10
138.446
20
-75.933
11
138.449
21
-75.9362
0
LINE
8
BLACK
6
CONTINUOUS
10
138.449
20
-75.9362
11
138.452
21
-75.9394
0
LINE
8
BLACK
6
CONTINUOUS
10
138.452
20
-75.9394
11
138.826
21
-76.3905
0
LINE
8
BLACK
6
CONTINUOUS
10
138.826
20
-76.3905
11
138.826
21
-76.3905
0
LINE
8
BLACK
6
CONTINUOUS
10
138.826
20
-76.3905
11
138.826
21
-76.3906
0
LINE
8
BLACK
6
CONTINUOUS
10
138.826
20
-76.3906
11
138.826
21
-76.3911
0
LINE
8
BLACK
6
CONTINUOUS
10
138.826
20
-76.3911
11
138.829
21
-76.3949
0
LINE
8
BLACK
6
CONTINUOUS
10
138.829
20
-76.3949
11
138.831
21
-76.3986
0
LINE
8
BLACK
6
CONTINUOUS
10
138.831
20
-76.3986
11
139.11
21
-76.9137
0
LINE
8
BLACK
6
CONTINUOUS
10
139.11
20
-76.9137
11
139.11
21
-76.9137
0
LINE
8
BLACK
6
CONTINUOUS
10
139.11
20
-76.9137
11
139.11
21
-76.9137
0
LINE
8
BLACK
6
CONTINUOUS
10
139.11
20
-76.9137
11
139.11
21
-76.9143
0
LINE
8
BLACK
6
CONTINUOUS
10
139.11
20
-76.9143
11
139.112
21
-76.9185
0
LINE
8
BLACK
6
CONTINUOUS
10
139.112
20
-76.9185
11
139.113
21
-76.9227
0
LINE
8
BLACK
6
CONTINUOUS
10
139.113
20
-76.9227
11
139.286
21
-77.482
0
LINE
8
BLACK
6
CONTINUOUS
10
139.286
20
-77.482
11
139.287
21
-77.4826
0
LINE
8
BLACK
6
CONTINUOUS
10
139.287
20
-77.4826
11
139.288
21
-77.4871
0
LINE
8
BLACK
6
CONTINUOUS
10
139.288
20
-77.4871
11
139.288
21
-77.4915
0
LINE
8
BLACK
6
CONTINUOUS
10
139.288
20
-77.4915
11
139.35
21
-78.0738
0
LINE
8
BLACK
6
CONTINUOUS
10
139.35
20
-78.0738
11
139.35
21
-78.0745
0
LINE
8
BLACK
6
CONTINUOUS
10
139.35
20
-78.0745
11
139.35
21
-78.0767
0
LINE
8
BLACK
6
CONTINUOUS
10
139.35
20
-78.0767
11
139.35
21
-78.0789
0
LINE
8
BLACK
6
CONTINUOUS
10
139.35
20
-78.0789
11
139.35
21
-78.0975
0
LINE
8
BLACK
6
CONTINUOUS
10
139.35
20
-78.0975
11
139.35
21
-78.0976
0
LINE
8
BLACK
6
CONTINUOUS
10
139.35
20
-78.0976
11
139.35
21
-78.9998
0
LINE
8
BLACK
6
CONTINUOUS
10
139.35
20
-78.9998
11
139.35
21
-79.0529
0
LINE
8
BLACK
6
CONTINUOUS
10
139.35
20
-79.0529
11
139.437
21
-79.8212
0
LINE
8
BLACK
6
CONTINUOUS
10
139.437
20
-79.8212
11
139.67
21
-80.556
0
LINE
8
BLACK
6
CONTINUOUS
10
139.67
20
-80.556
11
140.041
21
-81.2315
0
LINE
8
BLACK
6
CONTINUOUS
10
140.041
20
-81.2315
11
140.536
21
-81.822
0
LINE
8
BLACK
6
CONTINUOUS
10
140.536
20
-81.822
11
141.137
21
-82.305
0
LINE
8
BLACK
6
CONTINUOUS
10
141.137
20
-82.305
11
141.82
21
-82.6622
0
LINE
8
BLACK
6
CONTINUOUS
10
141.82
20
-82.6622
11
142.56
21
-82.8798
0
LINE
8
BLACK
6
CONTINUOUS
10
142.56
20
-82.8798
11
143.328
21
-82.9497
0
LINE
8
BLACK
6
CONTINUOUS
10
143.328
20
-82.9497
11
144.094
21
-82.8691
0
LINE
8
BLACK
6
CONTINUOUS
10
144.094
20
-82.8691
11
144.831
21
-82.6411
0
LINE
8
BLACK
6
CONTINUOUS
10
144.831
20
-82.6411
11
145.509
21
-82.2745
0
LINE
8
BLACK
6
CONTINUOUS
10
145.509
20
-82.2745
11
146.103
21
-81.7831
0
LINE
8
BLACK
6
CONTINUOUS
10
146.103
20
-81.7831
11
146.59
21
-81.1858
0
LINE
8
BLACK
6
CONTINUOUS
10
146.59
20
-81.1858
11
146.952
21
-80.5051
0
LINE
8
BLACK
6
CONTINUOUS
10
146.952
20
-80.5051
11
147.175
21
-79.7672
0
LINE
8
BLACK
6
CONTINUOUS
10
147.175
20
-79.7672
11
147.25
21
-78.9976
0
LINE
8
BLACK
6
CONTINUOUS
10
147.25
20
-78.9976
11
147.25
21
-74.5025
0
LINE
8
BLACK
6
CONTINUOUS
10
147.25
20
-74.5025
11
147.25
21
-74.5024
0
LINE
8
BLACK
6
CONTINUOUS
10
147.25
20
-74.5024
11
147.25
21
-36.0025
0
LINE
8
BLACK
6
CONTINUOUS
10
147.25
20
-36.0025
11
147.25
21
-36.0024
0
LINE
8
BLACK
6
CONTINUOUS
10
147.25
20
-36.0024
11
147.25
21
-35.8976
0
LINE
8
BLACK
6
CONTINUOUS
10
147.25
20
-35.8976
11
147.25
21
-32.0002
0
LINE
8
BLACK
6
CONTINUOUS
10
147.25
20
-32.0002
11
147.25
21
-31.9471
0
LINE
8
BLACK
6
CONTINUOUS
10
147.25
20
-31.9471
11
147.163
21
-31.1788
0
LINE
8
BLACK
6
CONTINUOUS
10
147.163
20
-31.1788
11
146.93
21
-30.444
0
LINE
8
BLACK
6
CONTINUOUS
10
146.93
20
-30.444
11
146.559
21
-29.7685
0
LINE
8
BLACK
6
CONTINUOUS
10
146.559
20
-29.7685
11
146.064
21
-29.178
0
LINE
8
BLACK
6
CONTINUOUS
10
146.064
20
-29.178
11
145.463
21
-28.695
0
LINE
8
BLACK
6
CONTINUOUS
10
145.463
20
-28.695
11
144.78
21
-28.3378
0
LINE
8
BLACK
6
CONTINUOUS
10
144.78
20
-28.3378
11
144.04
21
-28.1202
0
LINE
8
BLACK
6
CONTINUOUS
10
144.04
20
-28.1202
11
143.272
21
-28.0503
0
LINE
8
BLACK
6
CONTINUOUS
10
143.272
20
-28.0503
11
142.506
21
-28.1309
0
LINE
8
BLACK
6
CONTINUOUS
10
142.506
20
-28.1309
11
141.769
21
-28.3589
0
LINE
8
BLACK
6
CONTINUOUS
10
141.769
20
-28.3589
11
141.091
21
-28.7255
0
LINE
8
BLACK
6
CONTINUOUS
10
141.091
20
-28.7255
11
140.497
21
-29.2169
0
LINE
8
BLACK
6
CONTINUOUS
10
140.497
20
-29.2169
11
140.01
21
-29.8142
0
LINE
8
BLACK
6
CONTINUOUS
10
140.01
20
-29.8142
11
139.648
21
-30.4949
0
LINE
8
BLACK
6
CONTINUOUS
10
139.648
20
-30.4949
11
139.425
21
-31.2328
0
LINE
8
BLACK
6
CONTINUOUS
10
139.425
20
-31.2328
11
139.35
21
-32.0024
0
LINE
8
BLACK
6
CONTINUOUS
10
139.35
20
-32.0024
11
139.35
21
-32.9024
0
LINE
8
BLACK
6
CONTINUOUS
10
139.35
20
-32.9024
11
139.35
21
-32.9049
0
LINE
8
BLACK
6
CONTINUOUS
10
139.35
20
-32.9049
11
139.35
21
-32.9049
0
LINE
8
BLACK
6
CONTINUOUS
10
139.35
20
-32.9049
11
139.293
21
-33.4876
0
LINE
8
BLACK
6
CONTINUOUS
10
139.293
20
-33.4876
11
139.293
21
-33.4876
0
LINE
8
BLACK
6
CONTINUOUS
10
139.293
20
-33.4876
11
139.293
21
-33.4876
0
LINE
8
BLACK
6
CONTINUOUS
10
139.293
20
-33.4876
11
139.293
21
-33.4883
0
LINE
8
BLACK
6
CONTINUOUS
10
139.293
20
-33.4883
11
139.292
21
-33.4927
0
LINE
8
BLACK
6
CONTINUOUS
10
139.292
20
-33.4927
11
139.291
21
-33.4972
0
LINE
8
BLACK
6
CONTINUOUS
10
139.291
20
-33.4972
11
139.122
21
-34.0577
0
LINE
8
BLACK
6
CONTINUOUS
10
139.122
20
-34.0577
11
139.122
21
-34.0577
0
LINE
8
BLACK
6
CONTINUOUS
10
139.122
20
-34.0577
11
139.122
21
-34.0577
0
LINE
8
BLACK
6
CONTINUOUS
10
139.122
20
-34.0577
11
139.121
21
-34.0583
0
LINE
8
BLACK
6
CONTINUOUS
10
139.121
20
-34.0583
11
139.12
21
-34.0624
0
LINE
8
BLACK
6
CONTINUOUS
10
139.12
20
-34.0624
11
139.118
21
-34.0667
0
LINE
8
BLACK
6
CONTINUOUS
10
139.118
20
-34.0667
11
138.843
21
-34.5836
0
LINE
8
BLACK
6
CONTINUOUS
10
138.843
20
-34.5836
11
138.843
21
-34.5843
0
LINE
8
BLACK
6
CONTINUOUS
10
138.843
20
-34.5843
11
138.84
21
-34.588
0
LINE
8
BLACK
6
CONTINUOUS
10
138.84
20
-34.588
11
138.838
21
-34.5918
0
LINE
8
BLACK
6
CONTINUOUS
10
138.838
20
-34.5918
11
138.467
21
-35.0455
0
LINE
8
BLACK
6
CONTINUOUS
10
138.467
20
-35.0455
11
138.467
21
-35.0455
0
LINE
8
BLACK
6
CONTINUOUS
10
138.467
20
-35.0455
11
138.467
21
-35.0455
0
LINE
8
BLACK
6
CONTINUOUS
10
138.467
20
-35.0455
11
138.467
21
-35.046
0
LINE
8
BLACK
6
CONTINUOUS
10
138.467
20
-35.046
11
138.464
21
-35.0492
0
LINE
8
BLACK
6
CONTINUOUS
10
138.464
20
-35.0492
11
138.461
21
-35.0524
0
LINE
8
BLACK
6
CONTINUOUS
10
138.461
20
-35.0524
11
138.009
21
-35.4256
0
LINE
8
BLACK
6
CONTINUOUS
10
138.009
20
-35.4256
11
138.009
21
-35.4261
0
LINE
8
BLACK
6
CONTINUOUS
10
138.009
20
-35.4261
11
138.005
21
-35.4286
0
LINE
8
BLACK
6
CONTINUOUS
10
138.005
20
-35.4286
11
138.001
21
-35.4311
0
LINE
8
BLACK
6
CONTINUOUS
10
138.001
20
-35.4311
11
137.486
21
-35.7096
0
LINE
8
BLACK
6
CONTINUOUS
10
137.486
20
-35.7096
11
137.486
21
-35.7096
0
LINE
8
BLACK
6
CONTINUOUS
10
137.486
20
-35.7096
11
137.486
21
-35.7096
0
LINE
8
BLACK
6
CONTINUOUS
10
137.486
20
-35.7096
11
137.486
21
-35.7099
0
LINE
8
BLACK
6
CONTINUOUS
10
137.486
20
-35.7099
11
137.482
21
-35.7116
0
LINE
8
BLACK
6
CONTINUOUS
10
137.482
20
-35.7116
11
137.477
21
-35.7134
0
LINE
8
BLACK
6
CONTINUOUS
10
137.477
20
-35.7134
11
136.918
21
-35.8865
0
LINE
8
BLACK
6
CONTINUOUS
10
136.918
20
-35.8865
11
136.917
21
-35.8867
0
LINE
8
BLACK
6
CONTINUOUS
10
136.917
20
-35.8867
11
136.913
21
-35.8875
0
LINE
8
BLACK
6
CONTINUOUS
10
136.913
20
-35.8875
11
136.908
21
-35.8885
0
LINE
8
BLACK
6
CONTINUOUS
10
136.908
20
-35.8885
11
136.326
21
-35.9497
0
LINE
8
BLACK
6
CONTINUOUS
10
136.326
20
-35.9497
11
136.325
21
-35.9497
0
LINE
8
BLACK
6
CONTINUOUS
10
136.325
20
-35.9497
11
136.323
21
-35.9497
0
LINE
8
BLACK
6
CONTINUOUS
10
136.323
20
-35.9497
11
136.321
21
-35.9499
0
LINE
8
BLACK
6
CONTINUOUS
10
136.321
20
-35.9499
11
136.303
21
-35.95
0
LINE
8
BLACK
6
CONTINUOUS
10
136.303
20
-35.95
11
136.302
21
-35.95
0
LINE
8
BLACK
6
CONTINUOUS
10
136.302
20
-35.95
11
104.3
21
-35.95
0
LINE
8
BLACK
6
CONTINUOUS
10
104.3
20
-35.95
11
104.296
21
-35.95
0
LINE
8
BLACK
6
CONTINUOUS
10
78.344
20
-79.6364
11
78.191
21
-79.9242
0
LINE
8
BLACK
6
CONTINUOUS
10
78.191
20
-79.9242
11
77.985
21
-80.1767
0
LINE
8
BLACK
6
CONTINUOUS
10
77.985
20
-80.1767
11
77.7339
21
-80.3845
0
LINE
8
BLACK
6
CONTINUOUS
10
77.7339
20
-80.3845
11
77.4472
21
-80.5395
0
LINE
8
BLACK
6
CONTINUOUS
10
77.4472
20
-80.5395
11
77.1358
21
-80.6359
0
LINE
8
BLACK
6
CONTINUOUS
10
77.1358
20
-80.6359
11
76.8117
21
-80.67
0
LINE
8
BLACK
6
CONTINUOUS
10
76.8117
20
-80.67
11
76.4871
21
-80.6404
0
LINE
8
BLACK
6
CONTINUOUS
10
76.4871
20
-80.6404
11
76.1744
21
-80.5484
0
LINE
8
BLACK
6
CONTINUOUS
10
76.1744
20
-80.5484
11
75.8856
21
-80.3974
0
LINE
8
BLACK
6
CONTINUOUS
10
75.8856
20
-80.3974
11
75.6316
21
-80.1932
0
LINE
8
BLACK
6
CONTINUOUS
10
75.6316
20
-80.1932
11
75.4221
21
-79.9435
0
LINE
8
BLACK
6
CONTINUOUS
10
75.4221
20
-79.9435
11
75.265
21
-79.6579
0
LINE
8
BLACK
6
CONTINUOUS
10
75.265
20
-79.6579
11
75.1665
21
-79.3472
0
LINE
8
BLACK
6
CONTINUOUS
10
75.1665
20
-79.3472
11
75.1302
21
-79.0233
0
LINE
8
BLACK
6
CONTINUOUS
10
75.1302
20
-79.0233
11
75.1574
21
-78.6985
0
LINE
8
BLACK
6
CONTINUOUS
10
75.1574
20
-78.6985
11
75.2473
21
-78.3852
0
LINE
8
BLACK
6
CONTINUOUS
10
75.2473
20
-78.3852
11
75.3963
21
-78.0953
0
LINE
8
BLACK
6
CONTINUOUS
10
75.3963
20
-78.0953
11
75.5987
21
-77.8399
0
LINE
8
BLACK
6
CONTINUOUS
10
75.5987
20
-77.8399
11
75.8469
21
-77.6287
0
LINE
8
BLACK
6
CONTINUOUS
10
75.8469
20
-77.6287
11
76.1314
21
-77.4697
0
LINE
8
BLACK
6
CONTINUOUS
10
76.1314
20
-77.4697
11
76.4414
21
-77.369
0
LINE
8
BLACK
6
CONTINUOUS
10
76.4414
20
-77.369
11
76.765
21
-77.3304
0
LINE
8
BLACK
6
CONTINUOUS
10
76.765
20
-77.3304
11
77.09
21
-77.3554
0
LINE
8
BLACK
6
CONTINUOUS
10
77.09
20
-77.3554
11
77.4039
21
-77.443
0
LINE
8
BLACK
6
CONTINUOUS
10
77.4039
20
-77.443
11
77.6948
21
-77.59
0
LINE
8
BLACK
6
CONTINUOUS
10
77.6948
20
-77.59
11
77.9517
21
-77.7906
0
LINE
8
BLACK
6
CONTINUOUS
10
77.9517
20
-77.7906
11
78.1646
21
-78.0374
0
LINE
8
BLACK
6
CONTINUOUS
10
78.1646
20
-78.0374
11
78.3256
21
-78.3207
0
LINE
8
BLACK
6
CONTINUOUS
10
78.3256
20
-78.3207
11
78.4285
21
-78.63
0
LINE
8
BLACK
6
CONTINUOUS
10
78.4285
20
-78.63
11
78.4693
21
-78.9534
0
LINE
8
BLACK
6
CONTINUOUS
10
78.4693
20
-78.9534
11
78.47
21
-79
0
LINE
8
BLACK
6
CONTINUOUS
10
78.47
20
-79
11
78.4382
21
-79.3244
0
LINE
8
BLACK
6
CONTINUOUS
10
78.4382
20
-79.3244
11
78.344
21
-79.6364
0
LINE
8
BLACK
6
CONTINUOUS
10
78.233
20
-78.4093
11
78.091
21
-78.1422
0
LINE
8
BLACK
6
CONTINUOUS
10
78.091
20
-78.1422
11
77.8998
21
-77.9078
0
LINE
8
BLACK
6
CONTINUOUS
10
77.8998
20
-77.9078
11
77.6667
21
-77.715
0
LINE
8
BLACK
6
CONTINUOUS
10
77.6667
20
-77.715
11
77.4006
21
-77.5711
0
LINE
8
BLACK
6
CONTINUOUS
10
77.4006
20
-77.5711
11
77.1117
21
-77.4817
0
LINE
8
BLACK
6
CONTINUOUS
10
77.1117
20
-77.4817
11
76.8108
21
-77.45
0
LINE
8
BLACK
6
CONTINUOUS
10
76.8108
20
-77.45
11
76.5096
21
-77.4775
0
LINE
8
BLACK
6
CONTINUOUS
10
76.5096
20
-77.4775
11
76.2194
21
-77.5629
0
LINE
8
BLACK
6
CONTINUOUS
10
76.2194
20
-77.5629
11
75.9513
21
-77.703
0
LINE
8
BLACK
6
CONTINUOUS
10
75.9513
20
-77.703
11
75.7155
21
-77.8926
0
LINE
8
BLACK
6
CONTINUOUS
10
75.7155
20
-77.8926
11
75.5211
21
-78.1243
0
LINE
8
BLACK
6
CONTINUOUS
10
75.5211
20
-78.1243
11
75.3753
21
-78.3894
0
LINE
8
BLACK
6
CONTINUOUS
10
75.3753
20
-78.3894
11
75.2839
21
-78.6777
0
LINE
8
BLACK
6
CONTINUOUS
10
75.2839
20
-78.6777
11
75.2502
21
-78.9784
0
LINE
8
BLACK
6
CONTINUOUS
10
75.2502
20
-78.9784
11
75.2755
21
-79.2798
0
LINE
8
BLACK
6
CONTINUOUS
10
75.2755
20
-79.2798
11
75.3588
21
-79.5706
0
LINE
8
BLACK
6
CONTINUOUS
10
75.3588
20
-79.5706
11
75.4971
21
-79.8396
0
LINE
8
BLACK
6
CONTINUOUS
10
75.4971
20
-79.8396
11
75.685
21
-80.0767
0
LINE
8
BLACK
6
CONTINUOUS
10
75.685
20
-80.0767
11
75.9154
21
-80.2728
0
LINE
8
BLACK
6
CONTINUOUS
10
75.9154
20
-80.2728
11
76.1795
21
-80.4204
0
LINE
8
BLACK
6
CONTINUOUS
10
76.1795
20
-80.4204
11
76.4672
21
-80.5138
0
LINE
8
BLACK
6
CONTINUOUS
10
76.4672
20
-80.5138
11
76.7675
21
-80.5497
0
LINE
8
BLACK
6
CONTINUOUS
10
76.7675
20
-80.5497
11
77.0692
21
-80.5265
0
LINE
8
BLACK
6
CONTINUOUS
10
77.0692
20
-80.5265
11
77.3605
21
-80.4451
0
LINE
8
BLACK
6
CONTINUOUS
10
77.3605
20
-80.4451
11
77.6305
21
-80.3087
0
LINE
8
BLACK
6
CONTINUOUS
10
77.6305
20
-80.3087
11
77.8689
21
-80.1225
0
LINE
8
BLACK
6
CONTINUOUS
10
77.8689
20
-80.1225
11
78.0666
21
-79.8935
0
LINE
8
BLACK
6
CONTINUOUS
10
78.0666
20
-79.8935
11
78.216
21
-79.6304
0
LINE
8
BLACK
6
CONTINUOUS
10
78.216
20
-79.6304
11
78.3115
21
-79.3434
0
LINE
8
BLACK
6
CONTINUOUS
10
78.3115
20
-79.3434
11
78.3494
21
-79.0433
0
LINE
8
BLACK
6
CONTINUOUS
10
78.3494
20
-79.0433
11
78.35
21
-79
0
LINE
8
BLACK
6
CONTINUOUS
10
78.35
20
-79
11
78.3205
21
-78.6989
0
LINE
8
BLACK
6
CONTINUOUS
10
78.3205
20
-78.6989
11
78.233
21
-78.4093
0
LINE
8
BLACK
6
CONTINUOUS
10
144.844
20
-79.6364
11
144.691
21
-79.9242
0
LINE
8
BLACK
6
CONTINUOUS
10
144.691
20
-79.9242
11
144.485
21
-80.1767
0
LINE
8
BLACK
6
CONTINUOUS
10
144.485
20
-80.1767
11
144.234
21
-80.3845
0
LINE
8
BLACK
6
CONTINUOUS
10
144.234
20
-80.3845
11
143.947
21
-80.5395
0
LINE
8
BLACK
6
CONTINUOUS
10
143.947
20
-80.5395
11
143.636
21
-80.6359
0
LINE
8
BLACK
6
CONTINUOUS
10
143.636
20
-80.6359
11
143.312
21
-80.67
0
LINE
8
BLACK
6
CONTINUOUS
10
143.312
20
-80.67
11
142.987
21
-80.6404
0
LINE
8
BLACK
6
CONTINUOUS
10
142.987
20
-80.6404
11
142.674
21
-80.5484
0
LINE
8
BLACK
6
CONTINUOUS
10
142.674
20
-80.5484
11
142.386
21
-80.3974
0
LINE
8
BLACK
6
CONTINUOUS
10
142.386
20
-80.3974
11
142.132
21
-80.1932
0
LINE
8
BLACK
6
CONTINUOUS
10
142.132
20
-80.1932
11
141.922
21
-79.9435
0
LINE
8
BLACK
6
CONTINUOUS
10
141.922
20
-79.9435
11
141.765
21
-79.6579
0
LINE
8
BLACK
6
CONTINUOUS
10
141.765
20
-79.6579
11
141.666
21
-79.3472
0
LINE
8
BLACK
6
CONTINUOUS
10
141.666
20
-79.3472
11
141.63
21
-79.0233
0
LINE
8
BLACK
6
CONTINUOUS
10
141.63
20
-79.0233
11
141.657
21
-78.6985
0
LINE
8
BLACK
6
CONTINUOUS
10
141.657
20
-78.6985
11
141.747
21
-78.3852
0
LINE
8
BLACK
6
CONTINUOUS
10
141.747
20
-78.3852
11
141.896
21
-78.0953
0
LINE
8
BLACK
6
CONTINUOUS
10
141.896
20
-78.0953
11
142.099
21
-77.8399
0
LINE
8
BLACK
6
CONTINUOUS
10
142.099
20
-77.8399
11
142.347
21
-77.6287
0
LINE
8
BLACK
6
CONTINUOUS
10
142.347
20
-77.6287
11
142.631
21
-77.4697
0
LINE
8
BLACK
6
CONTINUOUS
10
142.631
20
-77.4697
11
142.941
21
-77.369
0
LINE
8
BLACK
6
CONTINUOUS
10
142.941
20
-77.369
11
143.265
21
-77.3304
0
LINE
8
BLACK
6
CONTINUOUS
10
143.265
20
-77.3304
11
143.59
21
-77.3554
0
LINE
8
BLACK
6
CONTINUOUS
10
143.59
20
-77.3554
11
143.904
21
-77.443
0
LINE
8
BLACK
6
CONTINUOUS
10
143.904
20
-77.443
11
144.195
21
-77.59
0
LINE
8
BLACK
6
CONTINUOUS
10
144.195
20
-77.59
11
144.452
21
-77.7906
0
LINE
8
BLACK
6
CONTINUOUS
10
144.452
20
-77.7906
11
144.665
21
-78.0374
0
LINE
8
BLACK
6
CONTINUOUS
10
144.665
20
-78.0374
11
144.826
21
-78.3207
0
LINE
8
BLACK
6
CONTINUOUS
10
144.826
20
-78.3207
11
144.928
21
-78.63
0
LINE
8
BLACK
6
CONTINUOUS
10
144.928
20
-78.63
11
144.969
21
-78.9534
0
LINE
8
BLACK
6
CONTINUOUS
10
144.969
20
-78.9534
11
144.97
21
-79
0
LINE
8
BLACK
6
CONTINUOUS
10
144.97
20
-79
11
144.938
21
-79.3244
0
LINE
8
BLACK
6
CONTINUOUS
10
144.938
20
-79.3244
11
144.844
21
-79.6364
0
LINE
8
BLACK
6
CONTINUOUS
10
144.733
20
-78.4093
11
144.591
21
-78.1422
0
LINE
8
BLACK
6
CONTINUOUS
10
144.591
20
-78.1422
11
144.4
21
-77.9078
0
LINE
8
BLACK
6
CONTINUOUS
10
144.4
20
-77.9078
11
144.167
21
-77.715
0
LINE
8
BLACK
6
CONTINUOUS
10
144.167
20
-77.715
11
143.901
21
-77.5711
0
LINE
8
BLACK
6
CONTINUOUS
10
143.901
20
-77.5711
11
143.612
21
-77.4817
0
LINE
8
BLACK
6
CONTINUOUS
10
143.612
20
-77.4817
11
143.311
21
-77.45
0
LINE
8
BLACK
6
CONTINUOUS
10
143.311
20
-77.45
11
143.01
21
-77.4775
0
LINE
8
BLACK
6
CONTINUOUS
10
143.01
20
-77.4775
11
142.719
21
-77.5629
0
LINE
8
BLACK
6
CONTINUOUS
10
142.719
20
-77.5629
11
142.451
21
-77.703
0
LINE
8
BLACK
6
CONTINUOUS
10
142.451
20
-77.703
11
142.216
21
-77.8926
0
LINE
8
BLACK
6
CONTINUOUS
10
142.216
20
-77.8926
11
142.021
21
-78.1243
0
LINE
8
BLACK
6
CONTINUOUS
10
142.021
20
-78.1243
11
141.875
21
-78.3894
0
LINE
8
BLACK
6
CONTINUOUS
10
141.875
20
-78.3894
11
141.784
21
-78.6777
0
LINE
8
BLACK
6
CONTINUOUS
10
141.784
20
-78.6777
11
141.75
21
-78.9784
0
LINE
8
BLACK
6
CONTINUOUS
10
141.75
20
-78.9784
11
141.775
21
-79.2798
0
LINE
8
BLACK
6
CONTINUOUS
10
141.775
20
-79.2798
11
141.859
21
-79.5706
0
LINE
8
BLACK
6
CONTINUOUS
10
141.859
20
-79.5706
11
141.997
21
-79.8396
0
LINE
8
BLACK
6
CONTINUOUS
10
141.997
20
-79.8396
11
142.185
21
-80.0767
0
LINE
8
BLACK
6
CONTINUOUS
10
142.185
20
-80.0767
11
142.415
21
-80.2728
0
LINE
8
BLACK
6
CONTINUOUS
10
142.415
20
-80.2728
11
142.679
21
-80.4204
0
LINE
8
BLACK
6
CONTINUOUS
10
142.679
20
-80.4204
11
142.967
21
-80.5138
0
LINE
8
BLACK
6
CONTINUOUS
10
142.967
20
-80.5138
11
143.268
21
-80.5497
0
LINE
8
BLACK
6
CONTINUOUS
10
143.268
20
-80.5497
11
143.569
21
-80.5265
0
LINE
8
BLACK
6
CONTINUOUS
10
143.569
20
-80.5265
11
143.861
21
-80.4451
0
LINE
8
BLACK
6
CONTINUOUS
10
143.861
20
-80.4451
11
144.131
21
-80.3087
0
LINE
8
BLACK
6
CONTINUOUS
10
144.131
20
-80.3087
11
144.369
21
-80.1225
0
LINE
8
BLACK
6
CONTINUOUS
10
144.369
20
-80.1225
11
144.567
21
-79.8935
0
LINE
8
BLACK
6
CONTINUOUS
10
144.567
20
-79.8935
11
144.716
21
-79.6304
0
LINE
8
BLACK
6
CONTINUOUS
10
144.716
20
-79.6304
11
144.811
21
-79.3434
0
LINE
8
BLACK
6
CONTINUOUS
10
144.811
20
-79.3434
11
144.849
21
-79.0433
0
LINE
8
BLACK
6
CONTINUOUS
10
144.849
20
-79.0433
11
144.85
21
-79
0
LINE
8
BLACK
6
CONTINUOUS
10
144.85
20
-79
11
144.82
21
-78.6989
0
LINE
8
BLACK
6
CONTINUOUS
10
144.82
20
-78.6989
11
144.733
21
-78.4093
0
LINE
8
BLACK
6
CONTINUOUS
10
78.344
20
-32.6364
11
78.191
21
-32.9242
0
LINE
8
BLACK
6
CONTINUOUS
10
78.191
20
-32.9242
11
77.985
21
-33.1767
0
LINE
8
BLACK
6
CONTINUOUS
10
77.985
20
-33.1767
11
77.7339
21
-33.3845
0
LINE
8
BLACK
6
CONTINUOUS
10
77.7339
20
-33.3845
11
77.4472
21
-33.5395
0
LINE
8
BLACK
6
CONTINUOUS
10
77.4472
20
-33.5395
11
77.1358
21
-33.6359
0
LINE
8
BLACK
6
CONTINUOUS
10
77.1358
20
-33.6359
11
76.8117
21
-33.67
0
LINE
8
BLACK
6
CONTINUOUS
10
76.8117
20
-33.67
11
76.4871
21
-33.6404
0
LINE
8
BLACK
6
CONTINUOUS
10
76.4871
20
-33.6404
11
76.1744
21
-33.5484
0
LINE
8
BLACK
6
CONTINUOUS
10
76.1744
20
-33.5484
11
75.8856
21
-33.3974
0
LINE
8
BLACK
6
CONTINUOUS
10
75.8856
20
-33.3974
11
75.6316
21
-33.1932
0
LINE
8
BLACK
6
CONTINUOUS
10
75.6316
20
-33.1932
11
75.4221
21
-32.9435
0
LINE
8
BLACK
6
CONTINUOUS
10
75.4221
20
-32.9435
11
75.265
21
-32.6579
0
LINE
8
BLACK
6
CONTINUOUS
10
75.265
20
-32.6579
11
75.1665
21
-32.3472
0
LINE
8
BLACK
6
CONTINUOUS
10
75.1665
20
-32.3472
11
75.1302
21
-32.0233
0
LINE
8
BLACK
6
CONTINUOUS
10
75.1302
20
-32.0233
11
75.1574
21
-31.6985
0
LINE
8
BLACK
6
CONTINUOUS
10
75.1574
20
-31.6985
11
75.2473
21
-31.3852
0
LINE
8
BLACK
6
CONTINUOUS
10
75.2473
20
-31.3852
11
75.3963
21
-31.0953
0
LINE
8
BLACK
6
CONTINUOUS
10
75.3963
20
-31.0953
11
75.5987
21
-30.8399
0
LINE
8
BLACK
6
CONTINUOUS
10
75.5987
20
-30.8399
11
75.8469
21
-30.6287
0
LINE
8
BLACK
6
CONTINUOUS
10
75.8469
20
-30.6287
11
76.1314
21
-30.4697
0
LINE
8
BLACK
6
CONTINUOUS
10
76.1314
20
-30.4697
11
76.4414
21
-30.369
0
LINE
8
BLACK
6
CONTINUOUS
10
76.4414
20
-30.369
11
76.765
21
-30.3304
0
LINE
8
BLACK
6
CONTINUOUS
10
76.765
20
-30.3304
11
77.09
21
-30.3554
0
LINE
8
BLACK
6
CONTINUOUS
10
77.09
20
-30.3554
11
77.4039
21
-30.443
0
LINE
8
BLACK
6
CONTINUOUS
10
77.4039
20
-30.443
11
77.6948
21
-30.59
0
LINE
8
BLACK
6
CONTINUOUS
10
77.6948
20
-30.59
11
77.9517
21
-30.7906
0
LINE
8
BLACK
6
CONTINUOUS
10
77.9517
20
-30.7906
11
78.1646
21
-31.0374
0
LINE
8
BLACK
6
CONTINUOUS
10
78.1646
20
-31.0374
11
78.3256
21
-31.3208
0
LINE
8
BLACK
6
CONTINUOUS
10
78.3256
20
-31.3208
11
78.4285
21
-31.63
0
LINE
8
BLACK
6
CONTINUOUS
10
78.4285
20
-31.63
11
78.4693
21
-31.9534
0
LINE
8
BLACK
6
CONTINUOUS
10
78.4693
20
-31.9534
11
78.47
21
-32
0
LINE
8
BLACK
6
CONTINUOUS
10
78.47
20
-32
11
78.4382
21
-32.3244
0
LINE
8
BLACK
6
CONTINUOUS
10
78.4382
20
-32.3244
11
78.344
21
-32.6364
0
LINE
8
BLACK
6
CONTINUOUS
10
78.233
20
-31.4093
11
78.091
21
-31.1422
0
LINE
8
BLACK
6
CONTINUOUS
10
78.091
20
-31.1422
11
77.8998
21
-30.9078
0
LINE
8
BLACK
6
CONTINUOUS
10
77.8998
20
-30.9078
11
77.6667
21
-30.715
0
LINE
8
BLACK
6
CONTINUOUS
10
77.6667
20
-30.715
11
77.4006
21
-30.5711
0
LINE
8
BLACK
6
CONTINUOUS
10
77.4006
20
-30.5711
11
77.1117
21
-30.4817
0
LINE
8
BLACK
6
CONTINUOUS
10
77.1117
20
-30.4817
11
76.8108
21
-30.45
0
LINE
8
BLACK
6
CONTINUOUS
10
76.8108
20
-30.45
11
76.5096
21
-30.4775
0
LINE
8
BLACK
6
CONTINUOUS
10
76.5096
20
-30.4775
11
76.2194
21
-30.5629
0
LINE
8
BLACK
6
CONTINUOUS
10
76.2194
20
-30.5629
11
75.9513
21
-30.703
0
LINE
8
BLACK
6
CONTINUOUS
10
75.9513
20
-30.703
11
75.7155
21
-30.8926
0
LINE
8
BLACK
6
CONTINUOUS
10
75.7155
20
-30.8926
11
75.5211
21
-31.1243
0
LINE
8
BLACK
6
CONTINUOUS
10
75.5211
20
-31.1243
11
75.3753
21
-31.3894
0
LINE
8
BLACK
6
CONTINUOUS
10
75.3753
20
-31.3894
11
75.2839
21
-31.6777
0
LINE
8
BLACK
6
CONTINUOUS
10
75.2839
20
-31.6777
11
75.2502
21
-31.9784
0
LINE
8
BLACK
6
CONTINUOUS
10
75.2502
20
-31.9784
11
75.2755
21
-32.2798
0
LINE
8
BLACK
6
CONTINUOUS
10
75.2755
20
-32.2798
11
75.3588
21
-32.5706
0
LINE
8
BLACK
6
CONTINUOUS
10
75.3588
20
-32.5706
11
75.4971
21
-32.8396
0
LINE
8
BLACK
6
CONTINUOUS
10
75.4971
20
-32.8396
11
75.685
21
-33.0767
0
LINE
8
BLACK
6
CONTINUOUS
10
75.685
20
-33.0767
11
75.9154
21
-33.2728
0
LINE
8
BLACK
6
CONTINUOUS
10
75.9154
20
-33.2728
11
76.1795
21
-33.4204
0
LINE
8
BLACK
6
CONTINUOUS
10
76.1795
20
-33.4204
11
76.4672
21
-33.5138
0
LINE
8
BLACK
6
CONTINUOUS
10
76.4672
20
-33.5138
11
76.7675
21
-33.5497
0
LINE
8
BLACK
6
CONTINUOUS
10
76.7675
20
-33.5497
11
77.0692
21
-33.5265
0
LINE
8
BLACK
6
CONTINUOUS
10
77.0692
20
-33.5265
11
77.3605
21
-33.4451
0
LINE
8
BLACK
6
CONTINUOUS
10
77.3605
20
-33.4451
11
77.6305
21
-33.3087
0
LINE
8
BLACK
6
CONTINUOUS
10
77.6305
20
-33.3087
11
77.8689
21
-33.1225
0
LINE
8
BLACK
6
CONTINUOUS
10
77.8689
20
-33.1225
11
78.0666
21
-32.8935
0
LINE
8
BLACK
6
CONTINUOUS
10
78.0666
20
-32.8935
11
78.216
21
-32.6304
0
LINE
8
BLACK
6
CONTINUOUS
10
78.216
20
-32.6304
11
78.3115
21
-32.3434
0
LINE
8
BLACK
6
CONTINUOUS
10
78.3115
20
-32.3434
11
78.3494
21
-32.0433
0
LINE
8
BLACK
6
CONTINUOUS
10
78.3494
20
-32.0433
11
78.35
21
-32
0
LINE
8
BLACK
6
CONTINUOUS
10
78.35
20
-32
11
78.3205
21
-31.6989
0
LINE
8
BLACK
6
CONTINUOUS
10
78.3205
20
-31.6989
11
78.233
21
-31.4093
0
LINE
8
BLACK
6
CONTINUOUS
10
144.844
20
-32.6364
11
144.691
21
-32.9242
0
LINE
8
BLACK
6
CONTINUOUS
10
144.691
20
-32.9242
11
144.485
21
-33.1767
0
LINE
8
BLACK
6
CONTINUOUS
10
144.485
20
-33.1767
11
144.234
21
-33.3845
0
LINE
8
BLACK
6
CONTINUOUS
10
144.234
20
-33.3845
11
143.947
21
-33.5395
0
LINE
8
BLACK
6
CONTINUOUS
10
143.947
20
-33.5395
11
143.636
21
-33.6359
0
LINE
8
BLACK
6
CONTINUOUS
10
143.636
20
-33.6359
11
143.312
21
-33.67
0
LINE
8
BLACK
6
CONTINUOUS
10
143.312
20
-33.67
11
142.987
21
-33.6404
0
LINE
8
BLACK
6
CONTINUOUS
10
142.987
20
-33.6404
11
142.674
21
-33.5484
0
LINE
8
BLACK
6
CONTINUOUS
10
142.674
20
-33.5484
11
142.386
21
-33.3974
0
LINE
8
BLACK
6
CONTINUOUS
10
142.386
20
-33.3974
11
142.132
21
-33.1932
0
LINE
8
BLACK
6
CONTINUOUS
10
142.132
20
-33.1932
11
141.922
21
-32.9435
0
LINE
8
BLACK
6
CONTINUOUS
10
141.922
20
-32.9435
11
141.765
21
-32.6579
0
LINE
8
BLACK
6
CONTINUOUS
10
141.765
20
-32.6579
11
141.666
21
-32.3472
0
LINE
8
BLACK
6
CONTINUOUS
10
141.666
20
-32.3472
11
141.63
21
-32.0233
0
LINE
8
BLACK
6
CONTINUOUS
10
141.63
20
-32.0233
11
141.657
21
-31.6985
0
LINE
8
BLACK
6
CONTINUOUS
10
141.657
20
-31.6985
11
141.747
21
-31.3852
0
LINE
8
BLACK
6
CONTINUOUS
10
141.747
20
-31.3852
11
141.896
21
-31.0953
0
LINE
8
BLACK
6
CONTINUOUS
10
141.896
20
-31.0953
11
142.099
21
-30.8399
0
LINE
8
BLACK
6
CONTINUOUS
10
142.099
20
-30.8399
11
142.347
21
-30.6287
0
LINE
8
BLACK
6
CONTINUOUS
10
142.347
20
-30.6287
11
142.631
21
-30.4697
0
LINE
8
BLACK
6
CONTINUOUS
10
142.631
20
-30.4697
11
142.941
21
-30.369
0
LINE
8
BLACK
6
CONTINUOUS
10
142.941
20
-30.369
11
143.265
21
-30.3304
0
LINE
8
BLACK
6
CONTINUOUS
10
143.265
20
-30.3304
11
143.59
21
-30.3554
0
LINE
8
BLACK
6
CONTINUOUS
10
143.59
20
-30.3554
11
143.904
21
-30.443
0
LINE
8
BLACK
6
CONTINUOUS
10
143.904
20
-30.443
11
144.195
21
-30.59
0
LINE
8
BLACK
6
CONTINUOUS
10
144.195
20
-30.59
11
144.452
21
-30.7906
0
LINE
8
BLACK
6
CONTINUOUS
10
144.452
20
-30.7906
11
144.665
21
-31.0374
0
LINE
8
BLACK
6
CONTINUOUS
10
144.665
20
-31.0374
11
144.826
21
-31.3208
0
LINE
8
BLACK
6
CONTINUOUS
10
144.826
20
-31.3208
11
144.928
21
-31.63
0
LINE
8
BLACK
6
CONTINUOUS
10
144.928
20
-31.63
11
144.969
21
-31.9534
0
LINE
8
BLACK
6
CONTINUOUS
10
144.969
20
-31.9534
11
144.97
21
-32
0
LINE
8
BLACK
6
CONTINUOUS
10
144.97
20
-32
11
144.938
21
-32.3244
0
LINE
8
BLACK
6
CONTINUOUS
10
144.938
20
-32.3244
11
144.844
21
-32.6364
0
LINE
8
BLACK
6
CONTINUOUS
10
144.733
20
-31.4093
11
144.591
21
-31.1422
0
LINE
8
BLACK
6
CONTINUOUS
10
144.591
20
-31.1422
11
144.4
21
-30.9078
0
LINE
8
BLACK
6
CONTINUOUS
10
144.4
20
-30.9078
11
144.167
21
-30.715
0
LINE
8
BLACK
6
CONTINUOUS
10
144.167
20
-30.715
11
143.901
21
-30.5711
0
LINE
8
BLACK
6
CONTINUOUS
10
143.901
20
-30.5711
11
143.612
21
-30.4817
0
LINE
8
BLACK
6
CONTINUOUS
10
143.612
20
-30.4817
11
143.311
21
-30.45
0
LINE
8
BLACK
6
CONTINUOUS
10
143.311
20
-30.45
11
143.01
21
-30.4775
0
LINE
8
BLACK
6
CONTINUOUS
10
143.01
20
-30.4775
11
142.719
21
-30.5629
0
LINE
8
BLACK
6
CONTINUOUS
10
142.719
20
-30.5629
11
142.451
21
-30.703
0
LINE
8
BLACK
6
CONTINUOUS
10
142.451
20
-30.703
11
142.216
21
-30.8926
0
LINE
8
BLACK
6
CONTINUOUS
10
142.216
20
-30.8926
11
142.021
21
-31.1243
0
LINE
8
BLACK
6
CONTINUOUS
10
142.021
20
-31.1243
11
141.875
21
-31.3894
0
LINE
8
BLACK
6
CONTINUOUS
10
141.875
20
-31.3894
11
141.784
21
-31.6777
0
LINE
8
BLACK
6
CONTINUOUS
10
141.784
20
-31.6777
11
141.75
21
-31.9784
0
LINE
8
BLACK
6
CONTINUOUS
10
141.75
20
-31.9784
11
141.775
21
-32.2798
0
LINE
8
BLACK
6
CONTINUOUS
10
141.775
20
-32.2798
11
141.859
21
-32.5706
0
LINE
8
BLACK
6
CONTINUOUS
10
141.859
20
-32.5706
11
141.997
21
-32.8396
0
LINE
8
BLACK
6
CONTINUOUS
10
141.997
20
-32.8396
11
142.185
21
-33.0767
0
LINE
8
BLACK
6
CONTINUOUS
10
142.185
20
-33.0767
11
142.415
21
-33.2728
0
LINE
8
BLACK
6
CONTINUOUS
10
142.415
20
-33.2728
11
142.679
21
-33.4204
0
LINE
8
BLACK
6
CONTINUOUS
10
142.679
20
-33.4204
11
142.967
21
-33.5138
0
LINE
8
BLACK
6
CONTINUOUS
10
142.967
20
-33.5138
11
143.268
21
-33.5497
0
LINE
8
BLACK
6
CONTINUOUS
10
143.268
20
-33.5497
11
143.569
21
-33.5265
0
LINE
8
BLACK
6
CONTINUOUS
10
143.569
20
-33.5265
11
143.861
21
-33.4451
0
LINE
8
BLACK
6
CONTINUOUS
10
143.861
20
-33.4451
11
144.131
21
-33.3087
0
LINE
8
BLACK
6
CONTINUOUS
10
144.131
20
-33.3087
11
144.369
21
-33.1225
0
LINE
8
BLACK
6
CONTINUOUS
10
144.369
20
-33.1225
11
144.567
21
-32.8935
0
LINE
8
BLACK
6
CONTINUOUS
10
144.567
20
-32.8935
11
144.716
21
-32.6304
0
LINE
8
BLACK
6
CONTINUOUS
10
144.716
20
-32.6304
11
144.811
21
-32.3434
0
LINE
8
BLACK
6
CONTINUOUS
10
144.811
20
-32.3434
11
144.849
21
-32.0433
0
LINE
8
BLACK
6
CONTINUOUS
10
144.849
20
-32.0433
11
144.85
21
-32
0
LINE
8
BLACK
6
CONTINUOUS
10
144.85
20
-32
11
144.82
21
-31.6989
0
LINE
8
BLACK
6
CONTINUOUS
10
144.82
20
-31.6989
11
144.733
21
-31.4093
  0
ENDSEC
  0
EOF
