  0
SECTION
  2
HEADER
  9
$ANGBASE
  50
0.0
  9
$ANGDIR
  70
  1
  9
$MEASUREMENT
  70
0
  0
ENDSEC
  0
SECTION
  2
TABLES
  0
TABLE
  2
LTYPE
  70
4
  0
LTYPE
  5
40F
  2
CONTINUOUS
  70
0
  3
Solid line
  72
65
  73
0
  40
0.0
  0
LTYPE
  5
410
  2
DASHDOT
 70
0
  3
Dash Dot ____ _ ____ _
 72
65
 73
4
 40
2.0
 49
1.25
 49
-0.25
 49
0.25
 49
-0.25
  0
LTYPE
  5
411
  2
DASHED
 70
0
  3
Dashed __ __ __ __ __
 72
65
 73
2
 40
0.75
 49
0.5
 49
-0.25
  0
LTYPE
  5
43B
  2
DOTTED
 70
0
  3
Dotted .  .  .  .
 72
65
 73
2
 40
0.2
 49
0.0
 49
-0.2
  0
ENDTAB
  0
TABLE
  2
STYLE
  70
4
  0
STYLE
  2
KICAD
  70
0
  40
0
  41
1
  42
1
  50
0
  71
0
  3
isocp.shx
  0
STYLE
  2
KICADB
  70
0
  40
0
  41
1
  42
1
  50
0
  71
0
  3
isocp.shx
  0
STYLE
  2
KICADI
  70
0
  40
0
  41
1
  42
1
  50
15
  71
0
  3
isocp.shx
  0
STYLE
  2
KICADBI
  70
0
  40
0
  41
1
  42
1
  50
15
  71
0
  3
isocp.shx
  0
ENDTAB
  0
TABLE
  2
LAYER
  70
30
  0
LAYER
  2
BLACK
  70
0
  62
7
  6
CONTINUOUS
  0
LAYER
  2
GRAY1
  70
0
  62
251
  6
CONTINUOUS
  0
LAYER
  2
GRAY2
  70
0
  62
8
  6
CONTINUOUS
  0
LAYER
  2
GRAY3
  70
0
  62
9
  6
CONTINUOUS
  0
LAYER
  2
WHITE
  70
0
  62
7
  6
CONTINUOUS
  0
LAYER
  2
LYELLOW
  70
0
  62
51
  6
CONTINUOUS
  0
LAYER
  2
BLUE1
  70
0
  62
178
  6
CONTINUOUS
  0
LAYER
  2
GREEN1
  70
0
  62
98
  6
CONTINUOUS
  0
LAYER
  2
CYAN1
  70
0
  62
138
  6
CONTINUOUS
  0
LAYER
  2
RED1
  70
0
  62
18
  6
CONTINUOUS
  0
LAYER
  2
MAGENTA1
  70
0
  62
228
  6
CONTINUOUS
  0
LAYER
  2
BROWN1
  70
0
  62
58
  6
CONTINUOUS
  0
LAYER
  2
BLUE2
  70
0
  62
5
  6
CONTINUOUS
  0
LAYER
  2
GREEN2
  70
0
  62
3
  6
CONTINUOUS
  0
LAYER
  2
CYAN2
  70
0
  62
4
  6
CONTINUOUS
  0
LAYER
  2
RED2
  70
0
  62
1
  6
CONTINUOUS
  0
LAYER
  2
MAGENTA2
  70
0
  62
6
  6
CONTINUOUS
  0
LAYER
  2
BROWN2
  70
0
  62
54
  6
CONTINUOUS
  0
LAYER
  2
BLUE3
  70
0
  62
171
  6
CONTINUOUS
  0
LAYER
  2
GREEN3
  70
0
  62
91
  6
CONTINUOUS
  0
LAYER
  2
CYAN3
  70
0
  62
131
  6
CONTINUOUS
  0
LAYER
  2
RED3
  70
0
  62
11
  6
CONTINUOUS
  0
LAYER
  2
MAGENTA3
  70
0
  62
221
  6
CONTINUOUS
  0
LAYER
  2
YELLOW3
  70
0
  62
2
  6
CONTINUOUS
  0
LAYER
  2
BLUE4
  70
0
  62
5
  6
CONTINUOUS
  0
LAYER
  2
GREEN4
  70
0
  62
3
  6
CONTINUOUS
  0
LAYER
  2
CYAN4
  70
0
  62
4
  6
CONTINUOUS
  0
LAYER
  2
RED4
  70
0
  62
1
  6
CONTINUOUS
  0
LAYER
  2
MAGENTA4
  70
0
  62
6
  6
CONTINUOUS
  0
LAYER
  2
YELLOW4
  70
0
  62
2
  6
CONTINUOUS
  0
ENDTAB
  0
ENDSEC
  0
SECTION
  2
ENTITIES
0
LINE
8
BLACK
6
CONTINUOUS
10
86.8191
20
-36.3538
11
86.8354
21
-36.3646
0
LINE
8
BLACK
6
CONTINUOUS
10
86.8354
20
-36.3646
11
86.8462
21
-36.3809
0
LINE
8
BLACK
6
CONTINUOUS
10
86.8462
20
-36.3809
11
86.85
21
-36.4
0
LINE
8
BLACK
6
CONTINUOUS
10
86.85
20
-36.4
11
86.8462
21
-36.4191
0
LINE
8
BLACK
6
CONTINUOUS
10
86.8462
20
-36.4191
11
86.8354
21
-36.4354
0
LINE
8
BLACK
6
CONTINUOUS
10
86.8354
20
-36.4354
11
86.8191
21
-36.4462
0
LINE
8
BLACK
6
CONTINUOUS
10
86.8191
20
-36.4462
11
86.8
21
-36.45
0
LINE
8
BLACK
6
CONTINUOUS
10
86.8
20
-36.45
11
86.8
21
-58.35
0
LINE
8
BLACK
6
CONTINUOUS
10
86.8
20
-58.35
11
86.8191
21
-58.3538
0
LINE
8
BLACK
6
CONTINUOUS
10
86.8191
20
-58.3538
11
86.8354
21
-58.3646
0
LINE
8
BLACK
6
CONTINUOUS
10
86.8354
20
-58.3646
11
86.8462
21
-58.3809
0
LINE
8
BLACK
6
CONTINUOUS
10
86.8462
20
-58.3809
11
86.85
21
-58.4
0
LINE
8
BLACK
6
CONTINUOUS
10
86.85
20
-58.4
11
86.8462
21
-58.4191
0
LINE
8
BLACK
6
CONTINUOUS
10
86.8462
20
-58.4191
11
86.8354
21
-58.4354
0
LINE
8
BLACK
6
CONTINUOUS
10
86.8354
20
-58.4354
11
86.8191
21
-58.4462
0
LINE
8
BLACK
6
CONTINUOUS
10
86.8191
20
-58.4462
11
86.8
21
-58.45
0
LINE
8
BLACK
6
CONTINUOUS
10
86.8
20
-58.45
11
73.2
21
-58.45
0
LINE
8
BLACK
6
CONTINUOUS
10
73.2
20
-58.45
11
73.1809
21
-58.4462
0
LINE
8
BLACK
6
CONTINUOUS
10
73.1809
20
-58.4462
11
73.1646
21
-58.4354
0
LINE
8
BLACK
6
CONTINUOUS
10
73.1646
20
-58.4354
11
73.1538
21
-58.4191
0
LINE
8
BLACK
6
CONTINUOUS
10
73.1538
20
-58.4191
11
73.15
21
-58.4
0
LINE
8
BLACK
6
CONTINUOUS
10
73.15
20
-58.4
11
73.15
21
-36.4
0
LINE
8
BLACK
6
CONTINUOUS
10
73.15
20
-36.4
11
73.1538
21
-36.3809
0
LINE
8
BLACK
6
CONTINUOUS
10
73.1538
20
-36.3809
11
73.1646
21
-36.3646
0
LINE
8
BLACK
6
CONTINUOUS
10
73.1646
20
-36.3646
11
73.1809
21
-36.3538
0
LINE
8
BLACK
6
CONTINUOUS
10
73.1809
20
-36.3538
11
73.2
21
-36.35
0
LINE
8
BLACK
6
CONTINUOUS
10
73.2
20
-36.35
11
86.8
21
-36.35
0
LINE
8
BLACK
6
CONTINUOUS
10
86.8
20
-36.35
11
86.8191
21
-36.3538
0
LINE
8
BLACK
6
CONTINUOUS
10
146.9
20
-74.7
11
73.2
21
-74.7
0
LINE
8
BLACK
6
CONTINUOUS
10
73.2
20
-74.7
11
73.2
21
-63
0
LINE
8
BLACK
6
CONTINUOUS
10
73.2
20
-63
11
146.9
21
-63
0
LINE
8
BLACK
6
CONTINUOUS
10
146.9
20
-63
11
146.9
21
-74.7
0
LINE
8
BLACK
6
CONTINUOUS
10
146.9
20
-61.8
11
135.4
21
-61.8
0
LINE
8
BLACK
6
CONTINUOUS
10
135.4
20
-61.8
11
135.4
21
-60.5
0
LINE
8
BLACK
6
CONTINUOUS
10
135.4
20
-60.5
11
133.7
21
-60.5
0
LINE
8
BLACK
6
CONTINUOUS
10
133.7
20
-60.5
11
133.7
21
-56.8
0
LINE
8
BLACK
6
CONTINUOUS
10
133.7
20
-56.8
11
135.4
21
-56.8
0
LINE
8
BLACK
6
CONTINUOUS
10
135.4
20
-56.8
11
135.4
21
-55.4
0
LINE
8
BLACK
6
CONTINUOUS
10
135.4
20
-55.4
11
133.7
21
-55.4
0
LINE
8
BLACK
6
CONTINUOUS
10
133.7
20
-55.4
11
133.7
21
-51.7
0
LINE
8
BLACK
6
CONTINUOUS
10
133.7
20
-51.7
11
135.4
21
-51.7
0
LINE
8
BLACK
6
CONTINUOUS
10
135.4
20
-51.7
11
135.4
21
-50.3
0
LINE
8
BLACK
6
CONTINUOUS
10
135.4
20
-50.3
11
133.7
21
-50.3
0
LINE
8
BLACK
6
CONTINUOUS
10
133.7
20
-50.3
11
133.7
21
-46.6
0
LINE
8
BLACK
6
CONTINUOUS
10
133.7
20
-46.6
11
135.4
21
-46.6
0
LINE
8
BLACK
6
CONTINUOUS
10
135.4
20
-46.6
11
135.4
21
-45.2
0
LINE
8
BLACK
6
CONTINUOUS
10
135.4
20
-45.2
11
133.7
21
-45.2
0
LINE
8
BLACK
6
CONTINUOUS
10
133.7
20
-45.2
11
133.7
21
-41.5
0
LINE
8
BLACK
6
CONTINUOUS
10
133.7
20
-41.5
11
135.4
21
-41.5
0
LINE
8
BLACK
6
CONTINUOUS
10
135.4
20
-41.5
11
135.4
21
-40.1
0
LINE
8
BLACK
6
CONTINUOUS
10
135.4
20
-40.1
11
133.7
21
-40.1
0
LINE
8
BLACK
6
CONTINUOUS
10
133.7
20
-40.1
11
133.7
21
-36.4
0
LINE
8
BLACK
6
CONTINUOUS
10
133.7
20
-36.4
11
146.9
21
-36.4
0
LINE
8
BLACK
6
CONTINUOUS
10
146.9
20
-36.4
11
146.9
21
-61.8
0
LINE
8
BLACK
6
CONTINUOUS
10
133
20
-61.7
11
118
21
-61.7
0
LINE
8
BLACK
6
CONTINUOUS
10
118
20
-61.7
11
118
21
-49.5
0
LINE
8
BLACK
6
CONTINUOUS
10
118
20
-49.5
11
103.7
21
-49.5
0
LINE
8
BLACK
6
CONTINUOUS
10
103.7
20
-49.5
11
103.7
21
-36.4
0
LINE
8
BLACK
6
CONTINUOUS
10
103.7
20
-36.4
11
133
21
-36.4
0
LINE
8
BLACK
6
CONTINUOUS
10
133
20
-36.4
11
133
21
-61.7
0
LINE
8
BLACK
6
CONTINUOUS
10
144.336
20
-75.5855
11
144.336
21
-75.5855
0
LINE
8
BLACK
6
CONTINUOUS
10
144.336
20
-75.5855
11
144.336
21
-75.5855
0
LINE
8
BLACK
6
CONTINUOUS
10
144.336
20
-75.5855
11
144.982
21
-75.8531
0
LINE
8
BLACK
6
CONTINUOUS
10
144.982
20
-75.8531
11
145.564
21
-76.2418
0
LINE
8
BLACK
6
CONTINUOUS
10
145.564
20
-76.2418
11
146.058
21
-76.7364
0
LINE
8
BLACK
6
CONTINUOUS
10
146.058
20
-76.7364
11
146.447
21
-77.318
0
LINE
8
BLACK
6
CONTINUOUS
10
146.447
20
-77.318
11
146.447
21
-77.318
0
LINE
8
BLACK
6
CONTINUOUS
10
146.447
20
-77.318
11
146.715
21
-77.9642
0
LINE
8
BLACK
6
CONTINUOUS
10
146.715
20
-77.9642
11
146.851
21
-78.6503
0
LINE
8
BLACK
6
CONTINUOUS
10
146.851
20
-78.6503
11
146.851
21
-79.3497
0
LINE
8
BLACK
6
CONTINUOUS
10
146.851
20
-79.3497
11
146.715
21
-80.0358
0
LINE
8
BLACK
6
CONTINUOUS
10
146.715
20
-80.0358
11
146.715
21
-80.0358
0
LINE
8
BLACK
6
CONTINUOUS
10
146.715
20
-80.0358
11
146.447
21
-80.682
0
LINE
8
BLACK
6
CONTINUOUS
10
146.447
20
-80.682
11
146.058
21
-81.2636
0
LINE
8
BLACK
6
CONTINUOUS
10
146.058
20
-81.2636
11
145.564
21
-81.7582
0
LINE
8
BLACK
6
CONTINUOUS
10
145.564
20
-81.7582
11
144.982
21
-82.1469
0
LINE
8
BLACK
6
CONTINUOUS
10
144.982
20
-82.1469
11
144.525
21
-82.3361
0
LINE
8
BLACK
6
CONTINUOUS
10
144.525
20
-82.3361
11
144.336
21
-82.4145
0
LINE
8
BLACK
6
CONTINUOUS
10
144.336
20
-82.4145
11
143.65
21
-82.551
0
LINE
8
BLACK
6
CONTINUOUS
10
143.65
20
-82.551
11
142.95
21
-82.551
0
LINE
8
BLACK
6
CONTINUOUS
10
142.95
20
-82.551
11
142.264
21
-82.4145
0
LINE
8
BLACK
6
CONTINUOUS
10
142.264
20
-82.4145
11
142.075
21
-82.3361
0
LINE
8
BLACK
6
CONTINUOUS
10
142.075
20
-82.3361
11
141.618
21
-82.1469
0
LINE
8
BLACK
6
CONTINUOUS
10
141.618
20
-82.1469
11
141.036
21
-81.7582
0
LINE
8
BLACK
6
CONTINUOUS
10
141.036
20
-81.7582
11
140.542
21
-81.2636
0
LINE
8
BLACK
6
CONTINUOUS
10
140.542
20
-81.2636
11
140.153
21
-80.682
0
LINE
8
BLACK
6
CONTINUOUS
10
140.153
20
-80.682
11
139.885
21
-80.0358
0
LINE
8
BLACK
6
CONTINUOUS
10
139.885
20
-80.0358
11
139.885
21
-80.0358
0
LINE
8
BLACK
6
CONTINUOUS
10
139.885
20
-80.0358
11
139.749
21
-79.3497
0
LINE
8
BLACK
6
CONTINUOUS
10
139.749
20
-79.3497
11
139.749
21
-78.6503
0
LINE
8
BLACK
6
CONTINUOUS
10
139.749
20
-78.6503
11
139.885
21
-77.9642
0
LINE
8
BLACK
6
CONTINUOUS
10
139.885
20
-77.9642
11
140.153
21
-77.318
0
LINE
8
BLACK
6
CONTINUOUS
10
140.153
20
-77.318
11
140.153
21
-77.318
0
LINE
8
BLACK
6
CONTINUOUS
10
140.153
20
-77.318
11
140.542
21
-76.7364
0
LINE
8
BLACK
6
CONTINUOUS
10
140.542
20
-76.7364
11
141.036
21
-76.2418
0
LINE
8
BLACK
6
CONTINUOUS
10
141.036
20
-76.2418
11
141.618
21
-75.8531
0
LINE
8
BLACK
6
CONTINUOUS
10
141.618
20
-75.8531
11
142.264
21
-75.5855
0
LINE
8
BLACK
6
CONTINUOUS
10
142.264
20
-75.5855
11
142.264
21
-75.5855
0
LINE
8
BLACK
6
CONTINUOUS
10
142.264
20
-75.5855
11
142.264
21
-75.5855
0
LINE
8
BLACK
6
CONTINUOUS
10
142.264
20
-75.5855
11
142.95
21
-75.449
0
LINE
8
BLACK
6
CONTINUOUS
10
142.95
20
-75.449
11
143.65
21
-75.449
0
LINE
8
BLACK
6
CONTINUOUS
10
143.65
20
-75.449
11
144.336
21
-75.5855
0
LINE
8
BLACK
6
CONTINUOUS
10
77.8358
20
-75.5855
11
77.8358
21
-75.5855
0
LINE
8
BLACK
6
CONTINUOUS
10
77.8358
20
-75.5855
11
77.8358
21
-75.5855
0
LINE
8
BLACK
6
CONTINUOUS
10
77.8358
20
-75.5855
11
78.482
21
-75.8531
0
LINE
8
BLACK
6
CONTINUOUS
10
78.482
20
-75.8531
11
79.0636
21
-76.2418
0
LINE
8
BLACK
6
CONTINUOUS
10
79.0636
20
-76.2418
11
79.5582
21
-76.7364
0
LINE
8
BLACK
6
CONTINUOUS
10
79.5582
20
-76.7364
11
79.9469
21
-77.318
0
LINE
8
BLACK
6
CONTINUOUS
10
79.9469
20
-77.318
11
79.9469
21
-77.318
0
LINE
8
BLACK
6
CONTINUOUS
10
79.9469
20
-77.318
11
80.2145
21
-77.9642
0
LINE
8
BLACK
6
CONTINUOUS
10
80.2145
20
-77.9642
11
80.351
21
-78.6503
0
LINE
8
BLACK
6
CONTINUOUS
10
80.351
20
-78.6503
11
80.351
21
-79.3497
0
LINE
8
BLACK
6
CONTINUOUS
10
80.351
20
-79.3497
11
80.2145
21
-80.0358
0
LINE
8
BLACK
6
CONTINUOUS
10
80.2145
20
-80.0358
11
80.2145
21
-80.0358
0
LINE
8
BLACK
6
CONTINUOUS
10
80.2145
20
-80.0358
11
79.9469
21
-80.682
0
LINE
8
BLACK
6
CONTINUOUS
10
79.9469
20
-80.682
11
79.5582
21
-81.2636
0
LINE
8
BLACK
6
CONTINUOUS
10
79.5582
20
-81.2636
11
79.0636
21
-81.7582
0
LINE
8
BLACK
6
CONTINUOUS
10
79.0636
20
-81.7582
11
78.482
21
-82.1469
0
LINE
8
BLACK
6
CONTINUOUS
10
78.482
20
-82.1469
11
78.0251
21
-82.3361
0
LINE
8
BLACK
6
CONTINUOUS
10
78.0251
20
-82.3361
11
77.8358
21
-82.4145
0
LINE
8
BLACK
6
CONTINUOUS
10
77.8358
20
-82.4145
11
77.1497
21
-82.551
0
LINE
8
BLACK
6
CONTINUOUS
10
77.1497
20
-82.551
11
76.4503
21
-82.551
0
LINE
8
BLACK
6
CONTINUOUS
10
76.4503
20
-82.551
11
75.7642
21
-82.4145
0
LINE
8
BLACK
6
CONTINUOUS
10
75.7642
20
-82.4145
11
75.5749
21
-82.3361
0
LINE
8
BLACK
6
CONTINUOUS
10
75.5749
20
-82.3361
11
75.118
21
-82.1469
0
LINE
8
BLACK
6
CONTINUOUS
10
75.118
20
-82.1469
11
74.5364
21
-81.7582
0
LINE
8
BLACK
6
CONTINUOUS
10
74.5364
20
-81.7582
11
74.0418
21
-81.2636
0
LINE
8
BLACK
6
CONTINUOUS
10
74.0418
20
-81.2636
11
73.6531
21
-80.682
0
LINE
8
BLACK
6
CONTINUOUS
10
73.6531
20
-80.682
11
73.3855
21
-80.0358
0
LINE
8
BLACK
6
CONTINUOUS
10
73.3855
20
-80.0358
11
73.3855
21
-80.0358
0
LINE
8
BLACK
6
CONTINUOUS
10
73.3855
20
-80.0358
11
73.249
21
-79.3497
0
LINE
8
BLACK
6
CONTINUOUS
10
73.249
20
-79.3497
11
73.249
21
-78.6503
0
LINE
8
BLACK
6
CONTINUOUS
10
73.249
20
-78.6503
11
73.3855
21
-77.9642
0
LINE
8
BLACK
6
CONTINUOUS
10
73.3855
20
-77.9642
11
73.6531
21
-77.318
0
LINE
8
BLACK
6
CONTINUOUS
10
73.6531
20
-77.318
11
73.6531
21
-77.318
0
LINE
8
BLACK
6
CONTINUOUS
10
73.6531
20
-77.318
11
74.0418
21
-76.7364
0
LINE
8
BLACK
6
CONTINUOUS
10
74.0418
20
-76.7364
11
74.5364
21
-76.2418
0
LINE
8
BLACK
6
CONTINUOUS
10
74.5364
20
-76.2418
11
75.118
21
-75.8531
0
LINE
8
BLACK
6
CONTINUOUS
10
75.118
20
-75.8531
11
75.7642
21
-75.5855
0
LINE
8
BLACK
6
CONTINUOUS
10
75.7642
20
-75.5855
11
75.7642
21
-75.5855
0
LINE
8
BLACK
6
CONTINUOUS
10
75.7642
20
-75.5855
11
75.7642
21
-75.5855
0
LINE
8
BLACK
6
CONTINUOUS
10
75.7642
20
-75.5855
11
76.4503
21
-75.449
0
LINE
8
BLACK
6
CONTINUOUS
10
76.4503
20
-75.449
11
77.1497
21
-75.449
0
LINE
8
BLACK
6
CONTINUOUS
10
77.1497
20
-75.449
11
77.8358
21
-75.5855
0
LINE
8
BLACK
6
CONTINUOUS
10
133.076
20
-61.701
11
128.174
21
-61.701
0
LINE
8
BLACK
6
CONTINUOUS
10
128.174
20
-61.701
11
128.174
21
-60.749
0
LINE
8
BLACK
6
CONTINUOUS
10
128.174
20
-60.749
11
129.099
21
-60.749
0
LINE
8
BLACK
6
CONTINUOUS
10
129.099
20
-60.749
11
129.123
21
-60.7466
0
LINE
8
BLACK
6
CONTINUOUS
10
129.123
20
-60.7466
11
129.147
21
-60.7395
0
LINE
8
BLACK
6
CONTINUOUS
10
129.147
20
-60.7395
11
129.168
21
-60.7279
0
LINE
8
BLACK
6
CONTINUOUS
10
129.168
20
-60.7279
11
129.187
21
-60.7124
0
LINE
8
BLACK
6
CONTINUOUS
10
129.187
20
-60.7124
11
129.203
21
-60.6934
0
LINE
8
BLACK
6
CONTINUOUS
10
129.203
20
-60.6934
11
129.214
21
-60.6718
0
LINE
8
BLACK
6
CONTINUOUS
10
129.214
20
-60.6718
11
129.222
21
-60.6484
0
LINE
8
BLACK
6
CONTINUOUS
10
129.222
20
-60.6484
11
129.224
21
-60.624
0
LINE
8
BLACK
6
CONTINUOUS
10
129.224
20
-60.624
11
129.224
21
-60.536
0
LINE
8
BLACK
6
CONTINUOUS
10
129.224
20
-60.536
11
129.222
21
-60.5116
0
LINE
8
BLACK
6
CONTINUOUS
10
129.222
20
-60.5116
11
129.214
21
-60.4882
0
LINE
8
BLACK
6
CONTINUOUS
10
129.214
20
-60.4882
11
129.203
21
-60.4666
0
LINE
8
BLACK
6
CONTINUOUS
10
129.203
20
-60.4666
11
129.187
21
-60.4476
0
LINE
8
BLACK
6
CONTINUOUS
10
129.187
20
-60.4476
11
129.168
21
-60.4321
0
LINE
8
BLACK
6
CONTINUOUS
10
129.168
20
-60.4321
11
129.147
21
-60.4205
0
LINE
8
BLACK
6
CONTINUOUS
10
129.147
20
-60.4205
11
129.123
21
-60.4134
0
LINE
8
BLACK
6
CONTINUOUS
10
129.123
20
-60.4134
11
129.099
21
-60.411
0
LINE
8
BLACK
6
CONTINUOUS
10
129.099
20
-60.411
11
128.174
21
-60.411
0
LINE
8
BLACK
6
CONTINUOUS
10
128.174
20
-60.411
11
128.174
21
-59.459
0
LINE
8
BLACK
6
CONTINUOUS
10
128.174
20
-59.459
11
129.099
21
-59.459
0
LINE
8
BLACK
6
CONTINUOUS
10
129.099
20
-59.459
11
129.123
21
-59.4566
0
LINE
8
BLACK
6
CONTINUOUS
10
129.123
20
-59.4566
11
129.147
21
-59.4495
0
LINE
8
BLACK
6
CONTINUOUS
10
129.147
20
-59.4495
11
129.168
21
-59.4379
0
LINE
8
BLACK
6
CONTINUOUS
10
129.168
20
-59.4379
11
129.187
21
-59.4224
0
LINE
8
BLACK
6
CONTINUOUS
10
129.187
20
-59.4224
11
129.203
21
-59.4034
0
LINE
8
BLACK
6
CONTINUOUS
10
129.203
20
-59.4034
11
129.214
21
-59.3818
0
LINE
8
BLACK
6
CONTINUOUS
10
129.214
20
-59.3818
11
129.222
21
-59.3584
0
LINE
8
BLACK
6
CONTINUOUS
10
129.222
20
-59.3584
11
129.224
21
-59.334
0
LINE
8
BLACK
6
CONTINUOUS
10
129.224
20
-59.334
11
129.224
21
-59.266
0
LINE
8
BLACK
6
CONTINUOUS
10
129.224
20
-59.266
11
129.222
21
-59.2416
0
LINE
8
BLACK
6
CONTINUOUS
10
129.222
20
-59.2416
11
129.214
21
-59.2182
0
LINE
8
BLACK
6
CONTINUOUS
10
129.214
20
-59.2182
11
129.203
21
-59.1966
0
LINE
8
BLACK
6
CONTINUOUS
10
129.203
20
-59.1966
11
129.187
21
-59.1776
0
LINE
8
BLACK
6
CONTINUOUS
10
129.187
20
-59.1776
11
129.168
21
-59.1621
0
LINE
8
BLACK
6
CONTINUOUS
10
129.168
20
-59.1621
11
129.147
21
-59.1505
0
LINE
8
BLACK
6
CONTINUOUS
10
129.147
20
-59.1505
11
129.123
21
-59.1434
0
LINE
8
BLACK
6
CONTINUOUS
10
129.123
20
-59.1434
11
129.099
21
-59.141
0
LINE
8
BLACK
6
CONTINUOUS
10
129.099
20
-59.141
11
128.174
21
-59.141
0
LINE
8
BLACK
6
CONTINUOUS
10
128.174
20
-59.141
11
128.174
21
-58.189
0
LINE
8
BLACK
6
CONTINUOUS
10
128.174
20
-58.189
11
129.099
21
-58.189
0
LINE
8
BLACK
6
CONTINUOUS
10
129.099
20
-58.189
11
129.123
21
-58.1866
0
LINE
8
BLACK
6
CONTINUOUS
10
129.123
20
-58.1866
11
129.147
21
-58.1795
0
LINE
8
BLACK
6
CONTINUOUS
10
129.147
20
-58.1795
11
129.168
21
-58.1679
0
LINE
8
BLACK
6
CONTINUOUS
10
129.168
20
-58.1679
11
129.187
21
-58.1524
0
LINE
8
BLACK
6
CONTINUOUS
10
129.187
20
-58.1524
11
129.203
21
-58.1334
0
LINE
8
BLACK
6
CONTINUOUS
10
129.203
20
-58.1334
11
129.214
21
-58.1118
0
LINE
8
BLACK
6
CONTINUOUS
10
129.214
20
-58.1118
11
129.222
21
-58.0884
0
LINE
8
BLACK
6
CONTINUOUS
10
129.222
20
-58.0884
11
129.224
21
-58.064
0
LINE
8
BLACK
6
CONTINUOUS
10
129.224
20
-58.064
11
129.224
21
-57.976
0
LINE
8
BLACK
6
CONTINUOUS
10
129.224
20
-57.976
11
129.222
21
-57.9516
0
LINE
8
BLACK
6
CONTINUOUS
10
129.222
20
-57.9516
11
129.214
21
-57.9282
0
LINE
8
BLACK
6
CONTINUOUS
10
129.214
20
-57.9282
11
129.203
21
-57.9066
0
LINE
8
BLACK
6
CONTINUOUS
10
129.203
20
-57.9066
11
129.187
21
-57.8876
0
LINE
8
BLACK
6
CONTINUOUS
10
129.187
20
-57.8876
11
129.168
21
-57.8721
0
LINE
8
BLACK
6
CONTINUOUS
10
129.168
20
-57.8721
11
129.147
21
-57.8605
0
LINE
8
BLACK
6
CONTINUOUS
10
129.147
20
-57.8605
11
129.123
21
-57.8534
0
LINE
8
BLACK
6
CONTINUOUS
10
129.123
20
-57.8534
11
129.099
21
-57.851
0
LINE
8
BLACK
6
CONTINUOUS
10
129.099
20
-57.851
11
128.174
21
-57.851
0
LINE
8
BLACK
6
CONTINUOUS
10
128.174
20
-57.851
11
128.174
21
-56.899
0
LINE
8
BLACK
6
CONTINUOUS
10
128.174
20
-56.899
11
133.076
21
-56.899
0
LINE
8
BLACK
6
CONTINUOUS
10
133.076
20
-56.899
11
133.076
21
-61.701
0
LINE
8
BLACK
6
CONTINUOUS
10
135.226
20
-61.681
11
133.674
21
-61.681
0
LINE
8
BLACK
6
CONTINUOUS
10
133.674
20
-61.681
11
133.674
21
-60.729
0
LINE
8
BLACK
6
CONTINUOUS
10
133.674
20
-60.729
11
135.226
21
-60.729
0
LINE
8
BLACK
6
CONTINUOUS
10
135.226
20
-60.729
11
135.226
21
-61.681
0
LINE
8
BLACK
6
CONTINUOUS
10
135.226
20
-60.411
11
133.674
21
-60.411
0
LINE
8
BLACK
6
CONTINUOUS
10
133.674
20
-60.411
11
133.674
21
-59.459
0
LINE
8
BLACK
6
CONTINUOUS
10
133.674
20
-59.459
11
135.226
21
-59.459
0
LINE
8
BLACK
6
CONTINUOUS
10
135.226
20
-59.459
11
135.226
21
-60.411
0
LINE
8
BLACK
6
CONTINUOUS
10
92.0766
20
-57.787
11
92.2465
21
-57.8386
0
LINE
8
BLACK
6
CONTINUOUS
10
92.2465
20
-57.8386
11
92.403
21
-57.9222
0
LINE
8
BLACK
6
CONTINUOUS
10
92.403
20
-57.9222
11
92.4387
21
-57.9516
0
LINE
8
BLACK
6
CONTINUOUS
10
92.4387
20
-57.9516
11
92.5402
21
-58.0348
0
LINE
8
BLACK
6
CONTINUOUS
10
92.5402
20
-58.0348
11
92.6034
21
-58.1118
0
LINE
8
BLACK
6
CONTINUOUS
10
92.6034
20
-58.1118
11
92.6528
21
-58.172
0
LINE
8
BLACK
6
CONTINUOUS
10
92.6528
20
-58.172
11
92.7364
21
-58.3285
0
LINE
8
BLACK
6
CONTINUOUS
10
92.7364
20
-58.3285
11
92.788
21
-58.4984
0
LINE
8
BLACK
6
CONTINUOUS
10
92.788
20
-58.4984
11
92.801
21
-58.6307
0
LINE
8
BLACK
6
CONTINUOUS
10
92.801
20
-58.6307
11
92.801
21
-58.9693
0
LINE
8
BLACK
6
CONTINUOUS
10
92.801
20
-58.9693
11
92.788
21
-59.1016
0
LINE
8
BLACK
6
CONTINUOUS
10
92.788
20
-59.1016
11
92.7364
21
-59.2715
0
LINE
8
BLACK
6
CONTINUOUS
10
92.7364
20
-59.2715
11
92.6528
21
-59.428
0
LINE
8
BLACK
6
CONTINUOUS
10
92.6528
20
-59.428
11
92.6351
21
-59.4495
0
LINE
8
BLACK
6
CONTINUOUS
10
92.6351
20
-59.4495
11
92.5402
21
-59.5652
0
LINE
8
BLACK
6
CONTINUOUS
10
92.5402
20
-59.5652
11
92.403
21
-59.6778
0
LINE
8
BLACK
6
CONTINUOUS
10
92.403
20
-59.6778
11
92.2465
21
-59.7614
0
LINE
8
BLACK
6
CONTINUOUS
10
92.2465
20
-59.7614
11
92.2465
21
-59.7614
0
LINE
8
BLACK
6
CONTINUOUS
10
92.2465
20
-59.7614
11
92.0766
21
-59.813
0
LINE
8
BLACK
6
CONTINUOUS
10
92.0766
20
-59.813
11
91.9
21
-59.8304
0
LINE
8
BLACK
6
CONTINUOUS
10
91.9
20
-59.8304
11
91.7234
21
-59.813
0
LINE
8
BLACK
6
CONTINUOUS
10
91.7234
20
-59.813
11
91.5535
21
-59.7614
0
LINE
8
BLACK
6
CONTINUOUS
10
91.5535
20
-59.7614
11
91.397
21
-59.6778
0
LINE
8
BLACK
6
CONTINUOUS
10
91.397
20
-59.6778
11
91.3547
21
-59.6431
0
LINE
8
BLACK
6
CONTINUOUS
10
91.3547
20
-59.6431
11
91.2598
21
-59.5652
0
LINE
8
BLACK
6
CONTINUOUS
10
91.2598
20
-59.5652
11
91.1472
21
-59.428
0
LINE
8
BLACK
6
CONTINUOUS
10
91.1472
20
-59.428
11
91.0636
21
-59.2715
0
LINE
8
BLACK
6
CONTINUOUS
10
91.0636
20
-59.2715
11
91.0545
21
-59.2416
0
LINE
8
BLACK
6
CONTINUOUS
10
91.0545
20
-59.2416
11
91.012
21
-59.1016
0
LINE
8
BLACK
6
CONTINUOUS
10
91.012
20
-59.1016
11
90.999
21
-58.9693
0
LINE
8
BLACK
6
CONTINUOUS
10
90.999
20
-58.9693
11
90.999
21
-58.6307
0
LINE
8
BLACK
6
CONTINUOUS
10
90.999
20
-58.6307
11
91.012
21
-58.4984
0
LINE
8
BLACK
6
CONTINUOUS
10
91.012
20
-58.4984
11
91.0636
21
-58.3285
0
LINE
8
BLACK
6
CONTINUOUS
10
91.0636
20
-58.3285
11
91.1472
21
-58.172
0
LINE
8
BLACK
6
CONTINUOUS
10
91.1472
20
-58.172
11
91.2598
21
-58.0348
0
LINE
8
BLACK
6
CONTINUOUS
10
91.2598
20
-58.0348
11
91.397
21
-57.9222
0
LINE
8
BLACK
6
CONTINUOUS
10
91.397
20
-57.9222
11
91.5535
21
-57.8386
0
LINE
8
BLACK
6
CONTINUOUS
10
91.5535
20
-57.8386
11
91.7234
21
-57.787
0
LINE
8
BLACK
6
CONTINUOUS
10
91.7234
20
-57.787
11
91.9
21
-57.7696
0
LINE
8
BLACK
6
CONTINUOUS
10
91.9
20
-57.7696
11
92.0766
21
-57.787
0
LINE
8
BLACK
6
CONTINUOUS
10
94.5766
20
-57.787
11
94.7465
21
-57.8386
0
LINE
8
BLACK
6
CONTINUOUS
10
94.7465
20
-57.8386
11
94.903
21
-57.9222
0
LINE
8
BLACK
6
CONTINUOUS
10
94.903
20
-57.9222
11
94.9387
21
-57.9516
0
LINE
8
BLACK
6
CONTINUOUS
10
94.9387
20
-57.9516
11
95.0402
21
-58.0348
0
LINE
8
BLACK
6
CONTINUOUS
10
95.0402
20
-58.0348
11
95.1034
21
-58.1118
0
LINE
8
BLACK
6
CONTINUOUS
10
95.1034
20
-58.1118
11
95.1528
21
-58.172
0
LINE
8
BLACK
6
CONTINUOUS
10
95.1528
20
-58.172
11
95.2364
21
-58.3285
0
LINE
8
BLACK
6
CONTINUOUS
10
95.2364
20
-58.3285
11
95.288
21
-58.4984
0
LINE
8
BLACK
6
CONTINUOUS
10
95.288
20
-58.4984
11
95.301
21
-58.6307
0
LINE
8
BLACK
6
CONTINUOUS
10
95.301
20
-58.6307
11
95.301
21
-58.9693
0
LINE
8
BLACK
6
CONTINUOUS
10
95.301
20
-58.9693
11
95.288
21
-59.1016
0
LINE
8
BLACK
6
CONTINUOUS
10
95.288
20
-59.1016
11
95.2364
21
-59.2715
0
LINE
8
BLACK
6
CONTINUOUS
10
95.2364
20
-59.2715
11
95.1528
21
-59.428
0
LINE
8
BLACK
6
CONTINUOUS
10
95.1528
20
-59.428
11
95.1351
21
-59.4495
0
LINE
8
BLACK
6
CONTINUOUS
10
95.1351
20
-59.4495
11
95.0402
21
-59.5652
0
LINE
8
BLACK
6
CONTINUOUS
10
95.0402
20
-59.5652
11
94.903
21
-59.6778
0
LINE
8
BLACK
6
CONTINUOUS
10
94.903
20
-59.6778
11
94.7465
21
-59.7614
0
LINE
8
BLACK
6
CONTINUOUS
10
94.7465
20
-59.7614
11
94.7465
21
-59.7614
0
LINE
8
BLACK
6
CONTINUOUS
10
94.7465
20
-59.7614
11
94.5766
21
-59.813
0
LINE
8
BLACK
6
CONTINUOUS
10
94.5766
20
-59.813
11
94.4
21
-59.8304
0
LINE
8
BLACK
6
CONTINUOUS
10
94.4
20
-59.8304
11
94.2234
21
-59.813
0
LINE
8
BLACK
6
CONTINUOUS
10
94.2234
20
-59.813
11
94.0535
21
-59.7614
0
LINE
8
BLACK
6
CONTINUOUS
10
94.0535
20
-59.7614
11
93.897
21
-59.6778
0
LINE
8
BLACK
6
CONTINUOUS
10
93.897
20
-59.6778
11
93.8547
21
-59.6431
0
LINE
8
BLACK
6
CONTINUOUS
10
93.8547
20
-59.6431
11
93.7598
21
-59.5652
0
LINE
8
BLACK
6
CONTINUOUS
10
93.7598
20
-59.5652
11
93.6472
21
-59.428
0
LINE
8
BLACK
6
CONTINUOUS
10
93.6472
20
-59.428
11
93.5636
21
-59.2715
0
LINE
8
BLACK
6
CONTINUOUS
10
93.5636
20
-59.2715
11
93.5545
21
-59.2416
0
LINE
8
BLACK
6
CONTINUOUS
10
93.5545
20
-59.2416
11
93.512
21
-59.1016
0
LINE
8
BLACK
6
CONTINUOUS
10
93.512
20
-59.1016
11
93.499
21
-58.9693
0
LINE
8
BLACK
6
CONTINUOUS
10
93.499
20
-58.9693
11
93.499
21
-58.6307
0
LINE
8
BLACK
6
CONTINUOUS
10
93.499
20
-58.6307
11
93.512
21
-58.4984
0
LINE
8
BLACK
6
CONTINUOUS
10
93.512
20
-58.4984
11
93.5636
21
-58.3285
0
LINE
8
BLACK
6
CONTINUOUS
10
93.5636
20
-58.3285
11
93.6472
21
-58.172
0
LINE
8
BLACK
6
CONTINUOUS
10
93.6472
20
-58.172
11
93.7598
21
-58.0348
0
LINE
8
BLACK
6
CONTINUOUS
10
93.7598
20
-58.0348
11
93.897
21
-57.9222
0
LINE
8
BLACK
6
CONTINUOUS
10
93.897
20
-57.9222
11
94.0535
21
-57.8386
0
LINE
8
BLACK
6
CONTINUOUS
10
94.0535
20
-57.8386
11
94.2234
21
-57.787
0
LINE
8
BLACK
6
CONTINUOUS
10
94.2234
20
-57.787
11
94.4
21
-57.7696
0
LINE
8
BLACK
6
CONTINUOUS
10
94.4
20
-57.7696
11
94.5766
21
-57.787
0
LINE
8
BLACK
6
CONTINUOUS
10
97.0766
20
-57.787
11
97.2465
21
-57.8386
0
LINE
8
BLACK
6
CONTINUOUS
10
97.2465
20
-57.8386
11
97.403
21
-57.9222
0
LINE
8
BLACK
6
CONTINUOUS
10
97.403
20
-57.9222
11
97.4387
21
-57.9516
0
LINE
8
BLACK
6
CONTINUOUS
10
97.4387
20
-57.9516
11
97.5402
21
-58.0348
0
LINE
8
BLACK
6
CONTINUOUS
10
97.5402
20
-58.0348
11
97.6034
21
-58.1118
0
LINE
8
BLACK
6
CONTINUOUS
10
97.6034
20
-58.1118
11
97.6528
21
-58.172
0
LINE
8
BLACK
6
CONTINUOUS
10
97.6528
20
-58.172
11
97.7364
21
-58.3285
0
LINE
8
BLACK
6
CONTINUOUS
10
97.7364
20
-58.3285
11
97.788
21
-58.4984
0
LINE
8
BLACK
6
CONTINUOUS
10
97.788
20
-58.4984
11
97.801
21
-58.6307
0
LINE
8
BLACK
6
CONTINUOUS
10
97.801
20
-58.6307
11
97.801
21
-58.9693
0
LINE
8
BLACK
6
CONTINUOUS
10
97.801
20
-58.9693
11
97.788
21
-59.1016
0
LINE
8
BLACK
6
CONTINUOUS
10
97.788
20
-59.1016
11
97.7364
21
-59.2715
0
LINE
8
BLACK
6
CONTINUOUS
10
97.7364
20
-59.2715
11
97.6528
21
-59.428
0
LINE
8
BLACK
6
CONTINUOUS
10
97.6528
20
-59.428
11
97.6351
21
-59.4495
0
LINE
8
BLACK
6
CONTINUOUS
10
97.6351
20
-59.4495
11
97.5402
21
-59.5652
0
LINE
8
BLACK
6
CONTINUOUS
10
97.5402
20
-59.5652
11
97.403
21
-59.6778
0
LINE
8
BLACK
6
CONTINUOUS
10
97.403
20
-59.6778
11
97.2465
21
-59.7614
0
LINE
8
BLACK
6
CONTINUOUS
10
97.2465
20
-59.7614
11
97.2465
21
-59.7614
0
LINE
8
BLACK
6
CONTINUOUS
10
97.2465
20
-59.7614
11
97.0766
21
-59.813
0
LINE
8
BLACK
6
CONTINUOUS
10
97.0766
20
-59.813
11
96.9
21
-59.8304
0
LINE
8
BLACK
6
CONTINUOUS
10
96.9
20
-59.8304
11
96.7234
21
-59.813
0
LINE
8
BLACK
6
CONTINUOUS
10
96.7234
20
-59.813
11
96.5535
21
-59.7614
0
LINE
8
BLACK
6
CONTINUOUS
10
96.5535
20
-59.7614
11
96.397
21
-59.6778
0
LINE
8
BLACK
6
CONTINUOUS
10
96.397
20
-59.6778
11
96.3547
21
-59.6431
0
LINE
8
BLACK
6
CONTINUOUS
10
96.3547
20
-59.6431
11
96.2598
21
-59.5652
0
LINE
8
BLACK
6
CONTINUOUS
10
96.2598
20
-59.5652
11
96.1472
21
-59.428
0
LINE
8
BLACK
6
CONTINUOUS
10
96.1472
20
-59.428
11
96.0636
21
-59.2715
0
LINE
8
BLACK
6
CONTINUOUS
10
96.0636
20
-59.2715
11
96.0545
21
-59.2416
0
LINE
8
BLACK
6
CONTINUOUS
10
96.0545
20
-59.2416
11
96.012
21
-59.1016
0
LINE
8
BLACK
6
CONTINUOUS
10
96.012
20
-59.1016
11
95.999
21
-58.9693
0
LINE
8
BLACK
6
CONTINUOUS
10
95.999
20
-58.9693
11
95.999
21
-58.6307
0
LINE
8
BLACK
6
CONTINUOUS
10
95.999
20
-58.6307
11
96.012
21
-58.4984
0
LINE
8
BLACK
6
CONTINUOUS
10
96.012
20
-58.4984
11
96.0636
21
-58.3285
0
LINE
8
BLACK
6
CONTINUOUS
10
96.0636
20
-58.3285
11
96.1472
21
-58.172
0
LINE
8
BLACK
6
CONTINUOUS
10
96.1472
20
-58.172
11
96.2598
21
-58.0348
0
LINE
8
BLACK
6
CONTINUOUS
10
96.2598
20
-58.0348
11
96.397
21
-57.9222
0
LINE
8
BLACK
6
CONTINUOUS
10
96.397
20
-57.9222
11
96.5535
21
-57.8386
0
LINE
8
BLACK
6
CONTINUOUS
10
96.5535
20
-57.8386
11
96.7234
21
-57.787
0
LINE
8
BLACK
6
CONTINUOUS
10
96.7234
20
-57.787
11
96.9
21
-57.7696
0
LINE
8
BLACK
6
CONTINUOUS
10
96.9
20
-57.7696
11
97.0766
21
-57.787
0
LINE
8
BLACK
6
CONTINUOUS
10
100.159
20
-57.778
11
100.192
21
-57.788
0
LINE
8
BLACK
6
CONTINUOUS
10
100.192
20
-57.788
11
100.222
21
-57.8043
0
LINE
8
BLACK
6
CONTINUOUS
10
100.222
20
-57.8043
11
100.249
21
-57.8262
0
LINE
8
BLACK
6
CONTINUOUS
10
100.249
20
-57.8262
11
100.271
21
-57.8529
0
LINE
8
BLACK
6
CONTINUOUS
10
100.271
20
-57.8529
11
100.287
21
-57.8833
0
LINE
8
BLACK
6
CONTINUOUS
10
100.287
20
-57.8833
11
100.297
21
-57.9164
0
LINE
8
BLACK
6
CONTINUOUS
10
100.297
20
-57.9164
11
100.301
21
-57.9569
0
LINE
8
BLACK
6
CONTINUOUS
10
100.301
20
-57.9569
11
100.301
21
-59.6431
0
LINE
8
BLACK
6
CONTINUOUS
10
100.301
20
-59.6431
11
100.297
21
-59.6836
0
LINE
8
BLACK
6
CONTINUOUS
10
100.297
20
-59.6836
11
100.287
21
-59.7167
0
LINE
8
BLACK
6
CONTINUOUS
10
100.287
20
-59.7167
11
100.271
21
-59.7471
0
LINE
8
BLACK
6
CONTINUOUS
10
100.271
20
-59.7471
11
100.249
21
-59.7738
0
LINE
8
BLACK
6
CONTINUOUS
10
100.249
20
-59.7738
11
100.222
21
-59.7957
0
LINE
8
BLACK
6
CONTINUOUS
10
100.222
20
-59.7957
11
100.192
21
-59.812
0
LINE
8
BLACK
6
CONTINUOUS
10
100.192
20
-59.812
11
100.159
21
-59.822
0
LINE
8
BLACK
6
CONTINUOUS
10
100.159
20
-59.822
11
100.118
21
-59.826
0
LINE
8
BLACK
6
CONTINUOUS
10
100.118
20
-59.826
11
98.6819
21
-59.826
0
LINE
8
BLACK
6
CONTINUOUS
10
98.6819
20
-59.826
11
98.6414
21
-59.822
0
LINE
8
BLACK
6
CONTINUOUS
10
98.6414
20
-59.822
11
98.6083
21
-59.812
0
LINE
8
BLACK
6
CONTINUOUS
10
98.6083
20
-59.812
11
98.5779
21
-59.7957
0
LINE
8
BLACK
6
CONTINUOUS
10
98.5779
20
-59.7957
11
98.5512
21
-59.7738
0
LINE
8
BLACK
6
CONTINUOUS
10
98.5512
20
-59.7738
11
98.5293
21
-59.7471
0
LINE
8
BLACK
6
CONTINUOUS
10
98.5293
20
-59.7471
11
98.513
21
-59.7167
0
LINE
8
BLACK
6
CONTINUOUS
10
98.513
20
-59.7167
11
98.503
21
-59.6836
0
LINE
8
BLACK
6
CONTINUOUS
10
98.503
20
-59.6836
11
98.499
21
-59.6431
0
LINE
8
BLACK
6
CONTINUOUS
10
98.499
20
-59.6431
11
98.499
21
-57.9569
0
LINE
8
BLACK
6
CONTINUOUS
10
98.499
20
-57.9569
11
98.503
21
-57.9164
0
LINE
8
BLACK
6
CONTINUOUS
10
98.503
20
-57.9164
11
98.513
21
-57.8833
0
LINE
8
BLACK
6
CONTINUOUS
10
98.513
20
-57.8833
11
98.5293
21
-57.8529
0
LINE
8
BLACK
6
CONTINUOUS
10
98.5293
20
-57.8529
11
98.5512
21
-57.8262
0
LINE
8
BLACK
6
CONTINUOUS
10
98.5512
20
-57.8262
11
98.5779
21
-57.8043
0
LINE
8
BLACK
6
CONTINUOUS
10
98.5779
20
-57.8043
11
98.6083
21
-57.788
0
LINE
8
BLACK
6
CONTINUOUS
10
98.6083
20
-57.788
11
98.6414
21
-57.778
0
LINE
8
BLACK
6
CONTINUOUS
10
98.6414
20
-57.778
11
98.6819
21
-57.774
0
LINE
8
BLACK
6
CONTINUOUS
10
98.6819
20
-57.774
11
100.118
21
-57.774
0
LINE
8
BLACK
6
CONTINUOUS
10
100.118
20
-57.774
11
100.159
21
-57.778
0
LINE
8
BLACK
6
CONTINUOUS
10
135.226
20
-59.141
11
133.674
21
-59.141
0
LINE
8
BLACK
6
CONTINUOUS
10
133.674
20
-59.141
11
133.674
21
-58.189
0
LINE
8
BLACK
6
CONTINUOUS
10
133.674
20
-58.189
11
135.226
21
-58.189
0
LINE
8
BLACK
6
CONTINUOUS
10
135.226
20
-58.189
11
135.226
21
-59.141
0
LINE
8
BLACK
6
CONTINUOUS
10
135.226
20
-57.871
11
133.674
21
-57.871
0
LINE
8
BLACK
6
CONTINUOUS
10
133.674
20
-57.871
11
133.674
21
-56.919
0
LINE
8
BLACK
6
CONTINUOUS
10
133.674
20
-56.919
11
135.226
21
-56.919
0
LINE
8
BLACK
6
CONTINUOUS
10
135.226
20
-56.919
11
135.226
21
-57.871
0
LINE
8
BLACK
6
CONTINUOUS
10
133.076
20
-56.601
11
128.174
21
-56.601
0
LINE
8
BLACK
6
CONTINUOUS
10
128.174
20
-56.601
11
128.174
21
-55.649
0
LINE
8
BLACK
6
CONTINUOUS
10
128.174
20
-55.649
11
129.099
21
-55.649
0
LINE
8
BLACK
6
CONTINUOUS
10
129.099
20
-55.649
11
129.123
21
-55.6466
0
LINE
8
BLACK
6
CONTINUOUS
10
129.123
20
-55.6466
11
129.147
21
-55.6395
0
LINE
8
BLACK
6
CONTINUOUS
10
129.147
20
-55.6395
11
129.168
21
-55.6279
0
LINE
8
BLACK
6
CONTINUOUS
10
129.168
20
-55.6279
11
129.187
21
-55.6124
0
LINE
8
BLACK
6
CONTINUOUS
10
129.187
20
-55.6124
11
129.203
21
-55.5934
0
LINE
8
BLACK
6
CONTINUOUS
10
129.203
20
-55.5934
11
129.214
21
-55.5718
0
LINE
8
BLACK
6
CONTINUOUS
10
129.214
20
-55.5718
11
129.222
21
-55.5484
0
LINE
8
BLACK
6
CONTINUOUS
10
129.222
20
-55.5484
11
129.224
21
-55.524
0
LINE
8
BLACK
6
CONTINUOUS
10
129.224
20
-55.524
11
129.224
21
-55.436
0
LINE
8
BLACK
6
CONTINUOUS
10
129.224
20
-55.436
11
129.222
21
-55.4116
0
LINE
8
BLACK
6
CONTINUOUS
10
129.222
20
-55.4116
11
129.214
21
-55.3882
0
LINE
8
BLACK
6
CONTINUOUS
10
129.214
20
-55.3882
11
129.203
21
-55.3666
0
LINE
8
BLACK
6
CONTINUOUS
10
129.203
20
-55.3666
11
129.187
21
-55.3476
0
LINE
8
BLACK
6
CONTINUOUS
10
129.187
20
-55.3476
11
129.168
21
-55.3321
0
LINE
8
BLACK
6
CONTINUOUS
10
129.168
20
-55.3321
11
129.147
21
-55.3205
0
LINE
8
BLACK
6
CONTINUOUS
10
129.147
20
-55.3205
11
129.123
21
-55.3134
0
LINE
8
BLACK
6
CONTINUOUS
10
129.123
20
-55.3134
11
129.099
21
-55.311
0
LINE
8
BLACK
6
CONTINUOUS
10
129.099
20
-55.311
11
128.174
21
-55.311
0
LINE
8
BLACK
6
CONTINUOUS
10
128.174
20
-55.311
11
128.174
21
-54.359
0
LINE
8
BLACK
6
CONTINUOUS
10
128.174
20
-54.359
11
129.099
21
-54.359
0
LINE
8
BLACK
6
CONTINUOUS
10
129.099
20
-54.359
11
129.123
21
-54.3566
0
LINE
8
BLACK
6
CONTINUOUS
10
129.123
20
-54.3566
11
129.147
21
-54.3495
0
LINE
8
BLACK
6
CONTINUOUS
10
129.147
20
-54.3495
11
129.168
21
-54.3379
0
LINE
8
BLACK
6
CONTINUOUS
10
129.168
20
-54.3379
11
129.187
21
-54.3224
0
LINE
8
BLACK
6
CONTINUOUS
10
129.187
20
-54.3224
11
129.203
21
-54.3034
0
LINE
8
BLACK
6
CONTINUOUS
10
129.203
20
-54.3034
11
129.214
21
-54.2818
0
LINE
8
BLACK
6
CONTINUOUS
10
129.214
20
-54.2818
11
129.222
21
-54.2584
0
LINE
8
BLACK
6
CONTINUOUS
10
129.222
20
-54.2584
11
129.224
21
-54.234
0
LINE
8
BLACK
6
CONTINUOUS
10
129.224
20
-54.234
11
129.224
21
-54.166
0
LINE
8
BLACK
6
CONTINUOUS
10
129.224
20
-54.166
11
129.222
21
-54.1416
0
LINE
8
BLACK
6
CONTINUOUS
10
129.222
20
-54.1416
11
129.214
21
-54.1182
0
LINE
8
BLACK
6
CONTINUOUS
10
129.214
20
-54.1182
11
129.203
21
-54.0966
0
LINE
8
BLACK
6
CONTINUOUS
10
129.203
20
-54.0966
11
129.187
21
-54.0776
0
LINE
8
BLACK
6
CONTINUOUS
10
129.187
20
-54.0776
11
129.168
21
-54.0621
0
LINE
8
BLACK
6
CONTINUOUS
10
129.168
20
-54.0621
11
129.147
21
-54.0505
0
LINE
8
BLACK
6
CONTINUOUS
10
129.147
20
-54.0505
11
129.123
21
-54.0434
0
LINE
8
BLACK
6
CONTINUOUS
10
129.123
20
-54.0434
11
129.099
21
-54.041
0
LINE
8
BLACK
6
CONTINUOUS
10
129.099
20
-54.041
11
128.174
21
-54.041
0
LINE
8
BLACK
6
CONTINUOUS
10
128.174
20
-54.041
11
128.174
21
-53.089
0
LINE
8
BLACK
6
CONTINUOUS
10
128.174
20
-53.089
11
129.099
21
-53.089
0
LINE
8
BLACK
6
CONTINUOUS
10
129.099
20
-53.089
11
129.123
21
-53.0866
0
LINE
8
BLACK
6
CONTINUOUS
10
129.123
20
-53.0866
11
129.147
21
-53.0795
0
LINE
8
BLACK
6
CONTINUOUS
10
129.147
20
-53.0795
11
129.168
21
-53.0679
0
LINE
8
BLACK
6
CONTINUOUS
10
129.168
20
-53.0679
11
129.187
21
-53.0524
0
LINE
8
BLACK
6
CONTINUOUS
10
129.187
20
-53.0524
11
129.203
21
-53.0334
0
LINE
8
BLACK
6
CONTINUOUS
10
129.203
20
-53.0334
11
129.214
21
-53.0118
0
LINE
8
BLACK
6
CONTINUOUS
10
129.214
20
-53.0118
11
129.222
21
-52.9884
0
LINE
8
BLACK
6
CONTINUOUS
10
129.222
20
-52.9884
11
129.224
21
-52.964
0
LINE
8
BLACK
6
CONTINUOUS
10
129.224
20
-52.964
11
129.224
21
-52.876
0
LINE
8
BLACK
6
CONTINUOUS
10
129.224
20
-52.876
11
129.222
21
-52.8516
0
LINE
8
BLACK
6
CONTINUOUS
10
129.222
20
-52.8516
11
129.214
21
-52.8282
0
LINE
8
BLACK
6
CONTINUOUS
10
129.214
20
-52.8282
11
129.203
21
-52.8066
0
LINE
8
BLACK
6
CONTINUOUS
10
129.203
20
-52.8066
11
129.187
21
-52.7876
0
LINE
8
BLACK
6
CONTINUOUS
10
129.187
20
-52.7876
11
129.168
21
-52.7721
0
LINE
8
BLACK
6
CONTINUOUS
10
129.168
20
-52.7721
11
129.147
21
-52.7605
0
LINE
8
BLACK
6
CONTINUOUS
10
129.147
20
-52.7605
11
129.123
21
-52.7534
0
LINE
8
BLACK
6
CONTINUOUS
10
129.123
20
-52.7534
11
129.099
21
-52.751
0
LINE
8
BLACK
6
CONTINUOUS
10
129.099
20
-52.751
11
128.174
21
-52.751
0
LINE
8
BLACK
6
CONTINUOUS
10
128.174
20
-52.751
11
128.174
21
-51.799
0
LINE
8
BLACK
6
CONTINUOUS
10
128.174
20
-51.799
11
133.076
21
-51.799
0
LINE
8
BLACK
6
CONTINUOUS
10
133.076
20
-51.799
11
133.076
21
-56.601
0
LINE
8
BLACK
6
CONTINUOUS
10
135.226
20
-56.581
11
133.674
21
-56.581
0
LINE
8
BLACK
6
CONTINUOUS
10
133.674
20
-56.581
11
133.674
21
-55.629
0
LINE
8
BLACK
6
CONTINUOUS
10
133.674
20
-55.629
11
135.226
21
-55.629
0
LINE
8
BLACK
6
CONTINUOUS
10
135.226
20
-55.629
11
135.226
21
-56.581
0
LINE
8
BLACK
6
CONTINUOUS
10
135.226
20
-55.311
11
133.674
21
-55.311
0
LINE
8
BLACK
6
CONTINUOUS
10
133.674
20
-55.311
11
133.674
21
-54.359
0
LINE
8
BLACK
6
CONTINUOUS
10
133.674
20
-54.359
11
135.226
21
-54.359
0
LINE
8
BLACK
6
CONTINUOUS
10
135.226
20
-54.359
11
135.226
21
-55.311
0
LINE
8
BLACK
6
CONTINUOUS
10
135.226
20
-54.041
11
133.674
21
-54.041
0
LINE
8
BLACK
6
CONTINUOUS
10
133.674
20
-54.041
11
133.674
21
-53.089
0
LINE
8
BLACK
6
CONTINUOUS
10
133.674
20
-53.089
11
135.226
21
-53.089
0
LINE
8
BLACK
6
CONTINUOUS
10
135.226
20
-53.089
11
135.226
21
-54.041
0
LINE
8
BLACK
6
CONTINUOUS
10
135.226
20
-52.771
11
133.674
21
-52.771
0
LINE
8
BLACK
6
CONTINUOUS
10
133.674
20
-52.771
11
133.674
21
-51.819
0
LINE
8
BLACK
6
CONTINUOUS
10
133.674
20
-51.819
11
135.226
21
-51.819
0
LINE
8
BLACK
6
CONTINUOUS
10
135.226
20
-51.819
11
135.226
21
-52.771
0
LINE
8
BLACK
6
CONTINUOUS
10
133.076
20
-51.501
11
128.174
21
-51.501
0
LINE
8
BLACK
6
CONTINUOUS
10
128.174
20
-51.501
11
128.174
21
-50.549
0
LINE
8
BLACK
6
CONTINUOUS
10
128.174
20
-50.549
11
129.099
21
-50.549
0
LINE
8
BLACK
6
CONTINUOUS
10
129.099
20
-50.549
11
129.123
21
-50.5466
0
LINE
8
BLACK
6
CONTINUOUS
10
129.123
20
-50.5466
11
129.147
21
-50.5395
0
LINE
8
BLACK
6
CONTINUOUS
10
129.147
20
-50.5395
11
129.168
21
-50.5279
0
LINE
8
BLACK
6
CONTINUOUS
10
129.168
20
-50.5279
11
129.187
21
-50.5124
0
LINE
8
BLACK
6
CONTINUOUS
10
129.187
20
-50.5124
11
129.203
21
-50.4934
0
LINE
8
BLACK
6
CONTINUOUS
10
129.203
20
-50.4934
11
129.214
21
-50.4718
0
LINE
8
BLACK
6
CONTINUOUS
10
129.214
20
-50.4718
11
129.222
21
-50.4484
0
LINE
8
BLACK
6
CONTINUOUS
10
129.222
20
-50.4484
11
129.224
21
-50.424
0
LINE
8
BLACK
6
CONTINUOUS
10
129.224
20
-50.424
11
129.224
21
-50.336
0
LINE
8
BLACK
6
CONTINUOUS
10
129.224
20
-50.336
11
129.222
21
-50.3116
0
LINE
8
BLACK
6
CONTINUOUS
10
129.222
20
-50.3116
11
129.214
21
-50.2882
0
LINE
8
BLACK
6
CONTINUOUS
10
129.214
20
-50.2882
11
129.203
21
-50.2666
0
LINE
8
BLACK
6
CONTINUOUS
10
129.203
20
-50.2666
11
129.187
21
-50.2476
0
LINE
8
BLACK
6
CONTINUOUS
10
129.187
20
-50.2476
11
129.168
21
-50.2321
0
LINE
8
BLACK
6
CONTINUOUS
10
129.168
20
-50.2321
11
129.147
21
-50.2205
0
LINE
8
BLACK
6
CONTINUOUS
10
129.147
20
-50.2205
11
129.123
21
-50.2134
0
LINE
8
BLACK
6
CONTINUOUS
10
129.123
20
-50.2134
11
129.099
21
-50.211
0
LINE
8
BLACK
6
CONTINUOUS
10
129.099
20
-50.211
11
128.174
21
-50.211
0
LINE
8
BLACK
6
CONTINUOUS
10
128.174
20
-50.211
11
128.174
21
-49.259
0
LINE
8
BLACK
6
CONTINUOUS
10
128.174
20
-49.259
11
129.099
21
-49.259
0
LINE
8
BLACK
6
CONTINUOUS
10
129.099
20
-49.259
11
129.123
21
-49.2566
0
LINE
8
BLACK
6
CONTINUOUS
10
129.123
20
-49.2566
11
129.147
21
-49.2495
0
LINE
8
BLACK
6
CONTINUOUS
10
129.147
20
-49.2495
11
129.168
21
-49.2379
0
LINE
8
BLACK
6
CONTINUOUS
10
129.168
20
-49.2379
11
129.187
21
-49.2224
0
LINE
8
BLACK
6
CONTINUOUS
10
129.187
20
-49.2224
11
129.203
21
-49.2034
0
LINE
8
BLACK
6
CONTINUOUS
10
129.203
20
-49.2034
11
129.214
21
-49.1818
0
LINE
8
BLACK
6
CONTINUOUS
10
129.214
20
-49.1818
11
129.222
21
-49.1584
0
LINE
8
BLACK
6
CONTINUOUS
10
129.222
20
-49.1584
11
129.224
21
-49.134
0
LINE
8
BLACK
6
CONTINUOUS
10
129.224
20
-49.134
11
129.224
21
-49.066
0
LINE
8
BLACK
6
CONTINUOUS
10
129.224
20
-49.066
11
129.222
21
-49.0416
0
LINE
8
BLACK
6
CONTINUOUS
10
129.222
20
-49.0416
11
129.214
21
-49.0182
0
LINE
8
BLACK
6
CONTINUOUS
10
129.214
20
-49.0182
11
129.203
21
-48.9966
0
LINE
8
BLACK
6
CONTINUOUS
10
129.203
20
-48.9966
11
129.187
21
-48.9776
0
LINE
8
BLACK
6
CONTINUOUS
10
129.187
20
-48.9776
11
129.168
21
-48.9621
0
LINE
8
BLACK
6
CONTINUOUS
10
129.168
20
-48.9621
11
129.147
21
-48.9505
0
LINE
8
BLACK
6
CONTINUOUS
10
129.147
20
-48.9505
11
129.123
21
-48.9434
0
LINE
8
BLACK
6
CONTINUOUS
10
129.123
20
-48.9434
11
129.099
21
-48.941
0
LINE
8
BLACK
6
CONTINUOUS
10
129.099
20
-48.941
11
128.174
21
-48.941
0
LINE
8
BLACK
6
CONTINUOUS
10
128.174
20
-48.941
11
128.174
21
-47.989
0
LINE
8
BLACK
6
CONTINUOUS
10
128.174
20
-47.989
11
129.099
21
-47.989
0
LINE
8
BLACK
6
CONTINUOUS
10
129.099
20
-47.989
11
129.123
21
-47.9866
0
LINE
8
BLACK
6
CONTINUOUS
10
129.123
20
-47.9866
11
129.147
21
-47.9795
0
LINE
8
BLACK
6
CONTINUOUS
10
129.147
20
-47.9795
11
129.168
21
-47.9679
0
LINE
8
BLACK
6
CONTINUOUS
10
129.168
20
-47.9679
11
129.187
21
-47.9524
0
LINE
8
BLACK
6
CONTINUOUS
10
129.187
20
-47.9524
11
129.203
21
-47.9334
0
LINE
8
BLACK
6
CONTINUOUS
10
129.203
20
-47.9334
11
129.214
21
-47.9118
0
LINE
8
BLACK
6
CONTINUOUS
10
129.214
20
-47.9118
11
129.222
21
-47.8884
0
LINE
8
BLACK
6
CONTINUOUS
10
129.222
20
-47.8884
11
129.224
21
-47.864
0
LINE
8
BLACK
6
CONTINUOUS
10
129.224
20
-47.864
11
129.224
21
-47.776
0
LINE
8
BLACK
6
CONTINUOUS
10
129.224
20
-47.776
11
129.222
21
-47.7516
0
LINE
8
BLACK
6
CONTINUOUS
10
129.222
20
-47.7516
11
129.214
21
-47.7282
0
LINE
8
BLACK
6
CONTINUOUS
10
129.214
20
-47.7282
11
129.203
21
-47.7066
0
LINE
8
BLACK
6
CONTINUOUS
10
129.203
20
-47.7066
11
129.187
21
-47.6876
0
LINE
8
BLACK
6
CONTINUOUS
10
129.187
20
-47.6876
11
129.168
21
-47.6721
0
LINE
8
BLACK
6
CONTINUOUS
10
129.168
20
-47.6721
11
129.147
21
-47.6605
0
LINE
8
BLACK
6
CONTINUOUS
10
129.147
20
-47.6605
11
129.123
21
-47.6534
0
LINE
8
BLACK
6
CONTINUOUS
10
129.123
20
-47.6534
11
129.099
21
-47.651
0
LINE
8
BLACK
6
CONTINUOUS
10
129.099
20
-47.651
11
128.174
21
-47.651
0
LINE
8
BLACK
6
CONTINUOUS
10
128.174
20
-47.651
11
128.174
21
-46.699
0
LINE
8
BLACK
6
CONTINUOUS
10
128.174
20
-46.699
11
133.076
21
-46.699
0
LINE
8
BLACK
6
CONTINUOUS
10
133.076
20
-46.699
11
133.076
21
-51.501
0
LINE
8
BLACK
6
CONTINUOUS
10
135.226
20
-51.481
11
133.674
21
-51.481
0
LINE
8
BLACK
6
CONTINUOUS
10
133.674
20
-51.481
11
133.674
21
-50.529
0
LINE
8
BLACK
6
CONTINUOUS
10
133.674
20
-50.529
11
135.226
21
-50.529
0
LINE
8
BLACK
6
CONTINUOUS
10
135.226
20
-50.529
11
135.226
21
-51.481
0
LINE
8
BLACK
6
CONTINUOUS
10
135.226
20
-50.211
11
133.674
21
-50.211
0
LINE
8
BLACK
6
CONTINUOUS
10
133.674
20
-50.211
11
133.674
21
-49.259
0
LINE
8
BLACK
6
CONTINUOUS
10
133.674
20
-49.259
11
135.226
21
-49.259
0
LINE
8
BLACK
6
CONTINUOUS
10
135.226
20
-49.259
11
135.226
21
-50.211
0
LINE
8
BLACK
6
CONTINUOUS
10
116.831
20
-49.517
11
103.729
21
-49.517
0
LINE
8
BLACK
6
CONTINUOUS
10
103.729
20
-49.517
11
103.729
21
-36.415
0
LINE
8
BLACK
6
CONTINUOUS
10
103.729
20
-36.415
11
116.831
21
-36.415
0
LINE
8
BLACK
6
CONTINUOUS
10
116.831
20
-36.415
11
116.831
21
-49.517
0
LINE
8
BLACK
6
CONTINUOUS
10
86.831
20
-49.517
11
73.729
21
-49.517
0
LINE
8
BLACK
6
CONTINUOUS
10
73.729
20
-49.517
11
73.729
21
-36.415
0
LINE
8
BLACK
6
CONTINUOUS
10
73.729
20
-36.415
11
86.831
21
-36.415
0
LINE
8
BLACK
6
CONTINUOUS
10
86.831
20
-36.415
11
86.831
21
-49.517
0
LINE
8
BLACK
6
CONTINUOUS
10
135.226
20
-48.941
11
133.674
21
-48.941
0
LINE
8
BLACK
6
CONTINUOUS
10
133.674
20
-48.941
11
133.674
21
-47.989
0
LINE
8
BLACK
6
CONTINUOUS
10
133.674
20
-47.989
11
135.226
21
-47.989
0
LINE
8
BLACK
6
CONTINUOUS
10
135.226
20
-47.989
11
135.226
21
-48.941
0
LINE
8
BLACK
6
CONTINUOUS
10
135.226
20
-47.671
11
133.674
21
-47.671
0
LINE
8
BLACK
6
CONTINUOUS
10
133.674
20
-47.671
11
133.674
21
-46.719
0
LINE
8
BLACK
6
CONTINUOUS
10
133.674
20
-46.719
11
135.226
21
-46.719
0
LINE
8
BLACK
6
CONTINUOUS
10
135.226
20
-46.719
11
135.226
21
-47.671
0
LINE
8
BLACK
6
CONTINUOUS
10
133.076
20
-46.401
11
128.174
21
-46.401
0
LINE
8
BLACK
6
CONTINUOUS
10
128.174
20
-46.401
11
128.174
21
-45.449
0
LINE
8
BLACK
6
CONTINUOUS
10
128.174
20
-45.449
11
129.099
21
-45.449
0
LINE
8
BLACK
6
CONTINUOUS
10
129.099
20
-45.449
11
129.123
21
-45.4466
0
LINE
8
BLACK
6
CONTINUOUS
10
129.123
20
-45.4466
11
129.147
21
-45.4395
0
LINE
8
BLACK
6
CONTINUOUS
10
129.147
20
-45.4395
11
129.168
21
-45.4279
0
LINE
8
BLACK
6
CONTINUOUS
10
129.168
20
-45.4279
11
129.187
21
-45.4124
0
LINE
8
BLACK
6
CONTINUOUS
10
129.187
20
-45.4124
11
129.203
21
-45.3934
0
LINE
8
BLACK
6
CONTINUOUS
10
129.203
20
-45.3934
11
129.214
21
-45.3718
0
LINE
8
BLACK
6
CONTINUOUS
10
129.214
20
-45.3718
11
129.222
21
-45.3484
0
LINE
8
BLACK
6
CONTINUOUS
10
129.222
20
-45.3484
11
129.224
21
-45.324
0
LINE
8
BLACK
6
CONTINUOUS
10
129.224
20
-45.324
11
129.224
21
-45.236
0
LINE
8
BLACK
6
CONTINUOUS
10
129.224
20
-45.236
11
129.222
21
-45.2116
0
LINE
8
BLACK
6
CONTINUOUS
10
129.222
20
-45.2116
11
129.214
21
-45.1882
0
LINE
8
BLACK
6
CONTINUOUS
10
129.214
20
-45.1882
11
129.203
21
-45.1666
0
LINE
8
BLACK
6
CONTINUOUS
10
129.203
20
-45.1666
11
129.187
21
-45.1476
0
LINE
8
BLACK
6
CONTINUOUS
10
129.187
20
-45.1476
11
129.168
21
-45.1321
0
LINE
8
BLACK
6
CONTINUOUS
10
129.168
20
-45.1321
11
129.147
21
-45.1205
0
LINE
8
BLACK
6
CONTINUOUS
10
129.147
20
-45.1205
11
129.123
21
-45.1134
0
LINE
8
BLACK
6
CONTINUOUS
10
129.123
20
-45.1134
11
129.099
21
-45.111
0
LINE
8
BLACK
6
CONTINUOUS
10
129.099
20
-45.111
11
128.174
21
-45.111
0
LINE
8
BLACK
6
CONTINUOUS
10
128.174
20
-45.111
11
128.174
21
-44.159
0
LINE
8
BLACK
6
CONTINUOUS
10
128.174
20
-44.159
11
129.099
21
-44.159
0
LINE
8
BLACK
6
CONTINUOUS
10
129.099
20
-44.159
11
129.123
21
-44.1566
0
LINE
8
BLACK
6
CONTINUOUS
10
129.123
20
-44.1566
11
129.147
21
-44.1495
0
LINE
8
BLACK
6
CONTINUOUS
10
129.147
20
-44.1495
11
129.168
21
-44.1379
0
LINE
8
BLACK
6
CONTINUOUS
10
129.168
20
-44.1379
11
129.187
21
-44.1224
0
LINE
8
BLACK
6
CONTINUOUS
10
129.187
20
-44.1224
11
129.203
21
-44.1034
0
LINE
8
BLACK
6
CONTINUOUS
10
129.203
20
-44.1034
11
129.214
21
-44.0818
0
LINE
8
BLACK
6
CONTINUOUS
10
129.214
20
-44.0818
11
129.222
21
-44.0584
0
LINE
8
BLACK
6
CONTINUOUS
10
129.222
20
-44.0584
11
129.224
21
-44.034
0
LINE
8
BLACK
6
CONTINUOUS
10
129.224
20
-44.034
11
129.224
21
-43.966
0
LINE
8
BLACK
6
CONTINUOUS
10
129.224
20
-43.966
11
129.222
21
-43.9416
0
LINE
8
BLACK
6
CONTINUOUS
10
129.222
20
-43.9416
11
129.214
21
-43.9182
0
LINE
8
BLACK
6
CONTINUOUS
10
129.214
20
-43.9182
11
129.203
21
-43.8966
0
LINE
8
BLACK
6
CONTINUOUS
10
129.203
20
-43.8966
11
129.187
21
-43.8776
0
LINE
8
BLACK
6
CONTINUOUS
10
129.187
20
-43.8776
11
129.168
21
-43.8621
0
LINE
8
BLACK
6
CONTINUOUS
10
129.168
20
-43.8621
11
129.147
21
-43.8505
0
LINE
8
BLACK
6
CONTINUOUS
10
129.147
20
-43.8505
11
129.123
21
-43.8434
0
LINE
8
BLACK
6
CONTINUOUS
10
129.123
20
-43.8434
11
129.099
21
-43.841
0
LINE
8
BLACK
6
CONTINUOUS
10
129.099
20
-43.841
11
128.174
21
-43.841
0
LINE
8
BLACK
6
CONTINUOUS
10
128.174
20
-43.841
11
128.174
21
-42.889
0
LINE
8
BLACK
6
CONTINUOUS
10
128.174
20
-42.889
11
129.099
21
-42.889
0
LINE
8
BLACK
6
CONTINUOUS
10
129.099
20
-42.889
11
129.123
21
-42.8866
0
LINE
8
BLACK
6
CONTINUOUS
10
129.123
20
-42.8866
11
129.147
21
-42.8795
0
LINE
8
BLACK
6
CONTINUOUS
10
129.147
20
-42.8795
11
129.168
21
-42.8679
0
LINE
8
BLACK
6
CONTINUOUS
10
129.168
20
-42.8679
11
129.187
21
-42.8524
0
LINE
8
BLACK
6
CONTINUOUS
10
129.187
20
-42.8524
11
129.203
21
-42.8334
0
LINE
8
BLACK
6
CONTINUOUS
10
129.203
20
-42.8334
11
129.214
21
-42.8118
0
LINE
8
BLACK
6
CONTINUOUS
10
129.214
20
-42.8118
11
129.222
21
-42.7884
0
LINE
8
BLACK
6
CONTINUOUS
10
129.222
20
-42.7884
11
129.224
21
-42.764
0
LINE
8
BLACK
6
CONTINUOUS
10
129.224
20
-42.764
11
129.224
21
-42.676
0
LINE
8
BLACK
6
CONTINUOUS
10
129.224
20
-42.676
11
129.222
21
-42.6516
0
LINE
8
BLACK
6
CONTINUOUS
10
129.222
20
-42.6516
11
129.214
21
-42.6282
0
LINE
8
BLACK
6
CONTINUOUS
10
129.214
20
-42.6282
11
129.203
21
-42.6066
0
LINE
8
BLACK
6
CONTINUOUS
10
129.203
20
-42.6066
11
129.187
21
-42.5876
0
LINE
8
BLACK
6
CONTINUOUS
10
129.187
20
-42.5876
11
129.168
21
-42.5721
0
LINE
8
BLACK
6
CONTINUOUS
10
129.168
20
-42.5721
11
129.147
21
-42.5605
0
LINE
8
BLACK
6
CONTINUOUS
10
129.147
20
-42.5605
11
129.123
21
-42.5534
0
LINE
8
BLACK
6
CONTINUOUS
10
129.123
20
-42.5534
11
129.099
21
-42.551
0
LINE
8
BLACK
6
CONTINUOUS
10
129.099
20
-42.551
11
128.174
21
-42.551
0
LINE
8
BLACK
6
CONTINUOUS
10
128.174
20
-42.551
11
128.174
21
-41.599
0
LINE
8
BLACK
6
CONTINUOUS
10
128.174
20
-41.599
11
133.076
21
-41.599
0
LINE
8
BLACK
6
CONTINUOUS
10
133.076
20
-41.599
11
133.076
21
-46.401
0
LINE
8
BLACK
6
CONTINUOUS
10
135.226
20
-46.381
11
133.674
21
-46.381
0
LINE
8
BLACK
6
CONTINUOUS
10
133.674
20
-46.381
11
133.674
21
-45.429
0
LINE
8
BLACK
6
CONTINUOUS
10
133.674
20
-45.429
11
135.226
21
-45.429
0
LINE
8
BLACK
6
CONTINUOUS
10
135.226
20
-45.429
11
135.226
21
-46.381
0
LINE
8
BLACK
6
CONTINUOUS
10
135.226
20
-45.111
11
133.674
21
-45.111
0
LINE
8
BLACK
6
CONTINUOUS
10
133.674
20
-45.111
11
133.674
21
-44.159
0
LINE
8
BLACK
6
CONTINUOUS
10
133.674
20
-44.159
11
135.226
21
-44.159
0
LINE
8
BLACK
6
CONTINUOUS
10
135.226
20
-44.159
11
135.226
21
-45.111
0
LINE
8
BLACK
6
CONTINUOUS
10
135.226
20
-43.841
11
133.674
21
-43.841
0
LINE
8
BLACK
6
CONTINUOUS
10
133.674
20
-43.841
11
133.674
21
-42.889
0
LINE
8
BLACK
6
CONTINUOUS
10
133.674
20
-42.889
11
135.226
21
-42.889
0
LINE
8
BLACK
6
CONTINUOUS
10
135.226
20
-42.889
11
135.226
21
-43.841
0
LINE
8
BLACK
6
CONTINUOUS
10
135.226
20
-42.571
11
133.674
21
-42.571
0
LINE
8
BLACK
6
CONTINUOUS
10
133.674
20
-42.571
11
133.674
21
-41.619
0
LINE
8
BLACK
6
CONTINUOUS
10
133.674
20
-41.619
11
135.226
21
-41.619
0
LINE
8
BLACK
6
CONTINUOUS
10
135.226
20
-41.619
11
135.226
21
-42.571
0
LINE
8
BLACK
6
CONTINUOUS
10
133.076
20
-41.301
11
128.174
21
-41.301
0
LINE
8
BLACK
6
CONTINUOUS
10
128.174
20
-41.301
11
128.174
21
-40.349
0
LINE
8
BLACK
6
CONTINUOUS
10
128.174
20
-40.349
11
129.099
21
-40.349
0
LINE
8
BLACK
6
CONTINUOUS
10
129.099
20
-40.349
11
129.123
21
-40.3466
0
LINE
8
BLACK
6
CONTINUOUS
10
129.123
20
-40.3466
11
129.147
21
-40.3395
0
LINE
8
BLACK
6
CONTINUOUS
10
129.147
20
-40.3395
11
129.168
21
-40.3279
0
LINE
8
BLACK
6
CONTINUOUS
10
129.168
20
-40.3279
11
129.187
21
-40.3124
0
LINE
8
BLACK
6
CONTINUOUS
10
129.187
20
-40.3124
11
129.203
21
-40.2934
0
LINE
8
BLACK
6
CONTINUOUS
10
129.203
20
-40.2934
11
129.214
21
-40.2718
0
LINE
8
BLACK
6
CONTINUOUS
10
129.214
20
-40.2718
11
129.222
21
-40.2484
0
LINE
8
BLACK
6
CONTINUOUS
10
129.222
20
-40.2484
11
129.224
21
-40.224
0
LINE
8
BLACK
6
CONTINUOUS
10
129.224
20
-40.224
11
129.224
21
-40.136
0
LINE
8
BLACK
6
CONTINUOUS
10
129.224
20
-40.136
11
129.222
21
-40.1116
0
LINE
8
BLACK
6
CONTINUOUS
10
129.222
20
-40.1116
11
129.214
21
-40.0882
0
LINE
8
BLACK
6
CONTINUOUS
10
129.214
20
-40.0882
11
129.203
21
-40.0666
0
LINE
8
BLACK
6
CONTINUOUS
10
129.203
20
-40.0666
11
129.187
21
-40.0476
0
LINE
8
BLACK
6
CONTINUOUS
10
129.187
20
-40.0476
11
129.168
21
-40.0321
0
LINE
8
BLACK
6
CONTINUOUS
10
129.168
20
-40.0321
11
129.147
21
-40.0205
0
LINE
8
BLACK
6
CONTINUOUS
10
129.147
20
-40.0205
11
129.123
21
-40.0134
0
LINE
8
BLACK
6
CONTINUOUS
10
129.123
20
-40.0134
11
129.099
21
-40.011
0
LINE
8
BLACK
6
CONTINUOUS
10
129.099
20
-40.011
11
128.174
21
-40.011
0
LINE
8
BLACK
6
CONTINUOUS
10
128.174
20
-40.011
11
128.174
21
-39.059
0
LINE
8
BLACK
6
CONTINUOUS
10
128.174
20
-39.059
11
129.099
21
-39.059
0
LINE
8
BLACK
6
CONTINUOUS
10
129.099
20
-39.059
11
129.123
21
-39.0566
0
LINE
8
BLACK
6
CONTINUOUS
10
129.123
20
-39.0566
11
129.147
21
-39.0495
0
LINE
8
BLACK
6
CONTINUOUS
10
129.147
20
-39.0495
11
129.168
21
-39.0379
0
LINE
8
BLACK
6
CONTINUOUS
10
129.168
20
-39.0379
11
129.187
21
-39.0224
0
LINE
8
BLACK
6
CONTINUOUS
10
129.187
20
-39.0224
11
129.203
21
-39.0034
0
LINE
8
BLACK
6
CONTINUOUS
10
129.203
20
-39.0034
11
129.214
21
-38.9818
0
LINE
8
BLACK
6
CONTINUOUS
10
129.214
20
-38.9818
11
129.222
21
-38.9584
0
LINE
8
BLACK
6
CONTINUOUS
10
129.222
20
-38.9584
11
129.224
21
-38.934
0
LINE
8
BLACK
6
CONTINUOUS
10
129.224
20
-38.934
11
129.224
21
-38.866
0
LINE
8
BLACK
6
CONTINUOUS
10
129.224
20
-38.866
11
129.222
21
-38.8416
0
LINE
8
BLACK
6
CONTINUOUS
10
129.222
20
-38.8416
11
129.214
21
-38.8182
0
LINE
8
BLACK
6
CONTINUOUS
10
129.214
20
-38.8182
11
129.203
21
-38.7966
0
LINE
8
BLACK
6
CONTINUOUS
10
129.203
20
-38.7966
11
129.187
21
-38.7776
0
LINE
8
BLACK
6
CONTINUOUS
10
129.187
20
-38.7776
11
129.168
21
-38.7621
0
LINE
8
BLACK
6
CONTINUOUS
10
129.168
20
-38.7621
11
129.147
21
-38.7505
0
LINE
8
BLACK
6
CONTINUOUS
10
129.147
20
-38.7505
11
129.123
21
-38.7434
0
LINE
8
BLACK
6
CONTINUOUS
10
129.123
20
-38.7434
11
129.099
21
-38.741
0
LINE
8
BLACK
6
CONTINUOUS
10
129.099
20
-38.741
11
128.174
21
-38.741
0
LINE
8
BLACK
6
CONTINUOUS
10
128.174
20
-38.741
11
128.174
21
-37.789
0
LINE
8
BLACK
6
CONTINUOUS
10
128.174
20
-37.789
11
129.099
21
-37.789
0
LINE
8
BLACK
6
CONTINUOUS
10
129.099
20
-37.789
11
129.123
21
-37.7866
0
LINE
8
BLACK
6
CONTINUOUS
10
129.123
20
-37.7866
11
129.147
21
-37.7795
0
LINE
8
BLACK
6
CONTINUOUS
10
129.147
20
-37.7795
11
129.168
21
-37.7679
0
LINE
8
BLACK
6
CONTINUOUS
10
129.168
20
-37.7679
11
129.187
21
-37.7524
0
LINE
8
BLACK
6
CONTINUOUS
10
129.187
20
-37.7524
11
129.203
21
-37.7334
0
LINE
8
BLACK
6
CONTINUOUS
10
129.203
20
-37.7334
11
129.214
21
-37.7118
0
LINE
8
BLACK
6
CONTINUOUS
10
129.214
20
-37.7118
11
129.222
21
-37.6884
0
LINE
8
BLACK
6
CONTINUOUS
10
129.222
20
-37.6884
11
129.224
21
-37.664
0
LINE
8
BLACK
6
CONTINUOUS
10
129.224
20
-37.664
11
129.224
21
-37.576
0
LINE
8
BLACK
6
CONTINUOUS
10
129.224
20
-37.576
11
129.222
21
-37.5516
0
LINE
8
BLACK
6
CONTINUOUS
10
129.222
20
-37.5516
11
129.214
21
-37.5282
0
LINE
8
BLACK
6
CONTINUOUS
10
129.214
20
-37.5282
11
129.203
21
-37.5066
0
LINE
8
BLACK
6
CONTINUOUS
10
129.203
20
-37.5066
11
129.187
21
-37.4876
0
LINE
8
BLACK
6
CONTINUOUS
10
129.187
20
-37.4876
11
129.168
21
-37.4721
0
LINE
8
BLACK
6
CONTINUOUS
10
129.168
20
-37.4721
11
129.147
21
-37.4605
0
LINE
8
BLACK
6
CONTINUOUS
10
129.147
20
-37.4605
11
129.123
21
-37.4534
0
LINE
8
BLACK
6
CONTINUOUS
10
129.123
20
-37.4534
11
129.099
21
-37.451
0
LINE
8
BLACK
6
CONTINUOUS
10
129.099
20
-37.451
11
128.174
21
-37.451
0
LINE
8
BLACK
6
CONTINUOUS
10
128.174
20
-37.451
11
128.174
21
-36.499
0
LINE
8
BLACK
6
CONTINUOUS
10
128.174
20
-36.499
11
133.076
21
-36.499
0
LINE
8
BLACK
6
CONTINUOUS
10
133.076
20
-36.499
11
133.076
21
-41.301
0
LINE
8
BLACK
6
CONTINUOUS
10
135.226
20
-41.281
11
133.674
21
-41.281
0
LINE
8
BLACK
6
CONTINUOUS
10
133.674
20
-41.281
11
133.674
21
-40.329
0
LINE
8
BLACK
6
CONTINUOUS
10
133.674
20
-40.329
11
135.226
21
-40.329
0
LINE
8
BLACK
6
CONTINUOUS
10
135.226
20
-40.329
11
135.226
21
-41.281
0
LINE
8
BLACK
6
CONTINUOUS
10
135.226
20
-40.011
11
133.674
21
-40.011
0
LINE
8
BLACK
6
CONTINUOUS
10
133.674
20
-40.011
11
133.674
21
-39.059
0
LINE
8
BLACK
6
CONTINUOUS
10
133.674
20
-39.059
11
135.226
21
-39.059
0
LINE
8
BLACK
6
CONTINUOUS
10
135.226
20
-39.059
11
135.226
21
-40.011
0
LINE
8
BLACK
6
CONTINUOUS
10
135.226
20
-38.741
11
133.674
21
-38.741
0
LINE
8
BLACK
6
CONTINUOUS
10
133.674
20
-38.741
11
133.674
21
-37.789
0
LINE
8
BLACK
6
CONTINUOUS
10
133.674
20
-37.789
11
135.226
21
-37.789
0
LINE
8
BLACK
6
CONTINUOUS
10
135.226
20
-37.789
11
135.226
21
-38.741
0
LINE
8
BLACK
6
CONTINUOUS
10
135.226
20
-37.471
11
133.674
21
-37.471
0
LINE
8
BLACK
6
CONTINUOUS
10
133.674
20
-37.471
11
133.674
21
-36.519
0
LINE
8
BLACK
6
CONTINUOUS
10
133.674
20
-36.519
11
135.226
21
-36.519
0
LINE
8
BLACK
6
CONTINUOUS
10
135.226
20
-36.519
11
135.226
21
-37.471
0
LINE
8
BLACK
6
CONTINUOUS
10
144.336
20
-28.5855
11
144.336
21
-28.5855
0
LINE
8
BLACK
6
CONTINUOUS
10
144.336
20
-28.5855
11
144.336
21
-28.5855
0
LINE
8
BLACK
6
CONTINUOUS
10
144.336
20
-28.5855
11
144.982
21
-28.8531
0
LINE
8
BLACK
6
CONTINUOUS
10
144.982
20
-28.8531
11
145.564
21
-29.2418
0
LINE
8
BLACK
6
CONTINUOUS
10
145.564
20
-29.2418
11
146.058
21
-29.7364
0
LINE
8
BLACK
6
CONTINUOUS
10
146.058
20
-29.7364
11
146.447
21
-30.318
0
LINE
8
BLACK
6
CONTINUOUS
10
146.447
20
-30.318
11
146.447
21
-30.318
0
LINE
8
BLACK
6
CONTINUOUS
10
146.447
20
-30.318
11
146.715
21
-30.9642
0
LINE
8
BLACK
6
CONTINUOUS
10
146.715
20
-30.9642
11
146.851
21
-31.6503
0
LINE
8
BLACK
6
CONTINUOUS
10
146.851
20
-31.6503
11
146.851
21
-32.3497
0
LINE
8
BLACK
6
CONTINUOUS
10
146.851
20
-32.3497
11
146.715
21
-33.0358
0
LINE
8
BLACK
6
CONTINUOUS
10
146.715
20
-33.0358
11
146.715
21
-33.0358
0
LINE
8
BLACK
6
CONTINUOUS
10
146.715
20
-33.0358
11
146.447
21
-33.682
0
LINE
8
BLACK
6
CONTINUOUS
10
146.447
20
-33.682
11
146.058
21
-34.2636
0
LINE
8
BLACK
6
CONTINUOUS
10
146.058
20
-34.2636
11
145.564
21
-34.7582
0
LINE
8
BLACK
6
CONTINUOUS
10
145.564
20
-34.7582
11
144.982
21
-35.1469
0
LINE
8
BLACK
6
CONTINUOUS
10
144.982
20
-35.1469
11
144.525
21
-35.3361
0
LINE
8
BLACK
6
CONTINUOUS
10
144.525
20
-35.3361
11
144.336
21
-35.4145
0
LINE
8
BLACK
6
CONTINUOUS
10
144.336
20
-35.4145
11
143.65
21
-35.551
0
LINE
8
BLACK
6
CONTINUOUS
10
143.65
20
-35.551
11
142.95
21
-35.551
0
LINE
8
BLACK
6
CONTINUOUS
10
142.95
20
-35.551
11
142.264
21
-35.4145
0
LINE
8
BLACK
6
CONTINUOUS
10
142.264
20
-35.4145
11
142.075
21
-35.3361
0
LINE
8
BLACK
6
CONTINUOUS
10
142.075
20
-35.3361
11
141.618
21
-35.1469
0
LINE
8
BLACK
6
CONTINUOUS
10
141.618
20
-35.1469
11
141.036
21
-34.7582
0
LINE
8
BLACK
6
CONTINUOUS
10
141.036
20
-34.7582
11
140.542
21
-34.2636
0
LINE
8
BLACK
6
CONTINUOUS
10
140.542
20
-34.2636
11
140.153
21
-33.682
0
LINE
8
BLACK
6
CONTINUOUS
10
140.153
20
-33.682
11
139.885
21
-33.0358
0
LINE
8
BLACK
6
CONTINUOUS
10
139.885
20
-33.0358
11
139.885
21
-33.0358
0
LINE
8
BLACK
6
CONTINUOUS
10
139.885
20
-33.0358
11
139.749
21
-32.3497
0
LINE
8
BLACK
6
CONTINUOUS
10
139.749
20
-32.3497
11
139.749
21
-31.6503
0
LINE
8
BLACK
6
CONTINUOUS
10
139.749
20
-31.6503
11
139.885
21
-30.9642
0
LINE
8
BLACK
6
CONTINUOUS
10
139.885
20
-30.9642
11
140.153
21
-30.318
0
LINE
8
BLACK
6
CONTINUOUS
10
140.153
20
-30.318
11
140.153
21
-30.318
0
LINE
8
BLACK
6
CONTINUOUS
10
140.153
20
-30.318
11
140.542
21
-29.7364
0
LINE
8
BLACK
6
CONTINUOUS
10
140.542
20
-29.7364
11
141.036
21
-29.2418
0
LINE
8
BLACK
6
CONTINUOUS
10
141.036
20
-29.2418
11
141.618
21
-28.8531
0
LINE
8
BLACK
6
CONTINUOUS
10
141.618
20
-28.8531
11
142.264
21
-28.5855
0
LINE
8
BLACK
6
CONTINUOUS
10
142.264
20
-28.5855
11
142.264
21
-28.5855
0
LINE
8
BLACK
6
CONTINUOUS
10
142.264
20
-28.5855
11
142.264
21
-28.5855
0
LINE
8
BLACK
6
CONTINUOUS
10
142.264
20
-28.5855
11
142.95
21
-28.449
0
LINE
8
BLACK
6
CONTINUOUS
10
142.95
20
-28.449
11
143.65
21
-28.449
0
LINE
8
BLACK
6
CONTINUOUS
10
143.65
20
-28.449
11
144.336
21
-28.5855
0
LINE
8
BLACK
6
CONTINUOUS
10
77.8358
20
-28.5855
11
77.8358
21
-28.5855
0
LINE
8
BLACK
6
CONTINUOUS
10
77.8358
20
-28.5855
11
77.8358
21
-28.5855
0
LINE
8
BLACK
6
CONTINUOUS
10
77.8358
20
-28.5855
11
78.482
21
-28.8531
0
LINE
8
BLACK
6
CONTINUOUS
10
78.482
20
-28.8531
11
79.0636
21
-29.2418
0
LINE
8
BLACK
6
CONTINUOUS
10
79.0636
20
-29.2418
11
79.5582
21
-29.7364
0
LINE
8
BLACK
6
CONTINUOUS
10
79.5582
20
-29.7364
11
79.9469
21
-30.318
0
LINE
8
BLACK
6
CONTINUOUS
10
79.9469
20
-30.318
11
79.9469
21
-30.318
0
LINE
8
BLACK
6
CONTINUOUS
10
79.9469
20
-30.318
11
80.2145
21
-30.9642
0
LINE
8
BLACK
6
CONTINUOUS
10
80.2145
20
-30.9642
11
80.351
21
-31.6503
0
LINE
8
BLACK
6
CONTINUOUS
10
80.351
20
-31.6503
11
80.351
21
-32.3497
0
LINE
8
BLACK
6
CONTINUOUS
10
80.351
20
-32.3497
11
80.2145
21
-33.0358
0
LINE
8
BLACK
6
CONTINUOUS
10
80.2145
20
-33.0358
11
80.2145
21
-33.0358
0
LINE
8
BLACK
6
CONTINUOUS
10
80.2145
20
-33.0358
11
79.9469
21
-33.682
0
LINE
8
BLACK
6
CONTINUOUS
10
79.9469
20
-33.682
11
79.5582
21
-34.2636
0
LINE
8
BLACK
6
CONTINUOUS
10
79.5582
20
-34.2636
11
79.0636
21
-34.7582
0
LINE
8
BLACK
6
CONTINUOUS
10
79.0636
20
-34.7582
11
78.482
21
-35.1469
0
LINE
8
BLACK
6
CONTINUOUS
10
78.482
20
-35.1469
11
78.0251
21
-35.3361
0
LINE
8
BLACK
6
CONTINUOUS
10
78.0251
20
-35.3361
11
77.8358
21
-35.4145
0
LINE
8
BLACK
6
CONTINUOUS
10
77.8358
20
-35.4145
11
77.1497
21
-35.551
0
LINE
8
BLACK
6
CONTINUOUS
10
77.1497
20
-35.551
11
76.4503
21
-35.551
0
LINE
8
BLACK
6
CONTINUOUS
10
76.4503
20
-35.551
11
75.7642
21
-35.4145
0
LINE
8
BLACK
6
CONTINUOUS
10
75.7642
20
-35.4145
11
75.5749
21
-35.3361
0
LINE
8
BLACK
6
CONTINUOUS
10
75.5749
20
-35.3361
11
75.118
21
-35.1469
0
LINE
8
BLACK
6
CONTINUOUS
10
75.118
20
-35.1469
11
74.5364
21
-34.7582
0
LINE
8
BLACK
6
CONTINUOUS
10
74.5364
20
-34.7582
11
74.0418
21
-34.2636
0
LINE
8
BLACK
6
CONTINUOUS
10
74.0418
20
-34.2636
11
73.6531
21
-33.682
0
LINE
8
BLACK
6
CONTINUOUS
10
73.6531
20
-33.682
11
73.3855
21
-33.0358
0
LINE
8
BLACK
6
CONTINUOUS
10
73.3855
20
-33.0358
11
73.3855
21
-33.0358
0
LINE
8
BLACK
6
CONTINUOUS
10
73.3855
20
-33.0358
11
73.249
21
-32.3497
0
LINE
8
BLACK
6
CONTINUOUS
10
73.249
20
-32.3497
11
73.249
21
-31.6503
0
LINE
8
BLACK
6
CONTINUOUS
10
73.249
20
-31.6503
11
73.3855
21
-30.9642
0
LINE
8
BLACK
6
CONTINUOUS
10
73.3855
20
-30.9642
11
73.6531
21
-30.318
0
LINE
8
BLACK
6
CONTINUOUS
10
73.6531
20
-30.318
11
73.6531
21
-30.318
0
LINE
8
BLACK
6
CONTINUOUS
10
73.6531
20
-30.318
11
74.0418
21
-29.7364
0
LINE
8
BLACK
6
CONTINUOUS
10
74.0418
20
-29.7364
11
74.5364
21
-29.2418
0
LINE
8
BLACK
6
CONTINUOUS
10
74.5364
20
-29.2418
11
75.118
21
-28.8531
0
LINE
8
BLACK
6
CONTINUOUS
10
75.118
20
-28.8531
11
75.7642
21
-28.5855
0
LINE
8
BLACK
6
CONTINUOUS
10
75.7642
20
-28.5855
11
75.7642
21
-28.5855
0
LINE
8
BLACK
6
CONTINUOUS
10
75.7642
20
-28.5855
11
75.7642
21
-28.5855
0
LINE
8
BLACK
6
CONTINUOUS
10
75.7642
20
-28.5855
11
76.4503
21
-28.449
0
LINE
8
BLACK
6
CONTINUOUS
10
76.4503
20
-28.449
11
77.1497
21
-28.449
0
LINE
8
BLACK
6
CONTINUOUS
10
77.1497
20
-28.449
11
77.8358
21
-28.5855
  0
ENDSEC
  0
EOF
