  0
SECTION
  2
HEADER
  9
$ANGBASE
  50
0.0
  9
$ANGDIR
  70
  1
  9
$MEASUREMENT
  70
0
  0
ENDSEC
  0
SECTION
  2
TABLES
  0
TABLE
  2
LTYPE
  70
4
  0
LTYPE
  5
40F
  2
CONTINUOUS
  70
0
  3
Solid line
  72
65
  73
0
  40
0.0
  0
LTYPE
  5
410
  2
DASHDOT
 70
0
  3
Dash Dot ____ _ ____ _
 72
65
 73
4
 40
2.0
 49
1.25
 49
-0.25
 49
0.25
 49
-0.25
  0
LTYPE
  5
411
  2
DASHED
 70
0
  3
Dashed __ __ __ __ __
 72
65
 73
2
 40
0.75
 49
0.5
 49
-0.25
  0
LTYPE
  5
43B
  2
DOTTED
 70
0
  3
Dotted .  .  .  .
 72
65
 73
2
 40
0.2
 49
0.0
 49
-0.2
  0
ENDTAB
  0
TABLE
  2
STYLE
  70
4
  0
STYLE
  2
KICAD
  70
0
  40
0
  41
1
  42
1
  50
0
  71
0
  3
isocp.shx
  0
STYLE
  2
KICADB
  70
0
  40
0
  41
1
  42
1
  50
0
  71
0
  3
isocp.shx
  0
STYLE
  2
KICADI
  70
0
  40
0
  41
1
  42
1
  50
15
  71
0
  3
isocp.shx
  0
STYLE
  2
KICADBI
  70
0
  40
0
  41
1
  42
1
  50
15
  71
0
  3
isocp.shx
  0
ENDTAB
  0
TABLE
  2
LAYER
  70
30
  0
LAYER
  2
BLACK
  70
0
  62
7
  6
CONTINUOUS
  0
LAYER
  2
GRAY1
  70
0
  62
251
  6
CONTINUOUS
  0
LAYER
  2
GRAY2
  70
0
  62
8
  6
CONTINUOUS
  0
LAYER
  2
GRAY3
  70
0
  62
9
  6
CONTINUOUS
  0
LAYER
  2
WHITE
  70
0
  62
7
  6
CONTINUOUS
  0
LAYER
  2
LYELLOW
  70
0
  62
51
  6
CONTINUOUS
  0
LAYER
  2
BLUE1
  70
0
  62
178
  6
CONTINUOUS
  0
LAYER
  2
GREEN1
  70
0
  62
98
  6
CONTINUOUS
  0
LAYER
  2
CYAN1
  70
0
  62
138
  6
CONTINUOUS
  0
LAYER
  2
RED1
  70
0
  62
18
  6
CONTINUOUS
  0
LAYER
  2
MAGENTA1
  70
0
  62
228
  6
CONTINUOUS
  0
LAYER
  2
BROWN1
  70
0
  62
58
  6
CONTINUOUS
  0
LAYER
  2
BLUE2
  70
0
  62
5
  6
CONTINUOUS
  0
LAYER
  2
GREEN2
  70
0
  62
3
  6
CONTINUOUS
  0
LAYER
  2
CYAN2
  70
0
  62
4
  6
CONTINUOUS
  0
LAYER
  2
RED2
  70
0
  62
1
  6
CONTINUOUS
  0
LAYER
  2
MAGENTA2
  70
0
  62
6
  6
CONTINUOUS
  0
LAYER
  2
BROWN2
  70
0
  62
54
  6
CONTINUOUS
  0
LAYER
  2
BLUE3
  70
0
  62
171
  6
CONTINUOUS
  0
LAYER
  2
GREEN3
  70
0
  62
91
  6
CONTINUOUS
  0
LAYER
  2
CYAN3
  70
0
  62
131
  6
CONTINUOUS
  0
LAYER
  2
RED3
  70
0
  62
11
  6
CONTINUOUS
  0
LAYER
  2
MAGENTA3
  70
0
  62
221
  6
CONTINUOUS
  0
LAYER
  2
YELLOW3
  70
0
  62
2
  6
CONTINUOUS
  0
LAYER
  2
BLUE4
  70
0
  62
5
  6
CONTINUOUS
  0
LAYER
  2
GREEN4
  70
0
  62
3
  6
CONTINUOUS
  0
LAYER
  2
CYAN4
  70
0
  62
4
  6
CONTINUOUS
  0
LAYER
  2
RED4
  70
0
  62
1
  6
CONTINUOUS
  0
LAYER
  2
MAGENTA4
  70
0
  62
6
  6
CONTINUOUS
  0
LAYER
  2
YELLOW4
  70
0
  62
2
  6
CONTINUOUS
  0
ENDTAB
  0
ENDSEC
  0
SECTION
  2
ENTITIES
0
LINE
8
BLACK
6
CONTINUOUS
10
77.8209
20
-75.6345
11
78.4579
21
-75.8983
0
LINE
8
BLACK
6
CONTINUOUS
10
78.4579
20
-75.8983
11
79.0311
21
-76.2814
0
LINE
8
BLACK
6
CONTINUOUS
10
79.0311
20
-76.2814
11
79.5186
21
-76.7689
0
LINE
8
BLACK
6
CONTINUOUS
10
79.5186
20
-76.7689
11
79.9017
21
-77.3421
0
LINE
8
BLACK
6
CONTINUOUS
10
79.9017
20
-77.3421
11
80.1655
21
-77.9791
0
LINE
8
BLACK
6
CONTINUOUS
10
80.1655
20
-77.9791
11
80.3
21
-78.6553
0
LINE
8
BLACK
6
CONTINUOUS
10
80.3
20
-78.6553
11
80.3
21
-79.3447
0
LINE
8
BLACK
6
CONTINUOUS
10
80.3
20
-79.3447
11
80.1655
21
-80.0209
0
LINE
8
BLACK
6
CONTINUOUS
10
80.1655
20
-80.0209
11
79.9017
21
-80.6579
0
LINE
8
BLACK
6
CONTINUOUS
10
79.9017
20
-80.6579
11
79.5186
21
-81.2311
0
LINE
8
BLACK
6
CONTINUOUS
10
79.5186
20
-81.2311
11
79.0311
21
-81.7186
0
LINE
8
BLACK
6
CONTINUOUS
10
79.0311
20
-81.7186
11
78.4579
21
-82.1017
0
LINE
8
BLACK
6
CONTINUOUS
10
78.4579
20
-82.1017
11
77.8209
21
-82.3655
0
LINE
8
BLACK
6
CONTINUOUS
10
77.8209
20
-82.3655
11
77.1447
21
-82.5
0
LINE
8
BLACK
6
CONTINUOUS
10
77.1447
20
-82.5
11
76.4553
21
-82.5
0
LINE
8
BLACK
6
CONTINUOUS
10
76.4553
20
-82.5
11
75.7791
21
-82.3655
0
LINE
8
BLACK
6
CONTINUOUS
10
75.7791
20
-82.3655
11
75.1421
21
-82.1017
0
LINE
8
BLACK
6
CONTINUOUS
10
75.1421
20
-82.1017
11
74.5689
21
-81.7186
0
LINE
8
BLACK
6
CONTINUOUS
10
74.5689
20
-81.7186
11
74.0814
21
-81.2311
0
LINE
8
BLACK
6
CONTINUOUS
10
74.0814
20
-81.2311
11
73.6983
21
-80.6579
0
LINE
8
BLACK
6
CONTINUOUS
10
73.6983
20
-80.6579
11
73.4345
21
-80.0209
0
LINE
8
BLACK
6
CONTINUOUS
10
73.4345
20
-80.0209
11
73.3
21
-79.3447
0
LINE
8
BLACK
6
CONTINUOUS
10
73.3
20
-79.3447
11
73.3
21
-78.6553
0
LINE
8
BLACK
6
CONTINUOUS
10
73.3
20
-78.6553
11
73.4345
21
-77.9791
0
LINE
8
BLACK
6
CONTINUOUS
10
73.4345
20
-77.9791
11
73.6983
21
-77.3421
0
LINE
8
BLACK
6
CONTINUOUS
10
73.6983
20
-77.3421
11
74.0814
21
-76.7689
0
LINE
8
BLACK
6
CONTINUOUS
10
74.0814
20
-76.7689
11
74.5689
21
-76.2814
0
LINE
8
BLACK
6
CONTINUOUS
10
74.5689
20
-76.2814
11
75.1421
21
-75.8983
0
LINE
8
BLACK
6
CONTINUOUS
10
75.1421
20
-75.8983
11
75.7791
21
-75.6345
0
LINE
8
BLACK
6
CONTINUOUS
10
75.7791
20
-75.6345
11
76.4553
21
-75.5
0
LINE
8
BLACK
6
CONTINUOUS
10
76.4553
20
-75.5
11
77.1447
21
-75.5
0
LINE
8
BLACK
6
CONTINUOUS
10
77.1447
20
-75.5
11
77.8209
21
-75.6345
0
LINE
8
BLACK
6
CONTINUOUS
10
144.321
20
-75.6345
11
144.958
21
-75.8983
0
LINE
8
BLACK
6
CONTINUOUS
10
144.958
20
-75.8983
11
145.531
21
-76.2814
0
LINE
8
BLACK
6
CONTINUOUS
10
145.531
20
-76.2814
11
146.019
21
-76.7689
0
LINE
8
BLACK
6
CONTINUOUS
10
146.019
20
-76.7689
11
146.402
21
-77.3421
0
LINE
8
BLACK
6
CONTINUOUS
10
146.402
20
-77.3421
11
146.665
21
-77.9791
0
LINE
8
BLACK
6
CONTINUOUS
10
146.665
20
-77.9791
11
146.8
21
-78.6553
0
LINE
8
BLACK
6
CONTINUOUS
10
146.8
20
-78.6553
11
146.8
21
-79.3447
0
LINE
8
BLACK
6
CONTINUOUS
10
146.8
20
-79.3447
11
146.665
21
-80.0209
0
LINE
8
BLACK
6
CONTINUOUS
10
146.665
20
-80.0209
11
146.402
21
-80.6579
0
LINE
8
BLACK
6
CONTINUOUS
10
146.402
20
-80.6579
11
146.019
21
-81.2311
0
LINE
8
BLACK
6
CONTINUOUS
10
146.019
20
-81.2311
11
145.531
21
-81.7186
0
LINE
8
BLACK
6
CONTINUOUS
10
145.531
20
-81.7186
11
144.958
21
-82.1017
0
LINE
8
BLACK
6
CONTINUOUS
10
144.958
20
-82.1017
11
144.321
21
-82.3655
0
LINE
8
BLACK
6
CONTINUOUS
10
144.321
20
-82.3655
11
143.645
21
-82.5
0
LINE
8
BLACK
6
CONTINUOUS
10
143.645
20
-82.5
11
142.955
21
-82.5
0
LINE
8
BLACK
6
CONTINUOUS
10
142.955
20
-82.5
11
142.279
21
-82.3655
0
LINE
8
BLACK
6
CONTINUOUS
10
142.279
20
-82.3655
11
141.642
21
-82.1017
0
LINE
8
BLACK
6
CONTINUOUS
10
141.642
20
-82.1017
11
141.069
21
-81.7186
0
LINE
8
BLACK
6
CONTINUOUS
10
141.069
20
-81.7186
11
140.581
21
-81.2311
0
LINE
8
BLACK
6
CONTINUOUS
10
140.581
20
-81.2311
11
140.198
21
-80.6579
0
LINE
8
BLACK
6
CONTINUOUS
10
140.198
20
-80.6579
11
139.935
21
-80.0209
0
LINE
8
BLACK
6
CONTINUOUS
10
139.935
20
-80.0209
11
139.8
21
-79.3447
0
LINE
8
BLACK
6
CONTINUOUS
10
139.8
20
-79.3447
11
139.8
21
-78.6553
0
LINE
8
BLACK
6
CONTINUOUS
10
139.8
20
-78.6553
11
139.935
21
-77.9791
0
LINE
8
BLACK
6
CONTINUOUS
10
139.935
20
-77.9791
11
140.198
21
-77.3421
0
LINE
8
BLACK
6
CONTINUOUS
10
140.198
20
-77.3421
11
140.581
21
-76.7689
0
LINE
8
BLACK
6
CONTINUOUS
10
140.581
20
-76.7689
11
141.069
21
-76.2814
0
LINE
8
BLACK
6
CONTINUOUS
10
141.069
20
-76.2814
11
141.642
21
-75.8983
0
LINE
8
BLACK
6
CONTINUOUS
10
141.642
20
-75.8983
11
142.279
21
-75.6345
0
LINE
8
BLACK
6
CONTINUOUS
10
142.279
20
-75.6345
11
142.955
21
-75.5
0
LINE
8
BLACK
6
CONTINUOUS
10
142.955
20
-75.5
11
143.645
21
-75.5
0
LINE
8
BLACK
6
CONTINUOUS
10
143.645
20
-75.5
11
144.321
21
-75.6345
0
LINE
8
BLACK
6
CONTINUOUS
10
146.801
20
-63
11
146.801
21
-63
0
LINE
8
BLACK
6
CONTINUOUS
10
146.801
20
-63
11
146.801
21
-63
0
LINE
8
BLACK
6
CONTINUOUS
10
146.801
20
-63
11
146.801
21
-63
0
LINE
8
BLACK
6
CONTINUOUS
10
146.801
20
-63
11
146.811
21
-63.0011
0
LINE
8
BLACK
6
CONTINUOUS
10
146.811
20
-63.0011
11
146.82
21
-63.002
0
LINE
8
BLACK
6
CONTINUOUS
10
146.82
20
-63.002
11
146.82
21
-63.0021
0
LINE
8
BLACK
6
CONTINUOUS
10
146.82
20
-63.0021
11
146.821
21
-63.0022
0
LINE
8
BLACK
6
CONTINUOUS
10
146.821
20
-63.0022
11
146.83
21
-63.005
0
LINE
8
BLACK
6
CONTINUOUS
10
146.83
20
-63.005
11
146.839
21
-63.0078
0
LINE
8
BLACK
6
CONTINUOUS
10
146.839
20
-63.0078
11
146.839
21
-63.008
0
LINE
8
BLACK
6
CONTINUOUS
10
146.839
20
-63.008
11
146.839
21
-63.0081
0
LINE
8
BLACK
6
CONTINUOUS
10
146.839
20
-63.0081
11
146.848
21
-63.0126
0
LINE
8
BLACK
6
CONTINUOUS
10
146.848
20
-63.0126
11
146.856
21
-63.0171
0
LINE
8
BLACK
6
CONTINUOUS
10
146.856
20
-63.0171
11
146.856
21
-63.0173
0
LINE
8
BLACK
6
CONTINUOUS
10
146.856
20
-63.0173
11
146.856
21
-63.0175
0
LINE
8
BLACK
6
CONTINUOUS
10
146.856
20
-63.0175
11
146.864
21
-63.0235
0
LINE
8
BLACK
6
CONTINUOUS
10
146.864
20
-63.0235
11
146.871
21
-63.0295
0
LINE
8
BLACK
6
CONTINUOUS
10
146.871
20
-63.0295
11
146.871
21
-63.0298
0
LINE
8
BLACK
6
CONTINUOUS
10
146.871
20
-63.0298
11
146.871
21
-63.03
0
LINE
8
BLACK
6
CONTINUOUS
10
146.871
20
-63.03
11
146.877
21
-63.0373
0
LINE
8
BLACK
6
CONTINUOUS
10
146.877
20
-63.0373
11
146.883
21
-63.0447
0
LINE
8
BLACK
6
CONTINUOUS
10
146.883
20
-63.0447
11
146.883
21
-63.045
0
LINE
8
BLACK
6
CONTINUOUS
10
146.883
20
-63.045
11
146.884
21
-63.0452
0
LINE
8
BLACK
6
CONTINUOUS
10
146.884
20
-63.0452
11
146.888
21
-63.0535
0
LINE
8
BLACK
6
CONTINUOUS
10
146.888
20
-63.0535
11
146.892
21
-63.0619
0
LINE
8
BLACK
6
CONTINUOUS
10
146.892
20
-63.0619
11
146.893
21
-63.0622
0
LINE
8
BLACK
6
CONTINUOUS
10
146.893
20
-63.0622
11
146.893
21
-63.0625
0
LINE
8
BLACK
6
CONTINUOUS
10
146.893
20
-63.0625
11
146.895
21
-63.0715
0
LINE
8
BLACK
6
CONTINUOUS
10
146.895
20
-63.0715
11
146.898
21
-63.0806
0
LINE
8
BLACK
6
CONTINUOUS
10
146.898
20
-63.0806
11
146.898
21
-63.0809
0
LINE
8
BLACK
6
CONTINUOUS
10
146.898
20
-63.0809
11
146.898
21
-63.0813
0
LINE
8
BLACK
6
CONTINUOUS
10
146.898
20
-63.0813
11
146.899
21
-63.0907
0
LINE
8
BLACK
6
CONTINUOUS
10
146.899
20
-63.0907
11
146.9
21
-63.1
0
LINE
8
BLACK
6
CONTINUOUS
10
146.9
20
-63.1
11
146.9
21
-74.6
0
LINE
8
BLACK
6
CONTINUOUS
10
146.9
20
-74.6
11
146.9
21
-74.6007
0
LINE
8
BLACK
6
CONTINUOUS
10
146.9
20
-74.6007
11
146.9
21
-74.6007
0
LINE
8
BLACK
6
CONTINUOUS
10
146.9
20
-74.6007
11
146.9
21
-74.6007
0
LINE
8
BLACK
6
CONTINUOUS
10
146.9
20
-74.6007
11
146.9
21
-74.6014
0
LINE
8
BLACK
6
CONTINUOUS
10
146.9
20
-74.6014
11
146.899
21
-74.6107
0
LINE
8
BLACK
6
CONTINUOUS
10
146.899
20
-74.6107
11
146.898
21
-74.6201
0
LINE
8
BLACK
6
CONTINUOUS
10
146.898
20
-74.6201
11
146.898
21
-74.6204
0
LINE
8
BLACK
6
CONTINUOUS
10
146.898
20
-74.6204
11
146.898
21
-74.6208
0
LINE
8
BLACK
6
CONTINUOUS
10
146.898
20
-74.6208
11
146.895
21
-74.6298
0
LINE
8
BLACK
6
CONTINUOUS
10
146.895
20
-74.6298
11
146.892
21
-74.6388
0
LINE
8
BLACK
6
CONTINUOUS
10
146.892
20
-74.6388
11
146.892
21
-74.6391
0
LINE
8
BLACK
6
CONTINUOUS
10
146.892
20
-74.6391
11
146.892
21
-74.6394
0
LINE
8
BLACK
6
CONTINUOUS
10
146.892
20
-74.6394
11
146.887
21
-74.6477
0
LINE
8
BLACK
6
CONTINUOUS
10
146.887
20
-74.6477
11
146.883
21
-74.6559
0
LINE
8
BLACK
6
CONTINUOUS
10
146.883
20
-74.6559
11
146.883
21
-74.6562
0
LINE
8
BLACK
6
CONTINUOUS
10
146.883
20
-74.6562
11
146.883
21
-74.6565
0
LINE
8
BLACK
6
CONTINUOUS
10
146.883
20
-74.6565
11
146.876
21
-74.6637
0
LINE
8
BLACK
6
CONTINUOUS
10
146.876
20
-74.6637
11
146.87
21
-74.671
0
LINE
8
BLACK
6
CONTINUOUS
10
146.87
20
-74.671
11
146.87
21
-74.6712
0
LINE
8
BLACK
6
CONTINUOUS
10
146.87
20
-74.6712
11
146.87
21
-74.6714
0
LINE
8
BLACK
6
CONTINUOUS
10
146.87
20
-74.6714
11
146.863
21
-74.6773
0
LINE
8
BLACK
6
CONTINUOUS
10
146.863
20
-74.6773
11
146.855
21
-74.6833
0
LINE
8
BLACK
6
CONTINUOUS
10
146.855
20
-74.6833
11
146.855
21
-74.6835
0
LINE
8
BLACK
6
CONTINUOUS
10
146.855
20
-74.6835
11
146.855
21
-74.6837
0
LINE
8
BLACK
6
CONTINUOUS
10
146.855
20
-74.6837
11
146.846
21
-74.688
0
LINE
8
BLACK
6
CONTINUOUS
10
146.846
20
-74.688
11
146.838
21
-74.6925
0
LINE
8
BLACK
6
CONTINUOUS
10
146.838
20
-74.6925
11
146.838
21
-74.6926
0
LINE
8
BLACK
6
CONTINUOUS
10
146.838
20
-74.6926
11
146.837
21
-74.6927
0
LINE
8
BLACK
6
CONTINUOUS
10
146.837
20
-74.6927
11
146.828
21
-74.6954
0
LINE
8
BLACK
6
CONTINUOUS
10
146.828
20
-74.6954
11
146.819
21
-74.6981
0
LINE
8
BLACK
6
CONTINUOUS
10
146.819
20
-74.6981
11
146.819
21
-74.6981
0
LINE
8
BLACK
6
CONTINUOUS
10
146.819
20
-74.6981
11
146.819
21
-74.6982
0
LINE
8
BLACK
6
CONTINUOUS
10
146.819
20
-74.6982
11
146.809
21
-74.6991
0
LINE
8
BLACK
6
CONTINUOUS
10
146.809
20
-74.6991
11
146.8
21
-74.7
0
LINE
8
BLACK
6
CONTINUOUS
10
146.8
20
-74.7
11
73.3
21
-74.7
0
LINE
8
BLACK
6
CONTINUOUS
10
73.3
20
-74.7
11
73.2993
21
-74.7
0
LINE
8
BLACK
6
CONTINUOUS
10
73.2993
20
-74.7
11
73.2993
21
-74.7
0
LINE
8
BLACK
6
CONTINUOUS
10
73.2993
20
-74.7
11
73.2993
21
-74.7
0
LINE
8
BLACK
6
CONTINUOUS
10
73.2993
20
-74.7
11
73.2986
21
-74.7
0
LINE
8
BLACK
6
CONTINUOUS
10
73.2986
20
-74.7
11
73.2893
21
-74.6989
0
LINE
8
BLACK
6
CONTINUOUS
10
73.2893
20
-74.6989
11
73.2799
21
-74.698
0
LINE
8
BLACK
6
CONTINUOUS
10
73.2799
20
-74.698
11
73.2796
21
-74.6979
0
LINE
8
BLACK
6
CONTINUOUS
10
73.2796
20
-74.6979
11
73.2792
21
-74.6978
0
LINE
8
BLACK
6
CONTINUOUS
10
73.2792
20
-74.6978
11
73.2702
21
-74.695
0
LINE
8
BLACK
6
CONTINUOUS
10
73.2702
20
-74.695
11
73.2612
21
-74.6922
0
LINE
8
BLACK
6
CONTINUOUS
10
73.2612
20
-74.6922
11
73.2609
21
-74.692
0
LINE
8
BLACK
6
CONTINUOUS
10
73.2609
20
-74.692
11
73.2606
21
-74.6919
0
LINE
8
BLACK
6
CONTINUOUS
10
73.2606
20
-74.6919
11
73.2523
21
-74.6874
0
LINE
8
BLACK
6
CONTINUOUS
10
73.2523
20
-74.6874
11
73.2441
21
-74.6829
0
LINE
8
BLACK
6
CONTINUOUS
10
73.2441
20
-74.6829
11
73.2438
21
-74.6827
0
LINE
8
BLACK
6
CONTINUOUS
10
73.2438
20
-74.6827
11
73.2435
21
-74.6825
0
LINE
8
BLACK
6
CONTINUOUS
10
73.2435
20
-74.6825
11
73.2363
21
-74.6765
0
LINE
8
BLACK
6
CONTINUOUS
10
73.2363
20
-74.6765
11
73.229
21
-74.6705
0
LINE
8
BLACK
6
CONTINUOUS
10
73.229
20
-74.6705
11
73.2288
21
-74.6702
0
LINE
8
BLACK
6
CONTINUOUS
10
73.2288
20
-74.6702
11
73.2286
21
-74.67
0
LINE
8
BLACK
6
CONTINUOUS
10
73.2286
20
-74.67
11
73.2227
21
-74.6627
0
LINE
8
BLACK
6
CONTINUOUS
10
73.2227
20
-74.6627
11
73.2167
21
-74.6553
0
LINE
8
BLACK
6
CONTINUOUS
10
73.2167
20
-74.6553
11
73.2165
21
-74.655
0
LINE
8
BLACK
6
CONTINUOUS
10
73.2165
20
-74.655
11
73.2163
21
-74.6548
0
LINE
8
BLACK
6
CONTINUOUS
10
73.2163
20
-74.6548
11
73.212
21
-74.6465
0
LINE
8
BLACK
6
CONTINUOUS
10
73.212
20
-74.6465
11
73.2075
21
-74.6381
0
LINE
8
BLACK
6
CONTINUOUS
10
73.2075
20
-74.6381
11
73.2074
21
-74.6378
0
LINE
8
BLACK
6
CONTINUOUS
10
73.2074
20
-74.6378
11
73.2073
21
-74.6375
0
LINE
8
BLACK
6
CONTINUOUS
10
73.2073
20
-74.6375
11
73.2046
21
-74.6285
0
LINE
8
BLACK
6
CONTINUOUS
10
73.2046
20
-74.6285
11
73.2019
21
-74.6194
0
LINE
8
BLACK
6
CONTINUOUS
10
73.2019
20
-74.6194
11
73.2019
21
-74.6191
0
LINE
8
BLACK
6
CONTINUOUS
10
73.2019
20
-74.6191
11
73.2018
21
-74.6187
0
LINE
8
BLACK
6
CONTINUOUS
10
73.2018
20
-74.6187
11
73.2009
21
-74.6093
0
LINE
8
BLACK
6
CONTINUOUS
10
73.2009
20
-74.6093
11
73.2
21
-74.6
0
LINE
8
BLACK
6
CONTINUOUS
10
73.2
20
-74.6
11
73.2
21
-63.1
0
LINE
8
BLACK
6
CONTINUOUS
10
73.2
20
-63.1
11
73.2
21
-63.0993
0
LINE
8
BLACK
6
CONTINUOUS
10
73.2
20
-63.0993
11
73.2
21
-63.0993
0
LINE
8
BLACK
6
CONTINUOUS
10
73.2
20
-63.0993
11
73.2
21
-63.0993
0
LINE
8
BLACK
6
CONTINUOUS
10
73.2
20
-63.0993
11
73.2
21
-63.0986
0
LINE
8
BLACK
6
CONTINUOUS
10
73.2
20
-63.0986
11
73.2011
21
-63.0893
0
LINE
8
BLACK
6
CONTINUOUS
10
73.2011
20
-63.0893
11
73.202
21
-63.0799
0
LINE
8
BLACK
6
CONTINUOUS
10
73.202
20
-63.0799
11
73.2021
21
-63.0796
0
LINE
8
BLACK
6
CONTINUOUS
10
73.2021
20
-63.0796
11
73.2022
21
-63.0792
0
LINE
8
BLACK
6
CONTINUOUS
10
73.2022
20
-63.0792
11
73.205
21
-63.0702
0
LINE
8
BLACK
6
CONTINUOUS
10
73.205
20
-63.0702
11
73.2078
21
-63.0612
0
LINE
8
BLACK
6
CONTINUOUS
10
73.2078
20
-63.0612
11
73.208
21
-63.0609
0
LINE
8
BLACK
6
CONTINUOUS
10
73.208
20
-63.0609
11
73.2081
21
-63.0606
0
LINE
8
BLACK
6
CONTINUOUS
10
73.2081
20
-63.0606
11
73.2126
21
-63.0523
0
LINE
8
BLACK
6
CONTINUOUS
10
73.2126
20
-63.0523
11
73.2171
21
-63.0441
0
LINE
8
BLACK
6
CONTINUOUS
10
73.2171
20
-63.0441
11
73.2173
21
-63.0438
0
LINE
8
BLACK
6
CONTINUOUS
10
73.2173
20
-63.0438
11
73.2175
21
-63.0435
0
LINE
8
BLACK
6
CONTINUOUS
10
73.2175
20
-63.0435
11
73.2235
21
-63.0363
0
LINE
8
BLACK
6
CONTINUOUS
10
73.2235
20
-63.0363
11
73.2295
21
-63.029
0
LINE
8
BLACK
6
CONTINUOUS
10
73.2295
20
-63.029
11
73.2298
21
-63.0288
0
LINE
8
BLACK
6
CONTINUOUS
10
73.2298
20
-63.0288
11
73.23
21
-63.0286
0
LINE
8
BLACK
6
CONTINUOUS
10
73.23
20
-63.0286
11
73.2373
21
-63.0227
0
LINE
8
BLACK
6
CONTINUOUS
10
73.2373
20
-63.0227
11
73.2447
21
-63.0167
0
LINE
8
BLACK
6
CONTINUOUS
10
73.2447
20
-63.0167
11
73.245
21
-63.0165
0
LINE
8
BLACK
6
CONTINUOUS
10
73.245
20
-63.0165
11
73.2452
21
-63.0163
0
LINE
8
BLACK
6
CONTINUOUS
10
73.2452
20
-63.0163
11
73.2535
21
-63.012
0
LINE
8
BLACK
6
CONTINUOUS
10
73.2535
20
-63.012
11
73.2619
21
-63.0075
0
LINE
8
BLACK
6
CONTINUOUS
10
73.2619
20
-63.0075
11
73.2622
21
-63.0074
0
LINE
8
BLACK
6
CONTINUOUS
10
73.2622
20
-63.0074
11
73.2625
21
-63.0073
0
LINE
8
BLACK
6
CONTINUOUS
10
73.2625
20
-63.0073
11
73.2715
21
-63.0046
0
LINE
8
BLACK
6
CONTINUOUS
10
73.2715
20
-63.0046
11
73.2806
21
-63.0019
0
LINE
8
BLACK
6
CONTINUOUS
10
73.2806
20
-63.0019
11
73.2809
21
-63.0019
0
LINE
8
BLACK
6
CONTINUOUS
10
73.2809
20
-63.0019
11
73.2813
21
-63.0018
0
LINE
8
BLACK
6
CONTINUOUS
10
73.2813
20
-63.0018
11
73.2907
21
-63.0009
0
LINE
8
BLACK
6
CONTINUOUS
10
73.2907
20
-63.0009
11
73.3
21
-63
0
LINE
8
BLACK
6
CONTINUOUS
10
73.3
20
-63
11
146.8
21
-63
0
LINE
8
BLACK
6
CONTINUOUS
10
146.8
20
-63
11
146.801
21
-63
0
LINE
8
BLACK
6
CONTINUOUS
10
133.725
20
-61.155
11
133.725
21
-60.78
0
LINE
8
BLACK
6
CONTINUOUS
10
133.725
20
-60.78
11
135.175
21
-60.78
0
LINE
8
BLACK
6
CONTINUOUS
10
135.175
20
-60.78
11
135.175
21
-61.63
0
LINE
8
BLACK
6
CONTINUOUS
10
135.175
20
-61.63
11
133.725
21
-61.63
0
LINE
8
BLACK
6
CONTINUOUS
10
133.725
20
-61.63
11
133.725
21
-61.255
0
LINE
8
BLACK
6
CONTINUOUS
10
133.725
20
-61.255
11
133.455
21
-61.255
0
LINE
8
BLACK
6
CONTINUOUS
10
133.455
20
-61.255
11
133.455
21
-62.0976
0
LINE
8
BLACK
6
CONTINUOUS
10
133.455
20
-62.0976
11
133.455
21
-62.1
0
LINE
8
BLACK
6
CONTINUOUS
10
133.455
20
-62.1
11
133.455
21
-62.1024
0
LINE
8
BLACK
6
CONTINUOUS
10
133.455
20
-62.1024
11
133.454
21
-62.1098
0
LINE
8
BLACK
6
CONTINUOUS
10
133.454
20
-62.1098
11
133.451
21
-62.1192
0
LINE
8
BLACK
6
CONTINUOUS
10
133.451
20
-62.1192
11
133.447
21
-62.1279
0
LINE
8
BLACK
6
CONTINUOUS
10
133.447
20
-62.1279
11
133.441
21
-62.1355
0
LINE
8
BLACK
6
CONTINUOUS
10
133.441
20
-62.1355
11
133.433
21
-62.1418
0
LINE
8
BLACK
6
CONTINUOUS
10
133.433
20
-62.1418
11
133.424
21
-62.1463
0
LINE
8
BLACK
6
CONTINUOUS
10
133.424
20
-62.1463
11
133.137
21
-62.4336
0
LINE
8
BLACK
6
CONTINUOUS
10
133.137
20
-62.4336
11
133.136
21
-62.4355
0
LINE
8
BLACK
6
CONTINUOUS
10
133.136
20
-62.4355
11
133.128
21
-62.4418
0
LINE
8
BLACK
6
CONTINUOUS
10
133.128
20
-62.4418
11
133.119
21
-62.4464
0
LINE
8
BLACK
6
CONTINUOUS
10
133.119
20
-62.4464
11
133.11
21
-62.4493
0
LINE
8
BLACK
6
CONTINUOUS
10
133.11
20
-62.4493
11
133.102
21
-62.45
0
LINE
8
BLACK
6
CONTINUOUS
10
133.102
20
-62.45
11
133.102
21
-62.45
0
LINE
8
BLACK
6
CONTINUOUS
10
133.102
20
-62.45
11
133.1
21
-62.4502
0
LINE
8
BLACK
6
CONTINUOUS
10
133.1
20
-62.4502
11
133.098
21
-62.45
0
LINE
8
BLACK
6
CONTINUOUS
10
133.098
20
-62.45
11
117.802
21
-62.45
0
LINE
8
BLACK
6
CONTINUOUS
10
117.802
20
-62.45
11
117.8
21
-62.4502
0
LINE
8
BLACK
6
CONTINUOUS
10
117.8
20
-62.4502
11
117.798
21
-62.45
0
LINE
8
BLACK
6
CONTINUOUS
10
117.798
20
-62.45
11
117.798
21
-62.45
0
LINE
8
BLACK
6
CONTINUOUS
10
117.798
20
-62.45
11
117.79
21
-62.4493
0
LINE
8
BLACK
6
CONTINUOUS
10
117.79
20
-62.4493
11
117.781
21
-62.4464
0
LINE
8
BLACK
6
CONTINUOUS
10
117.781
20
-62.4464
11
117.777
21
-62.4443
0
LINE
8
BLACK
6
CONTINUOUS
10
117.777
20
-62.4443
11
117.772
21
-62.4418
0
LINE
8
BLACK
6
CONTINUOUS
10
117.772
20
-62.4418
11
117.766
21
-62.4371
0
LINE
8
BLACK
6
CONTINUOUS
10
117.766
20
-62.4371
11
117.764
21
-62.4355
0
LINE
8
BLACK
6
CONTINUOUS
10
117.764
20
-62.4355
11
117.763
21
-62.4336
0
LINE
8
BLACK
6
CONTINUOUS
10
117.763
20
-62.4336
11
116.746
21
-61.4167
0
LINE
8
BLACK
6
CONTINUOUS
10
116.746
20
-61.4167
11
116.689
21
-61.4545
0
LINE
8
BLACK
6
CONTINUOUS
10
116.689
20
-61.4545
11
116.617
21
-61.4846
0
LINE
8
BLACK
6
CONTINUOUS
10
116.617
20
-61.4846
11
116.539
21
-61.5
0
LINE
8
BLACK
6
CONTINUOUS
10
116.539
20
-61.5
11
116.461
21
-61.5
0
LINE
8
BLACK
6
CONTINUOUS
10
116.461
20
-61.5
11
116.383
21
-61.4846
0
LINE
8
BLACK
6
CONTINUOUS
10
116.383
20
-61.4846
11
116.311
21
-61.4545
0
LINE
8
BLACK
6
CONTINUOUS
10
116.311
20
-61.4545
11
116.245
21
-61.4107
0
LINE
8
BLACK
6
CONTINUOUS
10
116.245
20
-61.4107
11
116.189
21
-61.355
0
LINE
8
BLACK
6
CONTINUOUS
10
116.189
20
-61.355
11
116.146
21
-61.2895
0
LINE
8
BLACK
6
CONTINUOUS
10
116.146
20
-61.2895
11
116.115
21
-61.2167
0
LINE
8
BLACK
6
CONTINUOUS
10
116.115
20
-61.2167
11
116.1
21
-61.1394
0
LINE
8
BLACK
6
CONTINUOUS
10
116.1
20
-61.1394
11
116.1
21
-61.0606
0
LINE
8
BLACK
6
CONTINUOUS
10
116.1
20
-61.0606
11
116.115
21
-60.9833
0
LINE
8
BLACK
6
CONTINUOUS
10
116.115
20
-60.9833
11
116.146
21
-60.9105
0
LINE
8
BLACK
6
CONTINUOUS
10
116.146
20
-60.9105
11
116.189
21
-60.845
0
LINE
8
BLACK
6
CONTINUOUS
10
116.189
20
-60.845
11
116.245
21
-60.7893
0
LINE
8
BLACK
6
CONTINUOUS
10
116.245
20
-60.7893
11
116.311
21
-60.7455
0
LINE
8
BLACK
6
CONTINUOUS
10
116.311
20
-60.7455
11
116.383
21
-60.7154
0
LINE
8
BLACK
6
CONTINUOUS
10
116.383
20
-60.7154
11
116.461
21
-60.7
0
LINE
8
BLACK
6
CONTINUOUS
10
116.461
20
-60.7
11
116.539
21
-60.7
0
LINE
8
BLACK
6
CONTINUOUS
10
116.539
20
-60.7
11
116.617
21
-60.7154
0
LINE
8
BLACK
6
CONTINUOUS
10
116.617
20
-60.7154
11
116.689
21
-60.7455
0
LINE
8
BLACK
6
CONTINUOUS
10
116.689
20
-60.7455
11
116.755
21
-60.7893
0
LINE
8
BLACK
6
CONTINUOUS
10
116.755
20
-60.7893
11
116.811
21
-60.845
0
LINE
8
BLACK
6
CONTINUOUS
10
116.811
20
-60.845
11
116.854
21
-60.9105
0
LINE
8
BLACK
6
CONTINUOUS
10
116.854
20
-60.9105
11
116.885
21
-60.9833
0
LINE
8
BLACK
6
CONTINUOUS
10
116.885
20
-60.9833
11
116.9
21
-61.0606
0
LINE
8
BLACK
6
CONTINUOUS
10
116.9
20
-61.0606
11
116.9
21
-61.1394
0
LINE
8
BLACK
6
CONTINUOUS
10
116.9
20
-61.1394
11
116.885
21
-61.2167
0
LINE
8
BLACK
6
CONTINUOUS
10
116.885
20
-61.2167
11
116.854
21
-61.2895
0
LINE
8
BLACK
6
CONTINUOUS
10
116.854
20
-61.2895
11
116.817
21
-61.346
0
LINE
8
BLACK
6
CONTINUOUS
10
116.817
20
-61.346
11
117.821
21
-62.35
0
LINE
8
BLACK
6
CONTINUOUS
10
117.821
20
-62.35
11
133.079
21
-62.35
0
LINE
8
BLACK
6
CONTINUOUS
10
133.079
20
-62.35
11
133.355
21
-62.0743
0
LINE
8
BLACK
6
CONTINUOUS
10
133.355
20
-62.0743
11
133.355
21
-61.1974
0
LINE
8
BLACK
6
CONTINUOUS
10
133.355
20
-61.1974
11
133.355
21
-61.195
0
LINE
8
BLACK
6
CONTINUOUS
10
133.355
20
-61.195
11
133.355
21
-61.1926
0
LINE
8
BLACK
6
CONTINUOUS
10
133.355
20
-61.1926
11
133.355
21
-61.1925
0
LINE
8
BLACK
6
CONTINUOUS
10
133.355
20
-61.1925
11
133.355
21
-61.1026
0
LINE
8
BLACK
6
CONTINUOUS
10
133.355
20
-61.1026
11
133.355
21
-61.1025
0
LINE
8
BLACK
6
CONTINUOUS
10
133.355
20
-61.1025
11
133.355
21
-60.4869
0
LINE
8
BLACK
6
CONTINUOUS
10
133.355
20
-60.4869
11
133.354
21
-60.4842
0
LINE
8
BLACK
6
CONTINUOUS
10
133.354
20
-60.4842
11
133.351
21
-60.4748
0
LINE
8
BLACK
6
CONTINUOUS
10
133.351
20
-60.4748
11
133.35
21
-60.465
0
LINE
8
BLACK
6
CONTINUOUS
10
133.35
20
-60.465
11
133.351
21
-60.4552
0
LINE
8
BLACK
6
CONTINUOUS
10
133.351
20
-60.4552
11
133.354
21
-60.4458
0
LINE
8
BLACK
6
CONTINUOUS
10
133.354
20
-60.4458
11
133.355
21
-60.4431
0
LINE
8
BLACK
6
CONTINUOUS
10
133.355
20
-60.4431
11
133.355
21
-56.0974
0
LINE
8
BLACK
6
CONTINUOUS
10
133.355
20
-56.0974
11
133.355
21
-56.095
0
LINE
8
BLACK
6
CONTINUOUS
10
133.355
20
-56.095
11
133.355
21
-56.0926
0
LINE
8
BLACK
6
CONTINUOUS
10
133.355
20
-56.0926
11
133.355
21
-56.0925
0
LINE
8
BLACK
6
CONTINUOUS
10
133.355
20
-56.0925
11
133.355
21
-50.9974
0
LINE
8
BLACK
6
CONTINUOUS
10
133.355
20
-50.9974
11
133.355
21
-50.995
0
LINE
8
BLACK
6
CONTINUOUS
10
133.355
20
-50.995
11
133.355
21
-50.9926
0
LINE
8
BLACK
6
CONTINUOUS
10
133.355
20
-50.9926
11
133.355
21
-50.9925
0
LINE
8
BLACK
6
CONTINUOUS
10
133.355
20
-50.9925
11
133.355
21
-45.8974
0
LINE
8
BLACK
6
CONTINUOUS
10
133.355
20
-45.8974
11
133.355
21
-45.895
0
LINE
8
BLACK
6
CONTINUOUS
10
133.355
20
-45.895
11
133.355
21
-45.8926
0
LINE
8
BLACK
6
CONTINUOUS
10
133.355
20
-45.8926
11
133.355
21
-45.8925
0
LINE
8
BLACK
6
CONTINUOUS
10
133.355
20
-45.8925
11
133.355
21
-40.8074
0
LINE
8
BLACK
6
CONTINUOUS
10
133.355
20
-40.8074
11
133.355
21
-40.805
0
LINE
8
BLACK
6
CONTINUOUS
10
133.355
20
-40.805
11
133.356
21
-40.7952
0
LINE
8
BLACK
6
CONTINUOUS
10
133.356
20
-40.7952
11
133.359
21
-40.7858
0
LINE
8
BLACK
6
CONTINUOUS
10
133.359
20
-40.7858
11
133.363
21
-40.7771
0
LINE
8
BLACK
6
CONTINUOUS
10
133.363
20
-40.7771
11
133.369
21
-40.7695
0
LINE
8
BLACK
6
CONTINUOUS
10
133.369
20
-40.7695
11
133.377
21
-40.7632
0
LINE
8
BLACK
6
CONTINUOUS
10
133.377
20
-40.7632
11
133.386
21
-40.7586
0
LINE
8
BLACK
6
CONTINUOUS
10
133.386
20
-40.7586
11
133.395
21
-40.7557
0
LINE
8
BLACK
6
CONTINUOUS
10
133.395
20
-40.7557
11
133.403
21
-40.755
0
LINE
8
BLACK
6
CONTINUOUS
10
133.403
20
-40.755
11
133.405
21
-40.7548
0
LINE
8
BLACK
6
CONTINUOUS
10
133.405
20
-40.7548
11
133.407
21
-40.755
0
LINE
8
BLACK
6
CONTINUOUS
10
133.407
20
-40.755
11
133.725
21
-40.755
0
LINE
8
BLACK
6
CONTINUOUS
10
133.725
20
-40.755
11
133.725
21
-40.38
0
LINE
8
BLACK
6
CONTINUOUS
10
133.725
20
-40.38
11
135.175
21
-40.38
0
LINE
8
BLACK
6
CONTINUOUS
10
135.175
20
-40.38
11
135.175
21
-41.23
0
LINE
8
BLACK
6
CONTINUOUS
10
135.175
20
-41.23
11
133.725
21
-41.23
0
LINE
8
BLACK
6
CONTINUOUS
10
133.725
20
-41.23
11
133.725
21
-40.855
0
LINE
8
BLACK
6
CONTINUOUS
10
133.725
20
-40.855
11
133.455
21
-40.855
0
LINE
8
BLACK
6
CONTINUOUS
10
133.455
20
-40.855
11
133.455
21
-45.855
0
LINE
8
BLACK
6
CONTINUOUS
10
133.455
20
-45.855
11
133.725
21
-45.855
0
LINE
8
BLACK
6
CONTINUOUS
10
133.725
20
-45.855
11
133.725
21
-45.48
0
LINE
8
BLACK
6
CONTINUOUS
10
133.725
20
-45.48
11
135.175
21
-45.48
0
LINE
8
BLACK
6
CONTINUOUS
10
135.175
20
-45.48
11
135.175
21
-46.33
0
LINE
8
BLACK
6
CONTINUOUS
10
135.175
20
-46.33
11
133.725
21
-46.33
0
LINE
8
BLACK
6
CONTINUOUS
10
133.725
20
-46.33
11
133.725
21
-45.955
0
LINE
8
BLACK
6
CONTINUOUS
10
133.725
20
-45.955
11
133.455
21
-45.955
0
LINE
8
BLACK
6
CONTINUOUS
10
133.455
20
-45.955
11
133.455
21
-50.955
0
LINE
8
BLACK
6
CONTINUOUS
10
133.455
20
-50.955
11
133.725
21
-50.955
0
LINE
8
BLACK
6
CONTINUOUS
10
133.725
20
-50.955
11
133.725
21
-50.58
0
LINE
8
BLACK
6
CONTINUOUS
10
133.725
20
-50.58
11
135.175
21
-50.58
0
LINE
8
BLACK
6
CONTINUOUS
10
135.175
20
-50.58
11
135.175
21
-51.43
0
LINE
8
BLACK
6
CONTINUOUS
10
135.175
20
-51.43
11
133.725
21
-51.43
0
LINE
8
BLACK
6
CONTINUOUS
10
133.725
20
-51.43
11
133.725
21
-51.055
0
LINE
8
BLACK
6
CONTINUOUS
10
133.725
20
-51.055
11
133.455
21
-51.055
0
LINE
8
BLACK
6
CONTINUOUS
10
133.455
20
-51.055
11
133.455
21
-56.055
0
LINE
8
BLACK
6
CONTINUOUS
10
133.455
20
-56.055
11
133.725
21
-56.055
0
LINE
8
BLACK
6
CONTINUOUS
10
133.725
20
-56.055
11
133.725
21
-55.68
0
LINE
8
BLACK
6
CONTINUOUS
10
133.725
20
-55.68
11
135.175
21
-55.68
0
LINE
8
BLACK
6
CONTINUOUS
10
135.175
20
-55.68
11
135.175
21
-56.53
0
LINE
8
BLACK
6
CONTINUOUS
10
135.175
20
-56.53
11
133.725
21
-56.53
0
LINE
8
BLACK
6
CONTINUOUS
10
133.725
20
-56.53
11
133.725
21
-56.155
0
LINE
8
BLACK
6
CONTINUOUS
10
133.725
20
-56.155
11
133.455
21
-56.155
0
LINE
8
BLACK
6
CONTINUOUS
10
133.455
20
-56.155
11
133.455
21
-60.4576
0
LINE
8
BLACK
6
CONTINUOUS
10
133.455
20
-60.4576
11
133.455
21
-60.46
0
LINE
8
BLACK
6
CONTINUOUS
10
133.455
20
-60.46
11
133.455
21
-60.4624
0
LINE
8
BLACK
6
CONTINUOUS
10
133.455
20
-60.4624
11
133.455
21
-61.155
0
LINE
8
BLACK
6
CONTINUOUS
10
133.455
20
-61.155
11
133.725
21
-61.155
0
LINE
8
BLACK
6
CONTINUOUS
10
146.801
20
-36.4
11
146.801
21
-36.4
0
LINE
8
BLACK
6
CONTINUOUS
10
146.801
20
-36.4
11
146.801
21
-36.4
0
LINE
8
BLACK
6
CONTINUOUS
10
146.801
20
-36.4
11
146.801
21
-36.4
0
LINE
8
BLACK
6
CONTINUOUS
10
146.801
20
-36.4
11
146.811
21
-36.4011
0
LINE
8
BLACK
6
CONTINUOUS
10
146.811
20
-36.4011
11
146.82
21
-36.402
0
LINE
8
BLACK
6
CONTINUOUS
10
146.82
20
-36.402
11
146.82
21
-36.4021
0
LINE
8
BLACK
6
CONTINUOUS
10
146.82
20
-36.4021
11
146.821
21
-36.4022
0
LINE
8
BLACK
6
CONTINUOUS
10
146.821
20
-36.4022
11
146.83
21
-36.405
0
LINE
8
BLACK
6
CONTINUOUS
10
146.83
20
-36.405
11
146.839
21
-36.4078
0
LINE
8
BLACK
6
CONTINUOUS
10
146.839
20
-36.4078
11
146.839
21
-36.408
0
LINE
8
BLACK
6
CONTINUOUS
10
146.839
20
-36.408
11
146.839
21
-36.4081
0
LINE
8
BLACK
6
CONTINUOUS
10
146.839
20
-36.4081
11
146.848
21
-36.4126
0
LINE
8
BLACK
6
CONTINUOUS
10
146.848
20
-36.4126
11
146.856
21
-36.4171
0
LINE
8
BLACK
6
CONTINUOUS
10
146.856
20
-36.4171
11
146.856
21
-36.4173
0
LINE
8
BLACK
6
CONTINUOUS
10
146.856
20
-36.4173
11
146.856
21
-36.4175
0
LINE
8
BLACK
6
CONTINUOUS
10
146.856
20
-36.4175
11
146.864
21
-36.4235
0
LINE
8
BLACK
6
CONTINUOUS
10
146.864
20
-36.4235
11
146.871
21
-36.4295
0
LINE
8
BLACK
6
CONTINUOUS
10
146.871
20
-36.4295
11
146.871
21
-36.4298
0
LINE
8
BLACK
6
CONTINUOUS
10
146.871
20
-36.4298
11
146.871
21
-36.43
0
LINE
8
BLACK
6
CONTINUOUS
10
146.871
20
-36.43
11
146.877
21
-36.4373
0
LINE
8
BLACK
6
CONTINUOUS
10
146.877
20
-36.4373
11
146.883
21
-36.4447
0
LINE
8
BLACK
6
CONTINUOUS
10
146.883
20
-36.4447
11
146.883
21
-36.445
0
LINE
8
BLACK
6
CONTINUOUS
10
146.883
20
-36.445
11
146.884
21
-36.4452
0
LINE
8
BLACK
6
CONTINUOUS
10
146.884
20
-36.4452
11
146.888
21
-36.4535
0
LINE
8
BLACK
6
CONTINUOUS
10
146.888
20
-36.4535
11
146.892
21
-36.4619
0
LINE
8
BLACK
6
CONTINUOUS
10
146.892
20
-36.4619
11
146.893
21
-36.4622
0
LINE
8
BLACK
6
CONTINUOUS
10
146.893
20
-36.4622
11
146.893
21
-36.4625
0
LINE
8
BLACK
6
CONTINUOUS
10
146.893
20
-36.4625
11
146.895
21
-36.4715
0
LINE
8
BLACK
6
CONTINUOUS
10
146.895
20
-36.4715
11
146.898
21
-36.4806
0
LINE
8
BLACK
6
CONTINUOUS
10
146.898
20
-36.4806
11
146.898
21
-36.4809
0
LINE
8
BLACK
6
CONTINUOUS
10
146.898
20
-36.4809
11
146.898
21
-36.4813
0
LINE
8
BLACK
6
CONTINUOUS
10
146.898
20
-36.4813
11
146.899
21
-36.4907
0
LINE
8
BLACK
6
CONTINUOUS
10
146.899
20
-36.4907
11
146.9
21
-36.5
0
LINE
8
BLACK
6
CONTINUOUS
10
146.9
20
-36.5
11
146.9
21
-61.7
0
LINE
8
BLACK
6
CONTINUOUS
10
146.9
20
-61.7
11
146.9
21
-61.7007
0
LINE
8
BLACK
6
CONTINUOUS
10
146.9
20
-61.7007
11
146.9
21
-61.7007
0
LINE
8
BLACK
6
CONTINUOUS
10
146.9
20
-61.7007
11
146.9
21
-61.7007
0
LINE
8
BLACK
6
CONTINUOUS
10
146.9
20
-61.7007
11
146.9
21
-61.7014
0
LINE
8
BLACK
6
CONTINUOUS
10
146.9
20
-61.7014
11
146.899
21
-61.7107
0
LINE
8
BLACK
6
CONTINUOUS
10
146.899
20
-61.7107
11
146.898
21
-61.7201
0
LINE
8
BLACK
6
CONTINUOUS
10
146.898
20
-61.7201
11
146.898
21
-61.7204
0
LINE
8
BLACK
6
CONTINUOUS
10
146.898
20
-61.7204
11
146.898
21
-61.7208
0
LINE
8
BLACK
6
CONTINUOUS
10
146.898
20
-61.7208
11
146.895
21
-61.7298
0
LINE
8
BLACK
6
CONTINUOUS
10
146.895
20
-61.7298
11
146.892
21
-61.7388
0
LINE
8
BLACK
6
CONTINUOUS
10
146.892
20
-61.7388
11
146.892
21
-61.7391
0
LINE
8
BLACK
6
CONTINUOUS
10
146.892
20
-61.7391
11
146.892
21
-61.7394
0
LINE
8
BLACK
6
CONTINUOUS
10
146.892
20
-61.7394
11
146.887
21
-61.7477
0
LINE
8
BLACK
6
CONTINUOUS
10
146.887
20
-61.7477
11
146.883
21
-61.7559
0
LINE
8
BLACK
6
CONTINUOUS
10
146.883
20
-61.7559
11
146.883
21
-61.7562
0
LINE
8
BLACK
6
CONTINUOUS
10
146.883
20
-61.7562
11
146.883
21
-61.7565
0
LINE
8
BLACK
6
CONTINUOUS
10
146.883
20
-61.7565
11
146.876
21
-61.7637
0
LINE
8
BLACK
6
CONTINUOUS
10
146.876
20
-61.7637
11
146.87
21
-61.771
0
LINE
8
BLACK
6
CONTINUOUS
10
146.87
20
-61.771
11
146.87
21
-61.7712
0
LINE
8
BLACK
6
CONTINUOUS
10
146.87
20
-61.7712
11
146.87
21
-61.7714
0
LINE
8
BLACK
6
CONTINUOUS
10
146.87
20
-61.7714
11
146.863
21
-61.7773
0
LINE
8
BLACK
6
CONTINUOUS
10
146.863
20
-61.7773
11
146.855
21
-61.7833
0
LINE
8
BLACK
6
CONTINUOUS
10
146.855
20
-61.7833
11
146.855
21
-61.7835
0
LINE
8
BLACK
6
CONTINUOUS
10
146.855
20
-61.7835
11
146.855
21
-61.7837
0
LINE
8
BLACK
6
CONTINUOUS
10
146.855
20
-61.7837
11
146.846
21
-61.788
0
LINE
8
BLACK
6
CONTINUOUS
10
146.846
20
-61.788
11
146.838
21
-61.7925
0
LINE
8
BLACK
6
CONTINUOUS
10
146.838
20
-61.7925
11
146.838
21
-61.7926
0
LINE
8
BLACK
6
CONTINUOUS
10
146.838
20
-61.7926
11
146.837
21
-61.7927
0
LINE
8
BLACK
6
CONTINUOUS
10
146.837
20
-61.7927
11
146.828
21
-61.7954
0
LINE
8
BLACK
6
CONTINUOUS
10
146.828
20
-61.7954
11
146.819
21
-61.7981
0
LINE
8
BLACK
6
CONTINUOUS
10
146.819
20
-61.7981
11
146.819
21
-61.7981
0
LINE
8
BLACK
6
CONTINUOUS
10
146.819
20
-61.7981
11
146.819
21
-61.7982
0
LINE
8
BLACK
6
CONTINUOUS
10
146.819
20
-61.7982
11
146.809
21
-61.7991
0
LINE
8
BLACK
6
CONTINUOUS
10
146.809
20
-61.7991
11
146.8
21
-61.8
0
LINE
8
BLACK
6
CONTINUOUS
10
146.8
20
-61.8
11
135.5
21
-61.8
0
LINE
8
BLACK
6
CONTINUOUS
10
135.5
20
-61.8
11
135.5
21
-61.8
0
LINE
8
BLACK
6
CONTINUOUS
10
135.5
20
-61.8
11
135.5
21
-61.8
0
LINE
8
BLACK
6
CONTINUOUS
10
135.5
20
-61.8
11
135.5
21
-61.8
0
LINE
8
BLACK
6
CONTINUOUS
10
135.5
20
-61.8
11
135.499
21
-61.8
0
LINE
8
BLACK
6
CONTINUOUS
10
135.499
20
-61.8
11
135.49
21
-61.7989
0
LINE
8
BLACK
6
CONTINUOUS
10
135.49
20
-61.7989
11
135.48
21
-61.798
0
LINE
8
BLACK
6
CONTINUOUS
10
135.48
20
-61.798
11
135.48
21
-61.7979
0
LINE
8
BLACK
6
CONTINUOUS
10
135.48
20
-61.7979
11
135.479
21
-61.7978
0
LINE
8
BLACK
6
CONTINUOUS
10
135.479
20
-61.7978
11
135.471
21
-61.795
0
LINE
8
BLACK
6
CONTINUOUS
10
135.471
20
-61.795
11
135.462
21
-61.7922
0
LINE
8
BLACK
6
CONTINUOUS
10
135.462
20
-61.7922
11
135.461
21
-61.792
0
LINE
8
BLACK
6
CONTINUOUS
10
135.461
20
-61.792
11
135.461
21
-61.7919
0
LINE
8
BLACK
6
CONTINUOUS
10
135.461
20
-61.7919
11
135.453
21
-61.7874
0
LINE
8
BLACK
6
CONTINUOUS
10
135.453
20
-61.7874
11
135.444
21
-61.7829
0
LINE
8
BLACK
6
CONTINUOUS
10
135.444
20
-61.7829
11
135.444
21
-61.7827
0
LINE
8
BLACK
6
CONTINUOUS
10
135.444
20
-61.7827
11
135.444
21
-61.7825
0
LINE
8
BLACK
6
CONTINUOUS
10
135.444
20
-61.7825
11
135.437
21
-61.7765
0
LINE
8
BLACK
6
CONTINUOUS
10
135.437
20
-61.7765
11
135.429
21
-61.7705
0
LINE
8
BLACK
6
CONTINUOUS
10
135.429
20
-61.7705
11
135.429
21
-61.7702
0
LINE
8
BLACK
6
CONTINUOUS
10
135.429
20
-61.7702
11
135.429
21
-61.77
0
LINE
8
BLACK
6
CONTINUOUS
10
135.429
20
-61.77
11
135.423
21
-61.7627
0
LINE
8
BLACK
6
CONTINUOUS
10
135.423
20
-61.7627
11
135.417
21
-61.7553
0
LINE
8
BLACK
6
CONTINUOUS
10
135.417
20
-61.7553
11
135.417
21
-61.755
0
LINE
8
BLACK
6
CONTINUOUS
10
135.417
20
-61.755
11
135.417
21
-61.7548
0
LINE
8
BLACK
6
CONTINUOUS
10
135.417
20
-61.7548
11
135.412
21
-61.7465
0
LINE
8
BLACK
6
CONTINUOUS
10
135.412
20
-61.7465
11
135.408
21
-61.7381
0
LINE
8
BLACK
6
CONTINUOUS
10
135.408
20
-61.7381
11
135.408
21
-61.7378
0
LINE
8
BLACK
6
CONTINUOUS
10
135.408
20
-61.7378
11
135.408
21
-61.7375
0
LINE
8
BLACK
6
CONTINUOUS
10
135.408
20
-61.7375
11
135.405
21
-61.7285
0
LINE
8
BLACK
6
CONTINUOUS
10
135.405
20
-61.7285
11
135.402
21
-61.7194
0
LINE
8
BLACK
6
CONTINUOUS
10
135.402
20
-61.7194
11
135.402
21
-61.7191
0
LINE
8
BLACK
6
CONTINUOUS
10
135.402
20
-61.7191
11
135.402
21
-61.7187
0
LINE
8
BLACK
6
CONTINUOUS
10
135.402
20
-61.7187
11
135.401
21
-61.7093
0
LINE
8
BLACK
6
CONTINUOUS
10
135.401
20
-61.7093
11
135.4
21
-61.7
0
LINE
8
BLACK
6
CONTINUOUS
10
135.4
20
-61.7
11
135.4
21
-60.5049
0
LINE
8
BLACK
6
CONTINUOUS
10
135.4
20
-60.5049
11
135.4
21
-60.5004
0
LINE
8
BLACK
6
CONTINUOUS
10
135.4
20
-60.5004
11
135.395
21
-60.5
0
LINE
8
BLACK
6
CONTINUOUS
10
135.395
20
-60.5
11
133.8
21
-60.5
0
LINE
8
BLACK
6
CONTINUOUS
10
133.8
20
-60.5
11
133.8
21
-60.5
0
LINE
8
BLACK
6
CONTINUOUS
10
133.8
20
-60.5
11
133.8
21
-60.5
0
LINE
8
BLACK
6
CONTINUOUS
10
133.8
20
-60.5
11
133.8
21
-60.5
0
LINE
8
BLACK
6
CONTINUOUS
10
133.8
20
-60.5
11
133.799
21
-60.5
0
LINE
8
BLACK
6
CONTINUOUS
10
133.799
20
-60.5
11
133.79
21
-60.4989
0
LINE
8
BLACK
6
CONTINUOUS
10
133.79
20
-60.4989
11
133.78
21
-60.498
0
LINE
8
BLACK
6
CONTINUOUS
10
133.78
20
-60.498
11
133.78
21
-60.4979
0
LINE
8
BLACK
6
CONTINUOUS
10
133.78
20
-60.4979
11
133.779
21
-60.4978
0
LINE
8
BLACK
6
CONTINUOUS
10
133.779
20
-60.4978
11
133.771
21
-60.495
0
LINE
8
BLACK
6
CONTINUOUS
10
133.771
20
-60.495
11
133.762
21
-60.4922
0
LINE
8
BLACK
6
CONTINUOUS
10
133.762
20
-60.4922
11
133.761
21
-60.492
0
LINE
8
BLACK
6
CONTINUOUS
10
133.761
20
-60.492
11
133.761
21
-60.4919
0
LINE
8
BLACK
6
CONTINUOUS
10
133.761
20
-60.4919
11
133.753
21
-60.4874
0
LINE
8
BLACK
6
CONTINUOUS
10
133.753
20
-60.4874
11
133.744
21
-60.4829
0
LINE
8
BLACK
6
CONTINUOUS
10
133.744
20
-60.4829
11
133.744
21
-60.4827
0
LINE
8
BLACK
6
CONTINUOUS
10
133.744
20
-60.4827
11
133.744
21
-60.4825
0
LINE
8
BLACK
6
CONTINUOUS
10
133.744
20
-60.4825
11
133.737
21
-60.4765
0
LINE
8
BLACK
6
CONTINUOUS
10
133.737
20
-60.4765
11
133.729
21
-60.4705
0
LINE
8
BLACK
6
CONTINUOUS
10
133.729
20
-60.4705
11
133.729
21
-60.4702
0
LINE
8
BLACK
6
CONTINUOUS
10
133.729
20
-60.4702
11
133.729
21
-60.47
0
LINE
8
BLACK
6
CONTINUOUS
10
133.729
20
-60.47
11
133.723
21
-60.4626
0
LINE
8
BLACK
6
CONTINUOUS
10
133.723
20
-60.4626
11
133.717
21
-60.4553
0
LINE
8
BLACK
6
CONTINUOUS
10
133.717
20
-60.4553
11
133.717
21
-60.455
0
LINE
8
BLACK
6
CONTINUOUS
10
133.717
20
-60.455
11
133.717
21
-60.4548
0
LINE
8
BLACK
6
CONTINUOUS
10
133.717
20
-60.4548
11
133.712
21
-60.4465
0
LINE
8
BLACK
6
CONTINUOUS
10
133.712
20
-60.4465
11
133.708
21
-60.4381
0
LINE
8
BLACK
6
CONTINUOUS
10
133.708
20
-60.4381
11
133.708
21
-60.4378
0
LINE
8
BLACK
6
CONTINUOUS
10
133.708
20
-60.4378
11
133.708
21
-60.4375
0
LINE
8
BLACK
6
CONTINUOUS
10
133.708
20
-60.4375
11
133.705
21
-60.4285
0
LINE
8
BLACK
6
CONTINUOUS
10
133.705
20
-60.4285
11
133.702
21
-60.4194
0
LINE
8
BLACK
6
CONTINUOUS
10
133.702
20
-60.4194
11
133.702
21
-60.4191
0
LINE
8
BLACK
6
CONTINUOUS
10
133.702
20
-60.4191
11
133.702
21
-60.4187
0
LINE
8
BLACK
6
CONTINUOUS
10
133.702
20
-60.4187
11
133.701
21
-60.4093
0
LINE
8
BLACK
6
CONTINUOUS
10
133.701
20
-60.4093
11
133.7
21
-60.4
0
LINE
8
BLACK
6
CONTINUOUS
10
133.7
20
-60.4
11
133.7
21
-56.9
0
LINE
8
BLACK
6
CONTINUOUS
10
133.7
20
-56.9
11
133.7
21
-56.8993
0
LINE
8
BLACK
6
CONTINUOUS
10
133.7
20
-56.8993
11
133.7
21
-56.8993
0
LINE
8
BLACK
6
CONTINUOUS
10
133.7
20
-56.8993
11
133.7
21
-56.8993
0
LINE
8
BLACK
6
CONTINUOUS
10
133.7
20
-56.8993
11
133.7
21
-56.8986
0
LINE
8
BLACK
6
CONTINUOUS
10
133.7
20
-56.8986
11
133.701
21
-56.8893
0
LINE
8
BLACK
6
CONTINUOUS
10
133.701
20
-56.8893
11
133.702
21
-56.8799
0
LINE
8
BLACK
6
CONTINUOUS
10
133.702
20
-56.8799
11
133.702
21
-56.8796
0
LINE
8
BLACK
6
CONTINUOUS
10
133.702
20
-56.8796
11
133.702
21
-56.8792
0
LINE
8
BLACK
6
CONTINUOUS
10
133.702
20
-56.8792
11
133.705
21
-56.8702
0
LINE
8
BLACK
6
CONTINUOUS
10
133.705
20
-56.8702
11
133.708
21
-56.8612
0
LINE
8
BLACK
6
CONTINUOUS
10
133.708
20
-56.8612
11
133.708
21
-56.8609
0
LINE
8
BLACK
6
CONTINUOUS
10
133.708
20
-56.8609
11
133.708
21
-56.8606
0
LINE
8
BLACK
6
CONTINUOUS
10
133.708
20
-56.8606
11
133.713
21
-56.8523
0
LINE
8
BLACK
6
CONTINUOUS
10
133.713
20
-56.8523
11
133.717
21
-56.8441
0
LINE
8
BLACK
6
CONTINUOUS
10
133.717
20
-56.8441
11
133.718
21
-56.8438
0
LINE
8
BLACK
6
CONTINUOUS
10
133.718
20
-56.8438
11
133.718
21
-56.8435
0
LINE
8
BLACK
6
CONTINUOUS
10
133.718
20
-56.8435
11
133.724
21
-56.8363
0
LINE
8
BLACK
6
CONTINUOUS
10
133.724
20
-56.8363
11
133.73
21
-56.829
0
LINE
8
BLACK
6
CONTINUOUS
10
133.73
20
-56.829
11
133.73
21
-56.8288
0
LINE
8
BLACK
6
CONTINUOUS
10
133.73
20
-56.8288
11
133.73
21
-56.8286
0
LINE
8
BLACK
6
CONTINUOUS
10
133.73
20
-56.8286
11
133.738
21
-56.8227
0
LINE
8
BLACK
6
CONTINUOUS
10
133.738
20
-56.8227
11
133.745
21
-56.8167
0
LINE
8
BLACK
6
CONTINUOUS
10
133.745
20
-56.8167
11
133.745
21
-56.8165
0
LINE
8
BLACK
6
CONTINUOUS
10
133.745
20
-56.8165
11
133.746
21
-56.8163
0
LINE
8
BLACK
6
CONTINUOUS
10
133.746
20
-56.8163
11
133.754
21
-56.812
0
LINE
8
BLACK
6
CONTINUOUS
10
133.754
20
-56.812
11
133.762
21
-56.8075
0
LINE
8
BLACK
6
CONTINUOUS
10
133.762
20
-56.8075
11
133.763
21
-56.8074
0
LINE
8
BLACK
6
CONTINUOUS
10
133.763
20
-56.8074
11
133.763
21
-56.8073
0
LINE
8
BLACK
6
CONTINUOUS
10
133.763
20
-56.8073
11
133.772
21
-56.8046
0
LINE
8
BLACK
6
CONTINUOUS
10
133.772
20
-56.8046
11
133.781
21
-56.8019
0
LINE
8
BLACK
6
CONTINUOUS
10
133.781
20
-56.8019
11
133.781
21
-56.8019
0
LINE
8
BLACK
6
CONTINUOUS
10
133.781
20
-56.8019
11
133.782
21
-56.8018
0
LINE
8
BLACK
6
CONTINUOUS
10
133.782
20
-56.8018
11
133.791
21
-56.8009
0
LINE
8
BLACK
6
CONTINUOUS
10
133.791
20
-56.8009
11
133.8
21
-56.8
0
LINE
8
BLACK
6
CONTINUOUS
10
133.8
20
-56.8
11
135.395
21
-56.8
0
LINE
8
BLACK
6
CONTINUOUS
10
135.395
20
-56.8
11
135.4
21
-56.7996
0
LINE
8
BLACK
6
CONTINUOUS
10
135.4
20
-56.7996
11
135.4
21
-56.7951
0
LINE
8
BLACK
6
CONTINUOUS
10
135.4
20
-56.7951
11
135.4
21
-55.4049
0
LINE
8
BLACK
6
CONTINUOUS
10
135.4
20
-55.4049
11
135.4
21
-55.4004
0
LINE
8
BLACK
6
CONTINUOUS
10
135.4
20
-55.4004
11
135.395
21
-55.4
0
LINE
8
BLACK
6
CONTINUOUS
10
135.395
20
-55.4
11
133.8
21
-55.4
0
LINE
8
BLACK
6
CONTINUOUS
10
133.8
20
-55.4
11
133.8
21
-55.4
0
LINE
8
BLACK
6
CONTINUOUS
10
133.8
20
-55.4
11
133.8
21
-55.4
0
LINE
8
BLACK
6
CONTINUOUS
10
133.8
20
-55.4
11
133.8
21
-55.4
0
LINE
8
BLACK
6
CONTINUOUS
10
133.8
20
-55.4
11
133.799
21
-55.4
0
LINE
8
BLACK
6
CONTINUOUS
10
133.799
20
-55.4
11
133.79
21
-55.3989
0
LINE
8
BLACK
6
CONTINUOUS
10
133.79
20
-55.3989
11
133.78
21
-55.398
0
LINE
8
BLACK
6
CONTINUOUS
10
133.78
20
-55.398
11
133.78
21
-55.3979
0
LINE
8
BLACK
6
CONTINUOUS
10
133.78
20
-55.3979
11
133.779
21
-55.3978
0
LINE
8
BLACK
6
CONTINUOUS
10
133.779
20
-55.3978
11
133.771
21
-55.395
0
LINE
8
BLACK
6
CONTINUOUS
10
133.771
20
-55.395
11
133.762
21
-55.3922
0
LINE
8
BLACK
6
CONTINUOUS
10
133.762
20
-55.3922
11
133.761
21
-55.392
0
LINE
8
BLACK
6
CONTINUOUS
10
133.761
20
-55.392
11
133.761
21
-55.3919
0
LINE
8
BLACK
6
CONTINUOUS
10
133.761
20
-55.3919
11
133.753
21
-55.3874
0
LINE
8
BLACK
6
CONTINUOUS
10
133.753
20
-55.3874
11
133.744
21
-55.3829
0
LINE
8
BLACK
6
CONTINUOUS
10
133.744
20
-55.3829
11
133.744
21
-55.3827
0
LINE
8
BLACK
6
CONTINUOUS
10
133.744
20
-55.3827
11
133.744
21
-55.3825
0
LINE
8
BLACK
6
CONTINUOUS
10
133.744
20
-55.3825
11
133.737
21
-55.3765
0
LINE
8
BLACK
6
CONTINUOUS
10
133.737
20
-55.3765
11
133.729
21
-55.3705
0
LINE
8
BLACK
6
CONTINUOUS
10
133.729
20
-55.3705
11
133.729
21
-55.3702
0
LINE
8
BLACK
6
CONTINUOUS
10
133.729
20
-55.3702
11
133.729
21
-55.37
0
LINE
8
BLACK
6
CONTINUOUS
10
133.729
20
-55.37
11
133.723
21
-55.3626
0
LINE
8
BLACK
6
CONTINUOUS
10
133.723
20
-55.3626
11
133.717
21
-55.3553
0
LINE
8
BLACK
6
CONTINUOUS
10
133.717
20
-55.3553
11
133.717
21
-55.355
0
LINE
8
BLACK
6
CONTINUOUS
10
133.717
20
-55.355
11
133.717
21
-55.3548
0
LINE
8
BLACK
6
CONTINUOUS
10
133.717
20
-55.3548
11
133.712
21
-55.3465
0
LINE
8
BLACK
6
CONTINUOUS
10
133.712
20
-55.3465
11
133.708
21
-55.3381
0
LINE
8
BLACK
6
CONTINUOUS
10
133.708
20
-55.3381
11
133.708
21
-55.3378
0
LINE
8
BLACK
6
CONTINUOUS
10
133.708
20
-55.3378
11
133.708
21
-55.3375
0
LINE
8
BLACK
6
CONTINUOUS
10
133.708
20
-55.3375
11
133.705
21
-55.3285
0
LINE
8
BLACK
6
CONTINUOUS
10
133.705
20
-55.3285
11
133.702
21
-55.3194
0
LINE
8
BLACK
6
CONTINUOUS
10
133.702
20
-55.3194
11
133.702
21
-55.3191
0
LINE
8
BLACK
6
CONTINUOUS
10
133.702
20
-55.3191
11
133.702
21
-55.3187
0
LINE
8
BLACK
6
CONTINUOUS
10
133.702
20
-55.3187
11
133.701
21
-55.3093
0
LINE
8
BLACK
6
CONTINUOUS
10
133.701
20
-55.3093
11
133.7
21
-55.3
0
LINE
8
BLACK
6
CONTINUOUS
10
133.7
20
-55.3
11
133.7
21
-51.8
0
LINE
8
BLACK
6
CONTINUOUS
10
133.7
20
-51.8
11
133.7
21
-51.7993
0
LINE
8
BLACK
6
CONTINUOUS
10
133.7
20
-51.7993
11
133.7
21
-51.7993
0
LINE
8
BLACK
6
CONTINUOUS
10
133.7
20
-51.7993
11
133.7
21
-51.7993
0
LINE
8
BLACK
6
CONTINUOUS
10
133.7
20
-51.7993
11
133.7
21
-51.7986
0
LINE
8
BLACK
6
CONTINUOUS
10
133.7
20
-51.7986
11
133.701
21
-51.7893
0
LINE
8
BLACK
6
CONTINUOUS
10
133.701
20
-51.7893
11
133.702
21
-51.7799
0
LINE
8
BLACK
6
CONTINUOUS
10
133.702
20
-51.7799
11
133.702
21
-51.7796
0
LINE
8
BLACK
6
CONTINUOUS
10
133.702
20
-51.7796
11
133.702
21
-51.7792
0
LINE
8
BLACK
6
CONTINUOUS
10
133.702
20
-51.7792
11
133.705
21
-51.7702
0
LINE
8
BLACK
6
CONTINUOUS
10
133.705
20
-51.7702
11
133.708
21
-51.7612
0
LINE
8
BLACK
6
CONTINUOUS
10
133.708
20
-51.7612
11
133.708
21
-51.7609
0
LINE
8
BLACK
6
CONTINUOUS
10
133.708
20
-51.7609
11
133.708
21
-51.7606
0
LINE
8
BLACK
6
CONTINUOUS
10
133.708
20
-51.7606
11
133.713
21
-51.7523
0
LINE
8
BLACK
6
CONTINUOUS
10
133.713
20
-51.7523
11
133.717
21
-51.7441
0
LINE
8
BLACK
6
CONTINUOUS
10
133.717
20
-51.7441
11
133.718
21
-51.7438
0
LINE
8
BLACK
6
CONTINUOUS
10
133.718
20
-51.7438
11
133.718
21
-51.7435
0
LINE
8
BLACK
6
CONTINUOUS
10
133.718
20
-51.7435
11
133.724
21
-51.7363
0
LINE
8
BLACK
6
CONTINUOUS
10
133.724
20
-51.7363
11
133.73
21
-51.729
0
LINE
8
BLACK
6
CONTINUOUS
10
133.73
20
-51.729
11
133.73
21
-51.7288
0
LINE
8
BLACK
6
CONTINUOUS
10
133.73
20
-51.7288
11
133.73
21
-51.7286
0
LINE
8
BLACK
6
CONTINUOUS
10
133.73
20
-51.7286
11
133.738
21
-51.7227
0
LINE
8
BLACK
6
CONTINUOUS
10
133.738
20
-51.7227
11
133.745
21
-51.7167
0
LINE
8
BLACK
6
CONTINUOUS
10
133.745
20
-51.7167
11
133.745
21
-51.7165
0
LINE
8
BLACK
6
CONTINUOUS
10
133.745
20
-51.7165
11
133.746
21
-51.7163
0
LINE
8
BLACK
6
CONTINUOUS
10
133.746
20
-51.7163
11
133.754
21
-51.712
0
LINE
8
BLACK
6
CONTINUOUS
10
133.754
20
-51.712
11
133.762
21
-51.7075
0
LINE
8
BLACK
6
CONTINUOUS
10
133.762
20
-51.7075
11
133.763
21
-51.7074
0
LINE
8
BLACK
6
CONTINUOUS
10
133.763
20
-51.7074
11
133.763
21
-51.7073
0
LINE
8
BLACK
6
CONTINUOUS
10
133.763
20
-51.7073
11
133.772
21
-51.7046
0
LINE
8
BLACK
6
CONTINUOUS
10
133.772
20
-51.7046
11
133.781
21
-51.7019
0
LINE
8
BLACK
6
CONTINUOUS
10
133.781
20
-51.7019
11
133.781
21
-51.7019
0
LINE
8
BLACK
6
CONTINUOUS
10
133.781
20
-51.7019
11
133.782
21
-51.7018
0
LINE
8
BLACK
6
CONTINUOUS
10
133.782
20
-51.7018
11
133.791
21
-51.7009
0
LINE
8
BLACK
6
CONTINUOUS
10
133.791
20
-51.7009
11
133.8
21
-51.7
0
LINE
8
BLACK
6
CONTINUOUS
10
133.8
20
-51.7
11
135.395
21
-51.7
0
LINE
8
BLACK
6
CONTINUOUS
10
135.395
20
-51.7
11
135.4
21
-51.6996
0
LINE
8
BLACK
6
CONTINUOUS
10
135.4
20
-51.6996
11
135.4
21
-51.6951
0
LINE
8
BLACK
6
CONTINUOUS
10
135.4
20
-51.6951
11
135.4
21
-50.3049
0
LINE
8
BLACK
6
CONTINUOUS
10
135.4
20
-50.3049
11
135.4
21
-50.3004
0
LINE
8
BLACK
6
CONTINUOUS
10
135.4
20
-50.3004
11
135.395
21
-50.3
0
LINE
8
BLACK
6
CONTINUOUS
10
135.395
20
-50.3
11
133.8
21
-50.3
0
LINE
8
BLACK
6
CONTINUOUS
10
133.8
20
-50.3
11
133.8
21
-50.3
0
LINE
8
BLACK
6
CONTINUOUS
10
133.8
20
-50.3
11
133.8
21
-50.3
0
LINE
8
BLACK
6
CONTINUOUS
10
133.8
20
-50.3
11
133.8
21
-50.3
0
LINE
8
BLACK
6
CONTINUOUS
10
133.8
20
-50.3
11
133.799
21
-50.3
0
LINE
8
BLACK
6
CONTINUOUS
10
133.799
20
-50.3
11
133.79
21
-50.2989
0
LINE
8
BLACK
6
CONTINUOUS
10
133.79
20
-50.2989
11
133.78
21
-50.298
0
LINE
8
BLACK
6
CONTINUOUS
10
133.78
20
-50.298
11
133.78
21
-50.2979
0
LINE
8
BLACK
6
CONTINUOUS
10
133.78
20
-50.2979
11
133.779
21
-50.2978
0
LINE
8
BLACK
6
CONTINUOUS
10
133.779
20
-50.2978
11
133.771
21
-50.295
0
LINE
8
BLACK
6
CONTINUOUS
10
133.771
20
-50.295
11
133.762
21
-50.2922
0
LINE
8
BLACK
6
CONTINUOUS
10
133.762
20
-50.2922
11
133.761
21
-50.292
0
LINE
8
BLACK
6
CONTINUOUS
10
133.761
20
-50.292
11
133.761
21
-50.2919
0
LINE
8
BLACK
6
CONTINUOUS
10
133.761
20
-50.2919
11
133.753
21
-50.2874
0
LINE
8
BLACK
6
CONTINUOUS
10
133.753
20
-50.2874
11
133.744
21
-50.2829
0
LINE
8
BLACK
6
CONTINUOUS
10
133.744
20
-50.2829
11
133.744
21
-50.2827
0
LINE
8
BLACK
6
CONTINUOUS
10
133.744
20
-50.2827
11
133.744
21
-50.2825
0
LINE
8
BLACK
6
CONTINUOUS
10
133.744
20
-50.2825
11
133.737
21
-50.2765
0
LINE
8
BLACK
6
CONTINUOUS
10
133.737
20
-50.2765
11
133.729
21
-50.2705
0
LINE
8
BLACK
6
CONTINUOUS
10
133.729
20
-50.2705
11
133.729
21
-50.2702
0
LINE
8
BLACK
6
CONTINUOUS
10
133.729
20
-50.2702
11
133.729
21
-50.27
0
LINE
8
BLACK
6
CONTINUOUS
10
133.729
20
-50.27
11
133.723
21
-50.2626
0
LINE
8
BLACK
6
CONTINUOUS
10
133.723
20
-50.2626
11
133.717
21
-50.2553
0
LINE
8
BLACK
6
CONTINUOUS
10
133.717
20
-50.2553
11
133.717
21
-50.255
0
LINE
8
BLACK
6
CONTINUOUS
10
133.717
20
-50.255
11
133.717
21
-50.2548
0
LINE
8
BLACK
6
CONTINUOUS
10
133.717
20
-50.2548
11
133.712
21
-50.2465
0
LINE
8
BLACK
6
CONTINUOUS
10
133.712
20
-50.2465
11
133.708
21
-50.2381
0
LINE
8
BLACK
6
CONTINUOUS
10
133.708
20
-50.2381
11
133.708
21
-50.2378
0
LINE
8
BLACK
6
CONTINUOUS
10
133.708
20
-50.2378
11
133.708
21
-50.2375
0
LINE
8
BLACK
6
CONTINUOUS
10
133.708
20
-50.2375
11
133.705
21
-50.2285
0
LINE
8
BLACK
6
CONTINUOUS
10
133.705
20
-50.2285
11
133.702
21
-50.2194
0
LINE
8
BLACK
6
CONTINUOUS
10
133.702
20
-50.2194
11
133.702
21
-50.2191
0
LINE
8
BLACK
6
CONTINUOUS
10
133.702
20
-50.2191
11
133.702
21
-50.2187
0
LINE
8
BLACK
6
CONTINUOUS
10
133.702
20
-50.2187
11
133.701
21
-50.2093
0
LINE
8
BLACK
6
CONTINUOUS
10
133.701
20
-50.2093
11
133.7
21
-50.2
0
LINE
8
BLACK
6
CONTINUOUS
10
133.7
20
-50.2
11
133.7
21
-46.7
0
LINE
8
BLACK
6
CONTINUOUS
10
133.7
20
-46.7
11
133.7
21
-46.6993
0
LINE
8
BLACK
6
CONTINUOUS
10
133.7
20
-46.6993
11
133.7
21
-46.6993
0
LINE
8
BLACK
6
CONTINUOUS
10
133.7
20
-46.6993
11
133.7
21
-46.6993
0
LINE
8
BLACK
6
CONTINUOUS
10
133.7
20
-46.6993
11
133.7
21
-46.6986
0
LINE
8
BLACK
6
CONTINUOUS
10
133.7
20
-46.6986
11
133.701
21
-46.6893
0
LINE
8
BLACK
6
CONTINUOUS
10
133.701
20
-46.6893
11
133.702
21
-46.6799
0
LINE
8
BLACK
6
CONTINUOUS
10
133.702
20
-46.6799
11
133.702
21
-46.6796
0
LINE
8
BLACK
6
CONTINUOUS
10
133.702
20
-46.6796
11
133.702
21
-46.6792
0
LINE
8
BLACK
6
CONTINUOUS
10
133.702
20
-46.6792
11
133.705
21
-46.6702
0
LINE
8
BLACK
6
CONTINUOUS
10
133.705
20
-46.6702
11
133.708
21
-46.6612
0
LINE
8
BLACK
6
CONTINUOUS
10
133.708
20
-46.6612
11
133.708
21
-46.6609
0
LINE
8
BLACK
6
CONTINUOUS
10
133.708
20
-46.6609
11
133.708
21
-46.6606
0
LINE
8
BLACK
6
CONTINUOUS
10
133.708
20
-46.6606
11
133.713
21
-46.6523
0
LINE
8
BLACK
6
CONTINUOUS
10
133.713
20
-46.6523
11
133.717
21
-46.6441
0
LINE
8
BLACK
6
CONTINUOUS
10
133.717
20
-46.6441
11
133.718
21
-46.6438
0
LINE
8
BLACK
6
CONTINUOUS
10
133.718
20
-46.6438
11
133.718
21
-46.6435
0
LINE
8
BLACK
6
CONTINUOUS
10
133.718
20
-46.6435
11
133.724
21
-46.6363
0
LINE
8
BLACK
6
CONTINUOUS
10
133.724
20
-46.6363
11
133.73
21
-46.629
0
LINE
8
BLACK
6
CONTINUOUS
10
133.73
20
-46.629
11
133.73
21
-46.6288
0
LINE
8
BLACK
6
CONTINUOUS
10
133.73
20
-46.6288
11
133.73
21
-46.6286
0
LINE
8
BLACK
6
CONTINUOUS
10
133.73
20
-46.6286
11
133.738
21
-46.6227
0
LINE
8
BLACK
6
CONTINUOUS
10
133.738
20
-46.6227
11
133.745
21
-46.6167
0
LINE
8
BLACK
6
CONTINUOUS
10
133.745
20
-46.6167
11
133.745
21
-46.6165
0
LINE
8
BLACK
6
CONTINUOUS
10
133.745
20
-46.6165
11
133.746
21
-46.6163
0
LINE
8
BLACK
6
CONTINUOUS
10
133.746
20
-46.6163
11
133.754
21
-46.612
0
LINE
8
BLACK
6
CONTINUOUS
10
133.754
20
-46.612
11
133.762
21
-46.6075
0
LINE
8
BLACK
6
CONTINUOUS
10
133.762
20
-46.6075
11
133.763
21
-46.6074
0
LINE
8
BLACK
6
CONTINUOUS
10
133.763
20
-46.6074
11
133.763
21
-46.6073
0
LINE
8
BLACK
6
CONTINUOUS
10
133.763
20
-46.6073
11
133.772
21
-46.6046
0
LINE
8
BLACK
6
CONTINUOUS
10
133.772
20
-46.6046
11
133.781
21
-46.6019
0
LINE
8
BLACK
6
CONTINUOUS
10
133.781
20
-46.6019
11
133.781
21
-46.6019
0
LINE
8
BLACK
6
CONTINUOUS
10
133.781
20
-46.6019
11
133.782
21
-46.6018
0
LINE
8
BLACK
6
CONTINUOUS
10
133.782
20
-46.6018
11
133.791
21
-46.6009
0
LINE
8
BLACK
6
CONTINUOUS
10
133.791
20
-46.6009
11
133.8
21
-46.6
0
LINE
8
BLACK
6
CONTINUOUS
10
133.8
20
-46.6
11
135.395
21
-46.6
0
LINE
8
BLACK
6
CONTINUOUS
10
135.395
20
-46.6
11
135.4
21
-46.5996
0
LINE
8
BLACK
6
CONTINUOUS
10
135.4
20
-46.5996
11
135.4
21
-46.5951
0
LINE
8
BLACK
6
CONTINUOUS
10
135.4
20
-46.5951
11
135.4
21
-45.2049
0
LINE
8
BLACK
6
CONTINUOUS
10
135.4
20
-45.2049
11
135.4
21
-45.2004
0
LINE
8
BLACK
6
CONTINUOUS
10
135.4
20
-45.2004
11
135.395
21
-45.2
0
LINE
8
BLACK
6
CONTINUOUS
10
135.395
20
-45.2
11
133.8
21
-45.2
0
LINE
8
BLACK
6
CONTINUOUS
10
133.8
20
-45.2
11
133.8
21
-45.2
0
LINE
8
BLACK
6
CONTINUOUS
10
133.8
20
-45.2
11
133.8
21
-45.2
0
LINE
8
BLACK
6
CONTINUOUS
10
133.8
20
-45.2
11
133.8
21
-45.2
0
LINE
8
BLACK
6
CONTINUOUS
10
133.8
20
-45.2
11
133.799
21
-45.2
0
LINE
8
BLACK
6
CONTINUOUS
10
133.799
20
-45.2
11
133.79
21
-45.1989
0
LINE
8
BLACK
6
CONTINUOUS
10
133.79
20
-45.1989
11
133.78
21
-45.198
0
LINE
8
BLACK
6
CONTINUOUS
10
133.78
20
-45.198
11
133.78
21
-45.1979
0
LINE
8
BLACK
6
CONTINUOUS
10
133.78
20
-45.1979
11
133.779
21
-45.1978
0
LINE
8
BLACK
6
CONTINUOUS
10
133.779
20
-45.1978
11
133.771
21
-45.195
0
LINE
8
BLACK
6
CONTINUOUS
10
133.771
20
-45.195
11
133.762
21
-45.1922
0
LINE
8
BLACK
6
CONTINUOUS
10
133.762
20
-45.1922
11
133.761
21
-45.192
0
LINE
8
BLACK
6
CONTINUOUS
10
133.761
20
-45.192
11
133.761
21
-45.1919
0
LINE
8
BLACK
6
CONTINUOUS
10
133.761
20
-45.1919
11
133.753
21
-45.1874
0
LINE
8
BLACK
6
CONTINUOUS
10
133.753
20
-45.1874
11
133.744
21
-45.1829
0
LINE
8
BLACK
6
CONTINUOUS
10
133.744
20
-45.1829
11
133.744
21
-45.1827
0
LINE
8
BLACK
6
CONTINUOUS
10
133.744
20
-45.1827
11
133.744
21
-45.1825
0
LINE
8
BLACK
6
CONTINUOUS
10
133.744
20
-45.1825
11
133.737
21
-45.1765
0
LINE
8
BLACK
6
CONTINUOUS
10
133.737
20
-45.1765
11
133.729
21
-45.1705
0
LINE
8
BLACK
6
CONTINUOUS
10
133.729
20
-45.1705
11
133.729
21
-45.1702
0
LINE
8
BLACK
6
CONTINUOUS
10
133.729
20
-45.1702
11
133.729
21
-45.17
0
LINE
8
BLACK
6
CONTINUOUS
10
133.729
20
-45.17
11
133.723
21
-45.1626
0
LINE
8
BLACK
6
CONTINUOUS
10
133.723
20
-45.1626
11
133.717
21
-45.1553
0
LINE
8
BLACK
6
CONTINUOUS
10
133.717
20
-45.1553
11
133.717
21
-45.155
0
LINE
8
BLACK
6
CONTINUOUS
10
133.717
20
-45.155
11
133.717
21
-45.1548
0
LINE
8
BLACK
6
CONTINUOUS
10
133.717
20
-45.1548
11
133.712
21
-45.1465
0
LINE
8
BLACK
6
CONTINUOUS
10
133.712
20
-45.1465
11
133.708
21
-45.1381
0
LINE
8
BLACK
6
CONTINUOUS
10
133.708
20
-45.1381
11
133.708
21
-45.1378
0
LINE
8
BLACK
6
CONTINUOUS
10
133.708
20
-45.1378
11
133.708
21
-45.1375
0
LINE
8
BLACK
6
CONTINUOUS
10
133.708
20
-45.1375
11
133.705
21
-45.1285
0
LINE
8
BLACK
6
CONTINUOUS
10
133.705
20
-45.1285
11
133.702
21
-45.1194
0
LINE
8
BLACK
6
CONTINUOUS
10
133.702
20
-45.1194
11
133.702
21
-45.1191
0
LINE
8
BLACK
6
CONTINUOUS
10
133.702
20
-45.1191
11
133.702
21
-45.1187
0
LINE
8
BLACK
6
CONTINUOUS
10
133.702
20
-45.1187
11
133.701
21
-45.1093
0
LINE
8
BLACK
6
CONTINUOUS
10
133.701
20
-45.1093
11
133.7
21
-45.1
0
LINE
8
BLACK
6
CONTINUOUS
10
133.7
20
-45.1
11
133.7
21
-41.6
0
LINE
8
BLACK
6
CONTINUOUS
10
133.7
20
-41.6
11
133.7
21
-41.5993
0
LINE
8
BLACK
6
CONTINUOUS
10
133.7
20
-41.5993
11
133.7
21
-41.5993
0
LINE
8
BLACK
6
CONTINUOUS
10
133.7
20
-41.5993
11
133.7
21
-41.5993
0
LINE
8
BLACK
6
CONTINUOUS
10
133.7
20
-41.5993
11
133.7
21
-41.5986
0
LINE
8
BLACK
6
CONTINUOUS
10
133.7
20
-41.5986
11
133.701
21
-41.5893
0
LINE
8
BLACK
6
CONTINUOUS
10
133.701
20
-41.5893
11
133.702
21
-41.5799
0
LINE
8
BLACK
6
CONTINUOUS
10
133.702
20
-41.5799
11
133.702
21
-41.5796
0
LINE
8
BLACK
6
CONTINUOUS
10
133.702
20
-41.5796
11
133.702
21
-41.5792
0
LINE
8
BLACK
6
CONTINUOUS
10
133.702
20
-41.5792
11
133.705
21
-41.5702
0
LINE
8
BLACK
6
CONTINUOUS
10
133.705
20
-41.5702
11
133.708
21
-41.5612
0
LINE
8
BLACK
6
CONTINUOUS
10
133.708
20
-41.5612
11
133.708
21
-41.5609
0
LINE
8
BLACK
6
CONTINUOUS
10
133.708
20
-41.5609
11
133.708
21
-41.5606
0
LINE
8
BLACK
6
CONTINUOUS
10
133.708
20
-41.5606
11
133.713
21
-41.5523
0
LINE
8
BLACK
6
CONTINUOUS
10
133.713
20
-41.5523
11
133.717
21
-41.5441
0
LINE
8
BLACK
6
CONTINUOUS
10
133.717
20
-41.5441
11
133.718
21
-41.5438
0
LINE
8
BLACK
6
CONTINUOUS
10
133.718
20
-41.5438
11
133.718
21
-41.5435
0
LINE
8
BLACK
6
CONTINUOUS
10
133.718
20
-41.5435
11
133.724
21
-41.5363
0
LINE
8
BLACK
6
CONTINUOUS
10
133.724
20
-41.5363
11
133.73
21
-41.529
0
LINE
8
BLACK
6
CONTINUOUS
10
133.73
20
-41.529
11
133.73
21
-41.5288
0
LINE
8
BLACK
6
CONTINUOUS
10
133.73
20
-41.5288
11
133.73
21
-41.5286
0
LINE
8
BLACK
6
CONTINUOUS
10
133.73
20
-41.5286
11
133.738
21
-41.5227
0
LINE
8
BLACK
6
CONTINUOUS
10
133.738
20
-41.5227
11
133.745
21
-41.5167
0
LINE
8
BLACK
6
CONTINUOUS
10
133.745
20
-41.5167
11
133.745
21
-41.5165
0
LINE
8
BLACK
6
CONTINUOUS
10
133.745
20
-41.5165
11
133.746
21
-41.5163
0
LINE
8
BLACK
6
CONTINUOUS
10
133.746
20
-41.5163
11
133.754
21
-41.512
0
LINE
8
BLACK
6
CONTINUOUS
10
133.754
20
-41.512
11
133.762
21
-41.5075
0
LINE
8
BLACK
6
CONTINUOUS
10
133.762
20
-41.5075
11
133.763
21
-41.5074
0
LINE
8
BLACK
6
CONTINUOUS
10
133.763
20
-41.5074
11
133.763
21
-41.5073
0
LINE
8
BLACK
6
CONTINUOUS
10
133.763
20
-41.5073
11
133.772
21
-41.5046
0
LINE
8
BLACK
6
CONTINUOUS
10
133.772
20
-41.5046
11
133.781
21
-41.5019
0
LINE
8
BLACK
6
CONTINUOUS
10
133.781
20
-41.5019
11
133.781
21
-41.5019
0
LINE
8
BLACK
6
CONTINUOUS
10
133.781
20
-41.5019
11
133.782
21
-41.5018
0
LINE
8
BLACK
6
CONTINUOUS
10
133.782
20
-41.5018
11
133.791
21
-41.5009
0
LINE
8
BLACK
6
CONTINUOUS
10
133.791
20
-41.5009
11
133.8
21
-41.5
0
LINE
8
BLACK
6
CONTINUOUS
10
133.8
20
-41.5
11
135.395
21
-41.5
0
LINE
8
BLACK
6
CONTINUOUS
10
135.395
20
-41.5
11
135.4
21
-41.4996
0
LINE
8
BLACK
6
CONTINUOUS
10
135.4
20
-41.4996
11
135.4
21
-41.4951
0
LINE
8
BLACK
6
CONTINUOUS
10
135.4
20
-41.4951
11
135.4
21
-40.1049
0
LINE
8
BLACK
6
CONTINUOUS
10
135.4
20
-40.1049
11
135.4
21
-40.1004
0
LINE
8
BLACK
6
CONTINUOUS
10
135.4
20
-40.1004
11
135.395
21
-40.1
0
LINE
8
BLACK
6
CONTINUOUS
10
135.395
20
-40.1
11
133.8
21
-40.1
0
LINE
8
BLACK
6
CONTINUOUS
10
133.8
20
-40.1
11
133.8
21
-40.1
0
LINE
8
BLACK
6
CONTINUOUS
10
133.8
20
-40.1
11
133.8
21
-40.1
0
LINE
8
BLACK
6
CONTINUOUS
10
133.8
20
-40.1
11
133.8
21
-40.1
0
LINE
8
BLACK
6
CONTINUOUS
10
133.8
20
-40.1
11
133.799
21
-40.1
0
LINE
8
BLACK
6
CONTINUOUS
10
133.799
20
-40.1
11
133.79
21
-40.0989
0
LINE
8
BLACK
6
CONTINUOUS
10
133.79
20
-40.0989
11
133.78
21
-40.098
0
LINE
8
BLACK
6
CONTINUOUS
10
133.78
20
-40.098
11
133.78
21
-40.0979
0
LINE
8
BLACK
6
CONTINUOUS
10
133.78
20
-40.0979
11
133.779
21
-40.0978
0
LINE
8
BLACK
6
CONTINUOUS
10
133.779
20
-40.0978
11
133.771
21
-40.095
0
LINE
8
BLACK
6
CONTINUOUS
10
133.771
20
-40.095
11
133.762
21
-40.0922
0
LINE
8
BLACK
6
CONTINUOUS
10
133.762
20
-40.0922
11
133.761
21
-40.092
0
LINE
8
BLACK
6
CONTINUOUS
10
133.761
20
-40.092
11
133.761
21
-40.0919
0
LINE
8
BLACK
6
CONTINUOUS
10
133.761
20
-40.0919
11
133.753
21
-40.0874
0
LINE
8
BLACK
6
CONTINUOUS
10
133.753
20
-40.0874
11
133.744
21
-40.0829
0
LINE
8
BLACK
6
CONTINUOUS
10
133.744
20
-40.0829
11
133.744
21
-40.0827
0
LINE
8
BLACK
6
CONTINUOUS
10
133.744
20
-40.0827
11
133.744
21
-40.0825
0
LINE
8
BLACK
6
CONTINUOUS
10
133.744
20
-40.0825
11
133.737
21
-40.0765
0
LINE
8
BLACK
6
CONTINUOUS
10
133.737
20
-40.0765
11
133.729
21
-40.0705
0
LINE
8
BLACK
6
CONTINUOUS
10
133.729
20
-40.0705
11
133.729
21
-40.0702
0
LINE
8
BLACK
6
CONTINUOUS
10
133.729
20
-40.0702
11
133.729
21
-40.07
0
LINE
8
BLACK
6
CONTINUOUS
10
133.729
20
-40.07
11
133.723
21
-40.0626
0
LINE
8
BLACK
6
CONTINUOUS
10
133.723
20
-40.0626
11
133.717
21
-40.0553
0
LINE
8
BLACK
6
CONTINUOUS
10
133.717
20
-40.0553
11
133.717
21
-40.055
0
LINE
8
BLACK
6
CONTINUOUS
10
133.717
20
-40.055
11
133.717
21
-40.0548
0
LINE
8
BLACK
6
CONTINUOUS
10
133.717
20
-40.0548
11
133.712
21
-40.0465
0
LINE
8
BLACK
6
CONTINUOUS
10
133.712
20
-40.0465
11
133.708
21
-40.0381
0
LINE
8
BLACK
6
CONTINUOUS
10
133.708
20
-40.0381
11
133.708
21
-40.0378
0
LINE
8
BLACK
6
CONTINUOUS
10
133.708
20
-40.0378
11
133.708
21
-40.0375
0
LINE
8
BLACK
6
CONTINUOUS
10
133.708
20
-40.0375
11
133.705
21
-40.0285
0
LINE
8
BLACK
6
CONTINUOUS
10
133.705
20
-40.0285
11
133.702
21
-40.0194
0
LINE
8
BLACK
6
CONTINUOUS
10
133.702
20
-40.0194
11
133.702
21
-40.0191
0
LINE
8
BLACK
6
CONTINUOUS
10
133.702
20
-40.0191
11
133.702
21
-40.0187
0
LINE
8
BLACK
6
CONTINUOUS
10
133.702
20
-40.0187
11
133.701
21
-40.0093
0
LINE
8
BLACK
6
CONTINUOUS
10
133.701
20
-40.0093
11
133.7
21
-40
0
LINE
8
BLACK
6
CONTINUOUS
10
133.7
20
-40
11
133.7
21
-36.5
0
LINE
8
BLACK
6
CONTINUOUS
10
133.7
20
-36.5
11
133.7
21
-36.4993
0
LINE
8
BLACK
6
CONTINUOUS
10
133.7
20
-36.4993
11
133.7
21
-36.4993
0
LINE
8
BLACK
6
CONTINUOUS
10
133.7
20
-36.4993
11
133.7
21
-36.4993
0
LINE
8
BLACK
6
CONTINUOUS
10
133.7
20
-36.4993
11
133.7
21
-36.4986
0
LINE
8
BLACK
6
CONTINUOUS
10
133.7
20
-36.4986
11
133.701
21
-36.4893
0
LINE
8
BLACK
6
CONTINUOUS
10
133.701
20
-36.4893
11
133.702
21
-36.4799
0
LINE
8
BLACK
6
CONTINUOUS
10
133.702
20
-36.4799
11
133.702
21
-36.4796
0
LINE
8
BLACK
6
CONTINUOUS
10
133.702
20
-36.4796
11
133.702
21
-36.4792
0
LINE
8
BLACK
6
CONTINUOUS
10
133.702
20
-36.4792
11
133.705
21
-36.4702
0
LINE
8
BLACK
6
CONTINUOUS
10
133.705
20
-36.4702
11
133.708
21
-36.4612
0
LINE
8
BLACK
6
CONTINUOUS
10
133.708
20
-36.4612
11
133.708
21
-36.4609
0
LINE
8
BLACK
6
CONTINUOUS
10
133.708
20
-36.4609
11
133.708
21
-36.4606
0
LINE
8
BLACK
6
CONTINUOUS
10
133.708
20
-36.4606
11
133.713
21
-36.4523
0
LINE
8
BLACK
6
CONTINUOUS
10
133.713
20
-36.4523
11
133.717
21
-36.4441
0
LINE
8
BLACK
6
CONTINUOUS
10
133.717
20
-36.4441
11
133.718
21
-36.4438
0
LINE
8
BLACK
6
CONTINUOUS
10
133.718
20
-36.4438
11
133.718
21
-36.4435
0
LINE
8
BLACK
6
CONTINUOUS
10
133.718
20
-36.4435
11
133.724
21
-36.4363
0
LINE
8
BLACK
6
CONTINUOUS
10
133.724
20
-36.4363
11
133.73
21
-36.429
0
LINE
8
BLACK
6
CONTINUOUS
10
133.73
20
-36.429
11
133.73
21
-36.4288
0
LINE
8
BLACK
6
CONTINUOUS
10
133.73
20
-36.4288
11
133.73
21
-36.4286
0
LINE
8
BLACK
6
CONTINUOUS
10
133.73
20
-36.4286
11
133.738
21
-36.4227
0
LINE
8
BLACK
6
CONTINUOUS
10
133.738
20
-36.4227
11
133.745
21
-36.4167
0
LINE
8
BLACK
6
CONTINUOUS
10
133.745
20
-36.4167
11
133.745
21
-36.4165
0
LINE
8
BLACK
6
CONTINUOUS
10
133.745
20
-36.4165
11
133.746
21
-36.4163
0
LINE
8
BLACK
6
CONTINUOUS
10
133.746
20
-36.4163
11
133.754
21
-36.412
0
LINE
8
BLACK
6
CONTINUOUS
10
133.754
20
-36.412
11
133.762
21
-36.4075
0
LINE
8
BLACK
6
CONTINUOUS
10
133.762
20
-36.4075
11
133.763
21
-36.4074
0
LINE
8
BLACK
6
CONTINUOUS
10
133.763
20
-36.4074
11
133.763
21
-36.4073
0
LINE
8
BLACK
6
CONTINUOUS
10
133.763
20
-36.4073
11
133.772
21
-36.4046
0
LINE
8
BLACK
6
CONTINUOUS
10
133.772
20
-36.4046
11
133.781
21
-36.4019
0
LINE
8
BLACK
6
CONTINUOUS
10
133.781
20
-36.4019
11
133.781
21
-36.4019
0
LINE
8
BLACK
6
CONTINUOUS
10
133.781
20
-36.4019
11
133.782
21
-36.4018
0
LINE
8
BLACK
6
CONTINUOUS
10
133.782
20
-36.4018
11
133.791
21
-36.4009
0
LINE
8
BLACK
6
CONTINUOUS
10
133.791
20
-36.4009
11
133.8
21
-36.4
0
LINE
8
BLACK
6
CONTINUOUS
10
133.8
20
-36.4
11
146.8
21
-36.4
0
LINE
8
BLACK
6
CONTINUOUS
10
146.8
20
-36.4
11
146.801
21
-36.4
0
LINE
8
BLACK
6
CONTINUOUS
10
92.0666
20
-57.8373
11
92.2269
21
-57.8859
0
LINE
8
BLACK
6
CONTINUOUS
10
92.2269
20
-57.8859
11
92.3745
21
-57.9648
0
LINE
8
BLACK
6
CONTINUOUS
10
92.3745
20
-57.9648
11
92.5039
21
-58.0711
0
LINE
8
BLACK
6
CONTINUOUS
10
92.5039
20
-58.0711
11
92.6102
21
-58.2005
0
LINE
8
BLACK
6
CONTINUOUS
10
92.6102
20
-58.2005
11
92.6891
21
-58.3481
0
LINE
8
BLACK
6
CONTINUOUS
10
92.6891
20
-58.3481
11
92.7377
21
-58.5084
0
LINE
8
BLACK
6
CONTINUOUS
10
92.7377
20
-58.5084
11
92.75
21
-58.6333
0
LINE
8
BLACK
6
CONTINUOUS
10
92.75
20
-58.6333
11
92.75
21
-58.9667
0
LINE
8
BLACK
6
CONTINUOUS
10
92.75
20
-58.9667
11
92.7377
21
-59.0916
0
LINE
8
BLACK
6
CONTINUOUS
10
92.7377
20
-59.0916
11
92.6891
21
-59.2519
0
LINE
8
BLACK
6
CONTINUOUS
10
92.6891
20
-59.2519
11
92.6102
21
-59.3995
0
LINE
8
BLACK
6
CONTINUOUS
10
92.6102
20
-59.3995
11
92.5836
21
-59.4319
0
LINE
8
BLACK
6
CONTINUOUS
10
92.5836
20
-59.4319
11
94.6518
21
-61.5
0
LINE
8
BLACK
6
CONTINUOUS
10
94.6518
20
-61.5
11
104.548
21
-61.5
0
LINE
8
BLACK
6
CONTINUOUS
10
104.548
20
-61.5
11
104.642
21
-61.4062
0
LINE
8
BLACK
6
CONTINUOUS
10
104.642
20
-61.4062
11
104.615
21
-61.3417
0
LINE
8
BLACK
6
CONTINUOUS
10
104.615
20
-61.3417
11
104.6
21
-61.2644
0
LINE
8
BLACK
6
CONTINUOUS
10
104.6
20
-61.2644
11
104.6
21
-61.1856
0
LINE
8
BLACK
6
CONTINUOUS
10
104.6
20
-61.1856
11
104.615
21
-61.1083
0
LINE
8
BLACK
6
CONTINUOUS
10
104.615
20
-61.1083
11
104.646
21
-61.0355
0
LINE
8
BLACK
6
CONTINUOUS
10
104.646
20
-61.0355
11
104.689
21
-60.97
0
LINE
8
BLACK
6
CONTINUOUS
10
104.689
20
-60.97
11
104.745
21
-60.9143
0
LINE
8
BLACK
6
CONTINUOUS
10
104.745
20
-60.9143
11
104.811
21
-60.8705
0
LINE
8
BLACK
6
CONTINUOUS
10
104.811
20
-60.8705
11
104.883
21
-60.8404
0
LINE
8
BLACK
6
CONTINUOUS
10
104.883
20
-60.8404
11
104.961
21
-60.825
0
LINE
8
BLACK
6
CONTINUOUS
10
104.961
20
-60.825
11
105.039
21
-60.825
0
LINE
8
BLACK
6
CONTINUOUS
10
105.039
20
-60.825
11
105.117
21
-60.8404
0
LINE
8
BLACK
6
CONTINUOUS
10
105.117
20
-60.8404
11
105.189
21
-60.8705
0
LINE
8
BLACK
6
CONTINUOUS
10
105.189
20
-60.8705
11
105.255
21
-60.9143
0
LINE
8
BLACK
6
CONTINUOUS
10
105.255
20
-60.9143
11
105.311
21
-60.97
0
LINE
8
BLACK
6
CONTINUOUS
10
105.311
20
-60.97
11
105.354
21
-61.0355
0
LINE
8
BLACK
6
CONTINUOUS
10
105.354
20
-61.0355
11
105.385
21
-61.1083
0
LINE
8
BLACK
6
CONTINUOUS
10
105.385
20
-61.1083
11
105.4
21
-61.1856
0
LINE
8
BLACK
6
CONTINUOUS
10
105.4
20
-61.1856
11
105.4
21
-61.2644
0
LINE
8
BLACK
6
CONTINUOUS
10
105.4
20
-61.2644
11
105.385
21
-61.3417
0
LINE
8
BLACK
6
CONTINUOUS
10
105.385
20
-61.3417
11
105.354
21
-61.4145
0
LINE
8
BLACK
6
CONTINUOUS
10
105.354
20
-61.4145
11
105.311
21
-61.48
0
LINE
8
BLACK
6
CONTINUOUS
10
105.311
20
-61.48
11
105.255
21
-61.5357
0
LINE
8
BLACK
6
CONTINUOUS
10
105.255
20
-61.5357
11
105.189
21
-61.5795
0
LINE
8
BLACK
6
CONTINUOUS
10
105.189
20
-61.5795
11
105.117
21
-61.6096
0
LINE
8
BLACK
6
CONTINUOUS
10
105.117
20
-61.6096
11
105.039
21
-61.625
0
LINE
8
BLACK
6
CONTINUOUS
10
105.039
20
-61.625
11
104.961
21
-61.625
0
LINE
8
BLACK
6
CONTINUOUS
10
104.961
20
-61.625
11
104.883
21
-61.6096
0
LINE
8
BLACK
6
CONTINUOUS
10
104.883
20
-61.6096
11
104.819
21
-61.5829
0
LINE
8
BLACK
6
CONTINUOUS
10
104.819
20
-61.5829
11
104.693
21
-61.7091
0
LINE
8
BLACK
6
CONTINUOUS
10
104.693
20
-61.7091
11
104.689
21
-61.7138
0
LINE
8
BLACK
6
CONTINUOUS
10
104.689
20
-61.7138
11
104.67
21
-61.7294
0
LINE
8
BLACK
6
CONTINUOUS
10
104.67
20
-61.7294
11
104.648
21
-61.7411
0
LINE
8
BLACK
6
CONTINUOUS
10
104.648
20
-61.7411
11
104.625
21
-61.7482
0
LINE
8
BLACK
6
CONTINUOUS
10
104.625
20
-61.7482
11
104.606
21
-61.75
0
LINE
8
BLACK
6
CONTINUOUS
10
104.606
20
-61.75
11
104.606
21
-61.75
0
LINE
8
BLACK
6
CONTINUOUS
10
104.606
20
-61.75
11
104.6
21
-61.7506
0
LINE
8
BLACK
6
CONTINUOUS
10
104.6
20
-61.7506
11
104.594
21
-61.75
0
LINE
8
BLACK
6
CONTINUOUS
10
104.594
20
-61.75
11
94.6061
21
-61.75
0
LINE
8
BLACK
6
CONTINUOUS
10
94.6061
20
-61.75
11
94.6
21
-61.7506
0
LINE
8
BLACK
6
CONTINUOUS
10
94.6
20
-61.7506
11
94.5939
21
-61.75
0
LINE
8
BLACK
6
CONTINUOUS
10
94.5939
20
-61.75
11
94.5939
21
-61.75
0
LINE
8
BLACK
6
CONTINUOUS
10
94.5939
20
-61.75
11
94.5755
21
-61.7482
0
LINE
8
BLACK
6
CONTINUOUS
10
94.5755
20
-61.7482
11
94.5519
21
-61.7411
0
LINE
8
BLACK
6
CONTINUOUS
10
94.5519
20
-61.7411
11
94.5302
21
-61.7294
0
LINE
8
BLACK
6
CONTINUOUS
10
94.5302
20
-61.7294
11
94.5277
21
-61.7274
0
LINE
8
BLACK
6
CONTINUOUS
10
94.5277
20
-61.7274
11
94.516
21
-61.7177
0
LINE
8
BLACK
6
CONTINUOUS
10
94.516
20
-61.7177
11
94.516
21
-61.7177
0
LINE
8
BLACK
6
CONTINUOUS
10
94.516
20
-61.7177
11
94.5112
21
-61.7138
0
LINE
8
BLACK
6
CONTINUOUS
10
94.5112
20
-61.7138
11
94.5073
21
-61.7091
0
LINE
8
BLACK
6
CONTINUOUS
10
94.5073
20
-61.7091
11
92.4069
21
-59.6086
0
LINE
8
BLACK
6
CONTINUOUS
10
92.4069
20
-59.6086
11
92.3745
21
-59.6352
0
LINE
8
BLACK
6
CONTINUOUS
10
92.3745
20
-59.6352
11
92.2269
21
-59.7141
0
LINE
8
BLACK
6
CONTINUOUS
10
92.2269
20
-59.7141
11
92.0666
21
-59.7627
0
LINE
8
BLACK
6
CONTINUOUS
10
92.0666
20
-59.7627
11
91.9
21
-59.7791
0
LINE
8
BLACK
6
CONTINUOUS
10
91.9
20
-59.7791
11
91.7334
21
-59.7627
0
LINE
8
BLACK
6
CONTINUOUS
10
91.7334
20
-59.7627
11
91.5731
21
-59.7141
0
LINE
8
BLACK
6
CONTINUOUS
10
91.5731
20
-59.7141
11
91.4255
21
-59.6352
0
LINE
8
BLACK
6
CONTINUOUS
10
91.4255
20
-59.6352
11
91.2961
21
-59.5289
0
LINE
8
BLACK
6
CONTINUOUS
10
91.2961
20
-59.5289
11
91.1898
21
-59.3995
0
LINE
8
BLACK
6
CONTINUOUS
10
91.1898
20
-59.3995
11
91.1109
21
-59.2519
0
LINE
8
BLACK
6
CONTINUOUS
10
91.1109
20
-59.2519
11
91.0623
21
-59.0916
0
LINE
8
BLACK
6
CONTINUOUS
10
91.0623
20
-59.0916
11
91.05
21
-58.9667
0
LINE
8
BLACK
6
CONTINUOUS
10
91.05
20
-58.9667
11
91.05
21
-58.6333
0
LINE
8
BLACK
6
CONTINUOUS
10
91.05
20
-58.6333
11
91.0623
21
-58.5084
0
LINE
8
BLACK
6
CONTINUOUS
10
91.0623
20
-58.5084
11
91.1109
21
-58.3481
0
LINE
8
BLACK
6
CONTINUOUS
10
91.1109
20
-58.3481
11
91.1898
21
-58.2005
0
LINE
8
BLACK
6
CONTINUOUS
10
91.1898
20
-58.2005
11
91.2961
21
-58.0711
0
LINE
8
BLACK
6
CONTINUOUS
10
91.2961
20
-58.0711
11
91.4255
21
-57.9648
0
LINE
8
BLACK
6
CONTINUOUS
10
91.4255
20
-57.9648
11
91.5731
21
-57.8859
0
LINE
8
BLACK
6
CONTINUOUS
10
91.5731
20
-57.8859
11
91.7334
21
-57.8373
0
LINE
8
BLACK
6
CONTINUOUS
10
91.7334
20
-57.8373
11
91.9
21
-57.8209
0
LINE
8
BLACK
6
CONTINUOUS
10
91.9
20
-57.8209
11
92.0666
21
-57.8373
0
LINE
8
BLACK
6
CONTINUOUS
10
132.901
20
-36.4
11
132.901
21
-36.4
0
LINE
8
BLACK
6
CONTINUOUS
10
132.901
20
-36.4
11
132.901
21
-36.4
0
LINE
8
BLACK
6
CONTINUOUS
10
132.901
20
-36.4
11
132.901
21
-36.4
0
LINE
8
BLACK
6
CONTINUOUS
10
132.901
20
-36.4
11
132.911
21
-36.4011
0
LINE
8
BLACK
6
CONTINUOUS
10
132.911
20
-36.4011
11
132.92
21
-36.402
0
LINE
8
BLACK
6
CONTINUOUS
10
132.92
20
-36.402
11
132.92
21
-36.4021
0
LINE
8
BLACK
6
CONTINUOUS
10
132.92
20
-36.4021
11
132.921
21
-36.4022
0
LINE
8
BLACK
6
CONTINUOUS
10
132.921
20
-36.4022
11
132.93
21
-36.405
0
LINE
8
BLACK
6
CONTINUOUS
10
132.93
20
-36.405
11
132.939
21
-36.4078
0
LINE
8
BLACK
6
CONTINUOUS
10
132.939
20
-36.4078
11
132.939
21
-36.408
0
LINE
8
BLACK
6
CONTINUOUS
10
132.939
20
-36.408
11
132.939
21
-36.4081
0
LINE
8
BLACK
6
CONTINUOUS
10
132.939
20
-36.4081
11
132.948
21
-36.4126
0
LINE
8
BLACK
6
CONTINUOUS
10
132.948
20
-36.4126
11
132.956
21
-36.4171
0
LINE
8
BLACK
6
CONTINUOUS
10
132.956
20
-36.4171
11
132.956
21
-36.4173
0
LINE
8
BLACK
6
CONTINUOUS
10
132.956
20
-36.4173
11
132.956
21
-36.4175
0
LINE
8
BLACK
6
CONTINUOUS
10
132.956
20
-36.4175
11
132.964
21
-36.4235
0
LINE
8
BLACK
6
CONTINUOUS
10
132.964
20
-36.4235
11
132.971
21
-36.4295
0
LINE
8
BLACK
6
CONTINUOUS
10
132.971
20
-36.4295
11
132.971
21
-36.4298
0
LINE
8
BLACK
6
CONTINUOUS
10
132.971
20
-36.4298
11
132.971
21
-36.43
0
LINE
8
BLACK
6
CONTINUOUS
10
132.971
20
-36.43
11
132.977
21
-36.4373
0
LINE
8
BLACK
6
CONTINUOUS
10
132.977
20
-36.4373
11
132.983
21
-36.4447
0
LINE
8
BLACK
6
CONTINUOUS
10
132.983
20
-36.4447
11
132.983
21
-36.445
0
LINE
8
BLACK
6
CONTINUOUS
10
132.983
20
-36.445
11
132.984
21
-36.4452
0
LINE
8
BLACK
6
CONTINUOUS
10
132.984
20
-36.4452
11
132.988
21
-36.4535
0
LINE
8
BLACK
6
CONTINUOUS
10
132.988
20
-36.4535
11
132.992
21
-36.4619
0
LINE
8
BLACK
6
CONTINUOUS
10
132.992
20
-36.4619
11
132.993
21
-36.4622
0
LINE
8
BLACK
6
CONTINUOUS
10
132.993
20
-36.4622
11
132.993
21
-36.4625
0
LINE
8
BLACK
6
CONTINUOUS
10
132.993
20
-36.4625
11
132.995
21
-36.4715
0
LINE
8
BLACK
6
CONTINUOUS
10
132.995
20
-36.4715
11
132.998
21
-36.4806
0
LINE
8
BLACK
6
CONTINUOUS
10
132.998
20
-36.4806
11
132.998
21
-36.4809
0
LINE
8
BLACK
6
CONTINUOUS
10
132.998
20
-36.4809
11
132.998
21
-36.4813
0
LINE
8
BLACK
6
CONTINUOUS
10
132.998
20
-36.4813
11
132.999
21
-36.4907
0
LINE
8
BLACK
6
CONTINUOUS
10
132.999
20
-36.4907
11
133
21
-36.5
0
LINE
8
BLACK
6
CONTINUOUS
10
133
20
-36.5
11
133
21
-36.55
0
LINE
8
BLACK
6
CONTINUOUS
10
133
20
-36.55
11
133.025
21
-36.55
0
LINE
8
BLACK
6
CONTINUOUS
10
133.025
20
-36.55
11
133.025
21
-41.25
0
LINE
8
BLACK
6
CONTINUOUS
10
133.025
20
-41.25
11
133
21
-41.25
0
LINE
8
BLACK
6
CONTINUOUS
10
133
20
-41.25
11
133
21
-41.65
0
LINE
8
BLACK
6
CONTINUOUS
10
133
20
-41.65
11
133.025
21
-41.65
0
LINE
8
BLACK
6
CONTINUOUS
10
133.025
20
-41.65
11
133.025
21
-46.35
0
LINE
8
BLACK
6
CONTINUOUS
10
133.025
20
-46.35
11
133
21
-46.35
0
LINE
8
BLACK
6
CONTINUOUS
10
133
20
-46.35
11
133
21
-46.75
0
LINE
8
BLACK
6
CONTINUOUS
10
133
20
-46.75
11
133.025
21
-46.75
0
LINE
8
BLACK
6
CONTINUOUS
10
133.025
20
-46.75
11
133.025
21
-51.45
0
LINE
8
BLACK
6
CONTINUOUS
10
133.025
20
-51.45
11
133
21
-51.45
0
LINE
8
BLACK
6
CONTINUOUS
10
133
20
-51.45
11
133
21
-51.85
0
LINE
8
BLACK
6
CONTINUOUS
10
133
20
-51.85
11
133.025
21
-51.85
0
LINE
8
BLACK
6
CONTINUOUS
10
133.025
20
-51.85
11
133.025
21
-56.55
0
LINE
8
BLACK
6
CONTINUOUS
10
133.025
20
-56.55
11
133
21
-56.55
0
LINE
8
BLACK
6
CONTINUOUS
10
133
20
-56.55
11
133
21
-56.95
0
LINE
8
BLACK
6
CONTINUOUS
10
133
20
-56.95
11
133.025
21
-56.95
0
LINE
8
BLACK
6
CONTINUOUS
10
133.025
20
-56.95
11
133.025
21
-61.65
0
LINE
8
BLACK
6
CONTINUOUS
10
133.025
20
-61.65
11
132.986
21
-61.65
0
LINE
8
BLACK
6
CONTINUOUS
10
132.986
20
-61.65
11
132.983
21
-61.6559
0
LINE
8
BLACK
6
CONTINUOUS
10
132.983
20
-61.6559
11
132.983
21
-61.6562
0
LINE
8
BLACK
6
CONTINUOUS
10
132.983
20
-61.6562
11
132.983
21
-61.6565
0
LINE
8
BLACK
6
CONTINUOUS
10
132.983
20
-61.6565
11
132.976
21
-61.6637
0
LINE
8
BLACK
6
CONTINUOUS
10
132.976
20
-61.6637
11
132.97
21
-61.671
0
LINE
8
BLACK
6
CONTINUOUS
10
132.97
20
-61.671
11
132.97
21
-61.6712
0
LINE
8
BLACK
6
CONTINUOUS
10
132.97
20
-61.6712
11
132.97
21
-61.6714
0
LINE
8
BLACK
6
CONTINUOUS
10
132.97
20
-61.6714
11
132.963
21
-61.6773
0
LINE
8
BLACK
6
CONTINUOUS
10
132.963
20
-61.6773
11
132.955
21
-61.6833
0
LINE
8
BLACK
6
CONTINUOUS
10
132.955
20
-61.6833
11
132.955
21
-61.6835
0
LINE
8
BLACK
6
CONTINUOUS
10
132.955
20
-61.6835
11
132.955
21
-61.6837
0
LINE
8
BLACK
6
CONTINUOUS
10
132.955
20
-61.6837
11
132.946
21
-61.688
0
LINE
8
BLACK
6
CONTINUOUS
10
132.946
20
-61.688
11
132.938
21
-61.6925
0
LINE
8
BLACK
6
CONTINUOUS
10
132.938
20
-61.6925
11
132.938
21
-61.6926
0
LINE
8
BLACK
6
CONTINUOUS
10
132.938
20
-61.6926
11
132.937
21
-61.6927
0
LINE
8
BLACK
6
CONTINUOUS
10
132.937
20
-61.6927
11
132.928
21
-61.6954
0
LINE
8
BLACK
6
CONTINUOUS
10
132.928
20
-61.6954
11
132.919
21
-61.6981
0
LINE
8
BLACK
6
CONTINUOUS
10
132.919
20
-61.6981
11
132.919
21
-61.6981
0
LINE
8
BLACK
6
CONTINUOUS
10
132.919
20
-61.6981
11
132.919
21
-61.6982
0
LINE
8
BLACK
6
CONTINUOUS
10
132.919
20
-61.6982
11
132.909
21
-61.6991
0
LINE
8
BLACK
6
CONTINUOUS
10
132.909
20
-61.6991
11
132.9
21
-61.7
0
LINE
8
BLACK
6
CONTINUOUS
10
132.9
20
-61.7
11
118.1
21
-61.7
0
LINE
8
BLACK
6
CONTINUOUS
10
118.1
20
-61.7
11
118.099
21
-61.7
0
LINE
8
BLACK
6
CONTINUOUS
10
118.099
20
-61.7
11
118.099
21
-61.7
0
LINE
8
BLACK
6
CONTINUOUS
10
118.099
20
-61.7
11
118.099
21
-61.7
0
LINE
8
BLACK
6
CONTINUOUS
10
118.099
20
-61.7
11
118.099
21
-61.7
0
LINE
8
BLACK
6
CONTINUOUS
10
118.099
20
-61.7
11
118.089
21
-61.6989
0
LINE
8
BLACK
6
CONTINUOUS
10
118.089
20
-61.6989
11
118.08
21
-61.698
0
LINE
8
BLACK
6
CONTINUOUS
10
118.08
20
-61.698
11
118.08
21
-61.6979
0
LINE
8
BLACK
6
CONTINUOUS
10
118.08
20
-61.6979
11
118.079
21
-61.6978
0
LINE
8
BLACK
6
CONTINUOUS
10
118.079
20
-61.6978
11
118.07
21
-61.695
0
LINE
8
BLACK
6
CONTINUOUS
10
118.07
20
-61.695
11
118.061
21
-61.6922
0
LINE
8
BLACK
6
CONTINUOUS
10
118.061
20
-61.6922
11
118.061
21
-61.692
0
LINE
8
BLACK
6
CONTINUOUS
10
118.061
20
-61.692
11
118.061
21
-61.6919
0
LINE
8
BLACK
6
CONTINUOUS
10
118.061
20
-61.6919
11
118.052
21
-61.6874
0
LINE
8
BLACK
6
CONTINUOUS
10
118.052
20
-61.6874
11
118.044
21
-61.6829
0
LINE
8
BLACK
6
CONTINUOUS
10
118.044
20
-61.6829
11
118.044
21
-61.6827
0
LINE
8
BLACK
6
CONTINUOUS
10
118.044
20
-61.6827
11
118.044
21
-61.6825
0
LINE
8
BLACK
6
CONTINUOUS
10
118.044
20
-61.6825
11
118.036
21
-61.6765
0
LINE
8
BLACK
6
CONTINUOUS
10
118.036
20
-61.6765
11
118.029
21
-61.6705
0
LINE
8
BLACK
6
CONTINUOUS
10
118.029
20
-61.6705
11
118.029
21
-61.6702
0
LINE
8
BLACK
6
CONTINUOUS
10
118.029
20
-61.6702
11
118.029
21
-61.67
0
LINE
8
BLACK
6
CONTINUOUS
10
118.029
20
-61.67
11
118.023
21
-61.6627
0
LINE
8
BLACK
6
CONTINUOUS
10
118.023
20
-61.6627
11
118.017
21
-61.6553
0
LINE
8
BLACK
6
CONTINUOUS
10
118.017
20
-61.6553
11
118.017
21
-61.655
0
LINE
8
BLACK
6
CONTINUOUS
10
118.017
20
-61.655
11
118.016
21
-61.6548
0
LINE
8
BLACK
6
CONTINUOUS
10
118.016
20
-61.6548
11
118.012
21
-61.6465
0
LINE
8
BLACK
6
CONTINUOUS
10
118.012
20
-61.6465
11
118.008
21
-61.6381
0
LINE
8
BLACK
6
CONTINUOUS
10
118.008
20
-61.6381
11
118.007
21
-61.6378
0
LINE
8
BLACK
6
CONTINUOUS
10
118.007
20
-61.6378
11
118.007
21
-61.6375
0
LINE
8
BLACK
6
CONTINUOUS
10
118.007
20
-61.6375
11
118.005
21
-61.6285
0
LINE
8
BLACK
6
CONTINUOUS
10
118.005
20
-61.6285
11
118.002
21
-61.6194
0
LINE
8
BLACK
6
CONTINUOUS
10
118.002
20
-61.6194
11
118.002
21
-61.6191
0
LINE
8
BLACK
6
CONTINUOUS
10
118.002
20
-61.6191
11
118.002
21
-61.6187
0
LINE
8
BLACK
6
CONTINUOUS
10
118.002
20
-61.6187
11
118.001
21
-61.6093
0
LINE
8
BLACK
6
CONTINUOUS
10
118.001
20
-61.6093
11
118
21
-61.6
0
LINE
8
BLACK
6
CONTINUOUS
10
118
20
-61.6
11
118
21
-49.5049
0
LINE
8
BLACK
6
CONTINUOUS
10
118
20
-49.5049
11
118
21
-49.5004
0
LINE
8
BLACK
6
CONTINUOUS
10
118
20
-49.5004
11
117.995
21
-49.5
0
LINE
8
BLACK
6
CONTINUOUS
10
117.995
20
-49.5
11
103.8
21
-49.5
0
LINE
8
BLACK
6
CONTINUOUS
10
103.8
20
-49.5
11
103.799
21
-49.5
0
LINE
8
BLACK
6
CONTINUOUS
10
103.799
20
-49.5
11
103.799
21
-49.5
0
LINE
8
BLACK
6
CONTINUOUS
10
103.799
20
-49.5
11
103.799
21
-49.5
0
LINE
8
BLACK
6
CONTINUOUS
10
103.799
20
-49.5
11
103.799
21
-49.5
0
LINE
8
BLACK
6
CONTINUOUS
10
103.799
20
-49.5
11
103.789
21
-49.4989
0
LINE
8
BLACK
6
CONTINUOUS
10
103.789
20
-49.4989
11
103.78
21
-49.498
0
LINE
8
BLACK
6
CONTINUOUS
10
103.78
20
-49.498
11
103.78
21
-49.4979
0
LINE
8
BLACK
6
CONTINUOUS
10
103.78
20
-49.4979
11
103.779
21
-49.4978
0
LINE
8
BLACK
6
CONTINUOUS
10
103.779
20
-49.4978
11
103.77
21
-49.495
0
LINE
8
BLACK
6
CONTINUOUS
10
103.77
20
-49.495
11
103.761
21
-49.4922
0
LINE
8
BLACK
6
CONTINUOUS
10
103.761
20
-49.4922
11
103.761
21
-49.492
0
LINE
8
BLACK
6
CONTINUOUS
10
103.761
20
-49.492
11
103.761
21
-49.4919
0
LINE
8
BLACK
6
CONTINUOUS
10
103.761
20
-49.4919
11
103.752
21
-49.4874
0
LINE
8
BLACK
6
CONTINUOUS
10
103.752
20
-49.4874
11
103.744
21
-49.4829
0
LINE
8
BLACK
6
CONTINUOUS
10
103.744
20
-49.4829
11
103.744
21
-49.4827
0
LINE
8
BLACK
6
CONTINUOUS
10
103.744
20
-49.4827
11
103.744
21
-49.4825
0
LINE
8
BLACK
6
CONTINUOUS
10
103.744
20
-49.4825
11
103.736
21
-49.4765
0
LINE
8
BLACK
6
CONTINUOUS
10
103.736
20
-49.4765
11
103.729
21
-49.4705
0
LINE
8
BLACK
6
CONTINUOUS
10
103.729
20
-49.4705
11
103.729
21
-49.4702
0
LINE
8
BLACK
6
CONTINUOUS
10
103.729
20
-49.4702
11
103.729
21
-49.47
0
LINE
8
BLACK
6
CONTINUOUS
10
103.729
20
-49.47
11
103.723
21
-49.4626
0
LINE
8
BLACK
6
CONTINUOUS
10
103.723
20
-49.4626
11
103.717
21
-49.4553
0
LINE
8
BLACK
6
CONTINUOUS
10
103.717
20
-49.4553
11
103.717
21
-49.455
0
LINE
8
BLACK
6
CONTINUOUS
10
103.717
20
-49.455
11
103.716
21
-49.4548
0
LINE
8
BLACK
6
CONTINUOUS
10
103.716
20
-49.4548
11
103.712
21
-49.4465
0
LINE
8
BLACK
6
CONTINUOUS
10
103.712
20
-49.4465
11
103.708
21
-49.4381
0
LINE
8
BLACK
6
CONTINUOUS
10
103.708
20
-49.4381
11
103.707
21
-49.4378
0
LINE
8
BLACK
6
CONTINUOUS
10
103.707
20
-49.4378
11
103.707
21
-49.4375
0
LINE
8
BLACK
6
CONTINUOUS
10
103.707
20
-49.4375
11
103.705
21
-49.4285
0
LINE
8
BLACK
6
CONTINUOUS
10
103.705
20
-49.4285
11
103.702
21
-49.4194
0
LINE
8
BLACK
6
CONTINUOUS
10
103.702
20
-49.4194
11
103.702
21
-49.4191
0
LINE
8
BLACK
6
CONTINUOUS
10
103.702
20
-49.4191
11
103.702
21
-49.4187
0
LINE
8
BLACK
6
CONTINUOUS
10
103.702
20
-49.4187
11
103.701
21
-49.4093
0
LINE
8
BLACK
6
CONTINUOUS
10
103.701
20
-49.4093
11
103.7
21
-49.4
0
LINE
8
BLACK
6
CONTINUOUS
10
103.7
20
-49.4
11
103.7
21
-36.5
0
LINE
8
BLACK
6
CONTINUOUS
10
103.7
20
-36.5
11
103.7
21
-36.4993
0
LINE
8
BLACK
6
CONTINUOUS
10
103.7
20
-36.4993
11
103.7
21
-36.4993
0
LINE
8
BLACK
6
CONTINUOUS
10
103.7
20
-36.4993
11
103.7
21
-36.4993
0
LINE
8
BLACK
6
CONTINUOUS
10
103.7
20
-36.4993
11
103.7
21
-36.4986
0
LINE
8
BLACK
6
CONTINUOUS
10
103.7
20
-36.4986
11
103.701
21
-36.4893
0
LINE
8
BLACK
6
CONTINUOUS
10
103.701
20
-36.4893
11
103.702
21
-36.4799
0
LINE
8
BLACK
6
CONTINUOUS
10
103.702
20
-36.4799
11
103.702
21
-36.4796
0
LINE
8
BLACK
6
CONTINUOUS
10
103.702
20
-36.4796
11
103.702
21
-36.4792
0
LINE
8
BLACK
6
CONTINUOUS
10
103.702
20
-36.4792
11
103.705
21
-36.4702
0
LINE
8
BLACK
6
CONTINUOUS
10
103.705
20
-36.4702
11
103.708
21
-36.4612
0
LINE
8
BLACK
6
CONTINUOUS
10
103.708
20
-36.4612
11
103.708
21
-36.4609
0
LINE
8
BLACK
6
CONTINUOUS
10
103.708
20
-36.4609
11
103.708
21
-36.4606
0
LINE
8
BLACK
6
CONTINUOUS
10
103.708
20
-36.4606
11
103.713
21
-36.4523
0
LINE
8
BLACK
6
CONTINUOUS
10
103.713
20
-36.4523
11
103.717
21
-36.4441
0
LINE
8
BLACK
6
CONTINUOUS
10
103.717
20
-36.4441
11
103.717
21
-36.4438
0
LINE
8
BLACK
6
CONTINUOUS
10
103.717
20
-36.4438
11
103.717
21
-36.4435
0
LINE
8
BLACK
6
CONTINUOUS
10
103.717
20
-36.4435
11
103.724
21
-36.4363
0
LINE
8
BLACK
6
CONTINUOUS
10
103.724
20
-36.4363
11
103.73
21
-36.429
0
LINE
8
BLACK
6
CONTINUOUS
10
103.73
20
-36.429
11
103.73
21
-36.4288
0
LINE
8
BLACK
6
CONTINUOUS
10
103.73
20
-36.4288
11
103.73
21
-36.4286
0
LINE
8
BLACK
6
CONTINUOUS
10
103.73
20
-36.4286
11
103.737
21
-36.4227
0
LINE
8
BLACK
6
CONTINUOUS
10
103.737
20
-36.4227
11
103.745
21
-36.4167
0
LINE
8
BLACK
6
CONTINUOUS
10
103.745
20
-36.4167
11
103.745
21
-36.4165
0
LINE
8
BLACK
6
CONTINUOUS
10
103.745
20
-36.4165
11
103.745
21
-36.4163
0
LINE
8
BLACK
6
CONTINUOUS
10
103.745
20
-36.4163
11
103.754
21
-36.412
0
LINE
8
BLACK
6
CONTINUOUS
10
103.754
20
-36.412
11
103.762
21
-36.4075
0
LINE
8
BLACK
6
CONTINUOUS
10
103.762
20
-36.4075
11
103.762
21
-36.4074
0
LINE
8
BLACK
6
CONTINUOUS
10
103.762
20
-36.4074
11
103.763
21
-36.4073
0
LINE
8
BLACK
6
CONTINUOUS
10
103.763
20
-36.4073
11
103.772
21
-36.4046
0
LINE
8
BLACK
6
CONTINUOUS
10
103.772
20
-36.4046
11
103.781
21
-36.4019
0
LINE
8
BLACK
6
CONTINUOUS
10
103.781
20
-36.4019
11
103.781
21
-36.4019
0
LINE
8
BLACK
6
CONTINUOUS
10
103.781
20
-36.4019
11
103.781
21
-36.4018
0
LINE
8
BLACK
6
CONTINUOUS
10
103.781
20
-36.4018
11
103.791
21
-36.4009
0
LINE
8
BLACK
6
CONTINUOUS
10
103.791
20
-36.4009
11
103.8
21
-36.4
0
LINE
8
BLACK
6
CONTINUOUS
10
103.8
20
-36.4
11
132.9
21
-36.4
0
LINE
8
BLACK
6
CONTINUOUS
10
132.9
20
-36.4
11
132.901
21
-36.4
0
LINE
8
BLACK
6
CONTINUOUS
10
108.5
20
-60.3205
11
108.566
21
-60.3643
0
LINE
8
BLACK
6
CONTINUOUS
10
108.566
20
-60.3643
11
108.622
21
-60.42
0
LINE
8
BLACK
6
CONTINUOUS
10
108.622
20
-60.42
11
108.665
21
-60.4855
0
LINE
8
BLACK
6
CONTINUOUS
10
108.665
20
-60.4855
11
108.696
21
-60.5583
0
LINE
8
BLACK
6
CONTINUOUS
10
108.696
20
-60.5583
11
108.711
21
-60.6356
0
LINE
8
BLACK
6
CONTINUOUS
10
108.711
20
-60.6356
11
108.711
21
-60.7144
0
LINE
8
BLACK
6
CONTINUOUS
10
108.711
20
-60.7144
11
108.696
21
-60.7917
0
LINE
8
BLACK
6
CONTINUOUS
10
108.696
20
-60.7917
11
108.665
21
-60.8645
0
LINE
8
BLACK
6
CONTINUOUS
10
108.665
20
-60.8645
11
108.622
21
-60.93
0
LINE
8
BLACK
6
CONTINUOUS
10
108.622
20
-60.93
11
108.566
21
-60.9857
0
LINE
8
BLACK
6
CONTINUOUS
10
108.566
20
-60.9857
11
108.5
21
-61.0295
0
LINE
8
BLACK
6
CONTINUOUS
10
108.5
20
-61.0295
11
108.428
21
-61.0596
0
LINE
8
BLACK
6
CONTINUOUS
10
108.428
20
-61.0596
11
108.35
21
-61.075
0
LINE
8
BLACK
6
CONTINUOUS
10
108.35
20
-61.075
11
108.272
21
-61.075
0
LINE
8
BLACK
6
CONTINUOUS
10
108.272
20
-61.075
11
108.194
21
-61.0596
0
LINE
8
BLACK
6
CONTINUOUS
10
108.194
20
-61.0596
11
108.121
21
-61.0295
0
LINE
8
BLACK
6
CONTINUOUS
10
108.121
20
-61.0295
11
108.056
21
-60.9857
0
LINE
8
BLACK
6
CONTINUOUS
10
108.056
20
-60.9857
11
108
21
-60.93
0
LINE
8
BLACK
6
CONTINUOUS
10
108
20
-60.93
11
107.956
21
-60.8645
0
LINE
8
BLACK
6
CONTINUOUS
10
107.956
20
-60.8645
11
107.926
21
-60.7917
0
LINE
8
BLACK
6
CONTINUOUS
10
107.926
20
-60.7917
11
107.911
21
-60.7144
0
LINE
8
BLACK
6
CONTINUOUS
10
107.911
20
-60.7144
11
107.911
21
-60.6356
0
LINE
8
BLACK
6
CONTINUOUS
10
107.911
20
-60.6356
11
107.926
21
-60.5583
0
LINE
8
BLACK
6
CONTINUOUS
10
107.926
20
-60.5583
11
107.956
21
-60.4855
0
LINE
8
BLACK
6
CONTINUOUS
10
107.956
20
-60.4855
11
108
21
-60.42
0
LINE
8
BLACK
6
CONTINUOUS
10
108
20
-60.42
11
108.056
21
-60.3643
0
LINE
8
BLACK
6
CONTINUOUS
10
108.056
20
-60.3643
11
108.121
21
-60.3205
0
LINE
8
BLACK
6
CONTINUOUS
10
108.121
20
-60.3205
11
108.186
21
-60.2938
0
LINE
8
BLACK
6
CONTINUOUS
10
108.186
20
-60.2938
11
108.186
21
-60.1032
0
LINE
8
BLACK
6
CONTINUOUS
10
108.186
20
-60.1032
11
108.186
21
-60.1032
0
LINE
8
BLACK
6
CONTINUOUS
10
108.186
20
-60.1032
11
108.186
21
-58.7952
0
LINE
8
BLACK
6
CONTINUOUS
10
108.186
20
-58.7952
11
108.185
21
-58.789
0
LINE
8
BLACK
6
CONTINUOUS
10
108.185
20
-58.789
11
108.186
21
-58.7829
0
LINE
8
BLACK
6
CONTINUOUS
10
108.186
20
-58.7829
11
108.186
21
-58.7829
0
LINE
8
BLACK
6
CONTINUOUS
10
108.186
20
-58.7829
11
108.188
21
-58.7645
0
LINE
8
BLACK
6
CONTINUOUS
10
108.188
20
-58.7645
11
108.195
21
-58.741
0
LINE
8
BLACK
6
CONTINUOUS
10
108.195
20
-58.741
11
108.207
21
-58.7193
0
LINE
8
BLACK
6
CONTINUOUS
10
108.207
20
-58.7193
11
108.222
21
-58.7002
0
LINE
8
BLACK
6
CONTINUOUS
10
108.222
20
-58.7002
11
108.227
21
-58.6963
0
LINE
8
BLACK
6
CONTINUOUS
10
108.227
20
-58.6963
11
108.975
21
-57.9482
0
LINE
8
BLACK
6
CONTINUOUS
10
108.975
20
-57.9482
11
108.975
21
-53.7518
0
LINE
8
BLACK
6
CONTINUOUS
10
108.975
20
-53.7518
11
108.881
21
-53.6579
0
LINE
8
BLACK
6
CONTINUOUS
10
108.881
20
-53.6579
11
108.817
21
-53.6846
0
LINE
8
BLACK
6
CONTINUOUS
10
108.817
20
-53.6846
11
108.739
21
-53.7
0
LINE
8
BLACK
6
CONTINUOUS
10
108.739
20
-53.7
11
108.661
21
-53.7
0
LINE
8
BLACK
6
CONTINUOUS
10
108.661
20
-53.7
11
108.583
21
-53.6846
0
LINE
8
BLACK
6
CONTINUOUS
10
108.583
20
-53.6846
11
108.511
21
-53.6545
0
LINE
8
BLACK
6
CONTINUOUS
10
108.511
20
-53.6545
11
108.445
21
-53.6107
0
LINE
8
BLACK
6
CONTINUOUS
10
108.445
20
-53.6107
11
108.389
21
-53.555
0
LINE
8
BLACK
6
CONTINUOUS
10
108.389
20
-53.555
11
108.346
21
-53.4895
0
LINE
8
BLACK
6
CONTINUOUS
10
108.346
20
-53.4895
11
108.315
21
-53.4167
0
LINE
8
BLACK
6
CONTINUOUS
10
108.315
20
-53.4167
11
108.3
21
-53.3394
0
LINE
8
BLACK
6
CONTINUOUS
10
108.3
20
-53.3394
11
108.3
21
-53.2606
0
LINE
8
BLACK
6
CONTINUOUS
10
108.3
20
-53.2606
11
108.315
21
-53.1833
0
LINE
8
BLACK
6
CONTINUOUS
10
108.315
20
-53.1833
11
108.346
21
-53.1105
0
LINE
8
BLACK
6
CONTINUOUS
10
108.346
20
-53.1105
11
108.389
21
-53.045
0
LINE
8
BLACK
6
CONTINUOUS
10
108.389
20
-53.045
11
108.445
21
-52.9893
0
LINE
8
BLACK
6
CONTINUOUS
10
108.445
20
-52.9893
11
108.511
21
-52.9455
0
LINE
8
BLACK
6
CONTINUOUS
10
108.511
20
-52.9455
11
108.583
21
-52.9154
0
LINE
8
BLACK
6
CONTINUOUS
10
108.583
20
-52.9154
11
108.661
21
-52.9
0
LINE
8
BLACK
6
CONTINUOUS
10
108.661
20
-52.9
11
108.739
21
-52.9
0
LINE
8
BLACK
6
CONTINUOUS
10
108.739
20
-52.9
11
108.817
21
-52.9154
0
LINE
8
BLACK
6
CONTINUOUS
10
108.817
20
-52.9154
11
108.889
21
-52.9455
0
LINE
8
BLACK
6
CONTINUOUS
10
108.889
20
-52.9455
11
108.955
21
-52.9893
0
LINE
8
BLACK
6
CONTINUOUS
10
108.955
20
-52.9893
11
109.011
21
-53.045
0
LINE
8
BLACK
6
CONTINUOUS
10
109.011
20
-53.045
11
109.054
21
-53.1105
0
LINE
8
BLACK
6
CONTINUOUS
10
109.054
20
-53.1105
11
109.085
21
-53.1833
0
LINE
8
BLACK
6
CONTINUOUS
10
109.085
20
-53.1833
11
109.1
21
-53.2606
0
LINE
8
BLACK
6
CONTINUOUS
10
109.1
20
-53.2606
11
109.1
21
-53.3394
0
LINE
8
BLACK
6
CONTINUOUS
10
109.1
20
-53.3394
11
109.085
21
-53.4167
0
LINE
8
BLACK
6
CONTINUOUS
10
109.085
20
-53.4167
11
109.058
21
-53.4811
0
LINE
8
BLACK
6
CONTINUOUS
10
109.058
20
-53.4811
11
109.184
21
-53.6073
0
LINE
8
BLACK
6
CONTINUOUS
10
109.184
20
-53.6073
11
109.189
21
-53.6112
0
LINE
8
BLACK
6
CONTINUOUS
10
109.189
20
-53.6112
11
109.193
21
-53.6159
0
LINE
8
BLACK
6
CONTINUOUS
10
109.193
20
-53.6159
11
109.204
21
-53.6302
0
LINE
8
BLACK
6
CONTINUOUS
10
109.204
20
-53.6302
11
109.214
21
-53.6475
0
LINE
8
BLACK
6
CONTINUOUS
10
109.214
20
-53.6475
11
109.216
21
-53.6519
0
LINE
8
BLACK
6
CONTINUOUS
10
109.216
20
-53.6519
11
109.223
21
-53.6755
0
LINE
8
BLACK
6
CONTINUOUS
10
109.223
20
-53.6755
11
109.225
21
-53.6939
0
LINE
8
BLACK
6
CONTINUOUS
10
109.225
20
-53.6939
11
109.225
21
-53.6939
0
LINE
8
BLACK
6
CONTINUOUS
10
109.225
20
-53.6939
11
109.226
21
-53.7
0
LINE
8
BLACK
6
CONTINUOUS
10
109.226
20
-53.7
11
109.225
21
-53.7061
0
LINE
8
BLACK
6
CONTINUOUS
10
109.225
20
-53.7061
11
109.225
21
-57.9939
0
LINE
8
BLACK
6
CONTINUOUS
10
109.225
20
-57.9939
11
109.226
21
-58
0
LINE
8
BLACK
6
CONTINUOUS
10
109.226
20
-58
11
109.225
21
-58.0061
0
LINE
8
BLACK
6
CONTINUOUS
10
109.225
20
-58.0061
11
109.225
21
-58.0061
0
LINE
8
BLACK
6
CONTINUOUS
10
109.225
20
-58.0061
11
109.223
21
-58.0245
0
LINE
8
BLACK
6
CONTINUOUS
10
109.223
20
-58.0245
11
109.219
21
-58.0394
0
LINE
8
BLACK
6
CONTINUOUS
10
109.219
20
-58.0394
11
109.216
21
-58.0481
0
LINE
8
BLACK
6
CONTINUOUS
10
109.216
20
-58.0481
11
109.204
21
-58.0698
0
LINE
8
BLACK
6
CONTINUOUS
10
109.204
20
-58.0698
11
109.193
21
-58.0841
0
LINE
8
BLACK
6
CONTINUOUS
10
109.193
20
-58.0841
11
109.193
21
-58.0841
0
LINE
8
BLACK
6
CONTINUOUS
10
109.193
20
-58.0841
11
109.189
21
-58.0888
0
LINE
8
BLACK
6
CONTINUOUS
10
109.189
20
-58.0888
11
109.184
21
-58.0927
0
LINE
8
BLACK
6
CONTINUOUS
10
109.184
20
-58.0927
11
108.436
21
-58.8408
0
LINE
8
BLACK
6
CONTINUOUS
10
108.436
20
-58.8408
11
108.436
21
-60.2938
0
LINE
8
BLACK
6
CONTINUOUS
10
108.436
20
-60.2938
11
108.5
21
-60.3205
0
LINE
8
BLACK
6
CONTINUOUS
10
102.417
20
-59.1904
11
102.489
21
-59.2205
0
LINE
8
BLACK
6
CONTINUOUS
10
102.489
20
-59.2205
11
102.555
21
-59.2643
0
LINE
8
BLACK
6
CONTINUOUS
10
102.555
20
-59.2643
11
102.611
21
-59.32
0
LINE
8
BLACK
6
CONTINUOUS
10
102.611
20
-59.32
11
102.654
21
-59.3855
0
LINE
8
BLACK
6
CONTINUOUS
10
102.654
20
-59.3855
11
102.685
21
-59.4583
0
LINE
8
BLACK
6
CONTINUOUS
10
102.685
20
-59.4583
11
102.7
21
-59.5356
0
LINE
8
BLACK
6
CONTINUOUS
10
102.7
20
-59.5356
11
102.7
21
-59.6144
0
LINE
8
BLACK
6
CONTINUOUS
10
102.7
20
-59.6144
11
102.685
21
-59.6917
0
LINE
8
BLACK
6
CONTINUOUS
10
102.685
20
-59.6917
11
102.654
21
-59.7645
0
LINE
8
BLACK
6
CONTINUOUS
10
102.654
20
-59.7645
11
102.611
21
-59.83
0
LINE
8
BLACK
6
CONTINUOUS
10
102.611
20
-59.83
11
102.555
21
-59.8857
0
LINE
8
BLACK
6
CONTINUOUS
10
102.555
20
-59.8857
11
102.489
21
-59.9295
0
LINE
8
BLACK
6
CONTINUOUS
10
102.489
20
-59.9295
11
102.417
21
-59.9596
0
LINE
8
BLACK
6
CONTINUOUS
10
102.417
20
-59.9596
11
102.339
21
-59.975
0
LINE
8
BLACK
6
CONTINUOUS
10
102.339
20
-59.975
11
102.261
21
-59.975
0
LINE
8
BLACK
6
CONTINUOUS
10
102.261
20
-59.975
11
102.183
21
-59.9596
0
LINE
8
BLACK
6
CONTINUOUS
10
102.183
20
-59.9596
11
102.111
21
-59.9295
0
LINE
8
BLACK
6
CONTINUOUS
10
102.111
20
-59.9295
11
102.045
21
-59.8857
0
LINE
8
BLACK
6
CONTINUOUS
10
102.045
20
-59.8857
11
101.989
21
-59.83
0
LINE
8
BLACK
6
CONTINUOUS
10
101.989
20
-59.83
11
101.946
21
-59.7645
0
LINE
8
BLACK
6
CONTINUOUS
10
101.946
20
-59.7645
11
101.915
21
-59.6917
0
LINE
8
BLACK
6
CONTINUOUS
10
101.915
20
-59.6917
11
101.9
21
-59.6144
0
LINE
8
BLACK
6
CONTINUOUS
10
101.9
20
-59.6144
11
101.9
21
-59.5356
0
LINE
8
BLACK
6
CONTINUOUS
10
101.9
20
-59.5356
11
101.915
21
-59.4583
0
LINE
8
BLACK
6
CONTINUOUS
10
101.915
20
-59.4583
11
101.946
21
-59.3855
0
LINE
8
BLACK
6
CONTINUOUS
10
101.946
20
-59.3855
11
101.989
21
-59.32
0
LINE
8
BLACK
6
CONTINUOUS
10
101.989
20
-59.32
11
102.045
21
-59.2643
0
LINE
8
BLACK
6
CONTINUOUS
10
102.045
20
-59.2643
11
102.111
21
-59.2205
0
LINE
8
BLACK
6
CONTINUOUS
10
102.111
20
-59.2205
11
102.183
21
-59.1904
0
LINE
8
BLACK
6
CONTINUOUS
10
102.183
20
-59.1904
11
102.261
21
-59.175
0
LINE
8
BLACK
6
CONTINUOUS
10
102.261
20
-59.175
11
102.339
21
-59.175
0
LINE
8
BLACK
6
CONTINUOUS
10
102.339
20
-59.175
11
102.417
21
-59.1904
0
LINE
8
BLACK
6
CONTINUOUS
10
94.5666
20
-57.8373
11
94.7269
21
-57.8859
0
LINE
8
BLACK
6
CONTINUOUS
10
94.7269
20
-57.8859
11
94.8745
21
-57.9648
0
LINE
8
BLACK
6
CONTINUOUS
10
94.8745
20
-57.9648
11
95.0039
21
-58.0711
0
LINE
8
BLACK
6
CONTINUOUS
10
95.0039
20
-58.0711
11
95.1102
21
-58.2005
0
LINE
8
BLACK
6
CONTINUOUS
10
95.1102
20
-58.2005
11
95.1891
21
-58.3481
0
LINE
8
BLACK
6
CONTINUOUS
10
95.1891
20
-58.3481
11
95.2377
21
-58.5084
0
LINE
8
BLACK
6
CONTINUOUS
10
95.2377
20
-58.5084
11
95.25
21
-58.6333
0
LINE
8
BLACK
6
CONTINUOUS
10
95.25
20
-58.6333
11
95.25
21
-58.9667
0
LINE
8
BLACK
6
CONTINUOUS
10
95.25
20
-58.9667
11
95.2377
21
-59.0916
0
LINE
8
BLACK
6
CONTINUOUS
10
95.2377
20
-59.0916
11
95.1891
21
-59.2519
0
LINE
8
BLACK
6
CONTINUOUS
10
95.1891
20
-59.2519
11
95.1102
21
-59.3995
0
LINE
8
BLACK
6
CONTINUOUS
10
95.1102
20
-59.3995
11
95.0039
21
-59.5289
0
LINE
8
BLACK
6
CONTINUOUS
10
95.0039
20
-59.5289
11
94.8745
21
-59.6352
0
LINE
8
BLACK
6
CONTINUOUS
10
94.8745
20
-59.6352
11
94.7269
21
-59.7141
0
LINE
8
BLACK
6
CONTINUOUS
10
94.7269
20
-59.7141
11
94.5666
21
-59.7627
0
LINE
8
BLACK
6
CONTINUOUS
10
94.5666
20
-59.7627
11
94.4
21
-59.7791
0
LINE
8
BLACK
6
CONTINUOUS
10
94.4
20
-59.7791
11
94.2334
21
-59.7627
0
LINE
8
BLACK
6
CONTINUOUS
10
94.2334
20
-59.7627
11
94.0731
21
-59.7141
0
LINE
8
BLACK
6
CONTINUOUS
10
94.0731
20
-59.7141
11
93.9255
21
-59.6352
0
LINE
8
BLACK
6
CONTINUOUS
10
93.9255
20
-59.6352
11
93.7961
21
-59.5289
0
LINE
8
BLACK
6
CONTINUOUS
10
93.7961
20
-59.5289
11
93.6898
21
-59.3995
0
LINE
8
BLACK
6
CONTINUOUS
10
93.6898
20
-59.3995
11
93.6109
21
-59.2519
0
LINE
8
BLACK
6
CONTINUOUS
10
93.6109
20
-59.2519
11
93.5623
21
-59.0916
0
LINE
8
BLACK
6
CONTINUOUS
10
93.5623
20
-59.0916
11
93.55
21
-58.9667
0
LINE
8
BLACK
6
CONTINUOUS
10
93.55
20
-58.9667
11
93.55
21
-58.6333
0
LINE
8
BLACK
6
CONTINUOUS
10
93.55
20
-58.6333
11
93.5623
21
-58.5084
0
LINE
8
BLACK
6
CONTINUOUS
10
93.5623
20
-58.5084
11
93.6109
21
-58.3481
0
LINE
8
BLACK
6
CONTINUOUS
10
93.6109
20
-58.3481
11
93.6898
21
-58.2005
0
LINE
8
BLACK
6
CONTINUOUS
10
93.6898
20
-58.2005
11
93.7961
21
-58.0711
0
LINE
8
BLACK
6
CONTINUOUS
10
93.7961
20
-58.0711
11
93.9255
21
-57.9648
0
LINE
8
BLACK
6
CONTINUOUS
10
93.9255
20
-57.9648
11
94.0731
21
-57.8859
0
LINE
8
BLACK
6
CONTINUOUS
10
94.0731
20
-57.8859
11
94.2334
21
-57.8373
0
LINE
8
BLACK
6
CONTINUOUS
10
94.2334
20
-57.8373
11
94.4
21
-57.8209
0
LINE
8
BLACK
6
CONTINUOUS
10
94.4
20
-57.8209
11
94.5666
21
-57.8373
0
LINE
8
BLACK
6
CONTINUOUS
10
97.0666
20
-57.8373
11
97.2269
21
-57.8859
0
LINE
8
BLACK
6
CONTINUOUS
10
97.2269
20
-57.8859
11
97.3745
21
-57.9648
0
LINE
8
BLACK
6
CONTINUOUS
10
97.3745
20
-57.9648
11
97.5039
21
-58.0711
0
LINE
8
BLACK
6
CONTINUOUS
10
97.5039
20
-58.0711
11
97.6102
21
-58.2005
0
LINE
8
BLACK
6
CONTINUOUS
10
97.6102
20
-58.2005
11
97.6891
21
-58.3481
0
LINE
8
BLACK
6
CONTINUOUS
10
97.6891
20
-58.3481
11
97.7377
21
-58.5084
0
LINE
8
BLACK
6
CONTINUOUS
10
97.7377
20
-58.5084
11
97.75
21
-58.6333
0
LINE
8
BLACK
6
CONTINUOUS
10
97.75
20
-58.6333
11
97.75
21
-58.9667
0
LINE
8
BLACK
6
CONTINUOUS
10
97.75
20
-58.9667
11
97.7377
21
-59.0916
0
LINE
8
BLACK
6
CONTINUOUS
10
97.7377
20
-59.0916
11
97.6891
21
-59.2519
0
LINE
8
BLACK
6
CONTINUOUS
10
97.6891
20
-59.2519
11
97.6102
21
-59.3995
0
LINE
8
BLACK
6
CONTINUOUS
10
97.6102
20
-59.3995
11
97.5039
21
-59.5289
0
LINE
8
BLACK
6
CONTINUOUS
10
97.5039
20
-59.5289
11
97.3745
21
-59.6352
0
LINE
8
BLACK
6
CONTINUOUS
10
97.3745
20
-59.6352
11
97.2269
21
-59.7141
0
LINE
8
BLACK
6
CONTINUOUS
10
97.2269
20
-59.7141
11
97.0666
21
-59.7627
0
LINE
8
BLACK
6
CONTINUOUS
10
97.0666
20
-59.7627
11
96.9
21
-59.7791
0
LINE
8
BLACK
6
CONTINUOUS
10
96.9
20
-59.7791
11
96.7334
21
-59.7627
0
LINE
8
BLACK
6
CONTINUOUS
10
96.7334
20
-59.7627
11
96.5731
21
-59.7141
0
LINE
8
BLACK
6
CONTINUOUS
10
96.5731
20
-59.7141
11
96.4255
21
-59.6352
0
LINE
8
BLACK
6
CONTINUOUS
10
96.4255
20
-59.6352
11
96.2961
21
-59.5289
0
LINE
8
BLACK
6
CONTINUOUS
10
96.2961
20
-59.5289
11
96.1898
21
-59.3995
0
LINE
8
BLACK
6
CONTINUOUS
10
96.1898
20
-59.3995
11
96.1109
21
-59.2519
0
LINE
8
BLACK
6
CONTINUOUS
10
96.1109
20
-59.2519
11
96.0623
21
-59.0916
0
LINE
8
BLACK
6
CONTINUOUS
10
96.0623
20
-59.0916
11
96.05
21
-58.9667
0
LINE
8
BLACK
6
CONTINUOUS
10
96.05
20
-58.9667
11
96.05
21
-58.6333
0
LINE
8
BLACK
6
CONTINUOUS
10
96.05
20
-58.6333
11
96.0623
21
-58.5084
0
LINE
8
BLACK
6
CONTINUOUS
10
96.0623
20
-58.5084
11
96.1109
21
-58.3481
0
LINE
8
BLACK
6
CONTINUOUS
10
96.1109
20
-58.3481
11
96.1898
21
-58.2005
0
LINE
8
BLACK
6
CONTINUOUS
10
96.1898
20
-58.2005
11
96.2961
21
-58.0711
0
LINE
8
BLACK
6
CONTINUOUS
10
96.2961
20
-58.0711
11
96.4255
21
-57.9648
0
LINE
8
BLACK
6
CONTINUOUS
10
96.4255
20
-57.9648
11
96.5731
21
-57.8859
0
LINE
8
BLACK
6
CONTINUOUS
10
96.5731
20
-57.8859
11
96.7334
21
-57.8373
0
LINE
8
BLACK
6
CONTINUOUS
10
96.7334
20
-57.8373
11
96.9
21
-57.8209
0
LINE
8
BLACK
6
CONTINUOUS
10
96.9
20
-57.8209
11
97.0666
21
-57.8373
0
LINE
8
BLACK
6
CONTINUOUS
10
108.917
20
-51.5154
11
108.989
21
-51.5455
0
LINE
8
BLACK
6
CONTINUOUS
10
108.989
20
-51.5455
11
109.055
21
-51.5893
0
LINE
8
BLACK
6
CONTINUOUS
10
109.055
20
-51.5893
11
109.111
21
-51.645
0
LINE
8
BLACK
6
CONTINUOUS
10
109.111
20
-51.645
11
109.154
21
-51.7105
0
LINE
8
BLACK
6
CONTINUOUS
10
109.154
20
-51.7105
11
109.185
21
-51.7833
0
LINE
8
BLACK
6
CONTINUOUS
10
109.185
20
-51.7833
11
109.2
21
-51.8606
0
LINE
8
BLACK
6
CONTINUOUS
10
109.2
20
-51.8606
11
109.2
21
-51.9394
0
LINE
8
BLACK
6
CONTINUOUS
10
109.2
20
-51.9394
11
109.185
21
-52.0167
0
LINE
8
BLACK
6
CONTINUOUS
10
109.185
20
-52.0167
11
109.154
21
-52.0895
0
LINE
8
BLACK
6
CONTINUOUS
10
109.154
20
-52.0895
11
109.111
21
-52.155
0
LINE
8
BLACK
6
CONTINUOUS
10
109.111
20
-52.155
11
109.055
21
-52.2107
0
LINE
8
BLACK
6
CONTINUOUS
10
109.055
20
-52.2107
11
108.989
21
-52.2545
0
LINE
8
BLACK
6
CONTINUOUS
10
108.989
20
-52.2545
11
108.917
21
-52.2846
0
LINE
8
BLACK
6
CONTINUOUS
10
108.917
20
-52.2846
11
108.839
21
-52.3
0
LINE
8
BLACK
6
CONTINUOUS
10
108.839
20
-52.3
11
108.761
21
-52.3
0
LINE
8
BLACK
6
CONTINUOUS
10
108.761
20
-52.3
11
108.683
21
-52.2846
0
LINE
8
BLACK
6
CONTINUOUS
10
108.683
20
-52.2846
11
108.619
21
-52.2579
0
LINE
8
BLACK
6
CONTINUOUS
10
108.619
20
-52.2579
11
101.993
21
-58.884
0
LINE
8
BLACK
6
CONTINUOUS
10
101.993
20
-58.884
11
101.989
21
-58.8888
0
LINE
8
BLACK
6
CONTINUOUS
10
101.989
20
-58.8888
11
101.97
21
-58.9044
0
LINE
8
BLACK
6
CONTINUOUS
10
101.97
20
-58.9044
11
101.948
21
-58.916
0
LINE
8
BLACK
6
CONTINUOUS
10
101.948
20
-58.916
11
101.925
21
-58.9232
0
LINE
8
BLACK
6
CONTINUOUS
10
101.925
20
-58.9232
11
101.906
21
-58.925
0
LINE
8
BLACK
6
CONTINUOUS
10
101.906
20
-58.925
11
101.906
21
-58.925
0
LINE
8
BLACK
6
CONTINUOUS
10
101.906
20
-58.925
11
101.9
21
-58.9256
0
LINE
8
BLACK
6
CONTINUOUS
10
101.9
20
-58.9256
11
101.894
21
-58.925
0
LINE
8
BLACK
6
CONTINUOUS
10
101.894
20
-58.925
11
100.25
21
-58.925
0
LINE
8
BLACK
6
CONTINUOUS
10
100.25
20
-58.925
11
100.25
21
-59.525
0
LINE
8
BLACK
6
CONTINUOUS
10
100.25
20
-59.525
11
100.245
21
-59.5738
0
LINE
8
BLACK
6
CONTINUOUS
10
100.245
20
-59.5738
11
100.231
21
-59.6207
0
LINE
8
BLACK
6
CONTINUOUS
10
100.231
20
-59.6207
11
100.208
21
-59.6639
0
LINE
8
BLACK
6
CONTINUOUS
10
100.208
20
-59.6639
11
100.177
21
-59.7018
0
LINE
8
BLACK
6
CONTINUOUS
10
100.177
20
-59.7018
11
100.139
21
-59.7329
0
LINE
8
BLACK
6
CONTINUOUS
10
100.139
20
-59.7329
11
100.096
21
-59.756
0
LINE
8
BLACK
6
CONTINUOUS
10
100.096
20
-59.756
11
100.049
21
-59.7702
0
LINE
8
BLACK
6
CONTINUOUS
10
100.049
20
-59.7702
11
100
21
-59.775
0
LINE
8
BLACK
6
CONTINUOUS
10
100
20
-59.775
11
98.8
21
-59.775
0
LINE
8
BLACK
6
CONTINUOUS
10
98.8
20
-59.775
11
98.7512
21
-59.7702
0
LINE
8
BLACK
6
CONTINUOUS
10
98.7512
20
-59.7702
11
98.7043
21
-59.756
0
LINE
8
BLACK
6
CONTINUOUS
10
98.7043
20
-59.756
11
98.6611
21
-59.7329
0
LINE
8
BLACK
6
CONTINUOUS
10
98.6611
20
-59.7329
11
98.6232
21
-59.7018
0
LINE
8
BLACK
6
CONTINUOUS
10
98.6232
20
-59.7018
11
98.5921
21
-59.6639
0
LINE
8
BLACK
6
CONTINUOUS
10
98.5921
20
-59.6639
11
98.569
21
-59.6207
0
LINE
8
BLACK
6
CONTINUOUS
10
98.569
20
-59.6207
11
98.5548
21
-59.5738
0
LINE
8
BLACK
6
CONTINUOUS
10
98.5548
20
-59.5738
11
98.55
21
-59.525
0
LINE
8
BLACK
6
CONTINUOUS
10
98.55
20
-59.525
11
98.55
21
-58.075
0
LINE
8
BLACK
6
CONTINUOUS
10
98.55
20
-58.075
11
98.5548
21
-58.0262
0
LINE
8
BLACK
6
CONTINUOUS
10
98.5548
20
-58.0262
11
98.569
21
-57.9793
0
LINE
8
BLACK
6
CONTINUOUS
10
98.569
20
-57.9793
11
98.5921
21
-57.9361
0
LINE
8
BLACK
6
CONTINUOUS
10
98.5921
20
-57.9361
11
98.6232
21
-57.8982
0
LINE
8
BLACK
6
CONTINUOUS
10
98.6232
20
-57.8982
11
98.6611
21
-57.8671
0
LINE
8
BLACK
6
CONTINUOUS
10
98.6611
20
-57.8671
11
98.7043
21
-57.844
0
LINE
8
BLACK
6
CONTINUOUS
10
98.7043
20
-57.844
11
98.7512
21
-57.8298
0
LINE
8
BLACK
6
CONTINUOUS
10
98.7512
20
-57.8298
11
98.8
21
-57.825
0
LINE
8
BLACK
6
CONTINUOUS
10
98.8
20
-57.825
11
100
21
-57.825
0
LINE
8
BLACK
6
CONTINUOUS
10
100
20
-57.825
11
100.049
21
-57.8298
0
LINE
8
BLACK
6
CONTINUOUS
10
100.049
20
-57.8298
11
100.096
21
-57.844
0
LINE
8
BLACK
6
CONTINUOUS
10
100.096
20
-57.844
11
100.139
21
-57.8671
0
LINE
8
BLACK
6
CONTINUOUS
10
100.139
20
-57.8671
11
100.177
21
-57.8982
0
LINE
8
BLACK
6
CONTINUOUS
10
100.177
20
-57.8982
11
100.208
21
-57.9361
0
LINE
8
BLACK
6
CONTINUOUS
10
100.208
20
-57.9361
11
100.231
21
-57.9793
0
LINE
8
BLACK
6
CONTINUOUS
10
100.231
20
-57.9793
11
100.245
21
-58.0262
0
LINE
8
BLACK
6
CONTINUOUS
10
100.245
20
-58.0262
11
100.25
21
-58.075
0
LINE
8
BLACK
6
CONTINUOUS
10
100.25
20
-58.075
11
100.25
21
-58.675
0
LINE
8
BLACK
6
CONTINUOUS
10
100.25
20
-58.675
11
101.848
21
-58.675
0
LINE
8
BLACK
6
CONTINUOUS
10
101.848
20
-58.675
11
108.442
21
-52.0811
0
LINE
8
BLACK
6
CONTINUOUS
10
108.442
20
-52.0811
11
108.415
21
-52.0167
0
LINE
8
BLACK
6
CONTINUOUS
10
108.415
20
-52.0167
11
108.4
21
-51.9394
0
LINE
8
BLACK
6
CONTINUOUS
10
108.4
20
-51.9394
11
108.4
21
-51.8606
0
LINE
8
BLACK
6
CONTINUOUS
10
108.4
20
-51.8606
11
108.415
21
-51.7833
0
LINE
8
BLACK
6
CONTINUOUS
10
108.415
20
-51.7833
11
108.446
21
-51.7105
0
LINE
8
BLACK
6
CONTINUOUS
10
108.446
20
-51.7105
11
108.489
21
-51.645
0
LINE
8
BLACK
6
CONTINUOUS
10
108.489
20
-51.645
11
108.545
21
-51.5893
0
LINE
8
BLACK
6
CONTINUOUS
10
108.545
20
-51.5893
11
108.611
21
-51.5455
0
LINE
8
BLACK
6
CONTINUOUS
10
108.611
20
-51.5455
11
108.683
21
-51.5154
0
LINE
8
BLACK
6
CONTINUOUS
10
108.683
20
-51.5154
11
108.761
21
-51.5
0
LINE
8
BLACK
6
CONTINUOUS
10
108.761
20
-51.5
11
108.839
21
-51.5
0
LINE
8
BLACK
6
CONTINUOUS
10
108.839
20
-51.5
11
108.917
21
-51.5154
0
LINE
8
BLACK
6
CONTINUOUS
10
114.917
20
-52.9154
11
114.989
21
-52.9455
0
LINE
8
BLACK
6
CONTINUOUS
10
114.989
20
-52.9455
11
115.055
21
-52.9893
0
LINE
8
BLACK
6
CONTINUOUS
10
115.055
20
-52.9893
11
115.111
21
-53.045
0
LINE
8
BLACK
6
CONTINUOUS
10
115.111
20
-53.045
11
115.154
21
-53.1105
0
LINE
8
BLACK
6
CONTINUOUS
10
115.154
20
-53.1105
11
115.185
21
-53.1833
0
LINE
8
BLACK
6
CONTINUOUS
10
115.185
20
-53.1833
11
115.2
21
-53.2606
0
LINE
8
BLACK
6
CONTINUOUS
10
115.2
20
-53.2606
11
115.2
21
-53.3394
0
LINE
8
BLACK
6
CONTINUOUS
10
115.2
20
-53.3394
11
115.185
21
-53.4167
0
LINE
8
BLACK
6
CONTINUOUS
10
115.185
20
-53.4167
11
115.154
21
-53.4895
0
LINE
8
BLACK
6
CONTINUOUS
10
115.154
20
-53.4895
11
115.111
21
-53.555
0
LINE
8
BLACK
6
CONTINUOUS
10
115.111
20
-53.555
11
115.055
21
-53.6107
0
LINE
8
BLACK
6
CONTINUOUS
10
115.055
20
-53.6107
11
114.989
21
-53.6545
0
LINE
8
BLACK
6
CONTINUOUS
10
114.989
20
-53.6545
11
114.917
21
-53.6846
0
LINE
8
BLACK
6
CONTINUOUS
10
114.917
20
-53.6846
11
114.839
21
-53.7
0
LINE
8
BLACK
6
CONTINUOUS
10
114.839
20
-53.7
11
114.761
21
-53.7
0
LINE
8
BLACK
6
CONTINUOUS
10
114.761
20
-53.7
11
114.683
21
-53.6846
0
LINE
8
BLACK
6
CONTINUOUS
10
114.683
20
-53.6846
11
114.619
21
-53.6579
0
LINE
8
BLACK
6
CONTINUOUS
10
114.619
20
-53.6579
11
109.368
21
-58.9093
0
LINE
8
BLACK
6
CONTINUOUS
10
109.368
20
-58.9093
11
109.383
21
-58.9245
0
LINE
8
BLACK
6
CONTINUOUS
10
109.383
20
-58.9245
11
109.427
21
-58.99
0
LINE
8
BLACK
6
CONTINUOUS
10
109.427
20
-58.99
11
109.457
21
-59.0628
0
LINE
8
BLACK
6
CONTINUOUS
10
109.457
20
-59.0628
11
109.472
21
-59.1401
0
LINE
8
BLACK
6
CONTINUOUS
10
109.472
20
-59.1401
11
109.472
21
-59.2189
0
LINE
8
BLACK
6
CONTINUOUS
10
109.472
20
-59.2189
11
109.457
21
-59.2962
0
LINE
8
BLACK
6
CONTINUOUS
10
109.457
20
-59.2962
11
109.427
21
-59.369
0
LINE
8
BLACK
6
CONTINUOUS
10
109.427
20
-59.369
11
109.383
21
-59.4345
0
LINE
8
BLACK
6
CONTINUOUS
10
109.383
20
-59.4345
11
109.327
21
-59.4902
0
LINE
8
BLACK
6
CONTINUOUS
10
109.327
20
-59.4902
11
109.262
21
-59.534
0
LINE
8
BLACK
6
CONTINUOUS
10
109.262
20
-59.534
11
109.189
21
-59.5641
0
LINE
8
BLACK
6
CONTINUOUS
10
109.189
20
-59.5641
11
109.111
21
-59.5795
0
LINE
8
BLACK
6
CONTINUOUS
10
109.111
20
-59.5795
11
109.033
21
-59.5795
0
LINE
8
BLACK
6
CONTINUOUS
10
109.033
20
-59.5795
11
108.955
21
-59.5641
0
LINE
8
BLACK
6
CONTINUOUS
10
108.955
20
-59.5641
11
108.883
21
-59.534
0
LINE
8
BLACK
6
CONTINUOUS
10
108.883
20
-59.534
11
108.817
21
-59.4902
0
LINE
8
BLACK
6
CONTINUOUS
10
108.817
20
-59.4902
11
108.761
21
-59.4345
0
LINE
8
BLACK
6
CONTINUOUS
10
108.761
20
-59.4345
11
108.718
21
-59.369
0
LINE
8
BLACK
6
CONTINUOUS
10
108.718
20
-59.369
11
108.687
21
-59.2962
0
LINE
8
BLACK
6
CONTINUOUS
10
108.687
20
-59.2962
11
108.672
21
-59.2189
0
LINE
8
BLACK
6
CONTINUOUS
10
108.672
20
-59.2189
11
108.672
21
-59.1401
0
LINE
8
BLACK
6
CONTINUOUS
10
108.672
20
-59.1401
11
108.687
21
-59.0628
0
LINE
8
BLACK
6
CONTINUOUS
10
108.687
20
-59.0628
11
108.718
21
-58.99
0
LINE
8
BLACK
6
CONTINUOUS
10
108.718
20
-58.99
11
108.761
21
-58.9245
0
LINE
8
BLACK
6
CONTINUOUS
10
108.761
20
-58.9245
11
108.817
21
-58.8688
0
LINE
8
BLACK
6
CONTINUOUS
10
108.817
20
-58.8688
11
108.883
21
-58.825
0
LINE
8
BLACK
6
CONTINUOUS
10
108.883
20
-58.825
11
108.955
21
-58.7949
0
LINE
8
BLACK
6
CONTINUOUS
10
108.955
20
-58.7949
11
109.033
21
-58.7795
0
LINE
8
BLACK
6
CONTINUOUS
10
109.033
20
-58.7795
11
109.111
21
-58.7795
0
LINE
8
BLACK
6
CONTINUOUS
10
109.111
20
-58.7795
11
109.138
21
-58.7849
0
LINE
8
BLACK
6
CONTINUOUS
10
109.138
20
-58.7849
11
114.442
21
-53.4811
0
LINE
8
BLACK
6
CONTINUOUS
10
114.442
20
-53.4811
11
114.415
21
-53.4167
0
LINE
8
BLACK
6
CONTINUOUS
10
114.415
20
-53.4167
11
114.4
21
-53.3394
0
LINE
8
BLACK
6
CONTINUOUS
10
114.4
20
-53.3394
11
114.4
21
-53.2606
0
LINE
8
BLACK
6
CONTINUOUS
10
114.4
20
-53.2606
11
114.415
21
-53.1833
0
LINE
8
BLACK
6
CONTINUOUS
10
114.415
20
-53.1833
11
114.446
21
-53.1105
0
LINE
8
BLACK
6
CONTINUOUS
10
114.446
20
-53.1105
11
114.489
21
-53.045
0
LINE
8
BLACK
6
CONTINUOUS
10
114.489
20
-53.045
11
114.545
21
-52.9893
0
LINE
8
BLACK
6
CONTINUOUS
10
114.545
20
-52.9893
11
114.611
21
-52.9455
0
LINE
8
BLACK
6
CONTINUOUS
10
114.611
20
-52.9455
11
114.683
21
-52.9154
0
LINE
8
BLACK
6
CONTINUOUS
10
114.683
20
-52.9154
11
114.761
21
-52.9
0
LINE
8
BLACK
6
CONTINUOUS
10
114.761
20
-52.9
11
114.839
21
-52.9
0
LINE
8
BLACK
6
CONTINUOUS
10
114.839
20
-52.9
11
114.917
21
-52.9154
0
LINE
8
BLACK
6
CONTINUOUS
10
86.7007
20
-36.4
11
86.7007
21
-36.4
0
LINE
8
BLACK
6
CONTINUOUS
10
86.7007
20
-36.4
11
86.7007
21
-36.4
0
LINE
8
BLACK
6
CONTINUOUS
10
86.7007
20
-36.4
11
86.7014
21
-36.4
0
LINE
8
BLACK
6
CONTINUOUS
10
86.7014
20
-36.4
11
86.7107
21
-36.4011
0
LINE
8
BLACK
6
CONTINUOUS
10
86.7107
20
-36.4011
11
86.7201
21
-36.402
0
LINE
8
BLACK
6
CONTINUOUS
10
86.7201
20
-36.402
11
86.7204
21
-36.4021
0
LINE
8
BLACK
6
CONTINUOUS
10
86.7204
20
-36.4021
11
86.7208
21
-36.4022
0
LINE
8
BLACK
6
CONTINUOUS
10
86.7208
20
-36.4022
11
86.7298
21
-36.405
0
LINE
8
BLACK
6
CONTINUOUS
10
86.7298
20
-36.405
11
86.7388
21
-36.4078
0
LINE
8
BLACK
6
CONTINUOUS
10
86.7388
20
-36.4078
11
86.7391
21
-36.408
0
LINE
8
BLACK
6
CONTINUOUS
10
86.7391
20
-36.408
11
86.7394
21
-36.4081
0
LINE
8
BLACK
6
CONTINUOUS
10
86.7394
20
-36.4081
11
86.7477
21
-36.4126
0
LINE
8
BLACK
6
CONTINUOUS
10
86.7477
20
-36.4126
11
86.7559
21
-36.4171
0
LINE
8
BLACK
6
CONTINUOUS
10
86.7559
20
-36.4171
11
86.7562
21
-36.4173
0
LINE
8
BLACK
6
CONTINUOUS
10
86.7562
20
-36.4173
11
86.7565
21
-36.4175
0
LINE
8
BLACK
6
CONTINUOUS
10
86.7565
20
-36.4175
11
86.7637
21
-36.4235
0
LINE
8
BLACK
6
CONTINUOUS
10
86.7637
20
-36.4235
11
86.771
21
-36.4295
0
LINE
8
BLACK
6
CONTINUOUS
10
86.771
20
-36.4295
11
86.7712
21
-36.4298
0
LINE
8
BLACK
6
CONTINUOUS
10
86.7712
20
-36.4298
11
86.7714
21
-36.43
0
LINE
8
BLACK
6
CONTINUOUS
10
86.7714
20
-36.43
11
86.7773
21
-36.4373
0
LINE
8
BLACK
6
CONTINUOUS
10
86.7773
20
-36.4373
11
86.7833
21
-36.4447
0
LINE
8
BLACK
6
CONTINUOUS
10
86.7833
20
-36.4447
11
86.7835
21
-36.445
0
LINE
8
BLACK
6
CONTINUOUS
10
86.7835
20
-36.445
11
86.7837
21
-36.4452
0
LINE
8
BLACK
6
CONTINUOUS
10
86.7837
20
-36.4452
11
86.788
21
-36.4535
0
LINE
8
BLACK
6
CONTINUOUS
10
86.788
20
-36.4535
11
86.7925
21
-36.4619
0
LINE
8
BLACK
6
CONTINUOUS
10
86.7925
20
-36.4619
11
86.7926
21
-36.4622
0
LINE
8
BLACK
6
CONTINUOUS
10
86.7926
20
-36.4622
11
86.7927
21
-36.4625
0
LINE
8
BLACK
6
CONTINUOUS
10
86.7927
20
-36.4625
11
86.7954
21
-36.4715
0
LINE
8
BLACK
6
CONTINUOUS
10
86.7954
20
-36.4715
11
86.7981
21
-36.4806
0
LINE
8
BLACK
6
CONTINUOUS
10
86.7981
20
-36.4806
11
86.7981
21
-36.4809
0
LINE
8
BLACK
6
CONTINUOUS
10
86.7981
20
-36.4809
11
86.7982
21
-36.4813
0
LINE
8
BLACK
6
CONTINUOUS
10
86.7982
20
-36.4813
11
86.7991
21
-36.4907
0
LINE
8
BLACK
6
CONTINUOUS
10
86.7991
20
-36.4907
11
86.8
21
-36.5
0
LINE
8
BLACK
6
CONTINUOUS
10
86.8
20
-36.5
11
86.8
21
-58.3
0
LINE
8
BLACK
6
CONTINUOUS
10
86.8
20
-58.3
11
86.8
21
-58.3007
0
LINE
8
BLACK
6
CONTINUOUS
10
86.8
20
-58.3007
11
86.8
21
-58.3007
0
LINE
8
BLACK
6
CONTINUOUS
10
86.8
20
-58.3007
11
86.8
21
-58.3007
0
LINE
8
BLACK
6
CONTINUOUS
10
86.8
20
-58.3007
11
86.8
21
-58.3014
0
LINE
8
BLACK
6
CONTINUOUS
10
86.8
20
-58.3014
11
86.7989
21
-58.3107
0
LINE
8
BLACK
6
CONTINUOUS
10
86.7989
20
-58.3107
11
86.798
21
-58.3201
0
LINE
8
BLACK
6
CONTINUOUS
10
86.798
20
-58.3201
11
86.7979
21
-58.3204
0
LINE
8
BLACK
6
CONTINUOUS
10
86.7979
20
-58.3204
11
86.7978
21
-58.3208
0
LINE
8
BLACK
6
CONTINUOUS
10
86.7978
20
-58.3208
11
86.795
21
-58.3298
0
LINE
8
BLACK
6
CONTINUOUS
10
86.795
20
-58.3298
11
86.7922
21
-58.3388
0
LINE
8
BLACK
6
CONTINUOUS
10
86.7922
20
-58.3388
11
86.792
21
-58.3391
0
LINE
8
BLACK
6
CONTINUOUS
10
86.792
20
-58.3391
11
86.7919
21
-58.3394
0
LINE
8
BLACK
6
CONTINUOUS
10
86.7919
20
-58.3394
11
86.7874
21
-58.3477
0
LINE
8
BLACK
6
CONTINUOUS
10
86.7874
20
-58.3477
11
86.7829
21
-58.3559
0
LINE
8
BLACK
6
CONTINUOUS
10
86.7829
20
-58.3559
11
86.7827
21
-58.3562
0
LINE
8
BLACK
6
CONTINUOUS
10
86.7827
20
-58.3562
11
86.7825
21
-58.3565
0
LINE
8
BLACK
6
CONTINUOUS
10
86.7825
20
-58.3565
11
86.7765
21
-58.3637
0
LINE
8
BLACK
6
CONTINUOUS
10
86.7765
20
-58.3637
11
86.7705
21
-58.371
0
LINE
8
BLACK
6
CONTINUOUS
10
86.7705
20
-58.371
11
86.7702
21
-58.3712
0
LINE
8
BLACK
6
CONTINUOUS
10
86.7702
20
-58.3712
11
86.77
21
-58.3714
0
LINE
8
BLACK
6
CONTINUOUS
10
86.77
20
-58.3714
11
86.7627
21
-58.3773
0
LINE
8
BLACK
6
CONTINUOUS
10
86.7627
20
-58.3773
11
86.7553
21
-58.3833
0
LINE
8
BLACK
6
CONTINUOUS
10
86.7553
20
-58.3833
11
86.755
21
-58.3835
0
LINE
8
BLACK
6
CONTINUOUS
10
86.755
20
-58.3835
11
86.7548
21
-58.3837
0
LINE
8
BLACK
6
CONTINUOUS
10
86.7548
20
-58.3837
11
86.7465
21
-58.388
0
LINE
8
BLACK
6
CONTINUOUS
10
86.7465
20
-58.388
11
86.7381
21
-58.3925
0
LINE
8
BLACK
6
CONTINUOUS
10
86.7381
20
-58.3925
11
86.7378
21
-58.3926
0
LINE
8
BLACK
6
CONTINUOUS
10
86.7378
20
-58.3926
11
86.7375
21
-58.3927
0
LINE
8
BLACK
6
CONTINUOUS
10
86.7375
20
-58.3927
11
86.7285
21
-58.3954
0
LINE
8
BLACK
6
CONTINUOUS
10
86.7285
20
-58.3954
11
86.7194
21
-58.3981
0
LINE
8
BLACK
6
CONTINUOUS
10
86.7194
20
-58.3981
11
86.7191
21
-58.3981
0
LINE
8
BLACK
6
CONTINUOUS
10
86.7191
20
-58.3981
11
86.7187
21
-58.3982
0
LINE
8
BLACK
6
CONTINUOUS
10
86.7187
20
-58.3982
11
86.7093
21
-58.3991
0
LINE
8
BLACK
6
CONTINUOUS
10
86.7093
20
-58.3991
11
86.7
21
-58.4
0
LINE
8
BLACK
6
CONTINUOUS
10
86.7
20
-58.4
11
73.3
21
-58.4
0
LINE
8
BLACK
6
CONTINUOUS
10
73.3
20
-58.4
11
73.2993
21
-58.4
0
LINE
8
BLACK
6
CONTINUOUS
10
73.2993
20
-58.4
11
73.2993
21
-58.4
0
LINE
8
BLACK
6
CONTINUOUS
10
73.2993
20
-58.4
11
73.2993
21
-58.4
0
LINE
8
BLACK
6
CONTINUOUS
10
73.2993
20
-58.4
11
73.2986
21
-58.4
0
LINE
8
BLACK
6
CONTINUOUS
10
73.2986
20
-58.4
11
73.2893
21
-58.3989
0
LINE
8
BLACK
6
CONTINUOUS
10
73.2893
20
-58.3989
11
73.2799
21
-58.398
0
LINE
8
BLACK
6
CONTINUOUS
10
73.2799
20
-58.398
11
73.2796
21
-58.3979
0
LINE
8
BLACK
6
CONTINUOUS
10
73.2796
20
-58.3979
11
73.2792
21
-58.3978
0
LINE
8
BLACK
6
CONTINUOUS
10
73.2792
20
-58.3978
11
73.2702
21
-58.395
0
LINE
8
BLACK
6
CONTINUOUS
10
73.2702
20
-58.395
11
73.2612
21
-58.3922
0
LINE
8
BLACK
6
CONTINUOUS
10
73.2612
20
-58.3922
11
73.2609
21
-58.392
0
LINE
8
BLACK
6
CONTINUOUS
10
73.2609
20
-58.392
11
73.2606
21
-58.3919
0
LINE
8
BLACK
6
CONTINUOUS
10
73.2606
20
-58.3919
11
73.2523
21
-58.3874
0
LINE
8
BLACK
6
CONTINUOUS
10
73.2523
20
-58.3874
11
73.2441
21
-58.3829
0
LINE
8
BLACK
6
CONTINUOUS
10
73.2441
20
-58.3829
11
73.2438
21
-58.3827
0
LINE
8
BLACK
6
CONTINUOUS
10
73.2438
20
-58.3827
11
73.2435
21
-58.3825
0
LINE
8
BLACK
6
CONTINUOUS
10
73.2435
20
-58.3825
11
73.2363
21
-58.3765
0
LINE
8
BLACK
6
CONTINUOUS
10
73.2363
20
-58.3765
11
73.229
21
-58.3705
0
LINE
8
BLACK
6
CONTINUOUS
10
73.229
20
-58.3705
11
73.2288
21
-58.3702
0
LINE
8
BLACK
6
CONTINUOUS
10
73.2288
20
-58.3702
11
73.2286
21
-58.37
0
LINE
8
BLACK
6
CONTINUOUS
10
73.2286
20
-58.37
11
73.2227
21
-58.3627
0
LINE
8
BLACK
6
CONTINUOUS
10
73.2227
20
-58.3627
11
73.2167
21
-58.3553
0
LINE
8
BLACK
6
CONTINUOUS
10
73.2167
20
-58.3553
11
73.2165
21
-58.355
0
LINE
8
BLACK
6
CONTINUOUS
10
73.2165
20
-58.355
11
73.2163
21
-58.3548
0
LINE
8
BLACK
6
CONTINUOUS
10
73.2163
20
-58.3548
11
73.212
21
-58.3465
0
LINE
8
BLACK
6
CONTINUOUS
10
73.212
20
-58.3465
11
73.2075
21
-58.3381
0
LINE
8
BLACK
6
CONTINUOUS
10
73.2075
20
-58.3381
11
73.2074
21
-58.3378
0
LINE
8
BLACK
6
CONTINUOUS
10
73.2074
20
-58.3378
11
73.2073
21
-58.3375
0
LINE
8
BLACK
6
CONTINUOUS
10
73.2073
20
-58.3375
11
73.2046
21
-58.3285
0
LINE
8
BLACK
6
CONTINUOUS
10
73.2046
20
-58.3285
11
73.2019
21
-58.3194
0
LINE
8
BLACK
6
CONTINUOUS
10
73.2019
20
-58.3194
11
73.2019
21
-58.3191
0
LINE
8
BLACK
6
CONTINUOUS
10
73.2019
20
-58.3191
11
73.2018
21
-58.3187
0
LINE
8
BLACK
6
CONTINUOUS
10
73.2018
20
-58.3187
11
73.2009
21
-58.3093
0
LINE
8
BLACK
6
CONTINUOUS
10
73.2009
20
-58.3093
11
73.2
21
-58.3
0
LINE
8
BLACK
6
CONTINUOUS
10
73.2
20
-58.3
11
73.2
21
-36.5
0
LINE
8
BLACK
6
CONTINUOUS
10
73.2
20
-36.5
11
73.2
21
-36.4993
0
LINE
8
BLACK
6
CONTINUOUS
10
73.2
20
-36.4993
11
73.2
21
-36.4993
0
LINE
8
BLACK
6
CONTINUOUS
10
73.2
20
-36.4993
11
73.2
21
-36.4993
0
LINE
8
BLACK
6
CONTINUOUS
10
73.2
20
-36.4993
11
73.2
21
-36.4986
0
LINE
8
BLACK
6
CONTINUOUS
10
73.2
20
-36.4986
11
73.2011
21
-36.4893
0
LINE
8
BLACK
6
CONTINUOUS
10
73.2011
20
-36.4893
11
73.202
21
-36.4799
0
LINE
8
BLACK
6
CONTINUOUS
10
73.202
20
-36.4799
11
73.2021
21
-36.4796
0
LINE
8
BLACK
6
CONTINUOUS
10
73.2021
20
-36.4796
11
73.2022
21
-36.4792
0
LINE
8
BLACK
6
CONTINUOUS
10
73.2022
20
-36.4792
11
73.205
21
-36.4702
0
LINE
8
BLACK
6
CONTINUOUS
10
73.205
20
-36.4702
11
73.2078
21
-36.4612
0
LINE
8
BLACK
6
CONTINUOUS
10
73.2078
20
-36.4612
11
73.208
21
-36.4609
0
LINE
8
BLACK
6
CONTINUOUS
10
73.208
20
-36.4609
11
73.2081
21
-36.4606
0
LINE
8
BLACK
6
CONTINUOUS
10
73.2081
20
-36.4606
11
73.2126
21
-36.4523
0
LINE
8
BLACK
6
CONTINUOUS
10
73.2126
20
-36.4523
11
73.2171
21
-36.4441
0
LINE
8
BLACK
6
CONTINUOUS
10
73.2171
20
-36.4441
11
73.2173
21
-36.4438
0
LINE
8
BLACK
6
CONTINUOUS
10
73.2173
20
-36.4438
11
73.2175
21
-36.4435
0
LINE
8
BLACK
6
CONTINUOUS
10
73.2175
20
-36.4435
11
73.2235
21
-36.4363
0
LINE
8
BLACK
6
CONTINUOUS
10
73.2235
20
-36.4363
11
73.2295
21
-36.429
0
LINE
8
BLACK
6
CONTINUOUS
10
73.2295
20
-36.429
11
73.2298
21
-36.4288
0
LINE
8
BLACK
6
CONTINUOUS
10
73.2298
20
-36.4288
11
73.23
21
-36.4286
0
LINE
8
BLACK
6
CONTINUOUS
10
73.23
20
-36.4286
11
73.2373
21
-36.4227
0
LINE
8
BLACK
6
CONTINUOUS
10
73.2373
20
-36.4227
11
73.2447
21
-36.4167
0
LINE
8
BLACK
6
CONTINUOUS
10
73.2447
20
-36.4167
11
73.245
21
-36.4165
0
LINE
8
BLACK
6
CONTINUOUS
10
73.245
20
-36.4165
11
73.2452
21
-36.4163
0
LINE
8
BLACK
6
CONTINUOUS
10
73.2452
20
-36.4163
11
73.2535
21
-36.412
0
LINE
8
BLACK
6
CONTINUOUS
10
73.2535
20
-36.412
11
73.2619
21
-36.4075
0
LINE
8
BLACK
6
CONTINUOUS
10
73.2619
20
-36.4075
11
73.2622
21
-36.4074
0
LINE
8
BLACK
6
CONTINUOUS
10
73.2622
20
-36.4074
11
73.2625
21
-36.4073
0
LINE
8
BLACK
6
CONTINUOUS
10
73.2625
20
-36.4073
11
73.2715
21
-36.4046
0
LINE
8
BLACK
6
CONTINUOUS
10
73.2715
20
-36.4046
11
73.2806
21
-36.4019
0
LINE
8
BLACK
6
CONTINUOUS
10
73.2806
20
-36.4019
11
73.2809
21
-36.4019
0
LINE
8
BLACK
6
CONTINUOUS
10
73.2809
20
-36.4019
11
73.2813
21
-36.4018
0
LINE
8
BLACK
6
CONTINUOUS
10
73.2813
20
-36.4018
11
73.2907
21
-36.4009
0
LINE
8
BLACK
6
CONTINUOUS
10
73.2907
20
-36.4009
11
73.3
21
-36.4
0
LINE
8
BLACK
6
CONTINUOUS
10
73.3
20
-36.4
11
86.7
21
-36.4
0
LINE
8
BLACK
6
CONTINUOUS
10
86.7
20
-36.4
11
86.7007
21
-36.4
0
LINE
8
BLACK
6
CONTINUOUS
10
108.392
20
-53.9154
11
108.464
21
-53.9455
0
LINE
8
BLACK
6
CONTINUOUS
10
108.464
20
-53.9455
11
108.53
21
-53.9893
0
LINE
8
BLACK
6
CONTINUOUS
10
108.53
20
-53.9893
11
108.586
21
-54.045
0
LINE
8
BLACK
6
CONTINUOUS
10
108.586
20
-54.045
11
108.629
21
-54.1105
0
LINE
8
BLACK
6
CONTINUOUS
10
108.629
20
-54.1105
11
108.66
21
-54.1833
0
LINE
8
BLACK
6
CONTINUOUS
10
108.66
20
-54.1833
11
108.675
21
-54.2606
0
LINE
8
BLACK
6
CONTINUOUS
10
108.675
20
-54.2606
11
108.675
21
-54.3394
0
LINE
8
BLACK
6
CONTINUOUS
10
108.675
20
-54.3394
11
108.66
21
-54.4167
0
LINE
8
BLACK
6
CONTINUOUS
10
108.66
20
-54.4167
11
108.629
21
-54.4895
0
LINE
8
BLACK
6
CONTINUOUS
10
108.629
20
-54.4895
11
108.586
21
-54.555
0
LINE
8
BLACK
6
CONTINUOUS
10
108.586
20
-54.555
11
108.53
21
-54.6107
0
LINE
8
BLACK
6
CONTINUOUS
10
108.53
20
-54.6107
11
108.464
21
-54.6545
0
LINE
8
BLACK
6
CONTINUOUS
10
108.464
20
-54.6545
11
108.392
21
-54.6846
0
LINE
8
BLACK
6
CONTINUOUS
10
108.392
20
-54.6846
11
108.314
21
-54.7
0
LINE
8
BLACK
6
CONTINUOUS
10
108.314
20
-54.7
11
108.236
21
-54.7
0
LINE
8
BLACK
6
CONTINUOUS
10
108.236
20
-54.7
11
108.158
21
-54.6846
0
LINE
8
BLACK
6
CONTINUOUS
10
108.158
20
-54.6846
11
108.086
21
-54.6545
0
LINE
8
BLACK
6
CONTINUOUS
10
108.086
20
-54.6545
11
108.02
21
-54.6107
0
LINE
8
BLACK
6
CONTINUOUS
10
108.02
20
-54.6107
11
107.964
21
-54.555
0
LINE
8
BLACK
6
CONTINUOUS
10
107.964
20
-54.555
11
107.921
21
-54.4895
0
LINE
8
BLACK
6
CONTINUOUS
10
107.921
20
-54.4895
11
107.911
21
-54.466
0
LINE
8
BLACK
6
CONTINUOUS
10
107.911
20
-54.466
11
107.158
21
-55.2189
0
LINE
8
BLACK
6
CONTINUOUS
10
107.158
20
-55.2189
11
107.185
21
-55.2833
0
LINE
8
BLACK
6
CONTINUOUS
10
107.185
20
-55.2833
11
107.2
21
-55.3606
0
LINE
8
BLACK
6
CONTINUOUS
10
107.2
20
-55.3606
11
107.2
21
-55.4394
0
LINE
8
BLACK
6
CONTINUOUS
10
107.2
20
-55.4394
11
107.185
21
-55.5167
0
LINE
8
BLACK
6
CONTINUOUS
10
107.185
20
-55.5167
11
107.154
21
-55.5895
0
LINE
8
BLACK
6
CONTINUOUS
10
107.154
20
-55.5895
11
107.111
21
-55.655
0
LINE
8
BLACK
6
CONTINUOUS
10
107.111
20
-55.655
11
107.055
21
-55.7107
0
LINE
8
BLACK
6
CONTINUOUS
10
107.055
20
-55.7107
11
106.989
21
-55.7545
0
LINE
8
BLACK
6
CONTINUOUS
10
106.989
20
-55.7545
11
106.917
21
-55.7846
0
LINE
8
BLACK
6
CONTINUOUS
10
106.917
20
-55.7846
11
106.839
21
-55.8
0
LINE
8
BLACK
6
CONTINUOUS
10
106.839
20
-55.8
11
106.761
21
-55.8
0
LINE
8
BLACK
6
CONTINUOUS
10
106.761
20
-55.8
11
106.683
21
-55.7846
0
LINE
8
BLACK
6
CONTINUOUS
10
106.683
20
-55.7846
11
106.611
21
-55.7545
0
LINE
8
BLACK
6
CONTINUOUS
10
106.611
20
-55.7545
11
106.545
21
-55.7107
0
LINE
8
BLACK
6
CONTINUOUS
10
106.545
20
-55.7107
11
106.489
21
-55.655
0
LINE
8
BLACK
6
CONTINUOUS
10
106.489
20
-55.655
11
106.446
21
-55.5895
0
LINE
8
BLACK
6
CONTINUOUS
10
106.446
20
-55.5895
11
106.415
21
-55.5167
0
LINE
8
BLACK
6
CONTINUOUS
10
106.415
20
-55.5167
11
106.4
21
-55.4394
0
LINE
8
BLACK
6
CONTINUOUS
10
106.4
20
-55.4394
11
106.4
21
-55.3606
0
LINE
8
BLACK
6
CONTINUOUS
10
106.4
20
-55.3606
11
106.415
21
-55.2833
0
LINE
8
BLACK
6
CONTINUOUS
10
106.415
20
-55.2833
11
106.446
21
-55.2105
0
LINE
8
BLACK
6
CONTINUOUS
10
106.446
20
-55.2105
11
106.489
21
-55.145
0
LINE
8
BLACK
6
CONTINUOUS
10
106.489
20
-55.145
11
106.545
21
-55.0893
0
LINE
8
BLACK
6
CONTINUOUS
10
106.545
20
-55.0893
11
106.611
21
-55.0455
0
LINE
8
BLACK
6
CONTINUOUS
10
106.611
20
-55.0455
11
106.683
21
-55.0154
0
LINE
8
BLACK
6
CONTINUOUS
10
106.683
20
-55.0154
11
106.761
21
-55
0
LINE
8
BLACK
6
CONTINUOUS
10
106.761
20
-55
11
106.839
21
-55
0
LINE
8
BLACK
6
CONTINUOUS
10
106.839
20
-55
11
106.917
21
-55.0154
0
LINE
8
BLACK
6
CONTINUOUS
10
106.917
20
-55.0154
11
106.981
21
-55.0421
0
LINE
8
BLACK
6
CONTINUOUS
10
106.981
20
-55.0421
11
107.807
21
-54.2159
0
LINE
8
BLACK
6
CONTINUOUS
10
107.807
20
-54.2159
11
107.811
21
-54.2112
0
LINE
8
BLACK
6
CONTINUOUS
10
107.811
20
-54.2112
11
107.816
21
-54.2073
0
LINE
8
BLACK
6
CONTINUOUS
10
107.816
20
-54.2073
11
107.83
21
-54.1956
0
LINE
8
BLACK
6
CONTINUOUS
10
107.83
20
-54.1956
11
107.852
21
-54.184
0
LINE
8
BLACK
6
CONTINUOUS
10
107.852
20
-54.184
11
107.854
21
-54.1833
0
LINE
8
BLACK
6
CONTINUOUS
10
107.854
20
-54.1833
11
107.875
21
-54.1768
0
LINE
8
BLACK
6
CONTINUOUS
10
107.875
20
-54.1768
11
107.894
21
-54.175
0
LINE
8
BLACK
6
CONTINUOUS
10
107.894
20
-54.175
11
107.921
21
-54.1105
0
LINE
8
BLACK
6
CONTINUOUS
10
107.921
20
-54.1105
11
107.964
21
-54.045
0
LINE
8
BLACK
6
CONTINUOUS
10
107.964
20
-54.045
11
108.02
21
-53.9893
0
LINE
8
BLACK
6
CONTINUOUS
10
108.02
20
-53.9893
11
108.086
21
-53.9455
0
LINE
8
BLACK
6
CONTINUOUS
10
108.086
20
-53.9455
11
108.158
21
-53.9154
0
LINE
8
BLACK
6
CONTINUOUS
10
108.158
20
-53.9154
11
108.236
21
-53.9
0
LINE
8
BLACK
6
CONTINUOUS
10
108.236
20
-53.9
11
108.314
21
-53.9
0
LINE
8
BLACK
6
CONTINUOUS
10
108.314
20
-53.9
11
108.392
21
-53.9154
0
LINE
8
BLACK
6
CONTINUOUS
10
87.8167
20
-54.3154
11
87.8895
21
-54.3455
0
LINE
8
BLACK
6
CONTINUOUS
10
87.8895
20
-54.3455
11
87.955
21
-54.3893
0
LINE
8
BLACK
6
CONTINUOUS
10
87.955
20
-54.3893
11
88.0107
21
-54.445
0
LINE
8
BLACK
6
CONTINUOUS
10
88.0107
20
-54.445
11
88.0545
21
-54.5105
0
LINE
8
BLACK
6
CONTINUOUS
10
88.0545
20
-54.5105
11
88.0812
21
-54.575
0
LINE
8
BLACK
6
CONTINUOUS
10
88.0812
20
-54.575
11
92.2938
21
-54.575
0
LINE
8
BLACK
6
CONTINUOUS
10
92.2938
20
-54.575
11
92.3205
21
-54.5105
0
LINE
8
BLACK
6
CONTINUOUS
10
92.3205
20
-54.5105
11
92.3643
21
-54.445
0
LINE
8
BLACK
6
CONTINUOUS
10
92.3643
20
-54.445
11
92.42
21
-54.3893
0
LINE
8
BLACK
6
CONTINUOUS
10
92.42
20
-54.3893
11
92.4855
21
-54.3455
0
LINE
8
BLACK
6
CONTINUOUS
10
92.4855
20
-54.3455
11
92.5583
21
-54.3154
0
LINE
8
BLACK
6
CONTINUOUS
10
92.5583
20
-54.3154
11
92.6356
21
-54.3
0
LINE
8
BLACK
6
CONTINUOUS
10
92.6356
20
-54.3
11
92.7144
21
-54.3
0
LINE
8
BLACK
6
CONTINUOUS
10
92.7144
20
-54.3
11
92.7917
21
-54.3154
0
LINE
8
BLACK
6
CONTINUOUS
10
92.7917
20
-54.3154
11
92.8645
21
-54.3455
0
LINE
8
BLACK
6
CONTINUOUS
10
92.8645
20
-54.3455
11
92.93
21
-54.3893
0
LINE
8
BLACK
6
CONTINUOUS
10
92.93
20
-54.3893
11
92.9857
21
-54.445
0
LINE
8
BLACK
6
CONTINUOUS
10
92.9857
20
-54.445
11
93.0295
21
-54.5105
0
LINE
8
BLACK
6
CONTINUOUS
10
93.0295
20
-54.5105
11
93.0596
21
-54.5833
0
LINE
8
BLACK
6
CONTINUOUS
10
93.0596
20
-54.5833
11
93.075
21
-54.6606
0
LINE
8
BLACK
6
CONTINUOUS
10
93.075
20
-54.6606
11
93.075
21
-54.7394
0
LINE
8
BLACK
6
CONTINUOUS
10
93.075
20
-54.7394
11
93.0596
21
-54.8167
0
LINE
8
BLACK
6
CONTINUOUS
10
93.0596
20
-54.8167
11
93.0295
21
-54.8895
0
LINE
8
BLACK
6
CONTINUOUS
10
93.0295
20
-54.8895
11
92.9857
21
-54.955
0
LINE
8
BLACK
6
CONTINUOUS
10
92.9857
20
-54.955
11
92.93
21
-55.0107
0
LINE
8
BLACK
6
CONTINUOUS
10
92.93
20
-55.0107
11
92.8645
21
-55.0545
0
LINE
8
BLACK
6
CONTINUOUS
10
92.8645
20
-55.0545
11
92.7917
21
-55.0846
0
LINE
8
BLACK
6
CONTINUOUS
10
92.7917
20
-55.0846
11
92.7144
21
-55.1
0
LINE
8
BLACK
6
CONTINUOUS
10
92.7144
20
-55.1
11
92.6356
21
-55.1
0
LINE
8
BLACK
6
CONTINUOUS
10
92.6356
20
-55.1
11
92.5583
21
-55.0846
0
LINE
8
BLACK
6
CONTINUOUS
10
92.5583
20
-55.0846
11
92.4855
21
-55.0545
0
LINE
8
BLACK
6
CONTINUOUS
10
92.4855
20
-55.0545
11
92.42
21
-55.0107
0
LINE
8
BLACK
6
CONTINUOUS
10
92.42
20
-55.0107
11
92.3643
21
-54.955
0
LINE
8
BLACK
6
CONTINUOUS
10
92.3643
20
-54.955
11
92.3205
21
-54.8895
0
LINE
8
BLACK
6
CONTINUOUS
10
92.3205
20
-54.8895
11
92.2938
21
-54.825
0
LINE
8
BLACK
6
CONTINUOUS
10
92.2938
20
-54.825
11
88.0812
21
-54.825
0
LINE
8
BLACK
6
CONTINUOUS
10
88.0812
20
-54.825
11
88.0545
21
-54.8895
0
LINE
8
BLACK
6
CONTINUOUS
10
88.0545
20
-54.8895
11
88.0107
21
-54.955
0
LINE
8
BLACK
6
CONTINUOUS
10
88.0107
20
-54.955
11
87.955
21
-55.0107
0
LINE
8
BLACK
6
CONTINUOUS
10
87.955
20
-55.0107
11
87.8895
21
-55.0545
0
LINE
8
BLACK
6
CONTINUOUS
10
87.8895
20
-55.0545
11
87.8167
21
-55.0846
0
LINE
8
BLACK
6
CONTINUOUS
10
87.8167
20
-55.0846
11
87.7394
21
-55.1
0
LINE
8
BLACK
6
CONTINUOUS
10
87.7394
20
-55.1
11
87.6606
21
-55.1
0
LINE
8
BLACK
6
CONTINUOUS
10
87.6606
20
-55.1
11
87.5833
21
-55.0846
0
LINE
8
BLACK
6
CONTINUOUS
10
87.5833
20
-55.0846
11
87.5105
21
-55.0545
0
LINE
8
BLACK
6
CONTINUOUS
10
87.5105
20
-55.0545
11
87.445
21
-55.0107
0
LINE
8
BLACK
6
CONTINUOUS
10
87.445
20
-55.0107
11
87.3893
21
-54.955
0
LINE
8
BLACK
6
CONTINUOUS
10
87.3893
20
-54.955
11
87.3455
21
-54.8895
0
LINE
8
BLACK
6
CONTINUOUS
10
87.3455
20
-54.8895
11
87.3154
21
-54.8167
0
LINE
8
BLACK
6
CONTINUOUS
10
87.3154
20
-54.8167
11
87.3
21
-54.7394
0
LINE
8
BLACK
6
CONTINUOUS
10
87.3
20
-54.7394
11
87.3
21
-54.6606
0
LINE
8
BLACK
6
CONTINUOUS
10
87.3
20
-54.6606
11
87.3154
21
-54.5833
0
LINE
8
BLACK
6
CONTINUOUS
10
87.3154
20
-54.5833
11
87.3455
21
-54.5105
0
LINE
8
BLACK
6
CONTINUOUS
10
87.3455
20
-54.5105
11
87.3893
21
-54.445
0
LINE
8
BLACK
6
CONTINUOUS
10
87.3893
20
-54.445
11
87.445
21
-54.3893
0
LINE
8
BLACK
6
CONTINUOUS
10
87.445
20
-54.3893
11
87.5105
21
-54.3455
0
LINE
8
BLACK
6
CONTINUOUS
10
87.5105
20
-54.3455
11
87.5833
21
-54.3154
0
LINE
8
BLACK
6
CONTINUOUS
10
87.5833
20
-54.3154
11
87.6606
21
-54.3
0
LINE
8
BLACK
6
CONTINUOUS
10
87.6606
20
-54.3
11
87.7394
21
-54.3
0
LINE
8
BLACK
6
CONTINUOUS
10
87.7394
20
-54.3
11
87.8167
21
-54.3154
0
LINE
8
BLACK
6
CONTINUOUS
10
95.6167
20
-50.9154
11
95.6895
21
-50.9455
0
LINE
8
BLACK
6
CONTINUOUS
10
95.6895
20
-50.9455
11
95.755
21
-50.9893
0
LINE
8
BLACK
6
CONTINUOUS
10
95.755
20
-50.9893
11
95.8107
21
-51.045
0
LINE
8
BLACK
6
CONTINUOUS
10
95.8107
20
-51.045
11
95.8545
21
-51.1105
0
LINE
8
BLACK
6
CONTINUOUS
10
95.8545
20
-51.1105
11
95.8812
21
-51.175
0
LINE
8
BLACK
6
CONTINUOUS
10
95.8812
20
-51.175
11
99.0188
21
-51.175
0
LINE
8
BLACK
6
CONTINUOUS
10
99.0188
20
-51.175
11
99.0455
21
-51.1105
0
LINE
8
BLACK
6
CONTINUOUS
10
99.0455
20
-51.1105
11
99.0893
21
-51.045
0
LINE
8
BLACK
6
CONTINUOUS
10
99.0893
20
-51.045
11
99.145
21
-50.9893
0
LINE
8
BLACK
6
CONTINUOUS
10
99.145
20
-50.9893
11
99.2105
21
-50.9455
0
LINE
8
BLACK
6
CONTINUOUS
10
99.2105
20
-50.9455
11
99.2833
21
-50.9154
0
LINE
8
BLACK
6
CONTINUOUS
10
99.2833
20
-50.9154
11
99.3606
21
-50.9
0
LINE
8
BLACK
6
CONTINUOUS
10
99.3606
20
-50.9
11
99.4394
21
-50.9
0
LINE
8
BLACK
6
CONTINUOUS
10
99.4394
20
-50.9
11
99.5167
21
-50.9154
0
LINE
8
BLACK
6
CONTINUOUS
10
99.5167
20
-50.9154
11
99.5895
21
-50.9455
0
LINE
8
BLACK
6
CONTINUOUS
10
99.5895
20
-50.9455
11
99.655
21
-50.9893
0
LINE
8
BLACK
6
CONTINUOUS
10
99.655
20
-50.9893
11
99.7107
21
-51.045
0
LINE
8
BLACK
6
CONTINUOUS
10
99.7107
20
-51.045
11
99.7545
21
-51.1105
0
LINE
8
BLACK
6
CONTINUOUS
10
99.7545
20
-51.1105
11
99.7846
21
-51.1833
0
LINE
8
BLACK
6
CONTINUOUS
10
99.7846
20
-51.1833
11
99.8
21
-51.2606
0
LINE
8
BLACK
6
CONTINUOUS
10
99.8
20
-51.2606
11
99.8
21
-51.3394
0
LINE
8
BLACK
6
CONTINUOUS
10
99.8
20
-51.3394
11
99.7846
21
-51.4167
0
LINE
8
BLACK
6
CONTINUOUS
10
99.7846
20
-51.4167
11
99.7545
21
-51.4895
0
LINE
8
BLACK
6
CONTINUOUS
10
99.7545
20
-51.4895
11
99.7107
21
-51.555
0
LINE
8
BLACK
6
CONTINUOUS
10
99.7107
20
-51.555
11
99.655
21
-51.6107
0
LINE
8
BLACK
6
CONTINUOUS
10
99.655
20
-51.6107
11
99.5895
21
-51.6545
0
LINE
8
BLACK
6
CONTINUOUS
10
99.5895
20
-51.6545
11
99.5167
21
-51.6846
0
LINE
8
BLACK
6
CONTINUOUS
10
99.5167
20
-51.6846
11
99.4394
21
-51.7
0
LINE
8
BLACK
6
CONTINUOUS
10
99.4394
20
-51.7
11
99.3606
21
-51.7
0
LINE
8
BLACK
6
CONTINUOUS
10
99.3606
20
-51.7
11
99.2833
21
-51.6846
0
LINE
8
BLACK
6
CONTINUOUS
10
99.2833
20
-51.6846
11
99.2105
21
-51.6545
0
LINE
8
BLACK
6
CONTINUOUS
10
99.2105
20
-51.6545
11
99.145
21
-51.6107
0
LINE
8
BLACK
6
CONTINUOUS
10
99.145
20
-51.6107
11
99.0893
21
-51.555
0
LINE
8
BLACK
6
CONTINUOUS
10
99.0893
20
-51.555
11
99.0455
21
-51.4895
0
LINE
8
BLACK
6
CONTINUOUS
10
99.0455
20
-51.4895
11
99.0188
21
-51.425
0
LINE
8
BLACK
6
CONTINUOUS
10
99.0188
20
-51.425
11
95.8812
21
-51.425
0
LINE
8
BLACK
6
CONTINUOUS
10
95.8812
20
-51.425
11
95.8545
21
-51.4895
0
LINE
8
BLACK
6
CONTINUOUS
10
95.8545
20
-51.4895
11
95.8107
21
-51.555
0
LINE
8
BLACK
6
CONTINUOUS
10
95.8107
20
-51.555
11
95.755
21
-51.6107
0
LINE
8
BLACK
6
CONTINUOUS
10
95.755
20
-51.6107
11
95.6895
21
-51.6545
0
LINE
8
BLACK
6
CONTINUOUS
10
95.6895
20
-51.6545
11
95.625
21
-51.6812
0
LINE
8
BLACK
6
CONTINUOUS
10
95.625
20
-51.6812
11
95.625
21
-54.3
0
LINE
8
BLACK
6
CONTINUOUS
10
95.625
20
-54.3
11
95.6394
21
-54.3
0
LINE
8
BLACK
6
CONTINUOUS
10
95.6394
20
-54.3
11
95.7167
21
-54.3154
0
LINE
8
BLACK
6
CONTINUOUS
10
95.7167
20
-54.3154
11
95.7895
21
-54.3455
0
LINE
8
BLACK
6
CONTINUOUS
10
95.7895
20
-54.3455
11
95.855
21
-54.3893
0
LINE
8
BLACK
6
CONTINUOUS
10
95.855
20
-54.3893
11
95.9107
21
-54.445
0
LINE
8
BLACK
6
CONTINUOUS
10
95.9107
20
-54.445
11
95.9545
21
-54.5105
0
LINE
8
BLACK
6
CONTINUOUS
10
95.9545
20
-54.5105
11
95.9846
21
-54.5833
0
LINE
8
BLACK
6
CONTINUOUS
10
95.9846
20
-54.5833
11
96
21
-54.6606
0
LINE
8
BLACK
6
CONTINUOUS
10
96
20
-54.6606
11
96
21
-54.7394
0
LINE
8
BLACK
6
CONTINUOUS
10
96
20
-54.7394
11
95.9846
21
-54.8167
0
LINE
8
BLACK
6
CONTINUOUS
10
95.9846
20
-54.8167
11
95.9545
21
-54.8895
0
LINE
8
BLACK
6
CONTINUOUS
10
95.9545
20
-54.8895
11
95.9107
21
-54.955
0
LINE
8
BLACK
6
CONTINUOUS
10
95.9107
20
-54.955
11
95.855
21
-55.0107
0
LINE
8
BLACK
6
CONTINUOUS
10
95.855
20
-55.0107
11
95.7895
21
-55.0545
0
LINE
8
BLACK
6
CONTINUOUS
10
95.7895
20
-55.0545
11
95.7167
21
-55.0846
0
LINE
8
BLACK
6
CONTINUOUS
10
95.7167
20
-55.0846
11
95.6394
21
-55.1
0
LINE
8
BLACK
6
CONTINUOUS
10
95.6394
20
-55.1
11
95.5606
21
-55.1
0
LINE
8
BLACK
6
CONTINUOUS
10
95.5606
20
-55.1
11
95.4833
21
-55.0846
0
LINE
8
BLACK
6
CONTINUOUS
10
95.4833
20
-55.0846
11
95.4105
21
-55.0545
0
LINE
8
BLACK
6
CONTINUOUS
10
95.4105
20
-55.0545
11
95.345
21
-55.0107
0
LINE
8
BLACK
6
CONTINUOUS
10
95.345
20
-55.0107
11
95.2893
21
-54.955
0
LINE
8
BLACK
6
CONTINUOUS
10
95.2893
20
-54.955
11
95.2455
21
-54.8895
0
LINE
8
BLACK
6
CONTINUOUS
10
95.2455
20
-54.8895
11
95.2154
21
-54.8167
0
LINE
8
BLACK
6
CONTINUOUS
10
95.2154
20
-54.8167
11
95.2
21
-54.7394
0
LINE
8
BLACK
6
CONTINUOUS
10
95.2
20
-54.7394
11
95.2
21
-54.6606
0
LINE
8
BLACK
6
CONTINUOUS
10
95.2
20
-54.6606
11
95.2154
21
-54.5833
0
LINE
8
BLACK
6
CONTINUOUS
10
95.2154
20
-54.5833
11
95.2455
21
-54.5105
0
LINE
8
BLACK
6
CONTINUOUS
10
95.2455
20
-54.5105
11
95.2893
21
-54.445
0
LINE
8
BLACK
6
CONTINUOUS
10
95.2893
20
-54.445
11
95.345
21
-54.3893
0
LINE
8
BLACK
6
CONTINUOUS
10
95.345
20
-54.3893
11
95.375
21
-54.3693
0
LINE
8
BLACK
6
CONTINUOUS
10
95.375
20
-54.3693
11
95.375
21
-51.6812
0
LINE
8
BLACK
6
CONTINUOUS
10
95.375
20
-51.6812
11
95.3105
21
-51.6545
0
LINE
8
BLACK
6
CONTINUOUS
10
95.3105
20
-51.6545
11
95.245
21
-51.6107
0
LINE
8
BLACK
6
CONTINUOUS
10
95.245
20
-51.6107
11
95.1893
21
-51.555
0
LINE
8
BLACK
6
CONTINUOUS
10
95.1893
20
-51.555
11
95.1455
21
-51.4895
0
LINE
8
BLACK
6
CONTINUOUS
10
95.1455
20
-51.4895
11
95.1154
21
-51.4167
0
LINE
8
BLACK
6
CONTINUOUS
10
95.1154
20
-51.4167
11
95.1
21
-51.3394
0
LINE
8
BLACK
6
CONTINUOUS
10
95.1
20
-51.3394
11
95.1
21
-51.2606
0
LINE
8
BLACK
6
CONTINUOUS
10
95.1
20
-51.2606
11
95.1154
21
-51.1833
0
LINE
8
BLACK
6
CONTINUOUS
10
95.1154
20
-51.1833
11
95.1455
21
-51.1105
0
LINE
8
BLACK
6
CONTINUOUS
10
95.1455
20
-51.1105
11
95.1893
21
-51.045
0
LINE
8
BLACK
6
CONTINUOUS
10
95.1893
20
-51.045
11
95.245
21
-50.9893
0
LINE
8
BLACK
6
CONTINUOUS
10
95.245
20
-50.9893
11
95.3105
21
-50.9455
0
LINE
8
BLACK
6
CONTINUOUS
10
95.3105
20
-50.9455
11
95.3833
21
-50.9154
0
LINE
8
BLACK
6
CONTINUOUS
10
95.3833
20
-50.9154
11
95.4606
21
-50.9
0
LINE
8
BLACK
6
CONTINUOUS
10
95.4606
20
-50.9
11
95.5394
21
-50.9
0
LINE
8
BLACK
6
CONTINUOUS
10
95.5394
20
-50.9
11
95.6167
21
-50.9154
0
LINE
8
BLACK
6
CONTINUOUS
10
94.4683
20
-50.258
11
94.4683
21
-50.258
0
LINE
8
BLACK
6
CONTINUOUS
10
94.4683
20
-50.258
11
94.4683
21
-50.258
0
LINE
8
BLACK
6
CONTINUOUS
10
94.4683
20
-50.258
11
94.4693
21
-50.258
0
LINE
8
BLACK
6
CONTINUOUS
10
94.4693
20
-50.258
11
94.4811
21
-50.2593
0
LINE
8
BLACK
6
CONTINUOUS
10
94.4811
20
-50.2593
11
94.493
21
-50.2606
0
LINE
8
BLACK
6
CONTINUOUS
10
94.493
20
-50.2606
11
94.4934
21
-50.2607
0
LINE
8
BLACK
6
CONTINUOUS
10
94.4934
20
-50.2607
11
94.4939
21
-50.2608
0
LINE
8
BLACK
6
CONTINUOUS
10
94.4939
20
-50.2608
11
94.5053
21
-50.2644
0
LINE
8
BLACK
6
CONTINUOUS
10
94.5053
20
-50.2644
11
94.5166
21
-50.2679
0
LINE
8
BLACK
6
CONTINUOUS
10
94.5166
20
-50.2679
11
94.5171
21
-50.2681
0
LINE
8
BLACK
6
CONTINUOUS
10
94.5171
20
-50.2681
11
94.5176
21
-50.2683
0
LINE
8
BLACK
6
CONTINUOUS
10
94.5176
20
-50.2683
11
94.528
21
-50.274
0
LINE
8
BLACK
6
CONTINUOUS
10
94.528
20
-50.274
11
94.5385
21
-50.2796
0
LINE
8
BLACK
6
CONTINUOUS
10
94.5385
20
-50.2796
11
94.5388
21
-50.28
0
LINE
8
BLACK
6
CONTINUOUS
10
94.5388
20
-50.28
11
94.5393
21
-50.2802
0
LINE
8
BLACK
6
CONTINUOUS
10
94.5393
20
-50.2802
11
94.5484
21
-50.2878
0
LINE
8
BLACK
6
CONTINUOUS
10
94.5484
20
-50.2878
11
94.5576
21
-50.2954
0
LINE
8
BLACK
6
CONTINUOUS
10
94.5576
20
-50.2954
11
94.5579
21
-50.2958
0
LINE
8
BLACK
6
CONTINUOUS
10
94.5579
20
-50.2958
11
94.5583
21
-50.2961
0
LINE
8
BLACK
6
CONTINUOUS
10
94.5583
20
-50.2961
11
94.5657
21
-50.3054
0
LINE
8
BLACK
6
CONTINUOUS
10
94.5657
20
-50.3054
11
94.5732
21
-50.3146
0
LINE
8
BLACK
6
CONTINUOUS
10
94.5732
20
-50.3146
11
94.5735
21
-50.3151
0
LINE
8
BLACK
6
CONTINUOUS
10
94.5735
20
-50.3151
11
94.5738
21
-50.3155
0
LINE
8
BLACK
6
CONTINUOUS
10
94.5738
20
-50.3155
11
94.5793
21
-50.326
0
LINE
8
BLACK
6
CONTINUOUS
10
94.5793
20
-50.326
11
94.5849
21
-50.3365
0
LINE
8
BLACK
6
CONTINUOUS
10
94.5849
20
-50.3365
11
94.585
21
-50.337
0
LINE
8
BLACK
6
CONTINUOUS
10
94.585
20
-50.337
11
94.5853
21
-50.3374
0
LINE
8
BLACK
6
CONTINUOUS
10
94.5853
20
-50.3374
11
94.5886
21
-50.3487
0
LINE
8
BLACK
6
CONTINUOUS
10
94.5886
20
-50.3487
11
94.5921
21
-50.3602
0
LINE
8
BLACK
6
CONTINUOUS
10
94.5921
20
-50.3602
11
94.5976
21
-50.3877
0
LINE
8
BLACK
6
CONTINUOUS
10
94.5976
20
-50.3877
11
94.5979
21
-50.3895
0
LINE
8
BLACK
6
CONTINUOUS
10
94.5979
20
-50.3895
11
94.5989
21
-50.401
0
LINE
8
BLACK
6
CONTINUOUS
10
94.5989
20
-50.401
11
94.6
21
-50.4125
0
LINE
8
BLACK
6
CONTINUOUS
10
94.6
20
-50.4125
11
94.6
21
-51.1578
0
LINE
8
BLACK
6
CONTINUOUS
10
94.6
20
-51.1578
11
94.6
21
-51.1579
0
LINE
8
BLACK
6
CONTINUOUS
10
94.6
20
-51.1579
11
94.6
21
-51.158
0
LINE
8
BLACK
6
CONTINUOUS
10
94.6
20
-51.158
11
94.6
21
-51.158
0
LINE
8
BLACK
6
CONTINUOUS
10
94.6
20
-51.158
11
94.6
21
-51.1596
0
LINE
8
BLACK
6
CONTINUOUS
10
94.6
20
-51.1596
11
94.5987
21
-51.1711
0
LINE
8
BLACK
6
CONTINUOUS
10
94.5987
20
-51.1711
11
94.5976
21
-51.1826
0
LINE
8
BLACK
6
CONTINUOUS
10
94.5976
20
-51.1826
11
94.592
21
-51.2106
0
LINE
8
BLACK
6
CONTINUOUS
10
94.592
20
-51.2106
11
94.592
21
-51.3894
0
LINE
8
BLACK
6
CONTINUOUS
10
94.592
20
-51.3894
11
94.5976
21
-51.4174
0
LINE
8
BLACK
6
CONTINUOUS
10
94.5976
20
-51.4174
11
94.5979
21
-51.4191
0
LINE
8
BLACK
6
CONTINUOUS
10
94.5979
20
-51.4191
11
94.5989
21
-51.4307
0
LINE
8
BLACK
6
CONTINUOUS
10
94.5989
20
-51.4307
11
94.6
21
-51.4422
0
LINE
8
BLACK
6
CONTINUOUS
10
94.6
20
-51.4422
11
94.6
21
-53.5875
0
LINE
8
BLACK
6
CONTINUOUS
10
94.6
20
-53.5875
11
94.6
21
-53.5876
0
LINE
8
BLACK
6
CONTINUOUS
10
94.6
20
-53.5876
11
94.6
21
-53.5876
0
LINE
8
BLACK
6
CONTINUOUS
10
94.6
20
-53.5876
11
94.6
21
-53.5876
0
LINE
8
BLACK
6
CONTINUOUS
10
94.6
20
-53.5876
11
94.6
21
-53.5893
0
LINE
8
BLACK
6
CONTINUOUS
10
94.6
20
-53.5893
11
94.5987
21
-53.6008
0
LINE
8
BLACK
6
CONTINUOUS
10
94.5987
20
-53.6008
11
94.5976
21
-53.6123
0
LINE
8
BLACK
6
CONTINUOUS
10
94.5976
20
-53.6123
11
94.5897
21
-53.6518
0
LINE
8
BLACK
6
CONTINUOUS
10
94.5897
20
-53.6518
11
94.5897
21
-53.652
0
LINE
8
BLACK
6
CONTINUOUS
10
94.5897
20
-53.652
11
94.5897
21
-53.652
0
LINE
8
BLACK
6
CONTINUOUS
10
94.5897
20
-53.652
11
94.5897
21
-53.652
0
LINE
8
BLACK
6
CONTINUOUS
10
94.5897
20
-53.652
11
94.5893
21
-53.6535
0
LINE
8
BLACK
6
CONTINUOUS
10
94.5893
20
-53.6535
11
94.5858
21
-53.6646
0
LINE
8
BLACK
6
CONTINUOUS
10
94.5858
20
-53.6646
11
94.5824
21
-53.6757
0
LINE
8
BLACK
6
CONTINUOUS
10
94.5824
20
-53.6757
11
94.5821
21
-53.6764
0
LINE
8
BLACK
6
CONTINUOUS
10
94.5821
20
-53.6764
11
94.5818
21
-53.6771
0
LINE
8
BLACK
6
CONTINUOUS
10
94.5818
20
-53.6771
11
94.5762
21
-53.6873
0
LINE
8
BLACK
6
CONTINUOUS
10
94.5762
20
-53.6873
11
94.5707
21
-53.6975
0
LINE
8
BLACK
6
CONTINUOUS
10
94.5707
20
-53.6975
11
94.5555
21
-53.7204
0
LINE
8
BLACK
6
CONTINUOUS
10
94.5555
20
-53.7204
11
94.5553
21
-53.7206
0
LINE
8
BLACK
6
CONTINUOUS
10
94.5553
20
-53.7206
11
94.5553
21
-53.7206
0
LINE
8
BLACK
6
CONTINUOUS
10
94.5553
20
-53.7206
11
94.5553
21
-53.7206
0
LINE
8
BLACK
6
CONTINUOUS
10
94.5553
20
-53.7206
11
94.5545
21
-53.7219
0
LINE
8
BLACK
6
CONTINUOUS
10
94.5545
20
-53.7219
11
94.5469
21
-53.7308
0
LINE
8
BLACK
6
CONTINUOUS
10
94.5469
20
-53.7308
11
94.5396
21
-53.7397
0
LINE
8
BLACK
6
CONTINUOUS
10
94.5396
20
-53.7397
11
94.539
21
-53.7402
0
LINE
8
BLACK
6
CONTINUOUS
10
94.539
20
-53.7402
11
94.5385
21
-53.7408
0
LINE
8
BLACK
6
CONTINUOUS
10
94.5385
20
-53.7408
11
94.5294
21
-53.7481
0
LINE
8
BLACK
6
CONTINUOUS
10
94.5294
20
-53.7481
11
94.5204
21
-53.7555
0
LINE
8
BLACK
6
CONTINUOUS
10
94.5204
20
-53.7555
11
94.4975
21
-53.7707
0
LINE
8
BLACK
6
CONTINUOUS
10
94.4975
20
-53.7707
11
94.4974
21
-53.7709
0
LINE
8
BLACK
6
CONTINUOUS
10
94.4974
20
-53.7709
11
94.4974
21
-53.7709
0
LINE
8
BLACK
6
CONTINUOUS
10
94.4974
20
-53.7709
11
94.4973
21
-53.7709
0
LINE
8
BLACK
6
CONTINUOUS
10
94.4973
20
-53.7709
11
94.4961
21
-53.7717
0
LINE
8
BLACK
6
CONTINUOUS
10
94.4961
20
-53.7717
11
94.4857
21
-53.7771
0
LINE
8
BLACK
6
CONTINUOUS
10
94.4857
20
-53.7771
11
94.4755
21
-53.7825
0
LINE
8
BLACK
6
CONTINUOUS
10
94.4755
20
-53.7825
11
94.4747
21
-53.7827
0
LINE
8
BLACK
6
CONTINUOUS
10
94.4747
20
-53.7827
11
94.474
21
-53.7831
0
LINE
8
BLACK
6
CONTINUOUS
10
94.474
20
-53.7831
11
94.4628
21
-53.7864
0
LINE
8
BLACK
6
CONTINUOUS
10
94.4628
20
-53.7864
11
94.4518
21
-53.7897
0
LINE
8
BLACK
6
CONTINUOUS
10
94.4518
20
-53.7897
11
94.4123
21
-53.7976
0
LINE
8
BLACK
6
CONTINUOUS
10
94.4123
20
-53.7976
11
94.4105
21
-53.7979
0
LINE
8
BLACK
6
CONTINUOUS
10
94.4105
20
-53.7979
11
94.399
21
-53.7989
0
LINE
8
BLACK
6
CONTINUOUS
10
94.399
20
-53.7989
11
94.3875
21
-53.8
0
LINE
8
BLACK
6
CONTINUOUS
10
94.3875
20
-53.8
11
92.8171
21
-53.8
0
LINE
8
BLACK
6
CONTINUOUS
10
92.8171
20
-53.8
11
92.817
21
-53.8
0
LINE
8
BLACK
6
CONTINUOUS
10
92.817
20
-53.8
11
92.817
21
-53.8
0
LINE
8
BLACK
6
CONTINUOUS
10
92.817
20
-53.8
11
92.817
21
-53.8
0
LINE
8
BLACK
6
CONTINUOUS
10
92.817
20
-53.8
11
92.8154
21
-53.8
0
LINE
8
BLACK
6
CONTINUOUS
10
92.8154
20
-53.8
11
92.8039
21
-53.7987
0
LINE
8
BLACK
6
CONTINUOUS
10
92.8039
20
-53.7987
11
92.7924
21
-53.7976
0
LINE
8
BLACK
6
CONTINUOUS
10
92.7924
20
-53.7976
11
92.7644
21
-53.792
0
LINE
8
BLACK
6
CONTINUOUS
10
92.7644
20
-53.792
11
92.5856
21
-53.792
0
LINE
8
BLACK
6
CONTINUOUS
10
92.5856
20
-53.792
11
92.5576
21
-53.7976
0
LINE
8
BLACK
6
CONTINUOUS
10
92.5576
20
-53.7976
11
92.5575
21
-53.7976
0
LINE
8
BLACK
6
CONTINUOUS
10
92.5575
20
-53.7976
11
92.5575
21
-53.7976
0
LINE
8
BLACK
6
CONTINUOUS
10
92.5575
20
-53.7976
11
92.5575
21
-53.7976
0
LINE
8
BLACK
6
CONTINUOUS
10
92.5575
20
-53.7976
11
92.5559
21
-53.7979
0
LINE
8
BLACK
6
CONTINUOUS
10
92.5559
20
-53.7979
11
92.5443
21
-53.7989
0
LINE
8
BLACK
6
CONTINUOUS
10
92.5443
20
-53.7989
11
92.5328
21
-53.8
0
LINE
8
BLACK
6
CONTINUOUS
10
92.5328
20
-53.8
11
88.2125
21
-53.8
0
LINE
8
BLACK
6
CONTINUOUS
10
88.2125
20
-53.8
11
88.2124
21
-53.8
0
LINE
8
BLACK
6
CONTINUOUS
10
88.2124
20
-53.8
11
88.2124
21
-53.8
0
LINE
8
BLACK
6
CONTINUOUS
10
88.2124
20
-53.8
11
88.2124
21
-53.8
0
LINE
8
BLACK
6
CONTINUOUS
10
88.2124
20
-53.8
11
88.2107
21
-53.8
0
LINE
8
BLACK
6
CONTINUOUS
10
88.2107
20
-53.8
11
88.1992
21
-53.7987
0
LINE
8
BLACK
6
CONTINUOUS
10
88.1992
20
-53.7987
11
88.1877
21
-53.7976
0
LINE
8
BLACK
6
CONTINUOUS
10
88.1877
20
-53.7976
11
88.1482
21
-53.7897
0
LINE
8
BLACK
6
CONTINUOUS
10
88.1482
20
-53.7897
11
88.148
21
-53.7897
0
LINE
8
BLACK
6
CONTINUOUS
10
88.148
20
-53.7897
11
88.148
21
-53.7897
0
LINE
8
BLACK
6
CONTINUOUS
10
88.148
20
-53.7897
11
88.148
21
-53.7897
0
LINE
8
BLACK
6
CONTINUOUS
10
88.148
20
-53.7897
11
88.1465
21
-53.7893
0
LINE
8
BLACK
6
CONTINUOUS
10
88.1465
20
-53.7893
11
88.1354
21
-53.7858
0
LINE
8
BLACK
6
CONTINUOUS
10
88.1354
20
-53.7858
11
88.1243
21
-53.7824
0
LINE
8
BLACK
6
CONTINUOUS
10
88.1243
20
-53.7824
11
88.1236
21
-53.7821
0
LINE
8
BLACK
6
CONTINUOUS
10
88.1236
20
-53.7821
11
88.1229
21
-53.7818
0
LINE
8
BLACK
6
CONTINUOUS
10
88.1229
20
-53.7818
11
88.1127
21
-53.7762
0
LINE
8
BLACK
6
CONTINUOUS
10
88.1127
20
-53.7762
11
88.1025
21
-53.7707
0
LINE
8
BLACK
6
CONTINUOUS
10
88.1025
20
-53.7707
11
88.0796
21
-53.7555
0
LINE
8
BLACK
6
CONTINUOUS
10
88.0796
20
-53.7555
11
88.0794
21
-53.7553
0
LINE
8
BLACK
6
CONTINUOUS
10
88.0794
20
-53.7553
11
88.0794
21
-53.7553
0
LINE
8
BLACK
6
CONTINUOUS
10
88.0794
20
-53.7553
11
88.0794
21
-53.7553
0
LINE
8
BLACK
6
CONTINUOUS
10
88.0794
20
-53.7553
11
88.0781
21
-53.7545
0
LINE
8
BLACK
6
CONTINUOUS
10
88.0781
20
-53.7545
11
88.0692
21
-53.7469
0
LINE
8
BLACK
6
CONTINUOUS
10
88.0692
20
-53.7469
11
88.0603
21
-53.7396
0
LINE
8
BLACK
6
CONTINUOUS
10
88.0603
20
-53.7396
11
88.0598
21
-53.739
0
LINE
8
BLACK
6
CONTINUOUS
10
88.0598
20
-53.739
11
88.0592
21
-53.7385
0
LINE
8
BLACK
6
CONTINUOUS
10
88.0592
20
-53.7385
11
88.0519
21
-53.7294
0
LINE
8
BLACK
6
CONTINUOUS
10
88.0519
20
-53.7294
11
88.0445
21
-53.7204
0
LINE
8
BLACK
6
CONTINUOUS
10
88.0445
20
-53.7204
11
88.0293
21
-53.6975
0
LINE
8
BLACK
6
CONTINUOUS
10
88.0293
20
-53.6975
11
88.0291
21
-53.6974
0
LINE
8
BLACK
6
CONTINUOUS
10
88.0291
20
-53.6974
11
88.0291
21
-53.6974
0
LINE
8
BLACK
6
CONTINUOUS
10
88.0291
20
-53.6974
11
88.0291
21
-53.6973
0
LINE
8
BLACK
6
CONTINUOUS
10
88.0291
20
-53.6973
11
88.0283
21
-53.6961
0
LINE
8
BLACK
6
CONTINUOUS
10
88.0283
20
-53.6961
11
88.0229
21
-53.6857
0
LINE
8
BLACK
6
CONTINUOUS
10
88.0229
20
-53.6857
11
88.0175
21
-53.6755
0
LINE
8
BLACK
6
CONTINUOUS
10
88.0175
20
-53.6755
11
88.0173
21
-53.6747
0
LINE
8
BLACK
6
CONTINUOUS
10
88.0173
20
-53.6747
11
88.0169
21
-53.674
0
LINE
8
BLACK
6
CONTINUOUS
10
88.0169
20
-53.674
11
88.0136
21
-53.6628
0
LINE
8
BLACK
6
CONTINUOUS
10
88.0136
20
-53.6628
11
88.0103
21
-53.6518
0
LINE
8
BLACK
6
CONTINUOUS
10
88.0103
20
-53.6518
11
88.0024
21
-53.6123
0
LINE
8
BLACK
6
CONTINUOUS
10
88.0024
20
-53.6123
11
88.0021
21
-53.6105
0
LINE
8
BLACK
6
CONTINUOUS
10
88.0021
20
-53.6105
11
88.0011
21
-53.599
0
LINE
8
BLACK
6
CONTINUOUS
10
88.0011
20
-53.599
11
88
21
-53.5875
0
LINE
8
BLACK
6
CONTINUOUS
10
88
20
-53.5875
11
88
21
-50.4125
0
LINE
8
BLACK
6
CONTINUOUS
10
88
20
-50.4125
11
88
21
-50.4124
0
LINE
8
BLACK
6
CONTINUOUS
10
88
20
-50.4124
11
88
21
-50.4124
0
LINE
8
BLACK
6
CONTINUOUS
10
88
20
-50.4124
11
88
21
-50.4124
0
LINE
8
BLACK
6
CONTINUOUS
10
88
20
-50.4124
11
88
21
-50.4107
0
LINE
8
BLACK
6
CONTINUOUS
10
88
20
-50.4107
11
88.0013
21
-50.3992
0
LINE
8
BLACK
6
CONTINUOUS
10
88.0013
20
-50.3992
11
88.0024
21
-50.3877
0
LINE
8
BLACK
6
CONTINUOUS
10
88.0024
20
-50.3877
11
88.0079
21
-50.3602
0
LINE
8
BLACK
6
CONTINUOUS
10
88.0079
20
-50.3602
11
88.0081
21
-50.3595
0
LINE
8
BLACK
6
CONTINUOUS
10
88.0081
20
-50.3595
11
88.0081
21
-50.3595
0
LINE
8
BLACK
6
CONTINUOUS
10
88.0081
20
-50.3595
11
88.0081
21
-50.3594
0
LINE
8
BLACK
6
CONTINUOUS
10
88.0081
20
-50.3594
11
88.0083
21
-50.3585
0
LINE
8
BLACK
6
CONTINUOUS
10
88.0083
20
-50.3585
11
88.0119
21
-50.3471
0
LINE
8
BLACK
6
CONTINUOUS
10
88.0119
20
-50.3471
11
88.0154
21
-50.3358
0
LINE
8
BLACK
6
CONTINUOUS
10
88.0154
20
-50.3358
11
88.0156
21
-50.3353
0
LINE
8
BLACK
6
CONTINUOUS
10
88.0156
20
-50.3353
11
88.0158
21
-50.3349
0
LINE
8
BLACK
6
CONTINUOUS
10
88.0158
20
-50.3349
11
88.0215
21
-50.3245
0
LINE
8
BLACK
6
CONTINUOUS
10
88.0215
20
-50.3245
11
88.0272
21
-50.314
0
LINE
8
BLACK
6
CONTINUOUS
10
88.0272
20
-50.314
11
88.0275
21
-50.3136
0
LINE
8
BLACK
6
CONTINUOUS
10
88.0275
20
-50.3136
11
88.0277
21
-50.3132
0
LINE
8
BLACK
6
CONTINUOUS
10
88.0277
20
-50.3132
11
88.0354
21
-50.3041
0
LINE
8
BLACK
6
CONTINUOUS
10
88.0354
20
-50.3041
11
88.043
21
-50.2949
0
LINE
8
BLACK
6
CONTINUOUS
10
88.043
20
-50.2949
11
88.0434
21
-50.2946
0
LINE
8
BLACK
6
CONTINUOUS
10
88.0434
20
-50.2946
11
88.0437
21
-50.2942
0
LINE
8
BLACK
6
CONTINUOUS
10
88.0437
20
-50.2942
11
88.0529
21
-50.2868
0
LINE
8
BLACK
6
CONTINUOUS
10
88.0529
20
-50.2868
11
88.0622
21
-50.2792
0
LINE
8
BLACK
6
CONTINUOUS
10
88.0622
20
-50.2792
11
88.0626
21
-50.279
0
LINE
8
BLACK
6
CONTINUOUS
10
88.0626
20
-50.279
11
88.063
21
-50.2787
0
LINE
8
BLACK
6
CONTINUOUS
10
88.063
20
-50.2787
11
88.0736
21
-50.2732
0
LINE
8
BLACK
6
CONTINUOUS
10
88.0736
20
-50.2732
11
88.0841
21
-50.2676
0
LINE
8
BLACK
6
CONTINUOUS
10
88.0841
20
-50.2676
11
88.0846
21
-50.2674
0
LINE
8
BLACK
6
CONTINUOUS
10
88.0846
20
-50.2674
11
88.085
21
-50.2672
0
LINE
8
BLACK
6
CONTINUOUS
10
88.085
20
-50.2672
11
88.0964
21
-50.2639
0
LINE
8
BLACK
6
CONTINUOUS
10
88.0964
20
-50.2639
11
88.1078
21
-50.2604
0
LINE
8
BLACK
6
CONTINUOUS
10
88.1078
20
-50.2604
11
88.1083
21
-50.2604
0
LINE
8
BLACK
6
CONTINUOUS
10
88.1083
20
-50.2604
11
88.1088
21
-50.2602
0
LINE
8
BLACK
6
CONTINUOUS
10
88.1088
20
-50.2602
11
88.1206
21
-50.2592
0
LINE
8
BLACK
6
CONTINUOUS
10
88.1206
20
-50.2592
11
88.1325
21
-50.258
0
LINE
8
BLACK
6
CONTINUOUS
10
88.1325
20
-50.258
11
94.4675
21
-50.258
0
LINE
8
BLACK
6
CONTINUOUS
10
94.4675
20
-50.258
11
94.4683
21
-50.258
0
LINE
8
BLACK
6
CONTINUOUS
10
144.321
20
-28.6345
11
144.958
21
-28.8983
0
LINE
8
BLACK
6
CONTINUOUS
10
144.958
20
-28.8983
11
145.531
21
-29.2814
0
LINE
8
BLACK
6
CONTINUOUS
10
145.531
20
-29.2814
11
146.019
21
-29.7689
0
LINE
8
BLACK
6
CONTINUOUS
10
146.019
20
-29.7689
11
146.402
21
-30.3421
0
LINE
8
BLACK
6
CONTINUOUS
10
146.402
20
-30.3421
11
146.665
21
-30.9791
0
LINE
8
BLACK
6
CONTINUOUS
10
146.665
20
-30.9791
11
146.8
21
-31.6553
0
LINE
8
BLACK
6
CONTINUOUS
10
146.8
20
-31.6553
11
146.8
21
-32.3447
0
LINE
8
BLACK
6
CONTINUOUS
10
146.8
20
-32.3447
11
146.665
21
-33.0209
0
LINE
8
BLACK
6
CONTINUOUS
10
146.665
20
-33.0209
11
146.402
21
-33.6579
0
LINE
8
BLACK
6
CONTINUOUS
10
146.402
20
-33.6579
11
146.019
21
-34.2311
0
LINE
8
BLACK
6
CONTINUOUS
10
146.019
20
-34.2311
11
145.531
21
-34.7186
0
LINE
8
BLACK
6
CONTINUOUS
10
145.531
20
-34.7186
11
144.958
21
-35.1017
0
LINE
8
BLACK
6
CONTINUOUS
10
144.958
20
-35.1017
11
144.321
21
-35.3655
0
LINE
8
BLACK
6
CONTINUOUS
10
144.321
20
-35.3655
11
143.645
21
-35.5
0
LINE
8
BLACK
6
CONTINUOUS
10
143.645
20
-35.5
11
142.955
21
-35.5
0
LINE
8
BLACK
6
CONTINUOUS
10
142.955
20
-35.5
11
142.279
21
-35.3655
0
LINE
8
BLACK
6
CONTINUOUS
10
142.279
20
-35.3655
11
141.642
21
-35.1017
0
LINE
8
BLACK
6
CONTINUOUS
10
141.642
20
-35.1017
11
141.069
21
-34.7186
0
LINE
8
BLACK
6
CONTINUOUS
10
141.069
20
-34.7186
11
140.581
21
-34.2311
0
LINE
8
BLACK
6
CONTINUOUS
10
140.581
20
-34.2311
11
140.198
21
-33.6579
0
LINE
8
BLACK
6
CONTINUOUS
10
140.198
20
-33.6579
11
139.935
21
-33.0209
0
LINE
8
BLACK
6
CONTINUOUS
10
139.935
20
-33.0209
11
139.8
21
-32.3447
0
LINE
8
BLACK
6
CONTINUOUS
10
139.8
20
-32.3447
11
139.8
21
-31.6553
0
LINE
8
BLACK
6
CONTINUOUS
10
139.8
20
-31.6553
11
139.935
21
-30.9791
0
LINE
8
BLACK
6
CONTINUOUS
10
139.935
20
-30.9791
11
140.198
21
-30.3421
0
LINE
8
BLACK
6
CONTINUOUS
10
140.198
20
-30.3421
11
140.581
21
-29.7689
0
LINE
8
BLACK
6
CONTINUOUS
10
140.581
20
-29.7689
11
141.069
21
-29.2814
0
LINE
8
BLACK
6
CONTINUOUS
10
141.069
20
-29.2814
11
141.642
21
-28.8983
0
LINE
8
BLACK
6
CONTINUOUS
10
141.642
20
-28.8983
11
142.279
21
-28.6345
0
LINE
8
BLACK
6
CONTINUOUS
10
142.279
20
-28.6345
11
142.955
21
-28.5
0
LINE
8
BLACK
6
CONTINUOUS
10
142.955
20
-28.5
11
143.645
21
-28.5
0
LINE
8
BLACK
6
CONTINUOUS
10
143.645
20
-28.5
11
144.321
21
-28.6345
0
LINE
8
BLACK
6
CONTINUOUS
10
77.8209
20
-28.6345
11
78.4579
21
-28.8983
0
LINE
8
BLACK
6
CONTINUOUS
10
78.4579
20
-28.8983
11
79.0311
21
-29.2814
0
LINE
8
BLACK
6
CONTINUOUS
10
79.0311
20
-29.2814
11
79.5186
21
-29.7689
0
LINE
8
BLACK
6
CONTINUOUS
10
79.5186
20
-29.7689
11
79.9017
21
-30.3421
0
LINE
8
BLACK
6
CONTINUOUS
10
79.9017
20
-30.3421
11
80.1655
21
-30.9791
0
LINE
8
BLACK
6
CONTINUOUS
10
80.1655
20
-30.9791
11
80.3
21
-31.6553
0
LINE
8
BLACK
6
CONTINUOUS
10
80.3
20
-31.6553
11
80.3
21
-32.3447
0
LINE
8
BLACK
6
CONTINUOUS
10
80.3
20
-32.3447
11
80.1655
21
-33.0209
0
LINE
8
BLACK
6
CONTINUOUS
10
80.1655
20
-33.0209
11
79.9017
21
-33.6579
0
LINE
8
BLACK
6
CONTINUOUS
10
79.9017
20
-33.6579
11
79.5186
21
-34.2311
0
LINE
8
BLACK
6
CONTINUOUS
10
79.5186
20
-34.2311
11
79.0311
21
-34.7186
0
LINE
8
BLACK
6
CONTINUOUS
10
79.0311
20
-34.7186
11
78.4579
21
-35.1017
0
LINE
8
BLACK
6
CONTINUOUS
10
78.4579
20
-35.1017
11
77.8209
21
-35.3655
0
LINE
8
BLACK
6
CONTINUOUS
10
77.8209
20
-35.3655
11
77.1447
21
-35.5
0
LINE
8
BLACK
6
CONTINUOUS
10
77.1447
20
-35.5
11
76.4553
21
-35.5
0
LINE
8
BLACK
6
CONTINUOUS
10
76.4553
20
-35.5
11
75.7791
21
-35.3655
0
LINE
8
BLACK
6
CONTINUOUS
10
75.7791
20
-35.3655
11
75.1421
21
-35.1017
0
LINE
8
BLACK
6
CONTINUOUS
10
75.1421
20
-35.1017
11
74.5689
21
-34.7186
0
LINE
8
BLACK
6
CONTINUOUS
10
74.5689
20
-34.7186
11
74.0814
21
-34.2311
0
LINE
8
BLACK
6
CONTINUOUS
10
74.0814
20
-34.2311
11
73.6983
21
-33.6579
0
LINE
8
BLACK
6
CONTINUOUS
10
73.6983
20
-33.6579
11
73.4345
21
-33.0209
0
LINE
8
BLACK
6
CONTINUOUS
10
73.4345
20
-33.0209
11
73.3
21
-32.3447
0
LINE
8
BLACK
6
CONTINUOUS
10
73.3
20
-32.3447
11
73.3
21
-31.6553
0
LINE
8
BLACK
6
CONTINUOUS
10
73.3
20
-31.6553
11
73.4345
21
-30.9791
0
LINE
8
BLACK
6
CONTINUOUS
10
73.4345
20
-30.9791
11
73.6983
21
-30.3421
0
LINE
8
BLACK
6
CONTINUOUS
10
73.6983
20
-30.3421
11
74.0814
21
-29.7689
0
LINE
8
BLACK
6
CONTINUOUS
10
74.0814
20
-29.7689
11
74.5689
21
-29.2814
0
LINE
8
BLACK
6
CONTINUOUS
10
74.5689
20
-29.2814
11
75.1421
21
-28.8983
0
LINE
8
BLACK
6
CONTINUOUS
10
75.1421
20
-28.8983
11
75.7791
21
-28.6345
0
LINE
8
BLACK
6
CONTINUOUS
10
75.7791
20
-28.6345
11
76.4553
21
-28.5
0
LINE
8
BLACK
6
CONTINUOUS
10
76.4553
20
-28.5
11
77.1447
21
-28.5
0
LINE
8
BLACK
6
CONTINUOUS
10
77.1447
20
-28.5
11
77.8209
21
-28.6345
0
CIRCLE
8
BLACK
10
76.8
20
-81.5
40
0.2
0
CIRCLE
8
BLACK
10
78.05
20
-81.1651
40
0.2
0
CIRCLE
8
BLACK
10
78.9651
20
-80.25
40
0.2
0
CIRCLE
8
BLACK
10
79.3
20
-79
40
0.2
0
CIRCLE
8
BLACK
10
78.9651
20
-77.75
40
0.2
0
CIRCLE
8
BLACK
10
78.05
20
-76.8349
40
0.2
0
CIRCLE
8
BLACK
10
76.8
20
-76.5
40
0.2
0
CIRCLE
8
BLACK
10
75.55
20
-76.8349
40
0.2
0
CIRCLE
8
BLACK
10
74.6349
20
-77.75
40
0.2
0
CIRCLE
8
BLACK
10
74.3
20
-79
40
0.2
0
CIRCLE
8
BLACK
10
74.6349
20
-80.25
40
0.2
0
CIRCLE
8
BLACK
10
75.55
20
-81.1651
40
0.2
0
CIRCLE
8
BLACK
10
76.8
20
-34.5
40
0.2
0
CIRCLE
8
BLACK
10
75.55
20
-29.8349
40
0.2
0
CIRCLE
8
BLACK
10
79.3
20
-32
40
0.2
0
CIRCLE
8
BLACK
10
78.05
20
-34.1651
40
0.2
0
CIRCLE
8
BLACK
10
75.55
20
-34.1651
40
0.2
0
CIRCLE
8
BLACK
10
78.9651
20
-30.75
40
0.2
0
CIRCLE
8
BLACK
10
76.8
20
-29.5
40
0.2
0
CIRCLE
8
BLACK
10
74.6349
20
-30.75
40
0.2
0
CIRCLE
8
BLACK
10
74.6349
20
-33.25
40
0.2
0
CIRCLE
8
BLACK
10
78.9651
20
-33.25
40
0.2
0
CIRCLE
8
BLACK
10
74.3
20
-32
40
0.2
0
CIRCLE
8
BLACK
10
78.05
20
-29.8349
40
0.2
0
CIRCLE
8
BLACK
10
143.3
20
-34.5
40
0.2
0
CIRCLE
8
BLACK
10
142.05
20
-29.8349
40
0.2
0
CIRCLE
8
BLACK
10
145.8
20
-32
40
0.2
0
CIRCLE
8
BLACK
10
144.55
20
-34.1651
40
0.2
0
CIRCLE
8
BLACK
10
142.05
20
-34.1651
40
0.2
0
CIRCLE
8
BLACK
10
145.465
20
-30.75
40
0.2
0
CIRCLE
8
BLACK
10
143.3
20
-29.5
40
0.2
0
CIRCLE
8
BLACK
10
141.135
20
-30.75
40
0.2
0
CIRCLE
8
BLACK
10
141.135
20
-33.25
40
0.2
0
CIRCLE
8
BLACK
10
145.465
20
-33.25
40
0.2
0
CIRCLE
8
BLACK
10
140.8
20
-32
40
0.2
0
CIRCLE
8
BLACK
10
144.55
20
-29.8349
40
0.2
0
CIRCLE
8
BLACK
10
143.3
20
-81.5
40
0.2
0
CIRCLE
8
BLACK
10
142.05
20
-76.8349
40
0.2
0
CIRCLE
8
BLACK
10
145.8
20
-79
40
0.2
0
CIRCLE
8
BLACK
10
144.55
20
-81.1651
40
0.2
0
CIRCLE
8
BLACK
10
142.05
20
-81.1651
40
0.2
0
CIRCLE
8
BLACK
10
145.465
20
-77.75
40
0.2
0
CIRCLE
8
BLACK
10
143.3
20
-76.5
40
0.2
0
CIRCLE
8
BLACK
10
141.135
20
-77.75
40
0.2
0
CIRCLE
8
BLACK
10
141.135
20
-80.25
40
0.2
0
CIRCLE
8
BLACK
10
145.465
20
-80.25
40
0.2
0
CIRCLE
8
BLACK
10
140.8
20
-79
40
0.2
0
CIRCLE
8
BLACK
10
144.55
20
-76.8349
40
0.2
0
CIRCLE
8
BLACK
10
106.8
20
-55.4
40
0.2
0
CIRCLE
8
BLACK
10
108.275
20
-54.3
40
0.2
0
CIRCLE
8
BLACK
10
114.8
20
-53.3
40
0.2
0
CIRCLE
8
BLACK
10
109.072
20
-59.1795
40
0.2
0
CIRCLE
8
BLACK
10
91.3
20
-53
40
0.2
0
CIRCLE
8
BLACK
10
92.1
20
-53
40
0.2
0
CIRCLE
8
BLACK
10
90.5
20
-53
40
0.2
0
CIRCLE
8
BLACK
10
90.5
20
-51.4
40
0.2
0
CIRCLE
8
BLACK
10
91.3
20
-51.4
40
0.2
0
CIRCLE
8
BLACK
10
92.1
20
-51.4
40
0.2
0
CIRCLE
8
BLACK
10
92.1
20
-52.2
40
0.2
0
CIRCLE
8
BLACK
10
90.5
20
-52.2
40
0.2
0
CIRCLE
8
BLACK
10
75
20
-72.6
40
0.2
0
CIRCLE
8
BLACK
10
78
20
-71.6
40
0.2
0
CIRCLE
8
BLACK
10
78
20
-73.6
40
0.2
0
CIRCLE
8
BLACK
10
76
20
-73.6
40
0.2
0
CIRCLE
8
BLACK
10
81
20
-72.6
40
0.2
0
CIRCLE
8
BLACK
10
83
20
-72.6
40
0.2
0
CIRCLE
8
BLACK
10
81
20
-73.6
40
0.2
0
CIRCLE
8
BLACK
10
88
20
-72.6
40
0.2
0
CIRCLE
8
BLACK
10
74
20
-72.6
40
0.2
0
CIRCLE
8
BLACK
10
77
20
-73.6
40
0.2
0
CIRCLE
8
BLACK
10
74
20
-67.6
40
0.2
0
CIRCLE
8
BLACK
10
80
20
-72.6
40
0.2
0
CIRCLE
8
BLACK
10
88
20
-73.6
40
0.2
0
CIRCLE
8
BLACK
10
81
20
-71.6
40
0.2
0
CIRCLE
8
BLACK
10
75
20
-71.6
40
0.2
0
CIRCLE
8
BLACK
10
75
20
-67.6
40
0.2
0
CIRCLE
8
BLACK
10
76
20
-72.6
40
0.2
0
CIRCLE
8
BLACK
10
87
20
-72.6
40
0.2
0
CIRCLE
8
BLACK
10
82
20
-73.6
40
0.2
0
CIRCLE
8
BLACK
10
79
20
-72.6
40
0.2
0
CIRCLE
8
BLACK
10
78
20
-72.6
40
0.2
0
CIRCLE
8
BLACK
10
79
20
-69.6
40
0.2
0
CIRCLE
8
BLACK
10
84
20
-72.6
40
0.2
0
CIRCLE
8
BLACK
10
83
20
-73.6
40
0.2
0
CIRCLE
8
BLACK
10
87
20
-71.6
40
0.2
0
CIRCLE
8
BLACK
10
88
20
-63.6
40
0.2
0
CIRCLE
8
BLACK
10
86
20
-71.6
40
0.2
0
CIRCLE
8
BLACK
10
85
20
-73.6
40
0.2
0
CIRCLE
8
BLACK
10
76
20
-63.6
40
0.2
0
CIRCLE
8
BLACK
10
86
20
-73.6
40
0.2
0
CIRCLE
8
BLACK
10
74
20
-63.6
40
0.2
0
CIRCLE
8
BLACK
10
75
20
-73.6
40
0.2
0
CIRCLE
8
BLACK
10
77
20
-67.6
40
0.2
0
CIRCLE
8
BLACK
10
77
20
-71.6
40
0.2
0
CIRCLE
8
BLACK
10
79
20
-73.6
40
0.2
0
CIRCLE
8
BLACK
10
74
20
-71.6
40
0.2
0
CIRCLE
8
BLACK
10
80
20
-73.6
40
0.2
0
CIRCLE
8
BLACK
10
85
20
-72.6
40
0.2
0
CIRCLE
8
BLACK
10
88
20
-67.6
40
0.2
0
CIRCLE
8
BLACK
10
79
20
-71.6
40
0.2
0
CIRCLE
8
BLACK
10
85
20
-67.6
40
0.2
0
CIRCLE
8
BLACK
10
80
20
-63.6
40
0.2
0
CIRCLE
8
BLACK
10
85
20
-71.6
40
0.2
0
CIRCLE
8
BLACK
10
82
20
-71.6
40
0.2
0
CIRCLE
8
BLACK
10
85
20
-63.6
40
0.2
0
CIRCLE
8
BLACK
10
82
20
-72.6
40
0.2
0
CIRCLE
8
BLACK
10
76
20
-67.6
40
0.2
0
CIRCLE
8
BLACK
10
84
20
-73.6
40
0.2
0
CIRCLE
8
BLACK
10
77
20
-63.6
40
0.2
0
CIRCLE
8
BLACK
10
84
20
-67.6
40
0.2
0
CIRCLE
8
BLACK
10
78
20
-67.6
40
0.2
0
CIRCLE
8
BLACK
10
75
20
-63.6
40
0.2
0
CIRCLE
8
BLACK
10
86
20
-63.6
40
0.2
0
CIRCLE
8
BLACK
10
83
20
-71.6
40
0.2
0
CIRCLE
8
BLACK
10
81
20
-63.6
40
0.2
0
CIRCLE
8
BLACK
10
87
20
-63.6
40
0.2
0
CIRCLE
8
BLACK
10
79
20
-63.6
40
0.2
0
CIRCLE
8
BLACK
10
80
20
-67.6
40
0.2
0
CIRCLE
8
BLACK
10
76
20
-71.6
40
0.2
0
CIRCLE
8
BLACK
10
87
20
-73.6
40
0.2
0
CIRCLE
8
BLACK
10
84
20
-71.6
40
0.2
0
CIRCLE
8
BLACK
10
83
20
-63.6
40
0.2
0
CIRCLE
8
BLACK
10
80
20
-71.6
40
0.2
0
CIRCLE
8
BLACK
10
87
20
-67.6
40
0.2
0
CIRCLE
8
BLACK
10
79
20
-67.6
40
0.2
0
CIRCLE
8
BLACK
10
81
20
-67.6
40
0.2
0
CIRCLE
8
BLACK
10
82
20
-67.6
40
0.2
0
CIRCLE
8
BLACK
10
84
20
-63.6
40
0.2
0
CIRCLE
8
BLACK
10
78
20
-63.6
40
0.2
0
CIRCLE
8
BLACK
10
86
20
-67.6
40
0.2
0
CIRCLE
8
BLACK
10
86
20
-72.6
40
0.2
0
CIRCLE
8
BLACK
10
83
20
-67.6
40
0.2
0
CIRCLE
8
BLACK
10
74
20
-73.6
40
0.2
0
CIRCLE
8
BLACK
10
82
20
-63.6
40
0.2
0
CIRCLE
8
BLACK
10
77
20
-69.6
40
0.2
0
CIRCLE
8
BLACK
10
85
20
-70.6
40
0.2
0
CIRCLE
8
BLACK
10
84
20
-70.6
40
0.2
0
CIRCLE
8
BLACK
10
76
20
-69.6
40
0.2
0
CIRCLE
8
BLACK
10
78
20
-66.6
40
0.2
0
CIRCLE
8
BLACK
10
87
20
-68.6
40
0.2
0
CIRCLE
8
BLACK
10
74
20
-66.6
40
0.2
0
CIRCLE
8
BLACK
10
86
20
-68.6
40
0.2
0
CIRCLE
8
BLACK
10
83
20
-66.6
40
0.2
0
CIRCLE
8
BLACK
10
87
20
-65.6
40
0.2
0
CIRCLE
8
BLACK
10
85
20
-65.6
40
0.2
0
CIRCLE
8
BLACK
10
77
20
-68.6
40
0.2
0
CIRCLE
8
BLACK
10
84
20
-68.6
40
0.2
0
CIRCLE
8
BLACK
10
81
20
-65.6
40
0.2
0
CIRCLE
8
BLACK
10
74
20
-69.6
40
0.2
0
CIRCLE
8
BLACK
10
78
20
-69.6
40
0.2
0
CIRCLE
8
BLACK
10
80
20
-69.6
40
0.2
0
CIRCLE
8
BLACK
10
82
20
-70.6
40
0.2
0
CIRCLE
8
BLACK
10
83
20
-70.6
40
0.2
0
CIRCLE
8
BLACK
10
86
20
-65.6
40
0.2
0
CIRCLE
8
BLACK
10
86
20
-70.6
40
0.2
0
CIRCLE
8
BLACK
10
78
20
-70.6
40
0.2
0
CIRCLE
8
BLACK
10
76
20
-65.6
40
0.2
0
CIRCLE
8
BLACK
10
81
20
-70.6
40
0.2
0
CIRCLE
8
BLACK
10
77
20
-70.6
40
0.2
0
CIRCLE
8
BLACK
10
79
20
-68.6
40
0.2
0
CIRCLE
8
BLACK
10
79
20
-70.6
40
0.2
0
CIRCLE
8
BLACK
10
74
20
-70.6
40
0.2
0
CIRCLE
8
BLACK
10
82
20
-69.6
40
0.2
0
CIRCLE
8
BLACK
10
75
20
-69.6
40
0.2
0
CIRCLE
8
BLACK
10
75
20
-68.6
40
0.2
0
CIRCLE
8
BLACK
10
74
20
-65.6
40
0.2
0
CIRCLE
8
BLACK
10
77
20
-65.6
40
0.2
0
CIRCLE
8
BLACK
10
84
20
-69.6
40
0.2
0
CIRCLE
8
BLACK
10
88
20
-70.6
40
0.2
0
CIRCLE
8
BLACK
10
85
20
-68.6
40
0.2
0
CIRCLE
8
BLACK
10
86
20
-69.6
40
0.2
0
CIRCLE
8
BLACK
10
80
20
-65.6
40
0.2
0
CIRCLE
8
BLACK
10
88
20
-69.6
40
0.2
0
CIRCLE
8
BLACK
10
84
20
-65.6
40
0.2
0
CIRCLE
8
BLACK
10
80
20
-68.6
40
0.2
0
CIRCLE
8
BLACK
10
81
20
-69.6
40
0.2
0
CIRCLE
8
BLACK
10
76
20
-70.6
40
0.2
0
CIRCLE
8
BLACK
10
83
20
-69.6
40
0.2
0
CIRCLE
8
BLACK
10
78
20
-65.6
40
0.2
0
CIRCLE
8
BLACK
10
88
20
-68.6
40
0.2
0
CIRCLE
8
BLACK
10
85
20
-69.6
40
0.2
0
CIRCLE
8
BLACK
10
87
20
-69.6
40
0.2
0
CIRCLE
8
BLACK
10
82
20
-65.6
40
0.2
0
CIRCLE
8
BLACK
10
88
20
-66.6
40
0.2
0
CIRCLE
8
BLACK
10
78
20
-68.6
40
0.2
0
CIRCLE
8
BLACK
10
83
20
-68.6
40
0.2
0
CIRCLE
8
BLACK
10
82
20
-68.6
40
0.2
0
CIRCLE
8
BLACK
10
74
20
-68.6
40
0.2
0
CIRCLE
8
BLACK
10
75
20
-70.6
40
0.2
0
CIRCLE
8
BLACK
10
79
20
-65.6
40
0.2
0
CIRCLE
8
BLACK
10
83
20
-65.6
40
0.2
0
CIRCLE
8
BLACK
10
81
20
-68.6
40
0.2
0
CIRCLE
8
BLACK
10
76
20
-68.6
40
0.2
0
CIRCLE
8
BLACK
10
82
20
-66.6
40
0.2
0
CIRCLE
8
BLACK
10
80
20
-70.6
40
0.2
0
CIRCLE
8
BLACK
10
75
20
-65.6
40
0.2
0
CIRCLE
8
BLACK
10
87
20
-70.6
40
0.2
0
CIRCLE
8
BLACK
10
88
20
-65.6
40
0.2
0
CIRCLE
8
BLACK
10
75
20
-64.6
40
0.2
0
CIRCLE
8
BLACK
10
85
20
-64.6
40
0.2
0
CIRCLE
8
BLACK
10
82
20
-64.6
40
0.2
0
CIRCLE
8
BLACK
10
81
20
-66.6
40
0.2
0
CIRCLE
8
BLACK
10
76
20
-66.6
40
0.2
0
CIRCLE
8
BLACK
10
88
20
-64.6
40
0.2
0
CIRCLE
8
BLACK
10
77
20
-64.6
40
0.2
0
CIRCLE
8
BLACK
10
86
20
-66.6
40
0.2
0
CIRCLE
8
BLACK
10
74
20
-64.6
40
0.2
0
CIRCLE
8
BLACK
10
76
20
-64.6
40
0.2
0
CIRCLE
8
BLACK
10
87
20
-64.6
40
0.2
0
CIRCLE
8
BLACK
10
78
20
-64.6
40
0.2
0
CIRCLE
8
BLACK
10
84
20
-64.6
40
0.2
0
CIRCLE
8
BLACK
10
83
20
-64.6
40
0.2
0
CIRCLE
8
BLACK
10
77
20
-66.6
40
0.2
0
CIRCLE
8
BLACK
10
79
20
-66.6
40
0.2
0
CIRCLE
8
BLACK
10
75
20
-66.6
40
0.2
0
CIRCLE
8
BLACK
10
80
20
-66.6
40
0.2
0
CIRCLE
8
BLACK
10
87
20
-66.6
40
0.2
0
CIRCLE
8
BLACK
10
84
20
-66.6
40
0.2
0
CIRCLE
8
BLACK
10
86
20
-64.6
40
0.2
0
CIRCLE
8
BLACK
10
85
20
-66.6
40
0.2
0
CIRCLE
8
BLACK
10
79
20
-64.6
40
0.2
0
CIRCLE
8
BLACK
10
81
20
-64.6
40
0.2
0
CIRCLE
8
BLACK
10
80
20
-64.6
40
0.2
0
CIRCLE
8
BLACK
10
88
20
-71.6
40
0.2
0
CIRCLE
8
BLACK
10
77
20
-72.6
40
0.2
0
CIRCLE
8
BLACK
10
141
20
-63.6
40
0.2
0
CIRCLE
8
BLACK
10
132
20
-72.6
40
0.2
0
CIRCLE
8
BLACK
10
139
20
-63.6
40
0.2
0
CIRCLE
8
BLACK
10
146
20
-63.6
40
0.2
0
CIRCLE
8
BLACK
10
144
20
-71.6
40
0.2
0
CIRCLE
8
BLACK
10
144
20
-63.6
40
0.2
0
CIRCLE
8
BLACK
10
134
20
-63.6
40
0.2
0
CIRCLE
8
BLACK
10
145
20
-63.6
40
0.2
0
CIRCLE
8
BLACK
10
135
20
-63.6
40
0.2
0
CIRCLE
8
BLACK
10
138
20
-63.6
40
0.2
0
CIRCLE
8
BLACK
10
140
20
-63.6
40
0.2
0
CIRCLE
8
BLACK
10
145
20
-72.6
40
0.2
0
CIRCLE
8
BLACK
10
143
20
-63.6
40
0.2
0
CIRCLE
8
BLACK
10
136
20
-63.6
40
0.2
0
CIRCLE
8
BLACK
10
141
20
-71.6
40
0.2
0
CIRCLE
8
BLACK
10
142
20
-63.6
40
0.2
0
CIRCLE
8
BLACK
10
132
20
-63.6
40
0.2
0
CIRCLE
8
BLACK
10
133
20
-63.6
40
0.2
0
CIRCLE
8
BLACK
10
137
20
-63.6
40
0.2
0
CIRCLE
8
BLACK
10
135
20
-65.6
40
0.2
0
CIRCLE
8
BLACK
10
146
20
-66.6
40
0.2
0
CIRCLE
8
BLACK
10
139
20
-65.6
40
0.2
0
CIRCLE
8
BLACK
10
132
20
-66.6
40
0.2
0
CIRCLE
8
BLACK
10
141
20
-65.6
40
0.2
0
CIRCLE
8
BLACK
10
140
20
-64.6
40
0.2
0
CIRCLE
8
BLACK
10
133
20
-65.6
40
0.2
0
CIRCLE
8
BLACK
10
144
20
-65.6
40
0.2
0
CIRCLE
8
BLACK
10
134
20
-66.6
40
0.2
0
CIRCLE
8
BLACK
10
146
20
-65.6
40
0.2
0
CIRCLE
8
BLACK
10
146
20
-64.6
40
0.2
0
CIRCLE
8
BLACK
10
138
20
-65.6
40
0.2
0
CIRCLE
8
BLACK
10
136
20
-64.6
40
0.2
0
CIRCLE
8
BLACK
10
141
20
-64.6
40
0.2
0
CIRCLE
8
BLACK
10
140
20
-65.6
40
0.2
0
CIRCLE
8
BLACK
10
142
20
-66.6
40
0.2
0
CIRCLE
8
BLACK
10
139
20
-64.6
40
0.2
0
CIRCLE
8
BLACK
10
133
20
-64.6
40
0.2
0
CIRCLE
8
BLACK
10
138
20
-64.6
40
0.2
0
CIRCLE
8
BLACK
10
145
20
-64.6
40
0.2
0
CIRCLE
8
BLACK
10
145
20
-66.6
40
0.2
0
CIRCLE
8
BLACK
10
144
20
-64.6
40
0.2
0
CIRCLE
8
BLACK
10
133
20
-66.6
40
0.2
0
CIRCLE
8
BLACK
10
138
20
-66.6
40
0.2
0
CIRCLE
8
BLACK
10
143
20
-65.6
40
0.2
0
CIRCLE
8
BLACK
10
143
20
-66.6
40
0.2
0
CIRCLE
8
BLACK
10
144
20
-66.6
40
0.2
0
CIRCLE
8
BLACK
10
134
20
-65.6
40
0.2
0
CIRCLE
8
BLACK
10
142
20
-65.6
40
0.2
0
CIRCLE
8
BLACK
10
132
20
-64.6
40
0.2
0
CIRCLE
8
BLACK
10
137
20
-66.6
40
0.2
0
CIRCLE
8
BLACK
10
143
20
-64.6
40
0.2
0
CIRCLE
8
BLACK
10
134
20
-64.6
40
0.2
0
CIRCLE
8
BLACK
10
135
20
-64.6
40
0.2
0
CIRCLE
8
BLACK
10
137
20
-64.6
40
0.2
0
CIRCLE
8
BLACK
10
145
20
-65.6
40
0.2
0
CIRCLE
8
BLACK
10
142
20
-64.6
40
0.2
0
CIRCLE
8
BLACK
10
143
20
-72.6
40
0.2
0
CIRCLE
8
BLACK
10
146
20
-73.6
40
0.2
0
CIRCLE
8
BLACK
10
136
20
-73.6
40
0.2
0
CIRCLE
8
BLACK
10
135
20
-73.6
40
0.2
0
CIRCLE
8
BLACK
10
132
20
-71.6
40
0.2
0
CIRCLE
8
BLACK
10
134
20
-71.6
40
0.2
0
CIRCLE
8
BLACK
10
143
20
-73.6
40
0.2
0
CIRCLE
8
BLACK
10
135
20
-72.6
40
0.2
0
CIRCLE
8
BLACK
10
133
20
-71.6
40
0.2
0
CIRCLE
8
BLACK
10
137
20
-71.6
40
0.2
0
CIRCLE
8
BLACK
10
132
20
-73.6
40
0.2
0
CIRCLE
8
BLACK
10
138
20
-73.6
40
0.2
0
CIRCLE
8
BLACK
10
146
20
-71.6
40
0.2
0
CIRCLE
8
BLACK
10
142
20
-73.6
40
0.2
0
CIRCLE
8
BLACK
10
136
20
-71.6
40
0.2
0
CIRCLE
8
BLACK
10
144
20
-73.6
40
0.2
0
CIRCLE
8
BLACK
10
140
20
-71.6
40
0.2
0
CIRCLE
8
BLACK
10
138
20
-71.6
40
0.2
0
CIRCLE
8
BLACK
10
136
20
-67.6
40
0.2
0
CIRCLE
8
BLACK
10
139
20
-70.6
40
0.2
0
CIRCLE
8
BLACK
10
139
20
-73.6
40
0.2
0
CIRCLE
8
BLACK
10
133
20
-72.6
40
0.2
0
CIRCLE
8
BLACK
10
137
20
-73.6
40
0.2
0
CIRCLE
8
BLACK
10
134
20
-73.6
40
0.2
0
CIRCLE
8
BLACK
10
146
20
-68.6
40
0.2
0
CIRCLE
8
BLACK
10
140
20
-72.6
40
0.2
0
CIRCLE
8
BLACK
10
144
20
-72.6
40
0.2
0
CIRCLE
8
BLACK
10
141
20
-72.6
40
0.2
0
CIRCLE
8
BLACK
10
146
20
-72.6
40
0.2
0
CIRCLE
8
BLACK
10
138
20
-72.6
40
0.2
0
CIRCLE
8
BLACK
10
141
20
-73.6
40
0.2
0
CIRCLE
8
BLACK
10
136
20
-72.6
40
0.2
0
CIRCLE
8
BLACK
10
145
20
-71.6
40
0.2
0
CIRCLE
8
BLACK
10
135
20
-69.6
40
0.2
0
CIRCLE
8
BLACK
10
134
20
-72.6
40
0.2
0
CIRCLE
8
BLACK
10
142
20
-71.6
40
0.2
0
CIRCLE
8
BLACK
10
137
20
-72.6
40
0.2
0
CIRCLE
8
BLACK
10
145
20
-73.6
40
0.2
0
CIRCLE
8
BLACK
10
135
20
-71.6
40
0.2
0
CIRCLE
8
BLACK
10
140
20
-73.6
40
0.2
0
CIRCLE
8
BLACK
10
143
20
-71.6
40
0.2
0
CIRCLE
8
BLACK
10
142
20
-72.6
40
0.2
0
CIRCLE
8
BLACK
10
139
20
-71.6
40
0.2
0
CIRCLE
8
BLACK
10
133
20
-73.6
40
0.2
0
CIRCLE
8
BLACK
10
139
20
-69.6
40
0.2
0
CIRCLE
8
BLACK
10
136
20
-68.6
40
0.2
0
CIRCLE
8
BLACK
10
133
20
-69.6
40
0.2
0
CIRCLE
8
BLACK
10
136
20
-70.6
40
0.2
0
CIRCLE
8
BLACK
10
146
20
-67.6
40
0.2
0
CIRCLE
8
BLACK
10
137
20
-67.6
40
0.2
0
CIRCLE
8
BLACK
10
134
20
-70.6
40
0.2
0
CIRCLE
8
BLACK
10
134
20
-67.6
40
0.2
0
CIRCLE
8
BLACK
10
141
20
-68.6
40
0.2
0
CIRCLE
8
BLACK
10
137
20
-65.6
40
0.2
0
CIRCLE
8
BLACK
10
132
20
-65.6
40
0.2
0
CIRCLE
8
BLACK
10
137
20
-70.6
40
0.2
0
CIRCLE
8
BLACK
10
140
20
-69.6
40
0.2
0
CIRCLE
8
BLACK
10
143
20
-70.6
40
0.2
0
CIRCLE
8
BLACK
10
141
20
-69.6
40
0.2
0
CIRCLE
8
BLACK
10
144
20
-67.6
40
0.2
0
CIRCLE
8
BLACK
10
141
20
-66.6
40
0.2
0
CIRCLE
8
BLACK
10
136
20
-66.6
40
0.2
0
CIRCLE
8
BLACK
10
138
20
-67.6
40
0.2
0
CIRCLE
8
BLACK
10
133
20
-67.6
40
0.2
0
CIRCLE
8
BLACK
10
140
20
-70.6
40
0.2
0
CIRCLE
8
BLACK
10
136
20
-69.6
40
0.2
0
CIRCLE
8
BLACK
10
144
20
-68.6
40
0.2
0
CIRCLE
8
BLACK
10
137
20
-69.6
40
0.2
0
CIRCLE
8
BLACK
10
141
20
-67.6
40
0.2
0
CIRCLE
8
BLACK
10
135
20
-68.6
40
0.2
0
CIRCLE
8
BLACK
10
145
20
-70.6
40
0.2
0
CIRCLE
8
BLACK
10
142
20
-67.6
40
0.2
0
CIRCLE
8
BLACK
10
142
20
-70.6
40
0.2
0
CIRCLE
8
BLACK
10
134
20
-68.6
40
0.2
0
CIRCLE
8
BLACK
10
135
20
-67.6
40
0.2
0
CIRCLE
8
BLACK
10
143
20
-69.6
40
0.2
0
CIRCLE
8
BLACK
10
143
20
-68.6
40
0.2
0
CIRCLE
8
BLACK
10
138
20
-70.6
40
0.2
0
CIRCLE
8
BLACK
10
139
20
-68.6
40
0.2
0
CIRCLE
8
BLACK
10
138
20
-68.6
40
0.2
0
CIRCLE
8
BLACK
10
145
20
-69.6
40
0.2
0
CIRCLE
8
BLACK
10
144
20
-70.6
40
0.2
0
CIRCLE
8
BLACK
10
132
20
-68.6
40
0.2
0
CIRCLE
8
BLACK
10
136
20
-65.6
40
0.2
0
CIRCLE
8
BLACK
10
145
20
-67.6
40
0.2
0
CIRCLE
8
BLACK
10
134
20
-69.6
40
0.2
0
CIRCLE
8
BLACK
10
142
20
-68.6
40
0.2
0
CIRCLE
8
BLACK
10
132
20
-67.6
40
0.2
0
CIRCLE
8
BLACK
10
144
20
-69.6
40
0.2
0
CIRCLE
8
BLACK
10
141
20
-70.6
40
0.2
0
CIRCLE
8
BLACK
10
145
20
-68.6
40
0.2
0
CIRCLE
8
BLACK
10
143
20
-67.6
40
0.2
0
CIRCLE
8
BLACK
10
140
20
-67.6
40
0.2
0
CIRCLE
8
BLACK
10
140
20
-66.6
40
0.2
0
CIRCLE
8
BLACK
10
142
20
-69.6
40
0.2
0
CIRCLE
8
BLACK
10
137
20
-68.6
40
0.2
0
CIRCLE
8
BLACK
10
133
20
-70.6
40
0.2
0
CIRCLE
8
BLACK
10
133
20
-68.6
40
0.2
0
CIRCLE
8
BLACK
10
140
20
-68.6
40
0.2
0
CIRCLE
8
BLACK
10
135
20
-66.6
40
0.2
0
CIRCLE
8
BLACK
10
139
20
-66.6
40
0.2
0
CIRCLE
8
BLACK
10
132
20
-70.6
40
0.2
0
CIRCLE
8
BLACK
10
146
20
-69.6
40
0.2
0
CIRCLE
8
BLACK
10
139
20
-67.6
40
0.2
0
CIRCLE
8
BLACK
10
132
20
-69.6
40
0.2
0
CIRCLE
8
BLACK
10
146
20
-70.6
40
0.2
0
CIRCLE
8
BLACK
10
138
20
-69.6
40
0.2
0
CIRCLE
8
BLACK
10
135
20
-70.6
40
0.2
0
CIRCLE
8
BLACK
10
139
20
-72.6
40
0.2
0
CIRCLE
8
BLACK
10
116.5
20
-61.1
40
0.2
0
CIRCLE
8
BLACK
10
105
20
-61.225
40
0.2
0
CIRCLE
8
BLACK
10
108.7
20
-53.3
40
0.2
0
CIRCLE
8
BLACK
10
108.311
20
-60.675
40
0.2
0
CIRCLE
8
BLACK
10
102.3
20
-59.575
40
0.2
0
CIRCLE
8
BLACK
10
108.8
20
-51.9
40
0.2
0
CIRCLE
8
BLACK
10
141
20
-38.2
40
0.2
0
CIRCLE
8
BLACK
10
140
20
-42.2
40
0.2
0
CIRCLE
8
BLACK
10
137
20
-37.2
40
0.2
0
CIRCLE
8
BLACK
10
136
20
-41.2
40
0.2
0
CIRCLE
8
BLACK
10
139
20
-37.2
40
0.2
0
CIRCLE
8
BLACK
10
141
20
-40.2
40
0.2
0
CIRCLE
8
BLACK
10
136
20
-39.2
40
0.2
0
CIRCLE
8
BLACK
10
136
20
-38.2
40
0.2
0
CIRCLE
8
BLACK
10
136
20
-42.2
40
0.2
0
CIRCLE
8
BLACK
10
140
20
-38.2
40
0.2
0
CIRCLE
8
BLACK
10
139
20
-39.2
40
0.2
0
CIRCLE
8
BLACK
10
139
20
-41.2
40
0.2
0
CIRCLE
8
BLACK
10
141
20
-42.2
40
0.2
0
CIRCLE
8
BLACK
10
139
20
-43.2
40
0.2
0
CIRCLE
8
BLACK
10
141
20
-43.2
40
0.2
0
CIRCLE
8
BLACK
10
142
20
-38.2
40
0.2
0
CIRCLE
8
BLACK
10
140
20
-40.2
40
0.2
0
CIRCLE
8
BLACK
10
140
20
-41.2
40
0.2
0
CIRCLE
8
BLACK
10
138
20
-42.2
40
0.2
0
CIRCLE
8
BLACK
10
137
20
-38.2
40
0.2
0
CIRCLE
8
BLACK
10
138
20
-43.2
40
0.2
0
CIRCLE
8
BLACK
10
140
20
-43.2
40
0.2
0
CIRCLE
8
BLACK
10
136
20
-43.2
40
0.2
0
CIRCLE
8
BLACK
10
142
20
-43.2
40
0.2
0
CIRCLE
8
BLACK
10
138
20
-38.2
40
0.2
0
CIRCLE
8
BLACK
10
140
20
-39.2
40
0.2
0
CIRCLE
8
BLACK
10
141
20
-41.2
40
0.2
0
CIRCLE
8
BLACK
10
137
20
-43.2
40
0.2
0
CIRCLE
8
BLACK
10
139
20
-38.2
40
0.2
0
CIRCLE
8
BLACK
10
142
20
-40.2
40
0.2
0
CIRCLE
8
BLACK
10
142
20
-39.2
40
0.2
0
CIRCLE
8
BLACK
10
137
20
-41.2
40
0.2
0
CIRCLE
8
BLACK
10
138
20
-41.2
40
0.2
0
CIRCLE
8
BLACK
10
141
20
-37.2
40
0.2
0
CIRCLE
8
BLACK
10
142
20
-37.2
40
0.2
0
CIRCLE
8
BLACK
10
138
20
-40.2
40
0.2
0
CIRCLE
8
BLACK
10
136
20
-37.2
40
0.2
0
CIRCLE
8
BLACK
10
138
20
-39.2
40
0.2
0
CIRCLE
8
BLACK
10
136
20
-40.2
40
0.2
0
CIRCLE
8
BLACK
10
138
20
-37.2
40
0.2
0
CIRCLE
8
BLACK
10
142
20
-41.2
40
0.2
0
CIRCLE
8
BLACK
10
137
20
-40.2
40
0.2
0
CIRCLE
8
BLACK
10
139
20
-40.2
40
0.2
0
CIRCLE
8
BLACK
10
140
20
-37.2
40
0.2
0
CIRCLE
8
BLACK
10
141
20
-39.2
40
0.2
0
CIRCLE
8
BLACK
10
139
20
-42.2
40
0.2
0
CIRCLE
8
BLACK
10
137
20
-39.2
40
0.2
0
CIRCLE
8
BLACK
10
142
20
-42.2
40
0.2
0
CIRCLE
8
BLACK
10
137
20
-42.2
40
0.2
0
CIRCLE
8
BLACK
10
137
20
-44.2
40
0.2
0
CIRCLE
8
BLACK
10
141
20
-47.2
40
0.2
0
CIRCLE
8
BLACK
10
136
20
-46.2
40
0.2
0
CIRCLE
8
BLACK
10
136
20
-49.2
40
0.2
0
CIRCLE
8
BLACK
10
140
20
-45.2
40
0.2
0
CIRCLE
8
BLACK
10
141
20
-49.2
40
0.2
0
CIRCLE
8
BLACK
10
141
20
-50.2
40
0.2
0
CIRCLE
8
BLACK
10
136
20
-48.2
40
0.2
0
CIRCLE
8
BLACK
10
139
20
-44.2
40
0.2
0
CIRCLE
8
BLACK
10
136
20
-45.2
40
0.2
0
CIRCLE
8
BLACK
10
139
20
-46.2
40
0.2
0
CIRCLE
8
BLACK
10
139
20
-48.2
40
0.2
0
CIRCLE
8
BLACK
10
139
20
-50.2
40
0.2
0
CIRCLE
8
BLACK
10
142
20
-45.2
40
0.2
0
CIRCLE
8
BLACK
10
140
20
-47.2
40
0.2
0
CIRCLE
8
BLACK
10
140
20
-49.2
40
0.2
0
CIRCLE
8
BLACK
10
140
20
-48.2
40
0.2
0
CIRCLE
8
BLACK
10
138
20
-49.2
40
0.2
0
CIRCLE
8
BLACK
10
141
20
-45.2
40
0.2
0
CIRCLE
8
BLACK
10
142
20
-46.2
40
0.2
0
CIRCLE
8
BLACK
10
138
20
-50.2
40
0.2
0
CIRCLE
8
BLACK
10
141
20
-48.2
40
0.2
0
CIRCLE
8
BLACK
10
139
20
-45.2
40
0.2
0
CIRCLE
8
BLACK
10
138
20
-48.2
40
0.2
0
CIRCLE
8
BLACK
10
138
20
-46.2
40
0.2
0
CIRCLE
8
BLACK
10
141
20
-44.2
40
0.2
0
CIRCLE
8
BLACK
10
142
20
-44.2
40
0.2
0
CIRCLE
8
BLACK
10
136
20
-44.2
40
0.2
0
CIRCLE
8
BLACK
10
138
20
-47.2
40
0.2
0
CIRCLE
8
BLACK
10
140
20
-50.2
40
0.2
0
CIRCLE
8
BLACK
10
142
20
-47.2
40
0.2
0
CIRCLE
8
BLACK
10
136
20
-50.2
40
0.2
0
CIRCLE
8
BLACK
10
136
20
-47.2
40
0.2
0
CIRCLE
8
BLACK
10
137
20
-47.2
40
0.2
0
CIRCLE
8
BLACK
10
137
20
-45.2
40
0.2
0
CIRCLE
8
BLACK
10
137
20
-50.2
40
0.2
0
CIRCLE
8
BLACK
10
141
20
-46.2
40
0.2
0
CIRCLE
8
BLACK
10
142
20
-50.2
40
0.2
0
CIRCLE
8
BLACK
10
138
20
-44.2
40
0.2
0
CIRCLE
8
BLACK
10
137
20
-48.2
40
0.2
0
CIRCLE
8
BLACK
10
139
20
-47.2
40
0.2
0
CIRCLE
8
BLACK
10
139
20
-49.2
40
0.2
0
CIRCLE
8
BLACK
10
140
20
-46.2
40
0.2
0
CIRCLE
8
BLACK
10
140
20
-44.2
40
0.2
0
CIRCLE
8
BLACK
10
137
20
-46.2
40
0.2
0
CIRCLE
8
BLACK
10
138
20
-45.2
40
0.2
0
CIRCLE
8
BLACK
10
137
20
-49.2
40
0.2
0
CIRCLE
8
BLACK
10
142
20
-48.2
40
0.2
0
CIRCLE
8
BLACK
10
142
20
-49.2
40
0.2
0
CIRCLE
8
BLACK
10
145
20
-44.2
40
0.2
0
CIRCLE
8
BLACK
10
143
20
-46.2
40
0.2
0
CIRCLE
8
BLACK
10
144
20
-48.2
40
0.2
0
CIRCLE
8
BLACK
10
143
20
-48.2
40
0.2
0
CIRCLE
8
BLACK
10
144
20
-46.2
40
0.2
0
CIRCLE
8
BLACK
10
144
20
-45.2
40
0.2
0
CIRCLE
8
BLACK
10
144
20
-49.2
40
0.2
0
CIRCLE
8
BLACK
10
143
20
-47.2
40
0.2
0
CIRCLE
8
BLACK
10
143
20
-44.2
40
0.2
0
CIRCLE
8
BLACK
10
146
20
-49.2
40
0.2
0
CIRCLE
8
BLACK
10
143
20
-50.2
40
0.2
0
CIRCLE
8
BLACK
10
145
20
-45.2
40
0.2
0
CIRCLE
8
BLACK
10
146
20
-50.2
40
0.2
0
CIRCLE
8
BLACK
10
144
20
-50.2
40
0.2
0
CIRCLE
8
BLACK
10
146
20
-45.2
40
0.2
0
CIRCLE
8
BLACK
10
145
20
-50.2
40
0.2
0
CIRCLE
8
BLACK
10
145
20
-48.2
40
0.2
0
CIRCLE
8
BLACK
10
146
20
-48.2
40
0.2
0
CIRCLE
8
BLACK
10
146
20
-47.2
40
0.2
0
CIRCLE
8
BLACK
10
144
20
-44.2
40
0.2
0
CIRCLE
8
BLACK
10
146
20
-46.2
40
0.2
0
CIRCLE
8
BLACK
10
144
20
-47.2
40
0.2
0
CIRCLE
8
BLACK
10
143
20
-49.2
40
0.2
0
CIRCLE
8
BLACK
10
143
20
-45.2
40
0.2
0
CIRCLE
8
BLACK
10
146
20
-44.2
40
0.2
0
CIRCLE
8
BLACK
10
145
20
-47.2
40
0.2
0
CIRCLE
8
BLACK
10
145
20
-46.2
40
0.2
0
CIRCLE
8
BLACK
10
145
20
-49.2
40
0.2
0
CIRCLE
8
BLACK
10
137
20
-51.2
40
0.2
0
CIRCLE
8
BLACK
10
141
20
-54.2
40
0.2
0
CIRCLE
8
BLACK
10
136
20
-53.2
40
0.2
0
CIRCLE
8
BLACK
10
136
20
-56.2
40
0.2
0
CIRCLE
8
BLACK
10
140
20
-52.2
40
0.2
0
CIRCLE
8
BLACK
10
141
20
-56.2
40
0.2
0
CIRCLE
8
BLACK
10
141
20
-57.2
40
0.2
0
CIRCLE
8
BLACK
10
136
20
-55.2
40
0.2
0
CIRCLE
8
BLACK
10
139
20
-51.2
40
0.2
0
CIRCLE
8
BLACK
10
136
20
-52.2
40
0.2
0
CIRCLE
8
BLACK
10
139
20
-53.2
40
0.2
0
CIRCLE
8
BLACK
10
139
20
-55.2
40
0.2
0
CIRCLE
8
BLACK
10
139
20
-57.2
40
0.2
0
CIRCLE
8
BLACK
10
142
20
-52.2
40
0.2
0
CIRCLE
8
BLACK
10
140
20
-54.2
40
0.2
0
CIRCLE
8
BLACK
10
140
20
-56.2
40
0.2
0
CIRCLE
8
BLACK
10
140
20
-55.2
40
0.2
0
CIRCLE
8
BLACK
10
138
20
-56.2
40
0.2
0
CIRCLE
8
BLACK
10
141
20
-52.2
40
0.2
0
CIRCLE
8
BLACK
10
142
20
-53.2
40
0.2
0
CIRCLE
8
BLACK
10
138
20
-57.2
40
0.2
0
CIRCLE
8
BLACK
10
141
20
-55.2
40
0.2
0
CIRCLE
8
BLACK
10
139
20
-52.2
40
0.2
0
CIRCLE
8
BLACK
10
138
20
-55.2
40
0.2
0
CIRCLE
8
BLACK
10
138
20
-53.2
40
0.2
0
CIRCLE
8
BLACK
10
141
20
-51.2
40
0.2
0
CIRCLE
8
BLACK
10
142
20
-51.2
40
0.2
0
CIRCLE
8
BLACK
10
136
20
-51.2
40
0.2
0
CIRCLE
8
BLACK
10
138
20
-54.2
40
0.2
0
CIRCLE
8
BLACK
10
140
20
-57.2
40
0.2
0
CIRCLE
8
BLACK
10
142
20
-54.2
40
0.2
0
CIRCLE
8
BLACK
10
136
20
-57.2
40
0.2
0
CIRCLE
8
BLACK
10
136
20
-54.2
40
0.2
0
CIRCLE
8
BLACK
10
137
20
-54.2
40
0.2
0
CIRCLE
8
BLACK
10
137
20
-52.2
40
0.2
0
CIRCLE
8
BLACK
10
137
20
-57.2
40
0.2
0
CIRCLE
8
BLACK
10
141
20
-53.2
40
0.2
0
CIRCLE
8
BLACK
10
142
20
-57.2
40
0.2
0
CIRCLE
8
BLACK
10
138
20
-51.2
40
0.2
0
CIRCLE
8
BLACK
10
137
20
-55.2
40
0.2
0
CIRCLE
8
BLACK
10
139
20
-54.2
40
0.2
0
CIRCLE
8
BLACK
10
139
20
-56.2
40
0.2
0
CIRCLE
8
BLACK
10
140
20
-53.2
40
0.2
0
CIRCLE
8
BLACK
10
140
20
-51.2
40
0.2
0
CIRCLE
8
BLACK
10
137
20
-53.2
40
0.2
0
CIRCLE
8
BLACK
10
138
20
-52.2
40
0.2
0
CIRCLE
8
BLACK
10
137
20
-56.2
40
0.2
0
CIRCLE
8
BLACK
10
142
20
-55.2
40
0.2
0
CIRCLE
8
BLACK
10
142
20
-56.2
40
0.2
0
CIRCLE
8
BLACK
10
145
20
-51.2
40
0.2
0
CIRCLE
8
BLACK
10
143
20
-53.2
40
0.2
0
CIRCLE
8
BLACK
10
144
20
-55.2
40
0.2
0
CIRCLE
8
BLACK
10
143
20
-55.2
40
0.2
0
CIRCLE
8
BLACK
10
144
20
-53.2
40
0.2
0
CIRCLE
8
BLACK
10
144
20
-52.2
40
0.2
0
CIRCLE
8
BLACK
10
144
20
-56.2
40
0.2
0
CIRCLE
8
BLACK
10
143
20
-54.2
40
0.2
0
CIRCLE
8
BLACK
10
143
20
-51.2
40
0.2
0
CIRCLE
8
BLACK
10
146
20
-56.2
40
0.2
0
CIRCLE
8
BLACK
10
143
20
-57.2
40
0.2
0
CIRCLE
8
BLACK
10
145
20
-52.2
40
0.2
0
CIRCLE
8
BLACK
10
146
20
-57.2
40
0.2
0
CIRCLE
8
BLACK
10
144
20
-57.2
40
0.2
0
CIRCLE
8
BLACK
10
146
20
-52.2
40
0.2
0
CIRCLE
8
BLACK
10
145
20
-57.2
40
0.2
0
CIRCLE
8
BLACK
10
145
20
-55.2
40
0.2
0
CIRCLE
8
BLACK
10
146
20
-55.2
40
0.2
0
CIRCLE
8
BLACK
10
146
20
-54.2
40
0.2
0
CIRCLE
8
BLACK
10
144
20
-51.2
40
0.2
0
CIRCLE
8
BLACK
10
146
20
-53.2
40
0.2
0
CIRCLE
8
BLACK
10
144
20
-54.2
40
0.2
0
CIRCLE
8
BLACK
10
143
20
-56.2
40
0.2
0
CIRCLE
8
BLACK
10
143
20
-52.2
40
0.2
0
CIRCLE
8
BLACK
10
146
20
-51.2
40
0.2
0
CIRCLE
8
BLACK
10
145
20
-54.2
40
0.2
0
CIRCLE
8
BLACK
10
145
20
-53.2
40
0.2
0
CIRCLE
8
BLACK
10
145
20
-56.2
40
0.2
0
CIRCLE
8
BLACK
10
146
20
-58.2
40
0.2
0
CIRCLE
8
BLACK
10
144
20
-58.2
40
0.2
0
CIRCLE
8
BLACK
10
143
20
-58.2
40
0.2
0
CIRCLE
8
BLACK
10
145
20
-58.2
40
0.2
0
CIRCLE
8
BLACK
10
140
20
-58.2
40
0.2
0
CIRCLE
8
BLACK
10
141
20
-58.2
40
0.2
0
CIRCLE
8
BLACK
10
136
20
-58.2
40
0.2
0
CIRCLE
8
BLACK
10
137
20
-58.2
40
0.2
0
CIRCLE
8
BLACK
10
142
20
-58.2
40
0.2
0
CIRCLE
8
BLACK
10
139
20
-58.2
40
0.2
0
CIRCLE
8
BLACK
10
138
20
-58.2
40
0.2
0
CIRCLE
8
BLACK
10
146
20
-59.2
40
0.2
0
CIRCLE
8
BLACK
10
144
20
-59.2
40
0.2
0
CIRCLE
8
BLACK
10
143
20
-59.2
40
0.2
0
CIRCLE
8
BLACK
10
145
20
-59.2
40
0.2
0
CIRCLE
8
BLACK
10
140
20
-59.2
40
0.2
0
CIRCLE
8
BLACK
10
141
20
-59.2
40
0.2
0
CIRCLE
8
BLACK
10
136
20
-59.2
40
0.2
0
CIRCLE
8
BLACK
10
137
20
-59.2
40
0.2
0
CIRCLE
8
BLACK
10
142
20
-59.2
40
0.2
0
CIRCLE
8
BLACK
10
139
20
-59.2
40
0.2
0
CIRCLE
8
BLACK
10
138
20
-59.2
40
0.2
0
CIRCLE
8
BLACK
10
146
20
-60.2
40
0.2
0
CIRCLE
8
BLACK
10
144
20
-60.2
40
0.2
0
CIRCLE
8
BLACK
10
143
20
-60.2
40
0.2
0
CIRCLE
8
BLACK
10
145
20
-60.2
40
0.2
0
CIRCLE
8
BLACK
10
140
20
-60.2
40
0.2
0
CIRCLE
8
BLACK
10
141
20
-60.2
40
0.2
0
CIRCLE
8
BLACK
10
136
20
-60.2
40
0.2
0
CIRCLE
8
BLACK
10
137
20
-60.2
40
0.2
0
CIRCLE
8
BLACK
10
142
20
-60.2
40
0.2
0
CIRCLE
8
BLACK
10
139
20
-60.2
40
0.2
0
CIRCLE
8
BLACK
10
138
20
-60.2
40
0.2
0
CIRCLE
8
BLACK
10
146
20
-61.2
40
0.2
0
CIRCLE
8
BLACK
10
144
20
-61.2
40
0.2
0
CIRCLE
8
BLACK
10
143
20
-61.2
40
0.2
0
CIRCLE
8
BLACK
10
145
20
-61.2
40
0.2
0
CIRCLE
8
BLACK
10
140
20
-61.2
40
0.2
0
CIRCLE
8
BLACK
10
141
20
-61.2
40
0.2
0
CIRCLE
8
BLACK
10
136
20
-61.2
40
0.2
0
CIRCLE
8
BLACK
10
137
20
-61.2
40
0.2
0
CIRCLE
8
BLACK
10
142
20
-61.2
40
0.2
0
CIRCLE
8
BLACK
10
139
20
-61.2
40
0.2
0
CIRCLE
8
BLACK
10
138
20
-61.2
40
0.2
0
CIRCLE
8
BLACK
10
144
20
-37.2
40
0.2
0
CIRCLE
8
BLACK
10
146
20
-38.2
40
0.2
0
CIRCLE
8
BLACK
10
144
20
-38.2
40
0.2
0
CIRCLE
8
BLACK
10
146
20
-37.2
40
0.2
0
CIRCLE
8
BLACK
10
145
20
-37.2
40
0.2
0
CIRCLE
8
BLACK
10
145
20
-38.2
40
0.2
0
CIRCLE
8
BLACK
10
143
20
-37.2
40
0.2
0
CIRCLE
8
BLACK
10
143
20
-38.2
40
0.2
0
CIRCLE
8
BLACK
10
145
20
-39.2
40
0.2
0
CIRCLE
8
BLACK
10
145
20
-40.2
40
0.2
0
CIRCLE
8
BLACK
10
146
20
-39.2
40
0.2
0
CIRCLE
8
BLACK
10
143
20
-39.2
40
0.2
0
CIRCLE
8
BLACK
10
143
20
-40.2
40
0.2
0
CIRCLE
8
BLACK
10
146
20
-40.2
40
0.2
0
CIRCLE
8
BLACK
10
144
20
-40.2
40
0.2
0
CIRCLE
8
BLACK
10
144
20
-39.2
40
0.2
0
CIRCLE
8
BLACK
10
145
20
-41.2
40
0.2
0
CIRCLE
8
BLACK
10
145
20
-42.2
40
0.2
0
CIRCLE
8
BLACK
10
146
20
-41.2
40
0.2
0
CIRCLE
8
BLACK
10
143
20
-41.2
40
0.2
0
CIRCLE
8
BLACK
10
143
20
-42.2
40
0.2
0
CIRCLE
8
BLACK
10
146
20
-42.2
40
0.2
0
CIRCLE
8
BLACK
10
144
20
-42.2
40
0.2
0
CIRCLE
8
BLACK
10
144
20
-41.2
40
0.2
0
CIRCLE
8
BLACK
10
143
20
-43.2
40
0.2
0
CIRCLE
8
BLACK
10
146
20
-43.2
40
0.2
0
CIRCLE
8
BLACK
10
144
20
-43.2
40
0.2
0
CIRCLE
8
BLACK
10
145
20
-43.2
40
0.2
0
CIRCLE
8
BLACK
10
95.5
20
-51.3
40
0.2
0
CIRCLE
8
BLACK
10
99.4
20
-51.3
40
0.2
0
CIRCLE
8
BLACK
10
87.7
20
-54.7
40
0.2
0
CIRCLE
8
BLACK
10
95.6
20
-54.7
40
0.2
0
CIRCLE
8
BLACK
10
92.675
20
-54.7
40
0.2
0
CIRCLE
8
BLACK
10
119.5
20
-51
40
0.2
0
CIRCLE
8
BLACK
10
120.5
20
-50
40
0.2
0
CIRCLE
8
BLACK
10
118.5
20
-57
40
0.2
0
CIRCLE
8
BLACK
10
120.5
20
-49
40
0.2
0
CIRCLE
8
BLACK
10
121.5
20
-57
40
0.2
0
CIRCLE
8
BLACK
10
118.5
20
-52
40
0.2
0
CIRCLE
8
BLACK
10
119.5
20
-50
40
0.2
0
CIRCLE
8
BLACK
10
119.5
20
-55
40
0.2
0
CIRCLE
8
BLACK
10
121.5
20
-54
40
0.2
0
CIRCLE
8
BLACK
10
119.5
20
-52
40
0.2
0
CIRCLE
8
BLACK
10
121.5
20
-52
40
0.2
0
CIRCLE
8
BLACK
10
119.5
20
-53
40
0.2
0
CIRCLE
8
BLACK
10
121.5
20
-59
40
0.2
0
CIRCLE
8
BLACK
10
120.5
20
-60
40
0.2
0
CIRCLE
8
BLACK
10
118.5
20
-56
40
0.2
0
CIRCLE
8
BLACK
10
121.5
20
-56
40
0.2
0
CIRCLE
8
BLACK
10
120.5
20
-59
40
0.2
0
CIRCLE
8
BLACK
10
120.5
20
-57
40
0.2
0
CIRCLE
8
BLACK
10
118.5
20
-60
40
0.2
0
CIRCLE
8
BLACK
10
121.5
20
-55
40
0.2
0
CIRCLE
8
BLACK
10
119.5
20
-54
40
0.2
0
CIRCLE
8
BLACK
10
118.5
20
-59
40
0.2
0
CIRCLE
8
BLACK
10
121.5
20
-60
40
0.2
0
CIRCLE
8
BLACK
10
120.5
20
-55
40
0.2
0
CIRCLE
8
BLACK
10
120.5
20
-56
40
0.2
0
CIRCLE
8
BLACK
10
118.5
20
-55
40
0.2
0
CIRCLE
8
BLACK
10
120.5
20
-58
40
0.2
0
CIRCLE
8
BLACK
10
121.5
20
-58
40
0.2
0
CIRCLE
8
BLACK
10
119.5
20
-60
40
0.2
0
CIRCLE
8
BLACK
10
119.5
20
-56
40
0.2
0
CIRCLE
8
BLACK
10
119.5
20
-57
40
0.2
0
CIRCLE
8
BLACK
10
119.5
20
-61
40
0.2
0
CIRCLE
8
BLACK
10
120.5
20
-61
40
0.2
0
CIRCLE
8
BLACK
10
118.5
20
-61
40
0.2
0
CIRCLE
8
BLACK
10
121.5
20
-61
40
0.2
0
CIRCLE
8
BLACK
10
119.5
20
-58
40
0.2
0
CIRCLE
8
BLACK
10
119.5
20
-59
40
0.2
0
CIRCLE
8
BLACK
10
118.5
20
-58
40
0.2
0
CIRCLE
8
BLACK
10
118.5
20
-43
40
0.2
0
CIRCLE
8
BLACK
10
121.5
20
-47
40
0.2
0
CIRCLE
8
BLACK
10
119.5
20
-44
40
0.2
0
CIRCLE
8
BLACK
10
119.5
20
-48
40
0.2
0
CIRCLE
8
BLACK
10
121.5
20
-48
40
0.2
0
CIRCLE
8
BLACK
10
118.5
20
-44
40
0.2
0
CIRCLE
8
BLACK
10
119.5
20
-47
40
0.2
0
CIRCLE
8
BLACK
10
121.5
20
-46
40
0.2
0
CIRCLE
8
BLACK
10
120.5
20
-46
40
0.2
0
CIRCLE
8
BLACK
10
120.5
20
-45
40
0.2
0
CIRCLE
8
BLACK
10
119.5
20
-45
40
0.2
0
CIRCLE
8
BLACK
10
120.5
20
-48
40
0.2
0
CIRCLE
8
BLACK
10
120.5
20
-47
40
0.2
0
CIRCLE
8
BLACK
10
118.5
20
-45
40
0.2
0
CIRCLE
8
BLACK
10
118.5
20
-46
40
0.2
0
CIRCLE
8
BLACK
10
118.5
20
-47
40
0.2
0
CIRCLE
8
BLACK
10
121.5
20
-43
40
0.2
0
CIRCLE
8
BLACK
10
121.5
20
-45
40
0.2
0
CIRCLE
8
BLACK
10
120.5
20
-43
40
0.2
0
CIRCLE
8
BLACK
10
119.5
20
-49
40
0.2
0
CIRCLE
8
BLACK
10
120.5
20
-44
40
0.2
0
CIRCLE
8
BLACK
10
118.5
20
-48
40
0.2
0
CIRCLE
8
BLACK
10
119.5
20
-46
40
0.2
0
CIRCLE
8
BLACK
10
121.5
20
-44
40
0.2
0
CIRCLE
8
BLACK
10
118.5
20
-53
40
0.2
0
CIRCLE
8
BLACK
10
120.5
20
-51
40
0.2
0
CIRCLE
8
BLACK
10
118.5
20
-49
40
0.2
0
CIRCLE
8
BLACK
10
121.5
20
-49
40
0.2
0
CIRCLE
8
BLACK
10
118.5
20
-50
40
0.2
0
CIRCLE
8
BLACK
10
121.5
20
-53
40
0.2
0
CIRCLE
8
BLACK
10
120.5
20
-52
40
0.2
0
CIRCLE
8
BLACK
10
118.5
20
-51
40
0.2
0
CIRCLE
8
BLACK
10
118.5
20
-54
40
0.2
0
CIRCLE
8
BLACK
10
121.5
20
-51
40
0.2
0
CIRCLE
8
BLACK
10
120.5
20
-53
40
0.2
0
CIRCLE
8
BLACK
10
120.5
20
-54
40
0.2
0
CIRCLE
8
BLACK
10
121.5
20
-50
40
0.2
0
CIRCLE
8
BLACK
10
119.5
20
-37
40
0.2
0
CIRCLE
8
BLACK
10
118.5
20
-41
40
0.2
0
CIRCLE
8
BLACK
10
119.5
20
-38
40
0.2
0
CIRCLE
8
BLACK
10
121.5
20
-42
40
0.2
0
CIRCLE
8
BLACK
10
118.5
20
-39
40
0.2
0
CIRCLE
8
BLACK
10
118.5
20
-38
40
0.2
0
CIRCLE
8
BLACK
10
120.5
20
-37
40
0.2
0
CIRCLE
8
BLACK
10
119.5
20
-39
40
0.2
0
CIRCLE
8
BLACK
10
120.5
20
-38
40
0.2
0
CIRCLE
8
BLACK
10
119.5
20
-42
40
0.2
0
CIRCLE
8
BLACK
10
120.5
20
-41
40
0.2
0
CIRCLE
8
BLACK
10
119.5
20
-40
40
0.2
0
CIRCLE
8
BLACK
10
120.5
20
-40
40
0.2
0
CIRCLE
8
BLACK
10
120.5
20
-42
40
0.2
0
CIRCLE
8
BLACK
10
119.5
20
-41
40
0.2
0
CIRCLE
8
BLACK
10
118.5
20
-40
40
0.2
0
CIRCLE
8
BLACK
10
121.5
20
-41
40
0.2
0
CIRCLE
8
BLACK
10
121.5
20
-40
40
0.2
0
CIRCLE
8
BLACK
10
118.5
20
-42
40
0.2
0
CIRCLE
8
BLACK
10
118.5
20
-37
40
0.2
0
CIRCLE
8
BLACK
10
119.5
20
-43
40
0.2
0
CIRCLE
8
BLACK
10
121.5
20
-39
40
0.2
0
CIRCLE
8
BLACK
10
121.5
20
-37
40
0.2
0
CIRCLE
8
BLACK
10
121.5
20
-38
40
0.2
0
CIRCLE
8
BLACK
10
120.5
20
-39
40
0.2
0
CIRCLE
8
BLACK
10
131.5
20
-37
40
0.2
0
CIRCLE
8
BLACK
10
129.5
20
-39
40
0.2
0
CIRCLE
8
BLACK
10
130.5
20
-41
40
0.2
0
CIRCLE
8
BLACK
10
129.5
20
-41
40
0.2
0
CIRCLE
8
BLACK
10
130.5
20
-39
40
0.2
0
CIRCLE
8
BLACK
10
130.5
20
-38
40
0.2
0
CIRCLE
8
BLACK
10
130.5
20
-42
40
0.2
0
CIRCLE
8
BLACK
10
129.5
20
-40
40
0.2
0
CIRCLE
8
BLACK
10
129.5
20
-37
40
0.2
0
CIRCLE
8
BLACK
10
132.5
20
-42
40
0.2
0
CIRCLE
8
BLACK
10
131.5
20
-38
40
0.2
0
CIRCLE
8
BLACK
10
132.5
20
-38
40
0.2
0
CIRCLE
8
BLACK
10
131.5
20
-41
40
0.2
0
CIRCLE
8
BLACK
10
132.5
20
-41
40
0.2
0
CIRCLE
8
BLACK
10
132.5
20
-40
40
0.2
0
CIRCLE
8
BLACK
10
130.5
20
-37
40
0.2
0
CIRCLE
8
BLACK
10
132.5
20
-39
40
0.2
0
CIRCLE
8
BLACK
10
130.5
20
-40
40
0.2
0
CIRCLE
8
BLACK
10
129.5
20
-42
40
0.2
0
CIRCLE
8
BLACK
10
129.5
20
-38
40
0.2
0
CIRCLE
8
BLACK
10
132.5
20
-37
40
0.2
0
CIRCLE
8
BLACK
10
131.5
20
-40
40
0.2
0
CIRCLE
8
BLACK
10
131.5
20
-39
40
0.2
0
CIRCLE
8
BLACK
10
131.5
20
-42
40
0.2
0
CIRCLE
8
BLACK
10
123.5
20
-37
40
0.2
0
CIRCLE
8
BLACK
10
127.5
20
-40
40
0.2
0
CIRCLE
8
BLACK
10
122.5
20
-39
40
0.2
0
CIRCLE
8
BLACK
10
122.5
20
-42
40
0.2
0
CIRCLE
8
BLACK
10
126.5
20
-38
40
0.2
0
CIRCLE
8
BLACK
10
127.5
20
-42
40
0.2
0
CIRCLE
8
BLACK
10
122.5
20
-41
40
0.2
0
CIRCLE
8
BLACK
10
125.5
20
-37
40
0.2
0
CIRCLE
8
BLACK
10
122.5
20
-38
40
0.2
0
CIRCLE
8
BLACK
10
125.5
20
-39
40
0.2
0
CIRCLE
8
BLACK
10
125.5
20
-41
40
0.2
0
CIRCLE
8
BLACK
10
128.5
20
-38
40
0.2
0
CIRCLE
8
BLACK
10
126.5
20
-40
40
0.2
0
CIRCLE
8
BLACK
10
126.5
20
-42
40
0.2
0
CIRCLE
8
BLACK
10
126.5
20
-41
40
0.2
0
CIRCLE
8
BLACK
10
124.5
20
-42
40
0.2
0
CIRCLE
8
BLACK
10
127.5
20
-38
40
0.2
0
CIRCLE
8
BLACK
10
128.5
20
-39
40
0.2
0
CIRCLE
8
BLACK
10
127.5
20
-41
40
0.2
0
CIRCLE
8
BLACK
10
125.5
20
-38
40
0.2
0
CIRCLE
8
BLACK
10
124.5
20
-41
40
0.2
0
CIRCLE
8
BLACK
10
124.5
20
-39
40
0.2
0
CIRCLE
8
BLACK
10
127.5
20
-37
40
0.2
0
CIRCLE
8
BLACK
10
128.5
20
-37
40
0.2
0
CIRCLE
8
BLACK
10
122.5
20
-37
40
0.2
0
CIRCLE
8
BLACK
10
124.5
20
-40
40
0.2
0
CIRCLE
8
BLACK
10
128.5
20
-40
40
0.2
0
CIRCLE
8
BLACK
10
122.5
20
-40
40
0.2
0
CIRCLE
8
BLACK
10
123.5
20
-40
40
0.2
0
CIRCLE
8
BLACK
10
123.5
20
-38
40
0.2
0
CIRCLE
8
BLACK
10
127.5
20
-39
40
0.2
0
CIRCLE
8
BLACK
10
124.5
20
-37
40
0.2
0
CIRCLE
8
BLACK
10
123.5
20
-41
40
0.2
0
CIRCLE
8
BLACK
10
125.5
20
-40
40
0.2
0
CIRCLE
8
BLACK
10
125.5
20
-42
40
0.2
0
CIRCLE
8
BLACK
10
126.5
20
-39
40
0.2
0
CIRCLE
8
BLACK
10
126.5
20
-37
40
0.2
0
CIRCLE
8
BLACK
10
123.5
20
-39
40
0.2
0
CIRCLE
8
BLACK
10
124.5
20
-38
40
0.2
0
CIRCLE
8
BLACK
10
123.5
20
-42
40
0.2
0
CIRCLE
8
BLACK
10
131.5
20
-43
40
0.2
0
CIRCLE
8
BLACK
10
129.5
20
-45
40
0.2
0
CIRCLE
8
BLACK
10
130.5
20
-47
40
0.2
0
CIRCLE
8
BLACK
10
129.5
20
-47
40
0.2
0
CIRCLE
8
BLACK
10
130.5
20
-45
40
0.2
0
CIRCLE
8
BLACK
10
130.5
20
-44
40
0.2
0
CIRCLE
8
BLACK
10
130.5
20
-48
40
0.2
0
CIRCLE
8
BLACK
10
129.5
20
-46
40
0.2
0
CIRCLE
8
BLACK
10
129.5
20
-43
40
0.2
0
CIRCLE
8
BLACK
10
132.5
20
-48
40
0.2
0
CIRCLE
8
BLACK
10
131.5
20
-44
40
0.2
0
CIRCLE
8
BLACK
10
132.5
20
-44
40
0.2
0
CIRCLE
8
BLACK
10
131.5
20
-47
40
0.2
0
CIRCLE
8
BLACK
10
132.5
20
-47
40
0.2
0
CIRCLE
8
BLACK
10
132.5
20
-46
40
0.2
0
CIRCLE
8
BLACK
10
130.5
20
-43
40
0.2
0
CIRCLE
8
BLACK
10
132.5
20
-45
40
0.2
0
CIRCLE
8
BLACK
10
130.5
20
-46
40
0.2
0
CIRCLE
8
BLACK
10
129.5
20
-48
40
0.2
0
CIRCLE
8
BLACK
10
129.5
20
-44
40
0.2
0
CIRCLE
8
BLACK
10
132.5
20
-43
40
0.2
0
CIRCLE
8
BLACK
10
131.5
20
-46
40
0.2
0
CIRCLE
8
BLACK
10
131.5
20
-45
40
0.2
0
CIRCLE
8
BLACK
10
131.5
20
-48
40
0.2
0
CIRCLE
8
BLACK
10
123.5
20
-43
40
0.2
0
CIRCLE
8
BLACK
10
127.5
20
-46
40
0.2
0
CIRCLE
8
BLACK
10
122.5
20
-45
40
0.2
0
CIRCLE
8
BLACK
10
122.5
20
-48
40
0.2
0
CIRCLE
8
BLACK
10
126.5
20
-44
40
0.2
0
CIRCLE
8
BLACK
10
127.5
20
-48
40
0.2
0
CIRCLE
8
BLACK
10
122.5
20
-47
40
0.2
0
CIRCLE
8
BLACK
10
125.5
20
-43
40
0.2
0
CIRCLE
8
BLACK
10
122.5
20
-44
40
0.2
0
CIRCLE
8
BLACK
10
125.5
20
-45
40
0.2
0
CIRCLE
8
BLACK
10
125.5
20
-47
40
0.2
0
CIRCLE
8
BLACK
10
128.5
20
-44
40
0.2
0
CIRCLE
8
BLACK
10
126.5
20
-46
40
0.2
0
CIRCLE
8
BLACK
10
126.5
20
-48
40
0.2
0
CIRCLE
8
BLACK
10
126.5
20
-47
40
0.2
0
CIRCLE
8
BLACK
10
124.5
20
-48
40
0.2
0
CIRCLE
8
BLACK
10
127.5
20
-44
40
0.2
0
CIRCLE
8
BLACK
10
128.5
20
-45
40
0.2
0
CIRCLE
8
BLACK
10
127.5
20
-47
40
0.2
0
CIRCLE
8
BLACK
10
125.5
20
-44
40
0.2
0
CIRCLE
8
BLACK
10
124.5
20
-47
40
0.2
0
CIRCLE
8
BLACK
10
124.5
20
-45
40
0.2
0
CIRCLE
8
BLACK
10
127.5
20
-43
40
0.2
0
CIRCLE
8
BLACK
10
128.5
20
-43
40
0.2
0
CIRCLE
8
BLACK
10
122.5
20
-43
40
0.2
0
CIRCLE
8
BLACK
10
124.5
20
-46
40
0.2
0
CIRCLE
8
BLACK
10
128.5
20
-46
40
0.2
0
CIRCLE
8
BLACK
10
122.5
20
-46
40
0.2
0
CIRCLE
8
BLACK
10
123.5
20
-46
40
0.2
0
CIRCLE
8
BLACK
10
123.5
20
-44
40
0.2
0
CIRCLE
8
BLACK
10
127.5
20
-45
40
0.2
0
CIRCLE
8
BLACK
10
124.5
20
-43
40
0.2
0
CIRCLE
8
BLACK
10
123.5
20
-47
40
0.2
0
CIRCLE
8
BLACK
10
125.5
20
-46
40
0.2
0
CIRCLE
8
BLACK
10
125.5
20
-48
40
0.2
0
CIRCLE
8
BLACK
10
126.5
20
-45
40
0.2
0
CIRCLE
8
BLACK
10
126.5
20
-43
40
0.2
0
CIRCLE
8
BLACK
10
123.5
20
-45
40
0.2
0
CIRCLE
8
BLACK
10
124.5
20
-44
40
0.2
0
CIRCLE
8
BLACK
10
123.5
20
-48
40
0.2
0
CIRCLE
8
BLACK
10
131.5
20
-49
40
0.2
0
CIRCLE
8
BLACK
10
129.5
20
-51
40
0.2
0
CIRCLE
8
BLACK
10
130.5
20
-53
40
0.2
0
CIRCLE
8
BLACK
10
129.5
20
-53
40
0.2
0
CIRCLE
8
BLACK
10
130.5
20
-51
40
0.2
0
CIRCLE
8
BLACK
10
130.5
20
-50
40
0.2
0
CIRCLE
8
BLACK
10
130.5
20
-54
40
0.2
0
CIRCLE
8
BLACK
10
129.5
20
-52
40
0.2
0
CIRCLE
8
BLACK
10
129.5
20
-49
40
0.2
0
CIRCLE
8
BLACK
10
132.5
20
-54
40
0.2
0
CIRCLE
8
BLACK
10
131.5
20
-50
40
0.2
0
CIRCLE
8
BLACK
10
132.5
20
-50
40
0.2
0
CIRCLE
8
BLACK
10
131.5
20
-53
40
0.2
0
CIRCLE
8
BLACK
10
132.5
20
-53
40
0.2
0
CIRCLE
8
BLACK
10
132.5
20
-52
40
0.2
0
CIRCLE
8
BLACK
10
130.5
20
-49
40
0.2
0
CIRCLE
8
BLACK
10
132.5
20
-51
40
0.2
0
CIRCLE
8
BLACK
10
130.5
20
-52
40
0.2
0
CIRCLE
8
BLACK
10
129.5
20
-54
40
0.2
0
CIRCLE
8
BLACK
10
129.5
20
-50
40
0.2
0
CIRCLE
8
BLACK
10
132.5
20
-49
40
0.2
0
CIRCLE
8
BLACK
10
131.5
20
-52
40
0.2
0
CIRCLE
8
BLACK
10
131.5
20
-51
40
0.2
0
CIRCLE
8
BLACK
10
131.5
20
-54
40
0.2
0
CIRCLE
8
BLACK
10
123.5
20
-49
40
0.2
0
CIRCLE
8
BLACK
10
127.5
20
-52
40
0.2
0
CIRCLE
8
BLACK
10
122.5
20
-51
40
0.2
0
CIRCLE
8
BLACK
10
122.5
20
-54
40
0.2
0
CIRCLE
8
BLACK
10
126.5
20
-50
40
0.2
0
CIRCLE
8
BLACK
10
127.5
20
-54
40
0.2
0
CIRCLE
8
BLACK
10
122.5
20
-53
40
0.2
0
CIRCLE
8
BLACK
10
125.5
20
-49
40
0.2
0
CIRCLE
8
BLACK
10
122.5
20
-50
40
0.2
0
CIRCLE
8
BLACK
10
125.5
20
-51
40
0.2
0
CIRCLE
8
BLACK
10
125.5
20
-53
40
0.2
0
CIRCLE
8
BLACK
10
128.5
20
-50
40
0.2
0
CIRCLE
8
BLACK
10
126.5
20
-52
40
0.2
0
CIRCLE
8
BLACK
10
126.5
20
-54
40
0.2
0
CIRCLE
8
BLACK
10
126.5
20
-53
40
0.2
0
CIRCLE
8
BLACK
10
124.5
20
-54
40
0.2
0
CIRCLE
8
BLACK
10
127.5
20
-50
40
0.2
0
CIRCLE
8
BLACK
10
128.5
20
-51
40
0.2
0
CIRCLE
8
BLACK
10
127.5
20
-53
40
0.2
0
CIRCLE
8
BLACK
10
125.5
20
-50
40
0.2
0
CIRCLE
8
BLACK
10
124.5
20
-53
40
0.2
0
CIRCLE
8
BLACK
10
124.5
20
-51
40
0.2
0
CIRCLE
8
BLACK
10
127.5
20
-49
40
0.2
0
CIRCLE
8
BLACK
10
128.5
20
-49
40
0.2
0
CIRCLE
8
BLACK
10
122.5
20
-49
40
0.2
0
CIRCLE
8
BLACK
10
124.5
20
-52
40
0.2
0
CIRCLE
8
BLACK
10
128.5
20
-52
40
0.2
0
CIRCLE
8
BLACK
10
122.5
20
-52
40
0.2
0
CIRCLE
8
BLACK
10
123.5
20
-52
40
0.2
0
CIRCLE
8
BLACK
10
123.5
20
-50
40
0.2
0
CIRCLE
8
BLACK
10
127.5
20
-51
40
0.2
0
CIRCLE
8
BLACK
10
124.5
20
-49
40
0.2
0
CIRCLE
8
BLACK
10
123.5
20
-53
40
0.2
0
CIRCLE
8
BLACK
10
125.5
20
-52
40
0.2
0
CIRCLE
8
BLACK
10
125.5
20
-54
40
0.2
0
CIRCLE
8
BLACK
10
126.5
20
-51
40
0.2
0
CIRCLE
8
BLACK
10
126.5
20
-49
40
0.2
0
CIRCLE
8
BLACK
10
123.5
20
-51
40
0.2
0
CIRCLE
8
BLACK
10
124.5
20
-50
40
0.2
0
CIRCLE
8
BLACK
10
123.5
20
-54
40
0.2
0
CIRCLE
8
BLACK
10
128.5
20
-53
40
0.2
0
CIRCLE
8
BLACK
10
128.5
20
-54
40
0.2
0
CIRCLE
8
BLACK
10
131.5
20
-55
40
0.2
0
CIRCLE
8
BLACK
10
129.5
20
-57
40
0.2
0
CIRCLE
8
BLACK
10
130.5
20
-59
40
0.2
0
CIRCLE
8
BLACK
10
129.5
20
-59
40
0.2
0
CIRCLE
8
BLACK
10
130.5
20
-57
40
0.2
0
CIRCLE
8
BLACK
10
130.5
20
-56
40
0.2
0
CIRCLE
8
BLACK
10
130.5
20
-60
40
0.2
0
CIRCLE
8
BLACK
10
129.5
20
-58
40
0.2
0
CIRCLE
8
BLACK
10
129.5
20
-55
40
0.2
0
CIRCLE
8
BLACK
10
132.5
20
-60
40
0.2
0
CIRCLE
8
BLACK
10
131.5
20
-56
40
0.2
0
CIRCLE
8
BLACK
10
132.5
20
-56
40
0.2
0
CIRCLE
8
BLACK
10
131.5
20
-59
40
0.2
0
CIRCLE
8
BLACK
10
132.5
20
-59
40
0.2
0
CIRCLE
8
BLACK
10
132.5
20
-58
40
0.2
0
CIRCLE
8
BLACK
10
130.5
20
-55
40
0.2
0
CIRCLE
8
BLACK
10
132.5
20
-57
40
0.2
0
CIRCLE
8
BLACK
10
130.5
20
-58
40
0.2
0
CIRCLE
8
BLACK
10
129.5
20
-60
40
0.2
0
CIRCLE
8
BLACK
10
129.5
20
-56
40
0.2
0
CIRCLE
8
BLACK
10
132.5
20
-55
40
0.2
0
CIRCLE
8
BLACK
10
131.5
20
-58
40
0.2
0
CIRCLE
8
BLACK
10
131.5
20
-57
40
0.2
0
CIRCLE
8
BLACK
10
131.5
20
-60
40
0.2
0
CIRCLE
8
BLACK
10
123.5
20
-55
40
0.2
0
CIRCLE
8
BLACK
10
127.5
20
-58
40
0.2
0
CIRCLE
8
BLACK
10
122.5
20
-57
40
0.2
0
CIRCLE
8
BLACK
10
122.5
20
-60
40
0.2
0
CIRCLE
8
BLACK
10
126.5
20
-56
40
0.2
0
CIRCLE
8
BLACK
10
127.5
20
-60
40
0.2
0
CIRCLE
8
BLACK
10
122.5
20
-59
40
0.2
0
CIRCLE
8
BLACK
10
125.5
20
-55
40
0.2
0
CIRCLE
8
BLACK
10
122.5
20
-56
40
0.2
0
CIRCLE
8
BLACK
10
125.5
20
-57
40
0.2
0
CIRCLE
8
BLACK
10
125.5
20
-59
40
0.2
0
CIRCLE
8
BLACK
10
128.5
20
-56
40
0.2
0
CIRCLE
8
BLACK
10
126.5
20
-58
40
0.2
0
CIRCLE
8
BLACK
10
126.5
20
-60
40
0.2
0
CIRCLE
8
BLACK
10
126.5
20
-59
40
0.2
0
CIRCLE
8
BLACK
10
124.5
20
-60
40
0.2
0
CIRCLE
8
BLACK
10
127.5
20
-56
40
0.2
0
CIRCLE
8
BLACK
10
128.5
20
-57
40
0.2
0
CIRCLE
8
BLACK
10
127.5
20
-59
40
0.2
0
CIRCLE
8
BLACK
10
125.5
20
-56
40
0.2
0
CIRCLE
8
BLACK
10
124.5
20
-59
40
0.2
0
CIRCLE
8
BLACK
10
124.5
20
-57
40
0.2
0
CIRCLE
8
BLACK
10
127.5
20
-55
40
0.2
0
CIRCLE
8
BLACK
10
128.5
20
-55
40
0.2
0
CIRCLE
8
BLACK
10
122.5
20
-55
40
0.2
0
CIRCLE
8
BLACK
10
124.5
20
-58
40
0.2
0
CIRCLE
8
BLACK
10
128.5
20
-58
40
0.2
0
CIRCLE
8
BLACK
10
122.5
20
-58
40
0.2
0
CIRCLE
8
BLACK
10
123.5
20
-58
40
0.2
0
CIRCLE
8
BLACK
10
123.5
20
-56
40
0.2
0
CIRCLE
8
BLACK
10
127.5
20
-57
40
0.2
0
CIRCLE
8
BLACK
10
124.5
20
-55
40
0.2
0
CIRCLE
8
BLACK
10
123.5
20
-59
40
0.2
0
CIRCLE
8
BLACK
10
125.5
20
-58
40
0.2
0
CIRCLE
8
BLACK
10
125.5
20
-60
40
0.2
0
CIRCLE
8
BLACK
10
126.5
20
-57
40
0.2
0
CIRCLE
8
BLACK
10
126.5
20
-55
40
0.2
0
CIRCLE
8
BLACK
10
123.5
20
-57
40
0.2
0
CIRCLE
8
BLACK
10
124.5
20
-56
40
0.2
0
CIRCLE
8
BLACK
10
123.5
20
-60
40
0.2
0
CIRCLE
8
BLACK
10
127.5
20
-61
40
0.2
0
CIRCLE
8
BLACK
10
122.5
20
-61
40
0.2
0
CIRCLE
8
BLACK
10
126.5
20
-61
40
0.2
0
CIRCLE
8
BLACK
10
125.5
20
-61
40
0.2
0
CIRCLE
8
BLACK
10
123.5
20
-61
40
0.2
0
CIRCLE
8
BLACK
10
124.5
20
-61
40
0.2
0
CIRCLE
8
BLACK
10
130.5
20
-61
40
0.2
0
CIRCLE
8
BLACK
10
129.5
20
-61
40
0.2
0
CIRCLE
8
BLACK
10
132.5
20
-61
40
0.2
0
CIRCLE
8
BLACK
10
131.5
20
-61
40
0.2
0
CIRCLE
8
BLACK
10
128.5
20
-61
40
0.2
0
CIRCLE
8
BLACK
10
128.5
20
-59
40
0.2
0
CIRCLE
8
BLACK
10
128.5
20
-60
40
0.2
0
CIRCLE
8
BLACK
10
128.5
20
-47
40
0.2
0
CIRCLE
8
BLACK
10
128.5
20
-48
40
0.2
0
CIRCLE
8
BLACK
10
128.5
20
-41
40
0.2
0
CIRCLE
8
BLACK
10
128.5
20
-42
40
0.2
0
CIRCLE
8
BLACK
10
85
20
-50.4
40
0.2
0
CIRCLE
8
BLACK
10
75
20
-53.4
40
0.2
0
CIRCLE
8
BLACK
10
81
20
-53.4
40
0.2
0
CIRCLE
8
BLACK
10
80
20
-53.4
40
0.2
0
CIRCLE
8
BLACK
10
86
20
-50.4
40
0.2
0
CIRCLE
8
BLACK
10
85
20
-51.4
40
0.2
0
CIRCLE
8
BLACK
10
86
20
-52.4
40
0.2
0
CIRCLE
8
BLACK
10
86
20
-53.4
40
0.2
0
CIRCLE
8
BLACK
10
76
20
-53.4
40
0.2
0
CIRCLE
8
BLACK
10
74
20
-53.4
40
0.2
0
CIRCLE
8
BLACK
10
78
20
-53.4
40
0.2
0
CIRCLE
8
BLACK
10
86
20
-51.4
40
0.2
0
CIRCLE
8
BLACK
10
79
20
-53.4
40
0.2
0
CIRCLE
8
BLACK
10
84
20
-53.4
40
0.2
0
CIRCLE
8
BLACK
10
85
20
-53.4
40
0.2
0
CIRCLE
8
BLACK
10
83
20
-53.4
40
0.2
0
CIRCLE
8
BLACK
10
85
20
-52.4
40
0.2
0
CIRCLE
8
BLACK
10
77
20
-53.4
40
0.2
0
CIRCLE
8
BLACK
10
82
20
-55.4
40
0.2
0
CIRCLE
8
BLACK
10
75
20
-54.4
40
0.2
0
CIRCLE
8
BLACK
10
78
20
-54.4
40
0.2
0
CIRCLE
8
BLACK
10
83
20
-55.4
40
0.2
0
CIRCLE
8
BLACK
10
84
20
-55.4
40
0.2
0
CIRCLE
8
BLACK
10
77
20
-55.4
40
0.2
0
CIRCLE
8
BLACK
10
84
20
-54.4
40
0.2
0
CIRCLE
8
BLACK
10
85
20
-54.4
40
0.2
0
CIRCLE
8
BLACK
10
75
20
-55.4
40
0.2
0
CIRCLE
8
BLACK
10
81
20
-55.4
40
0.2
0
CIRCLE
8
BLACK
10
78
20
-56.4
40
0.2
0
CIRCLE
8
BLACK
10
86
20
-55.4
40
0.2
0
CIRCLE
8
BLACK
10
77
20
-57.4
40
0.2
0
CIRCLE
8
BLACK
10
81
20
-54.4
40
0.2
0
CIRCLE
8
BLACK
10
84
20
-56.4
40
0.2
0
CIRCLE
8
BLACK
10
80
20
-54.4
40
0.2
0
CIRCLE
8
BLACK
10
79
20
-55.4
40
0.2
0
CIRCLE
8
BLACK
10
85
20
-56.4
40
0.2
0
CIRCLE
8
BLACK
10
75
20
-57.4
40
0.2
0
CIRCLE
8
BLACK
10
83
20
-57.4
40
0.2
0
CIRCLE
8
BLACK
10
81
20
-57.4
40
0.2
0
CIRCLE
8
BLACK
10
77
20
-54.4
40
0.2
0
CIRCLE
8
BLACK
10
83
20
-54.4
40
0.2
0
CIRCLE
8
BLACK
10
76
20
-54.4
40
0.2
0
CIRCLE
8
BLACK
10
86
20
-54.4
40
0.2
0
CIRCLE
8
BLACK
10
85
20
-55.4
40
0.2
0
CIRCLE
8
BLACK
10
78
20
-55.4
40
0.2
0
CIRCLE
8
BLACK
10
76
20
-55.4
40
0.2
0
CIRCLE
8
BLACK
10
79
20
-54.4
40
0.2
0
CIRCLE
8
BLACK
10
82
20
-57.4
40
0.2
0
CIRCLE
8
BLACK
10
80
20
-55.4
40
0.2
0
CIRCLE
8
BLACK
10
74
20
-54.4
40
0.2
0
CIRCLE
8
BLACK
10
82
20
-54.4
40
0.2
0
CIRCLE
8
BLACK
10
75
20
-56.4
40
0.2
0
CIRCLE
8
BLACK
10
82
20
-53.4
40
0.2
0
CIRCLE
8
BLACK
10
74
20
-55.4
40
0.2
0
CIRCLE
8
BLACK
10
84
20
-57.4
40
0.2
0
CIRCLE
8
BLACK
10
77
20
-56.4
40
0.2
0
CIRCLE
8
BLACK
10
86
20
-56.4
40
0.2
0
CIRCLE
8
BLACK
10
82
20
-56.4
40
0.2
0
CIRCLE
8
BLACK
10
78
20
-57.4
40
0.2
0
CIRCLE
8
BLACK
10
76
20
-57.4
40
0.2
0
CIRCLE
8
BLACK
10
74
20
-57.4
40
0.2
0
CIRCLE
8
BLACK
10
81
20
-56.4
40
0.2
0
CIRCLE
8
BLACK
10
85
20
-57.4
40
0.2
0
CIRCLE
8
BLACK
10
86
20
-57.4
40
0.2
0
CIRCLE
8
BLACK
10
76
20
-56.4
40
0.2
0
CIRCLE
8
BLACK
10
80
20
-56.4
40
0.2
0
CIRCLE
8
BLACK
10
80
20
-57.4
40
0.2
0
CIRCLE
8
BLACK
10
79
20
-56.4
40
0.2
0
CIRCLE
8
BLACK
10
83
20
-56.4
40
0.2
0
CIRCLE
8
BLACK
10
74
20
-56.4
40
0.2
0
CIRCLE
8
BLACK
10
79
20
-57.4
40
0.2
0
CIRCLE
8
BLACK
10
78
20
-51.4
40
0.2
0
CIRCLE
8
BLACK
10
79
20
-51.4
40
0.2
0
CIRCLE
8
BLACK
10
82
20
-52.4
40
0.2
0
CIRCLE
8
BLACK
10
81
20
-50.4
40
0.2
0
CIRCLE
8
BLACK
10
80
20
-51.4
40
0.2
0
CIRCLE
8
BLACK
10
76
20
-52.4
40
0.2
0
CIRCLE
8
BLACK
10
77
20
-52.4
40
0.2
0
CIRCLE
8
BLACK
10
81
20
-51.4
40
0.2
0
CIRCLE
8
BLACK
10
83
20
-51.4
40
0.2
0
CIRCLE
8
BLACK
10
82
20
-51.4
40
0.2
0
CIRCLE
8
BLACK
10
75
20
-50.4
40
0.2
0
CIRCLE
8
BLACK
10
76
20
-50.4
40
0.2
0
CIRCLE
8
BLACK
10
77
20
-50.4
40
0.2
0
CIRCLE
8
BLACK
10
83
20
-50.4
40
0.2
0
CIRCLE
8
BLACK
10
80
20
-52.4
40
0.2
0
CIRCLE
8
BLACK
10
74
20
-51.4
40
0.2
0
CIRCLE
8
BLACK
10
81
20
-52.4
40
0.2
0
CIRCLE
8
BLACK
10
76
20
-51.4
40
0.2
0
CIRCLE
8
BLACK
10
80
20
-50.4
40
0.2
0
CIRCLE
8
BLACK
10
75
20
-51.4
40
0.2
0
CIRCLE
8
BLACK
10
82
20
-50.4
40
0.2
0
CIRCLE
8
BLACK
10
83
20
-52.4
40
0.2
0
CIRCLE
8
BLACK
10
84
20
-51.4
40
0.2
0
CIRCLE
8
BLACK
10
84
20
-52.4
40
0.2
0
CIRCLE
8
BLACK
10
77
20
-51.4
40
0.2
0
CIRCLE
8
BLACK
10
78
20
-50.4
40
0.2
0
CIRCLE
8
BLACK
10
75
20
-52.4
40
0.2
0
CIRCLE
8
BLACK
10
79
20
-50.4
40
0.2
0
CIRCLE
8
BLACK
10
84
20
-50.4
40
0.2
0
CIRCLE
8
BLACK
10
79
20
-52.4
40
0.2
0
CIRCLE
8
BLACK
10
78
20
-52.4
40
0.2
0
CIRCLE
8
BLACK
10
74
20
-52.4
40
0.2
0
CIRCLE
8
BLACK
10
74
20
-50.4
40
0.2
  0
ENDSEC
  0
EOF
